G04 EAGLE Gerber RS-274X export*
G75*
%MOMM*%
%FSLAX34Y34*%
%LPD*%
%INBottom Copper*%
%IPPOS*%
%AMOC8*
5,1,8,0,0,1.08239X$1,22.5*%
G01*
%ADD10P,1.732040X8X112.500000*%
%ADD11C,1.600200*%
%ADD12C,1.320800*%
%ADD13C,1.625600*%
%ADD14C,1.450000*%
%ADD15C,1.108000*%
%ADD16P,2.089446X8X22.500000*%
%ADD17C,1.800000*%
%ADD18R,1.508000X1.508000*%
%ADD19C,1.508000*%
%ADD20C,0.685800*%
%ADD21C,0.203200*%
%ADD22C,0.304800*%

G36*
X821802Y2549D02*
X821802Y2549D01*
X821860Y2547D01*
X821942Y2569D01*
X822026Y2581D01*
X822079Y2604D01*
X822135Y2619D01*
X822208Y2662D01*
X822285Y2697D01*
X822330Y2735D01*
X822380Y2764D01*
X822438Y2826D01*
X822502Y2880D01*
X822534Y2929D01*
X822574Y2972D01*
X822613Y3047D01*
X822660Y3117D01*
X822677Y3173D01*
X822704Y3225D01*
X822715Y3293D01*
X822745Y3388D01*
X822748Y3488D01*
X822759Y3556D01*
X822759Y691644D01*
X822751Y691702D01*
X822753Y691760D01*
X822731Y691842D01*
X822719Y691926D01*
X822696Y691979D01*
X822681Y692035D01*
X822638Y692108D01*
X822603Y692185D01*
X822565Y692230D01*
X822536Y692280D01*
X822474Y692338D01*
X822420Y692402D01*
X822371Y692434D01*
X822328Y692474D01*
X822253Y692513D01*
X822183Y692560D01*
X822127Y692577D01*
X822075Y692604D01*
X822007Y692615D01*
X821912Y692645D01*
X821812Y692648D01*
X821744Y692659D01*
X586965Y692659D01*
X586894Y692649D01*
X586821Y692649D01*
X586753Y692629D01*
X586684Y692619D01*
X586618Y692590D01*
X586548Y692570D01*
X586489Y692532D01*
X586424Y692503D01*
X586369Y692456D01*
X586308Y692418D01*
X586261Y692365D01*
X586207Y692320D01*
X586167Y692259D01*
X586119Y692205D01*
X586089Y692142D01*
X586050Y692083D01*
X586028Y692014D01*
X585997Y691949D01*
X585985Y691879D01*
X585964Y691812D01*
X585962Y691740D01*
X585950Y691668D01*
X585958Y691598D01*
X585956Y691528D01*
X585975Y691458D01*
X585983Y691386D01*
X586008Y691331D01*
X586028Y691253D01*
X586090Y691149D01*
X586121Y691080D01*
X586991Y689778D01*
X587600Y688307D01*
X587911Y686746D01*
X587911Y681909D01*
X580314Y681909D01*
X580256Y681901D01*
X580198Y681903D01*
X580116Y681881D01*
X580033Y681869D01*
X579979Y681846D01*
X579923Y681831D01*
X579850Y681788D01*
X579831Y681779D01*
X579785Y681810D01*
X579729Y681827D01*
X579677Y681854D01*
X579609Y681865D01*
X579514Y681895D01*
X579414Y681898D01*
X579346Y681909D01*
X571749Y681909D01*
X571749Y686746D01*
X572060Y688307D01*
X572669Y689778D01*
X573539Y691080D01*
X573570Y691145D01*
X573610Y691205D01*
X573632Y691272D01*
X573662Y691336D01*
X573674Y691407D01*
X573696Y691476D01*
X573698Y691547D01*
X573710Y691616D01*
X573702Y691688D01*
X573704Y691760D01*
X573686Y691829D01*
X573678Y691899D01*
X573650Y691966D01*
X573632Y692035D01*
X573596Y692096D01*
X573569Y692161D01*
X573523Y692218D01*
X573486Y692280D01*
X573435Y692328D01*
X573391Y692383D01*
X573332Y692425D01*
X573279Y692474D01*
X573216Y692507D01*
X573159Y692547D01*
X573090Y692571D01*
X573026Y692604D01*
X572967Y692614D01*
X572890Y692640D01*
X572770Y692647D01*
X572695Y692659D01*
X516965Y692659D01*
X516894Y692649D01*
X516821Y692649D01*
X516753Y692629D01*
X516684Y692619D01*
X516618Y692590D01*
X516548Y692570D01*
X516489Y692532D01*
X516424Y692503D01*
X516369Y692456D01*
X516308Y692418D01*
X516261Y692365D01*
X516207Y692320D01*
X516167Y692259D01*
X516119Y692205D01*
X516089Y692142D01*
X516050Y692083D01*
X516028Y692014D01*
X515997Y691949D01*
X515985Y691879D01*
X515964Y691812D01*
X515962Y691740D01*
X515950Y691668D01*
X515958Y691598D01*
X515956Y691528D01*
X515975Y691458D01*
X515983Y691386D01*
X516008Y691331D01*
X516028Y691253D01*
X516090Y691149D01*
X516121Y691080D01*
X516991Y689778D01*
X517600Y688307D01*
X517911Y686746D01*
X517911Y681909D01*
X510314Y681909D01*
X510256Y681901D01*
X510198Y681903D01*
X510116Y681881D01*
X510033Y681869D01*
X509979Y681846D01*
X509923Y681831D01*
X509850Y681788D01*
X509831Y681779D01*
X509785Y681810D01*
X509729Y681827D01*
X509677Y681854D01*
X509609Y681865D01*
X509514Y681895D01*
X509414Y681898D01*
X509346Y681909D01*
X501749Y681909D01*
X501749Y686746D01*
X502060Y688307D01*
X502669Y689778D01*
X503539Y691080D01*
X503570Y691145D01*
X503610Y691205D01*
X503632Y691272D01*
X503662Y691336D01*
X503674Y691407D01*
X503696Y691476D01*
X503698Y691547D01*
X503710Y691616D01*
X503702Y691688D01*
X503704Y691760D01*
X503686Y691829D01*
X503678Y691899D01*
X503650Y691966D01*
X503632Y692035D01*
X503596Y692096D01*
X503569Y692161D01*
X503523Y692218D01*
X503486Y692280D01*
X503435Y692328D01*
X503391Y692383D01*
X503332Y692425D01*
X503279Y692474D01*
X503216Y692507D01*
X503159Y692547D01*
X503090Y692571D01*
X503026Y692604D01*
X502967Y692614D01*
X502890Y692640D01*
X502770Y692647D01*
X502695Y692659D01*
X3556Y692659D01*
X3498Y692651D01*
X3440Y692653D01*
X3358Y692631D01*
X3274Y692619D01*
X3221Y692596D01*
X3165Y692581D01*
X3092Y692538D01*
X3015Y692503D01*
X2970Y692465D01*
X2920Y692436D01*
X2862Y692374D01*
X2798Y692320D01*
X2766Y692271D01*
X2726Y692228D01*
X2687Y692153D01*
X2640Y692083D01*
X2623Y692027D01*
X2596Y691975D01*
X2585Y691907D01*
X2555Y691812D01*
X2552Y691712D01*
X2541Y691644D01*
X2541Y3556D01*
X2549Y3498D01*
X2547Y3440D01*
X2569Y3358D01*
X2581Y3274D01*
X2604Y3221D01*
X2619Y3165D01*
X2662Y3092D01*
X2697Y3015D01*
X2735Y2970D01*
X2764Y2920D01*
X2826Y2862D01*
X2880Y2798D01*
X2929Y2766D01*
X2972Y2726D01*
X3047Y2687D01*
X3117Y2640D01*
X3173Y2623D01*
X3225Y2596D01*
X3293Y2585D01*
X3388Y2555D01*
X3488Y2552D01*
X3556Y2541D01*
X821744Y2541D01*
X821802Y2549D01*
G37*
%LPC*%
G36*
X220777Y287273D02*
X220777Y287273D01*
X183609Y324441D01*
X183539Y324493D01*
X183475Y324553D01*
X183426Y324579D01*
X183382Y324612D01*
X183300Y324643D01*
X183222Y324683D01*
X183175Y324691D01*
X183116Y324713D01*
X182969Y324725D01*
X182891Y324738D01*
X181794Y324738D01*
X179786Y325570D01*
X178250Y327106D01*
X177418Y329114D01*
X177418Y331286D01*
X178250Y333294D01*
X179786Y334830D01*
X181794Y335662D01*
X183966Y335662D01*
X185974Y334830D01*
X187510Y333294D01*
X188342Y331286D01*
X188342Y330189D01*
X188354Y330102D01*
X188357Y330015D01*
X188374Y329962D01*
X188382Y329907D01*
X188417Y329827D01*
X188444Y329744D01*
X188472Y329705D01*
X188498Y329648D01*
X188594Y329535D01*
X188639Y329471D01*
X223426Y294684D01*
X223496Y294632D01*
X223560Y294572D01*
X223609Y294546D01*
X223653Y294513D01*
X223735Y294482D01*
X223813Y294442D01*
X223860Y294434D01*
X223919Y294412D01*
X224066Y294400D01*
X224144Y294387D01*
X253587Y294387D01*
X253616Y294391D01*
X253645Y294388D01*
X253757Y294411D01*
X253869Y294427D01*
X253895Y294439D01*
X253924Y294444D01*
X254025Y294497D01*
X254128Y294543D01*
X254150Y294562D01*
X254177Y294575D01*
X254259Y294653D01*
X254345Y294726D01*
X254361Y294751D01*
X254383Y294771D01*
X254440Y294869D01*
X254503Y294963D01*
X254512Y294991D01*
X254526Y295016D01*
X254554Y295126D01*
X254588Y295234D01*
X254589Y295264D01*
X254596Y295292D01*
X254593Y295405D01*
X254596Y295518D01*
X254588Y295547D01*
X254587Y295576D01*
X254553Y295684D01*
X254524Y295793D01*
X254509Y295819D01*
X254500Y295847D01*
X254454Y295911D01*
X254379Y296038D01*
X254333Y296081D01*
X254305Y296120D01*
X253180Y297245D01*
X252348Y299253D01*
X252348Y301499D01*
X252369Y301579D01*
X252369Y301581D01*
X252369Y301583D01*
X252365Y301724D01*
X252361Y301864D01*
X252360Y301865D01*
X252360Y301867D01*
X252317Y301999D01*
X252274Y302134D01*
X252273Y302136D01*
X252273Y302137D01*
X252264Y302149D01*
X252116Y302370D01*
X252092Y302390D01*
X252078Y302410D01*
X250951Y303537D01*
X250951Y420363D01*
X260941Y430352D01*
X260993Y430422D01*
X261053Y430486D01*
X261079Y430536D01*
X261112Y430580D01*
X261143Y430661D01*
X261183Y430739D01*
X261191Y430787D01*
X261213Y430845D01*
X261225Y430993D01*
X261238Y431070D01*
X261238Y432886D01*
X262070Y434894D01*
X263606Y436430D01*
X265614Y437262D01*
X267786Y437262D01*
X269794Y436430D01*
X271330Y434894D01*
X272162Y432886D01*
X272162Y430714D01*
X271330Y428706D01*
X269794Y427170D01*
X267786Y426338D01*
X265970Y426338D01*
X265884Y426326D01*
X265796Y426323D01*
X265744Y426306D01*
X265689Y426298D01*
X265609Y426263D01*
X265526Y426236D01*
X265487Y426208D01*
X265429Y426182D01*
X265316Y426086D01*
X265252Y426041D01*
X257346Y418135D01*
X257294Y418065D01*
X257234Y418001D01*
X257208Y417951D01*
X257175Y417907D01*
X257144Y417826D01*
X257104Y417748D01*
X257096Y417700D01*
X257074Y417642D01*
X257062Y417494D01*
X257049Y417417D01*
X257049Y306816D01*
X257057Y306758D01*
X257055Y306700D01*
X257077Y306618D01*
X257089Y306534D01*
X257112Y306481D01*
X257127Y306425D01*
X257170Y306352D01*
X257205Y306275D01*
X257243Y306230D01*
X257272Y306180D01*
X257334Y306122D01*
X257388Y306058D01*
X257437Y306026D01*
X257480Y305986D01*
X257555Y305947D01*
X257625Y305900D01*
X257681Y305883D01*
X257733Y305856D01*
X257801Y305845D01*
X257896Y305815D01*
X257996Y305812D01*
X258064Y305801D01*
X258896Y305801D01*
X260904Y304969D01*
X262440Y303433D01*
X263272Y301425D01*
X263272Y299253D01*
X262440Y297245D01*
X261315Y296120D01*
X261297Y296096D01*
X261275Y296077D01*
X261212Y295983D01*
X261144Y295893D01*
X261134Y295865D01*
X261117Y295841D01*
X261083Y295733D01*
X261043Y295627D01*
X261040Y295598D01*
X261032Y295570D01*
X261029Y295456D01*
X261019Y295344D01*
X261025Y295315D01*
X261024Y295286D01*
X261053Y295176D01*
X261075Y295065D01*
X261089Y295039D01*
X261096Y295011D01*
X261154Y294913D01*
X261206Y294813D01*
X261226Y294791D01*
X261241Y294766D01*
X261324Y294689D01*
X261402Y294607D01*
X261427Y294592D01*
X261449Y294572D01*
X261549Y294520D01*
X261647Y294463D01*
X261676Y294456D01*
X261702Y294442D01*
X261779Y294429D01*
X261923Y294393D01*
X261985Y294395D01*
X262033Y294387D01*
X335926Y294387D01*
X336013Y294399D01*
X336100Y294402D01*
X336153Y294419D01*
X336208Y294427D01*
X336287Y294462D01*
X336371Y294489D01*
X336410Y294517D01*
X336467Y294543D01*
X336580Y294639D01*
X336644Y294684D01*
X337141Y295181D01*
X337193Y295251D01*
X337253Y295315D01*
X337279Y295364D01*
X337312Y295408D01*
X337343Y295490D01*
X337383Y295568D01*
X337391Y295615D01*
X337413Y295674D01*
X337421Y295770D01*
X337424Y295780D01*
X337425Y295822D01*
X337438Y295899D01*
X337438Y306908D01*
X346031Y315501D01*
X346083Y315571D01*
X346143Y315635D01*
X346169Y315684D01*
X346202Y315728D01*
X346233Y315810D01*
X346273Y315888D01*
X346281Y315935D01*
X346303Y315994D01*
X346309Y316069D01*
X346314Y316085D01*
X346316Y316145D01*
X346328Y316219D01*
X346328Y317316D01*
X347160Y319324D01*
X348696Y320860D01*
X350704Y321692D01*
X352876Y321692D01*
X354884Y320860D01*
X356420Y319324D01*
X357252Y317316D01*
X357252Y315144D01*
X356420Y313136D01*
X354884Y311600D01*
X352876Y310768D01*
X351779Y310768D01*
X351692Y310756D01*
X351605Y310753D01*
X351552Y310736D01*
X351497Y310728D01*
X351417Y310693D01*
X351334Y310666D01*
X351295Y310638D01*
X351238Y310612D01*
X351125Y310516D01*
X351061Y310471D01*
X344849Y304259D01*
X344797Y304189D01*
X344737Y304125D01*
X344711Y304076D01*
X344678Y304032D01*
X344647Y303950D01*
X344607Y303872D01*
X344599Y303825D01*
X344577Y303766D01*
X344565Y303619D01*
X344552Y303541D01*
X344552Y292532D01*
X342171Y290151D01*
X339293Y287273D01*
X220777Y287273D01*
G37*
%LPD*%
%LPC*%
G36*
X466274Y435228D02*
X466274Y435228D01*
X464266Y436060D01*
X462730Y437596D01*
X461898Y439604D01*
X461898Y441776D01*
X462730Y443784D01*
X464266Y445320D01*
X466274Y446152D01*
X468446Y446152D01*
X470454Y445320D01*
X471230Y444544D01*
X471300Y444492D01*
X471364Y444432D01*
X471413Y444406D01*
X471457Y444373D01*
X471539Y444342D01*
X471617Y444302D01*
X471664Y444294D01*
X471723Y444272D01*
X471871Y444260D01*
X471948Y444247D01*
X489596Y444247D01*
X489683Y444259D01*
X489770Y444262D01*
X489823Y444279D01*
X489878Y444287D01*
X489958Y444322D01*
X490041Y444349D01*
X490080Y444377D01*
X490137Y444403D01*
X490250Y444499D01*
X490314Y444544D01*
X598126Y552356D01*
X598178Y552426D01*
X598238Y552490D01*
X598264Y552539D01*
X598297Y552583D01*
X598328Y552665D01*
X598368Y552743D01*
X598376Y552790D01*
X598398Y552849D01*
X598410Y552996D01*
X598423Y553074D01*
X598423Y589926D01*
X598411Y590013D01*
X598408Y590100D01*
X598391Y590153D01*
X598383Y590208D01*
X598348Y590288D01*
X598321Y590371D01*
X598293Y590410D01*
X598267Y590467D01*
X598171Y590580D01*
X598126Y590644D01*
X597629Y591141D01*
X597559Y591193D01*
X597495Y591253D01*
X597446Y591279D01*
X597402Y591312D01*
X597320Y591343D01*
X597242Y591383D01*
X597195Y591391D01*
X597136Y591413D01*
X596989Y591425D01*
X596911Y591438D01*
X595814Y591438D01*
X593806Y592270D01*
X592270Y593806D01*
X591438Y595814D01*
X591438Y597986D01*
X592270Y599994D01*
X593806Y601530D01*
X595694Y602312D01*
X595719Y602327D01*
X595747Y602336D01*
X595841Y602399D01*
X595938Y602457D01*
X595959Y602478D01*
X595983Y602494D01*
X596056Y602581D01*
X596134Y602663D01*
X596147Y602689D01*
X596166Y602712D01*
X596212Y602815D01*
X596264Y602916D01*
X596269Y602945D01*
X596281Y602972D01*
X596297Y603084D01*
X596319Y603195D01*
X596316Y603224D01*
X596320Y603253D01*
X596304Y603365D01*
X596294Y603478D01*
X596284Y603505D01*
X596280Y603535D01*
X596233Y603638D01*
X596192Y603743D01*
X596175Y603767D01*
X596163Y603794D01*
X596089Y603880D01*
X596021Y603970D01*
X595997Y603988D01*
X595978Y604010D01*
X595912Y604052D01*
X595793Y604140D01*
X595734Y604162D01*
X595694Y604188D01*
X593806Y604970D01*
X593030Y605746D01*
X592960Y605798D01*
X592896Y605858D01*
X592847Y605884D01*
X592803Y605917D01*
X592721Y605948D01*
X592643Y605988D01*
X592596Y605996D01*
X592537Y606018D01*
X592389Y606030D01*
X592312Y606043D01*
X552247Y606043D01*
X537939Y620351D01*
X537869Y620403D01*
X537805Y620463D01*
X537756Y620489D01*
X537712Y620522D01*
X537630Y620553D01*
X537552Y620593D01*
X537505Y620601D01*
X537446Y620623D01*
X537299Y620635D01*
X537221Y620648D01*
X536124Y620648D01*
X534116Y621480D01*
X532580Y623016D01*
X531748Y625024D01*
X531748Y627196D01*
X532580Y629204D01*
X534116Y630740D01*
X536124Y631572D01*
X538296Y631572D01*
X540304Y630740D01*
X541840Y629204D01*
X542672Y627196D01*
X542672Y626099D01*
X542684Y626012D01*
X542687Y625925D01*
X542704Y625872D01*
X542712Y625817D01*
X542747Y625737D01*
X542774Y625654D01*
X542802Y625615D01*
X542828Y625558D01*
X542924Y625445D01*
X542969Y625381D01*
X554896Y613454D01*
X554966Y613402D01*
X555030Y613342D01*
X555079Y613316D01*
X555123Y613283D01*
X555205Y613252D01*
X555283Y613212D01*
X555330Y613204D01*
X555389Y613182D01*
X555536Y613170D01*
X555614Y613157D01*
X592312Y613157D01*
X592399Y613169D01*
X592486Y613172D01*
X592539Y613189D01*
X592594Y613197D01*
X592673Y613232D01*
X592757Y613259D01*
X592796Y613287D01*
X592853Y613313D01*
X592966Y613409D01*
X593030Y613454D01*
X593806Y614230D01*
X595814Y615062D01*
X597986Y615062D01*
X599994Y614230D01*
X601530Y612694D01*
X602362Y610686D01*
X602362Y608514D01*
X601530Y606506D01*
X599994Y604970D01*
X598106Y604188D01*
X598081Y604173D01*
X598053Y604164D01*
X597959Y604101D01*
X597862Y604043D01*
X597841Y604022D01*
X597817Y604006D01*
X597744Y603919D01*
X597666Y603837D01*
X597653Y603811D01*
X597634Y603788D01*
X597588Y603685D01*
X597536Y603584D01*
X597530Y603555D01*
X597519Y603528D01*
X597503Y603416D01*
X597481Y603305D01*
X597484Y603276D01*
X597480Y603247D01*
X597496Y603135D01*
X597506Y603022D01*
X597516Y602995D01*
X597520Y602966D01*
X597567Y602862D01*
X597608Y602757D01*
X597625Y602733D01*
X597637Y602706D01*
X597711Y602620D01*
X597779Y602530D01*
X597803Y602512D01*
X597822Y602490D01*
X597888Y602448D01*
X598007Y602360D01*
X598065Y602338D01*
X598106Y602312D01*
X599994Y601530D01*
X601530Y599994D01*
X602362Y597986D01*
X602362Y596889D01*
X602374Y596802D01*
X602377Y596715D01*
X602394Y596662D01*
X602402Y596607D01*
X602437Y596527D01*
X602464Y596444D01*
X602492Y596405D01*
X602518Y596348D01*
X602614Y596235D01*
X602659Y596171D01*
X605537Y593293D01*
X605537Y549707D01*
X492963Y437133D01*
X471948Y437133D01*
X471861Y437121D01*
X471774Y437118D01*
X471721Y437101D01*
X471666Y437093D01*
X471587Y437058D01*
X471503Y437031D01*
X471464Y437003D01*
X471407Y436977D01*
X471294Y436881D01*
X471230Y436836D01*
X470454Y436060D01*
X468446Y435228D01*
X466274Y435228D01*
G37*
%LPD*%
%LPC*%
G36*
X62414Y413638D02*
X62414Y413638D01*
X60406Y414470D01*
X58870Y416006D01*
X58038Y418014D01*
X58038Y420186D01*
X58870Y422194D01*
X60406Y423730D01*
X62414Y424562D01*
X64586Y424562D01*
X66594Y423730D01*
X67370Y422954D01*
X67440Y422902D01*
X67504Y422842D01*
X67553Y422816D01*
X67597Y422783D01*
X67679Y422752D01*
X67757Y422712D01*
X67804Y422704D01*
X67863Y422682D01*
X68011Y422670D01*
X68088Y422657D01*
X74306Y422657D01*
X74393Y422669D01*
X74480Y422672D01*
X74533Y422689D01*
X74588Y422697D01*
X74668Y422732D01*
X74751Y422759D01*
X74790Y422787D01*
X74847Y422813D01*
X74960Y422909D01*
X75024Y422954D01*
X201727Y549657D01*
X311331Y549657D01*
X311333Y549657D01*
X311334Y549657D01*
X311474Y549677D01*
X311613Y549697D01*
X311614Y549697D01*
X311616Y549697D01*
X311741Y549754D01*
X311872Y549813D01*
X311873Y549814D01*
X311875Y549815D01*
X311982Y549906D01*
X312089Y549996D01*
X312090Y549998D01*
X312091Y549999D01*
X312099Y550012D01*
X312247Y550233D01*
X312256Y550262D01*
X312269Y550283D01*
X312870Y551734D01*
X314406Y553270D01*
X316414Y554102D01*
X318586Y554102D01*
X320594Y553270D01*
X322130Y551734D01*
X322962Y549726D01*
X322962Y547554D01*
X322130Y545546D01*
X320594Y544010D01*
X318586Y543178D01*
X317489Y543178D01*
X317402Y543166D01*
X317315Y543163D01*
X317262Y543146D01*
X317207Y543138D01*
X317127Y543103D01*
X317044Y543076D01*
X317005Y543048D01*
X316948Y543022D01*
X316835Y542926D01*
X316771Y542881D01*
X316433Y542543D01*
X205094Y542543D01*
X205007Y542531D01*
X204920Y542528D01*
X204867Y542511D01*
X204812Y542503D01*
X204732Y542468D01*
X204649Y542441D01*
X204610Y542413D01*
X204553Y542387D01*
X204440Y542291D01*
X204376Y542246D01*
X77673Y415543D01*
X68088Y415543D01*
X68001Y415531D01*
X67914Y415528D01*
X67861Y415511D01*
X67806Y415503D01*
X67727Y415468D01*
X67643Y415441D01*
X67604Y415413D01*
X67547Y415387D01*
X67434Y415291D01*
X67370Y415246D01*
X66594Y414470D01*
X64586Y413638D01*
X62414Y413638D01*
G37*
%LPD*%
%LPC*%
G36*
X53805Y243767D02*
X53805Y243767D01*
X49750Y245447D01*
X46647Y248550D01*
X44967Y252605D01*
X44967Y256995D01*
X46647Y261050D01*
X49750Y264153D01*
X53805Y265833D01*
X76195Y265833D01*
X80250Y264153D01*
X83353Y261050D01*
X84540Y258183D01*
X84541Y258182D01*
X84541Y258181D01*
X84612Y258062D01*
X84685Y257939D01*
X84686Y257938D01*
X84687Y257936D01*
X84791Y257839D01*
X84891Y257743D01*
X84893Y257743D01*
X84894Y257742D01*
X85020Y257677D01*
X85144Y257613D01*
X85146Y257613D01*
X85147Y257612D01*
X85162Y257610D01*
X85423Y257558D01*
X85454Y257561D01*
X85478Y257557D01*
X112406Y257557D01*
X112493Y257569D01*
X112580Y257572D01*
X112633Y257589D01*
X112688Y257597D01*
X112768Y257632D01*
X112851Y257659D01*
X112890Y257687D01*
X112947Y257713D01*
X113060Y257809D01*
X113124Y257854D01*
X148546Y293276D01*
X148598Y293346D01*
X148658Y293410D01*
X148684Y293459D01*
X148717Y293503D01*
X148748Y293585D01*
X148788Y293663D01*
X148796Y293710D01*
X148818Y293769D01*
X148830Y293916D01*
X148843Y293994D01*
X148843Y338312D01*
X148831Y338399D01*
X148828Y338486D01*
X148811Y338539D01*
X148803Y338594D01*
X148768Y338673D01*
X148741Y338757D01*
X148713Y338796D01*
X148687Y338853D01*
X148591Y338966D01*
X148546Y339030D01*
X147770Y339806D01*
X146938Y341814D01*
X146938Y343986D01*
X147770Y345994D01*
X149306Y347530D01*
X151314Y348362D01*
X153486Y348362D01*
X155494Y347530D01*
X157030Y345994D01*
X157862Y343986D01*
X157862Y341814D01*
X157030Y339806D01*
X156254Y339030D01*
X156202Y338960D01*
X156142Y338896D01*
X156116Y338847D01*
X156083Y338803D01*
X156052Y338721D01*
X156012Y338643D01*
X156004Y338596D01*
X155982Y338537D01*
X155970Y338389D01*
X155957Y338312D01*
X155957Y290627D01*
X115773Y250443D01*
X84815Y250443D01*
X84814Y250443D01*
X84812Y250443D01*
X84672Y250423D01*
X84534Y250403D01*
X84533Y250403D01*
X84531Y250403D01*
X84403Y250345D01*
X84275Y250287D01*
X84273Y250286D01*
X84272Y250285D01*
X84165Y250194D01*
X84058Y250104D01*
X84057Y250102D01*
X84055Y250101D01*
X84047Y250088D01*
X83900Y249867D01*
X83891Y249838D01*
X83878Y249817D01*
X83353Y248550D01*
X80250Y245447D01*
X76195Y243767D01*
X53805Y243767D01*
G37*
%LPD*%
%LPC*%
G36*
X151314Y439038D02*
X151314Y439038D01*
X149306Y439870D01*
X147770Y441406D01*
X146938Y443414D01*
X146938Y445586D01*
X147770Y447594D01*
X148546Y448370D01*
X148598Y448440D01*
X148658Y448504D01*
X148684Y448553D01*
X148717Y448597D01*
X148748Y448679D01*
X148788Y448757D01*
X148796Y448804D01*
X148818Y448863D01*
X148830Y449011D01*
X148843Y449088D01*
X148843Y475183D01*
X185217Y511557D01*
X195523Y511557D01*
X195552Y511561D01*
X195581Y511558D01*
X195692Y511581D01*
X195804Y511597D01*
X195831Y511609D01*
X195860Y511614D01*
X195961Y511667D01*
X196064Y511713D01*
X196086Y511732D01*
X196112Y511745D01*
X196194Y511823D01*
X196281Y511896D01*
X196297Y511921D01*
X196318Y511941D01*
X196375Y512039D01*
X196438Y512133D01*
X196447Y512161D01*
X196462Y512186D01*
X196490Y512296D01*
X196524Y512404D01*
X196525Y512434D01*
X196532Y512462D01*
X196528Y512575D01*
X196531Y512688D01*
X196524Y512717D01*
X196523Y512746D01*
X196488Y512854D01*
X196460Y512963D01*
X196445Y512989D01*
X196436Y513017D01*
X196390Y513080D01*
X196314Y513208D01*
X196269Y513251D01*
X196241Y513290D01*
X194586Y514944D01*
X193039Y518679D01*
X193039Y522721D01*
X194586Y526456D01*
X197444Y529314D01*
X201179Y530861D01*
X205221Y530861D01*
X208956Y529314D01*
X211814Y526456D01*
X213361Y522721D01*
X213361Y518679D01*
X211814Y514944D01*
X208956Y512086D01*
X207383Y511435D01*
X207382Y511434D01*
X207381Y511434D01*
X207260Y511362D01*
X207139Y511290D01*
X207138Y511289D01*
X207136Y511288D01*
X207039Y511184D01*
X206943Y511084D01*
X206943Y511082D01*
X206942Y511081D01*
X206875Y510950D01*
X206813Y510831D01*
X206813Y510829D01*
X206812Y510828D01*
X206810Y510813D01*
X206758Y510552D01*
X206761Y510522D01*
X206757Y510497D01*
X206757Y509067D01*
X204832Y507142D01*
X204763Y507050D01*
X204689Y506962D01*
X204677Y506936D01*
X204661Y506914D01*
X204620Y506807D01*
X204573Y506702D01*
X204569Y506675D01*
X204559Y506649D01*
X204550Y506534D01*
X204534Y506420D01*
X204538Y506393D01*
X204536Y506365D01*
X204558Y506253D01*
X204575Y506139D01*
X204586Y506114D01*
X204592Y506087D01*
X204645Y505985D01*
X204692Y505880D01*
X204710Y505859D01*
X204723Y505834D01*
X204802Y505751D01*
X204876Y505664D01*
X204897Y505650D01*
X204918Y505628D01*
X205148Y505494D01*
X205161Y505486D01*
X208956Y503914D01*
X211814Y501056D01*
X213361Y497321D01*
X213361Y493279D01*
X211814Y489544D01*
X208956Y486686D01*
X205221Y485139D01*
X201179Y485139D01*
X197444Y486686D01*
X194586Y489544D01*
X193039Y493279D01*
X193039Y497321D01*
X194586Y501056D01*
X196241Y502710D01*
X196258Y502734D01*
X196281Y502753D01*
X196343Y502847D01*
X196412Y502937D01*
X196422Y502965D01*
X196438Y502989D01*
X196472Y503097D01*
X196513Y503203D01*
X196515Y503232D01*
X196524Y503260D01*
X196527Y503374D01*
X196536Y503486D01*
X196531Y503515D01*
X196531Y503544D01*
X196503Y503654D01*
X196480Y503765D01*
X196467Y503791D01*
X196460Y503819D01*
X196402Y503917D01*
X196349Y504017D01*
X196329Y504039D01*
X196314Y504064D01*
X196232Y504141D01*
X196154Y504223D01*
X196128Y504238D01*
X196107Y504258D01*
X196006Y504310D01*
X195908Y504367D01*
X195880Y504374D01*
X195854Y504388D01*
X195777Y504401D01*
X195633Y504437D01*
X195570Y504435D01*
X195523Y504443D01*
X188584Y504443D01*
X188497Y504431D01*
X188410Y504428D01*
X188357Y504411D01*
X188302Y504403D01*
X188222Y504368D01*
X188139Y504341D01*
X188100Y504313D01*
X188043Y504287D01*
X187930Y504191D01*
X187866Y504146D01*
X156254Y472534D01*
X156202Y472464D01*
X156142Y472400D01*
X156116Y472351D01*
X156083Y472307D01*
X156052Y472225D01*
X156012Y472147D01*
X156004Y472100D01*
X155982Y472041D01*
X155970Y471894D01*
X155957Y471816D01*
X155957Y449088D01*
X155969Y449001D01*
X155972Y448914D01*
X155989Y448861D01*
X155997Y448806D01*
X156032Y448727D01*
X156059Y448643D01*
X156087Y448604D01*
X156113Y448547D01*
X156209Y448434D01*
X156254Y448370D01*
X157030Y447594D01*
X157862Y445586D01*
X157862Y443414D01*
X157030Y441406D01*
X155494Y439870D01*
X153486Y439038D01*
X151314Y439038D01*
G37*
%LPD*%
%LPC*%
G36*
X191954Y427608D02*
X191954Y427608D01*
X189946Y428440D01*
X188410Y429976D01*
X187578Y431984D01*
X187578Y434156D01*
X188410Y436164D01*
X189946Y437700D01*
X191954Y438532D01*
X194126Y438532D01*
X196134Y437700D01*
X197670Y436164D01*
X197745Y435984D01*
X197746Y435982D01*
X197746Y435981D01*
X197816Y435863D01*
X197889Y435739D01*
X197891Y435738D01*
X197891Y435736D01*
X197994Y435640D01*
X198096Y435543D01*
X198098Y435543D01*
X198099Y435542D01*
X198220Y435479D01*
X198349Y435413D01*
X198350Y435413D01*
X198352Y435412D01*
X198366Y435410D01*
X198628Y435358D01*
X198658Y435361D01*
X198683Y435357D01*
X236866Y435357D01*
X236953Y435369D01*
X237040Y435372D01*
X237093Y435389D01*
X237148Y435397D01*
X237228Y435432D01*
X237311Y435459D01*
X237350Y435487D01*
X237407Y435513D01*
X237520Y435609D01*
X237584Y435654D01*
X319361Y517431D01*
X319413Y517501D01*
X319473Y517565D01*
X319499Y517614D01*
X319532Y517658D01*
X319563Y517740D01*
X319603Y517818D01*
X319611Y517865D01*
X319633Y517924D01*
X319645Y518071D01*
X319658Y518149D01*
X319658Y519246D01*
X320490Y521254D01*
X322026Y522790D01*
X324034Y523622D01*
X326206Y523622D01*
X328214Y522790D01*
X329750Y521254D01*
X330582Y519246D01*
X330582Y517074D01*
X329750Y515066D01*
X328214Y513530D01*
X326206Y512698D01*
X325109Y512698D01*
X325022Y512686D01*
X324935Y512683D01*
X324882Y512666D01*
X324827Y512658D01*
X324747Y512623D01*
X324664Y512596D01*
X324625Y512568D01*
X324568Y512542D01*
X324455Y512446D01*
X324391Y512401D01*
X240233Y428243D01*
X195861Y428243D01*
X195831Y428239D01*
X195800Y428241D01*
X195723Y428224D01*
X195580Y428203D01*
X195521Y428177D01*
X195473Y428166D01*
X194126Y427608D01*
X191954Y427608D01*
G37*
%LPD*%
%LPC*%
G36*
X223704Y559688D02*
X223704Y559688D01*
X221696Y560520D01*
X220160Y562056D01*
X219328Y564064D01*
X219328Y566236D01*
X220160Y568244D01*
X221696Y569780D01*
X223704Y570612D01*
X225876Y570612D01*
X227884Y569780D01*
X228660Y569004D01*
X228730Y568952D01*
X228794Y568892D01*
X228843Y568866D01*
X228887Y568833D01*
X228969Y568802D01*
X229047Y568762D01*
X229094Y568754D01*
X229153Y568732D01*
X229301Y568720D01*
X229378Y568707D01*
X283856Y568707D01*
X283943Y568719D01*
X284030Y568722D01*
X284083Y568739D01*
X284138Y568747D01*
X284218Y568782D01*
X284301Y568809D01*
X284340Y568837D01*
X284397Y568863D01*
X284510Y568959D01*
X284574Y569004D01*
X313646Y598076D01*
X313698Y598146D01*
X313758Y598210D01*
X313784Y598259D01*
X313817Y598303D01*
X313848Y598385D01*
X313888Y598463D01*
X313896Y598510D01*
X313918Y598569D01*
X313930Y598716D01*
X313943Y598794D01*
X313943Y607706D01*
X313931Y607793D01*
X313928Y607880D01*
X313911Y607933D01*
X313903Y607988D01*
X313868Y608068D01*
X313841Y608151D01*
X313813Y608190D01*
X313787Y608247D01*
X313691Y608360D01*
X313646Y608424D01*
X304894Y617176D01*
X304824Y617228D01*
X304760Y617288D01*
X304711Y617314D01*
X304667Y617347D01*
X304585Y617378D01*
X304507Y617418D01*
X304460Y617426D01*
X304401Y617448D01*
X304254Y617460D01*
X304176Y617473D01*
X298269Y617473D01*
X298267Y617473D01*
X298266Y617473D01*
X298126Y617453D01*
X297987Y617433D01*
X297986Y617433D01*
X297984Y617433D01*
X297859Y617376D01*
X297728Y617317D01*
X297727Y617316D01*
X297725Y617315D01*
X297618Y617224D01*
X297511Y617134D01*
X297510Y617132D01*
X297509Y617131D01*
X297501Y617118D01*
X297353Y616897D01*
X297344Y616868D01*
X297331Y616847D01*
X296730Y615396D01*
X295194Y613860D01*
X293186Y613028D01*
X291014Y613028D01*
X289006Y613860D01*
X287470Y615396D01*
X286638Y617404D01*
X286638Y619576D01*
X287470Y621584D01*
X289006Y623120D01*
X291014Y623952D01*
X292111Y623952D01*
X292198Y623964D01*
X292285Y623967D01*
X292338Y623984D01*
X292393Y623992D01*
X292473Y624027D01*
X292556Y624054D01*
X292595Y624082D01*
X292652Y624108D01*
X292765Y624204D01*
X292829Y624249D01*
X293167Y624587D01*
X307543Y624587D01*
X321057Y611073D01*
X321057Y595427D01*
X318676Y593046D01*
X289604Y563974D01*
X287223Y561593D01*
X229378Y561593D01*
X229291Y561581D01*
X229204Y561578D01*
X229151Y561561D01*
X229096Y561553D01*
X229017Y561518D01*
X228933Y561491D01*
X228894Y561463D01*
X228837Y561437D01*
X228724Y561341D01*
X228660Y561296D01*
X227884Y560520D01*
X225876Y559688D01*
X223704Y559688D01*
G37*
%LPD*%
%LPC*%
G36*
X198304Y338708D02*
X198304Y338708D01*
X196296Y339540D01*
X194760Y341076D01*
X193928Y343084D01*
X193928Y349589D01*
X193912Y349703D01*
X193902Y349817D01*
X193892Y349843D01*
X193888Y349870D01*
X193841Y349975D01*
X193800Y350082D01*
X193784Y350104D01*
X193772Y350130D01*
X193698Y350217D01*
X193629Y350309D01*
X193606Y350326D01*
X193589Y350347D01*
X193493Y350410D01*
X193401Y350479D01*
X193375Y350489D01*
X193352Y350504D01*
X193242Y350539D01*
X193135Y350580D01*
X193107Y350582D01*
X193081Y350590D01*
X192966Y350593D01*
X192852Y350602D01*
X192827Y350597D01*
X192797Y350597D01*
X192540Y350530D01*
X192524Y350527D01*
X191586Y350138D01*
X189414Y350138D01*
X187406Y350970D01*
X185870Y352506D01*
X185038Y354514D01*
X185038Y356686D01*
X185870Y358694D01*
X187154Y359978D01*
X187206Y360048D01*
X187266Y360112D01*
X187292Y360161D01*
X187325Y360205D01*
X187356Y360287D01*
X187396Y360365D01*
X187404Y360412D01*
X187426Y360471D01*
X187438Y360619D01*
X187451Y360696D01*
X187451Y375904D01*
X187439Y375991D01*
X187436Y376078D01*
X187419Y376131D01*
X187411Y376186D01*
X187376Y376265D01*
X187349Y376349D01*
X187321Y376388D01*
X187295Y376445D01*
X187199Y376558D01*
X187154Y376622D01*
X185870Y377906D01*
X185038Y379914D01*
X185038Y382086D01*
X185870Y384094D01*
X187406Y385630D01*
X189414Y386462D01*
X190309Y386462D01*
X190367Y386470D01*
X190426Y386468D01*
X190507Y386490D01*
X190591Y386502D01*
X190644Y386525D01*
X190701Y386540D01*
X190773Y386583D01*
X190850Y386618D01*
X190895Y386656D01*
X190945Y386685D01*
X191003Y386747D01*
X191067Y386801D01*
X191100Y386850D01*
X191140Y386893D01*
X191178Y386968D01*
X191225Y387038D01*
X191242Y387094D01*
X191269Y387146D01*
X191280Y387214D01*
X191310Y387309D01*
X191313Y387409D01*
X191324Y387477D01*
X191324Y388373D01*
X192156Y390380D01*
X193692Y391916D01*
X195700Y392748D01*
X196671Y392748D01*
X196700Y392752D01*
X196729Y392750D01*
X196840Y392772D01*
X196953Y392788D01*
X196979Y392800D01*
X197008Y392805D01*
X197109Y392858D01*
X197212Y392904D01*
X197234Y392923D01*
X197260Y392936D01*
X197342Y393014D01*
X197429Y393088D01*
X197445Y393112D01*
X197467Y393132D01*
X197524Y393230D01*
X197587Y393324D01*
X197595Y393352D01*
X197610Y393378D01*
X197638Y393487D01*
X197672Y393595D01*
X197673Y393625D01*
X197680Y393653D01*
X197677Y393766D01*
X197680Y393880D01*
X197672Y393908D01*
X197671Y393937D01*
X197636Y394045D01*
X197608Y394155D01*
X197593Y394180D01*
X197584Y394208D01*
X197538Y394272D01*
X197463Y394399D01*
X197417Y394442D01*
X197389Y394481D01*
X178529Y413341D01*
X178459Y413393D01*
X178395Y413453D01*
X178346Y413479D01*
X178302Y413512D01*
X178220Y413543D01*
X178142Y413583D01*
X178095Y413591D01*
X178036Y413613D01*
X177889Y413625D01*
X177811Y413638D01*
X176714Y413638D01*
X174706Y414470D01*
X173170Y416006D01*
X172338Y418014D01*
X172338Y420186D01*
X173170Y422194D01*
X174706Y423730D01*
X176714Y424562D01*
X178886Y424562D01*
X180894Y423730D01*
X182430Y422194D01*
X183262Y420186D01*
X183262Y419089D01*
X183274Y419002D01*
X183277Y418915D01*
X183294Y418862D01*
X183302Y418807D01*
X183337Y418727D01*
X183364Y418644D01*
X183392Y418605D01*
X183418Y418548D01*
X183514Y418435D01*
X183559Y418371D01*
X208527Y393403D01*
X208527Y384818D01*
X208539Y384731D01*
X208542Y384644D01*
X208559Y384591D01*
X208567Y384536D01*
X208602Y384457D01*
X208629Y384373D01*
X208657Y384334D01*
X208683Y384277D01*
X208779Y384164D01*
X208824Y384100D01*
X209600Y383324D01*
X210432Y381316D01*
X210432Y379144D01*
X209600Y377136D01*
X208064Y375600D01*
X206056Y374768D01*
X203884Y374768D01*
X201876Y375600D01*
X201759Y375717D01*
X201735Y375735D01*
X201716Y375757D01*
X201622Y375820D01*
X201532Y375888D01*
X201504Y375899D01*
X201480Y375915D01*
X201372Y375949D01*
X201266Y375989D01*
X201237Y375992D01*
X201209Y376001D01*
X201096Y376004D01*
X200983Y376013D01*
X200954Y376007D01*
X200925Y376008D01*
X200815Y375979D01*
X200704Y375957D01*
X200678Y375943D01*
X200650Y375936D01*
X200552Y375878D01*
X200452Y375826D01*
X200430Y375806D01*
X200405Y375791D01*
X200328Y375708D01*
X200246Y375630D01*
X200231Y375605D01*
X200211Y375584D01*
X200159Y375483D01*
X200102Y375385D01*
X200095Y375356D01*
X200081Y375330D01*
X200068Y375253D01*
X200032Y375109D01*
X200034Y375047D01*
X200026Y374999D01*
X200026Y363319D01*
X200030Y363290D01*
X200027Y363261D01*
X200050Y363150D01*
X200066Y363038D01*
X200078Y363011D01*
X200083Y362982D01*
X200135Y362882D01*
X200182Y362778D01*
X200201Y362756D01*
X200214Y362730D01*
X200292Y362648D01*
X200365Y362561D01*
X200390Y362545D01*
X200410Y362524D01*
X200508Y362467D01*
X200602Y362404D01*
X200630Y362395D01*
X200655Y362380D01*
X200765Y362352D01*
X200873Y362318D01*
X200902Y362317D01*
X200931Y362310D01*
X201044Y362314D01*
X201157Y362311D01*
X201186Y362318D01*
X201215Y362319D01*
X201323Y362354D01*
X201432Y362382D01*
X201458Y362397D01*
X201486Y362407D01*
X201549Y362452D01*
X201677Y362528D01*
X201720Y362573D01*
X201759Y362601D01*
X201935Y362777D01*
X202912Y363430D01*
X203999Y363880D01*
X204725Y364025D01*
X204725Y358140D01*
X204725Y352255D01*
X203999Y352400D01*
X202912Y352850D01*
X201935Y353503D01*
X201759Y353679D01*
X201735Y353696D01*
X201716Y353719D01*
X201622Y353782D01*
X201532Y353850D01*
X201504Y353860D01*
X201480Y353876D01*
X201372Y353911D01*
X201266Y353951D01*
X201237Y353953D01*
X201209Y353962D01*
X201096Y353965D01*
X200983Y353974D01*
X200954Y353969D01*
X200925Y353969D01*
X200815Y353941D01*
X200704Y353918D01*
X200678Y353905D01*
X200650Y353898D01*
X200553Y353840D01*
X200452Y353788D01*
X200430Y353767D01*
X200405Y353752D01*
X200328Y353670D01*
X200246Y353592D01*
X200231Y353566D01*
X200211Y353545D01*
X200159Y353444D01*
X200102Y353346D01*
X200095Y353318D01*
X200081Y353292D01*
X200068Y353215D01*
X200032Y353071D01*
X200034Y353008D01*
X200026Y352961D01*
X200026Y350497D01*
X200026Y350495D01*
X200026Y350494D01*
X200047Y350347D01*
X200066Y350215D01*
X200066Y350214D01*
X200066Y350212D01*
X200125Y350083D01*
X200182Y349956D01*
X200183Y349955D01*
X200184Y349953D01*
X200275Y349845D01*
X200365Y349739D01*
X200367Y349738D01*
X200368Y349737D01*
X200381Y349729D01*
X200602Y349581D01*
X200631Y349572D01*
X200652Y349559D01*
X202484Y348800D01*
X204020Y347264D01*
X204852Y345256D01*
X204852Y343084D01*
X204020Y341076D01*
X202484Y339540D01*
X200476Y338708D01*
X198304Y338708D01*
G37*
%LPD*%
%LPC*%
G36*
X788716Y646556D02*
X788716Y646556D01*
X781760Y649437D01*
X776437Y654760D01*
X773556Y661716D01*
X773556Y669244D01*
X776437Y676200D01*
X781760Y681523D01*
X788716Y684404D01*
X796244Y684404D01*
X803200Y681523D01*
X808523Y676200D01*
X811404Y669244D01*
X811404Y661716D01*
X808523Y654760D01*
X803200Y649437D01*
X796244Y646556D01*
X788716Y646556D01*
G37*
%LPD*%
%LPC*%
G36*
X29256Y646556D02*
X29256Y646556D01*
X22300Y649437D01*
X16977Y654760D01*
X14096Y661716D01*
X14096Y669244D01*
X16977Y676200D01*
X22300Y681523D01*
X29256Y684404D01*
X36784Y684404D01*
X43740Y681523D01*
X49063Y676200D01*
X51944Y669244D01*
X51944Y661716D01*
X49063Y654760D01*
X43740Y649437D01*
X36784Y646556D01*
X29256Y646556D01*
G37*
%LPD*%
%LPC*%
G36*
X29256Y14096D02*
X29256Y14096D01*
X22300Y16977D01*
X16977Y22300D01*
X14096Y29256D01*
X14096Y36784D01*
X16977Y43740D01*
X22300Y49063D01*
X29256Y51944D01*
X36784Y51944D01*
X43740Y49063D01*
X49063Y43740D01*
X51944Y36784D01*
X51944Y29256D01*
X49063Y22300D01*
X43740Y16977D01*
X36784Y14096D01*
X29256Y14096D01*
G37*
%LPD*%
%LPC*%
G36*
X788716Y14096D02*
X788716Y14096D01*
X781760Y16977D01*
X776437Y22300D01*
X773556Y29256D01*
X773556Y36784D01*
X776437Y43740D01*
X781760Y49063D01*
X788716Y51944D01*
X796244Y51944D01*
X803200Y49063D01*
X808523Y43740D01*
X811404Y36784D01*
X811404Y29256D01*
X808523Y22300D01*
X803200Y16977D01*
X796244Y14096D01*
X788716Y14096D01*
G37*
%LPD*%
%LPC*%
G36*
X443414Y451738D02*
X443414Y451738D01*
X441406Y452570D01*
X439870Y454106D01*
X439038Y456114D01*
X439038Y457211D01*
X439026Y457298D01*
X439023Y457385D01*
X439006Y457438D01*
X438998Y457493D01*
X438963Y457573D01*
X438936Y457656D01*
X438908Y457695D01*
X438882Y457752D01*
X438786Y457865D01*
X438741Y457929D01*
X367124Y529546D01*
X367054Y529598D01*
X366990Y529658D01*
X366941Y529684D01*
X366897Y529717D01*
X366815Y529748D01*
X366737Y529788D01*
X366690Y529796D01*
X366631Y529818D01*
X366484Y529830D01*
X366406Y529843D01*
X360188Y529843D01*
X360101Y529831D01*
X360014Y529828D01*
X359961Y529811D01*
X359906Y529803D01*
X359827Y529768D01*
X359743Y529741D01*
X359704Y529713D01*
X359647Y529687D01*
X359534Y529591D01*
X359470Y529546D01*
X358694Y528770D01*
X356686Y527938D01*
X354514Y527938D01*
X352506Y528770D01*
X350970Y530306D01*
X350138Y532314D01*
X350138Y534486D01*
X350970Y536494D01*
X352506Y538030D01*
X354514Y538862D01*
X356686Y538862D01*
X358694Y538030D01*
X359470Y537254D01*
X359540Y537202D01*
X359604Y537142D01*
X359653Y537116D01*
X359697Y537083D01*
X359779Y537052D01*
X359857Y537012D01*
X359904Y537004D01*
X359963Y536982D01*
X360111Y536970D01*
X360188Y536957D01*
X369773Y536957D01*
X443771Y462959D01*
X443841Y462907D01*
X443905Y462847D01*
X443954Y462821D01*
X443998Y462788D01*
X444080Y462757D01*
X444158Y462717D01*
X444205Y462709D01*
X444264Y462687D01*
X444411Y462675D01*
X444489Y462662D01*
X445586Y462662D01*
X447594Y461830D01*
X449130Y460294D01*
X449962Y458286D01*
X449962Y456114D01*
X449130Y454106D01*
X447594Y452570D01*
X445586Y451738D01*
X443414Y451738D01*
G37*
%LPD*%
%LPC*%
G36*
X419284Y455548D02*
X419284Y455548D01*
X417276Y456380D01*
X415740Y457916D01*
X414908Y459924D01*
X414908Y461021D01*
X414896Y461108D01*
X414893Y461195D01*
X414876Y461248D01*
X414868Y461303D01*
X414833Y461383D01*
X414806Y461466D01*
X414778Y461505D01*
X414752Y461562D01*
X414656Y461675D01*
X414611Y461739D01*
X397604Y478746D01*
X397534Y478798D01*
X397470Y478858D01*
X397421Y478884D01*
X397377Y478917D01*
X397295Y478948D01*
X397217Y478988D01*
X397170Y478996D01*
X397111Y479018D01*
X396964Y479030D01*
X396886Y479043D01*
X322088Y479043D01*
X322001Y479031D01*
X321914Y479028D01*
X321861Y479011D01*
X321806Y479003D01*
X321727Y478968D01*
X321643Y478941D01*
X321604Y478913D01*
X321547Y478887D01*
X321434Y478791D01*
X321370Y478746D01*
X320594Y477970D01*
X318586Y477138D01*
X316414Y477138D01*
X314406Y477970D01*
X312870Y479506D01*
X312038Y481514D01*
X312038Y483686D01*
X312870Y485694D01*
X314406Y487230D01*
X316414Y488062D01*
X318586Y488062D01*
X320594Y487230D01*
X321370Y486454D01*
X321440Y486402D01*
X321504Y486342D01*
X321553Y486316D01*
X321597Y486283D01*
X321679Y486252D01*
X321757Y486212D01*
X321804Y486204D01*
X321863Y486182D01*
X322011Y486170D01*
X322088Y486157D01*
X400253Y486157D01*
X419641Y466769D01*
X419711Y466717D01*
X419775Y466657D01*
X419824Y466631D01*
X419868Y466598D01*
X419950Y466567D01*
X420028Y466527D01*
X420075Y466519D01*
X420134Y466497D01*
X420281Y466485D01*
X420359Y466472D01*
X421456Y466472D01*
X423464Y465640D01*
X425000Y464104D01*
X425832Y462096D01*
X425832Y459924D01*
X425000Y457916D01*
X423464Y456380D01*
X421456Y455548D01*
X419284Y455548D01*
G37*
%LPD*%
%LPC*%
G36*
X357054Y343788D02*
X357054Y343788D01*
X355046Y344620D01*
X353510Y346156D01*
X352678Y348164D01*
X352678Y350336D01*
X353510Y352344D01*
X355046Y353880D01*
X357054Y354712D01*
X358151Y354712D01*
X358238Y354724D01*
X358325Y354727D01*
X358378Y354744D01*
X358433Y354752D01*
X358513Y354787D01*
X358596Y354814D01*
X358635Y354842D01*
X358692Y354868D01*
X358805Y354964D01*
X358869Y355009D01*
X417786Y413926D01*
X417838Y413996D01*
X417898Y414060D01*
X417924Y414109D01*
X417957Y414153D01*
X417988Y414235D01*
X418028Y414313D01*
X418036Y414360D01*
X418058Y414419D01*
X418070Y414566D01*
X418083Y414644D01*
X418083Y417052D01*
X418071Y417139D01*
X418068Y417226D01*
X418051Y417279D01*
X418043Y417334D01*
X418008Y417413D01*
X417981Y417497D01*
X417953Y417536D01*
X417927Y417593D01*
X417831Y417706D01*
X417786Y417770D01*
X417010Y418546D01*
X416178Y420554D01*
X416178Y422726D01*
X417010Y424734D01*
X418546Y426270D01*
X420554Y427102D01*
X422726Y427102D01*
X424734Y426270D01*
X426270Y424734D01*
X427102Y422726D01*
X427102Y420554D01*
X426270Y418546D01*
X425494Y417770D01*
X425442Y417700D01*
X425382Y417636D01*
X425356Y417587D01*
X425323Y417543D01*
X425292Y417461D01*
X425252Y417383D01*
X425244Y417336D01*
X425222Y417277D01*
X425210Y417129D01*
X425197Y417052D01*
X425197Y411277D01*
X363899Y349979D01*
X363847Y349909D01*
X363787Y349845D01*
X363761Y349796D01*
X363728Y349752D01*
X363697Y349670D01*
X363657Y349592D01*
X363649Y349545D01*
X363627Y349486D01*
X363615Y349339D01*
X363602Y349261D01*
X363602Y348164D01*
X362770Y346156D01*
X361234Y344620D01*
X359226Y343788D01*
X357054Y343788D01*
G37*
%LPD*%
%LPC*%
G36*
X53805Y496967D02*
X53805Y496967D01*
X49750Y498647D01*
X46647Y501750D01*
X44967Y505805D01*
X44967Y510195D01*
X46647Y514250D01*
X49750Y517353D01*
X53805Y519033D01*
X76195Y519033D01*
X80250Y517353D01*
X83353Y514250D01*
X85033Y510195D01*
X85033Y505805D01*
X83353Y501750D01*
X80250Y498647D01*
X76195Y496967D01*
X53805Y496967D01*
G37*
%LPD*%
%LPC*%
G36*
X53805Y293767D02*
X53805Y293767D01*
X49750Y295447D01*
X46647Y298550D01*
X44967Y302605D01*
X44967Y306995D01*
X46647Y311050D01*
X49750Y314153D01*
X53805Y315833D01*
X76195Y315833D01*
X80250Y314153D01*
X83353Y311050D01*
X85033Y306995D01*
X85033Y302605D01*
X83353Y298550D01*
X80250Y295447D01*
X76195Y293767D01*
X53805Y293767D01*
G37*
%LPD*%
%LPC*%
G36*
X53805Y446967D02*
X53805Y446967D01*
X49750Y448647D01*
X46647Y451750D01*
X44967Y455805D01*
X44967Y460195D01*
X46647Y464250D01*
X49750Y467353D01*
X53805Y469033D01*
X76195Y469033D01*
X80250Y467353D01*
X83353Y464250D01*
X85033Y460195D01*
X85033Y455805D01*
X83353Y451750D01*
X80250Y448647D01*
X76195Y446967D01*
X53805Y446967D01*
G37*
%LPD*%
%LPC*%
G36*
X776016Y473869D02*
X776016Y473869D01*
X771406Y475779D01*
X767879Y479306D01*
X765969Y483916D01*
X765969Y488904D01*
X767879Y493514D01*
X771406Y497041D01*
X776016Y498951D01*
X781004Y498951D01*
X785614Y497041D01*
X789141Y493514D01*
X791051Y488904D01*
X791051Y483916D01*
X789141Y479306D01*
X785614Y475779D01*
X781004Y473869D01*
X776016Y473869D01*
G37*
%LPD*%
%LPC*%
G36*
X567736Y473869D02*
X567736Y473869D01*
X563126Y475779D01*
X559599Y479306D01*
X557689Y483916D01*
X557689Y488904D01*
X559599Y493514D01*
X563126Y497041D01*
X567736Y498951D01*
X572724Y498951D01*
X577334Y497041D01*
X580861Y493514D01*
X582771Y488904D01*
X582771Y483916D01*
X580861Y479306D01*
X577334Y475779D01*
X572724Y473869D01*
X567736Y473869D01*
G37*
%LPD*%
%LPC*%
G36*
X776016Y242729D02*
X776016Y242729D01*
X771406Y244639D01*
X767879Y248166D01*
X765969Y252776D01*
X765969Y257764D01*
X767879Y262374D01*
X771406Y265901D01*
X776016Y267811D01*
X781004Y267811D01*
X785614Y265901D01*
X789141Y262374D01*
X791051Y257764D01*
X791051Y252776D01*
X789141Y248166D01*
X785614Y244639D01*
X781004Y242729D01*
X776016Y242729D01*
G37*
%LPD*%
%LPC*%
G36*
X567736Y242729D02*
X567736Y242729D01*
X563126Y244639D01*
X559599Y248166D01*
X557689Y252776D01*
X557689Y257764D01*
X559599Y262374D01*
X563126Y265901D01*
X567736Y267811D01*
X572724Y267811D01*
X577334Y265901D01*
X580861Y262374D01*
X582771Y257764D01*
X582771Y252776D01*
X580861Y248166D01*
X577334Y244639D01*
X572724Y242729D01*
X567736Y242729D01*
G37*
%LPD*%
%LPC*%
G36*
X512378Y588263D02*
X512378Y588263D01*
X509204Y589578D01*
X506774Y592008D01*
X505459Y595182D01*
X505459Y598618D01*
X506774Y601792D01*
X509204Y604222D01*
X512378Y605537D01*
X529022Y605537D01*
X532196Y604222D01*
X534626Y601792D01*
X535941Y598618D01*
X535941Y595182D01*
X534626Y592008D01*
X532196Y589578D01*
X529022Y588263D01*
X512378Y588263D01*
G37*
%LPD*%
%LPC*%
G36*
X512378Y537463D02*
X512378Y537463D01*
X509204Y538778D01*
X506774Y541208D01*
X505459Y544382D01*
X505459Y547818D01*
X506774Y550992D01*
X509204Y553422D01*
X512378Y554737D01*
X529022Y554737D01*
X532196Y553422D01*
X534626Y550992D01*
X535941Y547818D01*
X535941Y544382D01*
X534626Y541208D01*
X532196Y538778D01*
X529022Y537463D01*
X512378Y537463D01*
G37*
%LPD*%
%LPC*%
G36*
X436178Y588263D02*
X436178Y588263D01*
X433004Y589578D01*
X430574Y592008D01*
X429259Y595182D01*
X429259Y598618D01*
X430574Y601792D01*
X433004Y604222D01*
X436178Y605537D01*
X452822Y605537D01*
X455996Y604222D01*
X458426Y601792D01*
X459741Y598618D01*
X459741Y595182D01*
X458426Y592008D01*
X455996Y589578D01*
X452822Y588263D01*
X436178Y588263D01*
G37*
%LPD*%
%LPC*%
G36*
X659314Y566038D02*
X659314Y566038D01*
X657306Y566870D01*
X655770Y568406D01*
X654938Y570414D01*
X654938Y571511D01*
X654926Y571598D01*
X654923Y571685D01*
X654906Y571738D01*
X654898Y571793D01*
X654863Y571873D01*
X654836Y571956D01*
X654808Y571995D01*
X654782Y572052D01*
X654686Y572165D01*
X654641Y572229D01*
X633824Y593046D01*
X633754Y593098D01*
X633690Y593158D01*
X633641Y593184D01*
X633597Y593217D01*
X633515Y593248D01*
X633437Y593288D01*
X633390Y593296D01*
X633331Y593318D01*
X633184Y593330D01*
X633106Y593343D01*
X626888Y593343D01*
X626801Y593331D01*
X626714Y593328D01*
X626661Y593311D01*
X626606Y593303D01*
X626527Y593268D01*
X626443Y593241D01*
X626404Y593213D01*
X626347Y593187D01*
X626234Y593091D01*
X626170Y593046D01*
X625394Y592270D01*
X623386Y591438D01*
X621214Y591438D01*
X619206Y592270D01*
X617670Y593806D01*
X616838Y595814D01*
X616838Y597986D01*
X617670Y599994D01*
X619206Y601530D01*
X621214Y602362D01*
X623386Y602362D01*
X625394Y601530D01*
X626170Y600754D01*
X626240Y600702D01*
X626304Y600642D01*
X626353Y600616D01*
X626397Y600583D01*
X626479Y600552D01*
X626557Y600512D01*
X626604Y600504D01*
X626663Y600482D01*
X626811Y600470D01*
X626888Y600457D01*
X636473Y600457D01*
X659671Y577259D01*
X659741Y577207D01*
X659805Y577147D01*
X659854Y577121D01*
X659898Y577088D01*
X659980Y577057D01*
X660058Y577017D01*
X660105Y577009D01*
X660164Y576987D01*
X660311Y576975D01*
X660389Y576962D01*
X661486Y576962D01*
X663494Y576130D01*
X665030Y574594D01*
X665862Y572586D01*
X665862Y570414D01*
X665030Y568406D01*
X663494Y566870D01*
X661486Y566038D01*
X659314Y566038D01*
G37*
%LPD*%
%LPC*%
G36*
X414204Y341248D02*
X414204Y341248D01*
X412196Y342080D01*
X410660Y343616D01*
X409828Y345624D01*
X409828Y347796D01*
X410660Y349804D01*
X411293Y350437D01*
X411328Y350484D01*
X411371Y350524D01*
X411413Y350597D01*
X411464Y350664D01*
X411485Y350719D01*
X411514Y350769D01*
X411535Y350851D01*
X411565Y350930D01*
X411570Y350988D01*
X411584Y351045D01*
X411582Y351129D01*
X411589Y351213D01*
X411577Y351271D01*
X411575Y351329D01*
X411549Y351409D01*
X411533Y351492D01*
X411506Y351544D01*
X411488Y351600D01*
X411448Y351656D01*
X411402Y351744D01*
X411333Y351817D01*
X411293Y351873D01*
X410660Y352506D01*
X409828Y354514D01*
X409828Y356686D01*
X410660Y358694D01*
X412196Y360230D01*
X414204Y361062D01*
X416376Y361062D01*
X418384Y360230D01*
X419668Y358946D01*
X419738Y358894D01*
X419802Y358834D01*
X419851Y358808D01*
X419895Y358775D01*
X419977Y358744D01*
X420055Y358704D01*
X420102Y358696D01*
X420161Y358674D01*
X420309Y358662D01*
X420386Y358649D01*
X426704Y358649D01*
X426791Y358661D01*
X426878Y358664D01*
X426931Y358681D01*
X426986Y358689D01*
X427065Y358724D01*
X427149Y358751D01*
X427188Y358779D01*
X427245Y358805D01*
X427358Y358901D01*
X427422Y358946D01*
X428706Y360230D01*
X430714Y361062D01*
X432886Y361062D01*
X434894Y360230D01*
X436430Y358694D01*
X437262Y356686D01*
X437262Y354514D01*
X436430Y352506D01*
X435797Y351873D01*
X435762Y351826D01*
X435719Y351786D01*
X435677Y351713D01*
X435626Y351646D01*
X435605Y351591D01*
X435576Y351541D01*
X435555Y351459D01*
X435525Y351380D01*
X435520Y351322D01*
X435506Y351265D01*
X435508Y351181D01*
X435501Y351097D01*
X435513Y351039D01*
X435515Y350981D01*
X435541Y350901D01*
X435557Y350818D01*
X435584Y350766D01*
X435602Y350710D01*
X435642Y350654D01*
X435688Y350566D01*
X435757Y350493D01*
X435797Y350437D01*
X436430Y349804D01*
X437262Y347796D01*
X437262Y345624D01*
X436430Y343616D01*
X434894Y342080D01*
X432886Y341248D01*
X430714Y341248D01*
X428706Y342080D01*
X427422Y343364D01*
X427352Y343416D01*
X427288Y343476D01*
X427239Y343502D01*
X427195Y343535D01*
X427113Y343566D01*
X427035Y343606D01*
X426988Y343614D01*
X426929Y343636D01*
X426781Y343648D01*
X426704Y343661D01*
X420386Y343661D01*
X420299Y343649D01*
X420212Y343646D01*
X420159Y343629D01*
X420104Y343621D01*
X420025Y343586D01*
X419941Y343559D01*
X419902Y343531D01*
X419845Y343505D01*
X419732Y343409D01*
X419668Y343364D01*
X418384Y342080D01*
X416376Y341248D01*
X414204Y341248D01*
G37*
%LPD*%
%LPC*%
G36*
X299960Y636015D02*
X299960Y636015D01*
X293115Y642860D01*
X293115Y652540D01*
X299960Y659385D01*
X309640Y659385D01*
X316485Y652540D01*
X316485Y642860D01*
X309640Y636015D01*
X299960Y636015D01*
G37*
%LPD*%
%LPC*%
G36*
X351092Y384816D02*
X351092Y384816D01*
X349084Y385648D01*
X347548Y387184D01*
X346716Y389192D01*
X346716Y391364D01*
X347548Y393372D01*
X349084Y394908D01*
X351092Y395740D01*
X352908Y395740D01*
X352994Y395752D01*
X353082Y395755D01*
X353134Y395772D01*
X353189Y395780D01*
X353269Y395815D01*
X353352Y395842D01*
X353391Y395870D01*
X353449Y395896D01*
X353562Y395992D01*
X353626Y396037D01*
X367037Y409449D01*
X388604Y409449D01*
X388691Y409461D01*
X388778Y409464D01*
X388831Y409481D01*
X388886Y409489D01*
X388965Y409524D01*
X389049Y409551D01*
X389088Y409579D01*
X389145Y409605D01*
X389258Y409701D01*
X389322Y409746D01*
X390606Y411030D01*
X392614Y411862D01*
X394786Y411862D01*
X396794Y411030D01*
X398330Y409494D01*
X399162Y407486D01*
X399162Y405314D01*
X398330Y403306D01*
X396794Y401770D01*
X394786Y400938D01*
X392614Y400938D01*
X390606Y401770D01*
X389322Y403054D01*
X389252Y403106D01*
X389188Y403166D01*
X389139Y403192D01*
X389095Y403225D01*
X389013Y403256D01*
X388935Y403296D01*
X388888Y403304D01*
X388829Y403326D01*
X388681Y403338D01*
X388604Y403351D01*
X369983Y403351D01*
X369897Y403339D01*
X369809Y403336D01*
X369757Y403319D01*
X369702Y403311D01*
X369622Y403276D01*
X369539Y403249D01*
X369500Y403221D01*
X369442Y403195D01*
X369329Y403099D01*
X369265Y403054D01*
X357937Y391726D01*
X357885Y391656D01*
X357825Y391592D01*
X357799Y391542D01*
X357766Y391498D01*
X357735Y391417D01*
X357695Y391339D01*
X357687Y391291D01*
X357665Y391233D01*
X357653Y391085D01*
X357640Y391008D01*
X357640Y389192D01*
X356808Y387184D01*
X355272Y385648D01*
X353264Y384816D01*
X351092Y384816D01*
G37*
%LPD*%
%LPC*%
G36*
X135754Y672464D02*
X135754Y672464D01*
X133734Y674484D01*
X133688Y674519D01*
X133647Y674562D01*
X133574Y674605D01*
X133507Y674655D01*
X133452Y674676D01*
X133402Y674706D01*
X133320Y674726D01*
X133241Y674756D01*
X133183Y674761D01*
X133126Y674776D01*
X133042Y674773D01*
X132958Y674780D01*
X132901Y674769D01*
X132842Y674767D01*
X132762Y674741D01*
X132679Y674724D01*
X132627Y674697D01*
X132572Y674679D01*
X132515Y674639D01*
X132427Y674593D01*
X132355Y674524D01*
X132298Y674484D01*
X131364Y673550D01*
X129356Y672718D01*
X127184Y672718D01*
X125176Y673550D01*
X123640Y675086D01*
X122799Y677116D01*
X122769Y677166D01*
X122748Y677221D01*
X122698Y677288D01*
X122655Y677361D01*
X122612Y677401D01*
X122577Y677447D01*
X122509Y677498D01*
X122448Y677556D01*
X122396Y677583D01*
X122349Y677618D01*
X122270Y677647D01*
X122195Y677686D01*
X122138Y677697D01*
X122083Y677718D01*
X121999Y677725D01*
X121916Y677741D01*
X121858Y677736D01*
X121800Y677741D01*
X121732Y677725D01*
X121633Y677717D01*
X121540Y677681D01*
X121473Y677665D01*
X121121Y677520D01*
X120395Y677375D01*
X120395Y683260D01*
X120395Y689145D01*
X121121Y689000D01*
X122208Y688550D01*
X123186Y687897D01*
X124017Y687066D01*
X124670Y686088D01*
X125120Y685001D01*
X125286Y684169D01*
X125291Y684154D01*
X125292Y684139D01*
X125338Y684021D01*
X125380Y683901D01*
X125389Y683888D01*
X125394Y683874D01*
X125471Y683772D01*
X125544Y683669D01*
X125557Y683659D01*
X125566Y683647D01*
X125668Y683571D01*
X125767Y683492D01*
X125781Y683486D01*
X125794Y683477D01*
X125913Y683432D01*
X126030Y683384D01*
X126045Y683382D01*
X126060Y683376D01*
X126187Y683366D01*
X126312Y683352D01*
X126327Y683355D01*
X126343Y683354D01*
X126410Y683369D01*
X126592Y683401D01*
X126634Y683421D01*
X126670Y683429D01*
X127184Y683642D01*
X129356Y683642D01*
X131364Y682810D01*
X132033Y682141D01*
X132091Y682098D01*
X132142Y682047D01*
X132204Y682012D01*
X132260Y681970D01*
X132328Y681944D01*
X132391Y681910D01*
X132460Y681894D01*
X132526Y681869D01*
X132598Y681863D01*
X132668Y681847D01*
X132739Y681851D01*
X132809Y681845D01*
X132880Y681859D01*
X132952Y681864D01*
X133019Y681887D01*
X133088Y681901D01*
X133152Y681934D01*
X133220Y681958D01*
X133278Y682000D01*
X133340Y682032D01*
X133393Y682082D01*
X133451Y682124D01*
X133495Y682179D01*
X133546Y682228D01*
X133583Y682290D01*
X133628Y682347D01*
X133649Y682403D01*
X133690Y682473D01*
X133720Y682590D01*
X133747Y682661D01*
X133960Y683731D01*
X134410Y684818D01*
X135063Y685796D01*
X135894Y686627D01*
X136872Y687280D01*
X137959Y687730D01*
X138685Y687875D01*
X138685Y681990D01*
X138693Y681932D01*
X138691Y681874D01*
X138713Y681792D01*
X138724Y681709D01*
X138748Y681655D01*
X138763Y681599D01*
X138806Y681526D01*
X138841Y681449D01*
X138878Y681405D01*
X138908Y681355D01*
X138970Y681297D01*
X139024Y681232D01*
X139073Y681200D01*
X139116Y681160D01*
X139191Y681122D01*
X139261Y681075D01*
X139317Y681057D01*
X139369Y681031D01*
X139437Y681019D01*
X139532Y680989D01*
X139632Y680986D01*
X139700Y680975D01*
X139758Y680983D01*
X139816Y680982D01*
X139898Y681003D01*
X139982Y681015D01*
X140035Y681039D01*
X140092Y681054D01*
X140164Y681097D01*
X140241Y681131D01*
X140286Y681169D01*
X140336Y681199D01*
X140394Y681260D01*
X140458Y681315D01*
X140490Y681363D01*
X140530Y681406D01*
X140569Y681481D01*
X140616Y681551D01*
X140633Y681607D01*
X140660Y681659D01*
X140671Y681727D01*
X140701Y681822D01*
X140704Y681922D01*
X140715Y681990D01*
X140715Y687875D01*
X141441Y687730D01*
X142528Y687280D01*
X143506Y686627D01*
X144337Y685796D01*
X144990Y684818D01*
X145440Y683731D01*
X145443Y683720D01*
X145466Y683652D01*
X145481Y683581D01*
X145513Y683518D01*
X145537Y683452D01*
X145578Y683393D01*
X145612Y683329D01*
X145660Y683278D01*
X145701Y683220D01*
X145758Y683175D01*
X145807Y683123D01*
X145868Y683087D01*
X145924Y683043D01*
X145990Y683015D01*
X146053Y682979D01*
X146121Y682962D01*
X146186Y682935D01*
X146258Y682927D01*
X146328Y682909D01*
X146399Y682911D01*
X146469Y682903D01*
X146540Y682916D01*
X146612Y682918D01*
X146680Y682940D01*
X146749Y682952D01*
X146814Y682983D01*
X146883Y683005D01*
X146932Y683040D01*
X147005Y683076D01*
X147094Y683156D01*
X147156Y683200D01*
X148036Y684080D01*
X150044Y684912D01*
X152216Y684912D01*
X154224Y684080D01*
X155760Y682544D01*
X156592Y680536D01*
X156592Y678364D01*
X155760Y676356D01*
X154224Y674820D01*
X152216Y673988D01*
X150400Y673988D01*
X150314Y673976D01*
X150226Y673973D01*
X150174Y673956D01*
X150119Y673948D01*
X150039Y673913D01*
X149956Y673886D01*
X149917Y673858D01*
X149859Y673832D01*
X149746Y673736D01*
X149682Y673691D01*
X148456Y672464D01*
X135754Y672464D01*
G37*
%LPD*%
%LPC*%
G36*
X567344Y574166D02*
X567344Y574166D01*
X561466Y580044D01*
X561466Y588356D01*
X567344Y594234D01*
X575656Y594234D01*
X581534Y588356D01*
X581534Y580044D01*
X575656Y574166D01*
X567344Y574166D01*
G37*
%LPD*%
%LPC*%
G36*
X402244Y574166D02*
X402244Y574166D01*
X396366Y580044D01*
X396366Y588356D01*
X402244Y594234D01*
X410556Y594234D01*
X416434Y588356D01*
X416434Y580044D01*
X410556Y574166D01*
X402244Y574166D01*
G37*
%LPD*%
%LPC*%
G36*
X226579Y485139D02*
X226579Y485139D01*
X222844Y486686D01*
X219986Y489544D01*
X218439Y493279D01*
X218439Y497321D01*
X219986Y501056D01*
X222844Y503914D01*
X226579Y505461D01*
X230621Y505461D01*
X234356Y503914D01*
X237214Y501056D01*
X238761Y497321D01*
X238761Y493279D01*
X237214Y489544D01*
X234356Y486686D01*
X230621Y485139D01*
X226579Y485139D01*
G37*
%LPD*%
%LPC*%
G36*
X226579Y510539D02*
X226579Y510539D01*
X222844Y512086D01*
X219986Y514944D01*
X218439Y518679D01*
X218439Y522721D01*
X219986Y526456D01*
X222844Y529314D01*
X226579Y530861D01*
X230621Y530861D01*
X234356Y529314D01*
X237214Y526456D01*
X238761Y522721D01*
X238761Y518679D01*
X237214Y514944D01*
X234356Y512086D01*
X230621Y510539D01*
X226579Y510539D01*
G37*
%LPD*%
%LPC*%
G36*
X251979Y485139D02*
X251979Y485139D01*
X248244Y486686D01*
X245386Y489544D01*
X243839Y493279D01*
X243839Y497321D01*
X245386Y501056D01*
X248244Y503914D01*
X251979Y505461D01*
X256021Y505461D01*
X259756Y503914D01*
X262614Y501056D01*
X264161Y497321D01*
X264161Y493279D01*
X262614Y489544D01*
X259756Y486686D01*
X256021Y485139D01*
X251979Y485139D01*
G37*
%LPD*%
%LPC*%
G36*
X569504Y548766D02*
X569504Y548766D01*
X565816Y550294D01*
X562994Y553116D01*
X561466Y556804D01*
X561466Y560796D01*
X562994Y564484D01*
X565816Y567306D01*
X569504Y568834D01*
X573496Y568834D01*
X577184Y567306D01*
X580006Y564484D01*
X581534Y560796D01*
X581534Y556804D01*
X580006Y553116D01*
X577184Y550294D01*
X573496Y548766D01*
X569504Y548766D01*
G37*
%LPD*%
%LPC*%
G36*
X710566Y488267D02*
X710566Y488267D01*
X707047Y489725D01*
X704355Y492417D01*
X702897Y495936D01*
X702897Y499744D01*
X704355Y503263D01*
X707047Y505955D01*
X710566Y507413D01*
X714374Y507413D01*
X717893Y505955D01*
X720585Y503263D01*
X722043Y499744D01*
X722043Y495936D01*
X720585Y492417D01*
X717893Y489725D01*
X714374Y488267D01*
X710566Y488267D01*
G37*
%LPD*%
%LPC*%
G36*
X659766Y488267D02*
X659766Y488267D01*
X656247Y489725D01*
X653555Y492417D01*
X652097Y495936D01*
X652097Y499744D01*
X653555Y503263D01*
X656247Y505955D01*
X659766Y507413D01*
X663574Y507413D01*
X667093Y505955D01*
X669785Y503263D01*
X671243Y499744D01*
X671243Y495936D01*
X669785Y492417D01*
X667093Y489725D01*
X663574Y488267D01*
X659766Y488267D01*
G37*
%LPD*%
%LPC*%
G36*
X685166Y488267D02*
X685166Y488267D01*
X681647Y489725D01*
X678955Y492417D01*
X677497Y495936D01*
X677497Y499744D01*
X678955Y503263D01*
X681647Y505955D01*
X685166Y507413D01*
X688974Y507413D01*
X692493Y505955D01*
X695185Y503263D01*
X696643Y499744D01*
X696643Y495936D01*
X695185Y492417D01*
X692493Y489725D01*
X688974Y488267D01*
X685166Y488267D01*
G37*
%LPD*%
%LPC*%
G36*
X338097Y324611D02*
X338097Y324611D01*
X336093Y326616D01*
X336023Y326668D01*
X335959Y326728D01*
X335910Y326753D01*
X335865Y326787D01*
X335784Y326818D01*
X335706Y326858D01*
X335658Y326866D01*
X335600Y326888D01*
X335452Y326900D01*
X335375Y326913D01*
X333559Y326913D01*
X331551Y327745D01*
X330015Y329281D01*
X329183Y331288D01*
X329183Y333461D01*
X330015Y335469D01*
X331551Y337005D01*
X333559Y337837D01*
X335731Y337837D01*
X337739Y337005D01*
X339275Y335469D01*
X340107Y333461D01*
X340107Y331724D01*
X340115Y331666D01*
X340113Y331608D01*
X340135Y331526D01*
X340147Y331442D01*
X340170Y331389D01*
X340185Y331333D01*
X340228Y331260D01*
X340263Y331183D01*
X340301Y331138D01*
X340330Y331088D01*
X340392Y331030D01*
X340446Y330966D01*
X340495Y330934D01*
X340538Y330894D01*
X340613Y330855D01*
X340683Y330808D01*
X340739Y330791D01*
X340791Y330764D01*
X340859Y330753D01*
X340954Y330723D01*
X341054Y330720D01*
X341122Y330709D01*
X349221Y330709D01*
X349222Y330709D01*
X349224Y330709D01*
X349364Y330729D01*
X349502Y330749D01*
X349504Y330749D01*
X349505Y330749D01*
X349631Y330806D01*
X349762Y330865D01*
X349763Y330866D01*
X349764Y330867D01*
X349871Y330958D01*
X349979Y331048D01*
X349979Y331050D01*
X349981Y331051D01*
X349989Y331064D01*
X350136Y331285D01*
X350145Y331314D01*
X350159Y331335D01*
X350970Y333294D01*
X352506Y334830D01*
X354514Y335662D01*
X356686Y335662D01*
X358694Y334830D01*
X360230Y333294D01*
X361062Y331286D01*
X361062Y329114D01*
X360230Y327106D01*
X358694Y325570D01*
X356686Y324738D01*
X354870Y324738D01*
X354784Y324726D01*
X354696Y324723D01*
X354644Y324706D01*
X354589Y324698D01*
X354509Y324663D01*
X354426Y324636D01*
X354391Y324611D01*
X338097Y324611D01*
G37*
%LPD*%
%LPC*%
G36*
X67031Y356831D02*
X67031Y356831D01*
X67031Y366341D01*
X74908Y366341D01*
X76702Y366057D01*
X78430Y365495D01*
X80049Y364670D01*
X81518Y363603D01*
X82803Y362318D01*
X83870Y360849D01*
X84695Y359230D01*
X85257Y357502D01*
X85363Y356831D01*
X67031Y356831D01*
G37*
%LPD*%
%LPC*%
G36*
X67031Y560031D02*
X67031Y560031D01*
X67031Y569541D01*
X74908Y569541D01*
X76702Y569257D01*
X78430Y568695D01*
X80049Y567870D01*
X81518Y566803D01*
X82803Y565518D01*
X83870Y564049D01*
X84695Y562430D01*
X85257Y560702D01*
X85363Y560031D01*
X67031Y560031D01*
G37*
%LPD*%
%LPC*%
G36*
X44637Y356831D02*
X44637Y356831D01*
X44743Y357502D01*
X45305Y359230D01*
X46130Y360849D01*
X47197Y362318D01*
X48482Y363603D01*
X49951Y364670D01*
X51570Y365495D01*
X53298Y366057D01*
X55092Y366341D01*
X62969Y366341D01*
X62969Y356831D01*
X44637Y356831D01*
G37*
%LPD*%
%LPC*%
G36*
X44637Y560031D02*
X44637Y560031D01*
X44743Y560702D01*
X45305Y562430D01*
X46130Y564049D01*
X47197Y565518D01*
X48482Y566803D01*
X49951Y567870D01*
X51570Y568695D01*
X53298Y569257D01*
X55092Y569541D01*
X62969Y569541D01*
X62969Y560031D01*
X44637Y560031D01*
G37*
%LPD*%
%LPC*%
G36*
X67031Y343259D02*
X67031Y343259D01*
X67031Y352769D01*
X85363Y352769D01*
X85257Y352098D01*
X84695Y350370D01*
X83870Y348751D01*
X82803Y347282D01*
X81518Y345997D01*
X80049Y344930D01*
X78430Y344105D01*
X76702Y343543D01*
X74908Y343259D01*
X67031Y343259D01*
G37*
%LPD*%
%LPC*%
G36*
X67031Y546459D02*
X67031Y546459D01*
X67031Y555969D01*
X85363Y555969D01*
X85257Y555298D01*
X84695Y553570D01*
X83870Y551951D01*
X82803Y550482D01*
X81518Y549197D01*
X80049Y548130D01*
X78430Y547305D01*
X76702Y546743D01*
X74908Y546459D01*
X67031Y546459D01*
G37*
%LPD*%
%LPC*%
G36*
X55092Y343259D02*
X55092Y343259D01*
X53298Y343543D01*
X51570Y344105D01*
X49951Y344930D01*
X48482Y345997D01*
X47197Y347282D01*
X46130Y348751D01*
X45305Y350370D01*
X44743Y352098D01*
X44637Y352769D01*
X62969Y352769D01*
X62969Y343259D01*
X55092Y343259D01*
G37*
%LPD*%
%LPC*%
G36*
X55092Y546459D02*
X55092Y546459D01*
X53298Y546743D01*
X51570Y547305D01*
X49951Y548130D01*
X48482Y549197D01*
X47197Y550482D01*
X46130Y551951D01*
X45305Y553570D01*
X44743Y555298D01*
X44637Y555969D01*
X62969Y555969D01*
X62969Y546459D01*
X55092Y546459D01*
G37*
%LPD*%
%LPC*%
G36*
X446531Y548131D02*
X446531Y548131D01*
X446531Y555245D01*
X452005Y555245D01*
X453771Y554893D01*
X455436Y554204D01*
X456934Y553203D01*
X458207Y551930D01*
X459208Y550432D01*
X459897Y548767D01*
X460024Y548131D01*
X446531Y548131D01*
G37*
%LPD*%
%LPC*%
G36*
X428976Y548131D02*
X428976Y548131D01*
X429103Y548767D01*
X429792Y550432D01*
X430793Y551930D01*
X432066Y553203D01*
X433564Y554204D01*
X435229Y554893D01*
X436995Y555245D01*
X442469Y555245D01*
X442469Y548131D01*
X428976Y548131D01*
G37*
%LPD*%
%LPC*%
G36*
X446531Y536955D02*
X446531Y536955D01*
X446531Y544069D01*
X460024Y544069D01*
X459897Y543433D01*
X459208Y541768D01*
X458207Y540270D01*
X456934Y538997D01*
X455436Y537996D01*
X453771Y537307D01*
X452005Y536955D01*
X446531Y536955D01*
G37*
%LPD*%
%LPC*%
G36*
X436995Y536955D02*
X436995Y536955D01*
X435229Y537307D01*
X433564Y537996D01*
X432066Y538997D01*
X430793Y540270D01*
X429792Y541768D01*
X429103Y543433D01*
X428976Y544069D01*
X442469Y544069D01*
X442469Y536955D01*
X436995Y536955D01*
G37*
%LPD*%
%LPC*%
G36*
X268731Y649731D02*
X268731Y649731D01*
X268731Y659893D01*
X271750Y659893D01*
X278893Y652750D01*
X278893Y649731D01*
X268731Y649731D01*
G37*
%LPD*%
%LPC*%
G36*
X254507Y649731D02*
X254507Y649731D01*
X254507Y652750D01*
X261650Y659893D01*
X264669Y659893D01*
X264669Y649731D01*
X254507Y649731D01*
G37*
%LPD*%
%LPC*%
G36*
X268731Y635507D02*
X268731Y635507D01*
X268731Y645669D01*
X278893Y645669D01*
X278893Y642650D01*
X271750Y635507D01*
X268731Y635507D01*
G37*
%LPD*%
%LPC*%
G36*
X261650Y635507D02*
X261650Y635507D01*
X254507Y642650D01*
X254507Y645669D01*
X264669Y645669D01*
X264669Y635507D01*
X261650Y635507D01*
G37*
%LPD*%
%LPC*%
G36*
X511329Y678911D02*
X511329Y678911D01*
X517911Y678911D01*
X517911Y674074D01*
X517600Y672513D01*
X516991Y671042D01*
X516107Y669719D01*
X514981Y668593D01*
X513658Y667709D01*
X512187Y667100D01*
X511329Y666929D01*
X511329Y678911D01*
G37*
%LPD*%
%LPC*%
G36*
X581329Y678911D02*
X581329Y678911D01*
X587911Y678911D01*
X587911Y674074D01*
X587600Y672513D01*
X586991Y671042D01*
X586107Y669719D01*
X584981Y668593D01*
X583658Y667709D01*
X582187Y667100D01*
X581329Y666929D01*
X581329Y678911D01*
G37*
%LPD*%
%LPC*%
G36*
X507473Y667100D02*
X507473Y667100D01*
X506002Y667709D01*
X504679Y668593D01*
X503553Y669719D01*
X502669Y671042D01*
X502060Y672513D01*
X501749Y674074D01*
X501749Y678911D01*
X508331Y678911D01*
X508331Y666929D01*
X507473Y667100D01*
G37*
%LPD*%
%LPC*%
G36*
X577473Y667100D02*
X577473Y667100D01*
X576002Y667709D01*
X574679Y668593D01*
X573553Y669719D01*
X572669Y671042D01*
X572060Y672513D01*
X571749Y674074D01*
X571749Y678911D01*
X578331Y678911D01*
X578331Y666929D01*
X577473Y667100D01*
G37*
%LPD*%
%LPC*%
G36*
X638301Y499871D02*
X638301Y499871D01*
X638301Y507921D01*
X644144Y507921D01*
X644791Y507748D01*
X645370Y507413D01*
X645843Y506940D01*
X646178Y506361D01*
X646351Y505714D01*
X646351Y499871D01*
X638301Y499871D01*
G37*
%LPD*%
%LPC*%
G36*
X626189Y499871D02*
X626189Y499871D01*
X626189Y505714D01*
X626362Y506361D01*
X626697Y506940D01*
X627170Y507413D01*
X627749Y507748D01*
X628396Y507921D01*
X634239Y507921D01*
X634239Y499871D01*
X626189Y499871D01*
G37*
%LPD*%
%LPC*%
G36*
X638301Y487759D02*
X638301Y487759D01*
X638301Y495809D01*
X646351Y495809D01*
X646351Y489966D01*
X646178Y489319D01*
X645843Y488740D01*
X645370Y488267D01*
X644791Y487932D01*
X644144Y487759D01*
X638301Y487759D01*
G37*
%LPD*%
%LPC*%
G36*
X628396Y487759D02*
X628396Y487759D01*
X627749Y487932D01*
X627170Y488267D01*
X626697Y488740D01*
X626362Y489319D01*
X626189Y489966D01*
X626189Y495809D01*
X634239Y495809D01*
X634239Y487759D01*
X628396Y487759D01*
G37*
%LPD*%
%LPC*%
G36*
X256031Y522731D02*
X256031Y522731D01*
X256031Y531180D01*
X256498Y531106D01*
X258095Y530587D01*
X259592Y529825D01*
X260950Y528838D01*
X262138Y527650D01*
X263125Y526292D01*
X263887Y524795D01*
X264406Y523198D01*
X264480Y522731D01*
X256031Y522731D01*
G37*
%LPD*%
%LPC*%
G36*
X256031Y518669D02*
X256031Y518669D01*
X264480Y518669D01*
X264406Y518202D01*
X263887Y516605D01*
X263125Y515108D01*
X262138Y513750D01*
X260950Y512562D01*
X259592Y511575D01*
X258095Y510813D01*
X256498Y510294D01*
X256031Y510220D01*
X256031Y518669D01*
G37*
%LPD*%
%LPC*%
G36*
X243520Y522731D02*
X243520Y522731D01*
X243594Y523198D01*
X244113Y524795D01*
X244875Y526292D01*
X245862Y527650D01*
X247050Y528838D01*
X248408Y529825D01*
X249905Y530587D01*
X251502Y531106D01*
X251969Y531180D01*
X251969Y522731D01*
X243520Y522731D01*
G37*
%LPD*%
%LPC*%
G36*
X251502Y510294D02*
X251502Y510294D01*
X249905Y510813D01*
X248408Y511575D01*
X247050Y512562D01*
X245862Y513750D01*
X244875Y515108D01*
X244113Y516605D01*
X243594Y518202D01*
X243520Y518669D01*
X251969Y518669D01*
X251969Y510220D01*
X251502Y510294D01*
G37*
%LPD*%
%LPC*%
G36*
X408431Y560831D02*
X408431Y560831D01*
X408431Y569151D01*
X408868Y569082D01*
X410447Y568569D01*
X411925Y567816D01*
X413268Y566841D01*
X414441Y565668D01*
X415416Y564325D01*
X416169Y562847D01*
X416682Y561268D01*
X416751Y560831D01*
X408431Y560831D01*
G37*
%LPD*%
%LPC*%
G36*
X408431Y556769D02*
X408431Y556769D01*
X416751Y556769D01*
X416682Y556332D01*
X416169Y554753D01*
X415416Y553275D01*
X414441Y551932D01*
X413268Y550759D01*
X411925Y549784D01*
X410447Y549031D01*
X408868Y548518D01*
X408431Y548449D01*
X408431Y556769D01*
G37*
%LPD*%
%LPC*%
G36*
X396049Y560831D02*
X396049Y560831D01*
X396118Y561268D01*
X396631Y562847D01*
X397384Y564325D01*
X398359Y565668D01*
X399532Y566841D01*
X400875Y567816D01*
X402353Y568569D01*
X403932Y569082D01*
X404369Y569151D01*
X404369Y560831D01*
X396049Y560831D01*
G37*
%LPD*%
%LPC*%
G36*
X403932Y548518D02*
X403932Y548518D01*
X402353Y549031D01*
X400875Y549784D01*
X399532Y550759D01*
X398359Y551932D01*
X397384Y553275D01*
X396631Y554753D01*
X396118Y556332D01*
X396049Y556769D01*
X404369Y556769D01*
X404369Y548449D01*
X403932Y548518D01*
G37*
%LPD*%
%LPC*%
G36*
X571861Y655441D02*
X571861Y655441D01*
X571861Y663001D01*
X572123Y662960D01*
X573588Y662483D01*
X574961Y661784D01*
X576208Y660878D01*
X577298Y659788D01*
X578204Y658541D01*
X578903Y657168D01*
X579380Y655703D01*
X579421Y655441D01*
X571861Y655441D01*
G37*
%LPD*%
%LPC*%
G36*
X521861Y655441D02*
X521861Y655441D01*
X521861Y663001D01*
X522123Y662960D01*
X523588Y662483D01*
X524961Y661784D01*
X526208Y660878D01*
X527298Y659788D01*
X528204Y658541D01*
X528903Y657168D01*
X529380Y655703D01*
X529421Y655441D01*
X521861Y655441D01*
G37*
%LPD*%
%LPC*%
G36*
X560239Y655441D02*
X560239Y655441D01*
X560280Y655703D01*
X560757Y657168D01*
X561456Y658541D01*
X562362Y659788D01*
X563452Y660878D01*
X564699Y661784D01*
X566072Y662483D01*
X567537Y662960D01*
X567799Y663001D01*
X567799Y655441D01*
X560239Y655441D01*
G37*
%LPD*%
%LPC*%
G36*
X571861Y651379D02*
X571861Y651379D01*
X579421Y651379D01*
X579380Y651117D01*
X578903Y649652D01*
X578204Y648279D01*
X577298Y647032D01*
X576208Y645942D01*
X574961Y645036D01*
X573588Y644337D01*
X572123Y643860D01*
X571861Y643819D01*
X571861Y651379D01*
G37*
%LPD*%
%LPC*%
G36*
X510239Y655441D02*
X510239Y655441D01*
X510280Y655703D01*
X510757Y657168D01*
X511456Y658541D01*
X512362Y659788D01*
X513452Y660878D01*
X514699Y661784D01*
X516072Y662483D01*
X517537Y662960D01*
X517799Y663001D01*
X517799Y655441D01*
X510239Y655441D01*
G37*
%LPD*%
%LPC*%
G36*
X521861Y651379D02*
X521861Y651379D01*
X529421Y651379D01*
X529380Y651117D01*
X528903Y649652D01*
X528204Y648279D01*
X527298Y647032D01*
X526208Y645942D01*
X524961Y645036D01*
X523588Y644337D01*
X522123Y643860D01*
X521861Y643819D01*
X521861Y651379D01*
G37*
%LPD*%
%LPC*%
G36*
X567537Y643860D02*
X567537Y643860D01*
X566072Y644337D01*
X564699Y645036D01*
X563452Y645942D01*
X562362Y647032D01*
X561456Y648279D01*
X560757Y649652D01*
X560280Y651117D01*
X560239Y651379D01*
X567799Y651379D01*
X567799Y643819D01*
X567537Y643860D01*
G37*
%LPD*%
%LPC*%
G36*
X517537Y643860D02*
X517537Y643860D01*
X516072Y644337D01*
X514699Y645036D01*
X513452Y645942D01*
X512362Y647032D01*
X511456Y648279D01*
X510757Y649652D01*
X510280Y651117D01*
X510239Y651379D01*
X517799Y651379D01*
X517799Y643819D01*
X517537Y643860D01*
G37*
%LPD*%
%LPC*%
G36*
X191515Y178815D02*
X191515Y178815D01*
X191515Y183685D01*
X192241Y183540D01*
X193328Y183090D01*
X194306Y182437D01*
X195137Y181606D01*
X195790Y180628D01*
X196240Y179541D01*
X196385Y178815D01*
X191515Y178815D01*
G37*
%LPD*%
%LPC*%
G36*
X597915Y642365D02*
X597915Y642365D01*
X597915Y647235D01*
X598641Y647090D01*
X599728Y646640D01*
X600706Y645987D01*
X601537Y645156D01*
X602190Y644178D01*
X602640Y643091D01*
X602785Y642365D01*
X597915Y642365D01*
G37*
%LPD*%
%LPC*%
G36*
X139445Y539495D02*
X139445Y539495D01*
X139445Y544365D01*
X140171Y544220D01*
X141258Y543770D01*
X142236Y543117D01*
X143067Y542286D01*
X143720Y541308D01*
X144170Y540221D01*
X144315Y539495D01*
X139445Y539495D01*
G37*
%LPD*%
%LPC*%
G36*
X350265Y519175D02*
X350265Y519175D01*
X350265Y524045D01*
X350991Y523900D01*
X352078Y523450D01*
X353056Y522797D01*
X353887Y521966D01*
X354540Y520988D01*
X354990Y519901D01*
X355135Y519175D01*
X350265Y519175D01*
G37*
%LPD*%
%LPC*%
G36*
X686815Y608075D02*
X686815Y608075D01*
X686815Y612945D01*
X687541Y612800D01*
X688628Y612350D01*
X689606Y611697D01*
X690437Y610866D01*
X691090Y609888D01*
X691540Y608801D01*
X691685Y608075D01*
X686815Y608075D01*
G37*
%LPD*%
%LPC*%
G36*
X470915Y178815D02*
X470915Y178815D01*
X470915Y183685D01*
X471641Y183540D01*
X472728Y183090D01*
X473706Y182437D01*
X474537Y181606D01*
X475190Y180628D01*
X475640Y179541D01*
X475785Y178815D01*
X470915Y178815D01*
G37*
%LPD*%
%LPC*%
G36*
X51815Y178815D02*
X51815Y178815D01*
X51815Y183685D01*
X52541Y183540D01*
X53628Y183090D01*
X54606Y182437D01*
X55437Y181606D01*
X56090Y180628D01*
X56540Y179541D01*
X56685Y178815D01*
X51815Y178815D01*
G37*
%LPD*%
%LPC*%
G36*
X206755Y359155D02*
X206755Y359155D01*
X206755Y364025D01*
X207481Y363880D01*
X208568Y363430D01*
X209546Y362777D01*
X210377Y361946D01*
X211030Y360968D01*
X211480Y359881D01*
X211625Y359155D01*
X206755Y359155D01*
G37*
%LPD*%
%LPC*%
G36*
X235965Y653795D02*
X235965Y653795D01*
X235965Y658665D01*
X236691Y658520D01*
X237778Y658070D01*
X238756Y657417D01*
X239587Y656586D01*
X240240Y655608D01*
X240690Y654521D01*
X240835Y653795D01*
X235965Y653795D01*
G37*
%LPD*%
%LPC*%
G36*
X280415Y128015D02*
X280415Y128015D01*
X280415Y132885D01*
X281141Y132740D01*
X282228Y132290D01*
X283206Y131637D01*
X284037Y130806D01*
X284690Y129828D01*
X285140Y128741D01*
X285285Y128015D01*
X280415Y128015D01*
G37*
%LPD*%
%LPC*%
G36*
X125475Y539495D02*
X125475Y539495D01*
X125475Y544365D01*
X126201Y544220D01*
X127288Y543770D01*
X128266Y543117D01*
X129097Y542286D01*
X129750Y541308D01*
X130200Y540221D01*
X130345Y539495D01*
X125475Y539495D01*
G37*
%LPD*%
%LPC*%
G36*
X340105Y432815D02*
X340105Y432815D01*
X340105Y437685D01*
X340831Y437540D01*
X341918Y437090D01*
X342896Y436437D01*
X343727Y435606D01*
X344380Y434628D01*
X344830Y433541D01*
X344975Y432815D01*
X340105Y432815D01*
G37*
%LPD*%
%LPC*%
G36*
X171195Y472185D02*
X171195Y472185D01*
X171195Y477055D01*
X171921Y476910D01*
X173008Y476460D01*
X173986Y475807D01*
X174817Y474976D01*
X175470Y473998D01*
X175920Y472911D01*
X176065Y472185D01*
X171195Y472185D01*
G37*
%LPD*%
%LPC*%
G36*
X326135Y360425D02*
X326135Y360425D01*
X326135Y365295D01*
X326861Y365150D01*
X327948Y364700D01*
X328926Y364047D01*
X329757Y363216D01*
X330410Y362238D01*
X330860Y361151D01*
X331005Y360425D01*
X326135Y360425D01*
G37*
%LPD*%
%LPC*%
G36*
X331215Y178815D02*
X331215Y178815D01*
X331215Y183685D01*
X331941Y183540D01*
X333028Y183090D01*
X334006Y182437D01*
X334837Y181606D01*
X335490Y180628D01*
X335940Y179541D01*
X336085Y178815D01*
X331215Y178815D01*
G37*
%LPD*%
%LPC*%
G36*
X557275Y129285D02*
X557275Y129285D01*
X557275Y134155D01*
X558001Y134010D01*
X559088Y133560D01*
X560066Y132907D01*
X560897Y132076D01*
X561550Y131098D01*
X562000Y130011D01*
X562145Y129285D01*
X557275Y129285D01*
G37*
%LPD*%
%LPC*%
G36*
X140715Y128015D02*
X140715Y128015D01*
X140715Y132885D01*
X141441Y132740D01*
X142528Y132290D01*
X143506Y131637D01*
X144337Y130806D01*
X144990Y129828D01*
X145440Y128741D01*
X145585Y128015D01*
X140715Y128015D01*
G37*
%LPD*%
%LPC*%
G36*
X420115Y128015D02*
X420115Y128015D01*
X420115Y132885D01*
X420841Y132740D01*
X421928Y132290D01*
X422906Y131637D01*
X423737Y130806D01*
X424390Y129828D01*
X424840Y128741D01*
X424985Y128015D01*
X420115Y128015D01*
G37*
%LPD*%
%LPC*%
G36*
X361695Y562355D02*
X361695Y562355D01*
X361695Y567225D01*
X362421Y567080D01*
X363508Y566630D01*
X364486Y565977D01*
X365317Y565146D01*
X365970Y564168D01*
X366420Y563081D01*
X366565Y562355D01*
X361695Y562355D01*
G37*
%LPD*%
%LPC*%
G36*
X679915Y608075D02*
X679915Y608075D01*
X680060Y608801D01*
X680510Y609888D01*
X681163Y610866D01*
X681994Y611697D01*
X682972Y612350D01*
X684059Y612800D01*
X684785Y612945D01*
X684785Y608075D01*
X679915Y608075D01*
G37*
%LPD*%
%LPC*%
G36*
X686815Y606045D02*
X686815Y606045D01*
X691685Y606045D01*
X691540Y605319D01*
X691090Y604232D01*
X690437Y603254D01*
X689606Y602423D01*
X688628Y601770D01*
X687541Y601320D01*
X686815Y601175D01*
X686815Y606045D01*
G37*
%LPD*%
%LPC*%
G36*
X350265Y517145D02*
X350265Y517145D01*
X355135Y517145D01*
X354990Y516419D01*
X354540Y515332D01*
X353887Y514354D01*
X353056Y513523D01*
X352078Y512870D01*
X350991Y512420D01*
X350265Y512275D01*
X350265Y517145D01*
G37*
%LPD*%
%LPC*%
G36*
X343365Y519175D02*
X343365Y519175D01*
X343510Y519901D01*
X343960Y520988D01*
X344613Y521966D01*
X345444Y522797D01*
X346422Y523450D01*
X347509Y523900D01*
X348235Y524045D01*
X348235Y519175D01*
X343365Y519175D01*
G37*
%LPD*%
%LPC*%
G36*
X125475Y537465D02*
X125475Y537465D01*
X130345Y537465D01*
X130200Y536739D01*
X129750Y535652D01*
X129097Y534674D01*
X128266Y533843D01*
X127288Y533190D01*
X126201Y532740D01*
X125475Y532595D01*
X125475Y537465D01*
G37*
%LPD*%
%LPC*%
G36*
X139445Y537465D02*
X139445Y537465D01*
X144315Y537465D01*
X144170Y536739D01*
X143720Y535652D01*
X143067Y534674D01*
X142236Y533843D01*
X141258Y533190D01*
X140171Y532740D01*
X139445Y532595D01*
X139445Y537465D01*
G37*
%LPD*%
%LPC*%
G36*
X171195Y470155D02*
X171195Y470155D01*
X176065Y470155D01*
X175920Y469429D01*
X175470Y468342D01*
X174817Y467364D01*
X173986Y466533D01*
X173008Y465880D01*
X171921Y465430D01*
X171195Y465285D01*
X171195Y470155D01*
G37*
%LPD*%
%LPC*%
G36*
X113495Y684275D02*
X113495Y684275D01*
X113640Y685001D01*
X114090Y686088D01*
X114743Y687066D01*
X115574Y687897D01*
X116552Y688550D01*
X117639Y689000D01*
X118365Y689145D01*
X118365Y684275D01*
X113495Y684275D01*
G37*
%LPD*%
%LPC*%
G36*
X132545Y539495D02*
X132545Y539495D01*
X132690Y540221D01*
X133140Y541308D01*
X133793Y542286D01*
X134624Y543117D01*
X135602Y543770D01*
X136689Y544220D01*
X137415Y544365D01*
X137415Y539495D01*
X132545Y539495D01*
G37*
%LPD*%
%LPC*%
G36*
X340105Y430785D02*
X340105Y430785D01*
X344975Y430785D01*
X344830Y430059D01*
X344380Y428972D01*
X343727Y427994D01*
X342896Y427163D01*
X341918Y426510D01*
X340831Y426060D01*
X340105Y425915D01*
X340105Y430785D01*
G37*
%LPD*%
%LPC*%
G36*
X118575Y539495D02*
X118575Y539495D01*
X118720Y540221D01*
X119170Y541308D01*
X119823Y542286D01*
X120654Y543117D01*
X121632Y543770D01*
X122719Y544220D01*
X123445Y544365D01*
X123445Y539495D01*
X118575Y539495D01*
G37*
%LPD*%
%LPC*%
G36*
X319235Y360425D02*
X319235Y360425D01*
X319380Y361151D01*
X319830Y362238D01*
X320483Y363216D01*
X321314Y364047D01*
X322292Y364700D01*
X323379Y365150D01*
X324105Y365295D01*
X324105Y360425D01*
X319235Y360425D01*
G37*
%LPD*%
%LPC*%
G36*
X326135Y358395D02*
X326135Y358395D01*
X331005Y358395D01*
X330860Y357669D01*
X330410Y356582D01*
X329757Y355604D01*
X328926Y354773D01*
X327948Y354120D01*
X326861Y353670D01*
X326135Y353525D01*
X326135Y358395D01*
G37*
%LPD*%
%LPC*%
G36*
X206755Y357125D02*
X206755Y357125D01*
X211625Y357125D01*
X211480Y356399D01*
X211030Y355312D01*
X210377Y354334D01*
X209546Y353503D01*
X208568Y352850D01*
X207481Y352400D01*
X206755Y352255D01*
X206755Y357125D01*
G37*
%LPD*%
%LPC*%
G36*
X361695Y560325D02*
X361695Y560325D01*
X366565Y560325D01*
X366420Y559599D01*
X365970Y558512D01*
X365317Y557534D01*
X364486Y556703D01*
X363508Y556050D01*
X362421Y555600D01*
X361695Y555455D01*
X361695Y560325D01*
G37*
%LPD*%
%LPC*%
G36*
X354795Y562355D02*
X354795Y562355D01*
X354940Y563081D01*
X355390Y564168D01*
X356043Y565146D01*
X356874Y565977D01*
X357852Y566630D01*
X358939Y567080D01*
X359665Y567225D01*
X359665Y562355D01*
X354795Y562355D01*
G37*
%LPD*%
%LPC*%
G36*
X324315Y178815D02*
X324315Y178815D01*
X324460Y179541D01*
X324910Y180628D01*
X325563Y181606D01*
X326394Y182437D01*
X327372Y183090D01*
X328459Y183540D01*
X329185Y183685D01*
X329185Y178815D01*
X324315Y178815D01*
G37*
%LPD*%
%LPC*%
G36*
X464015Y178815D02*
X464015Y178815D01*
X464160Y179541D01*
X464610Y180628D01*
X465263Y181606D01*
X466094Y182437D01*
X467072Y183090D01*
X468159Y183540D01*
X468885Y183685D01*
X468885Y178815D01*
X464015Y178815D01*
G37*
%LPD*%
%LPC*%
G36*
X44915Y178815D02*
X44915Y178815D01*
X45060Y179541D01*
X45510Y180628D01*
X46163Y181606D01*
X46994Y182437D01*
X47972Y183090D01*
X49059Y183540D01*
X49785Y183685D01*
X49785Y178815D01*
X44915Y178815D01*
G37*
%LPD*%
%LPC*%
G36*
X184615Y178815D02*
X184615Y178815D01*
X184760Y179541D01*
X185210Y180628D01*
X185863Y181606D01*
X186694Y182437D01*
X187672Y183090D01*
X188759Y183540D01*
X189485Y183685D01*
X189485Y178815D01*
X184615Y178815D01*
G37*
%LPD*%
%LPC*%
G36*
X470915Y176785D02*
X470915Y176785D01*
X475785Y176785D01*
X475640Y176059D01*
X475190Y174972D01*
X474537Y173994D01*
X473706Y173163D01*
X472728Y172510D01*
X471641Y172060D01*
X470915Y171915D01*
X470915Y176785D01*
G37*
%LPD*%
%LPC*%
G36*
X331215Y176785D02*
X331215Y176785D01*
X336085Y176785D01*
X335940Y176059D01*
X335490Y174972D01*
X334837Y173994D01*
X334006Y173163D01*
X333028Y172510D01*
X331941Y172060D01*
X331215Y171915D01*
X331215Y176785D01*
G37*
%LPD*%
%LPC*%
G36*
X164295Y472185D02*
X164295Y472185D01*
X164440Y472911D01*
X164890Y473998D01*
X165543Y474976D01*
X166374Y475807D01*
X167352Y476460D01*
X168439Y476910D01*
X169165Y477055D01*
X169165Y472185D01*
X164295Y472185D01*
G37*
%LPD*%
%LPC*%
G36*
X51815Y176785D02*
X51815Y176785D01*
X56685Y176785D01*
X56540Y176059D01*
X56090Y174972D01*
X55437Y173994D01*
X54606Y173163D01*
X53628Y172510D01*
X52541Y172060D01*
X51815Y171915D01*
X51815Y176785D01*
G37*
%LPD*%
%LPC*%
G36*
X229065Y653795D02*
X229065Y653795D01*
X229210Y654521D01*
X229660Y655608D01*
X230313Y656586D01*
X231144Y657417D01*
X232122Y658070D01*
X233209Y658520D01*
X233935Y658665D01*
X233935Y653795D01*
X229065Y653795D01*
G37*
%LPD*%
%LPC*%
G36*
X550375Y129285D02*
X550375Y129285D01*
X550520Y130011D01*
X550970Y131098D01*
X551623Y132076D01*
X552454Y132907D01*
X553432Y133560D01*
X554519Y134010D01*
X555245Y134155D01*
X555245Y129285D01*
X550375Y129285D01*
G37*
%LPD*%
%LPC*%
G36*
X235965Y651765D02*
X235965Y651765D01*
X240835Y651765D01*
X240690Y651039D01*
X240240Y649952D01*
X239587Y648974D01*
X238756Y648143D01*
X237778Y647490D01*
X236691Y647040D01*
X235965Y646895D01*
X235965Y651765D01*
G37*
%LPD*%
%LPC*%
G36*
X333205Y432815D02*
X333205Y432815D01*
X333350Y433541D01*
X333800Y434628D01*
X334453Y435606D01*
X335284Y436437D01*
X336262Y437090D01*
X337349Y437540D01*
X338075Y437685D01*
X338075Y432815D01*
X333205Y432815D01*
G37*
%LPD*%
%LPC*%
G36*
X591015Y642365D02*
X591015Y642365D01*
X591160Y643091D01*
X591610Y644178D01*
X592263Y645156D01*
X593094Y645987D01*
X594072Y646640D01*
X595159Y647090D01*
X595885Y647235D01*
X595885Y642365D01*
X591015Y642365D01*
G37*
%LPD*%
%LPC*%
G36*
X133815Y128015D02*
X133815Y128015D01*
X133960Y128741D01*
X134410Y129828D01*
X135063Y130806D01*
X135894Y131637D01*
X136872Y132290D01*
X137959Y132740D01*
X138685Y132885D01*
X138685Y128015D01*
X133815Y128015D01*
G37*
%LPD*%
%LPC*%
G36*
X273515Y128015D02*
X273515Y128015D01*
X273660Y128741D01*
X274110Y129828D01*
X274763Y130806D01*
X275594Y131637D01*
X276572Y132290D01*
X277659Y132740D01*
X278385Y132885D01*
X278385Y128015D01*
X273515Y128015D01*
G37*
%LPD*%
%LPC*%
G36*
X413215Y128015D02*
X413215Y128015D01*
X413360Y128741D01*
X413810Y129828D01*
X414463Y130806D01*
X415294Y131637D01*
X416272Y132290D01*
X417359Y132740D01*
X418085Y132885D01*
X418085Y128015D01*
X413215Y128015D01*
G37*
%LPD*%
%LPC*%
G36*
X557275Y127255D02*
X557275Y127255D01*
X562145Y127255D01*
X562000Y126529D01*
X561550Y125442D01*
X560897Y124464D01*
X560066Y123633D01*
X559088Y122980D01*
X558001Y122530D01*
X557275Y122385D01*
X557275Y127255D01*
G37*
%LPD*%
%LPC*%
G36*
X420115Y125985D02*
X420115Y125985D01*
X424985Y125985D01*
X424840Y125259D01*
X424390Y124172D01*
X423737Y123194D01*
X422906Y122363D01*
X421928Y121710D01*
X420841Y121260D01*
X420115Y121115D01*
X420115Y125985D01*
G37*
%LPD*%
%LPC*%
G36*
X280415Y125985D02*
X280415Y125985D01*
X285285Y125985D01*
X285140Y125259D01*
X284690Y124172D01*
X284037Y123194D01*
X283206Y122363D01*
X282228Y121710D01*
X281141Y121260D01*
X280415Y121115D01*
X280415Y125985D01*
G37*
%LPD*%
%LPC*%
G36*
X140715Y125985D02*
X140715Y125985D01*
X145585Y125985D01*
X145440Y125259D01*
X144990Y124172D01*
X144337Y123194D01*
X143506Y122363D01*
X142528Y121710D01*
X141441Y121260D01*
X140715Y121115D01*
X140715Y125985D01*
G37*
%LPD*%
%LPC*%
G36*
X597915Y640335D02*
X597915Y640335D01*
X602785Y640335D01*
X602640Y639609D01*
X602190Y638522D01*
X601537Y637544D01*
X600706Y636713D01*
X599728Y636060D01*
X598641Y635610D01*
X597915Y635465D01*
X597915Y640335D01*
G37*
%LPD*%
%LPC*%
G36*
X191515Y176785D02*
X191515Y176785D01*
X196385Y176785D01*
X196240Y176059D01*
X195790Y174972D01*
X195137Y173994D01*
X194306Y173163D01*
X193328Y172510D01*
X192241Y172060D01*
X191515Y171915D01*
X191515Y176785D01*
G37*
%LPD*%
%LPC*%
G36*
X122719Y532740D02*
X122719Y532740D01*
X121632Y533190D01*
X120654Y533843D01*
X119823Y534674D01*
X119170Y535652D01*
X118720Y536739D01*
X118575Y537465D01*
X123445Y537465D01*
X123445Y532595D01*
X122719Y532740D01*
G37*
%LPD*%
%LPC*%
G36*
X347509Y512420D02*
X347509Y512420D01*
X346422Y512870D01*
X345444Y513523D01*
X344613Y514354D01*
X343960Y515332D01*
X343510Y516419D01*
X343365Y517145D01*
X348235Y517145D01*
X348235Y512275D01*
X347509Y512420D01*
G37*
%LPD*%
%LPC*%
G36*
X49059Y172060D02*
X49059Y172060D01*
X47972Y172510D01*
X46994Y173163D01*
X46163Y173994D01*
X45510Y174972D01*
X45060Y176059D01*
X44915Y176785D01*
X49785Y176785D01*
X49785Y171915D01*
X49059Y172060D01*
G37*
%LPD*%
%LPC*%
G36*
X468159Y172060D02*
X468159Y172060D01*
X467072Y172510D01*
X466094Y173163D01*
X465263Y173994D01*
X464610Y174972D01*
X464160Y176059D01*
X464015Y176785D01*
X468885Y176785D01*
X468885Y171915D01*
X468159Y172060D01*
G37*
%LPD*%
%LPC*%
G36*
X168439Y465430D02*
X168439Y465430D01*
X167352Y465880D01*
X166374Y466533D01*
X165543Y467364D01*
X164890Y468342D01*
X164440Y469429D01*
X164295Y470155D01*
X169165Y470155D01*
X169165Y465285D01*
X168439Y465430D01*
G37*
%LPD*%
%LPC*%
G36*
X328459Y172060D02*
X328459Y172060D01*
X327372Y172510D01*
X326394Y173163D01*
X325563Y173994D01*
X324910Y174972D01*
X324460Y176059D01*
X324315Y176785D01*
X329185Y176785D01*
X329185Y171915D01*
X328459Y172060D01*
G37*
%LPD*%
%LPC*%
G36*
X323379Y353670D02*
X323379Y353670D01*
X322292Y354120D01*
X321314Y354773D01*
X320483Y355604D01*
X319830Y356582D01*
X319380Y357669D01*
X319235Y358395D01*
X324105Y358395D01*
X324105Y353525D01*
X323379Y353670D01*
G37*
%LPD*%
%LPC*%
G36*
X188759Y172060D02*
X188759Y172060D01*
X187672Y172510D01*
X186694Y173163D01*
X185863Y173994D01*
X185210Y174972D01*
X184760Y176059D01*
X184615Y176785D01*
X189485Y176785D01*
X189485Y171915D01*
X188759Y172060D01*
G37*
%LPD*%
%LPC*%
G36*
X684059Y601320D02*
X684059Y601320D01*
X682972Y601770D01*
X681994Y602423D01*
X681163Y603254D01*
X680510Y604232D01*
X680060Y605319D01*
X679915Y606045D01*
X684785Y606045D01*
X684785Y601175D01*
X684059Y601320D01*
G37*
%LPD*%
%LPC*%
G36*
X358939Y555600D02*
X358939Y555600D01*
X357852Y556050D01*
X356874Y556703D01*
X356043Y557534D01*
X355390Y558512D01*
X354940Y559599D01*
X354795Y560325D01*
X359665Y560325D01*
X359665Y555455D01*
X358939Y555600D01*
G37*
%LPD*%
%LPC*%
G36*
X136689Y532740D02*
X136689Y532740D01*
X135602Y533190D01*
X134624Y533843D01*
X133793Y534674D01*
X133140Y535652D01*
X132690Y536739D01*
X132545Y537465D01*
X137415Y537465D01*
X137415Y532595D01*
X136689Y532740D01*
G37*
%LPD*%
%LPC*%
G36*
X554519Y122530D02*
X554519Y122530D01*
X553432Y122980D01*
X552454Y123633D01*
X551623Y124464D01*
X550970Y125442D01*
X550520Y126529D01*
X550375Y127255D01*
X555245Y127255D01*
X555245Y122385D01*
X554519Y122530D01*
G37*
%LPD*%
%LPC*%
G36*
X337349Y426060D02*
X337349Y426060D01*
X336262Y426510D01*
X335284Y427163D01*
X334453Y427994D01*
X333800Y428972D01*
X333350Y430059D01*
X333205Y430785D01*
X338075Y430785D01*
X338075Y425915D01*
X337349Y426060D01*
G37*
%LPD*%
%LPC*%
G36*
X417359Y121260D02*
X417359Y121260D01*
X416272Y121710D01*
X415294Y122363D01*
X414463Y123194D01*
X413810Y124172D01*
X413360Y125259D01*
X413215Y125985D01*
X418085Y125985D01*
X418085Y121115D01*
X417359Y121260D01*
G37*
%LPD*%
%LPC*%
G36*
X595159Y635610D02*
X595159Y635610D01*
X594072Y636060D01*
X593094Y636713D01*
X592263Y637544D01*
X591610Y638522D01*
X591160Y639609D01*
X591015Y640335D01*
X595885Y640335D01*
X595885Y635465D01*
X595159Y635610D01*
G37*
%LPD*%
%LPC*%
G36*
X277659Y121260D02*
X277659Y121260D01*
X276572Y121710D01*
X275594Y122363D01*
X274763Y123194D01*
X274110Y124172D01*
X273660Y125259D01*
X273515Y125985D01*
X278385Y125985D01*
X278385Y121115D01*
X277659Y121260D01*
G37*
%LPD*%
%LPC*%
G36*
X137959Y121260D02*
X137959Y121260D01*
X136872Y121710D01*
X135894Y122363D01*
X135063Y123194D01*
X134410Y124172D01*
X133960Y125259D01*
X133815Y125985D01*
X138685Y125985D01*
X138685Y121115D01*
X137959Y121260D01*
G37*
%LPD*%
%LPC*%
G36*
X233209Y647040D02*
X233209Y647040D01*
X232122Y647490D01*
X231144Y648143D01*
X230313Y648974D01*
X229660Y649952D01*
X229210Y651039D01*
X229065Y651765D01*
X233935Y651765D01*
X233935Y646895D01*
X233209Y647040D01*
G37*
%LPD*%
%LPC*%
G36*
X117639Y677520D02*
X117639Y677520D01*
X116552Y677970D01*
X115574Y678623D01*
X114743Y679454D01*
X114090Y680432D01*
X113640Y681519D01*
X113495Y682245D01*
X118365Y682245D01*
X118365Y677375D01*
X117639Y677520D01*
G37*
%LPD*%
%LPC*%
G36*
X519829Y653409D02*
X519829Y653409D01*
X519829Y653411D01*
X519831Y653411D01*
X519831Y653409D01*
X519829Y653409D01*
G37*
%LPD*%
%LPC*%
G36*
X253999Y520699D02*
X253999Y520699D01*
X253999Y520701D01*
X254001Y520701D01*
X254001Y520699D01*
X253999Y520699D01*
G37*
%LPD*%
%LPC*%
G36*
X64999Y354799D02*
X64999Y354799D01*
X64999Y354801D01*
X65001Y354801D01*
X65001Y354799D01*
X64999Y354799D01*
G37*
%LPD*%
%LPC*%
G36*
X569829Y653409D02*
X569829Y653409D01*
X569829Y653411D01*
X569831Y653411D01*
X569831Y653409D01*
X569829Y653409D01*
G37*
%LPD*%
%LPC*%
G36*
X64999Y557999D02*
X64999Y557999D01*
X64999Y558001D01*
X65001Y558001D01*
X65001Y557999D01*
X64999Y557999D01*
G37*
%LPD*%
%LPC*%
G36*
X406399Y558799D02*
X406399Y558799D01*
X406399Y558801D01*
X406401Y558801D01*
X406401Y558799D01*
X406399Y558799D01*
G37*
%LPD*%
%LPC*%
G36*
X636269Y497839D02*
X636269Y497839D01*
X636269Y497841D01*
X636271Y497841D01*
X636271Y497839D01*
X636269Y497839D01*
G37*
%LPD*%
%LPC*%
G36*
X444499Y546099D02*
X444499Y546099D01*
X444499Y546101D01*
X444501Y546101D01*
X444501Y546099D01*
X444499Y546099D01*
G37*
%LPD*%
%LPC*%
G36*
X266699Y647699D02*
X266699Y647699D01*
X266699Y647701D01*
X266701Y647701D01*
X266701Y647699D01*
X266699Y647699D01*
G37*
%LPD*%
D10*
X571500Y584200D03*
D11*
X571500Y558800D03*
D10*
X406400Y584200D03*
D11*
X406400Y558800D03*
D12*
X437896Y546100D02*
X451104Y546100D01*
X514096Y546100D02*
X527304Y546100D01*
X527304Y596900D02*
X514096Y596900D01*
X451104Y596900D02*
X437896Y596900D01*
D13*
X228600Y495300D03*
X228600Y520700D03*
X203200Y520700D03*
X203200Y495300D03*
X254000Y495300D03*
X254000Y520700D03*
D14*
X569830Y653410D03*
X519830Y653410D03*
D15*
X579830Y674870D02*
X579830Y685950D01*
X509830Y685950D02*
X509830Y674870D01*
D16*
X304800Y647700D03*
X266700Y647700D03*
D17*
X74000Y354800D02*
X56000Y354800D01*
X56000Y304800D02*
X74000Y304800D01*
X74000Y254800D02*
X56000Y254800D01*
X56000Y558000D02*
X74000Y558000D01*
X74000Y508000D02*
X56000Y508000D01*
X56000Y458000D02*
X74000Y458000D01*
D18*
X636270Y497840D03*
D19*
X661670Y497840D03*
X687070Y497840D03*
X712470Y497840D03*
D20*
X234950Y652780D03*
X339090Y431800D03*
X685800Y607060D03*
X596900Y641350D03*
X360680Y561340D03*
X138430Y538480D03*
X124460Y538480D03*
X50800Y177800D03*
X190500Y177800D03*
X330200Y177800D03*
X469900Y177800D03*
X325120Y359410D03*
X205740Y358140D03*
X556260Y128270D03*
X419100Y127000D03*
X279400Y127000D03*
X139700Y127000D03*
X139700Y681990D03*
X119380Y683260D03*
X349250Y518160D03*
X170180Y471170D03*
X190500Y381000D03*
D21*
X190500Y355600D01*
D20*
X190500Y355600D03*
X196786Y387286D03*
D21*
X196786Y383874D01*
X196977Y383683D01*
X196977Y346583D01*
X199390Y344170D01*
D20*
X199390Y344170D03*
X266700Y431800D03*
D21*
X254000Y419100D01*
X254000Y304800D02*
X257810Y300990D01*
X257810Y300339D01*
D20*
X257810Y300339D03*
D21*
X254000Y304800D02*
X254000Y419100D01*
D20*
X128270Y678180D03*
X151130Y679450D03*
D21*
X134350Y678180D02*
X128270Y678180D01*
X134350Y678180D02*
X137017Y675513D01*
X147193Y675513D01*
X151130Y679450D01*
D20*
X393700Y406400D03*
X352178Y390278D03*
D21*
X368300Y406400D01*
X393700Y406400D01*
D20*
X334645Y332375D03*
D21*
X339360Y327660D01*
X353060Y327660D02*
X355600Y330200D01*
D20*
X355600Y330200D03*
D21*
X353060Y327660D02*
X339360Y327660D01*
D20*
X415290Y355600D03*
D21*
X431800Y355600D01*
D20*
X431800Y355600D03*
X415290Y346710D03*
D21*
X431800Y346710D01*
D20*
X431800Y346710D03*
X537210Y626110D03*
D22*
X553720Y609600D01*
X596900Y609600D01*
D20*
X596900Y609600D03*
X660400Y571500D03*
D22*
X635000Y596900D01*
X622300Y596900D01*
D20*
X622300Y596900D03*
X444500Y457200D03*
D22*
X368300Y533400D01*
X355600Y533400D01*
D20*
X355600Y533400D03*
X596900Y596900D03*
D22*
X601980Y591820D01*
X601980Y551180D01*
X491490Y440690D01*
X467360Y440690D01*
D20*
X467360Y440690D03*
X317500Y482600D03*
D22*
X398780Y482600D01*
X420370Y461010D01*
D20*
X420370Y461010D03*
X224790Y565150D03*
D22*
X285750Y565150D01*
X317500Y596900D02*
X317500Y609600D01*
X306070Y621030D01*
X294640Y621030D02*
X292100Y618490D01*
D20*
X292100Y618490D03*
D22*
X317500Y596900D02*
X285750Y565150D01*
X294640Y621030D02*
X306070Y621030D01*
X203200Y520700D02*
X203200Y510540D01*
X200660Y508000D01*
X186690Y508000D01*
X152400Y473710D01*
X152400Y444500D01*
D20*
X152400Y444500D03*
X177800Y419100D03*
D22*
X204970Y391930D01*
X204970Y380230D01*
D20*
X204970Y380230D03*
X325120Y518160D03*
D22*
X238760Y431800D01*
X194310Y431800D02*
X193040Y433070D01*
D20*
X193040Y433070D03*
D22*
X194310Y431800D02*
X238760Y431800D01*
D20*
X63500Y419100D03*
D22*
X76200Y419100D02*
X203200Y546100D01*
X76200Y419100D02*
X63500Y419100D01*
D20*
X317500Y548640D03*
D22*
X314960Y546100D01*
X203200Y546100D01*
D20*
X358140Y349250D03*
D22*
X421640Y412750D01*
X421640Y421640D01*
D20*
X421640Y421640D03*
X152400Y342900D03*
D22*
X152400Y292100D01*
X114300Y254000D01*
X65800Y254000D01*
X65000Y254800D01*
D20*
X182880Y330200D03*
D22*
X222250Y290830D01*
X337820Y290830D01*
X340995Y294005D01*
X340995Y305435D01*
X351790Y316230D01*
D20*
X351790Y316230D03*
M02*
