G04 EAGLE Gerber RS-274X export*
G75*
%MOMM*%
%FSLAX34Y34*%
%LPD*%
%INSoldermask Bottom*%
%IPPOS*%
%AMOC8*
5,1,8,0,0,1.08239X$1,22.5*%
G01*
%ADD10C,3.149600*%
%ADD11C,1.727200*%
%ADD12C,0.591600*%
%ADD13P,2.199416X8X22.500000*%
%ADD14C,1.609600*%
%ADD15C,3.217600*%
%ADD16C,1.778000*%
%ADD17R,1.609600X1.609600*%
%ADD18C,2.101600*%
%ADD19P,1.814519X8X22.500000*%
%ADD20C,1.676400*%


D10*
X140000Y900000D03*
X675700Y901000D03*
X170000Y140000D03*
X677100Y138900D03*
D11*
X158200Y480400D03*
X183600Y480400D03*
X183600Y505800D03*
X158200Y505800D03*
X158200Y455000D03*
X183600Y455000D03*
D12*
X664000Y754600D03*
X664000Y794600D03*
D13*
X399600Y771700D03*
X448800Y771700D03*
D14*
X126400Y675000D03*
X126400Y650000D03*
X126400Y700000D03*
D15*
X56400Y622000D03*
X56400Y728000D03*
D14*
X126500Y822300D03*
X126500Y797300D03*
X126500Y847300D03*
D15*
X56500Y769300D03*
X56500Y875300D03*
D16*
X584500Y761700D03*
X553400Y760800D03*
X248700Y275200D03*
X415200Y685200D03*
X345000Y651100D03*
X245500Y651500D03*
X324700Y755200D03*
X355900Y699500D03*
D17*
X680400Y342100D03*
D14*
X680400Y316700D03*
X680400Y291300D03*
X680400Y265900D03*
D18*
X668970Y408140D03*
X668970Y199860D03*
X437830Y199860D03*
X437830Y408140D03*
D19*
X501300Y475500D03*
D20*
X475900Y475500D03*
D19*
X431300Y475500D03*
D20*
X405900Y475500D03*
M02*
