G04 EAGLE Gerber RS-274X export*
G75*
%MOMM*%
%FSLAX34Y34*%
%LPD*%
%INBottom Copper*%
%IPPOS*%
%AMOC8*
5,1,8,0,0,1.08239X$1,22.5*%
G01*
%ADD10C,1.625600*%
%ADD11P,2.089446X8X22.500000*%
%ADD12C,1.508000*%
%ADD13C,3.116000*%
%ADD14C,1.676400*%
%ADD15R,1.508000X1.508000*%
%ADD16P,1.704548X8X22.500000*%
%ADD17C,1.574800*%
%ADD18C,0.685800*%
%ADD19C,0.203200*%
%ADD20C,0.304800*%
%ADD21C,0.350000*%

G36*
X703799Y113536D02*
X703799Y113536D01*
X703818Y113539D01*
X703837Y113537D01*
X703939Y113559D01*
X704042Y113576D01*
X704059Y113585D01*
X704078Y113589D01*
X704167Y113643D01*
X704259Y113691D01*
X704272Y113706D01*
X704289Y113716D01*
X704356Y113794D01*
X704428Y113870D01*
X704436Y113888D01*
X704449Y113902D01*
X704488Y113999D01*
X704531Y114093D01*
X704534Y114113D01*
X704541Y114131D01*
X704559Y114297D01*
X704559Y927693D01*
X704556Y927714D01*
X704558Y927734D01*
X704536Y927834D01*
X704520Y927936D01*
X704510Y927954D01*
X704506Y927974D01*
X704453Y928063D01*
X704404Y928153D01*
X704390Y928168D01*
X704379Y928185D01*
X704301Y928252D01*
X704226Y928323D01*
X704208Y928331D01*
X704192Y928345D01*
X704096Y928383D01*
X704003Y928426D01*
X703983Y928429D01*
X703964Y928436D01*
X703797Y928455D01*
X3301Y927464D01*
X3282Y927461D01*
X3263Y927463D01*
X3161Y927441D01*
X3058Y927424D01*
X3041Y927415D01*
X3022Y927411D01*
X2933Y927357D01*
X2841Y927309D01*
X2828Y927294D01*
X2811Y927284D01*
X2744Y927206D01*
X2672Y927130D01*
X2664Y927112D01*
X2651Y927098D01*
X2612Y927001D01*
X2569Y926907D01*
X2566Y926887D01*
X2559Y926869D01*
X2541Y926703D01*
X2541Y113307D01*
X2544Y113286D01*
X2542Y113266D01*
X2564Y113166D01*
X2580Y113064D01*
X2590Y113046D01*
X2594Y113026D01*
X2647Y112937D01*
X2696Y112847D01*
X2710Y112832D01*
X2721Y112815D01*
X2799Y112748D01*
X2874Y112677D01*
X2892Y112669D01*
X2908Y112655D01*
X3004Y112617D01*
X3097Y112574D01*
X3117Y112571D01*
X3136Y112564D01*
X3303Y112545D01*
X703799Y113536D01*
G37*
%LPC*%
G36*
X235614Y494238D02*
X235614Y494238D01*
X233606Y495070D01*
X232248Y496428D01*
X232174Y496481D01*
X232104Y496541D01*
X232074Y496553D01*
X232048Y496572D01*
X231961Y496599D01*
X231876Y496633D01*
X231835Y496637D01*
X231813Y496644D01*
X231781Y496643D01*
X231709Y496651D01*
X219037Y496651D01*
X208960Y506728D01*
X208886Y506781D01*
X208817Y506841D01*
X208787Y506853D01*
X208760Y506872D01*
X208673Y506899D01*
X208589Y506933D01*
X208548Y506937D01*
X208525Y506944D01*
X208493Y506943D01*
X208422Y506951D01*
X204937Y506951D01*
X186773Y525115D01*
X186699Y525168D01*
X186630Y525228D01*
X186600Y525240D01*
X186573Y525259D01*
X186486Y525286D01*
X186402Y525320D01*
X186361Y525324D01*
X186338Y525331D01*
X186306Y525330D01*
X186235Y525338D01*
X184314Y525338D01*
X182306Y526170D01*
X180770Y527706D01*
X179938Y529714D01*
X179938Y531486D01*
X179931Y531531D01*
X179933Y531577D01*
X179911Y531652D01*
X179899Y531729D01*
X179877Y531769D01*
X179864Y531814D01*
X179820Y531878D01*
X179783Y531946D01*
X179750Y531978D01*
X179724Y532016D01*
X179662Y532062D01*
X179605Y532116D01*
X179563Y532135D01*
X179527Y532162D01*
X179453Y532186D01*
X179382Y532219D01*
X179336Y532224D01*
X179293Y532239D01*
X179215Y532238D01*
X179138Y532246D01*
X179093Y532237D01*
X179047Y532236D01*
X178916Y532198D01*
X178897Y532194D01*
X178893Y532191D01*
X178886Y532189D01*
X178633Y532085D01*
X176460Y532085D01*
X174453Y532916D01*
X172916Y534453D01*
X172085Y536460D01*
X172085Y537610D01*
X172081Y537629D01*
X172084Y537649D01*
X172062Y537750D01*
X172045Y537852D01*
X172036Y537870D01*
X172031Y537889D01*
X171978Y537978D01*
X171930Y538070D01*
X171915Y538083D01*
X171905Y538101D01*
X171826Y538168D01*
X171751Y538239D01*
X171733Y538247D01*
X171718Y538260D01*
X171622Y538299D01*
X171528Y538343D01*
X171509Y538345D01*
X171490Y538352D01*
X171323Y538371D01*
X170174Y538371D01*
X168166Y539202D01*
X166630Y540739D01*
X165798Y542746D01*
X165798Y544919D01*
X166630Y546926D01*
X168166Y548463D01*
X170174Y549294D01*
X172347Y549294D01*
X174335Y548471D01*
X174448Y548444D01*
X174562Y548416D01*
X174568Y548416D01*
X174574Y548415D01*
X174691Y548426D01*
X174807Y548435D01*
X174813Y548437D01*
X174819Y548438D01*
X174927Y548486D01*
X175033Y548531D01*
X175039Y548536D01*
X175044Y548538D01*
X175058Y548550D01*
X175164Y548636D01*
X193445Y566917D01*
X195454Y568926D01*
X222635Y568926D01*
X222657Y568929D01*
X222680Y568927D01*
X222778Y568949D01*
X222877Y568965D01*
X222898Y568976D01*
X222920Y568981D01*
X223006Y569034D01*
X223095Y569081D01*
X223111Y569097D01*
X223130Y569109D01*
X223195Y569186D01*
X223264Y569259D01*
X223274Y569280D01*
X223289Y569297D01*
X223325Y569391D01*
X223368Y569482D01*
X223370Y569505D01*
X223379Y569526D01*
X223384Y569627D01*
X223395Y569726D01*
X223390Y569749D01*
X223391Y569772D01*
X223364Y569869D01*
X223343Y569967D01*
X223331Y569987D01*
X223325Y570009D01*
X223268Y570092D01*
X223216Y570178D01*
X223199Y570193D01*
X223186Y570212D01*
X223058Y570320D01*
X222394Y570763D01*
X221563Y571594D01*
X220910Y572572D01*
X220460Y573659D01*
X220303Y574448D01*
X226009Y574448D01*
X226029Y574451D01*
X226049Y574449D01*
X226150Y574471D01*
X226184Y574477D01*
X226186Y574476D01*
X226205Y574474D01*
X226224Y574467D01*
X226391Y574448D01*
X232097Y574448D01*
X231940Y573659D01*
X231490Y572572D01*
X230837Y571594D01*
X230006Y570763D01*
X229342Y570320D01*
X229326Y570304D01*
X229305Y570293D01*
X229236Y570221D01*
X229163Y570152D01*
X229152Y570132D01*
X229136Y570115D01*
X229093Y570024D01*
X229046Y569936D01*
X229042Y569913D01*
X229032Y569892D01*
X229021Y569792D01*
X229004Y569693D01*
X229008Y569670D01*
X229005Y569648D01*
X229026Y569549D01*
X229042Y569450D01*
X229052Y569430D01*
X229057Y569407D01*
X229109Y569321D01*
X229155Y569232D01*
X229172Y569216D01*
X229184Y569196D01*
X229260Y569131D01*
X229332Y569061D01*
X229353Y569051D01*
X229370Y569036D01*
X229464Y568999D01*
X229554Y568956D01*
X229577Y568953D01*
X229599Y568944D01*
X229765Y568926D01*
X306486Y568926D01*
X327527Y547885D01*
X327601Y547832D01*
X327670Y547772D01*
X327700Y547760D01*
X327727Y547741D01*
X327814Y547714D01*
X327898Y547680D01*
X327939Y547676D01*
X327962Y547669D01*
X327994Y547670D01*
X328065Y547662D01*
X329986Y547662D01*
X331994Y546830D01*
X333530Y545294D01*
X334362Y543286D01*
X334362Y541114D01*
X333530Y539106D01*
X332295Y537871D01*
X332253Y537813D01*
X332204Y537761D01*
X332182Y537714D01*
X332152Y537672D01*
X332131Y537603D01*
X332100Y537538D01*
X332095Y537486D01*
X332079Y537436D01*
X332081Y537365D01*
X332073Y537294D01*
X332084Y537243D01*
X332086Y537191D01*
X332110Y537123D01*
X332126Y537053D01*
X332152Y537008D01*
X332170Y536960D01*
X332215Y536904D01*
X332252Y536842D01*
X332291Y536808D01*
X332324Y536768D01*
X332384Y536729D01*
X332439Y536682D01*
X332487Y536663D01*
X332531Y536635D01*
X332600Y536617D01*
X332667Y536590D01*
X332738Y536582D01*
X332769Y536574D01*
X332793Y536576D01*
X332834Y536572D01*
X335440Y536572D01*
X341527Y530485D01*
X341601Y530432D01*
X341670Y530372D01*
X341700Y530360D01*
X341727Y530341D01*
X341814Y530314D01*
X341898Y530280D01*
X341939Y530276D01*
X341962Y530269D01*
X341994Y530270D01*
X342065Y530262D01*
X343986Y530262D01*
X345994Y529430D01*
X347530Y527894D01*
X348362Y525886D01*
X348362Y523714D01*
X347530Y521706D01*
X345994Y520170D01*
X343986Y519338D01*
X341814Y519338D01*
X339806Y520170D01*
X338270Y521706D01*
X337438Y523714D01*
X337438Y525635D01*
X337424Y525725D01*
X337416Y525816D01*
X337404Y525846D01*
X337399Y525878D01*
X337356Y525958D01*
X337320Y526042D01*
X337294Y526074D01*
X337283Y526095D01*
X337260Y526117D01*
X337215Y526173D01*
X333137Y530251D01*
X333063Y530304D01*
X332994Y530364D01*
X332964Y530376D01*
X332937Y530395D01*
X332850Y530422D01*
X332766Y530456D01*
X332725Y530460D01*
X332702Y530467D01*
X332670Y530466D01*
X332599Y530474D01*
X305161Y530474D01*
X305071Y530460D01*
X304980Y530452D01*
X304950Y530440D01*
X304918Y530435D01*
X304838Y530392D01*
X304754Y530356D01*
X304722Y530330D01*
X304701Y530319D01*
X304699Y530317D01*
X304698Y530317D01*
X304678Y530296D01*
X304623Y530251D01*
X300846Y526474D01*
X195875Y526474D01*
X195804Y526463D01*
X195733Y526461D01*
X195684Y526443D01*
X195632Y526435D01*
X195569Y526401D01*
X195502Y526376D01*
X195461Y526344D01*
X195415Y526319D01*
X195366Y526267D01*
X195310Y526223D01*
X195281Y526179D01*
X195246Y526141D01*
X195215Y526076D01*
X195177Y526016D01*
X195164Y525965D01*
X195142Y525918D01*
X195134Y525847D01*
X195117Y525777D01*
X195121Y525725D01*
X195115Y525674D01*
X195130Y525603D01*
X195136Y525532D01*
X195156Y525484D01*
X195167Y525433D01*
X195204Y525372D01*
X195232Y525306D01*
X195277Y525250D01*
X195293Y525222D01*
X195311Y525207D01*
X195337Y525175D01*
X207240Y513272D01*
X207314Y513219D01*
X207383Y513159D01*
X207413Y513147D01*
X207440Y513128D01*
X207527Y513101D01*
X207611Y513067D01*
X207652Y513063D01*
X207675Y513056D01*
X207707Y513057D01*
X207778Y513049D01*
X211263Y513049D01*
X213272Y511040D01*
X216826Y507485D01*
X216905Y507429D01*
X216980Y507367D01*
X217005Y507357D01*
X217026Y507342D01*
X217119Y507313D01*
X217210Y507278D01*
X217236Y507277D01*
X217261Y507270D01*
X217358Y507272D01*
X217456Y507268D01*
X217481Y507275D01*
X217507Y507276D01*
X217598Y507309D01*
X217692Y507336D01*
X217713Y507351D01*
X217738Y507360D01*
X217814Y507421D01*
X217894Y507477D01*
X217909Y507498D01*
X217930Y507514D01*
X217983Y507596D01*
X218041Y507674D01*
X218049Y507699D01*
X218063Y507721D01*
X218087Y507815D01*
X218117Y507908D01*
X218117Y507934D01*
X218123Y507959D01*
X218115Y508056D01*
X218114Y508154D01*
X218105Y508185D01*
X218104Y508205D01*
X218091Y508235D01*
X218068Y508315D01*
X217760Y509059D01*
X217603Y509848D01*
X222548Y509848D01*
X222548Y504903D01*
X221759Y505060D01*
X221015Y505368D01*
X220920Y505390D01*
X220827Y505419D01*
X220801Y505418D01*
X220776Y505424D01*
X220679Y505415D01*
X220581Y505412D01*
X220557Y505403D01*
X220531Y505401D01*
X220442Y505361D01*
X220350Y505328D01*
X220330Y505311D01*
X220306Y505301D01*
X220234Y505235D01*
X220158Y505174D01*
X220144Y505152D01*
X220125Y505134D01*
X220078Y505049D01*
X220025Y504967D01*
X220019Y504942D01*
X220006Y504919D01*
X219989Y504823D01*
X219965Y504729D01*
X219967Y504703D01*
X219963Y504677D01*
X219977Y504580D01*
X219984Y504483D01*
X219995Y504459D01*
X219998Y504433D01*
X220043Y504347D01*
X220081Y504257D01*
X220101Y504232D01*
X220110Y504214D01*
X220133Y504191D01*
X220185Y504126D01*
X221340Y502972D01*
X221414Y502919D01*
X221483Y502859D01*
X221513Y502847D01*
X221540Y502828D01*
X221627Y502801D01*
X221711Y502767D01*
X221752Y502763D01*
X221775Y502756D01*
X221807Y502757D01*
X221878Y502749D01*
X231709Y502749D01*
X231799Y502763D01*
X231890Y502771D01*
X231920Y502783D01*
X231952Y502788D01*
X232033Y502831D01*
X232117Y502867D01*
X232149Y502893D01*
X232169Y502904D01*
X232192Y502927D01*
X232248Y502972D01*
X233606Y504330D01*
X235614Y505162D01*
X237786Y505162D01*
X239794Y504330D01*
X241330Y502794D01*
X242162Y500786D01*
X242162Y498614D01*
X241330Y496606D01*
X239794Y495070D01*
X237786Y494238D01*
X235614Y494238D01*
G37*
%LPD*%
G36*
X290764Y532579D02*
X290764Y532579D01*
X290810Y532577D01*
X290885Y532599D01*
X290962Y532611D01*
X291002Y532633D01*
X291047Y532646D01*
X291111Y532690D01*
X291179Y532727D01*
X291211Y532760D01*
X291249Y532786D01*
X291295Y532849D01*
X291349Y532905D01*
X291368Y532947D01*
X291395Y532983D01*
X291419Y533057D01*
X291452Y533128D01*
X291457Y533174D01*
X291472Y533217D01*
X291471Y533295D01*
X291479Y533372D01*
X291470Y533417D01*
X291469Y533463D01*
X291431Y533594D01*
X291427Y533613D01*
X291425Y533617D01*
X291422Y533624D01*
X291160Y534259D01*
X291003Y535048D01*
X296709Y535048D01*
X296729Y535051D01*
X296749Y535049D01*
X296850Y535071D01*
X296952Y535088D01*
X296970Y535097D01*
X296989Y535101D01*
X297078Y535155D01*
X297169Y535203D01*
X297183Y535217D01*
X297200Y535228D01*
X297268Y535306D01*
X297339Y535381D01*
X297347Y535399D01*
X297360Y535415D01*
X297399Y535511D01*
X297442Y535604D01*
X297445Y535624D01*
X297452Y535643D01*
X297471Y535809D01*
X297471Y536191D01*
X297467Y536210D01*
X297470Y536230D01*
X297448Y536331D01*
X297431Y536433D01*
X297422Y536451D01*
X297417Y536470D01*
X297364Y536559D01*
X297316Y536651D01*
X297301Y536664D01*
X297291Y536681D01*
X297212Y536749D01*
X297137Y536820D01*
X297119Y536828D01*
X297104Y536841D01*
X297008Y536880D01*
X296914Y536924D01*
X296895Y536926D01*
X296876Y536933D01*
X296709Y536952D01*
X291003Y536952D01*
X291160Y537741D01*
X291610Y538828D01*
X292263Y539806D01*
X293094Y540637D01*
X293424Y540857D01*
X293441Y540873D01*
X293461Y540884D01*
X293530Y540956D01*
X293604Y541025D01*
X293615Y541045D01*
X293630Y541062D01*
X293673Y541153D01*
X293720Y541241D01*
X293724Y541264D01*
X293734Y541285D01*
X293745Y541385D01*
X293762Y541484D01*
X293759Y541507D01*
X293761Y541529D01*
X293740Y541628D01*
X293724Y541727D01*
X293714Y541747D01*
X293709Y541770D01*
X293657Y541856D01*
X293611Y541945D01*
X293595Y541961D01*
X293583Y541981D01*
X293506Y542046D01*
X293434Y542116D01*
X293413Y542126D01*
X293396Y542141D01*
X293302Y542179D01*
X293212Y542221D01*
X293189Y542224D01*
X293168Y542233D01*
X293001Y542251D01*
X276291Y542251D01*
X276201Y542237D01*
X276110Y542229D01*
X276080Y542217D01*
X276048Y542212D01*
X275967Y542169D01*
X275883Y542133D01*
X275851Y542107D01*
X275831Y542096D01*
X275808Y542073D01*
X275752Y542028D01*
X274394Y540670D01*
X272386Y539838D01*
X270214Y539838D01*
X268206Y540670D01*
X266670Y542206D01*
X265838Y544214D01*
X265838Y546386D01*
X266670Y548394D01*
X268206Y549930D01*
X270214Y550762D01*
X272386Y550762D01*
X274394Y549930D01*
X275752Y548572D01*
X275826Y548519D01*
X275896Y548459D01*
X275926Y548447D01*
X275952Y548428D01*
X276039Y548401D01*
X276124Y548367D01*
X276165Y548363D01*
X276187Y548356D01*
X276219Y548357D01*
X276291Y548349D01*
X305963Y548349D01*
X308627Y545685D01*
X308701Y545632D01*
X308770Y545572D01*
X308800Y545560D01*
X308827Y545541D01*
X308914Y545514D01*
X308998Y545480D01*
X309039Y545476D01*
X309062Y545469D01*
X309094Y545470D01*
X309165Y545462D01*
X311086Y545462D01*
X313094Y544630D01*
X314630Y543094D01*
X315462Y541086D01*
X315462Y538914D01*
X314928Y537624D01*
X314917Y537580D01*
X314898Y537538D01*
X314889Y537461D01*
X314872Y537385D01*
X314876Y537339D01*
X314871Y537294D01*
X314887Y537217D01*
X314895Y537140D01*
X314913Y537098D01*
X314923Y537053D01*
X314963Y536986D01*
X314995Y536915D01*
X315026Y536881D01*
X315049Y536842D01*
X315108Y536791D01*
X315161Y536734D01*
X315201Y536712D01*
X315236Y536682D01*
X315308Y536653D01*
X315377Y536616D01*
X315422Y536607D01*
X315464Y536590D01*
X315600Y536575D01*
X315619Y536572D01*
X315624Y536573D01*
X315631Y536572D01*
X324966Y536572D01*
X325037Y536583D01*
X325109Y536585D01*
X325158Y536603D01*
X325209Y536611D01*
X325272Y536645D01*
X325340Y536670D01*
X325380Y536702D01*
X325427Y536727D01*
X325476Y536779D01*
X325532Y536823D01*
X325560Y536867D01*
X325596Y536905D01*
X325626Y536970D01*
X325665Y537030D01*
X325678Y537081D01*
X325700Y537128D01*
X325707Y537199D01*
X325725Y537269D01*
X325721Y537321D01*
X325727Y537372D01*
X325711Y537443D01*
X325706Y537514D01*
X325685Y537562D01*
X325674Y537613D01*
X325638Y537674D01*
X325609Y537740D01*
X325565Y537796D01*
X325548Y537824D01*
X325530Y537839D01*
X325505Y537871D01*
X324270Y539106D01*
X323438Y541114D01*
X323438Y543035D01*
X323424Y543125D01*
X323416Y543216D01*
X323404Y543246D01*
X323399Y543278D01*
X323356Y543358D01*
X323320Y543442D01*
X323294Y543474D01*
X323283Y543495D01*
X323260Y543517D01*
X323215Y543573D01*
X304183Y562605D01*
X304109Y562658D01*
X304040Y562718D01*
X304010Y562730D01*
X303983Y562749D01*
X303896Y562776D01*
X303812Y562810D01*
X303771Y562814D01*
X303748Y562821D01*
X303716Y562820D01*
X303645Y562828D01*
X229384Y562828D01*
X229362Y562825D01*
X229339Y562827D01*
X229241Y562805D01*
X229142Y562789D01*
X229121Y562778D01*
X229099Y562773D01*
X229013Y562720D01*
X228924Y562673D01*
X228909Y562657D01*
X228889Y562645D01*
X228824Y562568D01*
X228755Y562495D01*
X228745Y562474D01*
X228730Y562457D01*
X228694Y562363D01*
X228651Y562272D01*
X228649Y562249D01*
X228640Y562228D01*
X228635Y562127D01*
X228624Y562028D01*
X228629Y562005D01*
X228628Y561982D01*
X228655Y561885D01*
X228677Y561787D01*
X228688Y561767D01*
X228695Y561745D01*
X228751Y561662D01*
X228803Y561576D01*
X228820Y561561D01*
X228833Y561542D01*
X228962Y561434D01*
X229706Y560937D01*
X230537Y560106D01*
X231190Y559128D01*
X231640Y558041D01*
X231797Y557252D01*
X226091Y557252D01*
X226071Y557249D01*
X226051Y557251D01*
X225950Y557229D01*
X225916Y557223D01*
X225914Y557224D01*
X225895Y557226D01*
X225876Y557233D01*
X225709Y557252D01*
X220003Y557252D01*
X220160Y558041D01*
X220610Y559128D01*
X221263Y560106D01*
X222094Y560937D01*
X222838Y561434D01*
X222855Y561450D01*
X222876Y561461D01*
X222945Y561533D01*
X223018Y561602D01*
X223029Y561622D01*
X223045Y561639D01*
X223087Y561730D01*
X223135Y561818D01*
X223139Y561841D01*
X223149Y561862D01*
X223160Y561962D01*
X223177Y562061D01*
X223173Y562084D01*
X223176Y562106D01*
X223154Y562205D01*
X223139Y562304D01*
X223128Y562324D01*
X223123Y562347D01*
X223072Y562433D01*
X223026Y562522D01*
X223009Y562538D01*
X222997Y562558D01*
X222921Y562623D01*
X222849Y562693D01*
X222828Y562703D01*
X222810Y562718D01*
X222717Y562755D01*
X222627Y562798D01*
X222604Y562801D01*
X222582Y562810D01*
X222416Y562828D01*
X198295Y562828D01*
X198205Y562814D01*
X198114Y562806D01*
X198085Y562794D01*
X198053Y562789D01*
X197972Y562746D01*
X197888Y562710D01*
X197856Y562684D01*
X197835Y562673D01*
X197813Y562650D01*
X197757Y562605D01*
X192821Y557669D01*
X192779Y557611D01*
X192730Y557559D01*
X192708Y557512D01*
X192677Y557470D01*
X192656Y557401D01*
X192626Y557336D01*
X192620Y557284D01*
X192605Y557234D01*
X192607Y557163D01*
X192599Y557092D01*
X192610Y557041D01*
X192611Y556989D01*
X192636Y556921D01*
X192651Y556851D01*
X192678Y556806D01*
X192696Y556758D01*
X192741Y556702D01*
X192777Y556640D01*
X192817Y556606D01*
X192850Y556566D01*
X192910Y556527D01*
X192964Y556480D01*
X193013Y556461D01*
X193056Y556433D01*
X193126Y556415D01*
X193193Y556388D01*
X193264Y556380D01*
X193295Y556372D01*
X193318Y556374D01*
X193359Y556370D01*
X193388Y556370D01*
X194541Y556140D01*
X195628Y555690D01*
X196606Y555037D01*
X197437Y554206D01*
X198090Y553228D01*
X198540Y552141D01*
X198697Y551352D01*
X192991Y551352D01*
X192971Y551349D01*
X192951Y551351D01*
X192850Y551329D01*
X192748Y551312D01*
X192730Y551303D01*
X192711Y551298D01*
X192622Y551245D01*
X192531Y551197D01*
X192517Y551183D01*
X192500Y551172D01*
X192432Y551094D01*
X192361Y551019D01*
X192353Y551001D01*
X192340Y550985D01*
X192307Y550904D01*
X192241Y550864D01*
X192149Y550816D01*
X192136Y550801D01*
X192119Y550791D01*
X192051Y550712D01*
X191980Y550637D01*
X191972Y550619D01*
X191959Y550604D01*
X191920Y550508D01*
X191876Y550414D01*
X191874Y550395D01*
X191867Y550376D01*
X191848Y550209D01*
X191848Y544503D01*
X191059Y544660D01*
X189972Y545110D01*
X188994Y545763D01*
X188163Y546594D01*
X187510Y547572D01*
X187060Y548659D01*
X186830Y549812D01*
X186830Y549841D01*
X186819Y549911D01*
X186817Y549983D01*
X186799Y550032D01*
X186791Y550084D01*
X186757Y550147D01*
X186732Y550214D01*
X186700Y550255D01*
X186675Y550301D01*
X186624Y550350D01*
X186579Y550406D01*
X186535Y550434D01*
X186497Y550470D01*
X186432Y550500D01*
X186372Y550539D01*
X186321Y550552D01*
X186274Y550574D01*
X186203Y550582D01*
X186133Y550599D01*
X186081Y550595D01*
X186030Y550601D01*
X185959Y550586D01*
X185888Y550580D01*
X185840Y550560D01*
X185789Y550549D01*
X185728Y550512D01*
X185662Y550484D01*
X185606Y550439D01*
X185578Y550423D01*
X185563Y550405D01*
X185531Y550379D01*
X179104Y543952D01*
X179077Y543915D01*
X179043Y543884D01*
X179026Y543852D01*
X179015Y543841D01*
X178999Y543807D01*
X178960Y543752D01*
X178947Y543709D01*
X178925Y543668D01*
X178918Y543632D01*
X178912Y543618D01*
X178908Y543581D01*
X178888Y543517D01*
X178889Y543472D01*
X178881Y543426D01*
X178886Y543390D01*
X178885Y543373D01*
X178893Y543336D01*
X178894Y543272D01*
X178910Y543228D01*
X178917Y543183D01*
X178933Y543152D01*
X178937Y543133D01*
X178958Y543098D01*
X178979Y543041D01*
X179008Y543005D01*
X179028Y542964D01*
X179052Y542941D01*
X179063Y542922D01*
X179097Y542893D01*
X179133Y542848D01*
X179171Y542824D01*
X179204Y542792D01*
X179236Y542774D01*
X179250Y542762D01*
X179278Y542751D01*
X179324Y542726D01*
X179339Y542715D01*
X179344Y542714D01*
X179351Y542711D01*
X180640Y542177D01*
X182268Y540549D01*
X182342Y540496D01*
X182412Y540436D01*
X182442Y540424D01*
X182468Y540405D01*
X182555Y540378D01*
X182640Y540344D01*
X182681Y540340D01*
X182703Y540333D01*
X182735Y540334D01*
X182806Y540326D01*
X189346Y540326D01*
X196877Y532795D01*
X196951Y532742D01*
X197020Y532682D01*
X197050Y532670D01*
X197077Y532651D01*
X197163Y532624D01*
X197248Y532590D01*
X197289Y532586D01*
X197312Y532579D01*
X197344Y532580D01*
X197415Y532572D01*
X290719Y532572D01*
X290764Y532579D01*
G37*
%LPC*%
G36*
X218914Y454538D02*
X218914Y454538D01*
X216906Y455370D01*
X215370Y456906D01*
X214538Y458914D01*
X214538Y461086D01*
X215370Y463094D01*
X216906Y464630D01*
X218914Y465462D01*
X221086Y465462D01*
X223094Y464630D01*
X224452Y463272D01*
X224526Y463219D01*
X224596Y463159D01*
X224626Y463147D01*
X224652Y463128D01*
X224739Y463101D01*
X224824Y463067D01*
X224865Y463063D01*
X224887Y463056D01*
X224919Y463057D01*
X224991Y463049D01*
X348422Y463049D01*
X348512Y463063D01*
X348603Y463071D01*
X348633Y463083D01*
X348665Y463088D01*
X348745Y463131D01*
X348829Y463167D01*
X348861Y463193D01*
X348882Y463204D01*
X348904Y463227D01*
X348960Y463272D01*
X376728Y491040D01*
X376781Y491114D01*
X376841Y491183D01*
X376853Y491213D01*
X376872Y491240D01*
X376899Y491327D01*
X376933Y491411D01*
X376937Y491452D01*
X376944Y491475D01*
X376943Y491507D01*
X376951Y491578D01*
X376951Y497032D01*
X376937Y497122D01*
X376929Y497213D01*
X376917Y497243D01*
X376912Y497275D01*
X376869Y497356D01*
X376833Y497440D01*
X376807Y497472D01*
X376796Y497492D01*
X376773Y497515D01*
X376728Y497571D01*
X375370Y498929D01*
X374538Y500937D01*
X374538Y503109D01*
X375370Y505117D01*
X376906Y506653D01*
X378914Y507485D01*
X381086Y507485D01*
X383094Y506653D01*
X384630Y505117D01*
X385462Y503109D01*
X385462Y500937D01*
X384630Y498929D01*
X383272Y497571D01*
X383219Y497497D01*
X383159Y497427D01*
X383147Y497397D01*
X383128Y497371D01*
X383101Y497284D01*
X383067Y497199D01*
X383063Y497158D01*
X383056Y497136D01*
X383057Y497104D01*
X383049Y497032D01*
X383049Y488737D01*
X353272Y458960D01*
X351263Y456951D01*
X224991Y456951D01*
X224901Y456937D01*
X224810Y456929D01*
X224780Y456917D01*
X224748Y456912D01*
X224667Y456869D01*
X224583Y456833D01*
X224551Y456807D01*
X224531Y456796D01*
X224508Y456773D01*
X224452Y456728D01*
X223094Y455370D01*
X221086Y454538D01*
X218914Y454538D01*
G37*
%LPD*%
%LPC*%
G36*
X672163Y883219D02*
X672163Y883219D01*
X665628Y885926D01*
X660626Y890928D01*
X657919Y897463D01*
X657919Y904537D01*
X660626Y911072D01*
X665628Y916074D01*
X672163Y918781D01*
X679237Y918781D01*
X685772Y916074D01*
X690774Y911072D01*
X693481Y904537D01*
X693481Y897463D01*
X690774Y890928D01*
X685772Y885926D01*
X679237Y883219D01*
X672163Y883219D01*
G37*
%LPD*%
%LPC*%
G36*
X136463Y882219D02*
X136463Y882219D01*
X129928Y884926D01*
X124926Y889928D01*
X122219Y896463D01*
X122219Y903537D01*
X124926Y910072D01*
X129928Y915074D01*
X136463Y917781D01*
X143537Y917781D01*
X150072Y915074D01*
X155074Y910072D01*
X157781Y903537D01*
X157781Y896463D01*
X155074Y889928D01*
X150072Y884926D01*
X143537Y882219D01*
X136463Y882219D01*
G37*
%LPD*%
%LPC*%
G36*
X673563Y121119D02*
X673563Y121119D01*
X667028Y123826D01*
X662026Y128828D01*
X659319Y135363D01*
X659319Y142437D01*
X662026Y148972D01*
X667028Y153974D01*
X673563Y156681D01*
X680637Y156681D01*
X687172Y153974D01*
X692174Y148972D01*
X694881Y142437D01*
X694881Y135363D01*
X692174Y128828D01*
X687172Y123826D01*
X680637Y121119D01*
X673563Y121119D01*
G37*
%LPD*%
%LPC*%
G36*
X166463Y122219D02*
X166463Y122219D01*
X159928Y124926D01*
X154926Y129928D01*
X152219Y136463D01*
X152219Y143537D01*
X154926Y150072D01*
X159928Y155074D01*
X166463Y157781D01*
X173537Y157781D01*
X180072Y155074D01*
X185074Y150072D01*
X187781Y143537D01*
X187781Y136463D01*
X185074Y129928D01*
X180072Y124926D01*
X173537Y122219D01*
X166463Y122219D01*
G37*
%LPD*%
%LPC*%
G36*
X52997Y857687D02*
X52997Y857687D01*
X46523Y860369D01*
X41569Y865323D01*
X38887Y871797D01*
X38887Y878803D01*
X41569Y885277D01*
X46523Y890231D01*
X52997Y892913D01*
X60003Y892913D01*
X66477Y890231D01*
X71431Y885277D01*
X74113Y878803D01*
X74113Y871797D01*
X71431Y865323D01*
X66477Y860369D01*
X60003Y857687D01*
X52997Y857687D01*
G37*
%LPD*%
%LPC*%
G36*
X52897Y710387D02*
X52897Y710387D01*
X46423Y713069D01*
X41469Y718023D01*
X38787Y724497D01*
X38787Y731503D01*
X41469Y737977D01*
X46423Y742931D01*
X52897Y745613D01*
X59903Y745613D01*
X66377Y742931D01*
X71331Y737977D01*
X74013Y731503D01*
X74013Y724497D01*
X71331Y718023D01*
X66377Y713069D01*
X59903Y710387D01*
X52897Y710387D01*
G37*
%LPD*%
%LPC*%
G36*
X52997Y751687D02*
X52997Y751687D01*
X46523Y754369D01*
X41569Y759323D01*
X38887Y765797D01*
X38887Y772803D01*
X41569Y779277D01*
X46523Y784231D01*
X52997Y786913D01*
X60003Y786913D01*
X66477Y784231D01*
X71431Y779277D01*
X74113Y772803D01*
X74113Y765797D01*
X71431Y759323D01*
X66477Y754369D01*
X60003Y751687D01*
X52997Y751687D01*
G37*
%LPD*%
%LPC*%
G36*
X52897Y604387D02*
X52897Y604387D01*
X46423Y607069D01*
X41469Y612023D01*
X38787Y618497D01*
X38787Y625503D01*
X41469Y631977D01*
X46423Y636931D01*
X52897Y639613D01*
X59903Y639613D01*
X66377Y636931D01*
X71331Y631977D01*
X74013Y625503D01*
X74013Y618497D01*
X71331Y612023D01*
X66377Y607069D01*
X59903Y604387D01*
X52897Y604387D01*
G37*
%LPD*%
%LPC*%
G36*
X435335Y395599D02*
X435335Y395599D01*
X430726Y397508D01*
X427198Y401036D01*
X425289Y405645D01*
X425289Y410635D01*
X427198Y415244D01*
X430726Y418772D01*
X435335Y420681D01*
X440325Y420681D01*
X444934Y418772D01*
X448462Y415244D01*
X450371Y410635D01*
X450371Y405645D01*
X448462Y401036D01*
X444934Y397508D01*
X440325Y395599D01*
X435335Y395599D01*
G37*
%LPD*%
%LPC*%
G36*
X666475Y395599D02*
X666475Y395599D01*
X661866Y397508D01*
X658338Y401036D01*
X656429Y405645D01*
X656429Y410635D01*
X658338Y415244D01*
X661866Y418772D01*
X666475Y420681D01*
X671465Y420681D01*
X676074Y418772D01*
X679602Y415244D01*
X681511Y410635D01*
X681511Y405645D01*
X679602Y401036D01*
X676074Y397508D01*
X671465Y395599D01*
X666475Y395599D01*
G37*
%LPD*%
%LPC*%
G36*
X435335Y187319D02*
X435335Y187319D01*
X430726Y189228D01*
X427198Y192756D01*
X425289Y197365D01*
X425289Y202355D01*
X427198Y206964D01*
X430726Y210492D01*
X435335Y212401D01*
X440325Y212401D01*
X444934Y210492D01*
X448462Y206964D01*
X450371Y202355D01*
X450371Y197365D01*
X448462Y192756D01*
X444934Y189228D01*
X440325Y187319D01*
X435335Y187319D01*
G37*
%LPD*%
%LPC*%
G36*
X666475Y187319D02*
X666475Y187319D01*
X661866Y189228D01*
X658338Y192756D01*
X656429Y197365D01*
X656429Y202355D01*
X658338Y206964D01*
X661866Y210492D01*
X666475Y212401D01*
X671465Y212401D01*
X676074Y210492D01*
X679602Y206964D01*
X681511Y202355D01*
X681511Y197365D01*
X679602Y192756D01*
X676074Y189228D01*
X671465Y187319D01*
X666475Y187319D01*
G37*
%LPD*%
%LPC*%
G36*
X281114Y706238D02*
X281114Y706238D01*
X279106Y707070D01*
X277570Y708606D01*
X276738Y710614D01*
X276738Y712786D01*
X277570Y714794D01*
X279106Y716330D01*
X281114Y717162D01*
X283035Y717162D01*
X283125Y717176D01*
X283216Y717184D01*
X283246Y717196D01*
X283278Y717201D01*
X283358Y717244D01*
X283442Y717280D01*
X283474Y717306D01*
X283495Y717317D01*
X283517Y717340D01*
X283573Y717385D01*
X288022Y721834D01*
X295009Y721834D01*
X295099Y721848D01*
X295190Y721856D01*
X295220Y721868D01*
X295252Y721873D01*
X295333Y721916D01*
X295417Y721952D01*
X295449Y721978D01*
X295469Y721989D01*
X295492Y722012D01*
X295548Y722057D01*
X296183Y722692D01*
X296194Y722708D01*
X296210Y722720D01*
X296266Y722808D01*
X296326Y722891D01*
X296332Y722910D01*
X296343Y722927D01*
X296368Y723028D01*
X296399Y723127D01*
X296398Y723146D01*
X296403Y723166D01*
X296395Y723269D01*
X296392Y723372D01*
X296385Y723391D01*
X296384Y723411D01*
X296343Y723506D01*
X296308Y723603D01*
X296295Y723619D01*
X296287Y723637D01*
X296183Y723768D01*
X295370Y724581D01*
X294538Y726589D01*
X294538Y726890D01*
X294536Y726903D01*
X294537Y726914D01*
X294536Y726919D01*
X294537Y726929D01*
X294515Y727031D01*
X294499Y727133D01*
X294489Y727150D01*
X294485Y727170D01*
X294432Y727259D01*
X294383Y727350D01*
X294369Y727364D01*
X294359Y727381D01*
X294280Y727448D01*
X294205Y727520D01*
X294187Y727528D01*
X294172Y727541D01*
X294076Y727580D01*
X293982Y727623D01*
X293962Y727625D01*
X293944Y727633D01*
X293777Y727651D01*
X287214Y727651D01*
X287124Y727637D01*
X287033Y727629D01*
X287003Y727617D01*
X286971Y727612D01*
X286890Y727569D01*
X286806Y727533D01*
X286774Y727507D01*
X286754Y727496D01*
X286739Y727481D01*
X286738Y727481D01*
X286728Y727470D01*
X286675Y727428D01*
X285317Y726070D01*
X283309Y725238D01*
X281137Y725238D01*
X279129Y726070D01*
X277593Y727606D01*
X276761Y729614D01*
X276761Y731786D01*
X277593Y733794D01*
X279129Y735330D01*
X281137Y736162D01*
X283309Y736162D01*
X285317Y735330D01*
X286675Y733972D01*
X286749Y733919D01*
X286819Y733859D01*
X286849Y733847D01*
X286875Y733828D01*
X286962Y733801D01*
X287047Y733767D01*
X287088Y733763D01*
X287110Y733756D01*
X287142Y733757D01*
X287214Y733749D01*
X298238Y733749D01*
X298627Y733360D01*
X298701Y733307D01*
X298770Y733247D01*
X298800Y733235D01*
X298827Y733216D01*
X298914Y733189D01*
X298998Y733155D01*
X299039Y733151D01*
X299062Y733144D01*
X299094Y733145D01*
X299165Y733137D01*
X301086Y733137D01*
X303094Y732305D01*
X304630Y730769D01*
X305462Y728761D01*
X305462Y726589D01*
X304630Y724581D01*
X303817Y723768D01*
X303806Y723752D01*
X303790Y723740D01*
X303734Y723652D01*
X303674Y723569D01*
X303668Y723550D01*
X303657Y723533D01*
X303632Y723432D01*
X303601Y723333D01*
X303602Y723314D01*
X303597Y723294D01*
X303605Y723191D01*
X303608Y723088D01*
X303615Y723069D01*
X303616Y723049D01*
X303657Y722954D01*
X303692Y722857D01*
X303705Y722841D01*
X303713Y722823D01*
X303817Y722692D01*
X304630Y721879D01*
X305462Y719871D01*
X305462Y717699D01*
X304630Y715691D01*
X303094Y714155D01*
X301086Y713323D01*
X298914Y713323D01*
X296906Y714155D01*
X295548Y715513D01*
X295474Y715566D01*
X295404Y715626D01*
X295374Y715638D01*
X295348Y715657D01*
X295261Y715684D01*
X295176Y715718D01*
X295135Y715722D01*
X295113Y715729D01*
X295081Y715728D01*
X295009Y715736D01*
X290863Y715736D01*
X290773Y715722D01*
X290682Y715714D01*
X290652Y715702D01*
X290620Y715697D01*
X290540Y715654D01*
X290456Y715618D01*
X290424Y715592D01*
X290403Y715581D01*
X290381Y715558D01*
X290325Y715513D01*
X287885Y713073D01*
X287832Y712999D01*
X287772Y712930D01*
X287760Y712900D01*
X287741Y712873D01*
X287714Y712786D01*
X287680Y712702D01*
X287676Y712661D01*
X287669Y712638D01*
X287670Y712606D01*
X287662Y712535D01*
X287662Y710614D01*
X286830Y708606D01*
X285294Y707070D01*
X283286Y706238D01*
X281114Y706238D01*
G37*
%LPD*%
%LPC*%
G36*
X394760Y760015D02*
X394760Y760015D01*
X387915Y766860D01*
X387915Y776540D01*
X394760Y783385D01*
X404440Y783385D01*
X411285Y776540D01*
X411285Y766860D01*
X404440Y760015D01*
X394760Y760015D01*
G37*
%LPD*%
%LPC*%
G36*
X246628Y264785D02*
X246628Y264785D01*
X242800Y266371D01*
X239871Y269300D01*
X238285Y273128D01*
X238285Y277272D01*
X239871Y281100D01*
X242800Y284029D01*
X246628Y285615D01*
X250772Y285615D01*
X254600Y284029D01*
X257529Y281100D01*
X259115Y277272D01*
X259115Y273128D01*
X257529Y269300D01*
X254600Y266371D01*
X250772Y264785D01*
X246628Y264785D01*
G37*
%LPD*%
%LPC*%
G36*
X413128Y674785D02*
X413128Y674785D01*
X409300Y676371D01*
X406371Y679300D01*
X404785Y683128D01*
X404785Y687272D01*
X406371Y691100D01*
X409300Y694029D01*
X413128Y695615D01*
X417272Y695615D01*
X421100Y694029D01*
X424029Y691100D01*
X425615Y687272D01*
X425615Y683128D01*
X424029Y679300D01*
X421100Y676371D01*
X417272Y674785D01*
X413128Y674785D01*
G37*
%LPD*%
%LPC*%
G36*
X342928Y640685D02*
X342928Y640685D01*
X339100Y642271D01*
X336171Y645200D01*
X334585Y649028D01*
X334585Y653172D01*
X336171Y657000D01*
X339100Y659929D01*
X342928Y661515D01*
X347072Y661515D01*
X350900Y659929D01*
X353829Y657000D01*
X355415Y653172D01*
X355415Y649028D01*
X353829Y645200D01*
X350900Y642271D01*
X347072Y640685D01*
X342928Y640685D01*
G37*
%LPD*%
%LPC*%
G36*
X322628Y744785D02*
X322628Y744785D01*
X318800Y746371D01*
X315871Y749300D01*
X314285Y753128D01*
X314285Y757272D01*
X315871Y761100D01*
X318800Y764029D01*
X322628Y765615D01*
X326772Y765615D01*
X330600Y764029D01*
X333529Y761100D01*
X335115Y757272D01*
X335115Y753128D01*
X333529Y749300D01*
X330600Y746371D01*
X326772Y744785D01*
X322628Y744785D01*
G37*
%LPD*%
%LPC*%
G36*
X353828Y689085D02*
X353828Y689085D01*
X350000Y690671D01*
X347071Y693600D01*
X345485Y697428D01*
X345485Y701572D01*
X347071Y705400D01*
X350000Y708329D01*
X353828Y709915D01*
X357972Y709915D01*
X361800Y708329D01*
X364729Y705400D01*
X366315Y701572D01*
X366315Y697428D01*
X364729Y693600D01*
X361800Y690671D01*
X357972Y689085D01*
X353828Y689085D01*
G37*
%LPD*%
%LPC*%
G36*
X243428Y641085D02*
X243428Y641085D01*
X239600Y642671D01*
X236671Y645600D01*
X235085Y649428D01*
X235085Y653572D01*
X236671Y657400D01*
X239600Y660329D01*
X243428Y661915D01*
X247572Y661915D01*
X251400Y660329D01*
X254329Y657400D01*
X255915Y653572D01*
X255915Y649428D01*
X254329Y645600D01*
X251400Y642671D01*
X247572Y641085D01*
X243428Y641085D01*
G37*
%LPD*%
%LPC*%
G36*
X582428Y751285D02*
X582428Y751285D01*
X578600Y752871D01*
X575671Y755800D01*
X574085Y759628D01*
X574085Y763772D01*
X575671Y767600D01*
X578600Y770529D01*
X582428Y772115D01*
X586572Y772115D01*
X590400Y770529D01*
X593329Y767600D01*
X594915Y763772D01*
X594915Y759628D01*
X593329Y755800D01*
X590400Y752871D01*
X586572Y751285D01*
X582428Y751285D01*
G37*
%LPD*%
%LPC*%
G36*
X156179Y444839D02*
X156179Y444839D01*
X152444Y446386D01*
X149586Y449244D01*
X148039Y452979D01*
X148039Y457021D01*
X149586Y460756D01*
X152444Y463614D01*
X156179Y465161D01*
X160221Y465161D01*
X163956Y463614D01*
X166814Y460756D01*
X168361Y457021D01*
X168361Y452979D01*
X166814Y449244D01*
X163956Y446386D01*
X160221Y444839D01*
X156179Y444839D01*
G37*
%LPD*%
%LPC*%
G36*
X181579Y470239D02*
X181579Y470239D01*
X177844Y471786D01*
X174986Y474644D01*
X173439Y478379D01*
X173439Y482421D01*
X174986Y486156D01*
X177844Y489014D01*
X181579Y490561D01*
X185621Y490561D01*
X189356Y489014D01*
X192214Y486156D01*
X193761Y482421D01*
X193761Y478379D01*
X192214Y474644D01*
X189356Y471786D01*
X185621Y470239D01*
X181579Y470239D01*
G37*
%LPD*%
%LPC*%
G36*
X181579Y495639D02*
X181579Y495639D01*
X177844Y497186D01*
X174986Y500044D01*
X173439Y503779D01*
X173439Y507821D01*
X174986Y511556D01*
X177844Y514414D01*
X181579Y515961D01*
X185621Y515961D01*
X189356Y514414D01*
X192214Y511556D01*
X193761Y507821D01*
X193761Y503779D01*
X192214Y500044D01*
X189356Y497186D01*
X185621Y495639D01*
X181579Y495639D01*
G37*
%LPD*%
%LPC*%
G36*
X156179Y470239D02*
X156179Y470239D01*
X152444Y471786D01*
X149586Y474644D01*
X148039Y478379D01*
X148039Y482421D01*
X149586Y486156D01*
X152444Y489014D01*
X156179Y490561D01*
X160221Y490561D01*
X163956Y489014D01*
X166814Y486156D01*
X168361Y482421D01*
X168361Y478379D01*
X166814Y474644D01*
X163956Y471786D01*
X160221Y470239D01*
X156179Y470239D01*
G37*
%LPD*%
%LPC*%
G36*
X156179Y495639D02*
X156179Y495639D01*
X152444Y497186D01*
X149586Y500044D01*
X148039Y503779D01*
X148039Y507821D01*
X149586Y511556D01*
X152444Y514414D01*
X156179Y515961D01*
X160221Y515961D01*
X163956Y514414D01*
X166814Y511556D01*
X168361Y507821D01*
X168361Y503779D01*
X166814Y500044D01*
X163956Y497186D01*
X160221Y495639D01*
X156179Y495639D01*
G37*
%LPD*%
%LPC*%
G36*
X205814Y538538D02*
X205814Y538538D01*
X203806Y539370D01*
X202270Y540906D01*
X201438Y542914D01*
X201438Y545086D01*
X202270Y547094D01*
X203806Y548630D01*
X205814Y549462D01*
X207986Y549462D01*
X209994Y548630D01*
X210844Y547780D01*
X210918Y547727D01*
X210988Y547667D01*
X211018Y547655D01*
X211044Y547636D01*
X211131Y547609D01*
X211216Y547575D01*
X211257Y547571D01*
X211279Y547564D01*
X211311Y547565D01*
X211383Y547557D01*
X230739Y547557D01*
X230854Y547576D01*
X230970Y547593D01*
X230975Y547595D01*
X230981Y547596D01*
X231084Y547651D01*
X231189Y547704D01*
X231193Y547709D01*
X231199Y547712D01*
X231279Y547796D01*
X231361Y547880D01*
X231365Y547886D01*
X231368Y547890D01*
X231376Y547907D01*
X231442Y548027D01*
X231470Y548094D01*
X233006Y549630D01*
X235014Y550462D01*
X237186Y550462D01*
X239194Y549630D01*
X240730Y548094D01*
X241562Y546086D01*
X241562Y543914D01*
X240730Y541906D01*
X239194Y540370D01*
X237186Y539538D01*
X235014Y539538D01*
X232969Y540385D01*
X232905Y540400D01*
X232844Y540425D01*
X232761Y540434D01*
X232729Y540441D01*
X232710Y540440D01*
X232677Y540443D01*
X211383Y540443D01*
X211293Y540429D01*
X211202Y540421D01*
X211172Y540409D01*
X211140Y540404D01*
X211059Y540361D01*
X210975Y540325D01*
X210943Y540299D01*
X210923Y540288D01*
X210900Y540265D01*
X210844Y540220D01*
X209994Y539370D01*
X207986Y538538D01*
X205814Y538538D01*
G37*
%LPD*%
%LPC*%
G36*
X427196Y465593D02*
X427196Y465593D01*
X421393Y471396D01*
X421393Y479604D01*
X427196Y485407D01*
X435404Y485407D01*
X441207Y479604D01*
X441207Y471396D01*
X435404Y465593D01*
X427196Y465593D01*
G37*
%LPD*%
%LPC*%
G36*
X497196Y465593D02*
X497196Y465593D01*
X491393Y471396D01*
X491393Y479604D01*
X497196Y485407D01*
X505404Y485407D01*
X511207Y479604D01*
X511207Y471396D01*
X505404Y465593D01*
X497196Y465593D01*
G37*
%LPD*%
%LPC*%
G36*
X403929Y465593D02*
X403929Y465593D01*
X400288Y467101D01*
X397501Y469888D01*
X395993Y473529D01*
X395993Y477471D01*
X397501Y481112D01*
X400288Y483899D01*
X403929Y485407D01*
X407871Y485407D01*
X411512Y483899D01*
X414299Y481112D01*
X415807Y477471D01*
X415807Y473529D01*
X414299Y469888D01*
X411512Y467101D01*
X407871Y465593D01*
X403929Y465593D01*
G37*
%LPD*%
%LPC*%
G36*
X124596Y837727D02*
X124596Y837727D01*
X121077Y839185D01*
X118385Y841877D01*
X116927Y845396D01*
X116927Y849204D01*
X118385Y852723D01*
X121077Y855415D01*
X124596Y856873D01*
X128404Y856873D01*
X131923Y855415D01*
X134615Y852723D01*
X136073Y849204D01*
X136073Y845396D01*
X134615Y841877D01*
X131923Y839185D01*
X128404Y837727D01*
X124596Y837727D01*
G37*
%LPD*%
%LPC*%
G36*
X124496Y665427D02*
X124496Y665427D01*
X120977Y666885D01*
X118285Y669577D01*
X116827Y673096D01*
X116827Y676904D01*
X118285Y680423D01*
X120977Y683115D01*
X124496Y684573D01*
X128304Y684573D01*
X131823Y683115D01*
X134515Y680423D01*
X135973Y676904D01*
X135973Y673096D01*
X134515Y669577D01*
X131823Y666885D01*
X128304Y665427D01*
X124496Y665427D01*
G37*
%LPD*%
%LPC*%
G36*
X678496Y307127D02*
X678496Y307127D01*
X674977Y308585D01*
X672285Y311277D01*
X670827Y314796D01*
X670827Y318604D01*
X672285Y322123D01*
X674977Y324815D01*
X678496Y326273D01*
X682304Y326273D01*
X685823Y324815D01*
X688515Y322123D01*
X689973Y318604D01*
X689973Y314796D01*
X688515Y311277D01*
X685823Y308585D01*
X682304Y307127D01*
X678496Y307127D01*
G37*
%LPD*%
%LPC*%
G36*
X124596Y812727D02*
X124596Y812727D01*
X121077Y814185D01*
X118385Y816877D01*
X116927Y820396D01*
X116927Y824204D01*
X118385Y827723D01*
X121077Y830415D01*
X124596Y831873D01*
X128404Y831873D01*
X131923Y830415D01*
X134615Y827723D01*
X136073Y824204D01*
X136073Y820396D01*
X134615Y816877D01*
X131923Y814185D01*
X128404Y812727D01*
X124596Y812727D01*
G37*
%LPD*%
%LPC*%
G36*
X678496Y281727D02*
X678496Y281727D01*
X674977Y283185D01*
X672285Y285877D01*
X670827Y289396D01*
X670827Y293204D01*
X672285Y296723D01*
X674977Y299415D01*
X678496Y300873D01*
X682304Y300873D01*
X685823Y299415D01*
X688515Y296723D01*
X689973Y293204D01*
X689973Y289396D01*
X688515Y285877D01*
X685823Y283185D01*
X682304Y281727D01*
X678496Y281727D01*
G37*
%LPD*%
%LPC*%
G36*
X678496Y256327D02*
X678496Y256327D01*
X674977Y257785D01*
X672285Y260477D01*
X670827Y263996D01*
X670827Y267804D01*
X672285Y271323D01*
X674977Y274015D01*
X678496Y275473D01*
X682304Y275473D01*
X685823Y274015D01*
X688515Y271323D01*
X689973Y267804D01*
X689973Y263996D01*
X688515Y260477D01*
X685823Y257785D01*
X682304Y256327D01*
X678496Y256327D01*
G37*
%LPD*%
%LPC*%
G36*
X124496Y690427D02*
X124496Y690427D01*
X120977Y691885D01*
X118285Y694577D01*
X116827Y698096D01*
X116827Y701904D01*
X118285Y705423D01*
X120977Y708115D01*
X124496Y709573D01*
X128304Y709573D01*
X131823Y708115D01*
X134515Y705423D01*
X135973Y701904D01*
X135973Y698096D01*
X134515Y694577D01*
X131823Y691885D01*
X128304Y690427D01*
X124496Y690427D01*
G37*
%LPD*%
%LPC*%
G36*
X328914Y274538D02*
X328914Y274538D01*
X326906Y275370D01*
X325370Y276906D01*
X324538Y278914D01*
X324538Y281086D01*
X325370Y283094D01*
X326906Y284630D01*
X328914Y285462D01*
X329797Y285462D01*
X329887Y285476D01*
X329978Y285484D01*
X330008Y285496D01*
X330040Y285501D01*
X330120Y285544D01*
X330204Y285580D01*
X330236Y285606D01*
X330257Y285617D01*
X330279Y285640D01*
X330335Y285685D01*
X340015Y295365D01*
X340068Y295439D01*
X340128Y295508D01*
X340140Y295538D01*
X340159Y295565D01*
X340186Y295652D01*
X340220Y295736D01*
X340224Y295777D01*
X340231Y295800D01*
X340230Y295832D01*
X340238Y295903D01*
X340238Y296786D01*
X341070Y298794D01*
X342606Y300330D01*
X344614Y301162D01*
X346786Y301162D01*
X348794Y300330D01*
X350330Y298794D01*
X351162Y296786D01*
X351162Y294614D01*
X350330Y292606D01*
X348794Y291070D01*
X346786Y290238D01*
X345903Y290238D01*
X345813Y290224D01*
X345722Y290216D01*
X345692Y290204D01*
X345660Y290199D01*
X345580Y290156D01*
X345496Y290120D01*
X345464Y290094D01*
X345443Y290083D01*
X345421Y290060D01*
X345365Y290015D01*
X335685Y280335D01*
X335632Y280261D01*
X335572Y280192D01*
X335560Y280162D01*
X335541Y280135D01*
X335514Y280048D01*
X335480Y279964D01*
X335476Y279923D01*
X335469Y279900D01*
X335470Y279868D01*
X335462Y279797D01*
X335462Y278914D01*
X334630Y276906D01*
X333094Y275370D01*
X331086Y274538D01*
X328914Y274538D01*
G37*
%LPD*%
%LPC*%
G36*
X347514Y312338D02*
X347514Y312338D01*
X345506Y313170D01*
X343970Y314706D01*
X343138Y316714D01*
X343138Y318886D01*
X343970Y320894D01*
X345506Y322430D01*
X347514Y323262D01*
X349686Y323262D01*
X351694Y322430D01*
X353230Y320894D01*
X354062Y318886D01*
X354062Y316714D01*
X353230Y314706D01*
X351694Y313170D01*
X349686Y312338D01*
X347514Y312338D01*
G37*
%LPD*%
%LPC*%
G36*
X450323Y773223D02*
X450323Y773223D01*
X450323Y783893D01*
X453850Y783893D01*
X460993Y776750D01*
X460993Y773223D01*
X450323Y773223D01*
G37*
%LPD*%
%LPC*%
G36*
X450323Y759507D02*
X450323Y759507D01*
X450323Y770177D01*
X460993Y770177D01*
X460993Y766650D01*
X453850Y759507D01*
X450323Y759507D01*
G37*
%LPD*%
%LPC*%
G36*
X436607Y773223D02*
X436607Y773223D01*
X436607Y776750D01*
X443750Y783893D01*
X447277Y783893D01*
X447277Y773223D01*
X436607Y773223D01*
G37*
%LPD*%
%LPC*%
G36*
X443750Y759507D02*
X443750Y759507D01*
X436607Y766650D01*
X436607Y770177D01*
X447277Y770177D01*
X447277Y759507D01*
X443750Y759507D01*
G37*
%LPD*%
%LPC*%
G36*
X661933Y749609D02*
X661933Y749609D01*
X659009Y752533D01*
X659009Y756667D01*
X661933Y759591D01*
X666067Y759591D01*
X668991Y756667D01*
X668991Y752533D01*
X666067Y749609D01*
X661933Y749609D01*
G37*
%LPD*%
%LPC*%
G36*
X661933Y789609D02*
X661933Y789609D01*
X659009Y792533D01*
X659009Y796667D01*
X661933Y799591D01*
X666067Y799591D01*
X668991Y796667D01*
X668991Y792533D01*
X666067Y789609D01*
X661933Y789609D01*
G37*
%LPD*%
%LPC*%
G36*
X681923Y343623D02*
X681923Y343623D01*
X681923Y352181D01*
X688274Y352181D01*
X688921Y352008D01*
X689500Y351673D01*
X689973Y351200D01*
X690308Y350621D01*
X690481Y349974D01*
X690481Y343623D01*
X681923Y343623D01*
G37*
%LPD*%
%LPC*%
G36*
X681923Y332019D02*
X681923Y332019D01*
X681923Y340577D01*
X690481Y340577D01*
X690481Y334226D01*
X690308Y333579D01*
X689973Y333000D01*
X689500Y332527D01*
X688921Y332192D01*
X688274Y332019D01*
X681923Y332019D01*
G37*
%LPD*%
%LPC*%
G36*
X670319Y343623D02*
X670319Y343623D01*
X670319Y349974D01*
X670492Y350621D01*
X670827Y351200D01*
X671300Y351673D01*
X671879Y352008D01*
X672526Y352181D01*
X678877Y352181D01*
X678877Y343623D01*
X670319Y343623D01*
G37*
%LPD*%
%LPC*%
G36*
X672526Y332019D02*
X672526Y332019D01*
X671879Y332192D01*
X671300Y332527D01*
X670827Y333000D01*
X670492Y333579D01*
X670319Y334226D01*
X670319Y340577D01*
X678877Y340577D01*
X678877Y332019D01*
X672526Y332019D01*
G37*
%LPD*%
%LPC*%
G36*
X554923Y762323D02*
X554923Y762323D01*
X554923Y771618D01*
X555958Y771454D01*
X557593Y770922D01*
X559125Y770142D01*
X560516Y769131D01*
X561731Y767916D01*
X562742Y766525D01*
X563522Y764993D01*
X564054Y763358D01*
X564218Y762323D01*
X554923Y762323D01*
G37*
%LPD*%
%LPC*%
G36*
X554923Y759277D02*
X554923Y759277D01*
X564218Y759277D01*
X564054Y758242D01*
X563522Y756607D01*
X562742Y755075D01*
X561731Y753684D01*
X560516Y752469D01*
X559125Y751458D01*
X557593Y750678D01*
X555958Y750146D01*
X554923Y749982D01*
X554923Y759277D01*
G37*
%LPD*%
%LPC*%
G36*
X542582Y762323D02*
X542582Y762323D01*
X542746Y763358D01*
X543278Y764993D01*
X544058Y766525D01*
X545069Y767916D01*
X546284Y769131D01*
X547675Y770142D01*
X549207Y770922D01*
X550842Y771454D01*
X551877Y771618D01*
X551877Y762323D01*
X542582Y762323D01*
G37*
%LPD*%
%LPC*%
G36*
X550842Y750146D02*
X550842Y750146D01*
X549207Y750678D01*
X547675Y751458D01*
X546284Y752469D01*
X545069Y753684D01*
X544058Y755075D01*
X543278Y756607D01*
X542746Y758242D01*
X542582Y759277D01*
X551877Y759277D01*
X551877Y749982D01*
X550842Y750146D01*
G37*
%LPD*%
%LPC*%
G36*
X185123Y456523D02*
X185123Y456523D01*
X185123Y465560D01*
X186098Y465406D01*
X187695Y464887D01*
X189192Y464125D01*
X190550Y463138D01*
X191738Y461950D01*
X192725Y460592D01*
X193487Y459095D01*
X194006Y457498D01*
X194160Y456523D01*
X185123Y456523D01*
G37*
%LPD*%
%LPC*%
G36*
X173040Y456523D02*
X173040Y456523D01*
X173194Y457498D01*
X173713Y459095D01*
X174475Y460592D01*
X175462Y461950D01*
X176650Y463138D01*
X178008Y464125D01*
X179505Y464887D01*
X181102Y465406D01*
X182077Y465560D01*
X182077Y456523D01*
X173040Y456523D01*
G37*
%LPD*%
%LPC*%
G36*
X185123Y453477D02*
X185123Y453477D01*
X194160Y453477D01*
X194006Y452502D01*
X193487Y450905D01*
X192725Y449408D01*
X191738Y448050D01*
X190550Y446862D01*
X189192Y445875D01*
X187695Y445113D01*
X186098Y444594D01*
X185123Y444440D01*
X185123Y453477D01*
G37*
%LPD*%
%LPC*%
G36*
X181102Y444594D02*
X181102Y444594D01*
X179505Y445113D01*
X178008Y445875D01*
X176650Y446862D01*
X175462Y448050D01*
X174475Y449408D01*
X173713Y450905D01*
X173194Y452502D01*
X173040Y453477D01*
X182077Y453477D01*
X182077Y444440D01*
X181102Y444594D01*
G37*
%LPD*%
%LPC*%
G36*
X477423Y477023D02*
X477423Y477023D01*
X477423Y485803D01*
X478339Y485658D01*
X479898Y485152D01*
X481359Y484407D01*
X482685Y483444D01*
X483844Y482285D01*
X484807Y480959D01*
X485552Y479498D01*
X486058Y477939D01*
X486203Y477023D01*
X477423Y477023D01*
G37*
%LPD*%
%LPC*%
G36*
X477423Y473977D02*
X477423Y473977D01*
X486203Y473977D01*
X486058Y473061D01*
X485552Y471502D01*
X484807Y470041D01*
X483844Y468715D01*
X482685Y467556D01*
X481359Y466593D01*
X479898Y465848D01*
X478339Y465342D01*
X477423Y465197D01*
X477423Y473977D01*
G37*
%LPD*%
%LPC*%
G36*
X465597Y477023D02*
X465597Y477023D01*
X465742Y477939D01*
X466248Y479498D01*
X466993Y480959D01*
X467956Y482285D01*
X469115Y483444D01*
X470441Y484407D01*
X471902Y485152D01*
X473461Y485658D01*
X474377Y485803D01*
X474377Y477023D01*
X465597Y477023D01*
G37*
%LPD*%
%LPC*%
G36*
X473461Y465342D02*
X473461Y465342D01*
X471902Y465848D01*
X470441Y466593D01*
X469115Y467556D01*
X467956Y468715D01*
X466993Y470041D01*
X466248Y471502D01*
X465742Y473061D01*
X465597Y473977D01*
X474377Y473977D01*
X474377Y465197D01*
X473461Y465342D01*
G37*
%LPD*%
%LPC*%
G36*
X127923Y651523D02*
X127923Y651523D01*
X127923Y659965D01*
X128761Y659833D01*
X130270Y659342D01*
X131683Y658622D01*
X132967Y657689D01*
X134089Y656567D01*
X135022Y655283D01*
X135742Y653870D01*
X136233Y652361D01*
X136365Y651523D01*
X127923Y651523D01*
G37*
%LPD*%
%LPC*%
G36*
X128023Y798823D02*
X128023Y798823D01*
X128023Y807265D01*
X128861Y807133D01*
X130370Y806642D01*
X131783Y805922D01*
X133067Y804989D01*
X134189Y803867D01*
X135122Y802583D01*
X135842Y801170D01*
X136333Y799661D01*
X136465Y798823D01*
X128023Y798823D01*
G37*
%LPD*%
%LPC*%
G36*
X128023Y795777D02*
X128023Y795777D01*
X136465Y795777D01*
X136333Y794939D01*
X135842Y793430D01*
X135122Y792017D01*
X134189Y790733D01*
X133067Y789611D01*
X131783Y788678D01*
X130370Y787958D01*
X128861Y787467D01*
X128023Y787335D01*
X128023Y795777D01*
G37*
%LPD*%
%LPC*%
G36*
X127923Y648477D02*
X127923Y648477D01*
X136365Y648477D01*
X136233Y647639D01*
X135742Y646130D01*
X135022Y644717D01*
X134089Y643433D01*
X132967Y642311D01*
X131683Y641378D01*
X130270Y640658D01*
X128761Y640167D01*
X127923Y640035D01*
X127923Y648477D01*
G37*
%LPD*%
%LPC*%
G36*
X116535Y798823D02*
X116535Y798823D01*
X116667Y799661D01*
X117158Y801170D01*
X117878Y802583D01*
X118811Y803867D01*
X119933Y804989D01*
X121217Y805922D01*
X122630Y806642D01*
X124139Y807133D01*
X124977Y807265D01*
X124977Y798823D01*
X116535Y798823D01*
G37*
%LPD*%
%LPC*%
G36*
X116435Y651523D02*
X116435Y651523D01*
X116567Y652361D01*
X117058Y653870D01*
X117778Y655283D01*
X118711Y656567D01*
X119833Y657689D01*
X121117Y658622D01*
X122530Y659342D01*
X124039Y659833D01*
X124877Y659965D01*
X124877Y651523D01*
X116435Y651523D01*
G37*
%LPD*%
%LPC*%
G36*
X124139Y787467D02*
X124139Y787467D01*
X122630Y787958D01*
X121217Y788678D01*
X119933Y789611D01*
X118811Y790733D01*
X117878Y792017D01*
X117158Y793430D01*
X116667Y794939D01*
X116535Y795777D01*
X124977Y795777D01*
X124977Y787335D01*
X124139Y787467D01*
G37*
%LPD*%
%LPC*%
G36*
X124039Y640167D02*
X124039Y640167D01*
X122530Y640658D01*
X121117Y641378D01*
X119833Y642311D01*
X118711Y643433D01*
X117778Y644717D01*
X117058Y646130D01*
X116567Y647639D01*
X116435Y648477D01*
X124877Y648477D01*
X124877Y640035D01*
X124039Y640167D01*
G37*
%LPD*%
%LPC*%
G36*
X227152Y576352D02*
X227152Y576352D01*
X227152Y581297D01*
X227941Y581140D01*
X229028Y580690D01*
X230006Y580037D01*
X230837Y579206D01*
X231490Y578228D01*
X231940Y577141D01*
X232097Y576352D01*
X227152Y576352D01*
G37*
%LPD*%
%LPC*%
G36*
X640952Y810952D02*
X640952Y810952D01*
X640952Y815897D01*
X641741Y815740D01*
X642828Y815290D01*
X643806Y814637D01*
X644637Y813806D01*
X645290Y812828D01*
X645740Y811741D01*
X645897Y810952D01*
X640952Y810952D01*
G37*
%LPD*%
%LPC*%
G36*
X327052Y635352D02*
X327052Y635352D01*
X327052Y640297D01*
X327841Y640140D01*
X328928Y639690D01*
X329906Y639037D01*
X330737Y638206D01*
X331390Y637228D01*
X331840Y636141D01*
X331997Y635352D01*
X327052Y635352D01*
G37*
%LPD*%
%LPC*%
G36*
X683252Y790552D02*
X683252Y790552D01*
X683252Y795497D01*
X684041Y795340D01*
X685128Y794890D01*
X686106Y794237D01*
X686937Y793406D01*
X687590Y792428D01*
X688040Y791341D01*
X688197Y790552D01*
X683252Y790552D01*
G37*
%LPD*%
%LPC*%
G36*
X610952Y788352D02*
X610952Y788352D01*
X610952Y793297D01*
X611741Y793140D01*
X612828Y792690D01*
X613806Y792037D01*
X614637Y791206D01*
X615290Y790228D01*
X615740Y789141D01*
X615897Y788352D01*
X610952Y788352D01*
G37*
%LPD*%
%LPC*%
G36*
X617052Y624652D02*
X617052Y624652D01*
X617052Y629597D01*
X617841Y629440D01*
X618928Y628990D01*
X619906Y628337D01*
X620737Y627506D01*
X621390Y626528D01*
X621840Y625441D01*
X621997Y624652D01*
X617052Y624652D01*
G37*
%LPD*%
%LPC*%
G36*
X345852Y676052D02*
X345852Y676052D01*
X345852Y680997D01*
X346641Y680840D01*
X347728Y680390D01*
X348706Y679737D01*
X349537Y678906D01*
X350190Y677928D01*
X350640Y676841D01*
X350797Y676052D01*
X345852Y676052D01*
G37*
%LPD*%
%LPC*%
G36*
X670952Y830952D02*
X670952Y830952D01*
X670952Y835897D01*
X671741Y835740D01*
X672828Y835290D01*
X673806Y834637D01*
X674637Y833806D01*
X675290Y832828D01*
X675740Y831741D01*
X675897Y830952D01*
X670952Y830952D01*
G37*
%LPD*%
%LPC*%
G36*
X109952Y435852D02*
X109952Y435852D01*
X109952Y440797D01*
X110741Y440640D01*
X111828Y440190D01*
X112806Y439537D01*
X113637Y438706D01*
X114290Y437728D01*
X114740Y436641D01*
X114897Y435852D01*
X109952Y435852D01*
G37*
%LPD*%
%LPC*%
G36*
X305752Y421152D02*
X305752Y421152D01*
X305752Y426097D01*
X306541Y425940D01*
X307628Y425490D01*
X308606Y424837D01*
X309437Y424006D01*
X310090Y423028D01*
X310540Y421941D01*
X310697Y421152D01*
X305752Y421152D01*
G37*
%LPD*%
%LPC*%
G36*
X495052Y528452D02*
X495052Y528452D01*
X495052Y533397D01*
X495841Y533240D01*
X496928Y532790D01*
X497906Y532137D01*
X498737Y531306D01*
X499390Y530328D01*
X499840Y529241D01*
X499997Y528452D01*
X495052Y528452D01*
G37*
%LPD*%
%LPC*%
G36*
X250952Y690952D02*
X250952Y690952D01*
X250952Y695897D01*
X251741Y695740D01*
X252828Y695290D01*
X253806Y694637D01*
X254637Y693806D01*
X255290Y692828D01*
X255740Y691741D01*
X255897Y690952D01*
X250952Y690952D01*
G37*
%LPD*%
%LPC*%
G36*
X181152Y566252D02*
X181152Y566252D01*
X181152Y571197D01*
X181941Y571040D01*
X183028Y570590D01*
X184006Y569937D01*
X184837Y569106D01*
X185490Y568128D01*
X185940Y567041D01*
X186097Y566252D01*
X181152Y566252D01*
G37*
%LPD*%
%LPC*%
G36*
X297452Y636652D02*
X297452Y636652D01*
X297452Y641597D01*
X298241Y641440D01*
X299328Y640990D01*
X300306Y640337D01*
X301137Y639506D01*
X301790Y638528D01*
X302240Y637441D01*
X302397Y636652D01*
X297452Y636652D01*
G37*
%LPD*%
%LPC*%
G36*
X110152Y564252D02*
X110152Y564252D01*
X110152Y569197D01*
X110941Y569040D01*
X112028Y568590D01*
X113006Y567937D01*
X113837Y567106D01*
X114490Y566128D01*
X114940Y565041D01*
X115097Y564252D01*
X110152Y564252D01*
G37*
%LPD*%
%LPC*%
G36*
X683052Y760852D02*
X683052Y760852D01*
X683052Y765797D01*
X683841Y765640D01*
X684928Y765190D01*
X685906Y764537D01*
X686737Y763706D01*
X687390Y762728D01*
X687840Y761641D01*
X687997Y760852D01*
X683052Y760852D01*
G37*
%LPD*%
%LPC*%
G36*
X686852Y707252D02*
X686852Y707252D01*
X686852Y712197D01*
X687641Y712040D01*
X688728Y711590D01*
X689706Y710937D01*
X690537Y710106D01*
X691190Y709128D01*
X691640Y708041D01*
X691797Y707252D01*
X686852Y707252D01*
G37*
%LPD*%
%LPC*%
G36*
X371352Y558052D02*
X371352Y558052D01*
X371352Y562997D01*
X372141Y562840D01*
X373228Y562390D01*
X374206Y561737D01*
X375037Y560906D01*
X375690Y559928D01*
X376140Y558841D01*
X376297Y558052D01*
X371352Y558052D01*
G37*
%LPD*%
%LPC*%
G36*
X340952Y590952D02*
X340952Y590952D01*
X340952Y595897D01*
X341741Y595740D01*
X342828Y595290D01*
X343806Y594637D01*
X344637Y593806D01*
X345290Y592828D01*
X345740Y591741D01*
X345897Y590952D01*
X340952Y590952D01*
G37*
%LPD*%
%LPC*%
G36*
X642652Y741252D02*
X642652Y741252D01*
X642652Y746197D01*
X643441Y746040D01*
X644528Y745590D01*
X645506Y744937D01*
X646337Y744106D01*
X646990Y743128D01*
X647440Y742041D01*
X647597Y741252D01*
X642652Y741252D01*
G37*
%LPD*%
%LPC*%
G36*
X494352Y717252D02*
X494352Y717252D01*
X494352Y722197D01*
X495141Y722040D01*
X496228Y721590D01*
X497206Y720937D01*
X498037Y720106D01*
X498690Y719128D01*
X499140Y718041D01*
X499297Y717252D01*
X494352Y717252D01*
G37*
%LPD*%
%LPC*%
G36*
X108652Y317452D02*
X108652Y317452D01*
X108652Y322397D01*
X109441Y322240D01*
X110528Y321790D01*
X111506Y321137D01*
X112337Y320306D01*
X112990Y319328D01*
X113440Y318241D01*
X113597Y317452D01*
X108652Y317452D01*
G37*
%LPD*%
%LPC*%
G36*
X224452Y511752D02*
X224452Y511752D01*
X224452Y516697D01*
X225241Y516540D01*
X226328Y516090D01*
X227306Y515437D01*
X228137Y514606D01*
X228790Y513628D01*
X229240Y512541D01*
X229397Y511752D01*
X224452Y511752D01*
G37*
%LPD*%
%LPC*%
G36*
X470352Y706552D02*
X470352Y706552D01*
X470352Y711497D01*
X471141Y711340D01*
X472228Y710890D01*
X473206Y710237D01*
X474037Y709406D01*
X474690Y708428D01*
X475140Y707341D01*
X475297Y706552D01*
X470352Y706552D01*
G37*
%LPD*%
%LPC*%
G36*
X106552Y196252D02*
X106552Y196252D01*
X106552Y201197D01*
X107341Y201040D01*
X108428Y200590D01*
X109406Y199937D01*
X110237Y199106D01*
X110890Y198128D01*
X111340Y197041D01*
X111497Y196252D01*
X106552Y196252D01*
G37*
%LPD*%
%LPC*%
G36*
X352352Y575752D02*
X352352Y575752D01*
X352352Y580697D01*
X353141Y580540D01*
X354228Y580090D01*
X355206Y579437D01*
X356037Y578606D01*
X356690Y577628D01*
X357140Y576541D01*
X357297Y575752D01*
X352352Y575752D01*
G37*
%LPD*%
%LPC*%
G36*
X207352Y225452D02*
X207352Y225452D01*
X207352Y230397D01*
X208141Y230240D01*
X209228Y229790D01*
X210206Y229137D01*
X211037Y228306D01*
X211690Y227328D01*
X212140Y226241D01*
X212297Y225452D01*
X207352Y225452D01*
G37*
%LPD*%
%LPC*%
G36*
X352352Y573848D02*
X352352Y573848D01*
X357297Y573848D01*
X357140Y573059D01*
X356690Y571972D01*
X356037Y570994D01*
X355206Y570163D01*
X354228Y569510D01*
X353141Y569060D01*
X352352Y568903D01*
X352352Y573848D01*
G37*
%LPD*%
%LPC*%
G36*
X174303Y566252D02*
X174303Y566252D01*
X174460Y567041D01*
X174910Y568128D01*
X175563Y569106D01*
X176394Y569937D01*
X177372Y570590D01*
X178459Y571040D01*
X179248Y571197D01*
X179248Y566252D01*
X174303Y566252D01*
G37*
%LPD*%
%LPC*%
G36*
X103303Y564252D02*
X103303Y564252D01*
X103460Y565041D01*
X103910Y566128D01*
X104563Y567106D01*
X105394Y567937D01*
X106372Y568590D01*
X107459Y569040D01*
X108248Y569197D01*
X108248Y564252D01*
X103303Y564252D01*
G37*
%LPD*%
%LPC*%
G36*
X181152Y564348D02*
X181152Y564348D01*
X186097Y564348D01*
X185940Y563559D01*
X185490Y562472D01*
X184837Y561494D01*
X184006Y560663D01*
X183028Y560010D01*
X181941Y559560D01*
X181152Y559403D01*
X181152Y564348D01*
G37*
%LPD*%
%LPC*%
G36*
X364503Y558052D02*
X364503Y558052D01*
X364660Y558841D01*
X365110Y559928D01*
X365763Y560906D01*
X366594Y561737D01*
X367572Y562390D01*
X368659Y562840D01*
X369448Y562997D01*
X369448Y558052D01*
X364503Y558052D01*
G37*
%LPD*%
%LPC*%
G36*
X110152Y562348D02*
X110152Y562348D01*
X115097Y562348D01*
X114940Y561559D01*
X114490Y560472D01*
X113837Y559494D01*
X113006Y558663D01*
X112028Y558010D01*
X110941Y557560D01*
X110152Y557403D01*
X110152Y562348D01*
G37*
%LPD*%
%LPC*%
G36*
X371352Y556148D02*
X371352Y556148D01*
X376297Y556148D01*
X376140Y555359D01*
X375690Y554272D01*
X375037Y553294D01*
X374206Y552463D01*
X373228Y551810D01*
X372141Y551360D01*
X371352Y551203D01*
X371352Y556148D01*
G37*
%LPD*%
%LPC*%
G36*
X226852Y555348D02*
X226852Y555348D01*
X231797Y555348D01*
X231640Y554559D01*
X231190Y553472D01*
X230537Y552494D01*
X229706Y551663D01*
X228728Y551010D01*
X227641Y550560D01*
X226852Y550403D01*
X226852Y555348D01*
G37*
%LPD*%
%LPC*%
G36*
X193752Y549448D02*
X193752Y549448D01*
X198697Y549448D01*
X198540Y548659D01*
X198090Y547572D01*
X197437Y546594D01*
X196606Y545763D01*
X195628Y545110D01*
X194541Y544660D01*
X193752Y544503D01*
X193752Y549448D01*
G37*
%LPD*%
%LPC*%
G36*
X488203Y528452D02*
X488203Y528452D01*
X488360Y529241D01*
X488810Y530328D01*
X489463Y531306D01*
X490294Y532137D01*
X491272Y532790D01*
X492359Y533240D01*
X493148Y533397D01*
X493148Y528452D01*
X488203Y528452D01*
G37*
%LPD*%
%LPC*%
G36*
X495052Y526548D02*
X495052Y526548D01*
X499997Y526548D01*
X499840Y525759D01*
X499390Y524672D01*
X498737Y523694D01*
X497906Y522863D01*
X496928Y522210D01*
X495841Y521760D01*
X495052Y521603D01*
X495052Y526548D01*
G37*
%LPD*%
%LPC*%
G36*
X217603Y511752D02*
X217603Y511752D01*
X217760Y512541D01*
X218210Y513628D01*
X218863Y514606D01*
X219694Y515437D01*
X220672Y516090D01*
X221759Y516540D01*
X222548Y516697D01*
X222548Y511752D01*
X217603Y511752D01*
G37*
%LPD*%
%LPC*%
G36*
X224452Y509848D02*
X224452Y509848D01*
X229397Y509848D01*
X229240Y509059D01*
X228790Y507972D01*
X228137Y506994D01*
X227306Y506163D01*
X226328Y505510D01*
X225241Y505060D01*
X224452Y504903D01*
X224452Y509848D01*
G37*
%LPD*%
%LPC*%
G36*
X664103Y830952D02*
X664103Y830952D01*
X664260Y831741D01*
X664710Y832828D01*
X665363Y833806D01*
X666194Y834637D01*
X667172Y835290D01*
X668259Y835740D01*
X669048Y835897D01*
X669048Y830952D01*
X664103Y830952D01*
G37*
%LPD*%
%LPC*%
G36*
X670952Y829048D02*
X670952Y829048D01*
X675897Y829048D01*
X675740Y828259D01*
X675290Y827172D01*
X674637Y826194D01*
X673806Y825363D01*
X672828Y824710D01*
X671741Y824260D01*
X670952Y824103D01*
X670952Y829048D01*
G37*
%LPD*%
%LPC*%
G36*
X634103Y810952D02*
X634103Y810952D01*
X634260Y811741D01*
X634710Y812828D01*
X635363Y813806D01*
X636194Y814637D01*
X637172Y815290D01*
X638259Y815740D01*
X639048Y815897D01*
X639048Y810952D01*
X634103Y810952D01*
G37*
%LPD*%
%LPC*%
G36*
X640952Y809048D02*
X640952Y809048D01*
X645897Y809048D01*
X645740Y808259D01*
X645290Y807172D01*
X644637Y806194D01*
X643806Y805363D01*
X642828Y804710D01*
X641741Y804260D01*
X640952Y804103D01*
X640952Y809048D01*
G37*
%LPD*%
%LPC*%
G36*
X676403Y790552D02*
X676403Y790552D01*
X676560Y791341D01*
X677010Y792428D01*
X677663Y793406D01*
X678494Y794237D01*
X679472Y794890D01*
X680559Y795340D01*
X681348Y795497D01*
X681348Y790552D01*
X676403Y790552D01*
G37*
%LPD*%
%LPC*%
G36*
X683252Y788648D02*
X683252Y788648D01*
X688197Y788648D01*
X688040Y787859D01*
X687590Y786772D01*
X686937Y785794D01*
X686106Y784963D01*
X685128Y784310D01*
X684041Y783860D01*
X683252Y783703D01*
X683252Y788648D01*
G37*
%LPD*%
%LPC*%
G36*
X610952Y786448D02*
X610952Y786448D01*
X615897Y786448D01*
X615740Y785659D01*
X615290Y784572D01*
X614637Y783594D01*
X613806Y782763D01*
X612828Y782110D01*
X611741Y781660D01*
X610952Y781503D01*
X610952Y786448D01*
G37*
%LPD*%
%LPC*%
G36*
X676203Y760852D02*
X676203Y760852D01*
X676360Y761641D01*
X676810Y762728D01*
X677463Y763706D01*
X678294Y764537D01*
X679272Y765190D01*
X680359Y765640D01*
X681148Y765797D01*
X681148Y760852D01*
X676203Y760852D01*
G37*
%LPD*%
%LPC*%
G36*
X683052Y758948D02*
X683052Y758948D01*
X687997Y758948D01*
X687840Y758159D01*
X687390Y757072D01*
X686737Y756094D01*
X685906Y755263D01*
X684928Y754610D01*
X683841Y754160D01*
X683052Y754003D01*
X683052Y758948D01*
G37*
%LPD*%
%LPC*%
G36*
X635803Y741252D02*
X635803Y741252D01*
X635960Y742041D01*
X636410Y743128D01*
X637063Y744106D01*
X637894Y744937D01*
X638872Y745590D01*
X639959Y746040D01*
X640748Y746197D01*
X640748Y741252D01*
X635803Y741252D01*
G37*
%LPD*%
%LPC*%
G36*
X642652Y739348D02*
X642652Y739348D01*
X647597Y739348D01*
X647440Y738559D01*
X646990Y737472D01*
X646337Y736494D01*
X645506Y735663D01*
X644528Y735010D01*
X643441Y734560D01*
X642652Y734403D01*
X642652Y739348D01*
G37*
%LPD*%
%LPC*%
G36*
X487503Y717252D02*
X487503Y717252D01*
X487660Y718041D01*
X488110Y719128D01*
X488763Y720106D01*
X489594Y720937D01*
X490572Y721590D01*
X491659Y722040D01*
X492448Y722197D01*
X492448Y717252D01*
X487503Y717252D01*
G37*
%LPD*%
%LPC*%
G36*
X494352Y715348D02*
X494352Y715348D01*
X499297Y715348D01*
X499140Y714559D01*
X498690Y713472D01*
X498037Y712494D01*
X497206Y711663D01*
X496228Y711010D01*
X495141Y710560D01*
X494352Y710403D01*
X494352Y715348D01*
G37*
%LPD*%
%LPC*%
G36*
X103103Y435852D02*
X103103Y435852D01*
X103260Y436641D01*
X103710Y437728D01*
X104363Y438706D01*
X105194Y439537D01*
X106172Y440190D01*
X107259Y440640D01*
X108048Y440797D01*
X108048Y435852D01*
X103103Y435852D01*
G37*
%LPD*%
%LPC*%
G36*
X109952Y433948D02*
X109952Y433948D01*
X114897Y433948D01*
X114740Y433159D01*
X114290Y432072D01*
X113637Y431094D01*
X112806Y430263D01*
X111828Y429610D01*
X110741Y429160D01*
X109952Y429003D01*
X109952Y433948D01*
G37*
%LPD*%
%LPC*%
G36*
X680003Y707252D02*
X680003Y707252D01*
X680160Y708041D01*
X680610Y709128D01*
X681263Y710106D01*
X682094Y710937D01*
X683072Y711590D01*
X684159Y712040D01*
X684948Y712197D01*
X684948Y707252D01*
X680003Y707252D01*
G37*
%LPD*%
%LPC*%
G36*
X298903Y421152D02*
X298903Y421152D01*
X299060Y421941D01*
X299510Y423028D01*
X300163Y424006D01*
X300994Y424837D01*
X301972Y425490D01*
X303059Y425940D01*
X303848Y426097D01*
X303848Y421152D01*
X298903Y421152D01*
G37*
%LPD*%
%LPC*%
G36*
X463503Y706552D02*
X463503Y706552D01*
X463660Y707341D01*
X464110Y708428D01*
X464763Y709406D01*
X465594Y710237D01*
X466572Y710890D01*
X467659Y711340D01*
X468448Y711497D01*
X468448Y706552D01*
X463503Y706552D01*
G37*
%LPD*%
%LPC*%
G36*
X686852Y705348D02*
X686852Y705348D01*
X691797Y705348D01*
X691640Y704559D01*
X691190Y703472D01*
X690537Y702494D01*
X689706Y701663D01*
X688728Y701010D01*
X687641Y700560D01*
X686852Y700403D01*
X686852Y705348D01*
G37*
%LPD*%
%LPC*%
G36*
X305752Y419248D02*
X305752Y419248D01*
X310697Y419248D01*
X310540Y418459D01*
X310090Y417372D01*
X309437Y416394D01*
X308606Y415563D01*
X307628Y414910D01*
X306541Y414460D01*
X305752Y414303D01*
X305752Y419248D01*
G37*
%LPD*%
%LPC*%
G36*
X470352Y704648D02*
X470352Y704648D01*
X475297Y704648D01*
X475140Y703859D01*
X474690Y702772D01*
X474037Y701794D01*
X473206Y700963D01*
X472228Y700310D01*
X471141Y699860D01*
X470352Y699703D01*
X470352Y704648D01*
G37*
%LPD*%
%LPC*%
G36*
X244103Y690952D02*
X244103Y690952D01*
X244260Y691741D01*
X244710Y692828D01*
X245363Y693806D01*
X246194Y694637D01*
X247172Y695290D01*
X248259Y695740D01*
X249048Y695897D01*
X249048Y690952D01*
X244103Y690952D01*
G37*
%LPD*%
%LPC*%
G36*
X250952Y689048D02*
X250952Y689048D01*
X255897Y689048D01*
X255740Y688259D01*
X255290Y687172D01*
X254637Y686194D01*
X253806Y685363D01*
X252828Y684710D01*
X251741Y684260D01*
X250952Y684103D01*
X250952Y689048D01*
G37*
%LPD*%
%LPC*%
G36*
X610203Y624652D02*
X610203Y624652D01*
X610360Y625441D01*
X610810Y626528D01*
X611463Y627506D01*
X612294Y628337D01*
X613272Y628990D01*
X614359Y629440D01*
X615148Y629597D01*
X615148Y624652D01*
X610203Y624652D01*
G37*
%LPD*%
%LPC*%
G36*
X339003Y676052D02*
X339003Y676052D01*
X339160Y676841D01*
X339610Y677928D01*
X340263Y678906D01*
X341094Y679737D01*
X342072Y680390D01*
X343159Y680840D01*
X343948Y680997D01*
X343948Y676052D01*
X339003Y676052D01*
G37*
%LPD*%
%LPC*%
G36*
X345852Y674148D02*
X345852Y674148D01*
X350797Y674148D01*
X350640Y673359D01*
X350190Y672272D01*
X349537Y671294D01*
X348706Y670463D01*
X347728Y669810D01*
X346641Y669360D01*
X345852Y669203D01*
X345852Y674148D01*
G37*
%LPD*%
%LPC*%
G36*
X101803Y317452D02*
X101803Y317452D01*
X101960Y318241D01*
X102410Y319328D01*
X103063Y320306D01*
X103894Y321137D01*
X104872Y321790D01*
X105959Y322240D01*
X106748Y322397D01*
X106748Y317452D01*
X101803Y317452D01*
G37*
%LPD*%
%LPC*%
G36*
X108652Y315548D02*
X108652Y315548D01*
X113597Y315548D01*
X113440Y314759D01*
X112990Y313672D01*
X112337Y312694D01*
X111506Y311863D01*
X110528Y311210D01*
X109441Y310760D01*
X108652Y310603D01*
X108652Y315548D01*
G37*
%LPD*%
%LPC*%
G36*
X290603Y636652D02*
X290603Y636652D01*
X290760Y637441D01*
X291210Y638528D01*
X291863Y639506D01*
X292694Y640337D01*
X293672Y640990D01*
X294759Y641440D01*
X295548Y641597D01*
X295548Y636652D01*
X290603Y636652D01*
G37*
%LPD*%
%LPC*%
G36*
X320203Y635352D02*
X320203Y635352D01*
X320360Y636141D01*
X320810Y637228D01*
X321463Y638206D01*
X322294Y639037D01*
X323272Y639690D01*
X324359Y640140D01*
X325148Y640297D01*
X325148Y635352D01*
X320203Y635352D01*
G37*
%LPD*%
%LPC*%
G36*
X297452Y634748D02*
X297452Y634748D01*
X302397Y634748D01*
X302240Y633959D01*
X301790Y632872D01*
X301137Y631894D01*
X300306Y631063D01*
X299328Y630410D01*
X298241Y629960D01*
X297452Y629803D01*
X297452Y634748D01*
G37*
%LPD*%
%LPC*%
G36*
X327052Y633448D02*
X327052Y633448D01*
X331997Y633448D01*
X331840Y632659D01*
X331390Y631572D01*
X330737Y630594D01*
X329906Y629763D01*
X328928Y629110D01*
X327841Y628660D01*
X327052Y628503D01*
X327052Y633448D01*
G37*
%LPD*%
%LPC*%
G36*
X604103Y788352D02*
X604103Y788352D01*
X604260Y789141D01*
X604710Y790228D01*
X605363Y791206D01*
X606194Y792037D01*
X607172Y792690D01*
X608259Y793140D01*
X609048Y793297D01*
X609048Y788352D01*
X604103Y788352D01*
G37*
%LPD*%
%LPC*%
G36*
X200503Y225452D02*
X200503Y225452D01*
X200660Y226241D01*
X201110Y227328D01*
X201763Y228306D01*
X202594Y229137D01*
X203572Y229790D01*
X204659Y230240D01*
X205448Y230397D01*
X205448Y225452D01*
X200503Y225452D01*
G37*
%LPD*%
%LPC*%
G36*
X207352Y223548D02*
X207352Y223548D01*
X212297Y223548D01*
X212140Y222759D01*
X211690Y221672D01*
X211037Y220694D01*
X210206Y219863D01*
X209228Y219210D01*
X208141Y218760D01*
X207352Y218603D01*
X207352Y223548D01*
G37*
%LPD*%
%LPC*%
G36*
X617052Y622748D02*
X617052Y622748D01*
X621997Y622748D01*
X621840Y621959D01*
X621390Y620872D01*
X620737Y619894D01*
X619906Y619063D01*
X618928Y618410D01*
X617841Y617960D01*
X617052Y617803D01*
X617052Y622748D01*
G37*
%LPD*%
%LPC*%
G36*
X334103Y590952D02*
X334103Y590952D01*
X334260Y591741D01*
X334710Y592828D01*
X335363Y593806D01*
X336194Y594637D01*
X337172Y595290D01*
X338259Y595740D01*
X339048Y595897D01*
X339048Y590952D01*
X334103Y590952D01*
G37*
%LPD*%
%LPC*%
G36*
X340952Y589048D02*
X340952Y589048D01*
X345897Y589048D01*
X345740Y588259D01*
X345290Y587172D01*
X344637Y586194D01*
X343806Y585363D01*
X342828Y584710D01*
X341741Y584260D01*
X340952Y584103D01*
X340952Y589048D01*
G37*
%LPD*%
%LPC*%
G36*
X99703Y196252D02*
X99703Y196252D01*
X99860Y197041D01*
X100310Y198128D01*
X100963Y199106D01*
X101794Y199937D01*
X102772Y200590D01*
X103859Y201040D01*
X104648Y201197D01*
X104648Y196252D01*
X99703Y196252D01*
G37*
%LPD*%
%LPC*%
G36*
X106552Y194348D02*
X106552Y194348D01*
X111497Y194348D01*
X111340Y193559D01*
X110890Y192472D01*
X110237Y191494D01*
X109406Y190663D01*
X108428Y190010D01*
X107341Y189560D01*
X106552Y189403D01*
X106552Y194348D01*
G37*
%LPD*%
%LPC*%
G36*
X220303Y576352D02*
X220303Y576352D01*
X220460Y577141D01*
X220910Y578228D01*
X221563Y579206D01*
X222394Y580037D01*
X223372Y580690D01*
X224459Y581140D01*
X225248Y581297D01*
X225248Y576352D01*
X220303Y576352D01*
G37*
%LPD*%
%LPC*%
G36*
X345503Y575752D02*
X345503Y575752D01*
X345660Y576541D01*
X346110Y577628D01*
X346763Y578606D01*
X347594Y579437D01*
X348572Y580090D01*
X349659Y580540D01*
X350448Y580697D01*
X350448Y575752D01*
X345503Y575752D01*
G37*
%LPD*%
%LPC*%
G36*
X684159Y700560D02*
X684159Y700560D01*
X683072Y701010D01*
X682094Y701663D01*
X681263Y702494D01*
X680610Y703472D01*
X680160Y704559D01*
X680003Y705348D01*
X684948Y705348D01*
X684948Y700403D01*
X684159Y700560D01*
G37*
%LPD*%
%LPC*%
G36*
X294759Y629960D02*
X294759Y629960D01*
X293672Y630410D01*
X292694Y631063D01*
X291863Y631894D01*
X291210Y632872D01*
X290760Y633959D01*
X290603Y634748D01*
X295548Y634748D01*
X295548Y629803D01*
X294759Y629960D01*
G37*
%LPD*%
%LPC*%
G36*
X614359Y617960D02*
X614359Y617960D01*
X613272Y618410D01*
X612294Y619063D01*
X611463Y619894D01*
X610810Y620872D01*
X610360Y621959D01*
X610203Y622748D01*
X615148Y622748D01*
X615148Y617803D01*
X614359Y617960D01*
G37*
%LPD*%
%LPC*%
G36*
X608259Y781660D02*
X608259Y781660D01*
X607172Y782110D01*
X606194Y782763D01*
X605363Y783594D01*
X604710Y784572D01*
X604260Y785659D01*
X604103Y786448D01*
X609048Y786448D01*
X609048Y781503D01*
X608259Y781660D01*
G37*
%LPD*%
%LPC*%
G36*
X680559Y783860D02*
X680559Y783860D01*
X679472Y784310D01*
X678494Y784963D01*
X677663Y785794D01*
X677010Y786772D01*
X676560Y787859D01*
X676403Y788648D01*
X681348Y788648D01*
X681348Y783703D01*
X680559Y783860D01*
G37*
%LPD*%
%LPC*%
G36*
X303059Y414460D02*
X303059Y414460D01*
X301972Y414910D01*
X300994Y415563D01*
X300163Y416394D01*
X299510Y417372D01*
X299060Y418459D01*
X298903Y419248D01*
X303848Y419248D01*
X303848Y414303D01*
X303059Y414460D01*
G37*
%LPD*%
%LPC*%
G36*
X178459Y559560D02*
X178459Y559560D01*
X177372Y560010D01*
X176394Y560663D01*
X175563Y561494D01*
X174910Y562472D01*
X174460Y563559D01*
X174303Y564348D01*
X179248Y564348D01*
X179248Y559403D01*
X178459Y559560D01*
G37*
%LPD*%
%LPC*%
G36*
X103859Y189560D02*
X103859Y189560D01*
X102772Y190010D01*
X101794Y190663D01*
X100963Y191494D01*
X100310Y192472D01*
X99860Y193559D01*
X99703Y194348D01*
X104648Y194348D01*
X104648Y189403D01*
X103859Y189560D01*
G37*
%LPD*%
%LPC*%
G36*
X107259Y429160D02*
X107259Y429160D01*
X106172Y429610D01*
X105194Y430263D01*
X104363Y431094D01*
X103710Y432072D01*
X103260Y433159D01*
X103103Y433948D01*
X108048Y433948D01*
X108048Y429003D01*
X107259Y429160D01*
G37*
%LPD*%
%LPC*%
G36*
X248259Y684260D02*
X248259Y684260D01*
X247172Y684710D01*
X246194Y685363D01*
X245363Y686194D01*
X244710Y687172D01*
X244260Y688259D01*
X244103Y689048D01*
X249048Y689048D01*
X249048Y684103D01*
X248259Y684260D01*
G37*
%LPD*%
%LPC*%
G36*
X638259Y804260D02*
X638259Y804260D01*
X637172Y804710D01*
X636194Y805363D01*
X635363Y806194D01*
X634710Y807172D01*
X634260Y808259D01*
X634103Y809048D01*
X639048Y809048D01*
X639048Y804103D01*
X638259Y804260D01*
G37*
%LPD*%
%LPC*%
G36*
X668259Y824260D02*
X668259Y824260D01*
X667172Y824710D01*
X666194Y825363D01*
X665363Y826194D01*
X664710Y827172D01*
X664260Y828259D01*
X664103Y829048D01*
X669048Y829048D01*
X669048Y824103D01*
X668259Y824260D01*
G37*
%LPD*%
%LPC*%
G36*
X492359Y521760D02*
X492359Y521760D01*
X491272Y522210D01*
X490294Y522863D01*
X489463Y523694D01*
X488810Y524672D01*
X488360Y525759D01*
X488203Y526548D01*
X493148Y526548D01*
X493148Y521603D01*
X492359Y521760D01*
G37*
%LPD*%
%LPC*%
G36*
X491659Y710560D02*
X491659Y710560D01*
X490572Y711010D01*
X489594Y711663D01*
X488763Y712494D01*
X488110Y713472D01*
X487660Y714559D01*
X487503Y715348D01*
X492448Y715348D01*
X492448Y710403D01*
X491659Y710560D01*
G37*
%LPD*%
%LPC*%
G36*
X324359Y628660D02*
X324359Y628660D01*
X323272Y629110D01*
X322294Y629763D01*
X321463Y630594D01*
X320810Y631572D01*
X320360Y632659D01*
X320203Y633448D01*
X325148Y633448D01*
X325148Y628503D01*
X324359Y628660D01*
G37*
%LPD*%
%LPC*%
G36*
X105959Y310760D02*
X105959Y310760D01*
X104872Y311210D01*
X103894Y311863D01*
X103063Y312694D01*
X102410Y313672D01*
X101960Y314759D01*
X101803Y315548D01*
X106748Y315548D01*
X106748Y310603D01*
X105959Y310760D01*
G37*
%LPD*%
%LPC*%
G36*
X639959Y734560D02*
X639959Y734560D01*
X638872Y735010D01*
X637894Y735663D01*
X637063Y736494D01*
X636410Y737472D01*
X635960Y738559D01*
X635803Y739348D01*
X640748Y739348D01*
X640748Y734403D01*
X639959Y734560D01*
G37*
%LPD*%
%LPC*%
G36*
X107459Y557560D02*
X107459Y557560D01*
X106372Y558010D01*
X105394Y558663D01*
X104563Y559494D01*
X103910Y560472D01*
X103460Y561559D01*
X103303Y562348D01*
X108248Y562348D01*
X108248Y557403D01*
X107459Y557560D01*
G37*
%LPD*%
%LPC*%
G36*
X343159Y669360D02*
X343159Y669360D01*
X342072Y669810D01*
X341094Y670463D01*
X340263Y671294D01*
X339610Y672272D01*
X339160Y673359D01*
X339003Y674148D01*
X343948Y674148D01*
X343948Y669203D01*
X343159Y669360D01*
G37*
%LPD*%
%LPC*%
G36*
X349659Y569060D02*
X349659Y569060D01*
X348572Y569510D01*
X347594Y570163D01*
X346763Y570994D01*
X346110Y571972D01*
X345660Y573059D01*
X345503Y573848D01*
X350448Y573848D01*
X350448Y568903D01*
X349659Y569060D01*
G37*
%LPD*%
%LPC*%
G36*
X368659Y551360D02*
X368659Y551360D01*
X367572Y551810D01*
X366594Y552463D01*
X365763Y553294D01*
X365110Y554272D01*
X364660Y555359D01*
X364503Y556148D01*
X369448Y556148D01*
X369448Y551203D01*
X368659Y551360D01*
G37*
%LPD*%
%LPC*%
G36*
X224159Y550560D02*
X224159Y550560D01*
X223072Y551010D01*
X222094Y551663D01*
X221263Y552494D01*
X220610Y553472D01*
X220160Y554559D01*
X220003Y555348D01*
X224948Y555348D01*
X224948Y550403D01*
X224159Y550560D01*
G37*
%LPD*%
%LPC*%
G36*
X338259Y584260D02*
X338259Y584260D01*
X337172Y584710D01*
X336194Y585363D01*
X335363Y586194D01*
X334710Y587172D01*
X334260Y588259D01*
X334103Y589048D01*
X339048Y589048D01*
X339048Y584103D01*
X338259Y584260D01*
G37*
%LPD*%
%LPC*%
G36*
X204659Y218760D02*
X204659Y218760D01*
X203572Y219210D01*
X202594Y219863D01*
X201763Y220694D01*
X201110Y221672D01*
X200660Y222759D01*
X200503Y223548D01*
X205448Y223548D01*
X205448Y218603D01*
X204659Y218760D01*
G37*
%LPD*%
%LPC*%
G36*
X680359Y754160D02*
X680359Y754160D01*
X679272Y754610D01*
X678294Y755263D01*
X677463Y756094D01*
X676810Y757072D01*
X676360Y758159D01*
X676203Y758948D01*
X681148Y758948D01*
X681148Y754003D01*
X680359Y754160D01*
G37*
%LPD*%
%LPC*%
G36*
X467659Y699860D02*
X467659Y699860D01*
X466572Y700310D01*
X465594Y700963D01*
X464763Y701794D01*
X464110Y702772D01*
X463660Y703859D01*
X463503Y704648D01*
X468448Y704648D01*
X468448Y699703D01*
X467659Y699860D01*
G37*
%LPD*%
%LPC*%
G36*
X448799Y771699D02*
X448799Y771699D01*
X448799Y771701D01*
X448801Y771701D01*
X448801Y771699D01*
X448799Y771699D01*
G37*
%LPD*%
%LPC*%
G36*
X126499Y797299D02*
X126499Y797299D01*
X126499Y797301D01*
X126501Y797301D01*
X126501Y797299D01*
X126499Y797299D01*
G37*
%LPD*%
%LPC*%
G36*
X680399Y342099D02*
X680399Y342099D01*
X680399Y342101D01*
X680401Y342101D01*
X680401Y342099D01*
X680399Y342099D01*
G37*
%LPD*%
%LPC*%
G36*
X126399Y649999D02*
X126399Y649999D01*
X126399Y650001D01*
X126401Y650001D01*
X126401Y649999D01*
X126399Y649999D01*
G37*
%LPD*%
%LPC*%
G36*
X183599Y454999D02*
X183599Y454999D01*
X183599Y455001D01*
X183601Y455001D01*
X183601Y454999D01*
X183599Y454999D01*
G37*
%LPD*%
%LPC*%
G36*
X553399Y760799D02*
X553399Y760799D01*
X553399Y760801D01*
X553401Y760801D01*
X553401Y760799D01*
X553399Y760799D01*
G37*
%LPD*%
%LPC*%
G36*
X475899Y475499D02*
X475899Y475499D01*
X475899Y475501D01*
X475901Y475501D01*
X475901Y475499D01*
X475899Y475499D01*
G37*
%LPD*%
D10*
X158200Y480400D03*
X183600Y480400D03*
X183600Y505800D03*
X158200Y505800D03*
X158200Y455000D03*
X183600Y455000D03*
D11*
X399600Y771700D03*
X448800Y771700D03*
D12*
X126400Y675000D03*
X126400Y650000D03*
X126400Y700000D03*
D13*
X56400Y622000D03*
X56400Y728000D03*
D12*
X126500Y822300D03*
X126500Y797300D03*
X126500Y847300D03*
D13*
X56500Y769300D03*
X56500Y875300D03*
D14*
X584500Y761700D03*
X553400Y760800D03*
X248700Y275200D03*
X415200Y685200D03*
X345000Y651100D03*
X245500Y651500D03*
X324700Y755200D03*
X355900Y699500D03*
D15*
X680400Y342100D03*
D12*
X680400Y316700D03*
X680400Y291300D03*
X680400Y265900D03*
D16*
X501300Y475500D03*
D17*
X475900Y475500D03*
D16*
X431300Y475500D03*
D17*
X405900Y475500D03*
D18*
X296900Y536000D03*
X641700Y740300D03*
X685900Y706300D03*
X682100Y759900D03*
X682300Y789600D03*
X670000Y830000D03*
X640000Y810000D03*
X616100Y623700D03*
X296500Y635700D03*
X370400Y557100D03*
X304800Y420200D03*
X180200Y565300D03*
X192800Y550400D03*
X225900Y556300D03*
X226200Y575400D03*
X494100Y527500D03*
X206400Y224500D03*
X344900Y675100D03*
X223500Y510800D03*
X109000Y434900D03*
X493400Y716300D03*
X469400Y705600D03*
X109200Y563300D03*
X107700Y316500D03*
X105600Y195300D03*
X351400Y574800D03*
X340000Y590000D03*
X326100Y634400D03*
X250000Y690000D03*
X610000Y787400D03*
D19*
X220300Y499700D02*
X210000Y510000D01*
X220300Y499700D02*
X236700Y499700D01*
D18*
X236700Y499700D03*
D19*
X210000Y510000D02*
X206200Y510000D01*
X185400Y530800D01*
D18*
X185400Y530800D03*
X310000Y540000D03*
X271300Y545300D03*
D19*
X304700Y545300D01*
X310000Y540000D01*
D18*
X177546Y537546D03*
X342900Y524800D03*
D19*
X334177Y533523D01*
X303583Y533523D01*
X299583Y529523D01*
X177816Y537277D02*
X177546Y537546D01*
X177816Y537277D02*
X188083Y537277D01*
X195837Y529523D02*
X299583Y529523D01*
X195837Y529523D02*
X188083Y537277D01*
D18*
X171260Y543833D03*
X328900Y542200D03*
D19*
X174673Y543833D02*
X171260Y543833D01*
X174673Y543833D02*
X196717Y565877D01*
X305223Y565877D01*
X328900Y542200D01*
D18*
X220000Y460000D03*
D19*
X350000Y460000D01*
X380000Y490000D02*
X380000Y502023D01*
D18*
X380000Y502023D03*
D19*
X380000Y490000D02*
X350000Y460000D01*
D18*
X282223Y730700D03*
D19*
X296975Y730700D01*
X300000Y727675D01*
D18*
X300000Y727675D03*
X282200Y711700D03*
D19*
X289285Y718785D01*
X300000Y718785D01*
D18*
X300000Y718785D03*
X206900Y544000D03*
X236100Y545000D03*
D20*
X235100Y544000D02*
X206900Y544000D01*
X235100Y544000D02*
X236100Y545000D01*
D18*
X330000Y280000D03*
D21*
X345700Y295700D01*
D18*
X345700Y295700D03*
X348600Y317800D03*
M02*
