M48
;GenerationSoftware,Autodesk,EAGLE,9.6.2*%
;CreationDate,2020-11-05T23:25:33Z*%
FMAT,2
ICI,OFF
METRIC,TZ,000.000
T9C0.381
T8C0.600
T7C0.813
T6C0.850
T5C0.900
T4C1.000
T3C1.016
T2C1.200
T1C2.000
%
G90
M71
T1
X25527Y16256
X25527Y37084
X2413Y37084
X2413Y16256
T2
X43260Y93830
X48260Y93830
X53260Y93830
X19130Y93830
X24130Y93830
X29130Y93830
T3
X64770Y33020
X64770Y39370
T4
X26670Y27940
X26670Y30480
X26670Y22860
X26670Y25400
T5
X62230Y44450
X64770Y44450
X62230Y49530
X64770Y46990
X62230Y46990
X64770Y49530
T6
X63690Y59730
X63690Y64730
T7
X58420Y15240
X50800Y15240
X43180Y15240
X35560Y15240
X63500Y27940
X66040Y27940
X63500Y20320
X66040Y20320
T8
X66390Y65730
X66390Y58730
T9
X54610Y59690
X57150Y68580
X57150Y72390
X48260Y34290
X43180Y35560
X35560Y48260
X35560Y55880
X43180Y80010
X43180Y74930
X24130Y90170
X24130Y87630
X34290Y80010
X39370Y73660
X41910Y71120
X40640Y51747
X45720Y64770
X47448Y58878
X40750Y57260
X36372Y55068
X33020Y55880
X34912Y53795
X37642Y53798
X39370Y53340
X53340Y59690
X52070Y55880
X43180Y55880
X39370Y50800
X49530Y40640
X49530Y31750
X58420Y22860
X58420Y17780
X55880Y36830
X55880Y24130
X59690Y41910
X45668Y58368
X45720Y59690
X66040Y53340
X40640Y58556
X13970Y73660
X55880Y59690
X66040Y52070
X40640Y49530
X36830Y44450
X36830Y41910
X33020Y44450
X33020Y46990
X27940Y53340
X26670Y54610
X24130Y53340
X24130Y50800
X43180Y20320
X46990Y20320
X43180Y27940
X43180Y24130
X31750Y63500
X26670Y58420
X26670Y53340
X27940Y46990
X31750Y43180
X31750Y36830
X60960Y40640
X39370Y52070
X52070Y17780
X54610Y27940
X35560Y29210
X35560Y33020
X38100Y34290
X36830Y34290
X36830Y39370
X50800Y29210
X21590Y50800
X22860Y50800
X26670Y46990
X53340Y77470
X50800Y21590
X45720Y27940
X53340Y80010
X50800Y67310
X52070Y74930
X54610Y43180
X58420Y52070
X38100Y44450
X46990Y43180
X13970Y87630
X34290Y16510
X29210Y21590
X62230Y33020
X59690Y64770
X60960Y57150
X30480Y91440
X29210Y86360
X44450Y59690
X30480Y69850
X44450Y64770
X13970Y59690
X13970Y45720
X5080Y54610
X5080Y96520
X5080Y82550
X5080Y68580
X29210Y66040
X31750Y78740
X26670Y76200
X26670Y78740
X22860Y78740
X24130Y71120
X60960Y67310
X60960Y59690
X54610Y55880
X29210Y44450
M30