G04 EAGLE Gerber RS-274X export*
G75*
%MOMM*%
%FSLAX34Y34*%
%LPD*%
%INBottom Copper*%
%IPPOS*%
%AMOC8*
5,1,8,0,0,1.08239X$1,22.5*%
G01*
%ADD10P,1.732040X8X22.500000*%
%ADD11C,1.600200*%
%ADD12C,1.320800*%
%ADD13C,1.625600*%
%ADD14C,1.450000*%
%ADD15C,1.108000*%
%ADD16P,2.089446X8X112.500000*%
%ADD17C,1.800000*%
%ADD18R,1.508000X1.508000*%
%ADD19C,1.508000*%
%ADD20C,0.685800*%
%ADD21C,0.203200*%

G36*
X682102Y91449D02*
X682102Y91449D01*
X682160Y91447D01*
X682242Y91469D01*
X682326Y91481D01*
X682379Y91504D01*
X682435Y91519D01*
X682508Y91562D01*
X682585Y91597D01*
X682630Y91635D01*
X682680Y91664D01*
X682738Y91726D01*
X682802Y91780D01*
X682834Y91829D01*
X682874Y91872D01*
X682913Y91947D01*
X682960Y92017D01*
X682977Y92073D01*
X683004Y92125D01*
X683015Y92193D01*
X683045Y92288D01*
X683048Y92388D01*
X683059Y92456D01*
X683059Y996444D01*
X683051Y996502D01*
X683053Y996560D01*
X683031Y996642D01*
X683019Y996726D01*
X682996Y996779D01*
X682981Y996835D01*
X682938Y996908D01*
X682903Y996985D01*
X682865Y997030D01*
X682836Y997080D01*
X682774Y997138D01*
X682720Y997202D01*
X682671Y997234D01*
X682628Y997274D01*
X682553Y997313D01*
X682483Y997360D01*
X682427Y997377D01*
X682375Y997404D01*
X682307Y997415D01*
X682212Y997445D01*
X682112Y997448D01*
X682044Y997459D01*
X-9144Y997459D01*
X-9202Y997451D01*
X-9260Y997453D01*
X-9342Y997431D01*
X-9426Y997419D01*
X-9479Y997396D01*
X-9535Y997381D01*
X-9608Y997338D01*
X-9685Y997303D01*
X-9730Y997265D01*
X-9780Y997236D01*
X-9838Y997174D01*
X-9902Y997120D01*
X-9934Y997071D01*
X-9974Y997028D01*
X-10013Y996953D01*
X-10060Y996883D01*
X-10077Y996827D01*
X-10104Y996775D01*
X-10115Y996707D01*
X-10145Y996612D01*
X-10148Y996512D01*
X-10159Y996444D01*
X-10159Y92456D01*
X-10151Y92398D01*
X-10153Y92340D01*
X-10131Y92258D01*
X-10119Y92174D01*
X-10096Y92121D01*
X-10081Y92065D01*
X-10038Y91992D01*
X-10003Y91915D01*
X-9965Y91870D01*
X-9936Y91820D01*
X-9874Y91762D01*
X-9820Y91698D01*
X-9771Y91666D01*
X-9728Y91626D01*
X-9653Y91587D01*
X-9583Y91540D01*
X-9527Y91523D01*
X-9475Y91496D01*
X-9407Y91485D01*
X-9312Y91455D01*
X-9212Y91452D01*
X-9144Y91441D01*
X682044Y91441D01*
X682102Y91449D01*
G37*
%LPC*%
G36*
X506914Y286638D02*
X506914Y286638D01*
X504906Y287470D01*
X503622Y288754D01*
X503552Y288806D01*
X503488Y288866D01*
X503439Y288892D01*
X503395Y288925D01*
X503313Y288956D01*
X503235Y288996D01*
X503188Y289004D01*
X503129Y289026D01*
X502981Y289038D01*
X502904Y289051D01*
X430537Y289051D01*
X403351Y316237D01*
X403351Y392017D01*
X403344Y392065D01*
X403345Y392071D01*
X403342Y392080D01*
X403339Y392103D01*
X403336Y392191D01*
X403319Y392243D01*
X403311Y392298D01*
X403276Y392378D01*
X403249Y392461D01*
X403221Y392500D01*
X403195Y392558D01*
X403099Y392671D01*
X403054Y392735D01*
X375495Y420294D01*
X375471Y420311D01*
X375452Y420334D01*
X375358Y420396D01*
X375268Y420464D01*
X375240Y420475D01*
X375216Y420491D01*
X375108Y420525D01*
X375002Y420566D01*
X374973Y420568D01*
X374945Y420577D01*
X374831Y420580D01*
X374719Y420589D01*
X374690Y420584D01*
X374661Y420584D01*
X374551Y420556D01*
X374440Y420533D01*
X374414Y420520D01*
X374386Y420512D01*
X374288Y420455D01*
X374188Y420402D01*
X374166Y420382D01*
X374141Y420367D01*
X374064Y420285D01*
X373982Y420207D01*
X373967Y420181D01*
X373947Y420160D01*
X373895Y420059D01*
X373838Y419961D01*
X373831Y419933D01*
X373817Y419907D01*
X373804Y419829D01*
X373768Y419686D01*
X373770Y419623D01*
X373762Y419576D01*
X373762Y418014D01*
X372930Y416006D01*
X371394Y414470D01*
X369386Y413638D01*
X367570Y413638D01*
X367484Y413626D01*
X367396Y413623D01*
X367344Y413606D01*
X367289Y413598D01*
X367209Y413563D01*
X367126Y413536D01*
X367087Y413508D01*
X367029Y413482D01*
X366916Y413386D01*
X366852Y413341D01*
X356863Y403351D01*
X341637Y403351D01*
X327151Y417837D01*
X327151Y439404D01*
X327139Y439491D01*
X327136Y439578D01*
X327119Y439631D01*
X327111Y439686D01*
X327076Y439765D01*
X327049Y439849D01*
X327021Y439888D01*
X326995Y439945D01*
X326899Y440058D01*
X326854Y440122D01*
X325570Y441406D01*
X324738Y443414D01*
X324738Y445586D01*
X325570Y447594D01*
X327106Y449130D01*
X329114Y449962D01*
X331286Y449962D01*
X333294Y449130D01*
X334830Y447594D01*
X335662Y445586D01*
X335662Y443414D01*
X334830Y441406D01*
X333546Y440122D01*
X333494Y440052D01*
X333434Y439988D01*
X333408Y439939D01*
X333375Y439895D01*
X333344Y439813D01*
X333304Y439735D01*
X333296Y439688D01*
X333274Y439629D01*
X333262Y439481D01*
X333249Y439404D01*
X333249Y420783D01*
X333261Y420697D01*
X333264Y420609D01*
X333281Y420557D01*
X333289Y420502D01*
X333324Y420422D01*
X333351Y420339D01*
X333379Y420300D01*
X333405Y420242D01*
X333501Y420129D01*
X333546Y420065D01*
X343865Y409746D01*
X343935Y409694D01*
X343999Y409634D01*
X344049Y409608D01*
X344093Y409575D01*
X344174Y409544D01*
X344252Y409504D01*
X344300Y409496D01*
X344358Y409474D01*
X344506Y409462D01*
X344583Y409449D01*
X353917Y409449D01*
X354003Y409461D01*
X354091Y409464D01*
X354143Y409481D01*
X354198Y409489D01*
X354278Y409524D01*
X354361Y409551D01*
X354400Y409579D01*
X354458Y409605D01*
X354571Y409701D01*
X354635Y409746D01*
X362541Y417652D01*
X362552Y417668D01*
X362562Y417676D01*
X362588Y417715D01*
X362593Y417722D01*
X362653Y417786D01*
X362679Y417836D01*
X362712Y417880D01*
X362743Y417961D01*
X362783Y418039D01*
X362791Y418087D01*
X362813Y418145D01*
X362825Y418293D01*
X362838Y418370D01*
X362838Y420186D01*
X363670Y422194D01*
X365206Y423730D01*
X367214Y424562D01*
X368776Y424562D01*
X368805Y424566D01*
X368834Y424563D01*
X368945Y424586D01*
X369057Y424602D01*
X369084Y424614D01*
X369113Y424619D01*
X369213Y424671D01*
X369317Y424718D01*
X369339Y424737D01*
X369365Y424750D01*
X369447Y424828D01*
X369534Y424901D01*
X369550Y424926D01*
X369571Y424946D01*
X369628Y425044D01*
X369691Y425138D01*
X369700Y425166D01*
X369715Y425191D01*
X369743Y425301D01*
X369777Y425409D01*
X369778Y425439D01*
X369785Y425467D01*
X369781Y425580D01*
X369784Y425693D01*
X369777Y425722D01*
X369776Y425751D01*
X369741Y425859D01*
X369712Y425968D01*
X369697Y425994D01*
X369688Y426022D01*
X369643Y426085D01*
X369567Y426213D01*
X369522Y426256D01*
X369494Y426295D01*
X341935Y453854D01*
X341865Y453906D01*
X341801Y453966D01*
X341751Y453992D01*
X341707Y454025D01*
X341626Y454056D01*
X341548Y454096D01*
X341500Y454104D01*
X341442Y454126D01*
X341294Y454138D01*
X341217Y454151D01*
X252737Y454151D01*
X212851Y494037D01*
X212851Y502904D01*
X212839Y502991D01*
X212836Y503078D01*
X212819Y503131D01*
X212811Y503186D01*
X212776Y503265D01*
X212749Y503349D01*
X212721Y503388D01*
X212695Y503445D01*
X212599Y503558D01*
X212554Y503622D01*
X211270Y504906D01*
X210438Y506914D01*
X210438Y509086D01*
X211270Y511094D01*
X212806Y512630D01*
X214814Y513462D01*
X216986Y513462D01*
X218994Y512630D01*
X220530Y511094D01*
X221312Y509206D01*
X221327Y509181D01*
X221336Y509153D01*
X221399Y509059D01*
X221457Y508962D01*
X221478Y508941D01*
X221494Y508917D01*
X221581Y508844D01*
X221663Y508766D01*
X221689Y508753D01*
X221712Y508734D01*
X221815Y508688D01*
X221916Y508636D01*
X221945Y508630D01*
X221972Y508619D01*
X222084Y508603D01*
X222195Y508581D01*
X222224Y508584D01*
X222253Y508580D01*
X222365Y508596D01*
X222478Y508606D01*
X222505Y508616D01*
X222534Y508620D01*
X222638Y508667D01*
X222743Y508708D01*
X222767Y508725D01*
X222794Y508737D01*
X222880Y508811D01*
X222970Y508879D01*
X222988Y508903D01*
X223010Y508922D01*
X223052Y508988D01*
X223140Y509107D01*
X223162Y509165D01*
X223188Y509206D01*
X223970Y511094D01*
X225506Y512630D01*
X227514Y513462D01*
X229686Y513462D01*
X231694Y512630D01*
X233230Y511094D01*
X234012Y509206D01*
X234027Y509181D01*
X234036Y509153D01*
X234099Y509059D01*
X234157Y508962D01*
X234178Y508941D01*
X234194Y508917D01*
X234281Y508844D01*
X234363Y508766D01*
X234389Y508753D01*
X234412Y508734D01*
X234515Y508688D01*
X234616Y508636D01*
X234645Y508631D01*
X234672Y508619D01*
X234784Y508603D01*
X234895Y508581D01*
X234924Y508584D01*
X234953Y508580D01*
X235065Y508596D01*
X235178Y508606D01*
X235205Y508616D01*
X235235Y508620D01*
X235338Y508667D01*
X235443Y508708D01*
X235467Y508725D01*
X235494Y508737D01*
X235580Y508811D01*
X235670Y508879D01*
X235688Y508903D01*
X235710Y508922D01*
X235752Y508988D01*
X235840Y509107D01*
X235862Y509166D01*
X235888Y509206D01*
X236670Y511094D01*
X237954Y512378D01*
X238006Y512448D01*
X238066Y512512D01*
X238092Y512561D01*
X238125Y512605D01*
X238156Y512687D01*
X238196Y512765D01*
X238204Y512812D01*
X238226Y512871D01*
X238238Y513019D01*
X238251Y513096D01*
X238251Y528304D01*
X238239Y528391D01*
X238236Y528478D01*
X238219Y528531D01*
X238211Y528586D01*
X238176Y528665D01*
X238149Y528749D01*
X238121Y528788D01*
X238095Y528845D01*
X237999Y528958D01*
X237954Y529022D01*
X236670Y530306D01*
X235838Y532314D01*
X235838Y534486D01*
X236670Y536494D01*
X238206Y538030D01*
X240214Y538862D01*
X242386Y538862D01*
X244394Y538030D01*
X245930Y536494D01*
X246762Y534486D01*
X246762Y532314D01*
X245930Y530306D01*
X244646Y529022D01*
X244594Y528952D01*
X244534Y528888D01*
X244508Y528839D01*
X244475Y528795D01*
X244444Y528713D01*
X244404Y528635D01*
X244396Y528588D01*
X244374Y528529D01*
X244362Y528381D01*
X244349Y528304D01*
X244349Y513096D01*
X244361Y513009D01*
X244364Y512922D01*
X244381Y512869D01*
X244389Y512814D01*
X244424Y512735D01*
X244451Y512651D01*
X244479Y512612D01*
X244505Y512555D01*
X244601Y512442D01*
X244646Y512378D01*
X245930Y511094D01*
X246762Y509086D01*
X246762Y506914D01*
X245930Y504906D01*
X244394Y503370D01*
X242386Y502538D01*
X240824Y502538D01*
X240795Y502534D01*
X240766Y502537D01*
X240655Y502514D01*
X240543Y502498D01*
X240516Y502486D01*
X240487Y502481D01*
X240387Y502429D01*
X240283Y502382D01*
X240261Y502363D01*
X240235Y502350D01*
X240153Y502272D01*
X240066Y502199D01*
X240050Y502174D01*
X240029Y502154D01*
X239972Y502056D01*
X239909Y501962D01*
X239900Y501934D01*
X239885Y501909D01*
X239857Y501799D01*
X239823Y501691D01*
X239822Y501661D01*
X239815Y501633D01*
X239819Y501520D01*
X239816Y501407D01*
X239823Y501378D01*
X239824Y501349D01*
X239859Y501241D01*
X239888Y501132D01*
X239903Y501106D01*
X239912Y501078D01*
X239957Y501015D01*
X240033Y500887D01*
X240078Y500844D01*
X240106Y500805D01*
X265252Y475659D01*
X265322Y475607D01*
X265386Y475547D01*
X265436Y475521D01*
X265480Y475488D01*
X265561Y475457D01*
X265639Y475417D01*
X265687Y475409D01*
X265745Y475387D01*
X265893Y475375D01*
X265970Y475362D01*
X267786Y475362D01*
X269794Y474530D01*
X271330Y472994D01*
X272112Y471106D01*
X272127Y471081D01*
X272136Y471053D01*
X272199Y470959D01*
X272257Y470862D01*
X272278Y470841D01*
X272294Y470817D01*
X272381Y470744D01*
X272463Y470666D01*
X272489Y470653D01*
X272512Y470634D01*
X272615Y470588D01*
X272716Y470536D01*
X272745Y470530D01*
X272772Y470519D01*
X272884Y470503D01*
X272995Y470481D01*
X273024Y470484D01*
X273053Y470480D01*
X273165Y470496D01*
X273278Y470506D01*
X273305Y470516D01*
X273334Y470520D01*
X273438Y470567D01*
X273543Y470608D01*
X273567Y470625D01*
X273594Y470637D01*
X273680Y470711D01*
X273770Y470779D01*
X273788Y470803D01*
X273810Y470822D01*
X273852Y470888D01*
X273940Y471007D01*
X273962Y471065D01*
X273988Y471106D01*
X274770Y472994D01*
X276054Y474278D01*
X276106Y474348D01*
X276166Y474412D01*
X276192Y474461D01*
X276225Y474505D01*
X276256Y474587D01*
X276296Y474665D01*
X276304Y474712D01*
X276326Y474771D01*
X276338Y474919D01*
X276351Y474996D01*
X276351Y519017D01*
X276339Y519103D01*
X276336Y519191D01*
X276319Y519243D01*
X276311Y519298D01*
X276276Y519378D01*
X276249Y519461D01*
X276221Y519500D01*
X276195Y519558D01*
X276099Y519671D01*
X276054Y519735D01*
X268148Y527641D01*
X268078Y527693D01*
X268014Y527753D01*
X267964Y527779D01*
X267920Y527812D01*
X267839Y527843D01*
X267761Y527883D01*
X267713Y527891D01*
X267655Y527913D01*
X267507Y527925D01*
X267430Y527938D01*
X265614Y527938D01*
X263606Y528770D01*
X262070Y530306D01*
X261238Y532314D01*
X261238Y534486D01*
X262070Y536494D01*
X263606Y538030D01*
X265494Y538812D01*
X265519Y538827D01*
X265547Y538836D01*
X265641Y538899D01*
X265738Y538957D01*
X265759Y538978D01*
X265783Y538994D01*
X265856Y539081D01*
X265934Y539163D01*
X265947Y539189D01*
X265966Y539212D01*
X266012Y539315D01*
X266064Y539416D01*
X266069Y539445D01*
X266081Y539472D01*
X266097Y539584D01*
X266119Y539695D01*
X266116Y539724D01*
X266120Y539753D01*
X266104Y539865D01*
X266094Y539978D01*
X266084Y540005D01*
X266080Y540035D01*
X266033Y540138D01*
X265992Y540243D01*
X265975Y540267D01*
X265963Y540294D01*
X265889Y540380D01*
X265821Y540470D01*
X265797Y540488D01*
X265778Y540510D01*
X265712Y540552D01*
X265593Y540640D01*
X265534Y540662D01*
X265494Y540688D01*
X263606Y541470D01*
X262070Y543006D01*
X261238Y545014D01*
X261238Y547186D01*
X262070Y549194D01*
X263606Y550730D01*
X265614Y551562D01*
X267786Y551562D01*
X269794Y550730D01*
X271330Y549194D01*
X272162Y547186D01*
X272162Y545370D01*
X272174Y545284D01*
X272177Y545196D01*
X272194Y545144D01*
X272202Y545089D01*
X272237Y545009D01*
X272264Y544926D01*
X272292Y544887D01*
X272318Y544829D01*
X272414Y544716D01*
X272459Y544652D01*
X277952Y539159D01*
X278022Y539107D01*
X278086Y539047D01*
X278136Y539021D01*
X278180Y538988D01*
X278261Y538957D01*
X278339Y538917D01*
X278387Y538909D01*
X278445Y538887D01*
X278593Y538875D01*
X278670Y538862D01*
X280486Y538862D01*
X282494Y538030D01*
X284030Y536494D01*
X284862Y534486D01*
X284862Y532314D01*
X284030Y530306D01*
X282494Y528770D01*
X280486Y527938D01*
X278924Y527938D01*
X278895Y527934D01*
X278866Y527937D01*
X278755Y527914D01*
X278643Y527898D01*
X278616Y527886D01*
X278587Y527881D01*
X278487Y527828D01*
X278383Y527782D01*
X278361Y527763D01*
X278335Y527750D01*
X278253Y527672D01*
X278166Y527599D01*
X278150Y527574D01*
X278129Y527554D01*
X278072Y527456D01*
X278009Y527362D01*
X278000Y527334D01*
X277985Y527309D01*
X277957Y527199D01*
X277923Y527091D01*
X277922Y527061D01*
X277915Y527033D01*
X277919Y526920D01*
X277916Y526807D01*
X277923Y526778D01*
X277924Y526749D01*
X277959Y526641D01*
X277988Y526532D01*
X278003Y526506D01*
X278012Y526478D01*
X278057Y526415D01*
X278133Y526287D01*
X278178Y526244D01*
X278206Y526205D01*
X280365Y524046D01*
X280366Y524046D01*
X282449Y521963D01*
X282449Y474996D01*
X282461Y474909D01*
X282464Y474822D01*
X282481Y474769D01*
X282489Y474714D01*
X282524Y474635D01*
X282551Y474551D01*
X282579Y474512D01*
X282605Y474455D01*
X282701Y474342D01*
X282746Y474278D01*
X284030Y472994D01*
X284862Y470986D01*
X284862Y468814D01*
X284030Y466806D01*
X282494Y465270D01*
X280486Y464438D01*
X278314Y464438D01*
X276306Y465270D01*
X274770Y466806D01*
X273988Y468694D01*
X273973Y468719D01*
X273964Y468747D01*
X273901Y468841D01*
X273843Y468938D01*
X273822Y468959D01*
X273806Y468983D01*
X273719Y469056D01*
X273637Y469134D01*
X273611Y469147D01*
X273588Y469166D01*
X273485Y469212D01*
X273384Y469264D01*
X273355Y469269D01*
X273328Y469281D01*
X273216Y469297D01*
X273105Y469319D01*
X273076Y469316D01*
X273047Y469320D01*
X272935Y469304D01*
X272822Y469294D01*
X272795Y469284D01*
X272765Y469280D01*
X272662Y469233D01*
X272557Y469192D01*
X272533Y469175D01*
X272506Y469163D01*
X272420Y469089D01*
X272330Y469021D01*
X272312Y468997D01*
X272290Y468978D01*
X272248Y468912D01*
X272160Y468793D01*
X272138Y468734D01*
X272112Y468694D01*
X271330Y466806D01*
X269794Y465270D01*
X267786Y464438D01*
X265614Y464438D01*
X263606Y465270D01*
X262070Y466806D01*
X261238Y468814D01*
X261238Y470630D01*
X261226Y470716D01*
X261223Y470804D01*
X261206Y470856D01*
X261198Y470911D01*
X261163Y470991D01*
X261136Y471074D01*
X261108Y471113D01*
X261082Y471171D01*
X260986Y471284D01*
X260941Y471348D01*
X230048Y502241D01*
X229978Y502293D01*
X229914Y502353D01*
X229864Y502379D01*
X229820Y502412D01*
X229739Y502443D01*
X229661Y502483D01*
X229613Y502491D01*
X229555Y502513D01*
X229407Y502525D01*
X229330Y502538D01*
X227514Y502538D01*
X225506Y503370D01*
X223970Y504906D01*
X223188Y506794D01*
X223173Y506819D01*
X223164Y506847D01*
X223101Y506941D01*
X223043Y507038D01*
X223022Y507059D01*
X223006Y507083D01*
X222919Y507156D01*
X222837Y507234D01*
X222811Y507247D01*
X222788Y507266D01*
X222685Y507312D01*
X222584Y507364D01*
X222555Y507369D01*
X222528Y507381D01*
X222416Y507397D01*
X222305Y507419D01*
X222276Y507416D01*
X222247Y507420D01*
X222135Y507404D01*
X222022Y507394D01*
X221995Y507384D01*
X221965Y507380D01*
X221862Y507333D01*
X221757Y507292D01*
X221733Y507275D01*
X221706Y507263D01*
X221620Y507189D01*
X221530Y507121D01*
X221512Y507097D01*
X221490Y507078D01*
X221448Y507012D01*
X221360Y506893D01*
X221338Y506834D01*
X221312Y506794D01*
X220530Y504906D01*
X219246Y503622D01*
X219194Y503552D01*
X219134Y503488D01*
X219108Y503439D01*
X219075Y503395D01*
X219044Y503313D01*
X219004Y503235D01*
X218996Y503188D01*
X218974Y503129D01*
X218962Y502981D01*
X218949Y502904D01*
X218949Y496983D01*
X218961Y496897D01*
X218964Y496809D01*
X218981Y496757D01*
X218989Y496702D01*
X219024Y496622D01*
X219051Y496539D01*
X219079Y496500D01*
X219105Y496442D01*
X219201Y496329D01*
X219246Y496265D01*
X254965Y460546D01*
X255035Y460494D01*
X255099Y460434D01*
X255149Y460408D01*
X255193Y460375D01*
X255274Y460344D01*
X255352Y460304D01*
X255400Y460296D01*
X255458Y460274D01*
X255606Y460262D01*
X255683Y460249D01*
X344163Y460249D01*
X346246Y458166D01*
X346246Y458165D01*
X361105Y443306D01*
X361129Y443289D01*
X361148Y443266D01*
X361242Y443204D01*
X361332Y443136D01*
X361360Y443125D01*
X361384Y443109D01*
X361492Y443075D01*
X361598Y443034D01*
X361627Y443032D01*
X361655Y443023D01*
X361769Y443020D01*
X361881Y443011D01*
X361910Y443016D01*
X361939Y443016D01*
X362049Y443044D01*
X362160Y443067D01*
X362186Y443080D01*
X362214Y443088D01*
X362312Y443145D01*
X362412Y443198D01*
X362434Y443218D01*
X362459Y443233D01*
X362536Y443315D01*
X362618Y443393D01*
X362633Y443419D01*
X362653Y443440D01*
X362705Y443541D01*
X362762Y443639D01*
X362769Y443667D01*
X362783Y443693D01*
X362796Y443771D01*
X362832Y443914D01*
X362830Y443977D01*
X362838Y444024D01*
X362838Y445586D01*
X363670Y447594D01*
X364954Y448878D01*
X365006Y448948D01*
X365066Y449012D01*
X365092Y449061D01*
X365125Y449105D01*
X365156Y449187D01*
X365196Y449265D01*
X365204Y449312D01*
X365226Y449371D01*
X365238Y449519D01*
X365251Y449596D01*
X365251Y474694D01*
X365239Y474780D01*
X365236Y474868D01*
X365219Y474920D01*
X365211Y474975D01*
X365176Y475055D01*
X365149Y475138D01*
X365121Y475177D01*
X365095Y475235D01*
X364999Y475348D01*
X364954Y475412D01*
X361263Y479103D01*
X361216Y479138D01*
X361176Y479180D01*
X361103Y479223D01*
X361035Y479274D01*
X360981Y479295D01*
X360930Y479324D01*
X360849Y479345D01*
X360770Y479375D01*
X360711Y479380D01*
X360655Y479394D01*
X360571Y479391D01*
X360486Y479398D01*
X360429Y479387D01*
X360371Y479385D01*
X360290Y479359D01*
X360208Y479343D01*
X360156Y479316D01*
X360100Y479298D01*
X360044Y479258D01*
X359955Y479212D01*
X359883Y479143D01*
X359827Y479103D01*
X358694Y477970D01*
X356686Y477138D01*
X354514Y477138D01*
X352506Y477970D01*
X350970Y479506D01*
X350138Y481514D01*
X350138Y483686D01*
X350970Y485694D01*
X352254Y486978D01*
X352306Y487048D01*
X352366Y487112D01*
X352392Y487161D01*
X352425Y487205D01*
X352456Y487287D01*
X352496Y487365D01*
X352504Y487412D01*
X352526Y487471D01*
X352538Y487619D01*
X352551Y487696D01*
X352551Y523589D01*
X352547Y523618D01*
X352550Y523647D01*
X352527Y523758D01*
X352511Y523870D01*
X352499Y523897D01*
X352494Y523926D01*
X352442Y524026D01*
X352395Y524130D01*
X352376Y524152D01*
X352363Y524178D01*
X352285Y524260D01*
X352212Y524347D01*
X352187Y524363D01*
X352167Y524384D01*
X352069Y524441D01*
X351975Y524504D01*
X351947Y524513D01*
X351922Y524528D01*
X351812Y524556D01*
X351704Y524590D01*
X351674Y524591D01*
X351646Y524598D01*
X351533Y524594D01*
X351420Y524597D01*
X351391Y524590D01*
X351362Y524589D01*
X351254Y524554D01*
X351145Y524525D01*
X351119Y524510D01*
X351091Y524501D01*
X351028Y524456D01*
X350900Y524380D01*
X350857Y524335D01*
X350818Y524307D01*
X344163Y517651D01*
X328937Y517651D01*
X314451Y532137D01*
X314451Y547363D01*
X324441Y557352D01*
X324493Y557422D01*
X324553Y557486D01*
X324579Y557536D01*
X324612Y557580D01*
X324643Y557661D01*
X324683Y557739D01*
X324691Y557787D01*
X324713Y557845D01*
X324725Y557993D01*
X324738Y558070D01*
X324738Y559886D01*
X325570Y561894D01*
X327106Y563430D01*
X329114Y564262D01*
X331286Y564262D01*
X333294Y563430D01*
X334830Y561894D01*
X335662Y559886D01*
X335662Y557714D01*
X334830Y555706D01*
X333294Y554170D01*
X331286Y553338D01*
X329470Y553338D01*
X329384Y553326D01*
X329296Y553323D01*
X329244Y553306D01*
X329189Y553298D01*
X329109Y553263D01*
X329026Y553236D01*
X328987Y553208D01*
X328929Y553182D01*
X328816Y553086D01*
X328752Y553041D01*
X320846Y545135D01*
X320794Y545065D01*
X320734Y545001D01*
X320708Y544951D01*
X320675Y544907D01*
X320644Y544826D01*
X320604Y544748D01*
X320596Y544700D01*
X320574Y544642D01*
X320562Y544494D01*
X320549Y544417D01*
X320549Y535083D01*
X320556Y535029D01*
X320555Y534989D01*
X320562Y534963D01*
X320564Y534909D01*
X320581Y534857D01*
X320589Y534802D01*
X320624Y534722D01*
X320651Y534639D01*
X320679Y534600D01*
X320705Y534542D01*
X320801Y534429D01*
X320846Y534365D01*
X331165Y524046D01*
X331235Y523994D01*
X331299Y523934D01*
X331349Y523908D01*
X331393Y523875D01*
X331474Y523844D01*
X331552Y523804D01*
X331600Y523796D01*
X331658Y523774D01*
X331806Y523762D01*
X331883Y523749D01*
X341217Y523749D01*
X341303Y523761D01*
X341391Y523764D01*
X341443Y523781D01*
X341498Y523789D01*
X341578Y523824D01*
X341661Y523851D01*
X341700Y523879D01*
X341758Y523905D01*
X341871Y524001D01*
X341935Y524046D01*
X348190Y530301D01*
X348242Y530371D01*
X348302Y530435D01*
X348328Y530485D01*
X348361Y530529D01*
X348392Y530610D01*
X348432Y530688D01*
X348440Y530736D01*
X348462Y530794D01*
X348467Y530857D01*
X348473Y530876D01*
X348475Y530947D01*
X348487Y531019D01*
X348487Y531621D01*
X348487Y531623D01*
X348487Y531624D01*
X348467Y531764D01*
X348447Y531903D01*
X348447Y531904D01*
X348447Y531906D01*
X348390Y532032D01*
X348331Y532162D01*
X348330Y532163D01*
X348329Y532165D01*
X348238Y532272D01*
X348148Y532379D01*
X348146Y532380D01*
X348145Y532381D01*
X348132Y532389D01*
X347911Y532537D01*
X347882Y532546D01*
X347861Y532559D01*
X346029Y533318D01*
X344493Y534854D01*
X343661Y536862D01*
X343661Y539034D01*
X344493Y541042D01*
X346029Y542578D01*
X348037Y543410D01*
X350209Y543410D01*
X351147Y543021D01*
X351259Y542993D01*
X351368Y542958D01*
X351396Y542957D01*
X351423Y542950D01*
X351537Y542953D01*
X351652Y542951D01*
X351679Y542958D01*
X351707Y542958D01*
X351816Y542993D01*
X351927Y543022D01*
X351951Y543037D01*
X351978Y543045D01*
X352073Y543109D01*
X352172Y543168D01*
X352191Y543188D01*
X352214Y543203D01*
X352288Y543291D01*
X352366Y543375D01*
X352379Y543400D01*
X352397Y543421D01*
X352443Y543526D01*
X352496Y543628D01*
X352500Y543653D01*
X352512Y543681D01*
X352549Y543944D01*
X352551Y543959D01*
X352551Y553704D01*
X352539Y553791D01*
X352536Y553878D01*
X352519Y553931D01*
X352511Y553986D01*
X352476Y554065D01*
X352449Y554149D01*
X352421Y554188D01*
X352395Y554245D01*
X352299Y554358D01*
X352254Y554422D01*
X350970Y555706D01*
X350138Y557714D01*
X350138Y559886D01*
X350970Y561894D01*
X352506Y563430D01*
X354514Y564262D01*
X356686Y564262D01*
X358694Y563430D01*
X360230Y561894D01*
X361062Y559886D01*
X361062Y557714D01*
X360888Y557295D01*
X360881Y557266D01*
X360867Y557240D01*
X360846Y557129D01*
X360817Y557019D01*
X360818Y556990D01*
X360812Y556961D01*
X360822Y556848D01*
X360825Y556735D01*
X360834Y556707D01*
X360837Y556678D01*
X360878Y556572D01*
X360912Y556464D01*
X360928Y556440D01*
X360939Y556413D01*
X361007Y556322D01*
X361070Y556228D01*
X361093Y556209D01*
X361110Y556186D01*
X361201Y556118D01*
X361288Y556045D01*
X361315Y556033D01*
X361338Y556016D01*
X361444Y555976D01*
X361548Y555930D01*
X361577Y555926D01*
X361604Y555915D01*
X361717Y555906D01*
X361829Y555891D01*
X361858Y555895D01*
X361888Y555893D01*
X361964Y555910D01*
X362111Y555932D01*
X362168Y555957D01*
X362215Y555968D01*
X362634Y556142D01*
X364806Y556142D01*
X366638Y555383D01*
X366639Y555383D01*
X366641Y555382D01*
X366775Y555348D01*
X366913Y555312D01*
X366915Y555312D01*
X366916Y555312D01*
X367057Y555316D01*
X367197Y555320D01*
X367199Y555321D01*
X367200Y555321D01*
X367333Y555364D01*
X367468Y555407D01*
X367469Y555408D01*
X367471Y555408D01*
X367483Y555417D01*
X367704Y555565D01*
X367724Y555589D01*
X367744Y555603D01*
X375971Y563829D01*
X375971Y563830D01*
X378054Y565913D01*
X396081Y565913D01*
X396167Y565925D01*
X396255Y565928D01*
X396307Y565945D01*
X396362Y565953D01*
X396442Y565988D01*
X396525Y566015D01*
X396564Y566043D01*
X396622Y566069D01*
X396735Y566165D01*
X396799Y566210D01*
X401745Y571156D01*
X401797Y571226D01*
X401857Y571290D01*
X401882Y571339D01*
X401915Y571383D01*
X401947Y571465D01*
X401986Y571543D01*
X401994Y571590D01*
X402017Y571649D01*
X402029Y571797D01*
X402042Y571874D01*
X402042Y573690D01*
X402430Y574628D01*
X402459Y574739D01*
X402494Y574849D01*
X402495Y574877D01*
X402501Y574903D01*
X402498Y575018D01*
X402501Y575133D01*
X402494Y575160D01*
X402493Y575188D01*
X402458Y575297D01*
X402429Y575408D01*
X402415Y575432D01*
X402407Y575458D01*
X402343Y575554D01*
X402284Y575652D01*
X402264Y575671D01*
X402248Y575694D01*
X402160Y575768D01*
X402077Y575847D01*
X402052Y575860D01*
X402031Y575877D01*
X401926Y575924D01*
X401824Y575976D01*
X401799Y575981D01*
X401771Y575993D01*
X401507Y576029D01*
X401493Y576032D01*
X334057Y576032D01*
X331973Y578115D01*
X327151Y582937D01*
X327151Y633317D01*
X327139Y633403D01*
X327136Y633491D01*
X327119Y633543D01*
X327111Y633598D01*
X327076Y633678D01*
X327049Y633761D01*
X327021Y633800D01*
X326995Y633858D01*
X326899Y633971D01*
X326854Y634035D01*
X324695Y636194D01*
X324671Y636211D01*
X324652Y636234D01*
X324558Y636296D01*
X324468Y636364D01*
X324440Y636375D01*
X324416Y636391D01*
X324308Y636425D01*
X324202Y636466D01*
X324173Y636468D01*
X324145Y636477D01*
X324031Y636480D01*
X323919Y636489D01*
X323890Y636484D01*
X323861Y636484D01*
X323751Y636456D01*
X323640Y636433D01*
X323614Y636420D01*
X323586Y636412D01*
X323488Y636355D01*
X323388Y636302D01*
X323366Y636282D01*
X323341Y636267D01*
X323264Y636185D01*
X323182Y636107D01*
X323167Y636081D01*
X323147Y636060D01*
X323095Y635959D01*
X323038Y635861D01*
X323031Y635833D01*
X323017Y635807D01*
X323004Y635729D01*
X322968Y635586D01*
X322970Y635523D01*
X322962Y635476D01*
X322962Y633914D01*
X322130Y631906D01*
X320594Y630370D01*
X318586Y629538D01*
X316770Y629538D01*
X316684Y629526D01*
X316596Y629523D01*
X316544Y629506D01*
X316489Y629498D01*
X316409Y629463D01*
X316326Y629436D01*
X316287Y629408D01*
X316229Y629382D01*
X316116Y629286D01*
X316052Y629241D01*
X272459Y585648D01*
X272407Y585578D01*
X272347Y585514D01*
X272321Y585464D01*
X272288Y585420D01*
X272257Y585339D01*
X272217Y585261D01*
X272209Y585213D01*
X272187Y585155D01*
X272176Y585020D01*
X272176Y585019D01*
X272175Y585007D01*
X272162Y584930D01*
X272162Y583114D01*
X271330Y581106D01*
X269794Y579570D01*
X267786Y578738D01*
X265614Y578738D01*
X263606Y579570D01*
X262070Y581106D01*
X261238Y583114D01*
X261238Y585286D01*
X262070Y587294D01*
X263606Y588830D01*
X265614Y589662D01*
X267430Y589662D01*
X267516Y589674D01*
X267604Y589677D01*
X267656Y589694D01*
X267711Y589702D01*
X267791Y589737D01*
X267874Y589764D01*
X267913Y589792D01*
X267971Y589818D01*
X268084Y589914D01*
X268148Y589959D01*
X311741Y633552D01*
X311793Y633622D01*
X311853Y633686D01*
X311879Y633736D01*
X311912Y633780D01*
X311943Y633861D01*
X311983Y633939D01*
X311991Y633987D01*
X312013Y634045D01*
X312025Y634193D01*
X312038Y634270D01*
X312038Y636086D01*
X312870Y638094D01*
X314406Y639630D01*
X316414Y640462D01*
X317976Y640462D01*
X318005Y640466D01*
X318034Y640463D01*
X318145Y640486D01*
X318257Y640502D01*
X318284Y640514D01*
X318313Y640519D01*
X318413Y640571D01*
X318517Y640618D01*
X318539Y640637D01*
X318565Y640650D01*
X318647Y640728D01*
X318734Y640801D01*
X318750Y640826D01*
X318771Y640846D01*
X318828Y640944D01*
X318891Y641038D01*
X318900Y641066D01*
X318915Y641091D01*
X318943Y641201D01*
X318977Y641309D01*
X318978Y641339D01*
X318985Y641367D01*
X318981Y641480D01*
X318984Y641593D01*
X318977Y641622D01*
X318976Y641651D01*
X318941Y641759D01*
X318912Y641868D01*
X318897Y641894D01*
X318888Y641922D01*
X318843Y641985D01*
X318767Y642113D01*
X318722Y642156D01*
X318694Y642195D01*
X314451Y646437D01*
X314451Y699763D01*
X328937Y714249D01*
X414004Y714249D01*
X414091Y714261D01*
X414178Y714264D01*
X414231Y714281D01*
X414286Y714289D01*
X414365Y714324D01*
X414449Y714351D01*
X414488Y714379D01*
X414545Y714405D01*
X414658Y714501D01*
X414722Y714546D01*
X416006Y715830D01*
X418014Y716662D01*
X420186Y716662D01*
X422194Y715830D01*
X423730Y714294D01*
X424562Y712286D01*
X424562Y710114D01*
X423730Y708106D01*
X422194Y706570D01*
X420186Y705738D01*
X418014Y705738D01*
X416006Y706570D01*
X414722Y707854D01*
X414652Y707906D01*
X414588Y707966D01*
X414539Y707992D01*
X414495Y708025D01*
X414413Y708056D01*
X414335Y708096D01*
X414288Y708104D01*
X414229Y708126D01*
X414081Y708138D01*
X414004Y708151D01*
X331883Y708151D01*
X331797Y708139D01*
X331709Y708136D01*
X331657Y708119D01*
X331602Y708111D01*
X331522Y708076D01*
X331439Y708049D01*
X331400Y708021D01*
X331342Y707995D01*
X331229Y707899D01*
X331165Y707854D01*
X320846Y697535D01*
X320794Y697465D01*
X320734Y697401D01*
X320708Y697351D01*
X320675Y697307D01*
X320644Y697226D01*
X320604Y697148D01*
X320596Y697100D01*
X320574Y697042D01*
X320562Y696894D01*
X320549Y696817D01*
X320549Y649383D01*
X320561Y649297D01*
X320564Y649209D01*
X320581Y649157D01*
X320589Y649102D01*
X320624Y649022D01*
X320651Y648939D01*
X320679Y648900D01*
X320705Y648842D01*
X320801Y648729D01*
X320846Y648665D01*
X333249Y636263D01*
X333249Y585883D01*
X333261Y585797D01*
X333264Y585709D01*
X333281Y585657D01*
X333289Y585602D01*
X333324Y585522D01*
X333351Y585439D01*
X333379Y585400D01*
X333405Y585342D01*
X333464Y585272D01*
X333488Y585232D01*
X333520Y585202D01*
X333546Y585165D01*
X336285Y582427D01*
X336355Y582374D01*
X336419Y582314D01*
X336468Y582289D01*
X336512Y582256D01*
X336594Y582225D01*
X336672Y582185D01*
X336719Y582177D01*
X336778Y582155D01*
X336925Y582142D01*
X337003Y582129D01*
X400389Y582129D01*
X400503Y582145D01*
X400617Y582155D01*
X400643Y582165D01*
X400670Y582169D01*
X400775Y582216D01*
X400882Y582257D01*
X400904Y582274D01*
X400930Y582285D01*
X401017Y582360D01*
X401109Y582429D01*
X401126Y582451D01*
X401147Y582469D01*
X401210Y582565D01*
X401279Y582657D01*
X401289Y582683D01*
X401304Y582706D01*
X401339Y582815D01*
X401380Y582923D01*
X401382Y582950D01*
X401390Y582977D01*
X401393Y583092D01*
X401402Y583206D01*
X401397Y583230D01*
X401397Y583261D01*
X401330Y583518D01*
X401327Y583533D01*
X400938Y584471D01*
X400938Y586644D01*
X401770Y588652D01*
X403306Y590188D01*
X405314Y591019D01*
X407486Y591019D01*
X409494Y590188D01*
X411030Y588651D01*
X411352Y587875D01*
X411352Y587874D01*
X411353Y587873D01*
X411423Y587755D01*
X411496Y587631D01*
X411497Y587629D01*
X411498Y587628D01*
X411601Y587532D01*
X411703Y587435D01*
X411704Y587435D01*
X411705Y587434D01*
X411831Y587369D01*
X411956Y587305D01*
X411957Y587305D01*
X411959Y587304D01*
X411973Y587302D01*
X412234Y587250D01*
X412265Y587253D01*
X412290Y587249D01*
X417417Y587249D01*
X417503Y587261D01*
X417591Y587264D01*
X417643Y587281D01*
X417698Y587289D01*
X417778Y587324D01*
X417861Y587351D01*
X417900Y587379D01*
X417958Y587405D01*
X418071Y587501D01*
X418135Y587546D01*
X430537Y599949D01*
X439404Y599949D01*
X439491Y599961D01*
X439578Y599964D01*
X439631Y599981D01*
X439686Y599989D01*
X439765Y600024D01*
X439849Y600051D01*
X439888Y600079D01*
X439945Y600105D01*
X440058Y600201D01*
X440122Y600246D01*
X441406Y601530D01*
X443414Y602362D01*
X445586Y602362D01*
X447594Y601530D01*
X449130Y599994D01*
X449912Y598106D01*
X449927Y598081D01*
X449936Y598053D01*
X449999Y597959D01*
X450057Y597862D01*
X450078Y597841D01*
X450094Y597817D01*
X450181Y597744D01*
X450263Y597666D01*
X450289Y597653D01*
X450312Y597634D01*
X450415Y597588D01*
X450516Y597536D01*
X450545Y597531D01*
X450572Y597519D01*
X450684Y597503D01*
X450795Y597481D01*
X450824Y597484D01*
X450853Y597480D01*
X450965Y597496D01*
X451078Y597506D01*
X451105Y597516D01*
X451135Y597520D01*
X451238Y597567D01*
X451343Y597608D01*
X451367Y597625D01*
X451394Y597637D01*
X451480Y597711D01*
X451570Y597779D01*
X451588Y597803D01*
X451610Y597822D01*
X451652Y597888D01*
X451740Y598007D01*
X451762Y598066D01*
X451788Y598106D01*
X452570Y599994D01*
X454106Y601530D01*
X456114Y602362D01*
X458286Y602362D01*
X460294Y601530D01*
X461830Y599994D01*
X462662Y597986D01*
X462662Y596170D01*
X462674Y596084D01*
X462677Y595996D01*
X462694Y595944D01*
X462702Y595889D01*
X462737Y595809D01*
X462764Y595726D01*
X462792Y595687D01*
X462818Y595629D01*
X462914Y595516D01*
X462959Y595452D01*
X465118Y593293D01*
X465142Y593276D01*
X465161Y593253D01*
X465255Y593191D01*
X465345Y593123D01*
X465373Y593112D01*
X465397Y593096D01*
X465505Y593062D01*
X465611Y593021D01*
X465640Y593019D01*
X465668Y593010D01*
X465782Y593007D01*
X465894Y592998D01*
X465923Y593003D01*
X465952Y593003D01*
X466062Y593031D01*
X466173Y593054D01*
X466199Y593067D01*
X466227Y593075D01*
X466325Y593132D01*
X466425Y593185D01*
X466447Y593205D01*
X466472Y593220D01*
X466549Y593302D01*
X466631Y593380D01*
X466646Y593406D01*
X466666Y593427D01*
X466718Y593528D01*
X466775Y593626D01*
X466782Y593654D01*
X466796Y593680D01*
X466809Y593758D01*
X466845Y593901D01*
X466843Y593964D01*
X466851Y594011D01*
X466851Y598163D01*
X504654Y635965D01*
X504706Y636035D01*
X504766Y636099D01*
X504792Y636149D01*
X504825Y636193D01*
X504856Y636274D01*
X504896Y636352D01*
X504904Y636400D01*
X504926Y636458D01*
X504938Y636606D01*
X504951Y636683D01*
X504951Y658717D01*
X504939Y658803D01*
X504936Y658891D01*
X504919Y658943D01*
X504911Y658998D01*
X504876Y659078D01*
X504849Y659161D01*
X504821Y659200D01*
X504795Y659258D01*
X504699Y659371D01*
X504654Y659435D01*
X494335Y669754D01*
X494265Y669806D01*
X494201Y669866D01*
X494151Y669892D01*
X494107Y669925D01*
X494026Y669956D01*
X493948Y669996D01*
X493900Y670004D01*
X493842Y670026D01*
X493694Y670038D01*
X493617Y670051D01*
X484283Y670051D01*
X484197Y670039D01*
X484109Y670036D01*
X484057Y670019D01*
X484002Y670011D01*
X483922Y669976D01*
X483839Y669949D01*
X483800Y669921D01*
X483742Y669895D01*
X483629Y669799D01*
X483565Y669754D01*
X462959Y649148D01*
X462907Y649078D01*
X462847Y649014D01*
X462821Y648964D01*
X462788Y648920D01*
X462757Y648839D01*
X462717Y648761D01*
X462709Y648713D01*
X462687Y648655D01*
X462675Y648507D01*
X462662Y648430D01*
X462662Y646614D01*
X461830Y644606D01*
X460294Y643070D01*
X458286Y642238D01*
X456114Y642238D01*
X454106Y643070D01*
X452570Y644606D01*
X452063Y645830D01*
X452048Y645855D01*
X452039Y645883D01*
X451976Y645978D01*
X451918Y646075D01*
X451897Y646095D01*
X451881Y646119D01*
X451794Y646192D01*
X451712Y646270D01*
X451686Y646283D01*
X451663Y646302D01*
X451560Y646348D01*
X451459Y646400D01*
X451430Y646406D01*
X451403Y646418D01*
X451291Y646433D01*
X451180Y646455D01*
X451151Y646453D01*
X451122Y646457D01*
X451009Y646440D01*
X450897Y646431D01*
X450869Y646420D01*
X450840Y646416D01*
X450737Y646369D01*
X450631Y646329D01*
X450608Y646311D01*
X450581Y646299D01*
X450495Y646226D01*
X450405Y646157D01*
X450387Y646133D01*
X450365Y646115D01*
X450324Y646048D01*
X450235Y645929D01*
X450212Y645871D01*
X450187Y645830D01*
X449790Y644872D01*
X449137Y643894D01*
X448306Y643063D01*
X447328Y642410D01*
X446241Y641960D01*
X445515Y641815D01*
X445515Y647700D01*
X445515Y653585D01*
X446241Y653440D01*
X447328Y652990D01*
X448306Y652337D01*
X449137Y651506D01*
X449790Y650528D01*
X450187Y649570D01*
X450202Y649545D01*
X450211Y649517D01*
X450274Y649423D01*
X450331Y649325D01*
X450353Y649305D01*
X450369Y649281D01*
X450456Y649208D01*
X450538Y649130D01*
X450564Y649117D01*
X450587Y649098D01*
X450690Y649052D01*
X450791Y649000D01*
X450820Y648994D01*
X450846Y648982D01*
X450959Y648967D01*
X451070Y648945D01*
X451099Y648947D01*
X451128Y648943D01*
X451240Y648960D01*
X451353Y648969D01*
X451380Y648980D01*
X451409Y648984D01*
X451512Y649031D01*
X451618Y649071D01*
X451642Y649089D01*
X451668Y649101D01*
X451755Y649174D01*
X451845Y649243D01*
X451863Y649266D01*
X451885Y649285D01*
X451926Y649352D01*
X452015Y649471D01*
X452037Y649529D01*
X452063Y649570D01*
X452570Y650794D01*
X454106Y652330D01*
X456114Y653162D01*
X457930Y653162D01*
X458016Y653174D01*
X458104Y653177D01*
X458156Y653194D01*
X458211Y653202D01*
X458291Y653237D01*
X458374Y653264D01*
X458413Y653292D01*
X458471Y653318D01*
X458584Y653414D01*
X458648Y653459D01*
X481337Y676149D01*
X496563Y676149D01*
X500297Y672414D01*
X500321Y672397D01*
X500340Y672374D01*
X500434Y672312D01*
X500524Y672244D01*
X500552Y672233D01*
X500576Y672217D01*
X500684Y672183D01*
X500790Y672142D01*
X500819Y672140D01*
X500847Y672131D01*
X500961Y672128D01*
X501073Y672119D01*
X501102Y672124D01*
X501131Y672124D01*
X501241Y672152D01*
X501352Y672175D01*
X501378Y672188D01*
X501406Y672196D01*
X501504Y672253D01*
X501604Y672306D01*
X501626Y672326D01*
X501651Y672341D01*
X501728Y672423D01*
X501810Y672501D01*
X501825Y672527D01*
X501845Y672548D01*
X501897Y672649D01*
X501954Y672747D01*
X501961Y672775D01*
X501975Y672801D01*
X501988Y672879D01*
X502024Y673022D01*
X502022Y673085D01*
X502030Y673132D01*
X502030Y673688D01*
X502260Y674841D01*
X502710Y675928D01*
X503363Y676906D01*
X504194Y677737D01*
X505172Y678390D01*
X506259Y678840D01*
X506985Y678985D01*
X506985Y673100D01*
X506993Y673042D01*
X506991Y672984D01*
X507013Y672902D01*
X507024Y672819D01*
X507048Y672765D01*
X507063Y672709D01*
X507106Y672636D01*
X507141Y672559D01*
X507178Y672515D01*
X507208Y672465D01*
X507209Y672464D01*
X507270Y672407D01*
X507324Y672342D01*
X507325Y672342D01*
X507373Y672310D01*
X507416Y672269D01*
X507491Y672231D01*
X507561Y672184D01*
X507617Y672167D01*
X507669Y672140D01*
X507737Y672129D01*
X507832Y672099D01*
X507932Y672096D01*
X508000Y672085D01*
X513885Y672085D01*
X513740Y671359D01*
X513290Y670272D01*
X512637Y669294D01*
X511806Y668463D01*
X510828Y667810D01*
X509741Y667360D01*
X508588Y667130D01*
X508032Y667130D01*
X508003Y667126D01*
X507974Y667129D01*
X507863Y667106D01*
X507751Y667090D01*
X507724Y667078D01*
X507695Y667073D01*
X507595Y667020D01*
X507491Y666974D01*
X507469Y666955D01*
X507443Y666942D01*
X507361Y666864D01*
X507274Y666791D01*
X507258Y666766D01*
X507237Y666746D01*
X507180Y666648D01*
X507117Y666554D01*
X507108Y666526D01*
X507093Y666501D01*
X507065Y666391D01*
X507031Y666283D01*
X507030Y666253D01*
X507023Y666225D01*
X507027Y666112D01*
X507024Y665999D01*
X507031Y665970D01*
X507032Y665941D01*
X507067Y665833D01*
X507096Y665724D01*
X507110Y665698D01*
X507120Y665670D01*
X507165Y665606D01*
X507241Y665479D01*
X507280Y665442D01*
X507284Y665436D01*
X507292Y665429D01*
X507314Y665397D01*
X508965Y663746D01*
X508966Y663746D01*
X511049Y661663D01*
X511049Y633737D01*
X473286Y595975D01*
X473269Y595951D01*
X473246Y595932D01*
X473183Y595838D01*
X473115Y595748D01*
X473105Y595720D01*
X473089Y595696D01*
X473055Y595588D01*
X473014Y595482D01*
X473012Y595453D01*
X473003Y595425D01*
X473000Y595311D01*
X472991Y595199D01*
X472996Y595170D01*
X472996Y595141D01*
X473024Y595031D01*
X473047Y594920D01*
X473060Y594894D01*
X473067Y594866D01*
X473125Y594768D01*
X473178Y594668D01*
X473198Y594646D01*
X473213Y594621D01*
X473295Y594544D01*
X473373Y594461D01*
X473399Y594447D01*
X473420Y594427D01*
X473521Y594375D01*
X473619Y594318D01*
X473647Y594311D01*
X473673Y594297D01*
X473751Y594284D01*
X473894Y594248D01*
X473957Y594250D01*
X474004Y594242D01*
X475566Y594242D01*
X477574Y593410D01*
X479110Y591874D01*
X479942Y589866D01*
X479942Y587694D01*
X479110Y585686D01*
X477574Y584150D01*
X476636Y583761D01*
X476547Y583709D01*
X476485Y583681D01*
X476469Y583668D01*
X476435Y583650D01*
X476415Y583631D01*
X476391Y583617D01*
X476319Y583541D01*
X476268Y583497D01*
X476257Y583481D01*
X476229Y583454D01*
X476215Y583430D01*
X476196Y583410D01*
X476148Y583318D01*
X476110Y583261D01*
X476104Y583241D01*
X476085Y583209D01*
X476078Y583182D01*
X476065Y583157D01*
X476046Y583057D01*
X476024Y582990D01*
X476024Y582968D01*
X476015Y582933D01*
X476016Y582906D01*
X476010Y582878D01*
X476019Y582780D01*
X476017Y582705D01*
X476023Y582683D01*
X476024Y582649D01*
X476033Y582623D01*
X476035Y582595D01*
X476069Y582506D01*
X476089Y582430D01*
X476102Y582409D01*
X476111Y582379D01*
X476126Y582358D01*
X476137Y582330D01*
X476192Y582258D01*
X476234Y582186D01*
X476274Y582148D01*
X476298Y582117D01*
X476306Y582105D01*
X476308Y582103D01*
X476309Y582103D01*
X521665Y536746D01*
X521735Y536694D01*
X521799Y536634D01*
X521849Y536608D01*
X521893Y536575D01*
X521974Y536544D01*
X522052Y536504D01*
X522100Y536496D01*
X522158Y536474D01*
X522306Y536462D01*
X522383Y536449D01*
X574389Y536449D01*
X574418Y536453D01*
X574447Y536450D01*
X574558Y536473D01*
X574670Y536489D01*
X574697Y536501D01*
X574726Y536506D01*
X574826Y536559D01*
X574930Y536605D01*
X574952Y536624D01*
X574978Y536637D01*
X575060Y536715D01*
X575147Y536788D01*
X575163Y536813D01*
X575184Y536833D01*
X575241Y536931D01*
X575304Y537025D01*
X575313Y537053D01*
X575328Y537078D01*
X575356Y537188D01*
X575390Y537296D01*
X575391Y537326D01*
X575398Y537354D01*
X575394Y537467D01*
X575397Y537580D01*
X575390Y537609D01*
X575389Y537638D01*
X575354Y537746D01*
X575325Y537855D01*
X575311Y537881D01*
X575301Y537909D01*
X575256Y537973D01*
X575180Y538100D01*
X575135Y538143D01*
X575107Y538182D01*
X574377Y538912D01*
X555751Y557537D01*
X555751Y591804D01*
X555739Y591891D01*
X555736Y591978D01*
X555719Y592031D01*
X555711Y592086D01*
X555676Y592165D01*
X555649Y592249D01*
X555621Y592288D01*
X555595Y592345D01*
X555499Y592458D01*
X555454Y592522D01*
X554170Y593806D01*
X553388Y595694D01*
X553373Y595719D01*
X553364Y595747D01*
X553301Y595841D01*
X553243Y595938D01*
X553222Y595959D01*
X553206Y595983D01*
X553119Y596056D01*
X553037Y596134D01*
X553011Y596147D01*
X552988Y596166D01*
X552885Y596212D01*
X552784Y596264D01*
X552755Y596269D01*
X552728Y596281D01*
X552616Y596297D01*
X552505Y596319D01*
X552476Y596316D01*
X552447Y596320D01*
X552335Y596304D01*
X552222Y596294D01*
X552195Y596284D01*
X552165Y596280D01*
X552062Y596233D01*
X551957Y596192D01*
X551933Y596175D01*
X551906Y596163D01*
X551820Y596089D01*
X551730Y596021D01*
X551712Y595997D01*
X551690Y595978D01*
X551648Y595912D01*
X551560Y595793D01*
X551538Y595734D01*
X551512Y595694D01*
X550730Y593806D01*
X549446Y592522D01*
X549394Y592452D01*
X549334Y592388D01*
X549308Y592339D01*
X549275Y592295D01*
X549244Y592213D01*
X549204Y592135D01*
X549196Y592088D01*
X549174Y592029D01*
X549162Y591881D01*
X549149Y591804D01*
X549149Y563896D01*
X549161Y563809D01*
X549164Y563722D01*
X549181Y563669D01*
X549189Y563614D01*
X549224Y563535D01*
X549251Y563451D01*
X549279Y563412D01*
X549305Y563355D01*
X549401Y563242D01*
X549446Y563178D01*
X550730Y561894D01*
X551562Y559886D01*
X551562Y557714D01*
X550730Y555706D01*
X549194Y554170D01*
X547186Y553338D01*
X545014Y553338D01*
X543006Y554170D01*
X541470Y555706D01*
X540638Y557714D01*
X540638Y559886D01*
X541470Y561894D01*
X542754Y563178D01*
X542806Y563248D01*
X542866Y563312D01*
X542892Y563361D01*
X542925Y563405D01*
X542956Y563487D01*
X542996Y563565D01*
X543004Y563612D01*
X543026Y563671D01*
X543038Y563819D01*
X543051Y563896D01*
X543051Y591804D01*
X543039Y591891D01*
X543036Y591978D01*
X543019Y592031D01*
X543011Y592086D01*
X542976Y592165D01*
X542949Y592249D01*
X542921Y592288D01*
X542895Y592345D01*
X542799Y592458D01*
X542754Y592522D01*
X541470Y593806D01*
X540688Y595694D01*
X540673Y595719D01*
X540664Y595747D01*
X540601Y595841D01*
X540543Y595938D01*
X540522Y595959D01*
X540506Y595983D01*
X540419Y596056D01*
X540337Y596134D01*
X540311Y596147D01*
X540288Y596166D01*
X540185Y596212D01*
X540084Y596264D01*
X540055Y596270D01*
X540028Y596281D01*
X539916Y596297D01*
X539805Y596319D01*
X539776Y596316D01*
X539747Y596320D01*
X539635Y596304D01*
X539522Y596294D01*
X539495Y596284D01*
X539466Y596280D01*
X539362Y596233D01*
X539257Y596192D01*
X539233Y596175D01*
X539206Y596163D01*
X539120Y596089D01*
X539030Y596021D01*
X539012Y595997D01*
X538990Y595978D01*
X538948Y595912D01*
X538860Y595793D01*
X538838Y595735D01*
X538812Y595694D01*
X538030Y593806D01*
X536746Y592522D01*
X536694Y592452D01*
X536634Y592388D01*
X536608Y592339D01*
X536575Y592295D01*
X536544Y592213D01*
X536504Y592135D01*
X536496Y592088D01*
X536474Y592029D01*
X536462Y591881D01*
X536449Y591804D01*
X536449Y570237D01*
X526459Y560248D01*
X526407Y560178D01*
X526347Y560114D01*
X526321Y560064D01*
X526288Y560020D01*
X526257Y559939D01*
X526217Y559861D01*
X526209Y559813D01*
X526187Y559755D01*
X526178Y559646D01*
X526176Y559639D01*
X526175Y559610D01*
X526175Y559607D01*
X526162Y559530D01*
X526162Y557714D01*
X525330Y555706D01*
X523794Y554170D01*
X521786Y553338D01*
X519614Y553338D01*
X517606Y554170D01*
X516070Y555706D01*
X515238Y557714D01*
X515238Y559886D01*
X516070Y561894D01*
X517606Y563430D01*
X519614Y564262D01*
X521430Y564262D01*
X521516Y564274D01*
X521604Y564277D01*
X521656Y564294D01*
X521711Y564302D01*
X521791Y564337D01*
X521874Y564364D01*
X521913Y564392D01*
X521971Y564418D01*
X522084Y564514D01*
X522148Y564559D01*
X530054Y572465D01*
X530106Y572535D01*
X530166Y572599D01*
X530192Y572649D01*
X530225Y572693D01*
X530256Y572774D01*
X530296Y572852D01*
X530304Y572900D01*
X530326Y572958D01*
X530338Y573106D01*
X530351Y573183D01*
X530351Y591804D01*
X530339Y591891D01*
X530336Y591978D01*
X530319Y592031D01*
X530311Y592086D01*
X530276Y592165D01*
X530249Y592249D01*
X530221Y592288D01*
X530195Y592345D01*
X530099Y592458D01*
X530054Y592522D01*
X528770Y593806D01*
X527938Y595814D01*
X527938Y597986D01*
X528770Y599994D01*
X530306Y601530D01*
X532314Y602362D01*
X534486Y602362D01*
X536494Y601530D01*
X538030Y599994D01*
X538812Y598106D01*
X538827Y598081D01*
X538836Y598053D01*
X538899Y597959D01*
X538957Y597862D01*
X538978Y597841D01*
X538994Y597817D01*
X539081Y597744D01*
X539163Y597666D01*
X539189Y597653D01*
X539212Y597634D01*
X539315Y597588D01*
X539416Y597536D01*
X539445Y597531D01*
X539472Y597519D01*
X539584Y597503D01*
X539695Y597481D01*
X539724Y597484D01*
X539753Y597480D01*
X539865Y597496D01*
X539978Y597506D01*
X540005Y597516D01*
X540035Y597520D01*
X540138Y597567D01*
X540243Y597608D01*
X540267Y597625D01*
X540294Y597637D01*
X540380Y597711D01*
X540470Y597779D01*
X540488Y597803D01*
X540510Y597822D01*
X540552Y597888D01*
X540640Y598007D01*
X540662Y598066D01*
X540688Y598106D01*
X541470Y599994D01*
X543006Y601530D01*
X545014Y602362D01*
X547186Y602362D01*
X549194Y601530D01*
X550730Y599994D01*
X551512Y598106D01*
X551527Y598081D01*
X551536Y598053D01*
X551599Y597959D01*
X551657Y597862D01*
X551678Y597841D01*
X551694Y597817D01*
X551781Y597744D01*
X551863Y597666D01*
X551889Y597653D01*
X551912Y597634D01*
X552015Y597588D01*
X552116Y597536D01*
X552145Y597530D01*
X552172Y597519D01*
X552284Y597503D01*
X552395Y597481D01*
X552424Y597484D01*
X552453Y597480D01*
X552565Y597496D01*
X552678Y597506D01*
X552705Y597516D01*
X552734Y597520D01*
X552838Y597567D01*
X552943Y597608D01*
X552967Y597625D01*
X552994Y597637D01*
X553080Y597711D01*
X553170Y597779D01*
X553188Y597803D01*
X553210Y597822D01*
X553252Y597888D01*
X553340Y598007D01*
X553362Y598065D01*
X553388Y598106D01*
X554170Y599994D01*
X555706Y601530D01*
X557714Y602362D01*
X559886Y602362D01*
X561894Y601530D01*
X563430Y599994D01*
X564262Y597986D01*
X564262Y595814D01*
X563430Y593806D01*
X562146Y592522D01*
X562094Y592452D01*
X562034Y592388D01*
X562008Y592339D01*
X561975Y592295D01*
X561944Y592213D01*
X561904Y592135D01*
X561896Y592088D01*
X561874Y592029D01*
X561862Y591881D01*
X561849Y591804D01*
X561849Y560483D01*
X561857Y560426D01*
X561855Y560370D01*
X561863Y560342D01*
X561864Y560309D01*
X561881Y560257D01*
X561889Y560202D01*
X561914Y560144D01*
X561927Y560095D01*
X561940Y560073D01*
X561951Y560039D01*
X561979Y560000D01*
X562005Y559942D01*
X562048Y559891D01*
X562072Y559850D01*
X562112Y559813D01*
X562146Y559765D01*
X578688Y543223D01*
X578758Y543171D01*
X578822Y543111D01*
X578872Y543085D01*
X578916Y543052D01*
X578997Y543021D01*
X579075Y542981D01*
X579123Y542973D01*
X579181Y542951D01*
X579329Y542939D01*
X579406Y542926D01*
X664346Y542926D01*
X669926Y537346D01*
X669926Y529454D01*
X665286Y524814D01*
X665285Y524813D01*
X665284Y524812D01*
X665199Y524699D01*
X665115Y524587D01*
X665114Y524586D01*
X665113Y524584D01*
X665063Y524450D01*
X665014Y524322D01*
X665014Y524320D01*
X665013Y524319D01*
X665001Y524173D01*
X664990Y524038D01*
X664990Y524037D01*
X664990Y524035D01*
X664994Y524020D01*
X665046Y523760D01*
X665060Y523732D01*
X665066Y523708D01*
X665862Y521786D01*
X665862Y519614D01*
X665030Y517606D01*
X663494Y516070D01*
X661486Y515238D01*
X659314Y515238D01*
X657306Y516070D01*
X655770Y517606D01*
X654938Y519614D01*
X654938Y521786D01*
X655770Y523794D01*
X657054Y525078D01*
X657106Y525148D01*
X657166Y525212D01*
X657192Y525261D01*
X657225Y525305D01*
X657256Y525387D01*
X657278Y525429D01*
X658574Y526725D01*
X658643Y526817D01*
X658717Y526905D01*
X658728Y526930D01*
X658745Y526953D01*
X658786Y527060D01*
X658832Y527165D01*
X658836Y527192D01*
X658846Y527218D01*
X658855Y527333D01*
X658871Y527446D01*
X658867Y527474D01*
X658869Y527501D01*
X658847Y527614D01*
X658830Y527728D01*
X658819Y527753D01*
X658813Y527780D01*
X658761Y527882D01*
X658713Y527987D01*
X658695Y528008D01*
X658683Y528033D01*
X658603Y528116D01*
X658529Y528203D01*
X658508Y528216D01*
X658487Y528239D01*
X658257Y528373D01*
X658244Y528381D01*
X657306Y528770D01*
X656022Y530054D01*
X655952Y530106D01*
X655888Y530166D01*
X655839Y530192D01*
X655795Y530225D01*
X655713Y530256D01*
X655635Y530296D01*
X655588Y530304D01*
X655529Y530326D01*
X655381Y530338D01*
X655304Y530351D01*
X519437Y530351D01*
X517354Y532435D01*
X463724Y586065D01*
X463655Y586116D01*
X463593Y586175D01*
X463542Y586201D01*
X463497Y586235D01*
X463416Y586266D01*
X463340Y586305D01*
X463284Y586316D01*
X463231Y586337D01*
X463145Y586344D01*
X463061Y586360D01*
X463004Y586356D01*
X462948Y586360D01*
X462864Y586343D01*
X462778Y586336D01*
X462725Y586316D01*
X462669Y586304D01*
X462593Y586265D01*
X462513Y586234D01*
X462467Y586200D01*
X462417Y586173D01*
X462354Y586114D01*
X462286Y586062D01*
X462252Y586017D01*
X462211Y585978D01*
X462167Y585903D01*
X462116Y585835D01*
X462096Y585781D01*
X462067Y585732D01*
X462046Y585649D01*
X462015Y585569D01*
X462011Y585512D01*
X461997Y585457D01*
X461999Y585371D01*
X461993Y585285D01*
X462004Y585237D01*
X462006Y585173D01*
X462050Y585035D01*
X462068Y584958D01*
X462146Y584770D01*
X462146Y582954D01*
X462158Y582868D01*
X462161Y582780D01*
X462178Y582728D01*
X462186Y582673D01*
X462221Y582593D01*
X462248Y582510D01*
X462276Y582471D01*
X462302Y582414D01*
X462398Y582300D01*
X462443Y582237D01*
X478470Y566210D01*
X478539Y566158D01*
X478603Y566098D01*
X478653Y566072D01*
X478697Y566039D01*
X478779Y566008D01*
X478856Y565968D01*
X478904Y565960D01*
X478962Y565938D01*
X479110Y565926D01*
X479187Y565913D01*
X479799Y565913D01*
X597865Y447846D01*
X597866Y447846D01*
X599949Y445763D01*
X599949Y424196D01*
X599961Y424109D01*
X599964Y424022D01*
X599981Y423969D01*
X599989Y423914D01*
X600024Y423835D01*
X600051Y423751D01*
X600079Y423712D01*
X600105Y423655D01*
X600201Y423542D01*
X600246Y423478D01*
X601530Y422194D01*
X602362Y420186D01*
X602362Y418014D01*
X601530Y416006D01*
X599994Y414470D01*
X597986Y413638D01*
X595814Y413638D01*
X593806Y414470D01*
X592270Y416006D01*
X591438Y418014D01*
X591438Y420186D01*
X592270Y422194D01*
X593554Y423478D01*
X593606Y423548D01*
X593666Y423612D01*
X593692Y423661D01*
X593725Y423705D01*
X593756Y423787D01*
X593796Y423865D01*
X593804Y423912D01*
X593826Y423971D01*
X593838Y424119D01*
X593851Y424196D01*
X593851Y442817D01*
X593839Y442903D01*
X593836Y442991D01*
X593819Y443043D01*
X593811Y443098D01*
X593776Y443178D01*
X593749Y443261D01*
X593721Y443300D01*
X593695Y443358D01*
X593599Y443471D01*
X593554Y443535D01*
X487382Y549707D01*
X487358Y549724D01*
X487339Y549747D01*
X487245Y549810D01*
X487155Y549877D01*
X487127Y549888D01*
X487103Y549904D01*
X486995Y549938D01*
X486889Y549979D01*
X486860Y549981D01*
X486832Y549990D01*
X486718Y549993D01*
X486606Y550002D01*
X486577Y549997D01*
X486548Y549997D01*
X486438Y549969D01*
X486327Y549946D01*
X486301Y549933D01*
X486273Y549925D01*
X486175Y549868D01*
X486075Y549815D01*
X486053Y549795D01*
X486028Y549780D01*
X485951Y549698D01*
X485869Y549620D01*
X485854Y549594D01*
X485834Y549573D01*
X485782Y549472D01*
X485725Y549374D01*
X485718Y549346D01*
X485704Y549320D01*
X485691Y549242D01*
X485655Y549099D01*
X485657Y549036D01*
X485649Y548989D01*
X485649Y544837D01*
X471163Y530351D01*
X430537Y530351D01*
X409499Y551390D01*
X409429Y551442D01*
X409365Y551502D01*
X409315Y551528D01*
X409271Y551561D01*
X409190Y551592D01*
X409112Y551632D01*
X409064Y551640D01*
X409006Y551662D01*
X408858Y551674D01*
X408781Y551687D01*
X391319Y551687D01*
X391233Y551675D01*
X391145Y551672D01*
X391093Y551655D01*
X391038Y551647D01*
X390958Y551612D01*
X390875Y551585D01*
X390836Y551557D01*
X390778Y551531D01*
X390665Y551435D01*
X390601Y551390D01*
X386037Y546826D01*
X386020Y546802D01*
X385997Y546783D01*
X385934Y546689D01*
X385866Y546599D01*
X385856Y546571D01*
X385840Y546547D01*
X385806Y546439D01*
X385765Y546333D01*
X385763Y546304D01*
X385754Y546276D01*
X385751Y546162D01*
X385742Y546050D01*
X385747Y546021D01*
X385747Y545992D01*
X385775Y545882D01*
X385798Y545771D01*
X385811Y545745D01*
X385818Y545717D01*
X385876Y545619D01*
X385929Y545519D01*
X385949Y545497D01*
X385964Y545472D01*
X386046Y545395D01*
X386124Y545312D01*
X386150Y545298D01*
X386171Y545278D01*
X386272Y545226D01*
X386370Y545169D01*
X386398Y545162D01*
X386424Y545148D01*
X386502Y545135D01*
X386645Y545099D01*
X386708Y545101D01*
X386755Y545093D01*
X395479Y545093D01*
X403226Y537346D01*
X403226Y529398D01*
X403225Y529398D01*
X403194Y529316D01*
X403154Y529238D01*
X403146Y529190D01*
X403124Y529132D01*
X403112Y528984D01*
X403099Y528907D01*
X403099Y525506D01*
X403111Y525420D01*
X403114Y525332D01*
X403131Y525280D01*
X403139Y525225D01*
X403174Y525145D01*
X403201Y525062D01*
X403229Y525023D01*
X403255Y524965D01*
X403351Y524852D01*
X403396Y524788D01*
X404952Y523232D01*
X405022Y523180D01*
X405086Y523120D01*
X405136Y523094D01*
X405180Y523061D01*
X405261Y523030D01*
X405339Y522990D01*
X405387Y522982D01*
X405445Y522960D01*
X405593Y522948D01*
X405670Y522935D01*
X407486Y522935D01*
X409494Y522103D01*
X411030Y520567D01*
X411862Y518559D01*
X411862Y516387D01*
X411030Y514379D01*
X409494Y512843D01*
X408334Y512362D01*
X408235Y512304D01*
X408133Y512251D01*
X408113Y512232D01*
X408089Y512218D01*
X408011Y512135D01*
X407927Y512055D01*
X407913Y512031D01*
X407894Y512011D01*
X407842Y511909D01*
X407784Y511810D01*
X407777Y511783D01*
X407764Y511759D01*
X407742Y511646D01*
X407714Y511535D01*
X407714Y511507D01*
X407709Y511480D01*
X407719Y511365D01*
X407723Y511250D01*
X407731Y511224D01*
X407733Y511196D01*
X407775Y511089D01*
X407810Y510980D01*
X407825Y510960D01*
X407836Y510931D01*
X407997Y510718D01*
X408005Y510707D01*
X408007Y510705D01*
X408007Y510704D01*
X508965Y409746D01*
X509035Y409694D01*
X509099Y409634D01*
X509149Y409608D01*
X509193Y409575D01*
X509274Y409544D01*
X509352Y409504D01*
X509400Y409496D01*
X509458Y409474D01*
X509606Y409462D01*
X509683Y409449D01*
X604504Y409449D01*
X604591Y409461D01*
X604678Y409464D01*
X604731Y409481D01*
X604786Y409489D01*
X604865Y409524D01*
X604949Y409551D01*
X604988Y409579D01*
X605045Y409605D01*
X605158Y409701D01*
X605222Y409746D01*
X606506Y411030D01*
X608514Y411862D01*
X610686Y411862D01*
X612694Y411030D01*
X614230Y409494D01*
X615062Y407486D01*
X615062Y405314D01*
X614230Y403306D01*
X612694Y401770D01*
X610686Y400938D01*
X608514Y400938D01*
X606506Y401770D01*
X605222Y403054D01*
X605152Y403106D01*
X605088Y403166D01*
X605039Y403192D01*
X604995Y403225D01*
X604913Y403256D01*
X604835Y403296D01*
X604788Y403304D01*
X604729Y403326D01*
X604581Y403338D01*
X604504Y403351D01*
X506737Y403351D01*
X502495Y407594D01*
X502471Y407611D01*
X502452Y407634D01*
X502358Y407696D01*
X502268Y407764D01*
X502240Y407775D01*
X502216Y407791D01*
X502108Y407825D01*
X502002Y407866D01*
X501973Y407868D01*
X501945Y407877D01*
X501831Y407880D01*
X501719Y407889D01*
X501690Y407884D01*
X501661Y407884D01*
X501551Y407856D01*
X501440Y407833D01*
X501414Y407820D01*
X501386Y407812D01*
X501288Y407755D01*
X501188Y407702D01*
X501166Y407682D01*
X501141Y407667D01*
X501064Y407585D01*
X500982Y407507D01*
X500967Y407481D01*
X500947Y407460D01*
X500895Y407359D01*
X500838Y407261D01*
X500831Y407233D01*
X500817Y407207D01*
X500804Y407129D01*
X500768Y406986D01*
X500770Y406923D01*
X500762Y406876D01*
X500762Y405314D01*
X499930Y403306D01*
X498646Y402022D01*
X498594Y401952D01*
X498534Y401888D01*
X498508Y401839D01*
X498475Y401795D01*
X498444Y401713D01*
X498404Y401635D01*
X498396Y401588D01*
X498374Y401529D01*
X498362Y401381D01*
X498349Y401304D01*
X498349Y322596D01*
X498361Y322509D01*
X498364Y322422D01*
X498381Y322369D01*
X498389Y322314D01*
X498424Y322235D01*
X498451Y322151D01*
X498479Y322112D01*
X498505Y322055D01*
X498601Y321942D01*
X498646Y321878D01*
X499930Y320594D01*
X500762Y318586D01*
X500762Y316414D01*
X499930Y314406D01*
X498394Y312870D01*
X496386Y312038D01*
X494214Y312038D01*
X492206Y312870D01*
X490670Y314406D01*
X489838Y316414D01*
X489838Y318586D01*
X490670Y320594D01*
X491954Y321878D01*
X492006Y321948D01*
X492066Y322012D01*
X492092Y322061D01*
X492125Y322105D01*
X492156Y322187D01*
X492196Y322265D01*
X492204Y322312D01*
X492226Y322371D01*
X492238Y322519D01*
X492251Y322596D01*
X492251Y401304D01*
X492239Y401391D01*
X492236Y401478D01*
X492219Y401531D01*
X492211Y401586D01*
X492176Y401665D01*
X492149Y401749D01*
X492121Y401788D01*
X492095Y401845D01*
X491999Y401958D01*
X491954Y402022D01*
X490670Y403306D01*
X489838Y405314D01*
X489838Y407486D01*
X490670Y409494D01*
X492206Y411030D01*
X494214Y411862D01*
X495776Y411862D01*
X495805Y411866D01*
X495834Y411863D01*
X495945Y411886D01*
X496057Y411902D01*
X496084Y411914D01*
X496113Y411919D01*
X496213Y411971D01*
X496317Y412018D01*
X496339Y412037D01*
X496365Y412050D01*
X496447Y412128D01*
X496534Y412201D01*
X496550Y412226D01*
X496571Y412246D01*
X496628Y412344D01*
X496691Y412438D01*
X496700Y412466D01*
X496715Y412491D01*
X496743Y412601D01*
X496777Y412709D01*
X496778Y412739D01*
X496785Y412767D01*
X496781Y412880D01*
X496784Y412993D01*
X496777Y413022D01*
X496776Y413051D01*
X496741Y413159D01*
X496712Y413268D01*
X496697Y413294D01*
X496688Y413322D01*
X496643Y413385D01*
X496567Y413513D01*
X496522Y413556D01*
X496494Y413595D01*
X477603Y432486D01*
X477579Y432503D01*
X477560Y432526D01*
X477466Y432589D01*
X477376Y432656D01*
X477348Y432667D01*
X477324Y432683D01*
X477216Y432717D01*
X477110Y432758D01*
X477081Y432760D01*
X477053Y432769D01*
X476939Y432772D01*
X476827Y432781D01*
X476798Y432776D01*
X476769Y432776D01*
X476659Y432748D01*
X476548Y432725D01*
X476522Y432712D01*
X476494Y432704D01*
X476396Y432647D01*
X476296Y432594D01*
X476274Y432574D01*
X476249Y432559D01*
X476172Y432477D01*
X476090Y432399D01*
X476075Y432373D01*
X476055Y432352D01*
X476003Y432251D01*
X475946Y432153D01*
X475939Y432125D01*
X475925Y432099D01*
X475912Y432021D01*
X475876Y431878D01*
X475878Y431815D01*
X475870Y431768D01*
X475870Y431212D01*
X475640Y430059D01*
X475190Y428972D01*
X474537Y427994D01*
X473706Y427163D01*
X472728Y426510D01*
X471641Y426060D01*
X470915Y425915D01*
X470915Y431800D01*
X470907Y431858D01*
X470909Y431916D01*
X470887Y431998D01*
X470876Y432081D01*
X470852Y432135D01*
X470837Y432191D01*
X470794Y432264D01*
X470759Y432341D01*
X470722Y432385D01*
X470692Y432435D01*
X470691Y432436D01*
X470630Y432493D01*
X470576Y432558D01*
X470575Y432558D01*
X470527Y432590D01*
X470484Y432630D01*
X470409Y432669D01*
X470339Y432716D01*
X470283Y432733D01*
X470231Y432760D01*
X470163Y432771D01*
X470068Y432801D01*
X469968Y432804D01*
X469900Y432815D01*
X464015Y432815D01*
X464160Y433541D01*
X464610Y434628D01*
X465263Y435606D01*
X466094Y436437D01*
X467072Y437090D01*
X468159Y437540D01*
X469312Y437770D01*
X469868Y437770D01*
X469897Y437774D01*
X469926Y437771D01*
X470037Y437794D01*
X470149Y437810D01*
X470176Y437822D01*
X470205Y437827D01*
X470305Y437879D01*
X470409Y437926D01*
X470431Y437945D01*
X470457Y437958D01*
X470539Y438036D01*
X470626Y438109D01*
X470642Y438134D01*
X470663Y438154D01*
X470720Y438252D01*
X470783Y438346D01*
X470792Y438374D01*
X470807Y438399D01*
X470835Y438509D01*
X470869Y438617D01*
X470870Y438647D01*
X470877Y438675D01*
X470873Y438788D01*
X470876Y438901D01*
X470869Y438930D01*
X470868Y438959D01*
X470833Y439067D01*
X470804Y439176D01*
X470789Y439202D01*
X470780Y439230D01*
X470735Y439293D01*
X470659Y439421D01*
X470614Y439464D01*
X470586Y439503D01*
X413595Y496494D01*
X413571Y496511D01*
X413552Y496534D01*
X413458Y496597D01*
X413368Y496664D01*
X413340Y496675D01*
X413316Y496691D01*
X413208Y496725D01*
X413102Y496766D01*
X413073Y496768D01*
X413045Y496777D01*
X412931Y496780D01*
X412819Y496789D01*
X412790Y496784D01*
X412761Y496784D01*
X412651Y496756D01*
X412540Y496733D01*
X412514Y496720D01*
X412486Y496712D01*
X412388Y496655D01*
X412288Y496602D01*
X412266Y496582D01*
X412241Y496567D01*
X412164Y496485D01*
X412082Y496407D01*
X412067Y496381D01*
X412047Y496360D01*
X411995Y496259D01*
X411938Y496161D01*
X411931Y496133D01*
X411917Y496107D01*
X411904Y496029D01*
X411868Y495886D01*
X411870Y495823D01*
X411862Y495776D01*
X411862Y494214D01*
X411030Y492206D01*
X409494Y490670D01*
X407486Y489838D01*
X405314Y489838D01*
X403306Y490670D01*
X402022Y491954D01*
X401952Y492006D01*
X401888Y492066D01*
X401839Y492092D01*
X401795Y492125D01*
X401713Y492156D01*
X401635Y492196D01*
X401588Y492204D01*
X401529Y492226D01*
X401381Y492238D01*
X401304Y492251D01*
X369983Y492251D01*
X369897Y492239D01*
X369809Y492236D01*
X369757Y492219D01*
X369702Y492211D01*
X369622Y492176D01*
X369539Y492149D01*
X369500Y492121D01*
X369442Y492095D01*
X369329Y491999D01*
X369265Y491954D01*
X365423Y488112D01*
X365394Y488073D01*
X365383Y488064D01*
X365363Y488034D01*
X365311Y487978D01*
X365285Y487928D01*
X365252Y487884D01*
X365237Y487844D01*
X365225Y487827D01*
X365212Y487785D01*
X365181Y487725D01*
X365173Y487677D01*
X365151Y487619D01*
X365148Y487582D01*
X365140Y487556D01*
X365137Y487463D01*
X365126Y487394D01*
X365126Y484283D01*
X365133Y484235D01*
X365132Y484226D01*
X365135Y484214D01*
X365138Y484197D01*
X365141Y484109D01*
X365158Y484057D01*
X365166Y484002D01*
X365201Y483922D01*
X365228Y483839D01*
X365256Y483800D01*
X365282Y483742D01*
X365378Y483629D01*
X365423Y483565D01*
X371349Y477640D01*
X371349Y449596D01*
X371361Y449509D01*
X371364Y449422D01*
X371381Y449369D01*
X371389Y449314D01*
X371424Y449235D01*
X371451Y449151D01*
X371479Y449112D01*
X371505Y449055D01*
X371601Y448942D01*
X371646Y448878D01*
X372930Y447594D01*
X373437Y446370D01*
X373452Y446345D01*
X373461Y446317D01*
X373524Y446222D01*
X373582Y446125D01*
X373603Y446105D01*
X373619Y446081D01*
X373706Y446008D01*
X373788Y445930D01*
X373814Y445917D01*
X373837Y445898D01*
X373940Y445852D01*
X374041Y445800D01*
X374070Y445794D01*
X374097Y445782D01*
X374209Y445767D01*
X374320Y445745D01*
X374349Y445747D01*
X374378Y445743D01*
X374491Y445760D01*
X374603Y445769D01*
X374631Y445780D01*
X374660Y445784D01*
X374763Y445831D01*
X374869Y445871D01*
X374892Y445889D01*
X374919Y445901D01*
X375005Y445974D01*
X375095Y446043D01*
X375113Y446067D01*
X375135Y446085D01*
X375176Y446152D01*
X375265Y446271D01*
X375282Y446314D01*
X375299Y446339D01*
X375304Y446355D01*
X375313Y446370D01*
X375710Y447328D01*
X376363Y448306D01*
X377194Y449137D01*
X378172Y449790D01*
X379259Y450240D01*
X379985Y450385D01*
X379985Y444500D01*
X379985Y438615D01*
X379259Y438760D01*
X378172Y439210D01*
X377194Y439863D01*
X376363Y440694D01*
X375710Y441672D01*
X375313Y442630D01*
X375298Y442655D01*
X375289Y442683D01*
X375226Y442777D01*
X375169Y442875D01*
X375147Y442895D01*
X375131Y442919D01*
X375044Y442992D01*
X374962Y443070D01*
X374936Y443083D01*
X374913Y443102D01*
X374810Y443148D01*
X374709Y443200D01*
X374680Y443206D01*
X374654Y443218D01*
X374541Y443233D01*
X374430Y443255D01*
X374401Y443253D01*
X374372Y443257D01*
X374260Y443240D01*
X374147Y443231D01*
X374120Y443220D01*
X374091Y443216D01*
X373988Y443169D01*
X373882Y443129D01*
X373858Y443111D01*
X373832Y443099D01*
X373745Y443026D01*
X373655Y442957D01*
X373637Y442934D01*
X373615Y442915D01*
X373574Y442848D01*
X373485Y442729D01*
X373463Y442671D01*
X373437Y442630D01*
X372930Y441406D01*
X371394Y439870D01*
X369386Y439038D01*
X367824Y439038D01*
X367795Y439034D01*
X367766Y439037D01*
X367655Y439014D01*
X367543Y438998D01*
X367516Y438986D01*
X367487Y438981D01*
X367387Y438929D01*
X367283Y438882D01*
X367261Y438863D01*
X367235Y438850D01*
X367153Y438772D01*
X367066Y438699D01*
X367050Y438674D01*
X367029Y438654D01*
X366972Y438556D01*
X366909Y438462D01*
X366900Y438434D01*
X366885Y438409D01*
X366857Y438299D01*
X366823Y438191D01*
X366822Y438161D01*
X366815Y438133D01*
X366819Y438020D01*
X366816Y437907D01*
X366823Y437878D01*
X366824Y437849D01*
X366859Y437741D01*
X366888Y437632D01*
X366903Y437606D01*
X366912Y437578D01*
X366957Y437515D01*
X367033Y437387D01*
X367078Y437344D01*
X367106Y437305D01*
X409449Y394963D01*
X409449Y319183D01*
X409461Y319097D01*
X409464Y319009D01*
X409481Y318957D01*
X409489Y318902D01*
X409524Y318822D01*
X409551Y318739D01*
X409579Y318700D01*
X409605Y318642D01*
X409701Y318529D01*
X409746Y318465D01*
X432765Y295446D01*
X432835Y295394D01*
X432899Y295334D01*
X432949Y295308D01*
X432993Y295275D01*
X433074Y295244D01*
X433152Y295204D01*
X433200Y295196D01*
X433258Y295174D01*
X433406Y295162D01*
X433483Y295149D01*
X502904Y295149D01*
X502991Y295161D01*
X503078Y295164D01*
X503131Y295181D01*
X503186Y295189D01*
X503265Y295224D01*
X503349Y295251D01*
X503388Y295279D01*
X503445Y295305D01*
X503558Y295401D01*
X503622Y295446D01*
X504906Y296730D01*
X506914Y297562D01*
X509086Y297562D01*
X511094Y296730D01*
X512630Y295194D01*
X513462Y293186D01*
X513462Y291014D01*
X512630Y289006D01*
X511094Y287470D01*
X509086Y286638D01*
X506914Y286638D01*
G37*
%LPD*%
%LPC*%
G36*
X506914Y210438D02*
X506914Y210438D01*
X504906Y211270D01*
X503622Y212554D01*
X503552Y212606D01*
X503488Y212666D01*
X503439Y212692D01*
X503395Y212725D01*
X503313Y212756D01*
X503235Y212796D01*
X503188Y212804D01*
X503129Y212826D01*
X502981Y212838D01*
X502904Y212851D01*
X341637Y212851D01*
X289051Y265437D01*
X289051Y439404D01*
X289039Y439491D01*
X289036Y439578D01*
X289019Y439631D01*
X289011Y439686D01*
X288976Y439765D01*
X288949Y439849D01*
X288921Y439888D01*
X288895Y439945D01*
X288799Y440058D01*
X288754Y440122D01*
X287470Y441406D01*
X286638Y443414D01*
X286638Y445586D01*
X287470Y447594D01*
X289006Y449130D01*
X291014Y449962D01*
X293186Y449962D01*
X295194Y449130D01*
X296730Y447594D01*
X297562Y445586D01*
X297562Y443414D01*
X296730Y441406D01*
X295446Y440122D01*
X295394Y440052D01*
X295334Y439988D01*
X295308Y439939D01*
X295275Y439895D01*
X295244Y439813D01*
X295204Y439735D01*
X295196Y439688D01*
X295174Y439629D01*
X295162Y439481D01*
X295149Y439404D01*
X295149Y268383D01*
X295161Y268297D01*
X295164Y268209D01*
X295181Y268157D01*
X295189Y268102D01*
X295224Y268022D01*
X295251Y267939D01*
X295279Y267900D01*
X295305Y267842D01*
X295401Y267729D01*
X295446Y267665D01*
X343865Y219246D01*
X343935Y219194D01*
X343999Y219134D01*
X344049Y219108D01*
X344093Y219075D01*
X344174Y219044D01*
X344252Y219004D01*
X344300Y218996D01*
X344358Y218974D01*
X344506Y218962D01*
X344583Y218949D01*
X396589Y218949D01*
X396618Y218953D01*
X396647Y218950D01*
X396758Y218973D01*
X396870Y218989D01*
X396897Y219001D01*
X396926Y219006D01*
X397026Y219058D01*
X397130Y219105D01*
X397152Y219124D01*
X397178Y219137D01*
X397260Y219215D01*
X397347Y219288D01*
X397363Y219313D01*
X397384Y219333D01*
X397441Y219431D01*
X397504Y219525D01*
X397513Y219553D01*
X397528Y219578D01*
X397556Y219688D01*
X397590Y219796D01*
X397591Y219826D01*
X397598Y219854D01*
X397594Y219967D01*
X397597Y220080D01*
X397590Y220109D01*
X397589Y220138D01*
X397554Y220246D01*
X397525Y220355D01*
X397510Y220381D01*
X397501Y220409D01*
X397456Y220472D01*
X397380Y220600D01*
X397335Y220643D01*
X397307Y220682D01*
X390651Y227337D01*
X390651Y242563D01*
X405137Y257049D01*
X417417Y257049D01*
X417503Y257061D01*
X417591Y257064D01*
X417643Y257081D01*
X417698Y257089D01*
X417778Y257124D01*
X417861Y257151D01*
X417900Y257179D01*
X417958Y257205D01*
X418071Y257301D01*
X418135Y257346D01*
X428454Y267665D01*
X428506Y267735D01*
X428566Y267799D01*
X428592Y267849D01*
X428625Y267893D01*
X428656Y267974D01*
X428696Y268052D01*
X428704Y268100D01*
X428726Y268158D01*
X428738Y268306D01*
X428751Y268383D01*
X428751Y274304D01*
X428739Y274391D01*
X428736Y274478D01*
X428719Y274531D01*
X428711Y274586D01*
X428676Y274665D01*
X428649Y274749D01*
X428621Y274788D01*
X428595Y274845D01*
X428499Y274958D01*
X428454Y275022D01*
X427170Y276306D01*
X426338Y278314D01*
X426338Y280486D01*
X427170Y282494D01*
X428706Y284030D01*
X430714Y284862D01*
X432886Y284862D01*
X434894Y284030D01*
X436430Y282494D01*
X437262Y280486D01*
X437262Y278314D01*
X436430Y276306D01*
X435146Y275022D01*
X435094Y274952D01*
X435034Y274888D01*
X435008Y274839D01*
X434975Y274795D01*
X434944Y274713D01*
X434904Y274635D01*
X434896Y274588D01*
X434874Y274529D01*
X434862Y274381D01*
X434849Y274304D01*
X434849Y265437D01*
X420363Y250951D01*
X408083Y250951D01*
X407997Y250939D01*
X407909Y250936D01*
X407857Y250919D01*
X407802Y250911D01*
X407722Y250876D01*
X407639Y250849D01*
X407600Y250821D01*
X407542Y250795D01*
X407429Y250699D01*
X407365Y250654D01*
X397046Y240335D01*
X396994Y240265D01*
X396934Y240201D01*
X396908Y240151D01*
X396875Y240107D01*
X396844Y240026D01*
X396804Y239948D01*
X396796Y239900D01*
X396774Y239842D01*
X396762Y239694D01*
X396749Y239617D01*
X396749Y230283D01*
X396761Y230197D01*
X396764Y230109D01*
X396781Y230057D01*
X396789Y230002D01*
X396824Y229922D01*
X396851Y229839D01*
X396879Y229800D01*
X396905Y229742D01*
X397001Y229629D01*
X397046Y229565D01*
X403301Y223310D01*
X403371Y223258D01*
X403435Y223198D01*
X403485Y223172D01*
X403529Y223139D01*
X403610Y223108D01*
X403688Y223068D01*
X403736Y223060D01*
X403794Y223038D01*
X403942Y223026D01*
X404019Y223013D01*
X408781Y223013D01*
X408867Y223025D01*
X408955Y223028D01*
X409007Y223045D01*
X409062Y223053D01*
X409142Y223088D01*
X409225Y223115D01*
X409264Y223143D01*
X409322Y223169D01*
X409435Y223265D01*
X409499Y223310D01*
X426041Y239852D01*
X426093Y239922D01*
X426153Y239986D01*
X426179Y240036D01*
X426212Y240080D01*
X426243Y240161D01*
X426283Y240239D01*
X426291Y240287D01*
X426313Y240345D01*
X426325Y240493D01*
X426338Y240570D01*
X426338Y242386D01*
X427170Y244394D01*
X428706Y245930D01*
X430714Y246762D01*
X432886Y246762D01*
X434894Y245930D01*
X436430Y244394D01*
X437262Y242386D01*
X437262Y240214D01*
X436430Y238206D01*
X434894Y236670D01*
X432886Y235838D01*
X431070Y235838D01*
X430984Y235826D01*
X430896Y235823D01*
X430844Y235806D01*
X430789Y235798D01*
X430709Y235763D01*
X430626Y235736D01*
X430587Y235708D01*
X430529Y235682D01*
X430416Y235586D01*
X430352Y235541D01*
X415493Y220682D01*
X415476Y220658D01*
X415453Y220639D01*
X415391Y220545D01*
X415323Y220455D01*
X415312Y220427D01*
X415296Y220403D01*
X415261Y220294D01*
X415221Y220189D01*
X415219Y220160D01*
X415210Y220132D01*
X415207Y220018D01*
X415198Y219906D01*
X415203Y219877D01*
X415203Y219848D01*
X415231Y219738D01*
X415254Y219627D01*
X415267Y219601D01*
X415275Y219573D01*
X415332Y219475D01*
X415385Y219375D01*
X415405Y219353D01*
X415420Y219328D01*
X415502Y219251D01*
X415580Y219169D01*
X415606Y219154D01*
X415627Y219134D01*
X415728Y219082D01*
X415826Y219025D01*
X415854Y219018D01*
X415880Y219004D01*
X415958Y218991D01*
X416101Y218955D01*
X416164Y218957D01*
X416211Y218949D01*
X502904Y218949D01*
X502991Y218961D01*
X503078Y218964D01*
X503131Y218981D01*
X503186Y218989D01*
X503265Y219024D01*
X503349Y219051D01*
X503388Y219079D01*
X503445Y219105D01*
X503558Y219201D01*
X503622Y219246D01*
X504906Y220530D01*
X506914Y221362D01*
X509086Y221362D01*
X511094Y220530D01*
X512630Y218994D01*
X513462Y216986D01*
X513462Y214814D01*
X512630Y212806D01*
X511094Y211270D01*
X509086Y210438D01*
X506914Y210438D01*
G37*
%LPD*%
%LPC*%
G36*
X392614Y731138D02*
X392614Y731138D01*
X390606Y731970D01*
X389070Y733506D01*
X388238Y735514D01*
X388238Y737686D01*
X389070Y739694D01*
X390354Y740978D01*
X390406Y741048D01*
X390466Y741112D01*
X390492Y741161D01*
X390525Y741205D01*
X390556Y741287D01*
X390596Y741365D01*
X390604Y741412D01*
X390626Y741471D01*
X390638Y741619D01*
X390651Y741696D01*
X390651Y912717D01*
X390639Y912803D01*
X390636Y912891D01*
X390619Y912943D01*
X390611Y912998D01*
X390576Y913078D01*
X390549Y913161D01*
X390521Y913200D01*
X390495Y913258D01*
X390399Y913371D01*
X390354Y913435D01*
X380035Y923754D01*
X379965Y923806D01*
X379901Y923866D01*
X379851Y923892D01*
X379807Y923925D01*
X379726Y923956D01*
X379648Y923996D01*
X379600Y924004D01*
X379542Y924026D01*
X379394Y924038D01*
X379317Y924051D01*
X369983Y924051D01*
X369897Y924039D01*
X369809Y924036D01*
X369757Y924019D01*
X369702Y924011D01*
X369622Y923976D01*
X369539Y923949D01*
X369500Y923921D01*
X369442Y923895D01*
X369329Y923799D01*
X369265Y923754D01*
X358946Y913435D01*
X358894Y913365D01*
X358834Y913301D01*
X358808Y913251D01*
X358775Y913207D01*
X358744Y913126D01*
X358704Y913048D01*
X358696Y913000D01*
X358674Y912942D01*
X358662Y912794D01*
X358649Y912717D01*
X358649Y811537D01*
X348659Y801548D01*
X348607Y801478D01*
X348547Y801414D01*
X348521Y801364D01*
X348488Y801320D01*
X348457Y801239D01*
X348417Y801161D01*
X348409Y801113D01*
X348387Y801055D01*
X348375Y800907D01*
X348362Y800830D01*
X348362Y799014D01*
X347530Y797006D01*
X345994Y795470D01*
X343986Y794638D01*
X341814Y794638D01*
X339806Y795470D01*
X338270Y797006D01*
X337438Y799014D01*
X337438Y801186D01*
X338270Y803194D01*
X339806Y804730D01*
X341814Y805562D01*
X343630Y805562D01*
X343716Y805574D01*
X343804Y805577D01*
X343856Y805594D01*
X343911Y805602D01*
X343991Y805637D01*
X344074Y805664D01*
X344113Y805692D01*
X344171Y805718D01*
X344284Y805814D01*
X344348Y805859D01*
X352254Y813765D01*
X352306Y813835D01*
X352366Y813899D01*
X352392Y813949D01*
X352425Y813993D01*
X352456Y814074D01*
X352496Y814152D01*
X352504Y814200D01*
X352526Y814258D01*
X352538Y814406D01*
X352551Y814483D01*
X352551Y915663D01*
X367037Y930149D01*
X382263Y930149D01*
X396749Y915663D01*
X396749Y741696D01*
X396761Y741609D01*
X396764Y741522D01*
X396781Y741469D01*
X396789Y741414D01*
X396824Y741335D01*
X396851Y741251D01*
X396879Y741212D01*
X396905Y741155D01*
X397001Y741042D01*
X397046Y740978D01*
X398330Y739694D01*
X399162Y737686D01*
X399162Y735514D01*
X398330Y733506D01*
X396794Y731970D01*
X394786Y731138D01*
X392614Y731138D01*
G37*
%LPD*%
%LPC*%
G36*
X291014Y654938D02*
X291014Y654938D01*
X289006Y655770D01*
X287470Y657306D01*
X286638Y659314D01*
X286638Y661486D01*
X287470Y663494D01*
X288754Y664778D01*
X288806Y664848D01*
X288866Y664912D01*
X288892Y664961D01*
X288925Y665005D01*
X288956Y665087D01*
X288996Y665165D01*
X289004Y665212D01*
X289026Y665271D01*
X289038Y665419D01*
X289051Y665496D01*
X289051Y763263D01*
X311741Y785952D01*
X311793Y786022D01*
X311853Y786086D01*
X311879Y786136D01*
X311912Y786180D01*
X311943Y786261D01*
X311983Y786339D01*
X311991Y786387D01*
X312013Y786445D01*
X312025Y786593D01*
X312038Y786670D01*
X312038Y788486D01*
X312870Y790494D01*
X314406Y792030D01*
X316414Y792862D01*
X318586Y792862D01*
X320594Y792030D01*
X322130Y790494D01*
X322962Y788486D01*
X322962Y786314D01*
X322130Y784306D01*
X320594Y782770D01*
X318586Y781938D01*
X316770Y781938D01*
X316684Y781926D01*
X316596Y781923D01*
X316544Y781906D01*
X316489Y781898D01*
X316409Y781863D01*
X316326Y781836D01*
X316287Y781808D01*
X316229Y781782D01*
X316116Y781686D01*
X316052Y781641D01*
X295446Y761035D01*
X295394Y760965D01*
X295334Y760901D01*
X295308Y760851D01*
X295275Y760807D01*
X295244Y760726D01*
X295204Y760648D01*
X295196Y760600D01*
X295174Y760542D01*
X295162Y760394D01*
X295149Y760317D01*
X295149Y665496D01*
X295161Y665409D01*
X295164Y665322D01*
X295181Y665269D01*
X295189Y665214D01*
X295224Y665135D01*
X295251Y665051D01*
X295279Y665012D01*
X295305Y664955D01*
X295401Y664842D01*
X295446Y664778D01*
X296730Y663494D01*
X297562Y661486D01*
X297562Y659314D01*
X296730Y657306D01*
X295194Y655770D01*
X293186Y654938D01*
X291014Y654938D01*
G37*
%LPD*%
%LPC*%
G36*
X557714Y235838D02*
X557714Y235838D01*
X555706Y236670D01*
X554170Y238206D01*
X553338Y240214D01*
X553338Y242386D01*
X554170Y244394D01*
X555454Y245678D01*
X555506Y245748D01*
X555566Y245812D01*
X555592Y245861D01*
X555625Y245905D01*
X555656Y245987D01*
X555696Y246065D01*
X555704Y246112D01*
X555726Y246171D01*
X555738Y246319D01*
X555751Y246396D01*
X555751Y363204D01*
X555739Y363291D01*
X555736Y363378D01*
X555719Y363431D01*
X555711Y363486D01*
X555676Y363565D01*
X555649Y363649D01*
X555621Y363688D01*
X555595Y363745D01*
X555499Y363858D01*
X555454Y363922D01*
X554170Y365206D01*
X553338Y367214D01*
X553338Y369386D01*
X554170Y371394D01*
X555706Y372930D01*
X557714Y373762D01*
X559886Y373762D01*
X561894Y372930D01*
X563430Y371394D01*
X564262Y369386D01*
X564262Y367214D01*
X563430Y365206D01*
X562146Y363922D01*
X562094Y363852D01*
X562034Y363788D01*
X562008Y363739D01*
X561975Y363695D01*
X561944Y363613D01*
X561904Y363535D01*
X561896Y363488D01*
X561874Y363429D01*
X561862Y363281D01*
X561849Y363204D01*
X561849Y246396D01*
X561861Y246309D01*
X561864Y246222D01*
X561881Y246169D01*
X561889Y246114D01*
X561924Y246035D01*
X561951Y245951D01*
X561979Y245912D01*
X562005Y245855D01*
X562101Y245742D01*
X562146Y245678D01*
X563430Y244394D01*
X564262Y242386D01*
X564262Y240214D01*
X563430Y238206D01*
X561894Y236670D01*
X559886Y235838D01*
X557714Y235838D01*
G37*
%LPD*%
%LPC*%
G36*
X519614Y172338D02*
X519614Y172338D01*
X517606Y173170D01*
X516070Y174706D01*
X515238Y176714D01*
X515238Y178886D01*
X516070Y180894D01*
X517606Y182430D01*
X519614Y183262D01*
X521430Y183262D01*
X521516Y183274D01*
X521604Y183277D01*
X521656Y183294D01*
X521711Y183302D01*
X521791Y183337D01*
X521874Y183364D01*
X521913Y183392D01*
X521971Y183418D01*
X522084Y183514D01*
X522148Y183559D01*
X542754Y204165D01*
X542806Y204235D01*
X542866Y204299D01*
X542892Y204349D01*
X542925Y204393D01*
X542956Y204474D01*
X542996Y204552D01*
X543004Y204600D01*
X543026Y204658D01*
X543038Y204806D01*
X543051Y204883D01*
X543051Y274304D01*
X543039Y274391D01*
X543036Y274478D01*
X543019Y274531D01*
X543011Y274586D01*
X542976Y274665D01*
X542949Y274749D01*
X542921Y274788D01*
X542895Y274845D01*
X542799Y274958D01*
X542754Y275022D01*
X541470Y276306D01*
X540638Y278314D01*
X540638Y280486D01*
X541470Y282494D01*
X543006Y284030D01*
X545014Y284862D01*
X547186Y284862D01*
X549194Y284030D01*
X550730Y282494D01*
X551562Y280486D01*
X551562Y278314D01*
X550730Y276306D01*
X549446Y275022D01*
X549394Y274952D01*
X549334Y274888D01*
X549308Y274839D01*
X549275Y274795D01*
X549244Y274713D01*
X549204Y274635D01*
X549196Y274588D01*
X549174Y274529D01*
X549162Y274381D01*
X549149Y274304D01*
X549149Y201937D01*
X526459Y179248D01*
X526407Y179178D01*
X526347Y179114D01*
X526321Y179064D01*
X526288Y179020D01*
X526257Y178939D01*
X526217Y178861D01*
X526209Y178813D01*
X526187Y178755D01*
X526175Y178607D01*
X526162Y178530D01*
X526162Y176714D01*
X525330Y174706D01*
X523794Y173170D01*
X521786Y172338D01*
X519614Y172338D01*
G37*
%LPD*%
%LPC*%
G36*
X480405Y918267D02*
X480405Y918267D01*
X476350Y919947D01*
X473247Y923050D01*
X471567Y927105D01*
X471567Y949495D01*
X473247Y953550D01*
X476350Y956653D01*
X480405Y958333D01*
X484795Y958333D01*
X488850Y956653D01*
X491953Y953550D01*
X493633Y949495D01*
X493633Y927105D01*
X491953Y923050D01*
X488850Y919947D01*
X484795Y918267D01*
X480405Y918267D01*
G37*
%LPD*%
%LPC*%
G36*
X430405Y918267D02*
X430405Y918267D01*
X426350Y919947D01*
X423247Y923050D01*
X421567Y927105D01*
X421567Y949495D01*
X423247Y953550D01*
X426350Y956653D01*
X430405Y958333D01*
X434795Y958333D01*
X438850Y956653D01*
X441953Y953550D01*
X443633Y949495D01*
X443633Y927105D01*
X441953Y923050D01*
X438850Y919947D01*
X434795Y918267D01*
X430405Y918267D01*
G37*
%LPD*%
%LPC*%
G36*
X239105Y918267D02*
X239105Y918267D01*
X235050Y919947D01*
X231947Y923050D01*
X230267Y927105D01*
X230267Y949495D01*
X231947Y953550D01*
X235050Y956653D01*
X239105Y958333D01*
X243495Y958333D01*
X247550Y956653D01*
X250653Y953550D01*
X252333Y949495D01*
X252333Y927105D01*
X250653Y923050D01*
X247550Y919947D01*
X243495Y918267D01*
X239105Y918267D01*
G37*
%LPD*%
%LPC*%
G36*
X189105Y918267D02*
X189105Y918267D01*
X185050Y919947D01*
X181947Y923050D01*
X180267Y927105D01*
X180267Y949495D01*
X181947Y953550D01*
X185050Y956653D01*
X189105Y958333D01*
X193495Y958333D01*
X197550Y956653D01*
X200653Y953550D01*
X202333Y949495D01*
X202333Y927105D01*
X200653Y923050D01*
X197550Y919947D01*
X193495Y918267D01*
X189105Y918267D01*
G37*
%LPD*%
%LPC*%
G36*
X367214Y337438D02*
X367214Y337438D01*
X365206Y338270D01*
X363670Y339806D01*
X362838Y341814D01*
X362838Y343630D01*
X362826Y343716D01*
X362823Y343804D01*
X362806Y343856D01*
X362798Y343911D01*
X362763Y343991D01*
X362736Y344074D01*
X362708Y344113D01*
X362682Y344171D01*
X362586Y344284D01*
X362541Y344348D01*
X339851Y367037D01*
X339851Y382263D01*
X354337Y396749D01*
X363204Y396749D01*
X363291Y396761D01*
X363378Y396764D01*
X363431Y396781D01*
X363486Y396789D01*
X363565Y396824D01*
X363649Y396851D01*
X363688Y396879D01*
X363745Y396905D01*
X363858Y397001D01*
X363922Y397046D01*
X365206Y398330D01*
X367214Y399162D01*
X369386Y399162D01*
X371394Y398330D01*
X372930Y396794D01*
X373762Y394786D01*
X373762Y392614D01*
X372930Y390606D01*
X371394Y389070D01*
X369386Y388238D01*
X367214Y388238D01*
X365206Y389070D01*
X363922Y390354D01*
X363852Y390406D01*
X363788Y390466D01*
X363739Y390492D01*
X363695Y390525D01*
X363613Y390556D01*
X363535Y390596D01*
X363488Y390604D01*
X363429Y390626D01*
X363281Y390638D01*
X363204Y390651D01*
X357283Y390651D01*
X357197Y390639D01*
X357109Y390636D01*
X357057Y390619D01*
X357002Y390611D01*
X356922Y390576D01*
X356839Y390549D01*
X356800Y390521D01*
X356742Y390495D01*
X356629Y390399D01*
X356565Y390354D01*
X346246Y380035D01*
X346194Y379965D01*
X346134Y379901D01*
X346108Y379851D01*
X346075Y379807D01*
X346044Y379726D01*
X346004Y379648D01*
X345996Y379600D01*
X345974Y379542D01*
X345962Y379394D01*
X345949Y379317D01*
X345949Y369983D01*
X345961Y369897D01*
X345964Y369809D01*
X345981Y369757D01*
X345989Y369702D01*
X346024Y369622D01*
X346051Y369539D01*
X346079Y369500D01*
X346105Y369442D01*
X346201Y369329D01*
X346246Y369265D01*
X366852Y348659D01*
X366922Y348607D01*
X366986Y348547D01*
X367036Y348521D01*
X367080Y348488D01*
X367161Y348457D01*
X367239Y348417D01*
X367287Y348409D01*
X367345Y348387D01*
X367493Y348375D01*
X367570Y348362D01*
X369386Y348362D01*
X371394Y347530D01*
X372930Y345994D01*
X373712Y344106D01*
X373727Y344081D01*
X373736Y344053D01*
X373799Y343959D01*
X373857Y343862D01*
X373878Y343841D01*
X373894Y343817D01*
X373981Y343744D01*
X374063Y343666D01*
X374089Y343653D01*
X374112Y343634D01*
X374215Y343588D01*
X374316Y343536D01*
X374345Y343531D01*
X374372Y343519D01*
X374484Y343503D01*
X374595Y343481D01*
X374624Y343484D01*
X374653Y343480D01*
X374765Y343496D01*
X374878Y343506D01*
X374905Y343516D01*
X374935Y343520D01*
X375038Y343567D01*
X375143Y343608D01*
X375167Y343625D01*
X375194Y343637D01*
X375280Y343711D01*
X375370Y343779D01*
X375388Y343803D01*
X375410Y343822D01*
X375452Y343888D01*
X375540Y344007D01*
X375562Y344066D01*
X375588Y344106D01*
X376370Y345994D01*
X377906Y347530D01*
X379914Y348362D01*
X382086Y348362D01*
X384094Y347530D01*
X385630Y345994D01*
X386462Y343986D01*
X386462Y341814D01*
X385630Y339806D01*
X384094Y338270D01*
X382086Y337438D01*
X379914Y337438D01*
X377906Y338270D01*
X376370Y339806D01*
X375588Y341694D01*
X375573Y341719D01*
X375564Y341747D01*
X375501Y341841D01*
X375443Y341938D01*
X375422Y341959D01*
X375406Y341983D01*
X375319Y342056D01*
X375237Y342134D01*
X375211Y342147D01*
X375188Y342166D01*
X375085Y342212D01*
X374984Y342264D01*
X374955Y342270D01*
X374928Y342281D01*
X374816Y342297D01*
X374705Y342319D01*
X374676Y342316D01*
X374647Y342320D01*
X374535Y342304D01*
X374422Y342294D01*
X374395Y342284D01*
X374366Y342280D01*
X374262Y342233D01*
X374157Y342192D01*
X374133Y342175D01*
X374106Y342163D01*
X374020Y342089D01*
X373930Y342021D01*
X373912Y341997D01*
X373890Y341978D01*
X373848Y341912D01*
X373760Y341793D01*
X373738Y341735D01*
X373712Y341694D01*
X372930Y339806D01*
X371394Y338270D01*
X369386Y337438D01*
X367214Y337438D01*
G37*
%LPD*%
%LPC*%
G36*
X240214Y705738D02*
X240214Y705738D01*
X238206Y706570D01*
X236670Y708106D01*
X235838Y710114D01*
X235838Y711930D01*
X235826Y712016D01*
X235823Y712104D01*
X235806Y712156D01*
X235798Y712211D01*
X235763Y712291D01*
X235736Y712374D01*
X235708Y712413D01*
X235682Y712471D01*
X235586Y712584D01*
X235541Y712648D01*
X225551Y722637D01*
X225551Y782304D01*
X225539Y782391D01*
X225536Y782478D01*
X225519Y782531D01*
X225511Y782586D01*
X225476Y782665D01*
X225449Y782749D01*
X225421Y782788D01*
X225395Y782845D01*
X225299Y782958D01*
X225254Y783022D01*
X223970Y784306D01*
X223138Y786314D01*
X223138Y788486D01*
X223970Y790494D01*
X225506Y792030D01*
X227514Y792862D01*
X229686Y792862D01*
X231694Y792030D01*
X233230Y790494D01*
X234062Y788486D01*
X234062Y786314D01*
X233230Y784306D01*
X231946Y783022D01*
X231894Y782952D01*
X231834Y782888D01*
X231808Y782839D01*
X231775Y782795D01*
X231744Y782713D01*
X231704Y782635D01*
X231696Y782588D01*
X231674Y782529D01*
X231662Y782381D01*
X231649Y782304D01*
X231649Y725583D01*
X231661Y725497D01*
X231664Y725409D01*
X231681Y725357D01*
X231689Y725302D01*
X231724Y725222D01*
X231751Y725139D01*
X231779Y725100D01*
X231805Y725042D01*
X231901Y724929D01*
X231946Y724865D01*
X239852Y716959D01*
X239922Y716907D01*
X239986Y716847D01*
X240036Y716821D01*
X240080Y716788D01*
X240161Y716757D01*
X240239Y716717D01*
X240287Y716709D01*
X240345Y716687D01*
X240493Y716675D01*
X240570Y716662D01*
X242386Y716662D01*
X244394Y715830D01*
X245930Y714294D01*
X246762Y712286D01*
X246762Y710114D01*
X245930Y708106D01*
X244394Y706570D01*
X242386Y705738D01*
X240214Y705738D01*
G37*
%LPD*%
%LPC*%
G36*
X608514Y591438D02*
X608514Y591438D01*
X606506Y592270D01*
X604970Y593806D01*
X604138Y595814D01*
X604138Y597986D01*
X604970Y599994D01*
X606254Y601278D01*
X606306Y601348D01*
X606366Y601412D01*
X606392Y601461D01*
X606425Y601505D01*
X606456Y601587D01*
X606496Y601665D01*
X606504Y601712D01*
X606526Y601771D01*
X606538Y601919D01*
X606551Y601996D01*
X606551Y668004D01*
X606539Y668091D01*
X606536Y668178D01*
X606519Y668231D01*
X606511Y668286D01*
X606476Y668365D01*
X606449Y668449D01*
X606421Y668488D01*
X606395Y668545D01*
X606299Y668658D01*
X606254Y668722D01*
X604970Y670006D01*
X604138Y672014D01*
X604138Y674186D01*
X604970Y676194D01*
X606506Y677730D01*
X608514Y678562D01*
X610686Y678562D01*
X612694Y677730D01*
X614230Y676194D01*
X615062Y674186D01*
X615062Y672014D01*
X614230Y670006D01*
X612946Y668722D01*
X612894Y668652D01*
X612834Y668588D01*
X612808Y668539D01*
X612775Y668495D01*
X612744Y668413D01*
X612704Y668335D01*
X612696Y668288D01*
X612674Y668229D01*
X612662Y668081D01*
X612649Y668004D01*
X612649Y601996D01*
X612661Y601909D01*
X612664Y601822D01*
X612681Y601769D01*
X612689Y601714D01*
X612724Y601635D01*
X612751Y601551D01*
X612779Y601512D01*
X612805Y601455D01*
X612901Y601342D01*
X612946Y601278D01*
X614230Y599994D01*
X615062Y597986D01*
X615062Y595814D01*
X614230Y593806D01*
X612694Y592270D01*
X610686Y591438D01*
X608514Y591438D01*
G37*
%LPD*%
%LPC*%
G36*
X316414Y362838D02*
X316414Y362838D01*
X314406Y363670D01*
X312870Y365206D01*
X312038Y367214D01*
X312038Y369386D01*
X312870Y371394D01*
X314154Y372678D01*
X314206Y372748D01*
X314266Y372812D01*
X314292Y372861D01*
X314325Y372905D01*
X314356Y372987D01*
X314396Y373065D01*
X314404Y373112D01*
X314426Y373171D01*
X314438Y373319D01*
X314451Y373396D01*
X314451Y426704D01*
X314439Y426791D01*
X314436Y426878D01*
X314419Y426931D01*
X314411Y426986D01*
X314376Y427065D01*
X314349Y427149D01*
X314321Y427188D01*
X314295Y427245D01*
X314199Y427358D01*
X314154Y427422D01*
X312870Y428706D01*
X312038Y430714D01*
X312038Y432886D01*
X312870Y434894D01*
X314406Y436430D01*
X316414Y437262D01*
X318586Y437262D01*
X320594Y436430D01*
X322130Y434894D01*
X322962Y432886D01*
X322962Y430714D01*
X322130Y428706D01*
X320846Y427422D01*
X320794Y427352D01*
X320734Y427288D01*
X320708Y427239D01*
X320675Y427195D01*
X320644Y427113D01*
X320604Y427035D01*
X320596Y426988D01*
X320574Y426929D01*
X320562Y426781D01*
X320549Y426704D01*
X320549Y373396D01*
X320561Y373309D01*
X320564Y373222D01*
X320581Y373169D01*
X320589Y373114D01*
X320624Y373035D01*
X320651Y372951D01*
X320679Y372912D01*
X320705Y372855D01*
X320801Y372742D01*
X320846Y372678D01*
X322130Y371394D01*
X322962Y369386D01*
X322962Y367214D01*
X322130Y365206D01*
X320594Y363670D01*
X318586Y362838D01*
X316414Y362838D01*
G37*
%LPD*%
%LPC*%
G36*
X252776Y150019D02*
X252776Y150019D01*
X248166Y151929D01*
X244639Y155456D01*
X242729Y160066D01*
X242729Y165054D01*
X244639Y169664D01*
X248166Y173191D01*
X252776Y175101D01*
X257764Y175101D01*
X262374Y173191D01*
X265901Y169664D01*
X267811Y165054D01*
X267811Y160066D01*
X265901Y155456D01*
X262374Y151929D01*
X257764Y150019D01*
X252776Y150019D01*
G37*
%LPD*%
%LPC*%
G36*
X252776Y358299D02*
X252776Y358299D01*
X248166Y360209D01*
X244639Y363736D01*
X242729Y368346D01*
X242729Y373334D01*
X244639Y377944D01*
X248166Y381471D01*
X252776Y383381D01*
X257764Y383381D01*
X262374Y381471D01*
X265901Y377944D01*
X267811Y373334D01*
X267811Y368346D01*
X265901Y363736D01*
X262374Y360209D01*
X257764Y358299D01*
X252776Y358299D01*
G37*
%LPD*%
%LPC*%
G36*
X21636Y150019D02*
X21636Y150019D01*
X17026Y151929D01*
X13499Y155456D01*
X11589Y160066D01*
X11589Y165054D01*
X13499Y169664D01*
X17026Y173191D01*
X21636Y175101D01*
X26624Y175101D01*
X31234Y173191D01*
X34761Y169664D01*
X36671Y165054D01*
X36671Y160066D01*
X34761Y155456D01*
X31234Y151929D01*
X26624Y150019D01*
X21636Y150019D01*
G37*
%LPD*%
%LPC*%
G36*
X21636Y358299D02*
X21636Y358299D01*
X17026Y360209D01*
X13499Y363736D01*
X11589Y368346D01*
X11589Y373334D01*
X13499Y377944D01*
X17026Y381471D01*
X21636Y383381D01*
X26624Y383381D01*
X31234Y381471D01*
X34761Y377944D01*
X36671Y373334D01*
X36671Y368346D01*
X34761Y363736D01*
X31234Y360209D01*
X26624Y358299D01*
X21636Y358299D01*
G37*
%LPD*%
%LPC*%
G36*
X481514Y337438D02*
X481514Y337438D01*
X479506Y338270D01*
X478222Y339554D01*
X478152Y339606D01*
X478088Y339666D01*
X478039Y339692D01*
X477995Y339725D01*
X477913Y339756D01*
X477835Y339796D01*
X477788Y339804D01*
X477729Y339826D01*
X477581Y339838D01*
X477504Y339851D01*
X443237Y339851D01*
X433248Y349841D01*
X433178Y349893D01*
X433114Y349953D01*
X433064Y349979D01*
X433020Y350012D01*
X432939Y350043D01*
X432861Y350083D01*
X432813Y350091D01*
X432755Y350113D01*
X432607Y350125D01*
X432530Y350138D01*
X430714Y350138D01*
X428706Y350970D01*
X427170Y352506D01*
X426338Y354514D01*
X426338Y356686D01*
X427170Y358694D01*
X428706Y360230D01*
X430714Y361062D01*
X432886Y361062D01*
X434894Y360230D01*
X436430Y358694D01*
X437262Y356686D01*
X437262Y354870D01*
X437274Y354784D01*
X437277Y354696D01*
X437294Y354644D01*
X437302Y354589D01*
X437337Y354509D01*
X437364Y354426D01*
X437392Y354387D01*
X437418Y354329D01*
X437514Y354216D01*
X437559Y354152D01*
X445465Y346246D01*
X445535Y346194D01*
X445599Y346134D01*
X445649Y346108D01*
X445693Y346075D01*
X445774Y346044D01*
X445852Y346004D01*
X445900Y345996D01*
X445958Y345974D01*
X446106Y345962D01*
X446183Y345949D01*
X477504Y345949D01*
X477591Y345961D01*
X477678Y345964D01*
X477731Y345981D01*
X477786Y345989D01*
X477865Y346024D01*
X477949Y346051D01*
X477988Y346079D01*
X478045Y346105D01*
X478158Y346201D01*
X478222Y346246D01*
X479506Y347530D01*
X481514Y348362D01*
X483686Y348362D01*
X485694Y347530D01*
X487230Y345994D01*
X488062Y343986D01*
X488062Y341814D01*
X487230Y339806D01*
X485694Y338270D01*
X483686Y337438D01*
X481514Y337438D01*
G37*
%LPD*%
%LPC*%
G36*
X499678Y143763D02*
X499678Y143763D01*
X496504Y145078D01*
X494074Y147508D01*
X492759Y150682D01*
X492759Y154118D01*
X494074Y157292D01*
X496504Y159722D01*
X499678Y161037D01*
X516322Y161037D01*
X519496Y159722D01*
X521926Y157292D01*
X523241Y154118D01*
X523241Y150682D01*
X521926Y147508D01*
X519496Y145078D01*
X516322Y143763D01*
X499678Y143763D01*
G37*
%LPD*%
%LPC*%
G36*
X575878Y143763D02*
X575878Y143763D01*
X572704Y145078D01*
X570274Y147508D01*
X568959Y150682D01*
X568959Y154118D01*
X570274Y157292D01*
X572704Y159722D01*
X575878Y161037D01*
X592522Y161037D01*
X595696Y159722D01*
X598126Y157292D01*
X599441Y154118D01*
X599441Y150682D01*
X598126Y147508D01*
X595696Y145078D01*
X592522Y143763D01*
X575878Y143763D01*
G37*
%LPD*%
%LPC*%
G36*
X423478Y143763D02*
X423478Y143763D01*
X420304Y145078D01*
X417874Y147508D01*
X416559Y150682D01*
X416559Y154118D01*
X417874Y157292D01*
X420304Y159722D01*
X423478Y161037D01*
X440122Y161037D01*
X443296Y159722D01*
X445726Y157292D01*
X447041Y154118D01*
X447041Y150682D01*
X445726Y147508D01*
X443296Y145078D01*
X440122Y143763D01*
X423478Y143763D01*
G37*
%LPD*%
%LPC*%
G36*
X642860Y382015D02*
X642860Y382015D01*
X636015Y388860D01*
X636015Y398540D01*
X642860Y405385D01*
X652540Y405385D01*
X659385Y398540D01*
X659385Y388860D01*
X652540Y382015D01*
X642860Y382015D01*
G37*
%LPD*%
%LPC*%
G36*
X583114Y172338D02*
X583114Y172338D01*
X581106Y173170D01*
X579570Y174706D01*
X578738Y176714D01*
X578738Y178886D01*
X579570Y180894D01*
X580854Y182178D01*
X580906Y182248D01*
X580966Y182312D01*
X580992Y182361D01*
X581025Y182405D01*
X581056Y182487D01*
X581096Y182565D01*
X581104Y182612D01*
X581126Y182671D01*
X581138Y182819D01*
X581151Y182896D01*
X581151Y223504D01*
X581139Y223591D01*
X581136Y223678D01*
X581119Y223731D01*
X581111Y223786D01*
X581076Y223865D01*
X581049Y223949D01*
X581021Y223988D01*
X580995Y224045D01*
X580899Y224158D01*
X580854Y224222D01*
X579570Y225506D01*
X578738Y227514D01*
X578738Y229686D01*
X579570Y231694D01*
X581106Y233230D01*
X583114Y234062D01*
X585286Y234062D01*
X587294Y233230D01*
X588830Y231694D01*
X589662Y229686D01*
X589662Y227514D01*
X588830Y225506D01*
X587546Y224222D01*
X587494Y224152D01*
X587434Y224088D01*
X587408Y224039D01*
X587375Y223995D01*
X587344Y223913D01*
X587304Y223835D01*
X587296Y223788D01*
X587274Y223729D01*
X587262Y223581D01*
X587249Y223504D01*
X587249Y182896D01*
X587261Y182809D01*
X587264Y182722D01*
X587281Y182669D01*
X587289Y182614D01*
X587324Y182535D01*
X587351Y182451D01*
X587379Y182412D01*
X587405Y182355D01*
X587501Y182242D01*
X587546Y182178D01*
X588830Y180894D01*
X589662Y178886D01*
X589662Y176714D01*
X588830Y174706D01*
X587294Y173170D01*
X585286Y172338D01*
X583114Y172338D01*
G37*
%LPD*%
%LPC*%
G36*
X430714Y743838D02*
X430714Y743838D01*
X428706Y744670D01*
X427170Y746206D01*
X426338Y748214D01*
X426338Y750386D01*
X427170Y752394D01*
X428454Y753678D01*
X428478Y753710D01*
X428494Y753723D01*
X428519Y753761D01*
X428566Y753812D01*
X428592Y753861D01*
X428625Y753905D01*
X428638Y753940D01*
X428652Y753960D01*
X428667Y754008D01*
X428696Y754065D01*
X428704Y754112D01*
X428726Y754171D01*
X428729Y754204D01*
X428737Y754231D01*
X428740Y754327D01*
X428751Y754396D01*
X428751Y795004D01*
X428739Y795091D01*
X428739Y795094D01*
X428740Y795125D01*
X428738Y795133D01*
X428736Y795178D01*
X428719Y795231D01*
X428711Y795286D01*
X428679Y795358D01*
X428668Y795400D01*
X428660Y795413D01*
X428649Y795449D01*
X428621Y795488D01*
X428595Y795545D01*
X428551Y795597D01*
X428523Y795645D01*
X428481Y795684D01*
X428454Y795722D01*
X427170Y797006D01*
X426338Y799014D01*
X426338Y801186D01*
X427170Y803194D01*
X428706Y804730D01*
X430714Y805562D01*
X432886Y805562D01*
X434894Y804730D01*
X436430Y803194D01*
X437262Y801186D01*
X437262Y799014D01*
X436430Y797006D01*
X435146Y795722D01*
X435130Y795701D01*
X435111Y795684D01*
X435079Y795637D01*
X435034Y795588D01*
X435008Y795539D01*
X434975Y795495D01*
X434963Y795462D01*
X434953Y795448D01*
X434940Y795404D01*
X434904Y795335D01*
X434896Y795288D01*
X434874Y795229D01*
X434870Y795186D01*
X434868Y795177D01*
X434867Y795141D01*
X434862Y795081D01*
X434849Y795004D01*
X434849Y754396D01*
X434857Y754338D01*
X434855Y754283D01*
X434863Y754255D01*
X434864Y754222D01*
X434881Y754169D01*
X434889Y754114D01*
X434914Y754057D01*
X434927Y754008D01*
X434940Y753986D01*
X434951Y753951D01*
X434979Y753912D01*
X435005Y753855D01*
X435049Y753803D01*
X435072Y753763D01*
X435111Y753727D01*
X435146Y753678D01*
X436430Y752394D01*
X437262Y750386D01*
X437262Y748214D01*
X436430Y746206D01*
X434894Y744670D01*
X432886Y743838D01*
X430714Y743838D01*
G37*
%LPD*%
%LPC*%
G36*
X430714Y197738D02*
X430714Y197738D01*
X428706Y198570D01*
X427170Y200106D01*
X426338Y202114D01*
X426338Y204286D01*
X427170Y206294D01*
X428706Y207830D01*
X430714Y208662D01*
X432886Y208662D01*
X434894Y207830D01*
X436178Y206546D01*
X436248Y206494D01*
X436312Y206434D01*
X436361Y206408D01*
X436405Y206375D01*
X436487Y206344D01*
X436565Y206304D01*
X436612Y206296D01*
X436671Y206274D01*
X436819Y206262D01*
X436896Y206249D01*
X464804Y206249D01*
X464891Y206261D01*
X464978Y206264D01*
X465031Y206281D01*
X465086Y206289D01*
X465165Y206324D01*
X465249Y206351D01*
X465288Y206379D01*
X465345Y206405D01*
X465458Y206501D01*
X465522Y206546D01*
X466806Y207830D01*
X468814Y208662D01*
X470986Y208662D01*
X472994Y207830D01*
X474530Y206294D01*
X475362Y204286D01*
X475362Y202114D01*
X474530Y200106D01*
X472994Y198570D01*
X470986Y197738D01*
X468814Y197738D01*
X466806Y198570D01*
X465522Y199854D01*
X465452Y199906D01*
X465388Y199966D01*
X465339Y199992D01*
X465295Y200025D01*
X465213Y200056D01*
X465135Y200096D01*
X465088Y200104D01*
X465029Y200126D01*
X464881Y200138D01*
X464804Y200151D01*
X436896Y200151D01*
X436809Y200139D01*
X436722Y200136D01*
X436669Y200119D01*
X436614Y200111D01*
X436535Y200076D01*
X436451Y200049D01*
X436412Y200021D01*
X436355Y199995D01*
X436242Y199899D01*
X436178Y199854D01*
X434894Y198570D01*
X432886Y197738D01*
X430714Y197738D01*
G37*
%LPD*%
%LPC*%
G36*
X354514Y286638D02*
X354514Y286638D01*
X352506Y287470D01*
X350970Y289006D01*
X350138Y291014D01*
X350138Y293186D01*
X350970Y295194D01*
X352254Y296478D01*
X352306Y296548D01*
X352366Y296612D01*
X352392Y296661D01*
X352425Y296705D01*
X352456Y296787D01*
X352496Y296865D01*
X352504Y296912D01*
X352526Y296971D01*
X352538Y297119D01*
X352551Y297196D01*
X352551Y325104D01*
X352539Y325191D01*
X352536Y325278D01*
X352519Y325331D01*
X352511Y325386D01*
X352476Y325465D01*
X352449Y325549D01*
X352421Y325588D01*
X352395Y325645D01*
X352299Y325758D01*
X352254Y325822D01*
X350970Y327106D01*
X350138Y329114D01*
X350138Y331286D01*
X350970Y333294D01*
X352506Y334830D01*
X354514Y335662D01*
X356686Y335662D01*
X358694Y334830D01*
X360230Y333294D01*
X361062Y331286D01*
X361062Y329114D01*
X360230Y327106D01*
X358946Y325822D01*
X358894Y325752D01*
X358834Y325688D01*
X358808Y325639D01*
X358775Y325595D01*
X358744Y325513D01*
X358704Y325435D01*
X358696Y325388D01*
X358674Y325329D01*
X358662Y325181D01*
X358649Y325104D01*
X358649Y297196D01*
X358661Y297109D01*
X358664Y297022D01*
X358681Y296969D01*
X358689Y296914D01*
X358724Y296835D01*
X358751Y296751D01*
X358779Y296712D01*
X358805Y296655D01*
X358901Y296542D01*
X358946Y296478D01*
X360230Y295194D01*
X361062Y293186D01*
X361062Y291014D01*
X360230Y289006D01*
X358694Y287470D01*
X356686Y286638D01*
X354514Y286638D01*
G37*
%LPD*%
%LPC*%
G36*
X570414Y680338D02*
X570414Y680338D01*
X568406Y681170D01*
X566870Y682706D01*
X566038Y684714D01*
X566038Y686886D01*
X566870Y688894D01*
X568154Y690178D01*
X568206Y690248D01*
X568266Y690312D01*
X568292Y690361D01*
X568325Y690405D01*
X568356Y690487D01*
X568396Y690565D01*
X568404Y690612D01*
X568426Y690671D01*
X568438Y690819D01*
X568451Y690896D01*
X568451Y718804D01*
X568439Y718891D01*
X568436Y718978D01*
X568419Y719031D01*
X568411Y719086D01*
X568376Y719165D01*
X568349Y719249D01*
X568321Y719288D01*
X568295Y719345D01*
X568199Y719458D01*
X568154Y719522D01*
X566870Y720806D01*
X566038Y722814D01*
X566038Y724986D01*
X566870Y726994D01*
X568406Y728530D01*
X570414Y729362D01*
X572586Y729362D01*
X574594Y728530D01*
X576130Y726994D01*
X576962Y724986D01*
X576962Y722814D01*
X576130Y720806D01*
X574846Y719522D01*
X574794Y719452D01*
X574734Y719388D01*
X574708Y719339D01*
X574675Y719295D01*
X574644Y719213D01*
X574604Y719135D01*
X574596Y719088D01*
X574574Y719029D01*
X574562Y718881D01*
X574549Y718804D01*
X574549Y690896D01*
X574561Y690809D01*
X574564Y690722D01*
X574581Y690669D01*
X574589Y690614D01*
X574624Y690535D01*
X574651Y690451D01*
X574679Y690412D01*
X574705Y690355D01*
X574801Y690242D01*
X574846Y690178D01*
X576130Y688894D01*
X576962Y686886D01*
X576962Y684714D01*
X576130Y682706D01*
X574594Y681170D01*
X572586Y680338D01*
X570414Y680338D01*
G37*
%LPD*%
%LPC*%
G36*
X656244Y193166D02*
X656244Y193166D01*
X650366Y199044D01*
X650366Y207356D01*
X656244Y213234D01*
X664556Y213234D01*
X670434Y207356D01*
X670434Y199044D01*
X664556Y193166D01*
X656244Y193166D01*
G37*
%LPD*%
%LPC*%
G36*
X656244Y269366D02*
X656244Y269366D01*
X650366Y275244D01*
X650366Y283556D01*
X656244Y289434D01*
X664556Y289434D01*
X670434Y283556D01*
X670434Y275244D01*
X664556Y269366D01*
X656244Y269366D01*
G37*
%LPD*%
%LPC*%
G36*
X645679Y459739D02*
X645679Y459739D01*
X641944Y461286D01*
X639086Y464144D01*
X637539Y467879D01*
X637539Y471921D01*
X639086Y475656D01*
X641944Y478514D01*
X645679Y480061D01*
X649721Y480061D01*
X653456Y478514D01*
X656314Y475656D01*
X657861Y471921D01*
X657861Y467879D01*
X656314Y464144D01*
X653456Y461286D01*
X649721Y459739D01*
X645679Y459739D01*
G37*
%LPD*%
%LPC*%
G36*
X620279Y434339D02*
X620279Y434339D01*
X616544Y435886D01*
X613686Y438744D01*
X612139Y442479D01*
X612139Y446521D01*
X613686Y450256D01*
X616544Y453114D01*
X620279Y454661D01*
X624321Y454661D01*
X628056Y453114D01*
X630914Y450256D01*
X632461Y446521D01*
X632461Y442479D01*
X630914Y438744D01*
X628056Y435886D01*
X624321Y434339D01*
X620279Y434339D01*
G37*
%LPD*%
%LPC*%
G36*
X645679Y434339D02*
X645679Y434339D01*
X641944Y435886D01*
X639086Y438744D01*
X637539Y442479D01*
X637539Y446521D01*
X639086Y450256D01*
X641944Y453114D01*
X645679Y454661D01*
X649721Y454661D01*
X653456Y453114D01*
X656314Y450256D01*
X657861Y446521D01*
X657861Y442479D01*
X656314Y438744D01*
X653456Y435886D01*
X649721Y434339D01*
X645679Y434339D01*
G37*
%LPD*%
%LPC*%
G36*
X620279Y459739D02*
X620279Y459739D01*
X616544Y461286D01*
X613686Y464144D01*
X612139Y467879D01*
X612139Y471921D01*
X613686Y475656D01*
X616544Y478514D01*
X620279Y480061D01*
X624321Y480061D01*
X628056Y478514D01*
X630914Y475656D01*
X632461Y471921D01*
X632461Y467879D01*
X630914Y464144D01*
X628056Y461286D01*
X624321Y459739D01*
X620279Y459739D01*
G37*
%LPD*%
%LPC*%
G36*
X645679Y485139D02*
X645679Y485139D01*
X641944Y486686D01*
X639086Y489544D01*
X637539Y493279D01*
X637539Y497321D01*
X639086Y501056D01*
X641944Y503914D01*
X645679Y505461D01*
X649721Y505461D01*
X653456Y503914D01*
X656314Y501056D01*
X657861Y497321D01*
X657861Y493279D01*
X656314Y489544D01*
X653456Y486686D01*
X649721Y485139D01*
X645679Y485139D01*
G37*
%LPD*%
%LPC*%
G36*
X633004Y193166D02*
X633004Y193166D01*
X629316Y194694D01*
X626494Y197516D01*
X624966Y201204D01*
X624966Y205196D01*
X626494Y208884D01*
X629316Y211706D01*
X633004Y213234D01*
X636996Y213234D01*
X640684Y211706D01*
X643506Y208884D01*
X645034Y205196D01*
X645034Y201204D01*
X643506Y197516D01*
X640684Y194694D01*
X636996Y193166D01*
X633004Y193166D01*
G37*
%LPD*%
%LPC*%
G36*
X264796Y269827D02*
X264796Y269827D01*
X261277Y271285D01*
X258585Y273977D01*
X257127Y277496D01*
X257127Y281304D01*
X258585Y284823D01*
X261277Y287515D01*
X264796Y288973D01*
X268604Y288973D01*
X272123Y287515D01*
X274815Y284823D01*
X276273Y281304D01*
X276273Y277496D01*
X274815Y273977D01*
X272123Y271285D01*
X268604Y269827D01*
X264796Y269827D01*
G37*
%LPD*%
%LPC*%
G36*
X264796Y295227D02*
X264796Y295227D01*
X261277Y296685D01*
X258585Y299377D01*
X257127Y302896D01*
X257127Y306704D01*
X258585Y310223D01*
X261277Y312915D01*
X264796Y314373D01*
X268604Y314373D01*
X272123Y312915D01*
X274815Y310223D01*
X276273Y306704D01*
X276273Y302896D01*
X274815Y299377D01*
X272123Y296685D01*
X268604Y295227D01*
X264796Y295227D01*
G37*
%LPD*%
%LPC*%
G36*
X264796Y244427D02*
X264796Y244427D01*
X261277Y245885D01*
X258585Y248577D01*
X257127Y252096D01*
X257127Y255904D01*
X258585Y259423D01*
X261277Y262115D01*
X264796Y263573D01*
X268604Y263573D01*
X272123Y262115D01*
X274815Y259423D01*
X276273Y255904D01*
X276273Y252096D01*
X274815Y248577D01*
X272123Y245885D01*
X268604Y244427D01*
X264796Y244427D01*
G37*
%LPD*%
%LPC*%
G36*
X265614Y756538D02*
X265614Y756538D01*
X263606Y757370D01*
X262070Y758906D01*
X261238Y760914D01*
X261238Y763086D01*
X262070Y765094D01*
X263354Y766378D01*
X263406Y766448D01*
X263466Y766512D01*
X263492Y766561D01*
X263525Y766605D01*
X263556Y766687D01*
X263596Y766765D01*
X263604Y766812D01*
X263626Y766871D01*
X263638Y767019D01*
X263651Y767096D01*
X263651Y782304D01*
X263639Y782391D01*
X263636Y782478D01*
X263619Y782531D01*
X263611Y782586D01*
X263576Y782665D01*
X263549Y782749D01*
X263521Y782788D01*
X263495Y782845D01*
X263399Y782958D01*
X263354Y783022D01*
X262070Y784306D01*
X261238Y786314D01*
X261238Y788486D01*
X262070Y790494D01*
X263606Y792030D01*
X265614Y792862D01*
X267786Y792862D01*
X269794Y792030D01*
X271330Y790494D01*
X272162Y788486D01*
X272162Y786314D01*
X271330Y784306D01*
X270046Y783022D01*
X269994Y782952D01*
X269934Y782888D01*
X269908Y782839D01*
X269875Y782795D01*
X269844Y782713D01*
X269804Y782635D01*
X269796Y782588D01*
X269774Y782529D01*
X269762Y782381D01*
X269749Y782304D01*
X269749Y767096D01*
X269761Y767009D01*
X269764Y766922D01*
X269781Y766869D01*
X269789Y766814D01*
X269824Y766735D01*
X269851Y766651D01*
X269879Y766612D01*
X269905Y766555D01*
X270001Y766442D01*
X270046Y766378D01*
X271330Y765094D01*
X272162Y763086D01*
X272162Y760914D01*
X271330Y758906D01*
X269794Y757370D01*
X267786Y756538D01*
X265614Y756538D01*
G37*
%LPD*%
%LPC*%
G36*
X240214Y870838D02*
X240214Y870838D01*
X238206Y871670D01*
X236670Y873206D01*
X235838Y875214D01*
X235838Y877386D01*
X236670Y879394D01*
X237954Y880678D01*
X238006Y880748D01*
X238066Y880812D01*
X238092Y880861D01*
X238125Y880905D01*
X238156Y880987D01*
X238196Y881065D01*
X238204Y881112D01*
X238226Y881171D01*
X238238Y881319D01*
X238251Y881396D01*
X238251Y896604D01*
X238239Y896691D01*
X238236Y896778D01*
X238219Y896831D01*
X238211Y896886D01*
X238176Y896965D01*
X238149Y897049D01*
X238121Y897088D01*
X238095Y897145D01*
X237999Y897258D01*
X237954Y897322D01*
X236670Y898606D01*
X235838Y900614D01*
X235838Y902786D01*
X236670Y904794D01*
X238206Y906330D01*
X240214Y907162D01*
X242386Y907162D01*
X244394Y906330D01*
X245930Y904794D01*
X246762Y902786D01*
X246762Y900614D01*
X245930Y898606D01*
X244646Y897322D01*
X244594Y897252D01*
X244534Y897188D01*
X244508Y897139D01*
X244475Y897095D01*
X244444Y897013D01*
X244404Y896935D01*
X244396Y896888D01*
X244374Y896829D01*
X244364Y896705D01*
X244363Y896702D01*
X244362Y896690D01*
X244362Y896681D01*
X244349Y896604D01*
X244349Y881396D01*
X244361Y881309D01*
X244364Y881222D01*
X244381Y881169D01*
X244389Y881114D01*
X244424Y881035D01*
X244451Y880951D01*
X244479Y880912D01*
X244505Y880855D01*
X244601Y880742D01*
X244646Y880678D01*
X245930Y879394D01*
X246762Y877386D01*
X246762Y875214D01*
X245930Y873206D01*
X244394Y871670D01*
X242386Y870838D01*
X240214Y870838D01*
G37*
%LPD*%
%LPC*%
G36*
X293331Y940331D02*
X293331Y940331D01*
X293331Y958663D01*
X294002Y958557D01*
X295730Y957995D01*
X297349Y957170D01*
X298818Y956103D01*
X300103Y954818D01*
X301170Y953349D01*
X301995Y951730D01*
X302557Y950002D01*
X302841Y948208D01*
X302841Y940331D01*
X293331Y940331D01*
G37*
%LPD*%
%LPC*%
G36*
X534631Y940331D02*
X534631Y940331D01*
X534631Y958663D01*
X535302Y958557D01*
X537030Y957995D01*
X538649Y957170D01*
X540118Y956103D01*
X541403Y954818D01*
X542470Y953349D01*
X543295Y951730D01*
X543857Y950002D01*
X544141Y948208D01*
X544141Y940331D01*
X534631Y940331D01*
G37*
%LPD*%
%LPC*%
G36*
X534631Y936269D02*
X534631Y936269D01*
X544141Y936269D01*
X544141Y928392D01*
X543857Y926598D01*
X543295Y924870D01*
X542470Y923251D01*
X541403Y921782D01*
X540118Y920497D01*
X538649Y919430D01*
X537030Y918605D01*
X535302Y918043D01*
X534631Y917937D01*
X534631Y936269D01*
G37*
%LPD*%
%LPC*%
G36*
X293331Y936269D02*
X293331Y936269D01*
X302841Y936269D01*
X302841Y928392D01*
X302557Y926598D01*
X301995Y924870D01*
X301170Y923251D01*
X300103Y921782D01*
X298818Y920497D01*
X297349Y919430D01*
X295730Y918605D01*
X294002Y918043D01*
X293331Y917937D01*
X293331Y936269D01*
G37*
%LPD*%
%LPC*%
G36*
X521059Y940331D02*
X521059Y940331D01*
X521059Y948208D01*
X521343Y950002D01*
X521905Y951730D01*
X522730Y953349D01*
X523797Y954818D01*
X525082Y956103D01*
X526551Y957170D01*
X528170Y957995D01*
X529898Y958557D01*
X530569Y958663D01*
X530569Y940331D01*
X521059Y940331D01*
G37*
%LPD*%
%LPC*%
G36*
X279759Y940331D02*
X279759Y940331D01*
X279759Y948208D01*
X280043Y950002D01*
X280605Y951730D01*
X281430Y953349D01*
X282497Y954818D01*
X283782Y956103D01*
X285251Y957170D01*
X286870Y957995D01*
X288598Y958557D01*
X289269Y958663D01*
X289269Y940331D01*
X279759Y940331D01*
G37*
%LPD*%
%LPC*%
G36*
X288598Y918043D02*
X288598Y918043D01*
X286870Y918605D01*
X285251Y919430D01*
X283782Y920497D01*
X282497Y921782D01*
X281430Y923251D01*
X280605Y924870D01*
X280043Y926598D01*
X279759Y928392D01*
X279759Y936269D01*
X289269Y936269D01*
X289269Y917937D01*
X288598Y918043D01*
G37*
%LPD*%
%LPC*%
G36*
X529898Y918043D02*
X529898Y918043D01*
X528170Y918605D01*
X526551Y919430D01*
X525082Y920497D01*
X523797Y921782D01*
X522730Y923251D01*
X521905Y924870D01*
X521343Y926598D01*
X521059Y928392D01*
X521059Y936269D01*
X530569Y936269D01*
X530569Y917937D01*
X529898Y918043D01*
G37*
%LPD*%
%LPC*%
G36*
X340076Y154431D02*
X340076Y154431D01*
X340203Y155067D01*
X340892Y156732D01*
X341638Y157848D01*
X341645Y157862D01*
X341655Y157874D01*
X341706Y157990D01*
X341761Y158104D01*
X341764Y158119D01*
X341770Y158133D01*
X341787Y158259D01*
X341809Y158384D01*
X341807Y158400D01*
X341809Y158415D01*
X341791Y158541D01*
X341777Y158667D01*
X341771Y158681D01*
X341768Y158696D01*
X341716Y158812D01*
X341667Y158929D01*
X341658Y158941D01*
X341651Y158956D01*
X341569Y159053D01*
X341490Y159151D01*
X341477Y159160D01*
X341467Y159172D01*
X341408Y159209D01*
X341257Y159315D01*
X341214Y159330D01*
X341182Y159350D01*
X340072Y159810D01*
X339094Y160463D01*
X338263Y161294D01*
X337610Y162272D01*
X337160Y163359D01*
X337015Y164085D01*
X342900Y164085D01*
X348785Y164085D01*
X348640Y163359D01*
X348470Y162949D01*
X348442Y162837D01*
X348407Y162728D01*
X348406Y162700D01*
X348399Y162673D01*
X348403Y162559D01*
X348400Y162444D01*
X348407Y162417D01*
X348408Y162389D01*
X348443Y162280D01*
X348472Y162169D01*
X348486Y162145D01*
X348494Y162118D01*
X348558Y162023D01*
X348617Y161924D01*
X348637Y161905D01*
X348653Y161882D01*
X348740Y161808D01*
X348824Y161730D01*
X348849Y161717D01*
X348870Y161699D01*
X348975Y161652D01*
X349077Y161600D01*
X349102Y161596D01*
X349130Y161584D01*
X349394Y161547D01*
X349408Y161545D01*
X353569Y161545D01*
X353569Y154431D01*
X340076Y154431D01*
G37*
%LPD*%
%LPC*%
G36*
X329114Y464438D02*
X329114Y464438D01*
X327106Y465270D01*
X325570Y466806D01*
X324738Y468814D01*
X324738Y470986D01*
X325570Y472994D01*
X327106Y474530D01*
X329114Y475362D01*
X331286Y475362D01*
X333294Y474530D01*
X334830Y472994D01*
X335662Y470986D01*
X335662Y468814D01*
X334830Y466806D01*
X333294Y465270D01*
X331286Y464438D01*
X329114Y464438D01*
G37*
%LPD*%
%LPC*%
G36*
X456114Y273938D02*
X456114Y273938D01*
X454106Y274770D01*
X452570Y276306D01*
X451738Y278314D01*
X451738Y280486D01*
X452570Y282494D01*
X454106Y284030D01*
X456114Y284862D01*
X458286Y284862D01*
X460294Y284030D01*
X461830Y282494D01*
X462662Y280486D01*
X462662Y278314D01*
X461830Y276306D01*
X460294Y274770D01*
X458286Y273938D01*
X456114Y273938D01*
G37*
%LPD*%
%LPC*%
G36*
X357631Y154431D02*
X357631Y154431D01*
X357631Y161545D01*
X363105Y161545D01*
X364871Y161193D01*
X366536Y160504D01*
X368034Y159503D01*
X369307Y158230D01*
X370308Y156732D01*
X370997Y155067D01*
X371124Y154431D01*
X357631Y154431D01*
G37*
%LPD*%
%LPC*%
G36*
X357631Y143255D02*
X357631Y143255D01*
X357631Y150369D01*
X371124Y150369D01*
X370997Y149733D01*
X370308Y148068D01*
X369307Y146570D01*
X368034Y145297D01*
X366536Y144296D01*
X364871Y143607D01*
X363105Y143255D01*
X357631Y143255D01*
G37*
%LPD*%
%LPC*%
G36*
X348095Y143255D02*
X348095Y143255D01*
X346329Y143607D01*
X344664Y144296D01*
X343166Y145297D01*
X341893Y146570D01*
X340892Y148068D01*
X340203Y149733D01*
X340076Y150369D01*
X353569Y150369D01*
X353569Y143255D01*
X348095Y143255D01*
G37*
%LPD*%
%LPC*%
G36*
X649731Y332231D02*
X649731Y332231D01*
X649731Y342393D01*
X652750Y342393D01*
X659893Y335250D01*
X659893Y332231D01*
X649731Y332231D01*
G37*
%LPD*%
%LPC*%
G36*
X635507Y332231D02*
X635507Y332231D01*
X635507Y335250D01*
X642650Y342393D01*
X645669Y342393D01*
X645669Y332231D01*
X635507Y332231D01*
G37*
%LPD*%
%LPC*%
G36*
X649731Y318007D02*
X649731Y318007D01*
X649731Y328169D01*
X659893Y328169D01*
X659893Y325150D01*
X652750Y318007D01*
X649731Y318007D01*
G37*
%LPD*%
%LPC*%
G36*
X642650Y318007D02*
X642650Y318007D01*
X635507Y325150D01*
X635507Y328169D01*
X645669Y328169D01*
X645669Y318007D01*
X642650Y318007D01*
G37*
%LPD*%
%LPC*%
G36*
X665399Y658799D02*
X665399Y658799D01*
X665399Y665381D01*
X670236Y665381D01*
X671797Y665070D01*
X673268Y664461D01*
X674591Y663577D01*
X675717Y662451D01*
X676601Y661128D01*
X677210Y659657D01*
X677381Y658799D01*
X665399Y658799D01*
G37*
%LPD*%
%LPC*%
G36*
X665399Y588799D02*
X665399Y588799D01*
X665399Y595381D01*
X670236Y595381D01*
X671797Y595070D01*
X673268Y594461D01*
X674591Y593577D01*
X675717Y592451D01*
X676601Y591128D01*
X677210Y589657D01*
X677381Y588799D01*
X665399Y588799D01*
G37*
%LPD*%
%LPC*%
G36*
X650419Y658799D02*
X650419Y658799D01*
X650590Y659657D01*
X651199Y661128D01*
X652083Y662451D01*
X653209Y663577D01*
X654532Y664461D01*
X656003Y665070D01*
X657564Y665381D01*
X662401Y665381D01*
X662401Y658799D01*
X650419Y658799D01*
G37*
%LPD*%
%LPC*%
G36*
X650419Y588799D02*
X650419Y588799D01*
X650590Y589657D01*
X651199Y591128D01*
X652083Y592451D01*
X653209Y593577D01*
X654532Y594461D01*
X656003Y595070D01*
X657564Y595381D01*
X662401Y595381D01*
X662401Y588799D01*
X650419Y588799D01*
G37*
%LPD*%
%LPC*%
G36*
X665399Y649219D02*
X665399Y649219D01*
X665399Y655801D01*
X677381Y655801D01*
X677210Y654943D01*
X676601Y653472D01*
X675717Y652149D01*
X674591Y651023D01*
X673268Y650139D01*
X671797Y649530D01*
X670236Y649219D01*
X665399Y649219D01*
G37*
%LPD*%
%LPC*%
G36*
X665399Y579219D02*
X665399Y579219D01*
X665399Y585801D01*
X677381Y585801D01*
X677210Y584943D01*
X676601Y583472D01*
X675717Y582149D01*
X674591Y581023D01*
X673268Y580139D01*
X671797Y579530D01*
X670236Y579219D01*
X665399Y579219D01*
G37*
%LPD*%
%LPC*%
G36*
X657564Y649219D02*
X657564Y649219D01*
X656003Y649530D01*
X654532Y650139D01*
X653209Y651023D01*
X652083Y652149D01*
X651199Y653472D01*
X650590Y654943D01*
X650419Y655801D01*
X662401Y655801D01*
X662401Y649219D01*
X657564Y649219D01*
G37*
%LPD*%
%LPC*%
G36*
X657564Y579219D02*
X657564Y579219D01*
X656003Y579530D01*
X654532Y580139D01*
X653209Y581023D01*
X652083Y582149D01*
X651199Y583472D01*
X650590Y584943D01*
X650419Y585801D01*
X662401Y585801D01*
X662401Y579219D01*
X657564Y579219D01*
G37*
%LPD*%
%LPC*%
G36*
X268731Y230631D02*
X268731Y230631D01*
X268731Y238681D01*
X274574Y238681D01*
X275221Y238508D01*
X275800Y238173D01*
X276273Y237700D01*
X276608Y237121D01*
X276781Y236474D01*
X276781Y230631D01*
X268731Y230631D01*
G37*
%LPD*%
%LPC*%
G36*
X256619Y230631D02*
X256619Y230631D01*
X256619Y236474D01*
X256792Y237121D01*
X257127Y237700D01*
X257600Y238173D01*
X258179Y238508D01*
X258826Y238681D01*
X264669Y238681D01*
X264669Y230631D01*
X256619Y230631D01*
G37*
%LPD*%
%LPC*%
G36*
X268731Y218519D02*
X268731Y218519D01*
X268731Y226569D01*
X276781Y226569D01*
X276781Y220726D01*
X276608Y220079D01*
X276273Y219500D01*
X275800Y219027D01*
X275221Y218692D01*
X274574Y218519D01*
X268731Y218519D01*
G37*
%LPD*%
%LPC*%
G36*
X258826Y218519D02*
X258826Y218519D01*
X258179Y218692D01*
X257600Y219027D01*
X257127Y219500D01*
X256792Y220079D01*
X256619Y220726D01*
X256619Y226569D01*
X264669Y226569D01*
X264669Y218519D01*
X258826Y218519D01*
G37*
%LPD*%
%LPC*%
G36*
X624331Y497331D02*
X624331Y497331D01*
X624331Y505780D01*
X624798Y505706D01*
X626395Y505187D01*
X627892Y504425D01*
X629250Y503438D01*
X630438Y502250D01*
X631425Y500892D01*
X632187Y499395D01*
X632706Y497798D01*
X632780Y497331D01*
X624331Y497331D01*
G37*
%LPD*%
%LPC*%
G36*
X624331Y493269D02*
X624331Y493269D01*
X632780Y493269D01*
X632706Y492802D01*
X632187Y491205D01*
X631425Y489708D01*
X630438Y488350D01*
X629250Y487162D01*
X627892Y486175D01*
X626395Y485413D01*
X624798Y484894D01*
X624331Y484820D01*
X624331Y493269D01*
G37*
%LPD*%
%LPC*%
G36*
X611820Y497331D02*
X611820Y497331D01*
X611894Y497798D01*
X612413Y499395D01*
X613175Y500892D01*
X614162Y502250D01*
X615350Y503438D01*
X616708Y504425D01*
X618205Y505187D01*
X619802Y505706D01*
X620269Y505780D01*
X620269Y497331D01*
X611820Y497331D01*
G37*
%LPD*%
%LPC*%
G36*
X619802Y484894D02*
X619802Y484894D01*
X618205Y485413D01*
X616708Y486175D01*
X615350Y487162D01*
X614162Y488350D01*
X613175Y489708D01*
X612413Y491205D01*
X611894Y492802D01*
X611820Y493269D01*
X620269Y493269D01*
X620269Y484820D01*
X619802Y484894D01*
G37*
%LPD*%
%LPC*%
G36*
X637031Y281431D02*
X637031Y281431D01*
X637031Y289751D01*
X637468Y289682D01*
X639047Y289169D01*
X640525Y288416D01*
X641868Y287441D01*
X643041Y286268D01*
X644016Y284925D01*
X644769Y283447D01*
X645282Y281868D01*
X645351Y281431D01*
X637031Y281431D01*
G37*
%LPD*%
%LPC*%
G36*
X624649Y281431D02*
X624649Y281431D01*
X624718Y281868D01*
X625231Y283447D01*
X625984Y284925D01*
X626959Y286268D01*
X628132Y287441D01*
X629475Y288416D01*
X630953Y289169D01*
X632532Y289682D01*
X632969Y289751D01*
X632969Y281431D01*
X624649Y281431D01*
G37*
%LPD*%
%LPC*%
G36*
X637031Y277369D02*
X637031Y277369D01*
X645351Y277369D01*
X645282Y276932D01*
X644769Y275353D01*
X644016Y273875D01*
X643041Y272532D01*
X641868Y271359D01*
X640525Y270384D01*
X639047Y269631D01*
X637468Y269118D01*
X637031Y269049D01*
X637031Y277369D01*
G37*
%LPD*%
%LPC*%
G36*
X632532Y269118D02*
X632532Y269118D01*
X630953Y269631D01*
X629475Y270384D01*
X628132Y271359D01*
X626959Y272532D01*
X625984Y273875D01*
X625231Y275353D01*
X624718Y276932D01*
X624649Y277369D01*
X632969Y277369D01*
X632969Y269049D01*
X632532Y269118D01*
G37*
%LPD*%
%LPC*%
G36*
X638931Y599331D02*
X638931Y599331D01*
X638931Y606891D01*
X639193Y606850D01*
X640658Y606373D01*
X642031Y605674D01*
X643278Y604768D01*
X644368Y603678D01*
X645274Y602431D01*
X645973Y601058D01*
X646450Y599593D01*
X646491Y599331D01*
X638931Y599331D01*
G37*
%LPD*%
%LPC*%
G36*
X638931Y649331D02*
X638931Y649331D01*
X638931Y656891D01*
X639193Y656850D01*
X640658Y656373D01*
X642031Y655674D01*
X643278Y654768D01*
X644368Y653678D01*
X645274Y652431D01*
X645973Y651058D01*
X646450Y649593D01*
X646491Y649331D01*
X638931Y649331D01*
G37*
%LPD*%
%LPC*%
G36*
X638931Y645269D02*
X638931Y645269D01*
X646491Y645269D01*
X646450Y645007D01*
X645973Y643542D01*
X645274Y642169D01*
X644368Y640922D01*
X643278Y639832D01*
X642031Y638926D01*
X640658Y638227D01*
X639193Y637750D01*
X638931Y637709D01*
X638931Y645269D01*
G37*
%LPD*%
%LPC*%
G36*
X627309Y649331D02*
X627309Y649331D01*
X627350Y649593D01*
X627827Y651058D01*
X628526Y652431D01*
X629432Y653678D01*
X630522Y654768D01*
X631769Y655674D01*
X633142Y656373D01*
X634607Y656850D01*
X634869Y656891D01*
X634869Y649331D01*
X627309Y649331D01*
G37*
%LPD*%
%LPC*%
G36*
X627309Y599331D02*
X627309Y599331D01*
X627350Y599593D01*
X627827Y601058D01*
X628526Y602431D01*
X629432Y603678D01*
X630522Y604768D01*
X631769Y605674D01*
X633142Y606373D01*
X634607Y606850D01*
X634869Y606891D01*
X634869Y599331D01*
X627309Y599331D01*
G37*
%LPD*%
%LPC*%
G36*
X638931Y595269D02*
X638931Y595269D01*
X646491Y595269D01*
X646450Y595007D01*
X645973Y593542D01*
X645274Y592169D01*
X644368Y590922D01*
X643278Y589832D01*
X642031Y588926D01*
X640658Y588227D01*
X639193Y587750D01*
X638931Y587709D01*
X638931Y595269D01*
G37*
%LPD*%
%LPC*%
G36*
X634607Y637750D02*
X634607Y637750D01*
X633142Y638227D01*
X631769Y638926D01*
X630522Y639832D01*
X629432Y640922D01*
X628526Y642169D01*
X627827Y643542D01*
X627350Y645007D01*
X627309Y645269D01*
X634869Y645269D01*
X634869Y637709D01*
X634607Y637750D01*
G37*
%LPD*%
%LPC*%
G36*
X634607Y587750D02*
X634607Y587750D01*
X633142Y588227D01*
X631769Y588926D01*
X630522Y589832D01*
X629432Y590922D01*
X628526Y592169D01*
X627827Y593542D01*
X627350Y595007D01*
X627309Y595269D01*
X634869Y595269D01*
X634869Y587709D01*
X634607Y587750D01*
G37*
%LPD*%
%LPC*%
G36*
X597915Y648715D02*
X597915Y648715D01*
X597915Y653585D01*
X598641Y653440D01*
X599728Y652990D01*
X600706Y652337D01*
X601537Y651506D01*
X602190Y650528D01*
X602640Y649441D01*
X602785Y648715D01*
X597915Y648715D01*
G37*
%LPD*%
%LPC*%
G36*
X51815Y547115D02*
X51815Y547115D01*
X51815Y551985D01*
X52541Y551840D01*
X53628Y551390D01*
X54606Y550737D01*
X55437Y549906D01*
X56090Y548928D01*
X56540Y547841D01*
X56685Y547115D01*
X51815Y547115D01*
G37*
%LPD*%
%LPC*%
G36*
X623315Y331215D02*
X623315Y331215D01*
X623315Y336085D01*
X624041Y335940D01*
X625128Y335490D01*
X626106Y334837D01*
X626937Y334006D01*
X627590Y333028D01*
X628040Y331941D01*
X628185Y331215D01*
X623315Y331215D01*
G37*
%LPD*%
%LPC*%
G36*
X521715Y750315D02*
X521715Y750315D01*
X521715Y755185D01*
X522441Y755040D01*
X523528Y754590D01*
X524506Y753937D01*
X525337Y753106D01*
X525990Y752128D01*
X526440Y751041D01*
X526585Y750315D01*
X521715Y750315D01*
G37*
%LPD*%
%LPC*%
G36*
X547115Y432815D02*
X547115Y432815D01*
X547115Y437685D01*
X547841Y437540D01*
X548928Y437090D01*
X549906Y436437D01*
X550737Y435606D01*
X551390Y434628D01*
X551840Y433541D01*
X551985Y432815D01*
X547115Y432815D01*
G37*
%LPD*%
%LPC*%
G36*
X382015Y445515D02*
X382015Y445515D01*
X382015Y450385D01*
X382741Y450240D01*
X383828Y449790D01*
X384806Y449137D01*
X385637Y448306D01*
X386290Y447328D01*
X386740Y446241D01*
X386885Y445515D01*
X382015Y445515D01*
G37*
%LPD*%
%LPC*%
G36*
X140715Y877315D02*
X140715Y877315D01*
X140715Y882185D01*
X141441Y882040D01*
X142528Y881590D01*
X143506Y880937D01*
X144337Y880106D01*
X144990Y879128D01*
X145440Y878041D01*
X145585Y877315D01*
X140715Y877315D01*
G37*
%LPD*%
%LPC*%
G36*
X585215Y521715D02*
X585215Y521715D01*
X585215Y526585D01*
X585941Y526440D01*
X587028Y525990D01*
X588006Y525337D01*
X588837Y524506D01*
X589490Y523528D01*
X589940Y522441D01*
X590085Y521715D01*
X585215Y521715D01*
G37*
%LPD*%
%LPC*%
G36*
X305815Y915415D02*
X305815Y915415D01*
X305815Y920285D01*
X306541Y920140D01*
X307628Y919690D01*
X308606Y919037D01*
X309437Y918206D01*
X310090Y917228D01*
X310540Y916141D01*
X310685Y915415D01*
X305815Y915415D01*
G37*
%LPD*%
%LPC*%
G36*
X610615Y572515D02*
X610615Y572515D01*
X610615Y577385D01*
X611341Y577240D01*
X612428Y576790D01*
X613406Y576137D01*
X614237Y575306D01*
X614890Y574328D01*
X615340Y573241D01*
X615485Y572515D01*
X610615Y572515D01*
G37*
%LPD*%
%LPC*%
G36*
X293115Y864615D02*
X293115Y864615D01*
X293115Y869485D01*
X293841Y869340D01*
X294928Y868890D01*
X295906Y868237D01*
X296737Y867406D01*
X297390Y866428D01*
X297840Y865341D01*
X297985Y864615D01*
X293115Y864615D01*
G37*
%LPD*%
%LPC*%
G36*
X509015Y674115D02*
X509015Y674115D01*
X509015Y678985D01*
X509741Y678840D01*
X510828Y678390D01*
X511806Y677737D01*
X512637Y676906D01*
X513290Y675928D01*
X513740Y674841D01*
X513885Y674115D01*
X509015Y674115D01*
G37*
%LPD*%
%LPC*%
G36*
X51815Y826515D02*
X51815Y826515D01*
X51815Y831385D01*
X52541Y831240D01*
X53628Y830790D01*
X54606Y830137D01*
X55437Y829306D01*
X56090Y828328D01*
X56540Y827241D01*
X56685Y826515D01*
X51815Y826515D01*
G37*
%LPD*%
%LPC*%
G36*
X140715Y597915D02*
X140715Y597915D01*
X140715Y602785D01*
X141441Y602640D01*
X142528Y602190D01*
X143506Y601537D01*
X144337Y600706D01*
X144990Y599728D01*
X145440Y598641D01*
X145585Y597915D01*
X140715Y597915D01*
G37*
%LPD*%
%LPC*%
G36*
X534415Y801115D02*
X534415Y801115D01*
X534415Y805985D01*
X535141Y805840D01*
X536228Y805390D01*
X537206Y804737D01*
X538037Y803906D01*
X538690Y802928D01*
X539140Y801841D01*
X539285Y801115D01*
X534415Y801115D01*
G37*
%LPD*%
%LPC*%
G36*
X51815Y966215D02*
X51815Y966215D01*
X51815Y971085D01*
X52541Y970940D01*
X53628Y970490D01*
X54606Y969837D01*
X55437Y969006D01*
X56090Y968028D01*
X56540Y966941D01*
X56685Y966215D01*
X51815Y966215D01*
G37*
%LPD*%
%LPC*%
G36*
X140715Y458215D02*
X140715Y458215D01*
X140715Y463085D01*
X141441Y462940D01*
X142528Y462490D01*
X143506Y461837D01*
X144337Y461006D01*
X144990Y460028D01*
X145440Y458941D01*
X145585Y458215D01*
X140715Y458215D01*
G37*
%LPD*%
%LPC*%
G36*
X534415Y775715D02*
X534415Y775715D01*
X534415Y780585D01*
X535141Y780440D01*
X536228Y779990D01*
X537206Y779337D01*
X538037Y778506D01*
X538690Y777528D01*
X539140Y776441D01*
X539285Y775715D01*
X534415Y775715D01*
G37*
%LPD*%
%LPC*%
G36*
X293115Y216915D02*
X293115Y216915D01*
X293115Y221785D01*
X293841Y221640D01*
X294928Y221190D01*
X295906Y220537D01*
X296737Y219706D01*
X297390Y218728D01*
X297840Y217641D01*
X297985Y216915D01*
X293115Y216915D01*
G37*
%LPD*%
%LPC*%
G36*
X51815Y686815D02*
X51815Y686815D01*
X51815Y691685D01*
X52541Y691540D01*
X53628Y691090D01*
X54606Y690437D01*
X55437Y689606D01*
X56090Y688628D01*
X56540Y687541D01*
X56685Y686815D01*
X51815Y686815D01*
G37*
%LPD*%
%LPC*%
G36*
X305815Y699515D02*
X305815Y699515D01*
X305815Y704385D01*
X306541Y704240D01*
X307628Y703790D01*
X308606Y703137D01*
X309437Y702306D01*
X310090Y701328D01*
X310540Y700241D01*
X310685Y699515D01*
X305815Y699515D01*
G37*
%LPD*%
%LPC*%
G36*
X343915Y166115D02*
X343915Y166115D01*
X343915Y170985D01*
X344641Y170840D01*
X345728Y170390D01*
X346706Y169737D01*
X347537Y168906D01*
X348190Y167928D01*
X348640Y166841D01*
X348785Y166115D01*
X343915Y166115D01*
G37*
%LPD*%
%LPC*%
G36*
X140715Y737615D02*
X140715Y737615D01*
X140715Y742485D01*
X141441Y742340D01*
X142528Y741890D01*
X143506Y741237D01*
X144337Y740406D01*
X144990Y739428D01*
X145440Y738341D01*
X145585Y737615D01*
X140715Y737615D01*
G37*
%LPD*%
%LPC*%
G36*
X534415Y773685D02*
X534415Y773685D01*
X539285Y773685D01*
X539140Y772959D01*
X538690Y771872D01*
X538037Y770894D01*
X537206Y770063D01*
X536228Y769410D01*
X535141Y768960D01*
X534415Y768815D01*
X534415Y773685D01*
G37*
%LPD*%
%LPC*%
G36*
X514815Y750315D02*
X514815Y750315D01*
X514960Y751041D01*
X515410Y752128D01*
X516063Y753106D01*
X516894Y753937D01*
X517872Y754590D01*
X518959Y755040D01*
X519685Y755185D01*
X519685Y750315D01*
X514815Y750315D01*
G37*
%LPD*%
%LPC*%
G36*
X603715Y572515D02*
X603715Y572515D01*
X603860Y573241D01*
X604310Y574328D01*
X604963Y575306D01*
X605794Y576137D01*
X606772Y576790D01*
X607859Y577240D01*
X608585Y577385D01*
X608585Y572515D01*
X603715Y572515D01*
G37*
%LPD*%
%LPC*%
G36*
X610615Y570485D02*
X610615Y570485D01*
X615485Y570485D01*
X615340Y569759D01*
X614890Y568672D01*
X614237Y567694D01*
X613406Y566863D01*
X612428Y566210D01*
X611341Y565760D01*
X610615Y565615D01*
X610615Y570485D01*
G37*
%LPD*%
%LPC*%
G36*
X44915Y547115D02*
X44915Y547115D01*
X45060Y547841D01*
X45510Y548928D01*
X46163Y549906D01*
X46994Y550737D01*
X47972Y551390D01*
X49059Y551840D01*
X49785Y551985D01*
X49785Y547115D01*
X44915Y547115D01*
G37*
%LPD*%
%LPC*%
G36*
X51815Y545085D02*
X51815Y545085D01*
X56685Y545085D01*
X56540Y544359D01*
X56090Y543272D01*
X55437Y542294D01*
X54606Y541463D01*
X53628Y540810D01*
X52541Y540360D01*
X51815Y540215D01*
X51815Y545085D01*
G37*
%LPD*%
%LPC*%
G36*
X578315Y521715D02*
X578315Y521715D01*
X578460Y522441D01*
X578910Y523528D01*
X579563Y524506D01*
X580394Y525337D01*
X581372Y525990D01*
X582459Y526440D01*
X583185Y526585D01*
X583185Y521715D01*
X578315Y521715D01*
G37*
%LPD*%
%LPC*%
G36*
X585215Y519685D02*
X585215Y519685D01*
X590085Y519685D01*
X589940Y518959D01*
X589490Y517872D01*
X588837Y516894D01*
X588006Y516063D01*
X587028Y515410D01*
X585941Y514960D01*
X585215Y514815D01*
X585215Y519685D01*
G37*
%LPD*%
%LPC*%
G36*
X140715Y595885D02*
X140715Y595885D01*
X145585Y595885D01*
X145440Y595159D01*
X144990Y594072D01*
X144337Y593094D01*
X143506Y592263D01*
X142528Y591610D01*
X141441Y591160D01*
X140715Y591015D01*
X140715Y595885D01*
G37*
%LPD*%
%LPC*%
G36*
X133815Y458215D02*
X133815Y458215D01*
X133960Y458941D01*
X134410Y460028D01*
X135063Y461006D01*
X135894Y461837D01*
X136872Y462490D01*
X137959Y462940D01*
X138685Y463085D01*
X138685Y458215D01*
X133815Y458215D01*
G37*
%LPD*%
%LPC*%
G36*
X140715Y456185D02*
X140715Y456185D01*
X145585Y456185D01*
X145440Y455459D01*
X144990Y454372D01*
X144337Y453394D01*
X143506Y452563D01*
X142528Y451910D01*
X141441Y451460D01*
X140715Y451315D01*
X140715Y456185D01*
G37*
%LPD*%
%LPC*%
G36*
X133815Y597915D02*
X133815Y597915D01*
X133960Y598641D01*
X134410Y599728D01*
X135063Y600706D01*
X135894Y601537D01*
X136872Y602190D01*
X137959Y602640D01*
X138685Y602785D01*
X138685Y597915D01*
X133815Y597915D01*
G37*
%LPD*%
%LPC*%
G36*
X293115Y862585D02*
X293115Y862585D01*
X297985Y862585D01*
X297840Y861859D01*
X297390Y860772D01*
X296737Y859794D01*
X295906Y858963D01*
X294928Y858310D01*
X293841Y857860D01*
X293115Y857715D01*
X293115Y862585D01*
G37*
%LPD*%
%LPC*%
G36*
X382015Y443485D02*
X382015Y443485D01*
X386885Y443485D01*
X386740Y442759D01*
X386290Y441672D01*
X385637Y440694D01*
X384806Y439863D01*
X383828Y439210D01*
X382741Y438760D01*
X382015Y438615D01*
X382015Y443485D01*
G37*
%LPD*%
%LPC*%
G36*
X540215Y432815D02*
X540215Y432815D01*
X540360Y433541D01*
X540810Y434628D01*
X541463Y435606D01*
X542294Y436437D01*
X543272Y437090D01*
X544359Y437540D01*
X545085Y437685D01*
X545085Y432815D01*
X540215Y432815D01*
G37*
%LPD*%
%LPC*%
G36*
X547115Y430785D02*
X547115Y430785D01*
X551985Y430785D01*
X551840Y430059D01*
X551390Y428972D01*
X550737Y427994D01*
X549906Y427163D01*
X548928Y426510D01*
X547841Y426060D01*
X547115Y425915D01*
X547115Y430785D01*
G37*
%LPD*%
%LPC*%
G36*
X597915Y646685D02*
X597915Y646685D01*
X602785Y646685D01*
X602640Y645959D01*
X602190Y644872D01*
X601537Y643894D01*
X600706Y643063D01*
X599728Y642410D01*
X598641Y641960D01*
X597915Y641815D01*
X597915Y646685D01*
G37*
%LPD*%
%LPC*%
G36*
X591015Y648715D02*
X591015Y648715D01*
X591160Y649441D01*
X591610Y650528D01*
X592263Y651506D01*
X593094Y652337D01*
X594072Y652990D01*
X595159Y653440D01*
X595885Y653585D01*
X595885Y648715D01*
X591015Y648715D01*
G37*
%LPD*%
%LPC*%
G36*
X438615Y648715D02*
X438615Y648715D01*
X438760Y649441D01*
X439210Y650528D01*
X439863Y651506D01*
X440694Y652337D01*
X441672Y652990D01*
X442759Y653440D01*
X443485Y653585D01*
X443485Y648715D01*
X438615Y648715D01*
G37*
%LPD*%
%LPC*%
G36*
X616415Y331215D02*
X616415Y331215D01*
X616560Y331941D01*
X617010Y333028D01*
X617663Y334006D01*
X618494Y334837D01*
X619472Y335490D01*
X620559Y335940D01*
X621285Y336085D01*
X621285Y331215D01*
X616415Y331215D01*
G37*
%LPD*%
%LPC*%
G36*
X623315Y329185D02*
X623315Y329185D01*
X628185Y329185D01*
X628040Y328459D01*
X627590Y327372D01*
X626937Y326394D01*
X626106Y325563D01*
X625128Y324910D01*
X624041Y324460D01*
X623315Y324315D01*
X623315Y329185D01*
G37*
%LPD*%
%LPC*%
G36*
X44915Y966215D02*
X44915Y966215D01*
X45060Y966941D01*
X45510Y968028D01*
X46163Y969006D01*
X46994Y969837D01*
X47972Y970490D01*
X49059Y970940D01*
X49785Y971085D01*
X49785Y966215D01*
X44915Y966215D01*
G37*
%LPD*%
%LPC*%
G36*
X51815Y964185D02*
X51815Y964185D01*
X56685Y964185D01*
X56540Y963459D01*
X56090Y962372D01*
X55437Y961394D01*
X54606Y960563D01*
X53628Y959910D01*
X52541Y959460D01*
X51815Y959315D01*
X51815Y964185D01*
G37*
%LPD*%
%LPC*%
G36*
X298915Y915415D02*
X298915Y915415D01*
X299060Y916141D01*
X299510Y917228D01*
X300163Y918206D01*
X300994Y919037D01*
X301972Y919690D01*
X303059Y920140D01*
X303785Y920285D01*
X303785Y915415D01*
X298915Y915415D01*
G37*
%LPD*%
%LPC*%
G36*
X51815Y684785D02*
X51815Y684785D01*
X56685Y684785D01*
X56540Y684059D01*
X56090Y682972D01*
X55437Y681994D01*
X54606Y681163D01*
X53628Y680510D01*
X52541Y680060D01*
X51815Y679915D01*
X51815Y684785D01*
G37*
%LPD*%
%LPC*%
G36*
X305815Y913385D02*
X305815Y913385D01*
X310685Y913385D01*
X310540Y912659D01*
X310090Y911572D01*
X309437Y910594D01*
X308606Y909763D01*
X307628Y909110D01*
X306541Y908660D01*
X305815Y908515D01*
X305815Y913385D01*
G37*
%LPD*%
%LPC*%
G36*
X527515Y775715D02*
X527515Y775715D01*
X527660Y776441D01*
X528110Y777528D01*
X528763Y778506D01*
X529594Y779337D01*
X530572Y779990D01*
X531659Y780440D01*
X532385Y780585D01*
X532385Y775715D01*
X527515Y775715D01*
G37*
%LPD*%
%LPC*%
G36*
X44915Y686815D02*
X44915Y686815D01*
X45060Y687541D01*
X45510Y688628D01*
X46163Y689606D01*
X46994Y690437D01*
X47972Y691090D01*
X49059Y691540D01*
X49785Y691685D01*
X49785Y686815D01*
X44915Y686815D01*
G37*
%LPD*%
%LPC*%
G36*
X133815Y877315D02*
X133815Y877315D01*
X133960Y878041D01*
X134410Y879128D01*
X135063Y880106D01*
X135894Y880937D01*
X136872Y881590D01*
X137959Y882040D01*
X138685Y882185D01*
X138685Y877315D01*
X133815Y877315D01*
G37*
%LPD*%
%LPC*%
G36*
X140715Y875285D02*
X140715Y875285D01*
X145585Y875285D01*
X145440Y874559D01*
X144990Y873472D01*
X144337Y872494D01*
X143506Y871663D01*
X142528Y871010D01*
X141441Y870560D01*
X140715Y870415D01*
X140715Y875285D01*
G37*
%LPD*%
%LPC*%
G36*
X286215Y864615D02*
X286215Y864615D01*
X286360Y865341D01*
X286810Y866428D01*
X287463Y867406D01*
X288294Y868237D01*
X289272Y868890D01*
X290359Y869340D01*
X291085Y869485D01*
X291085Y864615D01*
X286215Y864615D01*
G37*
%LPD*%
%LPC*%
G36*
X286215Y216915D02*
X286215Y216915D01*
X286360Y217641D01*
X286810Y218728D01*
X287463Y219706D01*
X288294Y220537D01*
X289272Y221190D01*
X290359Y221640D01*
X291085Y221785D01*
X291085Y216915D01*
X286215Y216915D01*
G37*
%LPD*%
%LPC*%
G36*
X293115Y214885D02*
X293115Y214885D01*
X297985Y214885D01*
X297840Y214159D01*
X297390Y213072D01*
X296737Y212094D01*
X295906Y211263D01*
X294928Y210610D01*
X293841Y210160D01*
X293115Y210015D01*
X293115Y214885D01*
G37*
%LPD*%
%LPC*%
G36*
X44915Y826515D02*
X44915Y826515D01*
X45060Y827241D01*
X45510Y828328D01*
X46163Y829306D01*
X46994Y830137D01*
X47972Y830790D01*
X49059Y831240D01*
X49785Y831385D01*
X49785Y826515D01*
X44915Y826515D01*
G37*
%LPD*%
%LPC*%
G36*
X305815Y697485D02*
X305815Y697485D01*
X310685Y697485D01*
X310540Y696759D01*
X310090Y695672D01*
X309437Y694694D01*
X308606Y693863D01*
X307628Y693210D01*
X306541Y692760D01*
X305815Y692615D01*
X305815Y697485D01*
G37*
%LPD*%
%LPC*%
G36*
X298915Y699515D02*
X298915Y699515D01*
X299060Y700241D01*
X299510Y701328D01*
X300163Y702306D01*
X300994Y703137D01*
X301972Y703790D01*
X303059Y704240D01*
X303785Y704385D01*
X303785Y699515D01*
X298915Y699515D01*
G37*
%LPD*%
%LPC*%
G36*
X51815Y824485D02*
X51815Y824485D01*
X56685Y824485D01*
X56540Y823759D01*
X56090Y822672D01*
X55437Y821694D01*
X54606Y820863D01*
X53628Y820210D01*
X52541Y819760D01*
X51815Y819615D01*
X51815Y824485D01*
G37*
%LPD*%
%LPC*%
G36*
X527515Y801115D02*
X527515Y801115D01*
X527660Y801841D01*
X528110Y802928D01*
X528763Y803906D01*
X529594Y804737D01*
X530572Y805390D01*
X531659Y805840D01*
X532385Y805985D01*
X532385Y801115D01*
X527515Y801115D01*
G37*
%LPD*%
%LPC*%
G36*
X337015Y166115D02*
X337015Y166115D01*
X337160Y166841D01*
X337610Y167928D01*
X338263Y168906D01*
X339094Y169737D01*
X340072Y170390D01*
X341159Y170840D01*
X341885Y170985D01*
X341885Y166115D01*
X337015Y166115D01*
G37*
%LPD*%
%LPC*%
G36*
X140715Y735585D02*
X140715Y735585D01*
X145585Y735585D01*
X145440Y734859D01*
X144990Y733772D01*
X144337Y732794D01*
X143506Y731963D01*
X142528Y731310D01*
X141441Y730860D01*
X140715Y730715D01*
X140715Y735585D01*
G37*
%LPD*%
%LPC*%
G36*
X133815Y737615D02*
X133815Y737615D01*
X133960Y738341D01*
X134410Y739428D01*
X135063Y740406D01*
X135894Y741237D01*
X136872Y741890D01*
X137959Y742340D01*
X138685Y742485D01*
X138685Y737615D01*
X133815Y737615D01*
G37*
%LPD*%
%LPC*%
G36*
X534415Y799085D02*
X534415Y799085D01*
X539285Y799085D01*
X539140Y798359D01*
X538690Y797272D01*
X538037Y796294D01*
X537206Y795463D01*
X536228Y794810D01*
X535141Y794360D01*
X534415Y794215D01*
X534415Y799085D01*
G37*
%LPD*%
%LPC*%
G36*
X521715Y748285D02*
X521715Y748285D01*
X526585Y748285D01*
X526440Y747559D01*
X525990Y746472D01*
X525337Y745494D01*
X524506Y744663D01*
X523528Y744010D01*
X522441Y743560D01*
X521715Y743415D01*
X521715Y748285D01*
G37*
%LPD*%
%LPC*%
G36*
X468159Y426060D02*
X468159Y426060D01*
X467072Y426510D01*
X466094Y427163D01*
X465263Y427994D01*
X464610Y428972D01*
X464160Y430059D01*
X464015Y430785D01*
X468885Y430785D01*
X468885Y425915D01*
X468159Y426060D01*
G37*
%LPD*%
%LPC*%
G36*
X49059Y680060D02*
X49059Y680060D01*
X47972Y680510D01*
X46994Y681163D01*
X46163Y681994D01*
X45510Y682972D01*
X45060Y684059D01*
X44915Y684785D01*
X49785Y684785D01*
X49785Y679915D01*
X49059Y680060D01*
G37*
%LPD*%
%LPC*%
G36*
X49059Y540360D02*
X49059Y540360D01*
X47972Y540810D01*
X46994Y541463D01*
X46163Y542294D01*
X45510Y543272D01*
X45060Y544359D01*
X44915Y545085D01*
X49785Y545085D01*
X49785Y540215D01*
X49059Y540360D01*
G37*
%LPD*%
%LPC*%
G36*
X607859Y565760D02*
X607859Y565760D01*
X606772Y566210D01*
X605794Y566863D01*
X604963Y567694D01*
X604310Y568672D01*
X603860Y569759D01*
X603715Y570485D01*
X608585Y570485D01*
X608585Y565615D01*
X607859Y565760D01*
G37*
%LPD*%
%LPC*%
G36*
X442759Y641960D02*
X442759Y641960D01*
X441672Y642410D01*
X440694Y643063D01*
X439863Y643894D01*
X439210Y644872D01*
X438760Y645959D01*
X438615Y646685D01*
X443485Y646685D01*
X443485Y641815D01*
X442759Y641960D01*
G37*
%LPD*%
%LPC*%
G36*
X595159Y641960D02*
X595159Y641960D01*
X594072Y642410D01*
X593094Y643063D01*
X592263Y643894D01*
X591610Y644872D01*
X591160Y645959D01*
X591015Y646685D01*
X595885Y646685D01*
X595885Y641815D01*
X595159Y641960D01*
G37*
%LPD*%
%LPC*%
G36*
X137959Y591160D02*
X137959Y591160D01*
X136872Y591610D01*
X135894Y592263D01*
X135063Y593094D01*
X134410Y594072D01*
X133960Y595159D01*
X133815Y595885D01*
X138685Y595885D01*
X138685Y591015D01*
X137959Y591160D01*
G37*
%LPD*%
%LPC*%
G36*
X531659Y768960D02*
X531659Y768960D01*
X530572Y769410D01*
X529594Y770063D01*
X528763Y770894D01*
X528110Y771872D01*
X527660Y772959D01*
X527515Y773685D01*
X532385Y773685D01*
X532385Y768815D01*
X531659Y768960D01*
G37*
%LPD*%
%LPC*%
G36*
X137959Y451460D02*
X137959Y451460D01*
X136872Y451910D01*
X135894Y452563D01*
X135063Y453394D01*
X134410Y454372D01*
X133960Y455459D01*
X133815Y456185D01*
X138685Y456185D01*
X138685Y451315D01*
X137959Y451460D01*
G37*
%LPD*%
%LPC*%
G36*
X303059Y908660D02*
X303059Y908660D01*
X301972Y909110D01*
X300994Y909763D01*
X300163Y910594D01*
X299510Y911572D01*
X299060Y912659D01*
X298915Y913385D01*
X303785Y913385D01*
X303785Y908515D01*
X303059Y908660D01*
G37*
%LPD*%
%LPC*%
G36*
X582459Y514960D02*
X582459Y514960D01*
X581372Y515410D01*
X580394Y516063D01*
X579563Y516894D01*
X578910Y517872D01*
X578460Y518959D01*
X578315Y519685D01*
X583185Y519685D01*
X583185Y514815D01*
X582459Y514960D01*
G37*
%LPD*%
%LPC*%
G36*
X303059Y692760D02*
X303059Y692760D01*
X301972Y693210D01*
X300994Y693863D01*
X300163Y694694D01*
X299510Y695672D01*
X299060Y696759D01*
X298915Y697485D01*
X303785Y697485D01*
X303785Y692615D01*
X303059Y692760D01*
G37*
%LPD*%
%LPC*%
G36*
X544359Y426060D02*
X544359Y426060D01*
X543272Y426510D01*
X542294Y427163D01*
X541463Y427994D01*
X540810Y428972D01*
X540360Y430059D01*
X540215Y430785D01*
X545085Y430785D01*
X545085Y425915D01*
X544359Y426060D01*
G37*
%LPD*%
%LPC*%
G36*
X620559Y324460D02*
X620559Y324460D01*
X619472Y324910D01*
X618494Y325563D01*
X617663Y326394D01*
X617010Y327372D01*
X616560Y328459D01*
X616415Y329185D01*
X621285Y329185D01*
X621285Y324315D01*
X620559Y324460D01*
G37*
%LPD*%
%LPC*%
G36*
X531659Y794360D02*
X531659Y794360D01*
X530572Y794810D01*
X529594Y795463D01*
X528763Y796294D01*
X528110Y797272D01*
X527660Y798359D01*
X527515Y799085D01*
X532385Y799085D01*
X532385Y794215D01*
X531659Y794360D01*
G37*
%LPD*%
%LPC*%
G36*
X49059Y819760D02*
X49059Y819760D01*
X47972Y820210D01*
X46994Y820863D01*
X46163Y821694D01*
X45510Y822672D01*
X45060Y823759D01*
X44915Y824485D01*
X49785Y824485D01*
X49785Y819615D01*
X49059Y819760D01*
G37*
%LPD*%
%LPC*%
G36*
X290359Y857860D02*
X290359Y857860D01*
X289272Y858310D01*
X288294Y858963D01*
X287463Y859794D01*
X286810Y860772D01*
X286360Y861859D01*
X286215Y862585D01*
X291085Y862585D01*
X291085Y857715D01*
X290359Y857860D01*
G37*
%LPD*%
%LPC*%
G36*
X137959Y730860D02*
X137959Y730860D01*
X136872Y731310D01*
X135894Y731963D01*
X135063Y732794D01*
X134410Y733772D01*
X133960Y734859D01*
X133815Y735585D01*
X138685Y735585D01*
X138685Y730715D01*
X137959Y730860D01*
G37*
%LPD*%
%LPC*%
G36*
X137959Y870560D02*
X137959Y870560D01*
X136872Y871010D01*
X135894Y871663D01*
X135063Y872494D01*
X134410Y873472D01*
X133960Y874559D01*
X133815Y875285D01*
X138685Y875285D01*
X138685Y870415D01*
X137959Y870560D01*
G37*
%LPD*%
%LPC*%
G36*
X518959Y743560D02*
X518959Y743560D01*
X517872Y744010D01*
X516894Y744663D01*
X516063Y745494D01*
X515410Y746472D01*
X514960Y747559D01*
X514815Y748285D01*
X519685Y748285D01*
X519685Y743415D01*
X518959Y743560D01*
G37*
%LPD*%
%LPC*%
G36*
X49059Y959460D02*
X49059Y959460D01*
X47972Y959910D01*
X46994Y960563D01*
X46163Y961394D01*
X45510Y962372D01*
X45060Y963459D01*
X44915Y964185D01*
X49785Y964185D01*
X49785Y959315D01*
X49059Y959460D01*
G37*
%LPD*%
%LPC*%
G36*
X290359Y210160D02*
X290359Y210160D01*
X289272Y210610D01*
X288294Y211263D01*
X287463Y212094D01*
X286810Y213072D01*
X286360Y214159D01*
X286215Y214885D01*
X291085Y214885D01*
X291085Y210015D01*
X290359Y210160D01*
G37*
%LPD*%
%LPC*%
G36*
X634999Y279399D02*
X634999Y279399D01*
X634999Y279401D01*
X635001Y279401D01*
X635001Y279399D01*
X634999Y279399D01*
G37*
%LPD*%
%LPC*%
G36*
X622299Y495299D02*
X622299Y495299D01*
X622299Y495301D01*
X622301Y495301D01*
X622301Y495299D01*
X622299Y495299D01*
G37*
%LPD*%
%LPC*%
G36*
X636899Y647299D02*
X636899Y647299D01*
X636899Y647301D01*
X636901Y647301D01*
X636901Y647299D01*
X636899Y647299D01*
G37*
%LPD*%
%LPC*%
G36*
X266699Y228599D02*
X266699Y228599D01*
X266699Y228601D01*
X266701Y228601D01*
X266701Y228599D01*
X266699Y228599D01*
G37*
%LPD*%
%LPC*%
G36*
X636899Y597299D02*
X636899Y597299D01*
X636899Y597301D01*
X636901Y597301D01*
X636901Y597299D01*
X636899Y597299D01*
G37*
%LPD*%
%LPC*%
G36*
X647699Y330199D02*
X647699Y330199D01*
X647699Y330201D01*
X647701Y330201D01*
X647701Y330199D01*
X647699Y330199D01*
G37*
%LPD*%
%LPC*%
G36*
X291299Y938299D02*
X291299Y938299D01*
X291299Y938301D01*
X291301Y938301D01*
X291301Y938299D01*
X291299Y938299D01*
G37*
%LPD*%
%LPC*%
G36*
X532599Y938299D02*
X532599Y938299D01*
X532599Y938301D01*
X532601Y938301D01*
X532601Y938299D01*
X532599Y938299D01*
G37*
%LPD*%
%LPC*%
G36*
X355599Y152399D02*
X355599Y152399D01*
X355599Y152401D01*
X355601Y152401D01*
X355601Y152399D01*
X355599Y152399D01*
G37*
%LPD*%
D10*
X660400Y203200D03*
D11*
X635000Y203200D03*
D10*
X660400Y279400D03*
D11*
X635000Y279400D03*
D12*
X362204Y152400D02*
X348996Y152400D01*
X425196Y152400D02*
X438404Y152400D01*
X501396Y152400D02*
X514604Y152400D01*
X577596Y152400D02*
X590804Y152400D01*
D13*
X647700Y469900D03*
X622300Y469900D03*
X622300Y444500D03*
X647700Y444500D03*
X647700Y495300D03*
X622300Y495300D03*
D14*
X636900Y597300D03*
X636900Y647300D03*
D15*
X658360Y587300D02*
X669440Y587300D01*
X669440Y657300D02*
X658360Y657300D01*
D16*
X647700Y393700D03*
X647700Y330200D03*
D17*
X291300Y929300D02*
X291300Y947300D01*
X241300Y947300D02*
X241300Y929300D01*
X191300Y929300D02*
X191300Y947300D01*
X532600Y947300D02*
X532600Y929300D01*
X482600Y929300D02*
X482600Y947300D01*
X432600Y947300D02*
X432600Y929300D01*
D18*
X266700Y228600D03*
D19*
X266700Y254000D03*
X266700Y279400D03*
X266700Y304800D03*
D20*
X533400Y774700D03*
D21*
X533400Y800100D01*
D20*
X533400Y800100D03*
X508000Y673100D03*
D21*
X508000Y711200D01*
X482600Y736600D02*
X482600Y762000D01*
X495300Y774700D01*
X508000Y774700D01*
X520700Y762000D01*
D20*
X520700Y749300D03*
D21*
X508000Y711200D02*
X482600Y736600D01*
D20*
X546100Y431800D03*
X584200Y520700D03*
D21*
X594217Y412623D02*
X599583Y412623D01*
X603377Y416417D01*
X584200Y462947D02*
X584200Y520700D01*
X575040Y431800D02*
X546100Y431800D01*
X575040Y431800D02*
X594217Y412623D01*
X603377Y416417D02*
X603377Y443770D01*
X584200Y462947D01*
D20*
X381000Y444500D03*
D21*
X393700Y431800D01*
X469900Y431800D01*
D20*
X469900Y431800D03*
X139700Y876300D03*
X342900Y165100D03*
X292100Y215900D03*
X622300Y330200D03*
X596900Y647700D03*
X609600Y571500D03*
X304800Y914400D03*
X292100Y863600D03*
X304800Y698500D03*
X444500Y647700D03*
X139700Y736600D03*
X139700Y596900D03*
X139700Y457200D03*
X50800Y546100D03*
X50800Y965200D03*
X50800Y825500D03*
X50800Y685800D03*
D21*
X520700Y749300D02*
X520700Y762000D01*
D20*
X292100Y660400D03*
D21*
X292100Y762000D01*
X317500Y787400D01*
D20*
X317500Y787400D03*
X266700Y762000D03*
D21*
X266700Y787400D01*
D20*
X266700Y787400D03*
X228600Y787400D03*
D21*
X228600Y723900D01*
X241300Y711200D01*
D20*
X241300Y711200D03*
X609600Y673100D03*
D21*
X609600Y596900D01*
D20*
X609600Y596900D03*
X546100Y558800D03*
D21*
X546100Y596900D01*
D20*
X546100Y596900D03*
X571500Y685800D03*
D21*
X571500Y723900D01*
D20*
X571500Y723900D03*
X482600Y342900D03*
D21*
X444500Y342900D01*
X431800Y355600D01*
D20*
X431800Y355600D03*
X355600Y482600D03*
D21*
X355600Y558800D01*
D20*
X355600Y558800D03*
X431800Y800100D03*
D21*
X431800Y749300D01*
D20*
X431800Y749300D03*
X241300Y901700D03*
D21*
X241300Y876300D01*
D20*
X241300Y876300D03*
X342900Y800100D03*
D21*
X355600Y812800D01*
X355600Y914400D01*
X368300Y927100D01*
X381000Y927100D01*
X393700Y914400D01*
X393700Y736600D01*
D20*
X393700Y736600D03*
X419100Y711200D03*
D21*
X330200Y711200D01*
X317500Y698500D01*
X317500Y647700D01*
X330200Y635000D01*
X330200Y584200D01*
X335319Y579081D01*
X410187Y579081D01*
X434483Y565277D02*
X440960Y558800D01*
X434483Y565277D02*
X423990Y565277D01*
X482600Y553053D02*
X482600Y546100D01*
X469900Y533400D01*
X431800Y533400D01*
X423990Y565277D02*
X410187Y579081D01*
X440960Y558800D02*
X476853Y558800D01*
X482600Y553053D01*
X389636Y554736D02*
X381000Y546100D01*
X385056Y542044D01*
X400177Y536083D02*
X400177Y530717D01*
X400050Y530590D01*
X394216Y542044D02*
X385056Y542044D01*
X394216Y542044D02*
X400177Y536083D01*
X400050Y523823D02*
X406400Y517473D01*
D20*
X406400Y517473D03*
D21*
X431800Y533400D02*
X410464Y554736D01*
X389636Y554736D01*
X400050Y530590D02*
X400050Y523823D01*
D20*
X457200Y647700D03*
D21*
X482600Y673100D01*
X495300Y673100D01*
X508000Y660400D01*
X508000Y635000D01*
X469900Y596900D01*
X469900Y593360D01*
X474480Y588780D01*
D20*
X474480Y588780D03*
X407504Y572604D03*
X363720Y550680D03*
D21*
X397764Y562864D02*
X407504Y572604D01*
X397764Y562864D02*
X379317Y562864D01*
X367133Y550680D02*
X363720Y550680D01*
X367133Y550680D02*
X379317Y562864D01*
D20*
X330200Y558800D03*
D21*
X317500Y546100D01*
X317500Y533400D01*
X330200Y520700D01*
X342900Y520700D01*
X351536Y529336D01*
X351536Y535535D01*
X349123Y537948D01*
D20*
X349123Y537948D03*
X376420Y537980D03*
D21*
X389120Y537980D01*
X393700Y533400D01*
D20*
X393700Y533400D03*
X533400Y596900D03*
D21*
X533400Y571500D01*
X520700Y558800D01*
D20*
X520700Y558800D03*
X431800Y558800D03*
D21*
X381000Y558800D01*
X368300Y546100D01*
X368300Y520700D01*
X381000Y508000D01*
X393700Y508000D01*
D20*
X393700Y508000D03*
X495300Y406400D03*
D21*
X495300Y317500D01*
D20*
X495300Y317500D03*
X584200Y228600D03*
D21*
X584200Y177800D01*
D20*
X584200Y177800D03*
X558800Y368300D03*
D21*
X558800Y241300D01*
D20*
X558800Y241300D03*
D21*
X596900Y419100D02*
X596900Y444500D01*
D20*
X596900Y419100D03*
X456684Y583684D03*
D21*
X477504Y562864D01*
X478536Y562864D01*
X596900Y444500D01*
D20*
X457200Y596900D03*
D21*
X520700Y533400D01*
X660400Y533400D01*
D20*
X660400Y533400D03*
X406400Y585558D03*
D21*
X407758Y584200D01*
X419100Y584200D01*
X431800Y596900D01*
X444500Y596900D01*
D20*
X444500Y596900D03*
X558800Y596900D03*
D21*
X558800Y558800D01*
X577723Y539877D01*
X663083Y539877D02*
X666877Y536083D01*
X666877Y530717D01*
X660400Y524240D02*
X660400Y520700D01*
X660400Y524240D02*
X666877Y530717D01*
D20*
X660400Y520700D03*
D21*
X663083Y539877D02*
X577723Y539877D01*
D20*
X406400Y495300D03*
D21*
X368300Y495300D01*
X362077Y489077D01*
X362077Y482600D01*
X368300Y476377D01*
X368300Y444500D01*
D20*
X368300Y444500D03*
X368300Y419100D03*
D21*
X355600Y406400D01*
X342900Y406400D01*
X330200Y419100D01*
X330200Y444500D01*
D20*
X330200Y444500D03*
X330200Y469900D03*
X279400Y533400D03*
D21*
X266700Y546100D01*
D20*
X266700Y546100D03*
X241300Y533400D03*
D21*
X241300Y508000D01*
D20*
X241300Y508000D03*
X431800Y203200D03*
D21*
X469900Y203200D01*
D20*
X469900Y203200D03*
X431800Y279400D03*
D21*
X431800Y266700D01*
X419100Y254000D01*
X406400Y254000D01*
X393700Y241300D01*
X393700Y228600D01*
X402336Y219964D01*
X410464Y219964D01*
D20*
X431800Y241300D03*
D21*
X410464Y219964D01*
D20*
X317500Y635000D03*
D21*
X266700Y584200D01*
D20*
X266700Y584200D03*
X266700Y533400D03*
D21*
X279400Y520700D01*
X279400Y469900D01*
D20*
X279400Y469900D03*
X317500Y431800D03*
D21*
X317500Y368300D01*
D20*
X317500Y368300D03*
X609600Y406400D03*
D21*
X508000Y406400D01*
X393700Y520700D01*
D20*
X393700Y520700D03*
X520700Y177800D03*
D21*
X546100Y203200D01*
X546100Y279400D01*
D20*
X546100Y279400D03*
X355600Y292100D03*
D21*
X355600Y330200D01*
D20*
X355600Y330200D03*
X381000Y342900D03*
X368300Y342900D03*
D21*
X342900Y368300D01*
X342900Y381000D01*
X355600Y393700D01*
X368300Y393700D01*
D20*
X368300Y393700D03*
X508000Y292100D03*
D21*
X431800Y292100D01*
X406400Y317500D01*
X406400Y393700D01*
X342900Y457200D01*
X254000Y457200D01*
X215900Y495300D01*
X215900Y508000D01*
D20*
X215900Y508000D03*
X228600Y508000D03*
D21*
X266700Y469900D01*
D20*
X266700Y469900D03*
X292100Y444500D03*
D21*
X292100Y266700D01*
X342900Y215900D01*
X508000Y215900D01*
D20*
X508000Y215900D03*
X457200Y279400D03*
M02*
