G04 EAGLE Gerber RS-274X export*
G75*
%MOMM*%
%FSLAX34Y34*%
%LPD*%
%INSoldermask Bottom*%
%IPPOS*%
%AMOC8*
5,1,8,0,0,1.08239X$1,22.5*%
G01*
%ADD10P,1.842011X8X22.500000*%
%ADD11C,1.701800*%
%ADD12C,1.422400*%
%ADD13C,1.727200*%
%ADD14C,1.551600*%
%ADD15C,1.209600*%
%ADD16P,2.199416X8X112.500000*%
%ADD17C,1.901600*%
%ADD18R,1.609600X1.609600*%
%ADD19C,1.609600*%
%ADD20C,2.101600*%


D10*
X660400Y203200D03*
D11*
X635000Y203200D03*
D10*
X660400Y279400D03*
D11*
X635000Y279400D03*
D12*
X362204Y152400D02*
X348996Y152400D01*
X425196Y152400D02*
X438404Y152400D01*
X501396Y152400D02*
X514604Y152400D01*
X577596Y152400D02*
X590804Y152400D01*
D13*
X647700Y469900D03*
X622300Y469900D03*
X622300Y444500D03*
X647700Y444500D03*
X647700Y495300D03*
X622300Y495300D03*
D14*
X636900Y597300D03*
X636900Y647300D03*
D15*
X658360Y587300D02*
X669440Y587300D01*
X669440Y657300D02*
X658360Y657300D01*
D16*
X647700Y393700D03*
X647700Y330200D03*
D17*
X291300Y929300D02*
X291300Y947300D01*
X241300Y947300D02*
X241300Y929300D01*
X191300Y929300D02*
X191300Y947300D01*
X532600Y947300D02*
X532600Y929300D01*
X482600Y929300D02*
X482600Y947300D01*
X432600Y947300D02*
X432600Y929300D01*
D18*
X266700Y228600D03*
D19*
X266700Y254000D03*
X266700Y279400D03*
X266700Y304800D03*
D20*
X255270Y162560D03*
X255270Y370840D03*
X24130Y370840D03*
X24130Y162560D03*
M02*
