G04 EAGLE Gerber RS-274X export*
G75*
%MOMM*%
%FSLAX34Y34*%
%LPD*%
%INSoldermask Top*%
%IPPOS*%
%AMOC8*
5,1,8,0,0,1.08239X$1,22.5*%
G01*
%ADD10C,3.378200*%
%ADD11R,1.401600X1.601600*%
%ADD12P,1.842011X8X112.500000*%
%ADD13C,1.701800*%
%ADD14R,1.601600X1.401600*%
%ADD15C,1.422400*%
%ADD16C,1.727200*%
%ADD17C,1.551600*%
%ADD18R,0.501600X1.451600*%
%ADD19R,1.601600X2.001600*%
%ADD20R,1.301600X2.001600*%
%ADD21C,1.209600*%
%ADD22P,2.199416X8X22.500000*%
%ADD23R,1.301600X1.301600*%
%ADD24R,1.101600X1.501600*%
%ADD25R,1.501600X1.101600*%
%ADD26C,1.901600*%
%ADD27R,2.209800X1.498600*%
%ADD28R,1.609600X1.609600*%
%ADD29C,1.609600*%
%ADD30C,2.101600*%
%ADD31C,0.327659*%
%ADD32C,0.322197*%
%ADD33R,1.701600X0.651600*%
%ADD34R,0.651600X1.701600*%
%ADD35R,1.600200X0.533400*%

G36*
X65292Y611820D02*
X65292Y611820D01*
X65335Y611832D01*
X65401Y611839D01*
X67084Y612290D01*
X67125Y612309D01*
X67188Y612328D01*
X68768Y613065D01*
X68805Y613091D01*
X68864Y613120D01*
X70292Y614120D01*
X70323Y614152D01*
X70376Y614191D01*
X71609Y615424D01*
X71634Y615460D01*
X71680Y615508D01*
X72680Y616936D01*
X72698Y616977D01*
X72735Y617032D01*
X73472Y618612D01*
X73483Y618655D01*
X73510Y618716D01*
X73961Y620399D01*
X73963Y620431D01*
X73970Y620452D01*
X73970Y620467D01*
X73980Y620508D01*
X74132Y622245D01*
X74128Y622289D01*
X74132Y622355D01*
X73980Y624092D01*
X73968Y624135D01*
X73961Y624201D01*
X73510Y625884D01*
X73491Y625925D01*
X73472Y625988D01*
X72735Y627568D01*
X72709Y627605D01*
X72680Y627664D01*
X71680Y629092D01*
X71648Y629123D01*
X71609Y629176D01*
X70376Y630409D01*
X70340Y630434D01*
X70292Y630480D01*
X68864Y631480D01*
X68823Y631498D01*
X68768Y631535D01*
X67188Y632272D01*
X67145Y632283D01*
X67084Y632310D01*
X65401Y632761D01*
X65356Y632764D01*
X65292Y632780D01*
X63555Y632932D01*
X63511Y632928D01*
X63445Y632932D01*
X61708Y632780D01*
X61665Y632768D01*
X61599Y632761D01*
X59916Y632310D01*
X59875Y632291D01*
X59812Y632272D01*
X58232Y631535D01*
X58195Y631509D01*
X58136Y631480D01*
X56708Y630480D01*
X56677Y630448D01*
X56624Y630409D01*
X55391Y629176D01*
X55366Y629140D01*
X55320Y629092D01*
X54320Y627664D01*
X54302Y627623D01*
X54265Y627568D01*
X53528Y625988D01*
X53517Y625945D01*
X53490Y625884D01*
X53039Y624201D01*
X53036Y624156D01*
X53020Y624092D01*
X52868Y622355D01*
X52872Y622311D01*
X52868Y622245D01*
X53020Y620508D01*
X53032Y620465D01*
X53036Y620431D01*
X53036Y620415D01*
X53038Y620410D01*
X53039Y620399D01*
X53490Y618716D01*
X53509Y618675D01*
X53528Y618612D01*
X54265Y617032D01*
X54291Y616995D01*
X54320Y616936D01*
X55320Y615508D01*
X55352Y615477D01*
X55391Y615424D01*
X56624Y614191D01*
X56660Y614166D01*
X56708Y614120D01*
X58136Y613120D01*
X58177Y613102D01*
X58232Y613065D01*
X59812Y612328D01*
X59855Y612317D01*
X59916Y612290D01*
X61599Y611839D01*
X61644Y611836D01*
X61708Y611820D01*
X63445Y611668D01*
X63489Y611672D01*
X63555Y611668D01*
X65292Y611820D01*
G37*
G36*
X738392Y599120D02*
X738392Y599120D01*
X738435Y599132D01*
X738501Y599139D01*
X740184Y599590D01*
X740225Y599609D01*
X740288Y599628D01*
X741868Y600365D01*
X741905Y600391D01*
X741964Y600420D01*
X743392Y601420D01*
X743423Y601452D01*
X743476Y601491D01*
X744709Y602724D01*
X744734Y602760D01*
X744780Y602808D01*
X745780Y604236D01*
X745798Y604277D01*
X745835Y604332D01*
X746572Y605912D01*
X746583Y605955D01*
X746610Y606016D01*
X747061Y607699D01*
X747063Y607731D01*
X747070Y607752D01*
X747070Y607767D01*
X747080Y607808D01*
X747232Y609545D01*
X747228Y609589D01*
X747232Y609655D01*
X747080Y611392D01*
X747068Y611435D01*
X747061Y611501D01*
X746610Y613184D01*
X746591Y613225D01*
X746572Y613288D01*
X745835Y614868D01*
X745809Y614905D01*
X745780Y614964D01*
X744780Y616392D01*
X744748Y616423D01*
X744709Y616476D01*
X743476Y617709D01*
X743440Y617734D01*
X743392Y617780D01*
X741964Y618780D01*
X741923Y618798D01*
X741868Y618835D01*
X740288Y619572D01*
X740245Y619583D01*
X740184Y619610D01*
X738501Y620061D01*
X738456Y620064D01*
X738392Y620080D01*
X736655Y620232D01*
X736611Y620228D01*
X736545Y620232D01*
X734808Y620080D01*
X734765Y620068D01*
X734699Y620061D01*
X733016Y619610D01*
X732975Y619591D01*
X732912Y619572D01*
X731332Y618835D01*
X731295Y618809D01*
X731236Y618780D01*
X729808Y617780D01*
X729777Y617748D01*
X729724Y617709D01*
X728491Y616476D01*
X728466Y616440D01*
X728420Y616392D01*
X727420Y614964D01*
X727402Y614923D01*
X727365Y614868D01*
X726628Y613288D01*
X726617Y613245D01*
X726590Y613184D01*
X726139Y611501D01*
X726136Y611456D01*
X726120Y611392D01*
X725968Y609655D01*
X725972Y609611D01*
X725968Y609545D01*
X726120Y607808D01*
X726132Y607765D01*
X726136Y607731D01*
X726136Y607715D01*
X726138Y607710D01*
X726139Y607699D01*
X726590Y606016D01*
X726609Y605975D01*
X726628Y605912D01*
X727365Y604332D01*
X727391Y604295D01*
X727420Y604236D01*
X728420Y602808D01*
X728452Y602777D01*
X728491Y602724D01*
X729724Y601491D01*
X729760Y601466D01*
X729808Y601420D01*
X731236Y600420D01*
X731277Y600402D01*
X731332Y600365D01*
X732912Y599628D01*
X732955Y599617D01*
X733016Y599590D01*
X734699Y599139D01*
X734744Y599136D01*
X734808Y599120D01*
X736545Y598968D01*
X736589Y598972D01*
X736655Y598968D01*
X738392Y599120D01*
G37*
G36*
X712992Y103820D02*
X712992Y103820D01*
X713035Y103832D01*
X713101Y103839D01*
X714784Y104290D01*
X714825Y104309D01*
X714888Y104328D01*
X716468Y105065D01*
X716505Y105091D01*
X716564Y105120D01*
X717992Y106120D01*
X718023Y106152D01*
X718076Y106191D01*
X719309Y107424D01*
X719334Y107460D01*
X719380Y107508D01*
X720380Y108936D01*
X720398Y108977D01*
X720435Y109032D01*
X721172Y110612D01*
X721183Y110655D01*
X721210Y110716D01*
X721661Y112399D01*
X721663Y112431D01*
X721670Y112452D01*
X721670Y112467D01*
X721680Y112508D01*
X721832Y114245D01*
X721828Y114289D01*
X721832Y114355D01*
X721680Y116092D01*
X721668Y116135D01*
X721661Y116201D01*
X721210Y117884D01*
X721191Y117925D01*
X721172Y117988D01*
X720435Y119568D01*
X720409Y119605D01*
X720380Y119664D01*
X719380Y121092D01*
X719348Y121123D01*
X719309Y121176D01*
X718076Y122409D01*
X718040Y122434D01*
X717992Y122480D01*
X716564Y123480D01*
X716523Y123498D01*
X716468Y123535D01*
X714888Y124272D01*
X714845Y124283D01*
X714784Y124310D01*
X713101Y124761D01*
X713056Y124764D01*
X712992Y124780D01*
X711255Y124932D01*
X711211Y124928D01*
X711145Y124932D01*
X709408Y124780D01*
X709365Y124768D01*
X709299Y124761D01*
X707616Y124310D01*
X707575Y124291D01*
X707512Y124272D01*
X705932Y123535D01*
X705895Y123509D01*
X705836Y123480D01*
X704408Y122480D01*
X704377Y122448D01*
X704324Y122409D01*
X703091Y121176D01*
X703066Y121140D01*
X703020Y121092D01*
X702020Y119664D01*
X702002Y119623D01*
X701965Y119568D01*
X701228Y117988D01*
X701217Y117945D01*
X701190Y117884D01*
X700739Y116201D01*
X700736Y116156D01*
X700720Y116092D01*
X700568Y114355D01*
X700572Y114311D01*
X700568Y114245D01*
X700720Y112508D01*
X700732Y112465D01*
X700736Y112431D01*
X700736Y112415D01*
X700738Y112410D01*
X700739Y112399D01*
X701190Y110716D01*
X701209Y110675D01*
X701228Y110612D01*
X701965Y109032D01*
X701991Y108995D01*
X702020Y108936D01*
X703020Y107508D01*
X703052Y107477D01*
X703091Y107424D01*
X704324Y106191D01*
X704360Y106166D01*
X704408Y106120D01*
X705836Y105120D01*
X705877Y105102D01*
X705932Y105065D01*
X707512Y104328D01*
X707555Y104317D01*
X707616Y104290D01*
X709299Y103839D01*
X709344Y103836D01*
X709408Y103820D01*
X711145Y103668D01*
X711189Y103672D01*
X711255Y103668D01*
X712992Y103820D01*
G37*
G36*
X103392Y65720D02*
X103392Y65720D01*
X103435Y65732D01*
X103501Y65739D01*
X105184Y66190D01*
X105225Y66209D01*
X105288Y66228D01*
X106868Y66965D01*
X106905Y66991D01*
X106964Y67020D01*
X108392Y68020D01*
X108423Y68052D01*
X108476Y68091D01*
X109709Y69324D01*
X109734Y69360D01*
X109780Y69408D01*
X110780Y70836D01*
X110798Y70877D01*
X110835Y70932D01*
X111572Y72512D01*
X111583Y72555D01*
X111610Y72616D01*
X112061Y74299D01*
X112063Y74331D01*
X112070Y74352D01*
X112070Y74367D01*
X112080Y74408D01*
X112232Y76145D01*
X112228Y76189D01*
X112232Y76255D01*
X112080Y77992D01*
X112068Y78035D01*
X112061Y78101D01*
X111610Y79784D01*
X111591Y79825D01*
X111572Y79888D01*
X110835Y81468D01*
X110809Y81505D01*
X110780Y81564D01*
X109780Y82992D01*
X109748Y83023D01*
X109709Y83076D01*
X108476Y84309D01*
X108440Y84334D01*
X108392Y84380D01*
X106964Y85380D01*
X106923Y85398D01*
X106868Y85435D01*
X105288Y86172D01*
X105245Y86183D01*
X105184Y86210D01*
X103501Y86661D01*
X103456Y86664D01*
X103392Y86680D01*
X101655Y86832D01*
X101611Y86828D01*
X101545Y86832D01*
X99808Y86680D01*
X99765Y86668D01*
X99699Y86661D01*
X98016Y86210D01*
X97975Y86191D01*
X97912Y86172D01*
X96332Y85435D01*
X96295Y85409D01*
X96236Y85380D01*
X94808Y84380D01*
X94777Y84348D01*
X94724Y84309D01*
X93491Y83076D01*
X93466Y83040D01*
X93420Y82992D01*
X92420Y81564D01*
X92402Y81523D01*
X92365Y81468D01*
X91628Y79888D01*
X91617Y79845D01*
X91590Y79784D01*
X91139Y78101D01*
X91136Y78056D01*
X91120Y77992D01*
X90968Y76255D01*
X90972Y76211D01*
X90968Y76145D01*
X91120Y74408D01*
X91132Y74365D01*
X91136Y74331D01*
X91136Y74315D01*
X91138Y74310D01*
X91139Y74299D01*
X91590Y72616D01*
X91609Y72575D01*
X91628Y72512D01*
X92365Y70932D01*
X92391Y70895D01*
X92420Y70836D01*
X93420Y69408D01*
X93452Y69377D01*
X93491Y69324D01*
X94724Y68091D01*
X94760Y68066D01*
X94808Y68020D01*
X96236Y67020D01*
X96277Y67002D01*
X96332Y66965D01*
X97912Y66228D01*
X97955Y66217D01*
X98016Y66190D01*
X99699Y65739D01*
X99744Y65736D01*
X99808Y65720D01*
X101545Y65568D01*
X101589Y65572D01*
X101655Y65568D01*
X103392Y65720D01*
G37*
D10*
X33020Y33020D03*
X792480Y33020D03*
X792480Y665480D03*
X33020Y665480D03*
D11*
X377800Y190500D03*
X358800Y190500D03*
X558190Y626110D03*
X577190Y626110D03*
D12*
X571500Y584200D03*
D13*
X571500Y558800D03*
D12*
X406400Y584200D03*
D13*
X406400Y558800D03*
D11*
X309270Y504190D03*
X328270Y504190D03*
X238100Y190500D03*
X219100Y190500D03*
X98400Y190500D03*
X79400Y190500D03*
X517500Y190500D03*
X498500Y190500D03*
D14*
X176530Y452730D03*
X176530Y433730D03*
D11*
X219100Y546100D03*
X238100Y546100D03*
D15*
X437896Y546100D02*
X451104Y546100D01*
X514096Y546100D02*
X527304Y546100D01*
X527304Y596900D02*
X514096Y596900D01*
X451104Y596900D02*
X437896Y596900D01*
D16*
X228600Y495300D03*
X228600Y520700D03*
X203200Y520700D03*
X203200Y495300D03*
X254000Y495300D03*
X254000Y520700D03*
D17*
X569830Y653410D03*
X519830Y653410D03*
D18*
X557830Y653410D03*
X551330Y653410D03*
X544830Y653410D03*
X538330Y653410D03*
X531830Y653410D03*
D19*
X554830Y680410D03*
X534830Y680410D03*
D20*
X573830Y680410D03*
X515830Y680410D03*
D21*
X579830Y685950D02*
X579830Y674870D01*
X509830Y674870D02*
X509830Y685950D01*
D22*
X304800Y647700D03*
X266700Y647700D03*
D23*
X675980Y626110D03*
X654980Y626110D03*
D24*
X431800Y392000D03*
X441300Y370000D03*
X422300Y370000D03*
D25*
X480900Y317500D03*
X458900Y308000D03*
X458900Y327000D03*
D26*
X74000Y354800D02*
X56000Y354800D01*
X56000Y304800D02*
X74000Y304800D01*
X74000Y254800D02*
X56000Y254800D01*
D11*
X636880Y626110D03*
X617880Y626110D03*
D14*
X660400Y536600D03*
X660400Y555600D03*
X168910Y584860D03*
X168910Y603860D03*
D11*
X328270Y533400D03*
X309270Y533400D03*
X328270Y588010D03*
X309270Y588010D03*
X309270Y565150D03*
X328270Y565150D03*
X379070Y440690D03*
X360070Y440690D03*
D14*
X341630Y367640D03*
X341630Y348640D03*
X381000Y371500D03*
X381000Y390500D03*
X419100Y308000D03*
X419100Y327000D03*
D26*
X74000Y558000D02*
X56000Y558000D01*
X56000Y508000D02*
X74000Y508000D01*
X74000Y458000D02*
X56000Y458000D01*
D14*
X114300Y643280D03*
X114300Y662280D03*
X139700Y562000D03*
X139700Y581000D03*
X139700Y643280D03*
X139700Y662280D03*
X114300Y562000D03*
X114300Y581000D03*
D11*
X282600Y482600D03*
X301600Y482600D03*
D14*
X444500Y422300D03*
X444500Y441300D03*
D11*
X420980Y440690D03*
X401980Y440690D03*
D27*
X177800Y101600D03*
X268986Y101600D03*
X177800Y146558D03*
X268986Y146558D03*
X457200Y101600D03*
X548386Y101600D03*
X457200Y146558D03*
X548386Y146558D03*
X317500Y101600D03*
X408686Y101600D03*
X317500Y146558D03*
X408686Y146558D03*
X38100Y101600D03*
X129286Y101600D03*
X38100Y146558D03*
X129286Y146558D03*
D28*
X636270Y497840D03*
D29*
X661670Y497840D03*
X687070Y497840D03*
X712470Y497840D03*
D30*
X570230Y486410D03*
X778510Y486410D03*
X778510Y255270D03*
X570230Y255270D03*
D31*
X118342Y467880D02*
X118342Y480620D01*
X118342Y467880D02*
X116158Y467880D01*
X116158Y480620D01*
X118342Y480620D01*
X118342Y470993D02*
X116158Y470993D01*
X116158Y474106D02*
X118342Y474106D01*
X118342Y477219D02*
X116158Y477219D01*
X116158Y480332D02*
X118342Y480332D01*
D32*
X124869Y480647D02*
X124869Y467853D01*
X122631Y467853D01*
X122631Y480647D01*
X124869Y480647D01*
X124869Y470914D02*
X122631Y470914D01*
X122631Y473975D02*
X124869Y473975D01*
X124869Y477036D02*
X122631Y477036D01*
X122631Y480097D02*
X124869Y480097D01*
X131369Y480647D02*
X131369Y467853D01*
X129131Y467853D01*
X129131Y480647D01*
X131369Y480647D01*
X131369Y470914D02*
X129131Y470914D01*
X129131Y473975D02*
X131369Y473975D01*
X131369Y477036D02*
X129131Y477036D01*
X129131Y480097D02*
X131369Y480097D01*
X137869Y480647D02*
X137869Y467853D01*
X135631Y467853D01*
X135631Y480647D01*
X137869Y480647D01*
X137869Y470914D02*
X135631Y470914D01*
X135631Y473975D02*
X137869Y473975D01*
X137869Y477036D02*
X135631Y477036D01*
X135631Y480097D02*
X137869Y480097D01*
X135631Y509953D02*
X135631Y522747D01*
X137869Y522747D01*
X137869Y509953D01*
X135631Y509953D01*
X135631Y513014D02*
X137869Y513014D01*
X137869Y516075D02*
X135631Y516075D01*
X135631Y519136D02*
X137869Y519136D01*
X137869Y522197D02*
X135631Y522197D01*
X129131Y522747D02*
X129131Y509953D01*
X129131Y522747D02*
X131369Y522747D01*
X131369Y509953D01*
X129131Y509953D01*
X129131Y513014D02*
X131369Y513014D01*
X131369Y516075D02*
X129131Y516075D01*
X129131Y519136D02*
X131369Y519136D01*
X131369Y522197D02*
X129131Y522197D01*
X122631Y522747D02*
X122631Y509953D01*
X122631Y522747D02*
X124869Y522747D01*
X124869Y509953D01*
X122631Y509953D01*
X122631Y513014D02*
X124869Y513014D01*
X124869Y516075D02*
X122631Y516075D01*
X122631Y519136D02*
X124869Y519136D01*
X124869Y522197D02*
X122631Y522197D01*
X116131Y522747D02*
X116131Y509953D01*
X116131Y522747D02*
X118369Y522747D01*
X118369Y509953D01*
X116131Y509953D01*
X116131Y513014D02*
X118369Y513014D01*
X118369Y516075D02*
X116131Y516075D01*
X116131Y519136D02*
X118369Y519136D01*
X118369Y522197D02*
X116131Y522197D01*
D33*
X308500Y327600D03*
X308500Y335600D03*
X308500Y343600D03*
X308500Y351600D03*
X308500Y359600D03*
X308500Y367600D03*
X308500Y375600D03*
X308500Y383600D03*
D34*
X294700Y397400D03*
X286700Y397400D03*
X278700Y397400D03*
X270700Y397400D03*
X262700Y397400D03*
X254700Y397400D03*
X246700Y397400D03*
X238700Y397400D03*
D33*
X224900Y383600D03*
X224900Y375600D03*
X224900Y367600D03*
X224900Y359600D03*
X224900Y351600D03*
X224900Y343600D03*
X224900Y335600D03*
X224900Y327600D03*
D34*
X238700Y313800D03*
X246700Y313800D03*
X254700Y313800D03*
X262700Y313800D03*
X270700Y313800D03*
X278700Y313800D03*
X286700Y313800D03*
X294700Y313800D03*
D35*
X218186Y602742D03*
X218186Y596392D03*
X218186Y589788D03*
X218186Y583438D03*
X261874Y583438D03*
X261874Y589788D03*
X261874Y596392D03*
X261874Y602742D03*
D14*
X196850Y662280D03*
X196850Y643280D03*
X171450Y348640D03*
X171450Y367640D03*
M02*
