G04 EAGLE Gerber RS-274X export*
G75*
%MOMM*%
%FSLAX34Y34*%
%LPD*%
%IN*%
%IPPOS*%
%AMOC8*
5,1,8,0,0,1.08239X$1,22.5*%
G01*
%ADD10C,0.254000*%


D10*
X-12700Y88900D02*
X685600Y88900D01*
X685600Y1000000D01*
X-12700Y1000000D01*
X-12700Y88900D01*
X657400Y657300D02*
X657411Y657039D01*
X657446Y656779D01*
X657502Y656524D01*
X657581Y656274D01*
X657681Y656032D01*
X657802Y655800D01*
X657943Y655579D01*
X658102Y655372D01*
X658279Y655179D01*
X658472Y655002D01*
X658679Y654843D01*
X658900Y654702D01*
X659132Y654581D01*
X659374Y654481D01*
X659624Y654402D01*
X659879Y654346D01*
X660139Y654311D01*
X660400Y654300D01*
X667400Y654300D01*
X667661Y654311D01*
X667921Y654346D01*
X668176Y654402D01*
X668426Y654481D01*
X668668Y654581D01*
X668900Y654702D01*
X669121Y654843D01*
X669328Y655002D01*
X669521Y655179D01*
X669698Y655372D01*
X669857Y655579D01*
X669998Y655800D01*
X670119Y656032D01*
X670219Y656274D01*
X670298Y656524D01*
X670354Y656779D01*
X670389Y657039D01*
X670400Y657300D01*
X670389Y657561D01*
X670354Y657821D01*
X670298Y658076D01*
X670219Y658326D01*
X670119Y658568D01*
X669998Y658800D01*
X669857Y659021D01*
X669698Y659228D01*
X669521Y659421D01*
X669328Y659598D01*
X669121Y659757D01*
X668900Y659898D01*
X668668Y660019D01*
X668426Y660119D01*
X668176Y660198D01*
X667921Y660254D01*
X667661Y660289D01*
X667400Y660300D01*
X660400Y660300D01*
X660139Y660289D01*
X659879Y660254D01*
X659624Y660198D01*
X659374Y660119D01*
X659132Y660019D01*
X658900Y659898D01*
X658679Y659757D01*
X658472Y659598D01*
X658279Y659421D01*
X658102Y659228D01*
X657943Y659021D01*
X657802Y658800D01*
X657681Y658568D01*
X657581Y658326D01*
X657502Y658076D01*
X657446Y657821D01*
X657411Y657561D01*
X657400Y657300D01*
X657400Y587300D02*
X657411Y587039D01*
X657446Y586779D01*
X657502Y586524D01*
X657581Y586274D01*
X657681Y586032D01*
X657802Y585800D01*
X657943Y585579D01*
X658102Y585372D01*
X658279Y585179D01*
X658472Y585002D01*
X658679Y584843D01*
X658900Y584702D01*
X659132Y584581D01*
X659374Y584481D01*
X659624Y584402D01*
X659879Y584346D01*
X660139Y584311D01*
X660400Y584300D01*
X667400Y584300D01*
X667661Y584311D01*
X667921Y584346D01*
X668176Y584402D01*
X668426Y584481D01*
X668668Y584581D01*
X668900Y584702D01*
X669121Y584843D01*
X669328Y585002D01*
X669521Y585179D01*
X669698Y585372D01*
X669857Y585579D01*
X669998Y585800D01*
X670119Y586032D01*
X670219Y586274D01*
X670298Y586524D01*
X670354Y586779D01*
X670389Y587039D01*
X670400Y587300D01*
X670389Y587561D01*
X670354Y587821D01*
X670298Y588076D01*
X670219Y588326D01*
X670119Y588568D01*
X669998Y588800D01*
X669857Y589021D01*
X669698Y589228D01*
X669521Y589421D01*
X669328Y589598D01*
X669121Y589757D01*
X668900Y589898D01*
X668668Y590019D01*
X668426Y590119D01*
X668176Y590198D01*
X667921Y590254D01*
X667661Y590289D01*
X667400Y590300D01*
X660400Y590300D01*
X660139Y590289D01*
X659879Y590254D01*
X659624Y590198D01*
X659374Y590119D01*
X659132Y590019D01*
X658900Y589898D01*
X658679Y589757D01*
X658472Y589598D01*
X658279Y589421D01*
X658102Y589228D01*
X657943Y589021D01*
X657802Y588800D01*
X657681Y588568D01*
X657581Y588326D01*
X657502Y588076D01*
X657446Y587821D01*
X657411Y587561D01*
X657400Y587300D01*
X254833Y172560D02*
X253964Y172484D01*
X253104Y172332D01*
X252260Y172106D01*
X251440Y171808D01*
X250648Y171439D01*
X249892Y171002D01*
X249177Y170501D01*
X248508Y169940D01*
X247890Y169322D01*
X247329Y168653D01*
X246828Y167938D01*
X246391Y167182D01*
X246022Y166390D01*
X245724Y165570D01*
X245498Y164726D01*
X245346Y163867D01*
X245270Y162997D01*
X245270Y162123D01*
X245346Y161254D01*
X245498Y160394D01*
X245724Y159550D01*
X246022Y158730D01*
X246391Y157938D01*
X246828Y157182D01*
X247329Y156467D01*
X247890Y155798D01*
X248508Y155180D01*
X249177Y154619D01*
X249892Y154118D01*
X250648Y153681D01*
X251440Y153312D01*
X252260Y153014D01*
X253104Y152788D01*
X253964Y152636D01*
X254833Y152560D01*
X255707Y152560D01*
X256577Y152636D01*
X257436Y152788D01*
X258280Y153014D01*
X259100Y153312D01*
X259892Y153681D01*
X260648Y154118D01*
X261363Y154619D01*
X262032Y155180D01*
X262650Y155798D01*
X263211Y156467D01*
X263712Y157182D01*
X264149Y157938D01*
X264518Y158730D01*
X264816Y159550D01*
X265042Y160394D01*
X265194Y161254D01*
X265270Y162123D01*
X265270Y162997D01*
X265194Y163867D01*
X265042Y164726D01*
X264816Y165570D01*
X264518Y166390D01*
X264149Y167182D01*
X263712Y167938D01*
X263211Y168653D01*
X262650Y169322D01*
X262032Y169940D01*
X261363Y170501D01*
X260648Y171002D01*
X259892Y171439D01*
X259100Y171808D01*
X258280Y172106D01*
X257436Y172332D01*
X256577Y172484D01*
X255707Y172560D01*
X254833Y172560D01*
X254833Y380840D02*
X253964Y380764D01*
X253104Y380612D01*
X252260Y380386D01*
X251440Y380088D01*
X250648Y379719D01*
X249892Y379282D01*
X249177Y378781D01*
X248508Y378220D01*
X247890Y377602D01*
X247329Y376933D01*
X246828Y376218D01*
X246391Y375462D01*
X246022Y374670D01*
X245724Y373850D01*
X245498Y373006D01*
X245346Y372147D01*
X245270Y371277D01*
X245270Y370403D01*
X245346Y369534D01*
X245498Y368674D01*
X245724Y367830D01*
X246022Y367010D01*
X246391Y366218D01*
X246828Y365462D01*
X247329Y364747D01*
X247890Y364078D01*
X248508Y363460D01*
X249177Y362899D01*
X249892Y362398D01*
X250648Y361961D01*
X251440Y361592D01*
X252260Y361294D01*
X253104Y361068D01*
X253964Y360916D01*
X254833Y360840D01*
X255707Y360840D01*
X256577Y360916D01*
X257436Y361068D01*
X258280Y361294D01*
X259100Y361592D01*
X259892Y361961D01*
X260648Y362398D01*
X261363Y362899D01*
X262032Y363460D01*
X262650Y364078D01*
X263211Y364747D01*
X263712Y365462D01*
X264149Y366218D01*
X264518Y367010D01*
X264816Y367830D01*
X265042Y368674D01*
X265194Y369534D01*
X265270Y370403D01*
X265270Y371277D01*
X265194Y372147D01*
X265042Y373006D01*
X264816Y373850D01*
X264518Y374670D01*
X264149Y375462D01*
X263712Y376218D01*
X263211Y376933D01*
X262650Y377602D01*
X262032Y378220D01*
X261363Y378781D01*
X260648Y379282D01*
X259892Y379719D01*
X259100Y380088D01*
X258280Y380386D01*
X257436Y380612D01*
X256577Y380764D01*
X255707Y380840D01*
X254833Y380840D01*
X23693Y380840D02*
X22824Y380764D01*
X21964Y380612D01*
X21120Y380386D01*
X20300Y380088D01*
X19508Y379719D01*
X18752Y379282D01*
X18037Y378781D01*
X17368Y378220D01*
X16750Y377602D01*
X16189Y376933D01*
X15688Y376218D01*
X15251Y375462D01*
X14882Y374670D01*
X14584Y373850D01*
X14358Y373006D01*
X14206Y372147D01*
X14130Y371277D01*
X14130Y370403D01*
X14206Y369534D01*
X14358Y368674D01*
X14584Y367830D01*
X14882Y367010D01*
X15251Y366218D01*
X15688Y365462D01*
X16189Y364747D01*
X16750Y364078D01*
X17368Y363460D01*
X18037Y362899D01*
X18752Y362398D01*
X19508Y361961D01*
X20300Y361592D01*
X21120Y361294D01*
X21964Y361068D01*
X22824Y360916D01*
X23693Y360840D01*
X24567Y360840D01*
X25437Y360916D01*
X26296Y361068D01*
X27140Y361294D01*
X27960Y361592D01*
X28752Y361961D01*
X29508Y362398D01*
X30223Y362899D01*
X30892Y363460D01*
X31510Y364078D01*
X32071Y364747D01*
X32572Y365462D01*
X33009Y366218D01*
X33378Y367010D01*
X33676Y367830D01*
X33902Y368674D01*
X34054Y369534D01*
X34130Y370403D01*
X34130Y371277D01*
X34054Y372147D01*
X33902Y373006D01*
X33676Y373850D01*
X33378Y374670D01*
X33009Y375462D01*
X32572Y376218D01*
X32071Y376933D01*
X31510Y377602D01*
X30892Y378220D01*
X30223Y378781D01*
X29508Y379282D01*
X28752Y379719D01*
X27960Y380088D01*
X27140Y380386D01*
X26296Y380612D01*
X25437Y380764D01*
X24567Y380840D01*
X23693Y380840D01*
X23693Y172560D02*
X22824Y172484D01*
X21964Y172332D01*
X21120Y172106D01*
X20300Y171808D01*
X19508Y171439D01*
X18752Y171002D01*
X18037Y170501D01*
X17368Y169940D01*
X16750Y169322D01*
X16189Y168653D01*
X15688Y167938D01*
X15251Y167182D01*
X14882Y166390D01*
X14584Y165570D01*
X14358Y164726D01*
X14206Y163867D01*
X14130Y162997D01*
X14130Y162123D01*
X14206Y161254D01*
X14358Y160394D01*
X14584Y159550D01*
X14882Y158730D01*
X15251Y157938D01*
X15688Y157182D01*
X16189Y156467D01*
X16750Y155798D01*
X17368Y155180D01*
X18037Y154619D01*
X18752Y154118D01*
X19508Y153681D01*
X20300Y153312D01*
X21120Y153014D01*
X21964Y152788D01*
X22824Y152636D01*
X23693Y152560D01*
X24567Y152560D01*
X25437Y152636D01*
X26296Y152788D01*
X27140Y153014D01*
X27960Y153312D01*
X28752Y153681D01*
X29508Y154118D01*
X30223Y154619D01*
X30892Y155180D01*
X31510Y155798D01*
X32071Y156467D01*
X32572Y157182D01*
X33009Y157938D01*
X33378Y158730D01*
X33676Y159550D01*
X33902Y160394D01*
X34054Y161254D01*
X34130Y162123D01*
X34130Y162997D01*
X34054Y163867D01*
X33902Y164726D01*
X33676Y165570D01*
X33378Y166390D01*
X33009Y167182D01*
X32572Y167938D01*
X32071Y168653D01*
X31510Y169322D01*
X30892Y169940D01*
X30223Y170501D01*
X29508Y171002D01*
X28752Y171439D01*
X27960Y171808D01*
X27140Y172106D01*
X26296Y172332D01*
X25437Y172484D01*
X24567Y172560D01*
X23693Y172560D01*
M02*
