G04 EAGLE Gerber RS-274X export*
G75*
%MOMM*%
%FSLAX34Y34*%
%LPD*%
%INTop Copper*%
%IPPOS*%
%AMOC8*
5,1,8,0,0,1.08239X$1,22.5*%
G01*
%ADD10C,0.130000*%
%ADD11C,0.152400*%
%ADD12R,1.300000X1.500000*%
%ADD13P,1.732040X8X112.500000*%
%ADD14C,1.600200*%
%ADD15R,1.500000X1.300000*%
%ADD16C,1.320800*%
%ADD17C,1.625600*%
%ADD18C,1.450000*%
%ADD19R,0.400000X1.350000*%
%ADD20R,1.500000X1.900000*%
%ADD21R,1.200000X1.900000*%
%ADD22C,1.108000*%
%ADD23P,2.089446X8X22.500000*%
%ADD24R,1.200000X1.200000*%
%ADD25R,1.000000X1.400000*%
%ADD26R,1.400000X1.000000*%
%ADD27C,1.800000*%
%ADD28R,2.108200X1.397000*%
%ADD29C,1.000000*%
%ADD30R,1.508000X1.508000*%
%ADD31C,1.508000*%
%ADD32C,0.226694*%
%ADD33C,0.222250*%
%ADD34R,1.600000X0.550000*%
%ADD35R,0.550000X1.600000*%
%ADD36R,1.498600X0.431800*%
%ADD37C,0.685800*%
%ADD38C,0.203200*%
%ADD39C,0.304800*%


D10*
X787200Y695200D02*
X921018Y695239D01*
X921218Y39D02*
X787400Y0D01*
X901718Y683D02*
X901518Y694583D01*
X904718Y669234D01*
X898333Y669232D01*
X901518Y694583D01*
X902826Y669233D01*
X900226Y669233D02*
X901518Y694583D01*
X904126Y669234D01*
X898926Y669232D02*
X901518Y694583D01*
X904903Y26034D02*
X901718Y683D01*
X904903Y26034D02*
X898518Y26032D01*
X901718Y683D01*
X903011Y26033D01*
X900411Y26033D02*
X901718Y683D01*
X904311Y26034D01*
X899111Y26032D02*
X901718Y683D01*
D11*
X915341Y316605D02*
X915341Y322024D01*
X915343Y322142D01*
X915349Y322260D01*
X915358Y322378D01*
X915372Y322495D01*
X915389Y322612D01*
X915410Y322729D01*
X915435Y322844D01*
X915464Y322959D01*
X915497Y323073D01*
X915533Y323185D01*
X915573Y323296D01*
X915616Y323406D01*
X915663Y323515D01*
X915713Y323622D01*
X915768Y323727D01*
X915825Y323830D01*
X915886Y323931D01*
X915950Y324031D01*
X916017Y324128D01*
X916087Y324223D01*
X916161Y324315D01*
X916237Y324406D01*
X916317Y324493D01*
X916399Y324578D01*
X916484Y324660D01*
X916571Y324740D01*
X916662Y324816D01*
X916754Y324890D01*
X916849Y324960D01*
X916946Y325027D01*
X917046Y325091D01*
X917147Y325152D01*
X917250Y325209D01*
X917355Y325264D01*
X917462Y325314D01*
X917571Y325361D01*
X917681Y325404D01*
X917792Y325444D01*
X917904Y325480D01*
X918018Y325513D01*
X918133Y325542D01*
X918248Y325567D01*
X918365Y325588D01*
X918482Y325605D01*
X918599Y325619D01*
X918717Y325628D01*
X918835Y325634D01*
X918953Y325636D01*
X919857Y325636D01*
X919857Y325637D02*
X919990Y325635D01*
X920122Y325629D01*
X920254Y325619D01*
X920386Y325606D01*
X920518Y325588D01*
X920648Y325567D01*
X920779Y325542D01*
X920908Y325513D01*
X921036Y325480D01*
X921164Y325444D01*
X921290Y325404D01*
X921415Y325360D01*
X921539Y325312D01*
X921661Y325261D01*
X921782Y325206D01*
X921901Y325148D01*
X922019Y325086D01*
X922134Y325021D01*
X922248Y324952D01*
X922359Y324881D01*
X922468Y324805D01*
X922575Y324727D01*
X922680Y324646D01*
X922782Y324561D01*
X922882Y324474D01*
X922979Y324384D01*
X923074Y324291D01*
X923165Y324195D01*
X923254Y324097D01*
X923340Y323996D01*
X923423Y323892D01*
X923503Y323786D01*
X923579Y323678D01*
X923653Y323568D01*
X923723Y323455D01*
X923790Y323341D01*
X923853Y323224D01*
X923913Y323106D01*
X923970Y322986D01*
X924023Y322864D01*
X924072Y322741D01*
X924118Y322617D01*
X924160Y322491D01*
X924198Y322364D01*
X924233Y322236D01*
X924264Y322107D01*
X924291Y321978D01*
X924314Y321847D01*
X924334Y321716D01*
X924349Y321584D01*
X924361Y321452D01*
X924369Y321320D01*
X924373Y321187D01*
X924373Y321055D01*
X924369Y320922D01*
X924361Y320790D01*
X924349Y320658D01*
X924334Y320526D01*
X924314Y320395D01*
X924291Y320264D01*
X924264Y320135D01*
X924233Y320006D01*
X924198Y319878D01*
X924160Y319751D01*
X924118Y319625D01*
X924072Y319501D01*
X924023Y319378D01*
X923970Y319256D01*
X923913Y319136D01*
X923853Y319018D01*
X923790Y318901D01*
X923723Y318787D01*
X923653Y318674D01*
X923579Y318564D01*
X923503Y318456D01*
X923423Y318350D01*
X923340Y318246D01*
X923254Y318145D01*
X923165Y318047D01*
X923074Y317951D01*
X922979Y317858D01*
X922882Y317768D01*
X922782Y317681D01*
X922680Y317596D01*
X922575Y317515D01*
X922468Y317437D01*
X922359Y317361D01*
X922248Y317290D01*
X922134Y317221D01*
X922019Y317156D01*
X921901Y317094D01*
X921782Y317036D01*
X921661Y316981D01*
X921539Y316930D01*
X921415Y316882D01*
X921290Y316838D01*
X921164Y316798D01*
X921036Y316762D01*
X920908Y316729D01*
X920779Y316700D01*
X920648Y316675D01*
X920518Y316654D01*
X920386Y316636D01*
X920254Y316623D01*
X920122Y316613D01*
X919990Y316607D01*
X919857Y316605D01*
X915341Y316605D01*
X915164Y316607D01*
X914986Y316614D01*
X914809Y316625D01*
X914633Y316640D01*
X914457Y316659D01*
X914281Y316683D01*
X914106Y316711D01*
X913931Y316744D01*
X913758Y316781D01*
X913585Y316822D01*
X913414Y316867D01*
X913244Y316916D01*
X913075Y316970D01*
X912907Y317027D01*
X912741Y317089D01*
X912576Y317155D01*
X912413Y317225D01*
X912252Y317299D01*
X912093Y317376D01*
X911935Y317458D01*
X911780Y317544D01*
X911627Y317633D01*
X911476Y317726D01*
X911327Y317823D01*
X911181Y317923D01*
X911037Y318027D01*
X910896Y318134D01*
X910758Y318245D01*
X910622Y318359D01*
X910489Y318477D01*
X910359Y318597D01*
X910232Y318721D01*
X910108Y318848D01*
X909988Y318978D01*
X909870Y319111D01*
X909756Y319246D01*
X909645Y319385D01*
X909538Y319526D01*
X909434Y319670D01*
X909334Y319816D01*
X909237Y319965D01*
X909144Y320116D01*
X909055Y320269D01*
X908969Y320424D01*
X908887Y320582D01*
X908810Y320741D01*
X908736Y320902D01*
X908666Y321065D01*
X908600Y321230D01*
X908538Y321396D01*
X908481Y321564D01*
X908427Y321733D01*
X908378Y321903D01*
X908333Y322074D01*
X908292Y322247D01*
X908255Y322420D01*
X908222Y322595D01*
X908194Y322770D01*
X908170Y322946D01*
X908151Y323122D01*
X908136Y323298D01*
X908125Y323475D01*
X908118Y323653D01*
X908116Y323830D01*
X917147Y335849D02*
X917147Y341268D01*
X917147Y335849D02*
X917145Y335731D01*
X917139Y335613D01*
X917130Y335495D01*
X917116Y335378D01*
X917099Y335261D01*
X917078Y335144D01*
X917053Y335029D01*
X917024Y334914D01*
X916991Y334800D01*
X916955Y334688D01*
X916915Y334577D01*
X916872Y334467D01*
X916825Y334358D01*
X916775Y334251D01*
X916720Y334146D01*
X916663Y334043D01*
X916602Y333942D01*
X916538Y333842D01*
X916471Y333745D01*
X916401Y333650D01*
X916327Y333558D01*
X916251Y333467D01*
X916171Y333380D01*
X916089Y333295D01*
X916004Y333213D01*
X915917Y333133D01*
X915826Y333057D01*
X915734Y332983D01*
X915639Y332913D01*
X915542Y332846D01*
X915442Y332782D01*
X915341Y332721D01*
X915238Y332664D01*
X915133Y332609D01*
X915026Y332559D01*
X914917Y332512D01*
X914807Y332469D01*
X914696Y332429D01*
X914584Y332393D01*
X914470Y332360D01*
X914355Y332331D01*
X914240Y332306D01*
X914123Y332285D01*
X914006Y332268D01*
X913889Y332254D01*
X913771Y332245D01*
X913653Y332239D01*
X913535Y332237D01*
X912632Y332237D01*
X912632Y332236D02*
X912499Y332238D01*
X912367Y332244D01*
X912235Y332254D01*
X912103Y332267D01*
X911971Y332285D01*
X911841Y332306D01*
X911710Y332331D01*
X911581Y332360D01*
X911453Y332393D01*
X911325Y332429D01*
X911199Y332469D01*
X911074Y332513D01*
X910950Y332561D01*
X910828Y332612D01*
X910707Y332667D01*
X910588Y332725D01*
X910470Y332787D01*
X910355Y332852D01*
X910241Y332921D01*
X910130Y332992D01*
X910021Y333068D01*
X909914Y333146D01*
X909809Y333227D01*
X909707Y333312D01*
X909607Y333399D01*
X909510Y333489D01*
X909415Y333582D01*
X909324Y333678D01*
X909235Y333776D01*
X909149Y333877D01*
X909066Y333981D01*
X908986Y334087D01*
X908910Y334195D01*
X908836Y334305D01*
X908766Y334418D01*
X908699Y334532D01*
X908636Y334649D01*
X908576Y334767D01*
X908519Y334887D01*
X908466Y335009D01*
X908417Y335132D01*
X908371Y335256D01*
X908329Y335382D01*
X908291Y335509D01*
X908256Y335637D01*
X908225Y335766D01*
X908198Y335895D01*
X908175Y336026D01*
X908155Y336157D01*
X908140Y336289D01*
X908128Y336421D01*
X908120Y336553D01*
X908116Y336686D01*
X908116Y336818D01*
X908120Y336951D01*
X908128Y337083D01*
X908140Y337215D01*
X908155Y337347D01*
X908175Y337478D01*
X908198Y337609D01*
X908225Y337738D01*
X908256Y337867D01*
X908291Y337995D01*
X908329Y338122D01*
X908371Y338248D01*
X908417Y338372D01*
X908466Y338495D01*
X908519Y338617D01*
X908576Y338737D01*
X908636Y338855D01*
X908699Y338972D01*
X908766Y339086D01*
X908836Y339199D01*
X908910Y339309D01*
X908986Y339417D01*
X909066Y339523D01*
X909149Y339627D01*
X909235Y339728D01*
X909324Y339826D01*
X909415Y339922D01*
X909510Y340015D01*
X909607Y340105D01*
X909707Y340192D01*
X909809Y340277D01*
X909914Y340358D01*
X910021Y340436D01*
X910130Y340512D01*
X910241Y340583D01*
X910355Y340652D01*
X910470Y340717D01*
X910588Y340779D01*
X910707Y340837D01*
X910828Y340892D01*
X910950Y340943D01*
X911074Y340991D01*
X911199Y341035D01*
X911325Y341075D01*
X911453Y341111D01*
X911581Y341144D01*
X911710Y341173D01*
X911841Y341198D01*
X911971Y341219D01*
X912103Y341237D01*
X912235Y341250D01*
X912367Y341260D01*
X912499Y341266D01*
X912632Y341268D01*
X917147Y341268D01*
X917322Y341266D01*
X917496Y341260D01*
X917670Y341249D01*
X917844Y341234D01*
X918018Y341215D01*
X918191Y341192D01*
X918363Y341165D01*
X918535Y341133D01*
X918706Y341098D01*
X918876Y341058D01*
X919045Y341014D01*
X919213Y340966D01*
X919380Y340914D01*
X919545Y340858D01*
X919709Y340798D01*
X919872Y340735D01*
X920032Y340667D01*
X920192Y340595D01*
X920349Y340520D01*
X920505Y340440D01*
X920658Y340357D01*
X920810Y340271D01*
X920959Y340180D01*
X921106Y340086D01*
X921251Y339989D01*
X921394Y339888D01*
X921534Y339784D01*
X921671Y339676D01*
X921806Y339565D01*
X921938Y339451D01*
X922067Y339334D01*
X922194Y339213D01*
X922317Y339090D01*
X922438Y338963D01*
X922555Y338834D01*
X922669Y338702D01*
X922780Y338567D01*
X922888Y338430D01*
X922992Y338290D01*
X923093Y338147D01*
X923190Y338002D01*
X923284Y337855D01*
X923375Y337706D01*
X923461Y337554D01*
X923544Y337401D01*
X923624Y337245D01*
X923699Y337088D01*
X923771Y336928D01*
X923839Y336768D01*
X923902Y336605D01*
X923962Y336441D01*
X924018Y336276D01*
X924070Y336109D01*
X924118Y335941D01*
X924162Y335772D01*
X924202Y335602D01*
X924237Y335431D01*
X924269Y335259D01*
X924296Y335087D01*
X924319Y334914D01*
X924338Y334740D01*
X924353Y334566D01*
X924364Y334392D01*
X924370Y334218D01*
X924372Y334043D01*
X924372Y347242D02*
X923469Y347242D01*
X923469Y348145D01*
X924372Y348145D01*
X924372Y347242D01*
X924372Y354120D02*
X924372Y359539D01*
X924370Y359657D01*
X924364Y359775D01*
X924355Y359893D01*
X924341Y360010D01*
X924324Y360127D01*
X924303Y360244D01*
X924278Y360359D01*
X924249Y360474D01*
X924216Y360588D01*
X924180Y360700D01*
X924140Y360811D01*
X924097Y360921D01*
X924050Y361030D01*
X924000Y361137D01*
X923945Y361242D01*
X923888Y361345D01*
X923827Y361446D01*
X923763Y361546D01*
X923696Y361643D01*
X923626Y361738D01*
X923552Y361830D01*
X923476Y361921D01*
X923396Y362008D01*
X923314Y362093D01*
X923229Y362175D01*
X923142Y362255D01*
X923051Y362331D01*
X922959Y362405D01*
X922864Y362475D01*
X922767Y362542D01*
X922667Y362606D01*
X922566Y362667D01*
X922463Y362724D01*
X922358Y362779D01*
X922251Y362829D01*
X922142Y362876D01*
X922032Y362919D01*
X921921Y362959D01*
X921809Y362995D01*
X921695Y363028D01*
X921580Y363057D01*
X921465Y363082D01*
X921348Y363103D01*
X921231Y363120D01*
X921114Y363134D01*
X920996Y363143D01*
X920878Y363149D01*
X920760Y363151D01*
X918953Y363151D01*
X918835Y363149D01*
X918717Y363143D01*
X918599Y363134D01*
X918482Y363120D01*
X918365Y363103D01*
X918248Y363082D01*
X918133Y363057D01*
X918018Y363028D01*
X917904Y362995D01*
X917792Y362959D01*
X917681Y362919D01*
X917571Y362876D01*
X917462Y362829D01*
X917355Y362779D01*
X917250Y362724D01*
X917147Y362667D01*
X917046Y362606D01*
X916946Y362542D01*
X916849Y362475D01*
X916754Y362405D01*
X916662Y362331D01*
X916571Y362255D01*
X916484Y362175D01*
X916399Y362093D01*
X916317Y362008D01*
X916237Y361921D01*
X916161Y361830D01*
X916087Y361738D01*
X916017Y361643D01*
X915950Y361546D01*
X915886Y361446D01*
X915825Y361345D01*
X915768Y361242D01*
X915713Y361137D01*
X915663Y361030D01*
X915616Y360921D01*
X915573Y360811D01*
X915533Y360700D01*
X915497Y360588D01*
X915464Y360474D01*
X915435Y360359D01*
X915410Y360244D01*
X915389Y360127D01*
X915372Y360010D01*
X915358Y359893D01*
X915349Y359775D01*
X915343Y359657D01*
X915341Y359539D01*
X915341Y354120D01*
X908116Y354120D01*
X908116Y363151D01*
X908116Y374719D02*
X908118Y374844D01*
X908124Y374969D01*
X908133Y375094D01*
X908147Y375218D01*
X908164Y375342D01*
X908185Y375466D01*
X908210Y375588D01*
X908239Y375710D01*
X908271Y375831D01*
X908307Y375951D01*
X908347Y376070D01*
X908390Y376187D01*
X908437Y376303D01*
X908488Y376418D01*
X908542Y376530D01*
X908600Y376642D01*
X908660Y376751D01*
X908725Y376858D01*
X908792Y376964D01*
X908863Y377067D01*
X908937Y377168D01*
X909014Y377267D01*
X909094Y377363D01*
X909177Y377457D01*
X909262Y377548D01*
X909351Y377637D01*
X909442Y377722D01*
X909536Y377805D01*
X909632Y377885D01*
X909731Y377962D01*
X909832Y378036D01*
X909935Y378107D01*
X910041Y378174D01*
X910148Y378239D01*
X910257Y378299D01*
X910369Y378357D01*
X910481Y378411D01*
X910596Y378462D01*
X910712Y378509D01*
X910829Y378552D01*
X910948Y378592D01*
X911068Y378628D01*
X911189Y378660D01*
X911311Y378689D01*
X911433Y378714D01*
X911557Y378735D01*
X911681Y378752D01*
X911805Y378766D01*
X911930Y378775D01*
X912055Y378781D01*
X912180Y378783D01*
X908116Y374719D02*
X908118Y374576D01*
X908124Y374434D01*
X908134Y374291D01*
X908147Y374149D01*
X908165Y374008D01*
X908186Y373866D01*
X908211Y373726D01*
X908240Y373586D01*
X908273Y373447D01*
X908310Y373309D01*
X908350Y373172D01*
X908394Y373037D01*
X908442Y372902D01*
X908494Y372769D01*
X908549Y372637D01*
X908608Y372507D01*
X908670Y372379D01*
X908736Y372252D01*
X908805Y372127D01*
X908877Y372004D01*
X908953Y371883D01*
X909032Y371765D01*
X909115Y371648D01*
X909200Y371534D01*
X909289Y371422D01*
X909380Y371313D01*
X909475Y371206D01*
X909572Y371101D01*
X909673Y371000D01*
X909776Y370901D01*
X909881Y370805D01*
X909990Y370712D01*
X910101Y370622D01*
X910214Y370535D01*
X910329Y370451D01*
X910447Y370371D01*
X910567Y370293D01*
X910689Y370219D01*
X910813Y370149D01*
X910939Y370081D01*
X911067Y370018D01*
X911196Y369957D01*
X911327Y369900D01*
X911459Y369847D01*
X911593Y369798D01*
X911728Y369752D01*
X915341Y377427D02*
X915249Y377521D01*
X915155Y377611D01*
X915058Y377699D01*
X914958Y377784D01*
X914856Y377866D01*
X914751Y377944D01*
X914644Y378020D01*
X914535Y378092D01*
X914424Y378161D01*
X914310Y378227D01*
X914195Y378289D01*
X914078Y378348D01*
X913959Y378403D01*
X913839Y378454D01*
X913717Y378502D01*
X913594Y378547D01*
X913470Y378587D01*
X913344Y378624D01*
X913217Y378657D01*
X913090Y378686D01*
X912961Y378712D01*
X912832Y378733D01*
X912702Y378751D01*
X912572Y378764D01*
X912442Y378774D01*
X912311Y378780D01*
X912180Y378782D01*
X915341Y377428D02*
X924372Y369751D01*
X924372Y378783D01*
D10*
X0Y0D02*
X0Y-108400D01*
X825500Y-108400D02*
X825500Y0D01*
X824850Y-88900D02*
X650Y-88900D01*
X26000Y-85708D01*
X26000Y-92092D01*
X650Y-88900D01*
X26000Y-87600D01*
X26000Y-90200D02*
X650Y-88900D01*
X26000Y-86300D01*
X26000Y-91500D02*
X650Y-88900D01*
X799500Y-85708D02*
X824850Y-88900D01*
X799500Y-85708D02*
X799500Y-92092D01*
X824850Y-88900D01*
X799500Y-87600D01*
X799500Y-90200D02*
X824850Y-88900D01*
X799500Y-86300D01*
X799500Y-91500D02*
X824850Y-88900D01*
D11*
X390634Y-77877D02*
X390632Y-77744D01*
X390626Y-77612D01*
X390616Y-77480D01*
X390603Y-77348D01*
X390585Y-77216D01*
X390564Y-77086D01*
X390539Y-76955D01*
X390510Y-76826D01*
X390477Y-76698D01*
X390441Y-76570D01*
X390401Y-76444D01*
X390357Y-76319D01*
X390309Y-76195D01*
X390258Y-76073D01*
X390203Y-75952D01*
X390145Y-75833D01*
X390083Y-75715D01*
X390018Y-75600D01*
X389949Y-75486D01*
X389878Y-75375D01*
X389802Y-75266D01*
X389724Y-75159D01*
X389643Y-75054D01*
X389558Y-74952D01*
X389471Y-74852D01*
X389381Y-74755D01*
X389288Y-74660D01*
X389192Y-74569D01*
X389094Y-74480D01*
X388993Y-74394D01*
X388889Y-74311D01*
X388783Y-74231D01*
X388675Y-74155D01*
X388565Y-74081D01*
X388452Y-74011D01*
X388338Y-73944D01*
X388221Y-73881D01*
X388103Y-73821D01*
X387983Y-73764D01*
X387861Y-73711D01*
X387738Y-73662D01*
X387614Y-73616D01*
X387488Y-73574D01*
X387361Y-73536D01*
X387233Y-73501D01*
X387104Y-73470D01*
X386975Y-73443D01*
X386844Y-73420D01*
X386713Y-73400D01*
X386581Y-73385D01*
X386449Y-73373D01*
X386317Y-73365D01*
X386184Y-73361D01*
X386052Y-73361D01*
X385919Y-73365D01*
X385787Y-73373D01*
X385655Y-73385D01*
X385523Y-73400D01*
X385392Y-73420D01*
X385261Y-73443D01*
X385132Y-73470D01*
X385003Y-73501D01*
X384875Y-73536D01*
X384748Y-73574D01*
X384622Y-73616D01*
X384498Y-73662D01*
X384375Y-73711D01*
X384253Y-73764D01*
X384133Y-73821D01*
X384015Y-73881D01*
X383898Y-73944D01*
X383784Y-74011D01*
X383671Y-74081D01*
X383561Y-74155D01*
X383453Y-74231D01*
X383347Y-74311D01*
X383243Y-74394D01*
X383142Y-74480D01*
X383044Y-74569D01*
X382948Y-74660D01*
X382855Y-74755D01*
X382765Y-74852D01*
X382678Y-74952D01*
X382593Y-75054D01*
X382512Y-75159D01*
X382434Y-75266D01*
X382358Y-75375D01*
X382287Y-75486D01*
X382218Y-75600D01*
X382153Y-75715D01*
X382091Y-75833D01*
X382033Y-75952D01*
X381978Y-76073D01*
X381927Y-76195D01*
X381879Y-76319D01*
X381835Y-76444D01*
X381795Y-76570D01*
X381759Y-76698D01*
X381726Y-76826D01*
X381697Y-76955D01*
X381672Y-77086D01*
X381651Y-77216D01*
X381633Y-77348D01*
X381620Y-77480D01*
X381610Y-77612D01*
X381604Y-77744D01*
X381602Y-77877D01*
X381604Y-78010D01*
X381610Y-78142D01*
X381620Y-78274D01*
X381633Y-78406D01*
X381651Y-78538D01*
X381672Y-78668D01*
X381697Y-78799D01*
X381726Y-78928D01*
X381759Y-79056D01*
X381795Y-79184D01*
X381835Y-79310D01*
X381879Y-79435D01*
X381927Y-79559D01*
X381978Y-79681D01*
X382033Y-79802D01*
X382091Y-79921D01*
X382153Y-80039D01*
X382218Y-80154D01*
X382287Y-80268D01*
X382358Y-80379D01*
X382434Y-80488D01*
X382512Y-80595D01*
X382593Y-80700D01*
X382678Y-80802D01*
X382765Y-80902D01*
X382855Y-80999D01*
X382948Y-81094D01*
X383044Y-81185D01*
X383142Y-81274D01*
X383243Y-81360D01*
X383347Y-81443D01*
X383453Y-81523D01*
X383561Y-81599D01*
X383671Y-81673D01*
X383784Y-81743D01*
X383898Y-81810D01*
X384015Y-81873D01*
X384133Y-81933D01*
X384253Y-81990D01*
X384375Y-82043D01*
X384498Y-82092D01*
X384622Y-82138D01*
X384748Y-82180D01*
X384875Y-82218D01*
X385003Y-82253D01*
X385132Y-82284D01*
X385261Y-82311D01*
X385392Y-82334D01*
X385523Y-82354D01*
X385655Y-82369D01*
X385787Y-82381D01*
X385919Y-82389D01*
X386052Y-82393D01*
X386184Y-82393D01*
X386317Y-82389D01*
X386449Y-82381D01*
X386581Y-82369D01*
X386713Y-82354D01*
X386844Y-82334D01*
X386975Y-82311D01*
X387104Y-82284D01*
X387233Y-82253D01*
X387361Y-82218D01*
X387488Y-82180D01*
X387614Y-82138D01*
X387738Y-82092D01*
X387861Y-82043D01*
X387983Y-81990D01*
X388103Y-81933D01*
X388221Y-81873D01*
X388338Y-81810D01*
X388452Y-81743D01*
X388565Y-81673D01*
X388675Y-81599D01*
X388783Y-81523D01*
X388889Y-81443D01*
X388993Y-81360D01*
X389094Y-81274D01*
X389192Y-81185D01*
X389288Y-81094D01*
X389381Y-80999D01*
X389471Y-80902D01*
X389558Y-80802D01*
X389643Y-80700D01*
X389724Y-80595D01*
X389802Y-80488D01*
X389878Y-80379D01*
X389949Y-80268D01*
X390018Y-80154D01*
X390083Y-80039D01*
X390145Y-79921D01*
X390203Y-79802D01*
X390258Y-79681D01*
X390309Y-79559D01*
X390357Y-79435D01*
X390401Y-79310D01*
X390441Y-79184D01*
X390477Y-79056D01*
X390510Y-78928D01*
X390539Y-78799D01*
X390564Y-78668D01*
X390585Y-78538D01*
X390603Y-78406D01*
X390616Y-78274D01*
X390626Y-78142D01*
X390632Y-78010D01*
X390634Y-77877D01*
X389730Y-69749D02*
X389728Y-69630D01*
X389722Y-69510D01*
X389712Y-69391D01*
X389698Y-69273D01*
X389681Y-69154D01*
X389659Y-69037D01*
X389634Y-68920D01*
X389604Y-68805D01*
X389571Y-68690D01*
X389534Y-68576D01*
X389494Y-68464D01*
X389449Y-68353D01*
X389401Y-68244D01*
X389350Y-68136D01*
X389295Y-68030D01*
X389236Y-67926D01*
X389174Y-67824D01*
X389109Y-67724D01*
X389040Y-67626D01*
X388968Y-67530D01*
X388893Y-67437D01*
X388816Y-67347D01*
X388735Y-67259D01*
X388651Y-67174D01*
X388564Y-67092D01*
X388475Y-67012D01*
X388383Y-66936D01*
X388289Y-66862D01*
X388192Y-66792D01*
X388094Y-66725D01*
X387993Y-66661D01*
X387889Y-66601D01*
X387784Y-66544D01*
X387677Y-66491D01*
X387569Y-66441D01*
X387459Y-66395D01*
X387347Y-66353D01*
X387234Y-66314D01*
X387120Y-66279D01*
X387005Y-66248D01*
X386888Y-66220D01*
X386771Y-66197D01*
X386654Y-66177D01*
X386535Y-66161D01*
X386416Y-66149D01*
X386297Y-66141D01*
X386178Y-66137D01*
X386058Y-66137D01*
X385939Y-66141D01*
X385820Y-66149D01*
X385701Y-66161D01*
X385582Y-66177D01*
X385465Y-66197D01*
X385348Y-66220D01*
X385231Y-66248D01*
X385116Y-66279D01*
X385002Y-66314D01*
X384889Y-66353D01*
X384777Y-66395D01*
X384667Y-66441D01*
X384559Y-66491D01*
X384452Y-66544D01*
X384347Y-66601D01*
X384243Y-66661D01*
X384142Y-66725D01*
X384044Y-66792D01*
X383947Y-66862D01*
X383853Y-66936D01*
X383761Y-67012D01*
X383672Y-67092D01*
X383585Y-67174D01*
X383501Y-67259D01*
X383420Y-67347D01*
X383343Y-67437D01*
X383268Y-67530D01*
X383196Y-67626D01*
X383127Y-67724D01*
X383062Y-67824D01*
X383000Y-67926D01*
X382941Y-68030D01*
X382886Y-68136D01*
X382835Y-68244D01*
X382787Y-68353D01*
X382742Y-68464D01*
X382702Y-68576D01*
X382665Y-68690D01*
X382632Y-68805D01*
X382602Y-68920D01*
X382577Y-69037D01*
X382555Y-69154D01*
X382538Y-69273D01*
X382524Y-69391D01*
X382514Y-69510D01*
X382508Y-69630D01*
X382506Y-69749D01*
X382508Y-69868D01*
X382514Y-69988D01*
X382524Y-70107D01*
X382538Y-70225D01*
X382555Y-70344D01*
X382577Y-70461D01*
X382602Y-70578D01*
X382632Y-70693D01*
X382665Y-70808D01*
X382702Y-70922D01*
X382742Y-71034D01*
X382787Y-71145D01*
X382835Y-71254D01*
X382886Y-71362D01*
X382941Y-71468D01*
X383000Y-71572D01*
X383062Y-71674D01*
X383127Y-71774D01*
X383196Y-71872D01*
X383268Y-71968D01*
X383343Y-72061D01*
X383420Y-72151D01*
X383501Y-72239D01*
X383585Y-72324D01*
X383672Y-72406D01*
X383761Y-72486D01*
X383853Y-72562D01*
X383947Y-72636D01*
X384044Y-72706D01*
X384142Y-72773D01*
X384243Y-72837D01*
X384347Y-72897D01*
X384452Y-72954D01*
X384559Y-73007D01*
X384667Y-73057D01*
X384777Y-73103D01*
X384889Y-73145D01*
X385002Y-73184D01*
X385116Y-73219D01*
X385231Y-73250D01*
X385348Y-73278D01*
X385465Y-73301D01*
X385582Y-73321D01*
X385701Y-73337D01*
X385820Y-73349D01*
X385939Y-73357D01*
X386058Y-73361D01*
X386178Y-73361D01*
X386297Y-73357D01*
X386416Y-73349D01*
X386535Y-73337D01*
X386654Y-73321D01*
X386771Y-73301D01*
X386888Y-73278D01*
X387005Y-73250D01*
X387120Y-73219D01*
X387234Y-73184D01*
X387347Y-73145D01*
X387459Y-73103D01*
X387569Y-73057D01*
X387677Y-73007D01*
X387784Y-72954D01*
X387889Y-72897D01*
X387993Y-72837D01*
X388094Y-72773D01*
X388192Y-72706D01*
X388289Y-72636D01*
X388383Y-72562D01*
X388475Y-72486D01*
X388564Y-72406D01*
X388651Y-72324D01*
X388735Y-72239D01*
X388816Y-72151D01*
X388893Y-72061D01*
X388968Y-71968D01*
X389040Y-71872D01*
X389109Y-71774D01*
X389174Y-71674D01*
X389236Y-71572D01*
X389295Y-71468D01*
X389350Y-71362D01*
X389401Y-71254D01*
X389449Y-71145D01*
X389494Y-71034D01*
X389534Y-70922D01*
X389571Y-70808D01*
X389604Y-70693D01*
X389634Y-70578D01*
X389659Y-70461D01*
X389681Y-70344D01*
X389698Y-70225D01*
X389712Y-70107D01*
X389722Y-69988D01*
X389728Y-69868D01*
X389730Y-69749D01*
X402200Y-66137D02*
X402325Y-66139D01*
X402450Y-66145D01*
X402575Y-66154D01*
X402699Y-66168D01*
X402823Y-66185D01*
X402947Y-66206D01*
X403069Y-66231D01*
X403191Y-66260D01*
X403312Y-66292D01*
X403432Y-66328D01*
X403551Y-66368D01*
X403668Y-66411D01*
X403784Y-66458D01*
X403899Y-66509D01*
X404011Y-66563D01*
X404123Y-66621D01*
X404232Y-66681D01*
X404339Y-66746D01*
X404445Y-66813D01*
X404548Y-66884D01*
X404649Y-66958D01*
X404748Y-67035D01*
X404844Y-67115D01*
X404938Y-67198D01*
X405029Y-67283D01*
X405118Y-67372D01*
X405203Y-67463D01*
X405286Y-67557D01*
X405366Y-67653D01*
X405443Y-67752D01*
X405517Y-67853D01*
X405588Y-67956D01*
X405655Y-68062D01*
X405720Y-68169D01*
X405780Y-68278D01*
X405838Y-68390D01*
X405892Y-68502D01*
X405943Y-68617D01*
X405990Y-68733D01*
X406033Y-68850D01*
X406073Y-68969D01*
X406109Y-69089D01*
X406141Y-69210D01*
X406170Y-69332D01*
X406195Y-69454D01*
X406216Y-69578D01*
X406233Y-69702D01*
X406247Y-69826D01*
X406256Y-69951D01*
X406262Y-70076D01*
X406264Y-70201D01*
X402200Y-66137D02*
X402057Y-66139D01*
X401915Y-66145D01*
X401772Y-66155D01*
X401630Y-66168D01*
X401489Y-66186D01*
X401347Y-66207D01*
X401207Y-66232D01*
X401067Y-66261D01*
X400928Y-66294D01*
X400790Y-66331D01*
X400653Y-66371D01*
X400518Y-66415D01*
X400383Y-66463D01*
X400250Y-66515D01*
X400118Y-66570D01*
X399988Y-66629D01*
X399860Y-66691D01*
X399733Y-66757D01*
X399608Y-66826D01*
X399485Y-66898D01*
X399364Y-66974D01*
X399246Y-67053D01*
X399129Y-67136D01*
X399015Y-67221D01*
X398903Y-67310D01*
X398794Y-67401D01*
X398687Y-67496D01*
X398582Y-67593D01*
X398481Y-67694D01*
X398382Y-67797D01*
X398286Y-67902D01*
X398193Y-68011D01*
X398103Y-68122D01*
X398016Y-68235D01*
X397932Y-68350D01*
X397852Y-68468D01*
X397774Y-68588D01*
X397700Y-68710D01*
X397630Y-68834D01*
X397562Y-68960D01*
X397499Y-69088D01*
X397438Y-69217D01*
X397381Y-69348D01*
X397328Y-69480D01*
X397279Y-69614D01*
X397233Y-69749D01*
X404909Y-73362D02*
X405003Y-73270D01*
X405093Y-73176D01*
X405181Y-73079D01*
X405266Y-72979D01*
X405348Y-72877D01*
X405426Y-72772D01*
X405502Y-72665D01*
X405574Y-72556D01*
X405643Y-72445D01*
X405709Y-72331D01*
X405771Y-72216D01*
X405830Y-72099D01*
X405885Y-71980D01*
X405936Y-71860D01*
X405984Y-71738D01*
X406029Y-71615D01*
X406069Y-71491D01*
X406106Y-71365D01*
X406139Y-71238D01*
X406168Y-71111D01*
X406194Y-70982D01*
X406215Y-70853D01*
X406233Y-70723D01*
X406246Y-70593D01*
X406256Y-70463D01*
X406262Y-70332D01*
X406264Y-70201D01*
X404910Y-73362D02*
X397233Y-82393D01*
X406264Y-82393D01*
X412239Y-82393D02*
X412239Y-81490D01*
X413142Y-81490D01*
X413142Y-82393D01*
X412239Y-82393D01*
X419117Y-82393D02*
X424536Y-82393D01*
X424654Y-82391D01*
X424772Y-82385D01*
X424890Y-82376D01*
X425007Y-82362D01*
X425124Y-82345D01*
X425241Y-82324D01*
X425356Y-82299D01*
X425471Y-82270D01*
X425585Y-82237D01*
X425697Y-82201D01*
X425808Y-82161D01*
X425918Y-82118D01*
X426027Y-82071D01*
X426134Y-82021D01*
X426239Y-81966D01*
X426342Y-81909D01*
X426443Y-81848D01*
X426543Y-81784D01*
X426640Y-81717D01*
X426735Y-81647D01*
X426827Y-81573D01*
X426918Y-81497D01*
X427005Y-81417D01*
X427090Y-81335D01*
X427172Y-81250D01*
X427252Y-81163D01*
X427328Y-81072D01*
X427402Y-80980D01*
X427472Y-80885D01*
X427539Y-80788D01*
X427603Y-80688D01*
X427664Y-80587D01*
X427721Y-80484D01*
X427776Y-80379D01*
X427826Y-80272D01*
X427873Y-80163D01*
X427916Y-80053D01*
X427956Y-79942D01*
X427992Y-79830D01*
X428025Y-79716D01*
X428054Y-79601D01*
X428079Y-79486D01*
X428100Y-79369D01*
X428117Y-79252D01*
X428131Y-79135D01*
X428140Y-79017D01*
X428146Y-78899D01*
X428148Y-78781D01*
X428148Y-76974D01*
X428146Y-76856D01*
X428140Y-76738D01*
X428131Y-76620D01*
X428117Y-76503D01*
X428100Y-76386D01*
X428079Y-76269D01*
X428054Y-76154D01*
X428025Y-76039D01*
X427992Y-75925D01*
X427956Y-75813D01*
X427916Y-75702D01*
X427873Y-75592D01*
X427826Y-75483D01*
X427776Y-75376D01*
X427721Y-75271D01*
X427664Y-75168D01*
X427603Y-75067D01*
X427539Y-74967D01*
X427472Y-74870D01*
X427402Y-74775D01*
X427328Y-74683D01*
X427252Y-74592D01*
X427172Y-74505D01*
X427090Y-74420D01*
X427005Y-74338D01*
X426918Y-74258D01*
X426827Y-74182D01*
X426735Y-74108D01*
X426640Y-74038D01*
X426543Y-73971D01*
X426443Y-73907D01*
X426342Y-73846D01*
X426239Y-73789D01*
X426134Y-73734D01*
X426027Y-73684D01*
X425918Y-73637D01*
X425808Y-73594D01*
X425697Y-73554D01*
X425585Y-73518D01*
X425471Y-73485D01*
X425356Y-73456D01*
X425241Y-73431D01*
X425124Y-73410D01*
X425007Y-73393D01*
X424890Y-73379D01*
X424772Y-73370D01*
X424654Y-73364D01*
X424536Y-73362D01*
X419117Y-73362D01*
X419117Y-66137D01*
X428148Y-66137D01*
X434748Y-82393D02*
X440167Y-82393D01*
X440285Y-82391D01*
X440403Y-82385D01*
X440521Y-82376D01*
X440638Y-82362D01*
X440755Y-82345D01*
X440872Y-82324D01*
X440987Y-82299D01*
X441102Y-82270D01*
X441216Y-82237D01*
X441328Y-82201D01*
X441439Y-82161D01*
X441549Y-82118D01*
X441658Y-82071D01*
X441765Y-82021D01*
X441870Y-81966D01*
X441973Y-81909D01*
X442074Y-81848D01*
X442174Y-81784D01*
X442271Y-81717D01*
X442366Y-81647D01*
X442458Y-81573D01*
X442549Y-81497D01*
X442636Y-81417D01*
X442721Y-81335D01*
X442803Y-81250D01*
X442883Y-81163D01*
X442959Y-81072D01*
X443033Y-80980D01*
X443103Y-80885D01*
X443170Y-80788D01*
X443234Y-80688D01*
X443295Y-80587D01*
X443352Y-80484D01*
X443407Y-80379D01*
X443457Y-80272D01*
X443504Y-80163D01*
X443547Y-80053D01*
X443587Y-79942D01*
X443623Y-79830D01*
X443656Y-79716D01*
X443685Y-79601D01*
X443710Y-79486D01*
X443731Y-79369D01*
X443748Y-79252D01*
X443762Y-79135D01*
X443771Y-79017D01*
X443777Y-78899D01*
X443779Y-78781D01*
X443779Y-76974D01*
X443777Y-76856D01*
X443771Y-76738D01*
X443762Y-76620D01*
X443748Y-76503D01*
X443731Y-76386D01*
X443710Y-76269D01*
X443685Y-76154D01*
X443656Y-76039D01*
X443623Y-75925D01*
X443587Y-75813D01*
X443547Y-75702D01*
X443504Y-75592D01*
X443457Y-75483D01*
X443407Y-75376D01*
X443352Y-75271D01*
X443295Y-75168D01*
X443234Y-75067D01*
X443170Y-74967D01*
X443103Y-74870D01*
X443033Y-74775D01*
X442959Y-74683D01*
X442883Y-74592D01*
X442803Y-74505D01*
X442721Y-74420D01*
X442636Y-74338D01*
X442549Y-74258D01*
X442458Y-74182D01*
X442366Y-74108D01*
X442271Y-74038D01*
X442174Y-73971D01*
X442074Y-73907D01*
X441973Y-73846D01*
X441870Y-73789D01*
X441765Y-73734D01*
X441658Y-73684D01*
X441549Y-73637D01*
X441439Y-73594D01*
X441328Y-73554D01*
X441216Y-73518D01*
X441102Y-73485D01*
X440987Y-73456D01*
X440872Y-73431D01*
X440755Y-73410D01*
X440638Y-73393D01*
X440521Y-73379D01*
X440403Y-73370D01*
X440285Y-73364D01*
X440167Y-73362D01*
X434748Y-73362D01*
X434748Y-66137D01*
X443779Y-66137D01*
D12*
X377800Y190500D03*
X358800Y190500D03*
X558190Y626110D03*
X577190Y626110D03*
D13*
X571500Y584200D03*
D14*
X571500Y558800D03*
D13*
X406400Y584200D03*
D14*
X406400Y558800D03*
D12*
X309270Y504190D03*
X328270Y504190D03*
X238100Y190500D03*
X219100Y190500D03*
X98400Y190500D03*
X79400Y190500D03*
X517500Y190500D03*
X498500Y190500D03*
D15*
X176530Y452730D03*
X176530Y433730D03*
D12*
X219100Y546100D03*
X238100Y546100D03*
D16*
X437896Y546100D02*
X451104Y546100D01*
X514096Y546100D02*
X527304Y546100D01*
X527304Y596900D02*
X514096Y596900D01*
X451104Y596900D02*
X437896Y596900D01*
D17*
X228600Y495300D03*
X228600Y520700D03*
X203200Y520700D03*
X203200Y495300D03*
X254000Y495300D03*
X254000Y520700D03*
D18*
X569830Y653410D03*
X519830Y653410D03*
D19*
X557830Y653410D03*
X551330Y653410D03*
X544830Y653410D03*
X538330Y653410D03*
X531830Y653410D03*
D20*
X554830Y680410D03*
X534830Y680410D03*
D21*
X573830Y680410D03*
X515830Y680410D03*
D22*
X579830Y685950D02*
X579830Y674870D01*
X509830Y674870D02*
X509830Y685950D01*
D23*
X304800Y647700D03*
X266700Y647700D03*
D24*
X675980Y626110D03*
X654980Y626110D03*
D25*
X431800Y392000D03*
X441300Y370000D03*
X422300Y370000D03*
D26*
X480900Y317500D03*
X458900Y308000D03*
X458900Y327000D03*
D27*
X74000Y354800D02*
X56000Y354800D01*
X56000Y304800D02*
X74000Y304800D01*
X74000Y254800D02*
X56000Y254800D01*
D12*
X636880Y626110D03*
X617880Y626110D03*
D15*
X660400Y536600D03*
X660400Y555600D03*
X168910Y584860D03*
X168910Y603860D03*
D12*
X328270Y533400D03*
X309270Y533400D03*
X328270Y588010D03*
X309270Y588010D03*
X309270Y565150D03*
X328270Y565150D03*
X379070Y440690D03*
X360070Y440690D03*
D15*
X341630Y367640D03*
X341630Y348640D03*
X381000Y371500D03*
X381000Y390500D03*
X419100Y308000D03*
X419100Y327000D03*
D27*
X74000Y558000D02*
X56000Y558000D01*
X56000Y508000D02*
X74000Y508000D01*
X74000Y458000D02*
X56000Y458000D01*
D15*
X114300Y643280D03*
X114300Y662280D03*
X139700Y562000D03*
X139700Y581000D03*
X139700Y643280D03*
X139700Y662280D03*
X114300Y562000D03*
X114300Y581000D03*
D12*
X282600Y482600D03*
X301600Y482600D03*
D15*
X444500Y422300D03*
X444500Y441300D03*
D12*
X420980Y440690D03*
X401980Y440690D03*
D28*
X177800Y101600D03*
X268986Y101600D03*
X177800Y146558D03*
X268986Y146558D03*
X457200Y101600D03*
X548386Y101600D03*
X457200Y146558D03*
X548386Y146558D03*
X317500Y101600D03*
X408686Y101600D03*
X317500Y146558D03*
X408686Y146558D03*
X38100Y101600D03*
X129286Y101600D03*
X38100Y146558D03*
X129286Y146558D03*
D29*
X711200Y114300D03*
D30*
X636270Y497840D03*
D31*
X661670Y497840D03*
X687070Y497840D03*
X712470Y497840D03*
D32*
X118339Y480617D02*
X118339Y467883D01*
X116161Y467883D01*
X116161Y480617D01*
X118339Y480617D01*
X118339Y470037D02*
X116161Y470037D01*
X116161Y472191D02*
X118339Y472191D01*
X118339Y474345D02*
X116161Y474345D01*
X116161Y476499D02*
X118339Y476499D01*
X118339Y478653D02*
X116161Y478653D01*
D33*
X124861Y480639D02*
X124861Y467861D01*
X122639Y467861D01*
X122639Y480639D01*
X124861Y480639D01*
X124861Y469973D02*
X122639Y469973D01*
X122639Y472085D02*
X124861Y472085D01*
X124861Y474197D02*
X122639Y474197D01*
X122639Y476309D02*
X124861Y476309D01*
X124861Y478421D02*
X122639Y478421D01*
X122639Y480533D02*
X124861Y480533D01*
X131361Y480639D02*
X131361Y467861D01*
X129139Y467861D01*
X129139Y480639D01*
X131361Y480639D01*
X131361Y469973D02*
X129139Y469973D01*
X129139Y472085D02*
X131361Y472085D01*
X131361Y474197D02*
X129139Y474197D01*
X129139Y476309D02*
X131361Y476309D01*
X131361Y478421D02*
X129139Y478421D01*
X129139Y480533D02*
X131361Y480533D01*
X137861Y480639D02*
X137861Y467861D01*
X135639Y467861D01*
X135639Y480639D01*
X137861Y480639D01*
X137861Y469973D02*
X135639Y469973D01*
X135639Y472085D02*
X137861Y472085D01*
X137861Y474197D02*
X135639Y474197D01*
X135639Y476309D02*
X137861Y476309D01*
X137861Y478421D02*
X135639Y478421D01*
X135639Y480533D02*
X137861Y480533D01*
X135639Y509961D02*
X135639Y522739D01*
X137861Y522739D01*
X137861Y509961D01*
X135639Y509961D01*
X135639Y512073D02*
X137861Y512073D01*
X137861Y514185D02*
X135639Y514185D01*
X135639Y516297D02*
X137861Y516297D01*
X137861Y518409D02*
X135639Y518409D01*
X135639Y520521D02*
X137861Y520521D01*
X137861Y522633D02*
X135639Y522633D01*
X129139Y522739D02*
X129139Y509961D01*
X129139Y522739D02*
X131361Y522739D01*
X131361Y509961D01*
X129139Y509961D01*
X129139Y512073D02*
X131361Y512073D01*
X131361Y514185D02*
X129139Y514185D01*
X129139Y516297D02*
X131361Y516297D01*
X131361Y518409D02*
X129139Y518409D01*
X129139Y520521D02*
X131361Y520521D01*
X131361Y522633D02*
X129139Y522633D01*
X122639Y522739D02*
X122639Y509961D01*
X122639Y522739D02*
X124861Y522739D01*
X124861Y509961D01*
X122639Y509961D01*
X122639Y512073D02*
X124861Y512073D01*
X124861Y514185D02*
X122639Y514185D01*
X122639Y516297D02*
X124861Y516297D01*
X124861Y518409D02*
X122639Y518409D01*
X122639Y520521D02*
X124861Y520521D01*
X124861Y522633D02*
X122639Y522633D01*
X116139Y522739D02*
X116139Y509961D01*
X116139Y522739D02*
X118361Y522739D01*
X118361Y509961D01*
X116139Y509961D01*
X116139Y512073D02*
X118361Y512073D01*
X118361Y514185D02*
X116139Y514185D01*
X116139Y516297D02*
X118361Y516297D01*
X118361Y518409D02*
X116139Y518409D01*
X116139Y520521D02*
X118361Y520521D01*
X118361Y522633D02*
X116139Y522633D01*
D29*
X101600Y76200D03*
X736600Y609600D03*
X63500Y622300D03*
D34*
X308500Y327600D03*
X308500Y335600D03*
X308500Y343600D03*
X308500Y351600D03*
X308500Y359600D03*
X308500Y367600D03*
X308500Y375600D03*
X308500Y383600D03*
D35*
X294700Y397400D03*
X286700Y397400D03*
X278700Y397400D03*
X270700Y397400D03*
X262700Y397400D03*
X254700Y397400D03*
X246700Y397400D03*
X238700Y397400D03*
D34*
X224900Y383600D03*
X224900Y375600D03*
X224900Y367600D03*
X224900Y359600D03*
X224900Y351600D03*
X224900Y343600D03*
X224900Y335600D03*
X224900Y327600D03*
D35*
X238700Y313800D03*
X246700Y313800D03*
X254700Y313800D03*
X262700Y313800D03*
X270700Y313800D03*
X278700Y313800D03*
X286700Y313800D03*
X294700Y313800D03*
D36*
X218186Y602742D03*
X218186Y596392D03*
X218186Y589788D03*
X218186Y583438D03*
X261874Y583438D03*
X261874Y589788D03*
X261874Y596392D03*
X261874Y602742D03*
D15*
X196850Y662280D03*
X196850Y643280D03*
X171450Y348640D03*
X171450Y367640D03*
D37*
X234950Y652780D03*
X339090Y431800D03*
X685800Y607060D03*
X596900Y641350D03*
X360680Y561340D03*
X138430Y538480D03*
X124460Y538480D03*
X50800Y177800D03*
X190500Y177800D03*
X330200Y177800D03*
X469900Y177800D03*
X325120Y359410D03*
D38*
X324930Y359600D02*
X308500Y359600D01*
X324930Y359600D02*
X325120Y359410D01*
D37*
X205740Y358140D03*
D38*
X212280Y351600D02*
X224900Y351600D01*
X212280Y351600D02*
X205740Y358140D01*
X203200Y190500D02*
X219100Y190500D01*
X203200Y190500D02*
X190500Y177800D01*
X79400Y190500D02*
X63500Y190500D01*
X50800Y177800D01*
X342900Y190500D02*
X358800Y190500D01*
X342900Y190500D02*
X330200Y177800D01*
X482600Y190500D02*
X498500Y190500D01*
X482600Y190500D02*
X469900Y177800D01*
X548386Y146558D02*
X560832Y146558D01*
X565150Y142240D01*
X565150Y137160D01*
X556260Y128270D01*
D37*
X556260Y128270D03*
D38*
X422402Y146558D02*
X408686Y146558D01*
X422402Y146558D02*
X426720Y142240D01*
X426720Y134620D01*
X419100Y127000D01*
D37*
X419100Y127000D03*
D38*
X281432Y146558D02*
X268986Y146558D01*
X281432Y146558D02*
X285750Y142240D01*
X285750Y133350D01*
X279400Y127000D01*
D37*
X279400Y127000D03*
D38*
X143002Y146558D02*
X129286Y146558D01*
X143002Y146558D02*
X147320Y142240D01*
X147320Y134620D01*
X139700Y127000D01*
D37*
X139700Y127000D03*
D38*
X123750Y516350D02*
X123750Y537770D01*
X124460Y538480D01*
X136750Y536800D02*
X136750Y516350D01*
X136750Y536800D02*
X138430Y538480D01*
X196850Y662280D02*
X225450Y662280D01*
X234950Y652780D01*
X139700Y662280D02*
X139700Y681990D01*
D37*
X139700Y681990D03*
D38*
X114300Y678180D02*
X114300Y662280D01*
X114300Y678180D02*
X119380Y683260D01*
D37*
X119380Y683260D03*
D38*
X328270Y565150D02*
X356870Y565150D01*
X360680Y561340D01*
X577190Y626110D02*
X588010Y626110D01*
X596900Y635000D01*
X596900Y641350D01*
X675980Y626110D02*
X681990Y626110D01*
X685800Y622300D01*
X685800Y607060D01*
X341630Y504190D02*
X328270Y504190D01*
X341630Y504190D02*
X344170Y506730D01*
D37*
X349250Y518160D03*
D38*
X344170Y513080D02*
X344170Y506730D01*
X344170Y513080D02*
X349250Y518160D01*
X347980Y440690D02*
X360070Y440690D01*
X347980Y440690D02*
X339090Y431800D01*
X515830Y680410D02*
X534830Y680410D01*
X554830Y680410D01*
X573830Y680410D01*
X515830Y680410D02*
X509830Y680410D01*
X573830Y680410D02*
X579830Y680410D01*
X531830Y653410D02*
X519830Y653410D01*
X246380Y546100D02*
X238100Y546100D01*
X246380Y546100D02*
X254000Y538480D01*
X254000Y520700D01*
X176530Y464820D02*
X176530Y452730D01*
X176530Y464820D02*
X170180Y471170D01*
D37*
X170180Y471170D03*
D38*
X98400Y190500D02*
X132309Y156591D01*
X141090Y156591D01*
X152400Y145281D01*
X152400Y106680D02*
X147320Y101600D01*
X129286Y101600D01*
X152400Y106680D02*
X152400Y145281D01*
X98400Y190500D02*
X98400Y272136D01*
X114300Y288036D01*
X275336Y288036D01*
X279400Y292100D01*
X279400Y313100D01*
X278700Y313800D01*
X238100Y190500D02*
X272009Y156591D01*
X280790Y156591D01*
X292100Y145281D01*
X292100Y106680D02*
X287020Y101600D01*
X268986Y101600D01*
X292100Y106680D02*
X292100Y145281D01*
X238100Y190500D02*
X238100Y276200D01*
X277019Y283972D02*
X283464Y290417D01*
X245872Y283972D02*
X238100Y276200D01*
X245872Y283972D02*
X277019Y283972D01*
X283464Y297434D02*
X287020Y300990D01*
X287020Y313480D01*
X286700Y313800D01*
X283464Y297434D02*
X283464Y290417D01*
X377800Y190500D02*
X411709Y156591D01*
X420490Y156591D01*
X431800Y145281D01*
X426720Y101600D02*
X408686Y101600D01*
X431800Y106680D02*
X431800Y145281D01*
X431800Y106680D02*
X426720Y101600D01*
X377800Y190500D02*
X377800Y212750D01*
X294700Y295850D02*
X294700Y313800D01*
X294700Y295850D02*
X377800Y212750D01*
X517500Y190500D02*
X551409Y156591D01*
X560190Y156591D01*
X571500Y145281D01*
X571500Y105410D02*
X567690Y101600D01*
X548386Y101600D01*
X571500Y105410D02*
X571500Y145281D01*
X517500Y190500D02*
X517500Y206400D01*
X508000Y215900D01*
X441960Y215900D01*
X330200Y327660D01*
X308560Y327660D01*
X308500Y327600D01*
X238760Y299720D02*
X235204Y296164D01*
X238760Y299720D02*
X238760Y313740D01*
X238700Y313800D01*
X65000Y484100D02*
X65000Y508000D01*
X65000Y484100D02*
X38100Y457200D01*
X51010Y342752D02*
X54758Y342752D01*
X101346Y296164D01*
X51010Y342752D02*
X38100Y355662D01*
X38100Y457200D01*
X101346Y296164D02*
X235204Y296164D01*
X77700Y292100D02*
X65000Y304800D01*
X246700Y300040D02*
X246700Y313800D01*
X238760Y292100D02*
X77700Y292100D01*
X238760Y292100D02*
X246700Y300040D01*
X636880Y626110D02*
X654980Y626110D01*
X130250Y474250D02*
X130250Y441250D01*
X190500Y381000D01*
D37*
X190500Y381000D03*
X190500Y355600D03*
D38*
X190500Y342900D01*
X205800Y327600D02*
X224900Y327600D01*
X205800Y327600D02*
X190500Y342900D01*
X171490Y367600D02*
X171450Y367640D01*
X171490Y367600D02*
X224900Y367600D01*
X171450Y367640D02*
X123750Y415340D01*
X123750Y474250D01*
X136750Y474250D02*
X136750Y447322D01*
X196786Y387286D01*
D37*
X196786Y387286D03*
D38*
X215200Y343600D02*
X224900Y343600D01*
D37*
X199390Y344170D03*
D38*
X214630Y344170D01*
X215200Y343600D01*
X130250Y516350D02*
X130250Y535110D01*
X130937Y535797D01*
X130937Y541147D01*
X139700Y549910D02*
X139700Y562000D01*
X139700Y549910D02*
X130937Y541147D01*
X117250Y559050D02*
X117250Y516350D01*
X117250Y559050D02*
X114300Y562000D01*
X520700Y546100D02*
X520700Y596900D01*
X558800Y596900D01*
X571500Y584200D01*
X406400Y584200D02*
X402590Y588010D01*
X328270Y588010D01*
X406400Y584200D02*
X419100Y596900D01*
X444500Y596900D01*
X272542Y583438D02*
X261874Y583438D01*
X272542Y583438D02*
X273050Y582930D01*
X273050Y579120D01*
X271780Y577850D01*
X247650Y577850D01*
X245110Y580390D01*
X245110Y603250D01*
X292100Y652961D02*
X299539Y660400D01*
X310061Y660400D01*
X317500Y652961D01*
X292100Y652961D02*
X292100Y650240D01*
X317500Y598780D02*
X328270Y588010D01*
X317500Y598780D02*
X317500Y652961D01*
X292100Y650240D02*
X245110Y603250D01*
X270700Y423100D02*
X270700Y397400D01*
X546100Y533400D02*
X571500Y558800D01*
X381000Y533400D02*
X270700Y423100D01*
X381000Y533400D02*
X546100Y533400D01*
X238700Y409000D02*
X238700Y397400D01*
X203200Y444500D02*
X203200Y495300D01*
X203200Y444500D02*
X238700Y409000D01*
X192024Y499929D02*
X198571Y506476D01*
X207829Y506476D01*
X219005Y495300D01*
X228600Y495300D01*
X224900Y383600D02*
X210760Y383600D01*
X207327Y387033D02*
X207327Y391652D01*
X192024Y406956D01*
X207327Y387033D02*
X210760Y383600D01*
X199517Y430387D02*
X199517Y435753D01*
X192024Y443246D02*
X192024Y499929D01*
X192024Y422894D02*
X192024Y406956D01*
X199517Y435753D02*
X192024Y443246D01*
X199517Y430387D02*
X192024Y422894D01*
X246700Y397400D02*
X246700Y486795D01*
X242824Y490671D01*
X242824Y506476D02*
X228600Y520700D01*
X242824Y506476D02*
X242824Y490671D01*
X254000Y495300D02*
X254000Y444500D01*
X266700Y431800D01*
D37*
X266700Y431800D03*
X257810Y300339D03*
D38*
X267319Y300339D01*
X270700Y303720D02*
X270700Y313800D01*
X270700Y303720D02*
X267319Y300339D01*
D39*
X264160Y495300D02*
X270510Y501650D01*
X264160Y495300D02*
X254000Y495300D01*
X282600Y494640D02*
X282600Y482600D01*
X275590Y501650D02*
X270510Y501650D01*
X275590Y501650D02*
X282600Y494640D01*
D38*
X129152Y658132D02*
X114300Y643280D01*
X129152Y658132D02*
X129152Y670043D01*
X129605Y670495D01*
X152400Y667891D02*
X152400Y636327D01*
X171255Y617472D02*
X179356Y617472D01*
X187228Y609600D02*
X228600Y609600D01*
X187228Y609600D02*
X179356Y617472D01*
X171255Y617472D02*
X152400Y636327D01*
X228600Y609600D02*
X231140Y607060D01*
X231140Y579120D02*
X229870Y577850D01*
X207010Y577850D01*
X205740Y579120D01*
X205740Y581660D01*
X207518Y583438D01*
X218186Y583438D01*
X231140Y579120D02*
X231140Y607060D01*
X114300Y581000D02*
X114300Y643280D01*
X129605Y670495D02*
X129605Y676845D01*
X128270Y678180D01*
D37*
X128270Y678180D03*
X151130Y679450D03*
D38*
X154940Y679450D01*
X157480Y676910D01*
X157480Y672971D01*
X152400Y667891D01*
X139700Y643280D02*
X169572Y613408D01*
X177673Y613408D01*
X188339Y602742D02*
X218186Y602742D01*
X188339Y602742D02*
X177673Y613408D01*
X139700Y643280D02*
X139700Y581000D01*
X280162Y596392D02*
X304800Y621030D01*
X304800Y647700D01*
X280162Y596392D02*
X261874Y596392D01*
X660400Y536600D02*
X661670Y535330D01*
X661670Y497840D01*
X309270Y565150D02*
X309270Y588010D01*
X309270Y565150D02*
X309270Y533400D01*
X309270Y504190D01*
X307492Y589788D02*
X261874Y589788D01*
X307492Y589788D02*
X309270Y588010D01*
X176378Y596392D02*
X168910Y603860D01*
X176378Y596392D02*
X218186Y596392D01*
X173838Y589788D02*
X168910Y584860D01*
X173838Y589788D02*
X218186Y589788D01*
X379070Y440690D02*
X381000Y438760D01*
X381000Y390500D01*
X379070Y440690D02*
X401980Y440690D01*
X393700Y387350D02*
X393700Y381000D01*
X393700Y387350D02*
X390550Y390500D01*
X381000Y390500D01*
X419100Y327000D02*
X458900Y327000D01*
X422300Y370000D02*
X404700Y370000D01*
X393700Y381000D01*
X422300Y341020D02*
X419100Y337820D01*
X419100Y327000D01*
X422300Y341020D02*
X422300Y370000D01*
X431800Y409600D02*
X444500Y422300D01*
X431800Y409600D02*
X431800Y392000D01*
X417400Y406400D01*
X393700Y406400D01*
D37*
X393700Y406400D03*
D38*
X328360Y343600D02*
X308500Y343600D01*
X329630Y342330D02*
X332868Y339092D01*
D37*
X352178Y390278D03*
D38*
X328360Y343600D02*
X329630Y342330D01*
X352178Y372992D02*
X352178Y390278D01*
X364617Y360553D02*
X364617Y346567D01*
X364617Y360553D02*
X352178Y372992D01*
X332868Y339092D02*
X334645Y337315D01*
X334645Y332375D01*
D37*
X334645Y332375D03*
X355600Y330200D03*
D38*
X364617Y339217D01*
X364617Y346567D01*
X441300Y370000D02*
X584630Y370000D01*
X712470Y497840D01*
X415290Y355600D02*
X396900Y355600D01*
D37*
X415290Y355600D03*
X431800Y355600D03*
D38*
X396900Y355600D02*
X381000Y371500D01*
X431800Y355600D02*
X436880Y355600D01*
X441300Y360020D02*
X441300Y370000D01*
X441300Y360020D02*
X436880Y355600D01*
X308540Y367640D02*
X308500Y367600D01*
X308540Y367640D02*
X341630Y367640D01*
X480900Y317500D02*
X490220Y317500D01*
X494030Y321310D01*
X494030Y335280D01*
X370452Y363738D02*
X370452Y389008D01*
X356870Y402590D01*
X347980Y402590D01*
X341630Y396240D01*
X341630Y367640D01*
X387480Y346710D02*
X415290Y346710D01*
D37*
X415290Y346710D03*
X431800Y346710D03*
D38*
X482600Y346710D02*
X494030Y335280D01*
X482600Y346710D02*
X431800Y346710D01*
X387480Y346710D02*
X370452Y363738D01*
X419100Y308000D02*
X458900Y308000D01*
X458900Y299290D01*
X461010Y297180D01*
X476891Y297180D01*
X498094Y318384D01*
X498094Y330200D01*
X533830Y365936D01*
X586313Y365936D01*
X700739Y480361D01*
X720391Y480361D01*
X730250Y490220D01*
X730250Y505460D01*
X721360Y514350D01*
X690880Y514350D01*
X687070Y510540D01*
X687070Y497840D01*
D39*
X557830Y626470D02*
X557830Y653410D01*
X557830Y626470D02*
X558190Y626110D01*
X537210Y626110D01*
D37*
X537210Y626110D03*
X596900Y609600D03*
D39*
X613410Y626110D01*
X617880Y626110D01*
X660400Y571500D02*
X660400Y555600D01*
D37*
X660400Y571500D03*
X622300Y596900D03*
D39*
X617880Y601320D01*
X617880Y626110D01*
X444500Y457200D02*
X444500Y441300D01*
D37*
X444500Y457200D03*
D39*
X443890Y440690D02*
X420980Y440690D01*
X443890Y440690D02*
X444500Y441300D01*
D37*
X355600Y533400D03*
D39*
X328270Y533400D01*
X558190Y612750D02*
X558190Y626110D01*
X574040Y596900D02*
X596900Y596900D01*
D37*
X596900Y596900D03*
D39*
X574040Y596900D02*
X558190Y612750D01*
D37*
X467360Y440690D03*
D39*
X445110Y440690D01*
X444500Y441300D01*
X317500Y482600D02*
X301600Y482600D01*
D37*
X317500Y482600D03*
X420370Y461010D03*
D39*
X420370Y441300D01*
X420980Y440690D01*
X219100Y546100D02*
X219100Y559460D01*
X224790Y565150D01*
D37*
X224790Y565150D03*
X292100Y618490D03*
D39*
X276352Y602742D01*
X261874Y602742D01*
D37*
X152400Y444500D03*
D39*
X163170Y433730D01*
X176530Y433730D01*
X177800Y432460D01*
X177800Y419100D01*
D37*
X177800Y419100D03*
X204970Y380230D03*
D39*
X209600Y375600D01*
X224900Y375600D01*
X308500Y351600D02*
X325310Y351600D01*
X328738Y348172D01*
X341162Y348172D02*
X341630Y348640D01*
X341162Y348172D02*
X328738Y348172D01*
X328270Y521310D02*
X328270Y533400D01*
X328270Y521310D02*
X325120Y518160D01*
D37*
X325120Y518160D03*
X193040Y433070D03*
D39*
X177190Y433070D01*
X176530Y433730D01*
X117250Y460150D02*
X117250Y474250D01*
X115100Y458000D02*
X65000Y458000D01*
X115100Y458000D02*
X117250Y460150D01*
D37*
X63500Y419100D03*
D39*
X328270Y533400D02*
X328270Y545490D01*
X325120Y548640D01*
X317500Y548640D01*
D37*
X317500Y548640D03*
D39*
X341630Y348640D02*
X357530Y348640D01*
X358140Y349250D01*
D37*
X358140Y349250D03*
X421640Y421640D03*
D39*
X420980Y422300D01*
X420980Y440690D01*
X171450Y348640D02*
X158140Y348640D01*
X152400Y342900D01*
D37*
X152400Y342900D03*
D39*
X171450Y348640D02*
X182880Y337210D01*
X182880Y330200D01*
D37*
X182880Y330200D03*
X351790Y316230D03*
D39*
X351790Y318770D01*
X341630Y328930D02*
X341630Y348640D01*
X341630Y328930D02*
X351790Y318770D01*
X63500Y419100D02*
X58420Y424180D01*
X65000Y446000D02*
X65000Y458000D01*
X58420Y439420D02*
X58420Y424180D01*
X58420Y439420D02*
X65000Y446000D01*
X207010Y546100D02*
X219100Y546100D01*
X207010Y546100D02*
X203200Y542290D01*
X203200Y520700D01*
M02*
