M48
;GenerationSoftware,Autodesk,EAGLE,9.6.2*%
;CreationDate,2020-11-11T21:08:53Z*%
FMAT,2
ICI,OFF
METRIC,TZ,000.000
T10C0.381
T9C0.490
T8C0.813
T7C0.900
T6C0.914
T5C1.000
T4C1.016
T3C2.000
T2C2.100
T1C3.048
%
G90
M71
T1
X17000Y14000
X67570Y90100
X67710Y13890
X14000Y90000
T2
X5640Y72800
X5640Y62200
X5650Y87530
X5650Y76930
T3
X66897Y40814
X43783Y19986
X43783Y40814
X66897Y19986
T4
X39960Y77170
X44880Y77170
T5
X12650Y84730
X12640Y70000
X12650Y79730
X68040Y26590
X68040Y31670
X68040Y34210
X68040Y29130
X12650Y82230
X12640Y67500
X12640Y65000
T6
X35590Y69950
X24550Y65150
X34500Y65110
X58450Y76170
X55340Y76080
X24870Y27520
X41520Y68520
X32470Y75520
T7
X18360Y45500
X15820Y45500
X18360Y50580
X18360Y48040
X15820Y50580
X15820Y48040
T8
X50130Y47550
X47590Y47550
X43130Y47550
X40590Y47550
T9
X66400Y75460
X66400Y79460
T10
X20690Y54400
X23610Y54500
X18020Y56530
X34570Y29570
X34860Y31780
X29690Y53600
X64170Y74030
X68590Y70630
X68210Y75990
X68230Y78960
X67000Y83000
X64000Y81000
X61610Y62370
X33000Y28000
X29650Y63570
X37040Y55710
X30480Y42020
X19280Y55040
X22590Y55630
X22620Y57540
X49410Y52750
X20640Y22450
X34490Y67510
X22350Y51080
X10900Y43490
X49340Y71630
X46940Y70560
X10920Y56330
X10770Y31650
X10560Y19530
X35140Y57480
X34000Y59000
X32610Y63440
X25000Y69000
X61000Y78740
X23670Y49970
X18540Y53080
X34290Y52480
X31000Y54000
X27130Y54530
X17755Y53755
X17126Y54383
X32890Y54220
X22000Y46000
X38000Y50202
X28222Y73070
X30000Y72768
X28220Y71170
X30000Y71879
M30