G04 EAGLE Gerber RS-274X export*
G75*
%MOMM*%
%FSLAX34Y34*%
%LPD*%
%INSoldermask Top*%
%IPPOS*%
%AMOC8*
5,1,8,0,0,1.08239X$1,22.5*%
G01*
%ADD10C,3.149600*%
%ADD11R,1.601600X1.401600*%
%ADD12R,1.401600X1.601600*%
%ADD13R,1.901600X2.501600*%
%ADD14C,1.727200*%
%ADD15R,1.901600X0.501600*%
%ADD16R,1.501600X1.601600*%
%ADD17R,1.601600X1.451600*%
%ADD18R,1.101600X1.201600*%
%ADD19C,0.591600*%
%ADD20P,2.199416X8X22.500000*%
%ADD21R,1.301600X1.301600*%
%ADD22C,1.609600*%
%ADD23C,3.217600*%
%ADD24R,1.101600X1.501600*%
%ADD25R,2.851600X1.101600*%
%ADD26R,1.701800X1.270000*%
%ADD27R,1.828800X0.152400*%
%ADD28C,1.778000*%
%ADD29R,1.609600X1.609600*%
%ADD30C,2.101600*%
%ADD31C,0.327659*%
%ADD32C,0.322197*%
%ADD33R,0.651600X1.701600*%
%ADD34R,1.701600X0.651600*%
%ADD35R,1.600200X0.533400*%
%ADD36P,1.814519X8X22.500000*%
%ADD37C,1.676400*%

G36*
X26792Y894720D02*
X26792Y894720D01*
X26835Y894732D01*
X26901Y894739D01*
X28584Y895190D01*
X28625Y895209D01*
X28688Y895228D01*
X30268Y895965D01*
X30305Y895991D01*
X30364Y896020D01*
X31792Y897020D01*
X31823Y897052D01*
X31876Y897091D01*
X33109Y898324D01*
X33134Y898360D01*
X33180Y898408D01*
X34180Y899836D01*
X34198Y899877D01*
X34235Y899932D01*
X34972Y901512D01*
X34983Y901555D01*
X35010Y901616D01*
X35461Y903299D01*
X35463Y903331D01*
X35470Y903352D01*
X35470Y903367D01*
X35480Y903408D01*
X35632Y905145D01*
X35628Y905189D01*
X35632Y905255D01*
X35480Y906992D01*
X35468Y907035D01*
X35461Y907101D01*
X35010Y908784D01*
X34991Y908825D01*
X34972Y908888D01*
X34235Y910468D01*
X34209Y910505D01*
X34180Y910564D01*
X33180Y911992D01*
X33148Y912023D01*
X33109Y912076D01*
X31876Y913309D01*
X31840Y913334D01*
X31792Y913380D01*
X30364Y914380D01*
X30323Y914398D01*
X30268Y914435D01*
X28688Y915172D01*
X28645Y915183D01*
X28584Y915210D01*
X26901Y915661D01*
X26856Y915664D01*
X26792Y915680D01*
X25055Y915832D01*
X25011Y915828D01*
X24945Y915832D01*
X23208Y915680D01*
X23165Y915668D01*
X23099Y915661D01*
X21416Y915210D01*
X21375Y915191D01*
X21312Y915172D01*
X19732Y914435D01*
X19695Y914409D01*
X19636Y914380D01*
X18208Y913380D01*
X18177Y913348D01*
X18124Y913309D01*
X16891Y912076D01*
X16866Y912040D01*
X16820Y911992D01*
X15820Y910564D01*
X15802Y910523D01*
X15765Y910468D01*
X15028Y908888D01*
X15017Y908845D01*
X14990Y908784D01*
X14539Y907101D01*
X14536Y907056D01*
X14520Y906992D01*
X14368Y905255D01*
X14372Y905211D01*
X14368Y905145D01*
X14520Y903408D01*
X14532Y903365D01*
X14536Y903331D01*
X14536Y903315D01*
X14538Y903310D01*
X14539Y903299D01*
X14990Y901616D01*
X15009Y901575D01*
X15028Y901512D01*
X15765Y899932D01*
X15791Y899895D01*
X15820Y899836D01*
X16820Y898408D01*
X16852Y898377D01*
X16891Y898324D01*
X18124Y897091D01*
X18160Y897066D01*
X18208Y897020D01*
X19636Y896020D01*
X19677Y896002D01*
X19732Y895965D01*
X21312Y895228D01*
X21355Y895217D01*
X21416Y895190D01*
X23099Y894739D01*
X23144Y894736D01*
X23208Y894720D01*
X24945Y894568D01*
X24989Y894572D01*
X25055Y894568D01*
X26792Y894720D01*
G37*
G36*
X641792Y136920D02*
X641792Y136920D01*
X641835Y136932D01*
X641901Y136939D01*
X643584Y137390D01*
X643625Y137409D01*
X643688Y137428D01*
X645268Y138165D01*
X645305Y138191D01*
X645364Y138220D01*
X646792Y139220D01*
X646823Y139252D01*
X646876Y139291D01*
X648109Y140524D01*
X648134Y140560D01*
X648180Y140608D01*
X649180Y142036D01*
X649198Y142077D01*
X649235Y142132D01*
X649972Y143712D01*
X649983Y143755D01*
X650010Y143816D01*
X650461Y145499D01*
X650463Y145531D01*
X650470Y145552D01*
X650470Y145567D01*
X650480Y145608D01*
X650632Y147345D01*
X650628Y147389D01*
X650632Y147455D01*
X650480Y149192D01*
X650468Y149235D01*
X650461Y149301D01*
X650010Y150984D01*
X649991Y151025D01*
X649972Y151088D01*
X649235Y152668D01*
X649209Y152705D01*
X649180Y152764D01*
X648180Y154192D01*
X648148Y154223D01*
X648109Y154276D01*
X646876Y155509D01*
X646840Y155534D01*
X646792Y155580D01*
X645364Y156580D01*
X645323Y156598D01*
X645268Y156635D01*
X643688Y157372D01*
X643645Y157383D01*
X643584Y157410D01*
X641901Y157861D01*
X641856Y157864D01*
X641792Y157880D01*
X640055Y158032D01*
X640011Y158028D01*
X639945Y158032D01*
X638208Y157880D01*
X638165Y157868D01*
X638099Y157861D01*
X636416Y157410D01*
X636375Y157391D01*
X636312Y157372D01*
X634732Y156635D01*
X634695Y156609D01*
X634636Y156580D01*
X633208Y155580D01*
X633177Y155548D01*
X633124Y155509D01*
X631891Y154276D01*
X631866Y154240D01*
X631820Y154192D01*
X630820Y152764D01*
X630802Y152723D01*
X630765Y152668D01*
X630028Y151088D01*
X630017Y151045D01*
X629990Y150984D01*
X629539Y149301D01*
X629536Y149256D01*
X629520Y149192D01*
X629368Y147455D01*
X629372Y147411D01*
X629368Y147345D01*
X629520Y145608D01*
X629532Y145565D01*
X629536Y145531D01*
X629536Y145515D01*
X629538Y145510D01*
X629539Y145499D01*
X629990Y143816D01*
X630009Y143775D01*
X630028Y143712D01*
X630765Y142132D01*
X630791Y142095D01*
X630820Y142036D01*
X631820Y140608D01*
X631852Y140577D01*
X631891Y140524D01*
X633124Y139291D01*
X633160Y139266D01*
X633208Y139220D01*
X634636Y138220D01*
X634677Y138202D01*
X634732Y138165D01*
X636312Y137428D01*
X636355Y137417D01*
X636416Y137390D01*
X638099Y136939D01*
X638144Y136936D01*
X638208Y136920D01*
X639945Y136768D01*
X639989Y136772D01*
X640055Y136768D01*
X641792Y136920D01*
G37*
G36*
X20892Y118720D02*
X20892Y118720D01*
X20935Y118732D01*
X21001Y118739D01*
X22684Y119190D01*
X22725Y119209D01*
X22788Y119228D01*
X24368Y119965D01*
X24405Y119991D01*
X24464Y120020D01*
X25892Y121020D01*
X25923Y121052D01*
X25976Y121091D01*
X27209Y122324D01*
X27234Y122360D01*
X27280Y122408D01*
X28280Y123836D01*
X28298Y123877D01*
X28335Y123932D01*
X29072Y125512D01*
X29083Y125555D01*
X29110Y125616D01*
X29561Y127299D01*
X29563Y127331D01*
X29570Y127352D01*
X29570Y127367D01*
X29580Y127408D01*
X29732Y129145D01*
X29728Y129189D01*
X29732Y129255D01*
X29580Y130992D01*
X29568Y131035D01*
X29561Y131101D01*
X29110Y132784D01*
X29091Y132825D01*
X29072Y132888D01*
X28335Y134468D01*
X28309Y134505D01*
X28280Y134564D01*
X27280Y135992D01*
X27248Y136023D01*
X27209Y136076D01*
X25976Y137309D01*
X25940Y137334D01*
X25892Y137380D01*
X24464Y138380D01*
X24423Y138398D01*
X24368Y138435D01*
X22788Y139172D01*
X22745Y139183D01*
X22684Y139210D01*
X21001Y139661D01*
X20956Y139664D01*
X20892Y139680D01*
X19155Y139832D01*
X19111Y139828D01*
X19045Y139832D01*
X17308Y139680D01*
X17265Y139668D01*
X17199Y139661D01*
X15516Y139210D01*
X15475Y139191D01*
X15412Y139172D01*
X13832Y138435D01*
X13795Y138409D01*
X13736Y138380D01*
X12308Y137380D01*
X12277Y137348D01*
X12224Y137309D01*
X10991Y136076D01*
X10966Y136040D01*
X10920Y135992D01*
X9920Y134564D01*
X9902Y134523D01*
X9865Y134468D01*
X9128Y132888D01*
X9117Y132845D01*
X9090Y132784D01*
X8639Y131101D01*
X8636Y131056D01*
X8620Y130992D01*
X8468Y129255D01*
X8472Y129211D01*
X8468Y129145D01*
X8620Y127408D01*
X8632Y127365D01*
X8636Y127331D01*
X8636Y127315D01*
X8638Y127310D01*
X8639Y127299D01*
X9090Y125616D01*
X9109Y125575D01*
X9128Y125512D01*
X9865Y123932D01*
X9891Y123895D01*
X9920Y123836D01*
X10920Y122408D01*
X10952Y122377D01*
X10991Y122324D01*
X12224Y121091D01*
X12260Y121066D01*
X12308Y121020D01*
X13736Y120020D01*
X13777Y120002D01*
X13832Y119965D01*
X15412Y119228D01*
X15455Y119217D01*
X15516Y119190D01*
X17199Y118739D01*
X17244Y118736D01*
X17308Y118720D01*
X19045Y118568D01*
X19089Y118572D01*
X19155Y118568D01*
X20892Y118720D01*
G37*
D10*
X140000Y900000D03*
X675700Y901000D03*
X170000Y140000D03*
X677100Y138900D03*
D11*
X109100Y400800D03*
X109100Y419800D03*
X109200Y529700D03*
X109200Y548700D03*
D12*
X202000Y526200D03*
X221000Y526200D03*
X450300Y725900D03*
X469300Y725900D03*
X351300Y558000D03*
X332300Y558000D03*
D11*
X109300Y278500D03*
X109300Y297500D03*
X109200Y157400D03*
X109200Y176400D03*
X629100Y768400D03*
X629100Y787400D03*
D13*
X471750Y532000D03*
X431250Y532000D03*
X431150Y564100D03*
X471650Y564100D03*
D14*
X158200Y480400D03*
X183600Y480400D03*
X183600Y505800D03*
X158200Y505800D03*
X158200Y455000D03*
X183600Y455000D03*
D15*
X656500Y787600D03*
X656500Y781100D03*
X656500Y774600D03*
X656500Y768100D03*
X656500Y761600D03*
D16*
X658500Y742100D03*
X658500Y807100D03*
D17*
X685500Y824600D03*
X685500Y724600D03*
D18*
X697000Y759600D03*
X697000Y789600D03*
D19*
X664000Y754600D03*
X664000Y794600D03*
D20*
X399600Y771700D03*
X448800Y771700D03*
D21*
X615900Y638100D03*
X615900Y659100D03*
D22*
X126400Y675000D03*
X126400Y650000D03*
X126400Y700000D03*
D23*
X56400Y622000D03*
X56400Y728000D03*
D22*
X126500Y822300D03*
X126500Y797300D03*
X126500Y847300D03*
D23*
X56500Y769300D03*
X56500Y875300D03*
D24*
X288900Y381000D03*
X298400Y359000D03*
X279400Y359000D03*
X339000Y381400D03*
X348500Y359400D03*
X329500Y359400D03*
D12*
X450400Y685200D03*
X469400Y685200D03*
X271300Y564200D03*
X252300Y564200D03*
X359500Y609900D03*
X340500Y609900D03*
D11*
X269300Y711700D03*
X269300Y730700D03*
X289100Y651200D03*
X289100Y670200D03*
D12*
X288700Y691000D03*
X269700Y691000D03*
X469400Y705600D03*
X450400Y705600D03*
X310100Y691000D03*
X329100Y691000D03*
D11*
X309700Y651200D03*
X309700Y670200D03*
D12*
X289000Y404700D03*
X308000Y404700D03*
X339100Y404700D03*
X358100Y404700D03*
D11*
X298400Y336800D03*
X298400Y317800D03*
X348600Y336800D03*
X348600Y317800D03*
X615600Y678400D03*
X615600Y697400D03*
D12*
X224900Y224400D03*
X243900Y224400D03*
X281400Y224400D03*
X300400Y224400D03*
X450400Y664800D03*
X469400Y664800D03*
D11*
X221900Y475400D03*
X221900Y494400D03*
D25*
X85150Y400900D03*
X27650Y400900D03*
X85150Y440900D03*
X27650Y440900D03*
X85250Y529600D03*
X27750Y529600D03*
X85250Y569600D03*
X27750Y569600D03*
X85350Y278500D03*
X27850Y278500D03*
X85350Y318500D03*
X27850Y318500D03*
X85250Y157400D03*
X27750Y157400D03*
X85250Y197400D03*
X27750Y197400D03*
D26*
X377600Y475480D03*
X377600Y490720D03*
D27*
X377600Y483100D03*
D28*
X584500Y761700D03*
X553400Y760800D03*
X248700Y275200D03*
X415200Y685200D03*
X345000Y651100D03*
X245500Y651500D03*
X324700Y755200D03*
X355900Y699500D03*
D29*
X680400Y342100D03*
D22*
X680400Y316700D03*
X680400Y291300D03*
X680400Y265900D03*
D30*
X668970Y408140D03*
X668970Y199860D03*
X437830Y199860D03*
X437830Y408140D03*
D31*
X290942Y569780D02*
X290942Y582520D01*
X290942Y569780D02*
X288758Y569780D01*
X288758Y582520D01*
X290942Y582520D01*
X290942Y572893D02*
X288758Y572893D01*
X288758Y576006D02*
X290942Y576006D01*
X290942Y579119D02*
X288758Y579119D01*
X288758Y582232D02*
X290942Y582232D01*
D32*
X297469Y582547D02*
X297469Y569753D01*
X295231Y569753D01*
X295231Y582547D01*
X297469Y582547D01*
X297469Y572814D02*
X295231Y572814D01*
X295231Y575875D02*
X297469Y575875D01*
X297469Y578936D02*
X295231Y578936D01*
X295231Y581997D02*
X297469Y581997D01*
X303969Y582547D02*
X303969Y569753D01*
X301731Y569753D01*
X301731Y582547D01*
X303969Y582547D01*
X303969Y572814D02*
X301731Y572814D01*
X301731Y575875D02*
X303969Y575875D01*
X303969Y578936D02*
X301731Y578936D01*
X301731Y581997D02*
X303969Y581997D01*
X310469Y582547D02*
X310469Y569753D01*
X308231Y569753D01*
X308231Y582547D01*
X310469Y582547D01*
X310469Y572814D02*
X308231Y572814D01*
X308231Y575875D02*
X310469Y575875D01*
X310469Y578936D02*
X308231Y578936D01*
X308231Y581997D02*
X310469Y581997D01*
X308231Y611853D02*
X308231Y624647D01*
X310469Y624647D01*
X310469Y611853D01*
X308231Y611853D01*
X308231Y614914D02*
X310469Y614914D01*
X310469Y617975D02*
X308231Y617975D01*
X308231Y621036D02*
X310469Y621036D01*
X310469Y624097D02*
X308231Y624097D01*
X301731Y624647D02*
X301731Y611853D01*
X301731Y624647D02*
X303969Y624647D01*
X303969Y611853D01*
X301731Y611853D01*
X301731Y614914D02*
X303969Y614914D01*
X303969Y617975D02*
X301731Y617975D01*
X301731Y621036D02*
X303969Y621036D01*
X303969Y624097D02*
X301731Y624097D01*
X295231Y624647D02*
X295231Y611853D01*
X295231Y624647D02*
X297469Y624647D01*
X297469Y611853D01*
X295231Y611853D01*
X295231Y614914D02*
X297469Y614914D01*
X297469Y617975D02*
X295231Y617975D01*
X295231Y621036D02*
X297469Y621036D01*
X297469Y624097D02*
X295231Y624097D01*
X288731Y624647D02*
X288731Y611853D01*
X288731Y624647D02*
X290969Y624647D01*
X290969Y611853D01*
X288731Y611853D01*
X288731Y614914D02*
X290969Y614914D01*
X290969Y617975D02*
X288731Y617975D01*
X288731Y621036D02*
X290969Y621036D01*
X290969Y624097D02*
X288731Y624097D01*
D33*
X272900Y437700D03*
X280900Y437700D03*
X288900Y437700D03*
X296900Y437700D03*
X304900Y437700D03*
X312900Y437700D03*
X320900Y437700D03*
X328900Y437700D03*
D34*
X342700Y451500D03*
X342700Y459500D03*
X342700Y467500D03*
X342700Y475500D03*
X342700Y483500D03*
X342700Y491500D03*
X342700Y499500D03*
X342700Y507500D03*
D33*
X328900Y521300D03*
X320900Y521300D03*
X312900Y521300D03*
X304900Y521300D03*
X296900Y521300D03*
X288900Y521300D03*
X280900Y521300D03*
X272900Y521300D03*
D34*
X259100Y507500D03*
X259100Y499500D03*
X259100Y491500D03*
X259100Y483500D03*
X259100Y475500D03*
X259100Y467500D03*
X259100Y459500D03*
X259100Y451500D03*
D35*
X367156Y734152D03*
X367156Y727802D03*
X367156Y721198D03*
X367156Y714848D03*
X410844Y714848D03*
X410844Y721198D03*
X410844Y727802D03*
X410844Y734152D03*
D36*
X501300Y475500D03*
D37*
X475900Y475500D03*
D36*
X431300Y475500D03*
D37*
X405900Y475500D03*
M02*
