M48
;GenerationSoftware,Autodesk,EAGLE,9.6.2*%
;CreationDate,2020-11-07T18:00:08Z*%
FMAT,2
ICI,OFF
METRIC,TZ,000.000
T10C0.381
T9C0.600
T8C0.813
T7C0.850
T6C0.900
T5C1.000
T4C1.016
T3C1.200
T2C2.000
T1C3.277
%
G90
M71
T1
X3302Y3302
X79248Y3302
X79248Y66548
X3302Y66548
T2
X57023Y48641
X77851Y48641
X77851Y25527
X57023Y25527
T3
X6500Y35480
X6500Y30480
X6500Y25480
X6500Y55800
X6500Y50800
X6500Y45800
T4
X30480Y64770
X26670Y64770
T5
X71247Y49784
X63627Y49784
X66167Y49784
X68707Y49784
T6
X20320Y52070
X22860Y49530
X22860Y52070
X20320Y49530
X25400Y49530
X25400Y52070
T7
X56983Y65341
X51983Y65341
T8
X57150Y58420
X57150Y55880
X40640Y58420
X40640Y55880
X44450Y54610
X52070Y59690
X44450Y59690
X52070Y54610
T9
X57983Y68041
X50983Y68041
T10
X59690Y60960
X66040Y57150
X62230Y59690
X44450Y45720
X35560Y53340
X59690Y59690
X46736Y44069
X31750Y48260
X42037Y46101
X22479Y56515
X29210Y61849
X20574Y35814
X17780Y41910
X20497Y38023
X32512Y51816
X19304Y43307
X6350Y41910
X31750Y54864
X35814Y34925
X42164Y42164
X15240Y34290
X18288Y33020
X35179Y31623
X15240Y44450
X23495Y65278
X33909Y43180
X68580Y60706
X59690Y64135
X36068Y56134
X13843Y53848
X12446Y53848
X5080Y17780
X19050Y17780
X33020Y17780
X46990Y17780
X32512Y35941
X55626Y12827
X41910Y12700
X27940Y12700
X13970Y12700
X13970Y68199
X11938Y68326
X34925Y51816
X17018Y47117
X19050Y38100
X19050Y35560
X19679Y38729
X19939Y34417
X53721Y62611
X26670Y43180
X25781Y30034
X12827Y67818
X15113Y67945
X39370Y40640
X35218Y39028
X33465Y33237
X35560Y33020
X41529Y35560
X43180Y35560
X41529Y34671
X43180Y34671
M30