G04 EAGLE Gerber RS-274X export*
G75*
%MOMM*%
%FSLAX34Y34*%
%LPD*%
%INSilkscreen Top*%
%IPPOS*%
%AMOC8*
5,1,8,0,0,1.08239X$1,22.5*%
G01*
%ADD10C,0.101600*%
%ADD11C,0.152400*%
%ADD12C,0.127000*%
%ADD13R,0.508000X2.032000*%
%ADD14R,0.635000X0.508000*%
%ADD15C,0.076200*%
%ADD16C,0.200000*%
%ADD17R,0.300000X0.150000*%
%ADD18R,0.300000X0.300000*%
%ADD19C,0.203200*%
%ADD20C,0.508000*%


D10*
X139192Y763336D02*
X139192Y760739D01*
X139190Y760640D01*
X139184Y760540D01*
X139175Y760441D01*
X139162Y760343D01*
X139145Y760245D01*
X139124Y760147D01*
X139099Y760051D01*
X139071Y759956D01*
X139039Y759862D01*
X139004Y759769D01*
X138965Y759677D01*
X138922Y759587D01*
X138877Y759499D01*
X138827Y759412D01*
X138775Y759328D01*
X138719Y759245D01*
X138661Y759165D01*
X138599Y759087D01*
X138534Y759012D01*
X138466Y758939D01*
X138396Y758869D01*
X138323Y758801D01*
X138248Y758736D01*
X138170Y758674D01*
X138090Y758616D01*
X138007Y758560D01*
X137923Y758508D01*
X137836Y758458D01*
X137748Y758413D01*
X137658Y758370D01*
X137566Y758331D01*
X137473Y758296D01*
X137379Y758264D01*
X137284Y758236D01*
X137188Y758211D01*
X137090Y758190D01*
X136992Y758173D01*
X136894Y758160D01*
X136795Y758151D01*
X136695Y758145D01*
X136596Y758143D01*
X130104Y758143D01*
X130104Y758142D02*
X130005Y758144D01*
X129905Y758150D01*
X129806Y758159D01*
X129708Y758172D01*
X129610Y758190D01*
X129512Y758210D01*
X129416Y758235D01*
X129320Y758263D01*
X129226Y758295D01*
X129133Y758330D01*
X129042Y758369D01*
X128952Y758412D01*
X128863Y758457D01*
X128777Y758507D01*
X128692Y758559D01*
X128610Y758615D01*
X128530Y758674D01*
X128452Y758735D01*
X128376Y758800D01*
X128303Y758868D01*
X128233Y758938D01*
X128165Y759011D01*
X128100Y759087D01*
X128039Y759165D01*
X127980Y759245D01*
X127924Y759327D01*
X127872Y759412D01*
X127823Y759498D01*
X127777Y759587D01*
X127734Y759677D01*
X127695Y759768D01*
X127660Y759861D01*
X127628Y759955D01*
X127600Y760051D01*
X127575Y760147D01*
X127555Y760245D01*
X127537Y760343D01*
X127524Y760441D01*
X127515Y760540D01*
X127509Y760639D01*
X127507Y760739D01*
X127508Y760739D02*
X127508Y763336D01*
X130104Y767701D02*
X127508Y770946D01*
X139192Y770946D01*
X139192Y767701D02*
X139192Y774192D01*
X609092Y561406D02*
X609092Y558809D01*
X609090Y558710D01*
X609084Y558610D01*
X609075Y558511D01*
X609062Y558413D01*
X609045Y558315D01*
X609024Y558217D01*
X608999Y558121D01*
X608971Y558026D01*
X608939Y557932D01*
X608904Y557839D01*
X608865Y557747D01*
X608822Y557657D01*
X608777Y557569D01*
X608727Y557482D01*
X608675Y557398D01*
X608619Y557315D01*
X608561Y557235D01*
X608499Y557157D01*
X608434Y557082D01*
X608366Y557009D01*
X608296Y556939D01*
X608223Y556871D01*
X608148Y556806D01*
X608070Y556744D01*
X607990Y556686D01*
X607907Y556630D01*
X607823Y556578D01*
X607736Y556528D01*
X607648Y556483D01*
X607558Y556440D01*
X607466Y556401D01*
X607373Y556366D01*
X607279Y556334D01*
X607184Y556306D01*
X607088Y556281D01*
X606990Y556260D01*
X606892Y556243D01*
X606794Y556230D01*
X606695Y556221D01*
X606595Y556215D01*
X606496Y556213D01*
X600004Y556213D01*
X600004Y556212D02*
X599905Y556214D01*
X599805Y556220D01*
X599706Y556229D01*
X599608Y556242D01*
X599510Y556260D01*
X599412Y556280D01*
X599316Y556305D01*
X599220Y556333D01*
X599126Y556365D01*
X599033Y556400D01*
X598942Y556439D01*
X598852Y556482D01*
X598763Y556527D01*
X598677Y556577D01*
X598592Y556629D01*
X598510Y556685D01*
X598430Y556744D01*
X598352Y556805D01*
X598276Y556870D01*
X598203Y556938D01*
X598133Y557008D01*
X598065Y557081D01*
X598000Y557157D01*
X597939Y557235D01*
X597880Y557315D01*
X597824Y557397D01*
X597772Y557482D01*
X597723Y557568D01*
X597677Y557657D01*
X597634Y557747D01*
X597595Y557838D01*
X597560Y557931D01*
X597528Y558025D01*
X597500Y558121D01*
X597475Y558217D01*
X597455Y558315D01*
X597437Y558413D01*
X597424Y558511D01*
X597415Y558610D01*
X597409Y558709D01*
X597407Y558809D01*
X597408Y558809D02*
X597408Y561406D01*
X600004Y565771D02*
X597408Y569016D01*
X609092Y569016D01*
X609092Y565771D02*
X609092Y572262D01*
X609092Y577201D02*
X609092Y580446D01*
X609090Y580559D01*
X609084Y580672D01*
X609074Y580785D01*
X609060Y580898D01*
X609043Y581010D01*
X609021Y581121D01*
X608996Y581231D01*
X608966Y581341D01*
X608933Y581449D01*
X608896Y581556D01*
X608856Y581662D01*
X608811Y581766D01*
X608763Y581869D01*
X608712Y581970D01*
X608657Y582069D01*
X608599Y582166D01*
X608537Y582261D01*
X608472Y582354D01*
X608404Y582444D01*
X608333Y582532D01*
X608258Y582618D01*
X608181Y582701D01*
X608101Y582781D01*
X608018Y582858D01*
X607932Y582933D01*
X607844Y583004D01*
X607754Y583072D01*
X607661Y583137D01*
X607566Y583199D01*
X607469Y583257D01*
X607370Y583312D01*
X607269Y583363D01*
X607166Y583411D01*
X607062Y583456D01*
X606956Y583496D01*
X606849Y583533D01*
X606741Y583566D01*
X606631Y583596D01*
X606521Y583621D01*
X606410Y583643D01*
X606298Y583660D01*
X606185Y583674D01*
X606072Y583684D01*
X605959Y583690D01*
X605846Y583692D01*
X605733Y583690D01*
X605620Y583684D01*
X605507Y583674D01*
X605394Y583660D01*
X605282Y583643D01*
X605171Y583621D01*
X605061Y583596D01*
X604951Y583566D01*
X604843Y583533D01*
X604736Y583496D01*
X604630Y583456D01*
X604526Y583411D01*
X604423Y583363D01*
X604322Y583312D01*
X604223Y583257D01*
X604126Y583199D01*
X604031Y583137D01*
X603938Y583072D01*
X603848Y583004D01*
X603760Y582933D01*
X603674Y582858D01*
X603591Y582781D01*
X603511Y582701D01*
X603434Y582618D01*
X603359Y582532D01*
X603288Y582444D01*
X603220Y582354D01*
X603155Y582261D01*
X603093Y582166D01*
X603035Y582069D01*
X602980Y581970D01*
X602929Y581869D01*
X602881Y581766D01*
X602836Y581662D01*
X602796Y581556D01*
X602759Y581449D01*
X602726Y581341D01*
X602696Y581231D01*
X602671Y581121D01*
X602649Y581010D01*
X602632Y580898D01*
X602618Y580785D01*
X602608Y580672D01*
X602602Y580559D01*
X602600Y580446D01*
X597408Y581096D02*
X597408Y577201D01*
X597408Y581096D02*
X597410Y581197D01*
X597416Y581297D01*
X597426Y581397D01*
X597439Y581497D01*
X597457Y581596D01*
X597478Y581695D01*
X597503Y581792D01*
X597532Y581889D01*
X597565Y581984D01*
X597601Y582078D01*
X597641Y582170D01*
X597684Y582261D01*
X597731Y582350D01*
X597781Y582437D01*
X597835Y582523D01*
X597892Y582606D01*
X597952Y582686D01*
X598015Y582765D01*
X598082Y582841D01*
X598151Y582914D01*
X598223Y582984D01*
X598297Y583052D01*
X598374Y583117D01*
X598454Y583178D01*
X598536Y583237D01*
X598620Y583292D01*
X598706Y583344D01*
X598794Y583393D01*
X598884Y583438D01*
X598976Y583480D01*
X599069Y583518D01*
X599164Y583552D01*
X599259Y583583D01*
X599356Y583610D01*
X599454Y583633D01*
X599553Y583653D01*
X599653Y583668D01*
X599753Y583680D01*
X599853Y583688D01*
X599954Y583692D01*
X600054Y583692D01*
X600155Y583688D01*
X600255Y583680D01*
X600355Y583668D01*
X600455Y583653D01*
X600554Y583633D01*
X600652Y583610D01*
X600749Y583583D01*
X600844Y583552D01*
X600939Y583518D01*
X601032Y583480D01*
X601124Y583438D01*
X601214Y583393D01*
X601302Y583344D01*
X601388Y583292D01*
X601472Y583237D01*
X601554Y583178D01*
X601634Y583117D01*
X601711Y583052D01*
X601785Y582984D01*
X601857Y582914D01*
X601926Y582841D01*
X601993Y582765D01*
X602056Y582686D01*
X602116Y582606D01*
X602173Y582523D01*
X602227Y582437D01*
X602277Y582350D01*
X602324Y582261D01*
X602367Y582170D01*
X602407Y582078D01*
X602443Y581984D01*
X602476Y581889D01*
X602505Y581792D01*
X602530Y581695D01*
X602551Y581596D01*
X602569Y581497D01*
X602582Y581397D01*
X602592Y581297D01*
X602598Y581197D01*
X602600Y581096D01*
X602601Y581096D02*
X602601Y578499D01*
D11*
X627380Y215900D02*
X631190Y215900D01*
X631190Y212090D01*
X631190Y215900D02*
X635000Y215900D01*
X631190Y215900D02*
X631190Y219710D01*
X619760Y203200D02*
X619768Y203886D01*
X619794Y204571D01*
X619836Y205255D01*
X619895Y205939D01*
X619970Y206620D01*
X620062Y207300D01*
X620171Y207977D01*
X620297Y208651D01*
X620439Y209322D01*
X620597Y209989D01*
X620772Y210652D01*
X620963Y211311D01*
X621170Y211964D01*
X621393Y212613D01*
X621632Y213255D01*
X621887Y213892D01*
X622157Y214522D01*
X622443Y215146D01*
X622743Y215762D01*
X623059Y216371D01*
X623390Y216972D01*
X623735Y217564D01*
X624095Y218148D01*
X624469Y218723D01*
X624857Y219288D01*
X625258Y219844D01*
X625674Y220390D01*
X626102Y220925D01*
X626544Y221450D01*
X626998Y221963D01*
X627465Y222466D01*
X627943Y222957D01*
X628434Y223435D01*
X628937Y223902D01*
X629450Y224356D01*
X629975Y224798D01*
X630510Y225226D01*
X631056Y225642D01*
X631612Y226043D01*
X632177Y226431D01*
X632752Y226805D01*
X633336Y227165D01*
X633928Y227510D01*
X634529Y227841D01*
X635138Y228157D01*
X635754Y228457D01*
X636378Y228743D01*
X637008Y229013D01*
X637645Y229268D01*
X638287Y229507D01*
X638936Y229730D01*
X639589Y229937D01*
X640248Y230128D01*
X640911Y230303D01*
X641578Y230461D01*
X642249Y230603D01*
X642923Y230729D01*
X643600Y230838D01*
X644280Y230930D01*
X644961Y231005D01*
X645645Y231064D01*
X646329Y231106D01*
X647014Y231132D01*
X647700Y231140D01*
X648386Y231132D01*
X649071Y231106D01*
X649755Y231064D01*
X650439Y231005D01*
X651120Y230930D01*
X651800Y230838D01*
X652477Y230729D01*
X653151Y230603D01*
X653822Y230461D01*
X654489Y230303D01*
X655152Y230128D01*
X655811Y229937D01*
X656464Y229730D01*
X657113Y229507D01*
X657755Y229268D01*
X658392Y229013D01*
X659022Y228743D01*
X659646Y228457D01*
X660262Y228157D01*
X660871Y227841D01*
X661472Y227510D01*
X662064Y227165D01*
X662648Y226805D01*
X663223Y226431D01*
X663788Y226043D01*
X664344Y225642D01*
X664890Y225226D01*
X665425Y224798D01*
X665950Y224356D01*
X666463Y223902D01*
X666966Y223435D01*
X667457Y222957D01*
X667935Y222466D01*
X668402Y221963D01*
X668856Y221450D01*
X669298Y220925D01*
X669726Y220390D01*
X670142Y219844D01*
X670543Y219288D01*
X670931Y218723D01*
X671305Y218148D01*
X671665Y217564D01*
X672010Y216972D01*
X672341Y216371D01*
X672657Y215762D01*
X672957Y215146D01*
X673243Y214522D01*
X673513Y213892D01*
X673768Y213255D01*
X674007Y212613D01*
X674230Y211964D01*
X674437Y211311D01*
X674628Y210652D01*
X674803Y209989D01*
X674961Y209322D01*
X675103Y208651D01*
X675229Y207977D01*
X675338Y207300D01*
X675430Y206620D01*
X675505Y205939D01*
X675564Y205255D01*
X675606Y204571D01*
X675632Y203886D01*
X675640Y203200D01*
X675632Y202514D01*
X675606Y201829D01*
X675564Y201145D01*
X675505Y200461D01*
X675430Y199780D01*
X675338Y199100D01*
X675229Y198423D01*
X675103Y197749D01*
X674961Y197078D01*
X674803Y196411D01*
X674628Y195748D01*
X674437Y195089D01*
X674230Y194436D01*
X674007Y193787D01*
X673768Y193145D01*
X673513Y192508D01*
X673243Y191878D01*
X672957Y191254D01*
X672657Y190638D01*
X672341Y190029D01*
X672010Y189428D01*
X671665Y188836D01*
X671305Y188252D01*
X670931Y187677D01*
X670543Y187112D01*
X670142Y186556D01*
X669726Y186010D01*
X669298Y185475D01*
X668856Y184950D01*
X668402Y184437D01*
X667935Y183934D01*
X667457Y183443D01*
X666966Y182965D01*
X666463Y182498D01*
X665950Y182044D01*
X665425Y181602D01*
X664890Y181174D01*
X664344Y180758D01*
X663788Y180357D01*
X663223Y179969D01*
X662648Y179595D01*
X662064Y179235D01*
X661472Y178890D01*
X660871Y178559D01*
X660262Y178243D01*
X659646Y177943D01*
X659022Y177657D01*
X658392Y177387D01*
X657755Y177132D01*
X657113Y176893D01*
X656464Y176670D01*
X655811Y176463D01*
X655152Y176272D01*
X654489Y176097D01*
X653822Y175939D01*
X653151Y175797D01*
X652477Y175671D01*
X651800Y175562D01*
X651120Y175470D01*
X650439Y175395D01*
X649755Y175336D01*
X649071Y175294D01*
X648386Y175268D01*
X647700Y175260D01*
X647014Y175268D01*
X646329Y175294D01*
X645645Y175336D01*
X644961Y175395D01*
X644280Y175470D01*
X643600Y175562D01*
X642923Y175671D01*
X642249Y175797D01*
X641578Y175939D01*
X640911Y176097D01*
X640248Y176272D01*
X639589Y176463D01*
X638936Y176670D01*
X638287Y176893D01*
X637645Y177132D01*
X637008Y177387D01*
X636378Y177657D01*
X635754Y177943D01*
X635138Y178243D01*
X634529Y178559D01*
X633928Y178890D01*
X633336Y179235D01*
X632752Y179595D01*
X632177Y179969D01*
X631612Y180357D01*
X631056Y180758D01*
X630510Y181174D01*
X629975Y181602D01*
X629450Y182044D01*
X628937Y182498D01*
X628434Y182965D01*
X627943Y183443D01*
X627465Y183934D01*
X626998Y184437D01*
X626544Y184950D01*
X626102Y185475D01*
X625674Y186010D01*
X625258Y186556D01*
X624857Y187112D01*
X624469Y187677D01*
X624095Y188252D01*
X623735Y188836D01*
X623390Y189428D01*
X623059Y190029D01*
X622743Y190638D01*
X622443Y191254D01*
X622157Y191878D01*
X621887Y192508D01*
X621632Y193145D01*
X621393Y193787D01*
X621170Y194436D01*
X620963Y195089D01*
X620772Y195748D01*
X620597Y196411D01*
X620439Y197078D01*
X620297Y197749D01*
X620171Y198423D01*
X620062Y199100D01*
X619970Y199780D01*
X619895Y200461D01*
X619836Y201145D01*
X619794Y201829D01*
X619768Y202514D01*
X619760Y203200D01*
D12*
X677545Y219075D02*
X680085Y219075D01*
X677545Y219075D02*
X677445Y219077D01*
X677346Y219083D01*
X677246Y219093D01*
X677148Y219106D01*
X677049Y219124D01*
X676952Y219145D01*
X676856Y219170D01*
X676760Y219199D01*
X676666Y219232D01*
X676573Y219268D01*
X676482Y219308D01*
X676392Y219352D01*
X676304Y219399D01*
X676218Y219449D01*
X676134Y219503D01*
X676052Y219560D01*
X675973Y219620D01*
X675895Y219684D01*
X675821Y219750D01*
X675749Y219819D01*
X675680Y219891D01*
X675614Y219965D01*
X675550Y220043D01*
X675490Y220122D01*
X675433Y220204D01*
X675379Y220288D01*
X675329Y220374D01*
X675282Y220462D01*
X675238Y220552D01*
X675198Y220643D01*
X675162Y220736D01*
X675129Y220830D01*
X675100Y220926D01*
X675075Y221022D01*
X675054Y221119D01*
X675036Y221218D01*
X675023Y221316D01*
X675013Y221416D01*
X675007Y221515D01*
X675005Y221615D01*
X675005Y227965D01*
X675007Y228065D01*
X675013Y228164D01*
X675023Y228264D01*
X675036Y228362D01*
X675054Y228461D01*
X675075Y228558D01*
X675100Y228654D01*
X675129Y228750D01*
X675162Y228844D01*
X675198Y228937D01*
X675238Y229028D01*
X675282Y229118D01*
X675329Y229206D01*
X675379Y229292D01*
X675433Y229376D01*
X675490Y229458D01*
X675550Y229537D01*
X675614Y229615D01*
X675680Y229689D01*
X675749Y229761D01*
X675821Y229830D01*
X675895Y229896D01*
X675973Y229960D01*
X676052Y230020D01*
X676134Y230077D01*
X676218Y230131D01*
X676304Y230181D01*
X676392Y230228D01*
X676482Y230272D01*
X676573Y230312D01*
X676666Y230348D01*
X676760Y230381D01*
X676856Y230410D01*
X676952Y230435D01*
X677049Y230456D01*
X677148Y230474D01*
X677246Y230487D01*
X677346Y230497D01*
X677445Y230503D01*
X677545Y230505D01*
X680085Y230505D01*
X684567Y227965D02*
X687742Y230505D01*
X687742Y219075D01*
X684567Y219075D02*
X690917Y219075D01*
X695997Y221615D02*
X698537Y230505D01*
X695997Y221615D02*
X702347Y221615D01*
X700442Y224155D02*
X700442Y219075D01*
D11*
X631190Y292100D02*
X627380Y292100D01*
X631190Y292100D02*
X631190Y288290D01*
X631190Y292100D02*
X635000Y292100D01*
X631190Y292100D02*
X631190Y295910D01*
X619760Y279400D02*
X619768Y280086D01*
X619794Y280771D01*
X619836Y281455D01*
X619895Y282139D01*
X619970Y282820D01*
X620062Y283500D01*
X620171Y284177D01*
X620297Y284851D01*
X620439Y285522D01*
X620597Y286189D01*
X620772Y286852D01*
X620963Y287511D01*
X621170Y288164D01*
X621393Y288813D01*
X621632Y289455D01*
X621887Y290092D01*
X622157Y290722D01*
X622443Y291346D01*
X622743Y291962D01*
X623059Y292571D01*
X623390Y293172D01*
X623735Y293764D01*
X624095Y294348D01*
X624469Y294923D01*
X624857Y295488D01*
X625258Y296044D01*
X625674Y296590D01*
X626102Y297125D01*
X626544Y297650D01*
X626998Y298163D01*
X627465Y298666D01*
X627943Y299157D01*
X628434Y299635D01*
X628937Y300102D01*
X629450Y300556D01*
X629975Y300998D01*
X630510Y301426D01*
X631056Y301842D01*
X631612Y302243D01*
X632177Y302631D01*
X632752Y303005D01*
X633336Y303365D01*
X633928Y303710D01*
X634529Y304041D01*
X635138Y304357D01*
X635754Y304657D01*
X636378Y304943D01*
X637008Y305213D01*
X637645Y305468D01*
X638287Y305707D01*
X638936Y305930D01*
X639589Y306137D01*
X640248Y306328D01*
X640911Y306503D01*
X641578Y306661D01*
X642249Y306803D01*
X642923Y306929D01*
X643600Y307038D01*
X644280Y307130D01*
X644961Y307205D01*
X645645Y307264D01*
X646329Y307306D01*
X647014Y307332D01*
X647700Y307340D01*
X648386Y307332D01*
X649071Y307306D01*
X649755Y307264D01*
X650439Y307205D01*
X651120Y307130D01*
X651800Y307038D01*
X652477Y306929D01*
X653151Y306803D01*
X653822Y306661D01*
X654489Y306503D01*
X655152Y306328D01*
X655811Y306137D01*
X656464Y305930D01*
X657113Y305707D01*
X657755Y305468D01*
X658392Y305213D01*
X659022Y304943D01*
X659646Y304657D01*
X660262Y304357D01*
X660871Y304041D01*
X661472Y303710D01*
X662064Y303365D01*
X662648Y303005D01*
X663223Y302631D01*
X663788Y302243D01*
X664344Y301842D01*
X664890Y301426D01*
X665425Y300998D01*
X665950Y300556D01*
X666463Y300102D01*
X666966Y299635D01*
X667457Y299157D01*
X667935Y298666D01*
X668402Y298163D01*
X668856Y297650D01*
X669298Y297125D01*
X669726Y296590D01*
X670142Y296044D01*
X670543Y295488D01*
X670931Y294923D01*
X671305Y294348D01*
X671665Y293764D01*
X672010Y293172D01*
X672341Y292571D01*
X672657Y291962D01*
X672957Y291346D01*
X673243Y290722D01*
X673513Y290092D01*
X673768Y289455D01*
X674007Y288813D01*
X674230Y288164D01*
X674437Y287511D01*
X674628Y286852D01*
X674803Y286189D01*
X674961Y285522D01*
X675103Y284851D01*
X675229Y284177D01*
X675338Y283500D01*
X675430Y282820D01*
X675505Y282139D01*
X675564Y281455D01*
X675606Y280771D01*
X675632Y280086D01*
X675640Y279400D01*
X675632Y278714D01*
X675606Y278029D01*
X675564Y277345D01*
X675505Y276661D01*
X675430Y275980D01*
X675338Y275300D01*
X675229Y274623D01*
X675103Y273949D01*
X674961Y273278D01*
X674803Y272611D01*
X674628Y271948D01*
X674437Y271289D01*
X674230Y270636D01*
X674007Y269987D01*
X673768Y269345D01*
X673513Y268708D01*
X673243Y268078D01*
X672957Y267454D01*
X672657Y266838D01*
X672341Y266229D01*
X672010Y265628D01*
X671665Y265036D01*
X671305Y264452D01*
X670931Y263877D01*
X670543Y263312D01*
X670142Y262756D01*
X669726Y262210D01*
X669298Y261675D01*
X668856Y261150D01*
X668402Y260637D01*
X667935Y260134D01*
X667457Y259643D01*
X666966Y259165D01*
X666463Y258698D01*
X665950Y258244D01*
X665425Y257802D01*
X664890Y257374D01*
X664344Y256958D01*
X663788Y256557D01*
X663223Y256169D01*
X662648Y255795D01*
X662064Y255435D01*
X661472Y255090D01*
X660871Y254759D01*
X660262Y254443D01*
X659646Y254143D01*
X659022Y253857D01*
X658392Y253587D01*
X657755Y253332D01*
X657113Y253093D01*
X656464Y252870D01*
X655811Y252663D01*
X655152Y252472D01*
X654489Y252297D01*
X653822Y252139D01*
X653151Y251997D01*
X652477Y251871D01*
X651800Y251762D01*
X651120Y251670D01*
X650439Y251595D01*
X649755Y251536D01*
X649071Y251494D01*
X648386Y251468D01*
X647700Y251460D01*
X647014Y251468D01*
X646329Y251494D01*
X645645Y251536D01*
X644961Y251595D01*
X644280Y251670D01*
X643600Y251762D01*
X642923Y251871D01*
X642249Y251997D01*
X641578Y252139D01*
X640911Y252297D01*
X640248Y252472D01*
X639589Y252663D01*
X638936Y252870D01*
X638287Y253093D01*
X637645Y253332D01*
X637008Y253587D01*
X636378Y253857D01*
X635754Y254143D01*
X635138Y254443D01*
X634529Y254759D01*
X633928Y255090D01*
X633336Y255435D01*
X632752Y255795D01*
X632177Y256169D01*
X631612Y256557D01*
X631056Y256958D01*
X630510Y257374D01*
X629975Y257802D01*
X629450Y258244D01*
X628937Y258698D01*
X628434Y259165D01*
X627943Y259643D01*
X627465Y260134D01*
X626998Y260637D01*
X626544Y261150D01*
X626102Y261675D01*
X625674Y262210D01*
X625258Y262756D01*
X624857Y263312D01*
X624469Y263877D01*
X624095Y264452D01*
X623735Y265036D01*
X623390Y265628D01*
X623059Y266229D01*
X622743Y266838D01*
X622443Y267454D01*
X622157Y268078D01*
X621887Y268708D01*
X621632Y269345D01*
X621393Y269987D01*
X621170Y270636D01*
X620963Y271289D01*
X620772Y271948D01*
X620597Y272611D01*
X620439Y273278D01*
X620297Y273949D01*
X620171Y274623D01*
X620062Y275300D01*
X619970Y275980D01*
X619895Y276661D01*
X619836Y277345D01*
X619794Y278029D01*
X619768Y278714D01*
X619760Y279400D01*
D12*
X677545Y295275D02*
X680085Y295275D01*
X677545Y295275D02*
X677445Y295277D01*
X677346Y295283D01*
X677246Y295293D01*
X677148Y295306D01*
X677049Y295324D01*
X676952Y295345D01*
X676856Y295370D01*
X676760Y295399D01*
X676666Y295432D01*
X676573Y295468D01*
X676482Y295508D01*
X676392Y295552D01*
X676304Y295599D01*
X676218Y295649D01*
X676134Y295703D01*
X676052Y295760D01*
X675973Y295820D01*
X675895Y295884D01*
X675821Y295950D01*
X675749Y296019D01*
X675680Y296091D01*
X675614Y296165D01*
X675550Y296243D01*
X675490Y296322D01*
X675433Y296404D01*
X675379Y296488D01*
X675329Y296574D01*
X675282Y296662D01*
X675238Y296752D01*
X675198Y296843D01*
X675162Y296936D01*
X675129Y297030D01*
X675100Y297126D01*
X675075Y297222D01*
X675054Y297319D01*
X675036Y297418D01*
X675023Y297516D01*
X675013Y297616D01*
X675007Y297715D01*
X675005Y297815D01*
X675005Y304165D01*
X675007Y304265D01*
X675013Y304364D01*
X675023Y304464D01*
X675036Y304562D01*
X675054Y304661D01*
X675075Y304758D01*
X675100Y304854D01*
X675129Y304950D01*
X675162Y305044D01*
X675198Y305137D01*
X675238Y305228D01*
X675282Y305318D01*
X675329Y305406D01*
X675379Y305492D01*
X675433Y305576D01*
X675490Y305658D01*
X675550Y305737D01*
X675614Y305815D01*
X675680Y305889D01*
X675749Y305961D01*
X675821Y306030D01*
X675895Y306096D01*
X675973Y306160D01*
X676052Y306220D01*
X676134Y306277D01*
X676218Y306331D01*
X676304Y306381D01*
X676392Y306428D01*
X676482Y306472D01*
X676573Y306512D01*
X676666Y306548D01*
X676760Y306581D01*
X676856Y306610D01*
X676952Y306635D01*
X677049Y306656D01*
X677148Y306674D01*
X677246Y306687D01*
X677346Y306697D01*
X677445Y306703D01*
X677545Y306705D01*
X680085Y306705D01*
X684567Y304165D02*
X687742Y306705D01*
X687742Y295275D01*
X684567Y295275D02*
X690917Y295275D01*
X695997Y295275D02*
X699807Y295275D01*
X699907Y295277D01*
X700006Y295283D01*
X700106Y295293D01*
X700204Y295306D01*
X700303Y295324D01*
X700400Y295345D01*
X700496Y295370D01*
X700592Y295399D01*
X700686Y295432D01*
X700779Y295468D01*
X700870Y295508D01*
X700960Y295552D01*
X701048Y295599D01*
X701134Y295649D01*
X701218Y295703D01*
X701300Y295760D01*
X701379Y295820D01*
X701457Y295884D01*
X701531Y295950D01*
X701603Y296019D01*
X701672Y296091D01*
X701738Y296165D01*
X701802Y296243D01*
X701862Y296322D01*
X701919Y296404D01*
X701973Y296488D01*
X702023Y296574D01*
X702070Y296662D01*
X702114Y296752D01*
X702154Y296843D01*
X702190Y296936D01*
X702223Y297030D01*
X702252Y297126D01*
X702277Y297222D01*
X702298Y297319D01*
X702316Y297418D01*
X702329Y297516D01*
X702339Y297616D01*
X702345Y297715D01*
X702347Y297815D01*
X702347Y299085D01*
X702345Y299185D01*
X702339Y299284D01*
X702329Y299384D01*
X702316Y299482D01*
X702298Y299581D01*
X702277Y299678D01*
X702252Y299774D01*
X702223Y299870D01*
X702190Y299964D01*
X702154Y300057D01*
X702114Y300148D01*
X702070Y300238D01*
X702023Y300326D01*
X701973Y300412D01*
X701919Y300496D01*
X701862Y300578D01*
X701802Y300657D01*
X701738Y300735D01*
X701672Y300809D01*
X701603Y300881D01*
X701531Y300950D01*
X701457Y301016D01*
X701379Y301080D01*
X701300Y301140D01*
X701218Y301197D01*
X701134Y301251D01*
X701048Y301301D01*
X700960Y301348D01*
X700870Y301392D01*
X700779Y301432D01*
X700686Y301468D01*
X700592Y301501D01*
X700496Y301530D01*
X700400Y301555D01*
X700303Y301576D01*
X700204Y301594D01*
X700106Y301607D01*
X700006Y301617D01*
X699907Y301623D01*
X699807Y301625D01*
X695997Y301625D01*
X695997Y306705D01*
X702347Y306705D01*
D10*
X405892Y457209D02*
X405892Y459806D01*
X405892Y457209D02*
X405890Y457110D01*
X405884Y457010D01*
X405875Y456911D01*
X405862Y456813D01*
X405845Y456715D01*
X405824Y456617D01*
X405799Y456521D01*
X405771Y456426D01*
X405739Y456332D01*
X405704Y456239D01*
X405665Y456147D01*
X405622Y456057D01*
X405577Y455969D01*
X405527Y455882D01*
X405475Y455798D01*
X405419Y455715D01*
X405361Y455635D01*
X405299Y455557D01*
X405234Y455482D01*
X405166Y455409D01*
X405096Y455339D01*
X405023Y455271D01*
X404948Y455206D01*
X404870Y455144D01*
X404790Y455086D01*
X404707Y455030D01*
X404623Y454978D01*
X404536Y454928D01*
X404448Y454883D01*
X404358Y454840D01*
X404266Y454801D01*
X404173Y454766D01*
X404079Y454734D01*
X403984Y454706D01*
X403888Y454681D01*
X403790Y454660D01*
X403692Y454643D01*
X403594Y454630D01*
X403495Y454621D01*
X403395Y454615D01*
X403296Y454613D01*
X396804Y454613D01*
X396804Y454612D02*
X396705Y454614D01*
X396605Y454620D01*
X396506Y454629D01*
X396408Y454642D01*
X396310Y454660D01*
X396212Y454680D01*
X396116Y454705D01*
X396020Y454733D01*
X395926Y454765D01*
X395833Y454800D01*
X395742Y454839D01*
X395652Y454882D01*
X395563Y454927D01*
X395477Y454977D01*
X395392Y455029D01*
X395310Y455085D01*
X395230Y455144D01*
X395152Y455205D01*
X395076Y455270D01*
X395003Y455338D01*
X394933Y455408D01*
X394865Y455481D01*
X394800Y455557D01*
X394739Y455635D01*
X394680Y455715D01*
X394624Y455797D01*
X394572Y455882D01*
X394523Y455968D01*
X394477Y456057D01*
X394434Y456147D01*
X394395Y456238D01*
X394360Y456331D01*
X394328Y456425D01*
X394300Y456521D01*
X394275Y456617D01*
X394255Y456715D01*
X394237Y456813D01*
X394224Y456911D01*
X394215Y457010D01*
X394209Y457109D01*
X394207Y457209D01*
X394208Y457209D02*
X394208Y459806D01*
X396804Y464171D02*
X394208Y467416D01*
X405892Y467416D01*
X405892Y464171D02*
X405892Y470662D01*
X399401Y475601D02*
X399401Y479496D01*
X399403Y479595D01*
X399409Y479695D01*
X399418Y479794D01*
X399431Y479892D01*
X399448Y479990D01*
X399469Y480088D01*
X399494Y480184D01*
X399522Y480279D01*
X399554Y480373D01*
X399589Y480466D01*
X399628Y480558D01*
X399671Y480648D01*
X399716Y480736D01*
X399766Y480823D01*
X399818Y480907D01*
X399874Y480990D01*
X399932Y481070D01*
X399994Y481148D01*
X400059Y481223D01*
X400127Y481296D01*
X400197Y481366D01*
X400270Y481434D01*
X400345Y481499D01*
X400423Y481561D01*
X400503Y481619D01*
X400586Y481675D01*
X400670Y481727D01*
X400757Y481777D01*
X400845Y481822D01*
X400935Y481865D01*
X401027Y481904D01*
X401120Y481939D01*
X401214Y481971D01*
X401309Y481999D01*
X401405Y482024D01*
X401503Y482045D01*
X401601Y482062D01*
X401699Y482075D01*
X401798Y482084D01*
X401898Y482090D01*
X401997Y482092D01*
X402646Y482092D01*
X402759Y482090D01*
X402872Y482084D01*
X402985Y482074D01*
X403098Y482060D01*
X403210Y482043D01*
X403321Y482021D01*
X403431Y481996D01*
X403541Y481966D01*
X403649Y481933D01*
X403756Y481896D01*
X403862Y481856D01*
X403966Y481811D01*
X404069Y481763D01*
X404170Y481712D01*
X404269Y481657D01*
X404366Y481599D01*
X404461Y481537D01*
X404554Y481472D01*
X404644Y481404D01*
X404732Y481333D01*
X404818Y481258D01*
X404901Y481181D01*
X404981Y481101D01*
X405058Y481018D01*
X405133Y480932D01*
X405204Y480844D01*
X405272Y480754D01*
X405337Y480661D01*
X405399Y480566D01*
X405457Y480469D01*
X405512Y480370D01*
X405563Y480269D01*
X405611Y480166D01*
X405656Y480062D01*
X405696Y479956D01*
X405733Y479849D01*
X405766Y479741D01*
X405796Y479631D01*
X405821Y479521D01*
X405843Y479410D01*
X405860Y479298D01*
X405874Y479185D01*
X405884Y479072D01*
X405890Y478959D01*
X405892Y478846D01*
X405890Y478733D01*
X405884Y478620D01*
X405874Y478507D01*
X405860Y478394D01*
X405843Y478282D01*
X405821Y478171D01*
X405796Y478061D01*
X405766Y477951D01*
X405733Y477843D01*
X405696Y477736D01*
X405656Y477630D01*
X405611Y477526D01*
X405563Y477423D01*
X405512Y477322D01*
X405457Y477223D01*
X405399Y477126D01*
X405337Y477031D01*
X405272Y476938D01*
X405204Y476848D01*
X405133Y476760D01*
X405058Y476674D01*
X404981Y476591D01*
X404901Y476511D01*
X404818Y476434D01*
X404732Y476359D01*
X404644Y476288D01*
X404554Y476220D01*
X404461Y476155D01*
X404366Y476093D01*
X404269Y476035D01*
X404170Y475980D01*
X404069Y475929D01*
X403966Y475881D01*
X403862Y475836D01*
X403756Y475796D01*
X403649Y475759D01*
X403541Y475726D01*
X403431Y475696D01*
X403321Y475671D01*
X403210Y475649D01*
X403098Y475632D01*
X402985Y475618D01*
X402872Y475608D01*
X402759Y475602D01*
X402646Y475600D01*
X402646Y475601D02*
X399401Y475601D01*
X399258Y475603D01*
X399115Y475609D01*
X398972Y475619D01*
X398830Y475633D01*
X398688Y475650D01*
X398546Y475672D01*
X398405Y475697D01*
X398265Y475727D01*
X398126Y475760D01*
X397988Y475797D01*
X397851Y475838D01*
X397715Y475882D01*
X397580Y475931D01*
X397447Y475983D01*
X397315Y476038D01*
X397185Y476098D01*
X397056Y476161D01*
X396929Y476227D01*
X396805Y476297D01*
X396682Y476370D01*
X396561Y476447D01*
X396442Y476526D01*
X396326Y476610D01*
X396211Y476696D01*
X396100Y476785D01*
X395991Y476878D01*
X395884Y476973D01*
X395780Y477072D01*
X395679Y477173D01*
X395580Y477277D01*
X395485Y477383D01*
X395392Y477493D01*
X395303Y477604D01*
X395217Y477718D01*
X395134Y477835D01*
X395054Y477954D01*
X394977Y478075D01*
X394904Y478197D01*
X394834Y478322D01*
X394768Y478449D01*
X394705Y478578D01*
X394645Y478708D01*
X394590Y478840D01*
X394538Y478973D01*
X394489Y479108D01*
X394445Y479244D01*
X394404Y479381D01*
X394367Y479519D01*
X394334Y479658D01*
X394304Y479798D01*
X394279Y479939D01*
X394257Y480081D01*
X394240Y480223D01*
X394226Y480365D01*
X394216Y480508D01*
X394210Y480651D01*
X394208Y480794D01*
X139192Y621039D02*
X139192Y623636D01*
X139192Y621039D02*
X139190Y620940D01*
X139184Y620840D01*
X139175Y620741D01*
X139162Y620643D01*
X139145Y620545D01*
X139124Y620447D01*
X139099Y620351D01*
X139071Y620256D01*
X139039Y620162D01*
X139004Y620069D01*
X138965Y619977D01*
X138922Y619887D01*
X138877Y619799D01*
X138827Y619712D01*
X138775Y619628D01*
X138719Y619545D01*
X138661Y619465D01*
X138599Y619387D01*
X138534Y619312D01*
X138466Y619239D01*
X138396Y619169D01*
X138323Y619101D01*
X138248Y619036D01*
X138170Y618974D01*
X138090Y618916D01*
X138007Y618860D01*
X137923Y618808D01*
X137836Y618758D01*
X137748Y618713D01*
X137658Y618670D01*
X137566Y618631D01*
X137473Y618596D01*
X137379Y618564D01*
X137284Y618536D01*
X137188Y618511D01*
X137090Y618490D01*
X136992Y618473D01*
X136894Y618460D01*
X136795Y618451D01*
X136695Y618445D01*
X136596Y618443D01*
X130104Y618443D01*
X130104Y618442D02*
X130005Y618444D01*
X129905Y618450D01*
X129806Y618459D01*
X129708Y618472D01*
X129610Y618490D01*
X129512Y618510D01*
X129416Y618535D01*
X129320Y618563D01*
X129226Y618595D01*
X129133Y618630D01*
X129042Y618669D01*
X128952Y618712D01*
X128863Y618757D01*
X128777Y618807D01*
X128692Y618859D01*
X128610Y618915D01*
X128530Y618974D01*
X128452Y619035D01*
X128376Y619100D01*
X128303Y619168D01*
X128233Y619238D01*
X128165Y619311D01*
X128100Y619387D01*
X128039Y619465D01*
X127980Y619545D01*
X127924Y619627D01*
X127872Y619712D01*
X127823Y619798D01*
X127777Y619887D01*
X127734Y619977D01*
X127695Y620068D01*
X127660Y620161D01*
X127628Y620255D01*
X127600Y620351D01*
X127575Y620447D01*
X127555Y620545D01*
X127537Y620643D01*
X127524Y620741D01*
X127515Y620840D01*
X127509Y620939D01*
X127507Y621039D01*
X127508Y621039D02*
X127508Y623636D01*
X127508Y631571D02*
X127510Y631678D01*
X127516Y631784D01*
X127526Y631890D01*
X127539Y631996D01*
X127557Y632102D01*
X127578Y632206D01*
X127603Y632310D01*
X127632Y632413D01*
X127664Y632514D01*
X127701Y632614D01*
X127741Y632713D01*
X127784Y632811D01*
X127831Y632907D01*
X127882Y633001D01*
X127936Y633093D01*
X127993Y633183D01*
X128053Y633271D01*
X128117Y633356D01*
X128184Y633439D01*
X128254Y633520D01*
X128326Y633598D01*
X128402Y633674D01*
X128480Y633746D01*
X128561Y633816D01*
X128644Y633883D01*
X128729Y633947D01*
X128817Y634007D01*
X128907Y634064D01*
X128999Y634118D01*
X129093Y634169D01*
X129189Y634216D01*
X129287Y634259D01*
X129386Y634299D01*
X129486Y634336D01*
X129587Y634368D01*
X129690Y634397D01*
X129794Y634422D01*
X129898Y634443D01*
X130004Y634461D01*
X130110Y634474D01*
X130216Y634484D01*
X130322Y634490D01*
X130429Y634492D01*
X127508Y631571D02*
X127510Y631450D01*
X127516Y631329D01*
X127526Y631209D01*
X127539Y631088D01*
X127557Y630969D01*
X127578Y630849D01*
X127603Y630731D01*
X127632Y630614D01*
X127665Y630497D01*
X127701Y630382D01*
X127742Y630268D01*
X127785Y630155D01*
X127833Y630043D01*
X127884Y629934D01*
X127939Y629826D01*
X127997Y629719D01*
X128058Y629615D01*
X128123Y629513D01*
X128191Y629413D01*
X128262Y629315D01*
X128336Y629219D01*
X128413Y629126D01*
X128494Y629036D01*
X128577Y628948D01*
X128663Y628863D01*
X128752Y628780D01*
X128843Y628701D01*
X128937Y628624D01*
X129033Y628551D01*
X129131Y628481D01*
X129232Y628414D01*
X129335Y628350D01*
X129440Y628290D01*
X129547Y628232D01*
X129655Y628179D01*
X129765Y628129D01*
X129877Y628083D01*
X129990Y628040D01*
X130105Y628001D01*
X132701Y633518D02*
X132623Y633597D01*
X132543Y633673D01*
X132460Y633746D01*
X132374Y633816D01*
X132287Y633883D01*
X132196Y633947D01*
X132104Y634007D01*
X132010Y634065D01*
X131913Y634119D01*
X131815Y634169D01*
X131715Y634216D01*
X131614Y634260D01*
X131511Y634300D01*
X131406Y634336D01*
X131301Y634368D01*
X131194Y634397D01*
X131087Y634422D01*
X130978Y634444D01*
X130869Y634461D01*
X130760Y634475D01*
X130650Y634484D01*
X130539Y634490D01*
X130429Y634492D01*
X132701Y633518D02*
X139192Y628001D01*
X139192Y634492D01*
X139192Y483936D02*
X139192Y481339D01*
X139190Y481240D01*
X139184Y481140D01*
X139175Y481041D01*
X139162Y480943D01*
X139145Y480845D01*
X139124Y480747D01*
X139099Y480651D01*
X139071Y480556D01*
X139039Y480462D01*
X139004Y480369D01*
X138965Y480277D01*
X138922Y480187D01*
X138877Y480099D01*
X138827Y480012D01*
X138775Y479928D01*
X138719Y479845D01*
X138661Y479765D01*
X138599Y479687D01*
X138534Y479612D01*
X138466Y479539D01*
X138396Y479469D01*
X138323Y479401D01*
X138248Y479336D01*
X138170Y479274D01*
X138090Y479216D01*
X138007Y479160D01*
X137923Y479108D01*
X137836Y479058D01*
X137748Y479013D01*
X137658Y478970D01*
X137566Y478931D01*
X137473Y478896D01*
X137379Y478864D01*
X137284Y478836D01*
X137188Y478811D01*
X137090Y478790D01*
X136992Y478773D01*
X136894Y478760D01*
X136795Y478751D01*
X136695Y478745D01*
X136596Y478743D01*
X130104Y478743D01*
X130104Y478742D02*
X130005Y478744D01*
X129905Y478750D01*
X129806Y478759D01*
X129708Y478772D01*
X129610Y478790D01*
X129512Y478810D01*
X129416Y478835D01*
X129320Y478863D01*
X129226Y478895D01*
X129133Y478930D01*
X129042Y478969D01*
X128952Y479012D01*
X128863Y479057D01*
X128777Y479107D01*
X128692Y479159D01*
X128610Y479215D01*
X128530Y479274D01*
X128452Y479335D01*
X128376Y479400D01*
X128303Y479468D01*
X128233Y479538D01*
X128165Y479611D01*
X128100Y479687D01*
X128039Y479765D01*
X127980Y479845D01*
X127924Y479927D01*
X127872Y480012D01*
X127823Y480098D01*
X127777Y480187D01*
X127734Y480277D01*
X127695Y480368D01*
X127660Y480461D01*
X127628Y480555D01*
X127600Y480651D01*
X127575Y480747D01*
X127555Y480845D01*
X127537Y480943D01*
X127524Y481041D01*
X127515Y481140D01*
X127509Y481239D01*
X127507Y481339D01*
X127508Y481339D02*
X127508Y483936D01*
X139192Y488301D02*
X139192Y491546D01*
X139190Y491659D01*
X139184Y491772D01*
X139174Y491885D01*
X139160Y491998D01*
X139143Y492110D01*
X139121Y492221D01*
X139096Y492331D01*
X139066Y492441D01*
X139033Y492549D01*
X138996Y492656D01*
X138956Y492762D01*
X138911Y492866D01*
X138863Y492969D01*
X138812Y493070D01*
X138757Y493169D01*
X138699Y493266D01*
X138637Y493361D01*
X138572Y493454D01*
X138504Y493544D01*
X138433Y493632D01*
X138358Y493718D01*
X138281Y493801D01*
X138201Y493881D01*
X138118Y493958D01*
X138032Y494033D01*
X137944Y494104D01*
X137854Y494172D01*
X137761Y494237D01*
X137666Y494299D01*
X137569Y494357D01*
X137470Y494412D01*
X137369Y494463D01*
X137266Y494511D01*
X137162Y494556D01*
X137056Y494596D01*
X136949Y494633D01*
X136841Y494666D01*
X136731Y494696D01*
X136621Y494721D01*
X136510Y494743D01*
X136398Y494760D01*
X136285Y494774D01*
X136172Y494784D01*
X136059Y494790D01*
X135946Y494792D01*
X135833Y494790D01*
X135720Y494784D01*
X135607Y494774D01*
X135494Y494760D01*
X135382Y494743D01*
X135271Y494721D01*
X135161Y494696D01*
X135051Y494666D01*
X134943Y494633D01*
X134836Y494596D01*
X134730Y494556D01*
X134626Y494511D01*
X134523Y494463D01*
X134422Y494412D01*
X134323Y494357D01*
X134226Y494299D01*
X134131Y494237D01*
X134038Y494172D01*
X133948Y494104D01*
X133860Y494033D01*
X133774Y493958D01*
X133691Y493881D01*
X133611Y493801D01*
X133534Y493718D01*
X133459Y493632D01*
X133388Y493544D01*
X133320Y493454D01*
X133255Y493361D01*
X133193Y493266D01*
X133135Y493169D01*
X133080Y493070D01*
X133029Y492969D01*
X132981Y492866D01*
X132936Y492762D01*
X132896Y492656D01*
X132859Y492549D01*
X132826Y492441D01*
X132796Y492331D01*
X132771Y492221D01*
X132749Y492110D01*
X132732Y491998D01*
X132718Y491885D01*
X132708Y491772D01*
X132702Y491659D01*
X132700Y491546D01*
X127508Y492196D02*
X127508Y488301D01*
X127508Y492196D02*
X127510Y492297D01*
X127516Y492397D01*
X127526Y492497D01*
X127539Y492597D01*
X127557Y492696D01*
X127578Y492795D01*
X127603Y492892D01*
X127632Y492989D01*
X127665Y493084D01*
X127701Y493178D01*
X127741Y493270D01*
X127784Y493361D01*
X127831Y493450D01*
X127881Y493537D01*
X127935Y493623D01*
X127992Y493706D01*
X128052Y493786D01*
X128115Y493865D01*
X128182Y493941D01*
X128251Y494014D01*
X128323Y494084D01*
X128397Y494152D01*
X128474Y494217D01*
X128554Y494278D01*
X128636Y494337D01*
X128720Y494392D01*
X128806Y494444D01*
X128894Y494493D01*
X128984Y494538D01*
X129076Y494580D01*
X129169Y494618D01*
X129264Y494652D01*
X129359Y494683D01*
X129456Y494710D01*
X129554Y494733D01*
X129653Y494753D01*
X129753Y494768D01*
X129853Y494780D01*
X129953Y494788D01*
X130054Y494792D01*
X130154Y494792D01*
X130255Y494788D01*
X130355Y494780D01*
X130455Y494768D01*
X130555Y494753D01*
X130654Y494733D01*
X130752Y494710D01*
X130849Y494683D01*
X130944Y494652D01*
X131039Y494618D01*
X131132Y494580D01*
X131224Y494538D01*
X131314Y494493D01*
X131402Y494444D01*
X131488Y494392D01*
X131572Y494337D01*
X131654Y494278D01*
X131734Y494217D01*
X131811Y494152D01*
X131885Y494084D01*
X131957Y494014D01*
X132026Y493941D01*
X132093Y493865D01*
X132156Y493786D01*
X132216Y493706D01*
X132273Y493623D01*
X132327Y493537D01*
X132377Y493450D01*
X132424Y493361D01*
X132467Y493270D01*
X132507Y493178D01*
X132543Y493084D01*
X132576Y492989D01*
X132605Y492892D01*
X132630Y492795D01*
X132651Y492696D01*
X132669Y492597D01*
X132682Y492497D01*
X132692Y492397D01*
X132698Y492297D01*
X132700Y492196D01*
X132701Y492196D02*
X132701Y489599D01*
X139192Y900439D02*
X139192Y903036D01*
X139192Y900439D02*
X139190Y900340D01*
X139184Y900240D01*
X139175Y900141D01*
X139162Y900043D01*
X139145Y899945D01*
X139124Y899847D01*
X139099Y899751D01*
X139071Y899656D01*
X139039Y899562D01*
X139004Y899469D01*
X138965Y899377D01*
X138922Y899287D01*
X138877Y899199D01*
X138827Y899112D01*
X138775Y899028D01*
X138719Y898945D01*
X138661Y898865D01*
X138599Y898787D01*
X138534Y898712D01*
X138466Y898639D01*
X138396Y898569D01*
X138323Y898501D01*
X138248Y898436D01*
X138170Y898374D01*
X138090Y898316D01*
X138007Y898260D01*
X137923Y898208D01*
X137836Y898158D01*
X137748Y898113D01*
X137658Y898070D01*
X137566Y898031D01*
X137473Y897996D01*
X137379Y897964D01*
X137284Y897936D01*
X137188Y897911D01*
X137090Y897890D01*
X136992Y897873D01*
X136894Y897860D01*
X136795Y897851D01*
X136695Y897845D01*
X136596Y897843D01*
X130104Y897843D01*
X130104Y897842D02*
X130005Y897844D01*
X129905Y897850D01*
X129806Y897859D01*
X129708Y897872D01*
X129610Y897890D01*
X129512Y897910D01*
X129416Y897935D01*
X129320Y897963D01*
X129226Y897995D01*
X129133Y898030D01*
X129042Y898069D01*
X128952Y898112D01*
X128863Y898157D01*
X128777Y898207D01*
X128692Y898259D01*
X128610Y898315D01*
X128530Y898374D01*
X128452Y898435D01*
X128376Y898500D01*
X128303Y898568D01*
X128233Y898638D01*
X128165Y898711D01*
X128100Y898787D01*
X128039Y898865D01*
X127980Y898945D01*
X127924Y899027D01*
X127872Y899112D01*
X127823Y899198D01*
X127777Y899287D01*
X127734Y899377D01*
X127695Y899468D01*
X127660Y899561D01*
X127628Y899655D01*
X127600Y899751D01*
X127575Y899847D01*
X127555Y899945D01*
X127537Y900043D01*
X127524Y900141D01*
X127515Y900240D01*
X127509Y900339D01*
X127507Y900439D01*
X127508Y900439D02*
X127508Y903036D01*
X127508Y909997D02*
X136596Y907401D01*
X136596Y913892D01*
X133999Y911945D02*
X139192Y911945D01*
D11*
X387350Y152400D02*
X393700Y152400D01*
X403860Y158750D02*
X403860Y146050D01*
X393700Y152400D01*
X408940Y152400D01*
X403860Y158750D02*
X393700Y152400D01*
X393700Y158750D01*
X393700Y152400D02*
X393700Y146050D01*
X414020Y162560D02*
X414120Y162558D01*
X414219Y162552D01*
X414319Y162542D01*
X414417Y162529D01*
X414516Y162511D01*
X414613Y162490D01*
X414709Y162465D01*
X414805Y162436D01*
X414899Y162403D01*
X414992Y162367D01*
X415083Y162327D01*
X415173Y162283D01*
X415261Y162236D01*
X415347Y162186D01*
X415431Y162132D01*
X415513Y162075D01*
X415592Y162015D01*
X415670Y161951D01*
X415744Y161885D01*
X415816Y161816D01*
X415885Y161744D01*
X415951Y161670D01*
X416015Y161592D01*
X416075Y161513D01*
X416132Y161431D01*
X416186Y161347D01*
X416236Y161261D01*
X416283Y161173D01*
X416327Y161083D01*
X416367Y160992D01*
X416403Y160899D01*
X416436Y160805D01*
X416465Y160709D01*
X416490Y160613D01*
X416511Y160516D01*
X416529Y160417D01*
X416542Y160319D01*
X416552Y160219D01*
X416558Y160120D01*
X416560Y160020D01*
X416560Y144780D01*
X416558Y144680D01*
X416552Y144581D01*
X416542Y144481D01*
X416529Y144383D01*
X416511Y144284D01*
X416490Y144187D01*
X416465Y144091D01*
X416436Y143995D01*
X416403Y143901D01*
X416367Y143808D01*
X416327Y143717D01*
X416283Y143627D01*
X416236Y143539D01*
X416186Y143453D01*
X416132Y143369D01*
X416075Y143287D01*
X416015Y143208D01*
X415951Y143130D01*
X415885Y143056D01*
X415816Y142984D01*
X415744Y142915D01*
X415670Y142849D01*
X415592Y142785D01*
X415513Y142725D01*
X415431Y142668D01*
X415347Y142614D01*
X415261Y142564D01*
X415173Y142517D01*
X415083Y142473D01*
X414992Y142433D01*
X414899Y142397D01*
X414805Y142364D01*
X414709Y142335D01*
X414613Y142310D01*
X414516Y142289D01*
X414417Y142271D01*
X414319Y142258D01*
X414219Y142248D01*
X414120Y142242D01*
X414020Y142240D01*
X373380Y162560D02*
X373280Y162558D01*
X373181Y162552D01*
X373081Y162542D01*
X372983Y162529D01*
X372884Y162511D01*
X372787Y162490D01*
X372691Y162465D01*
X372595Y162436D01*
X372501Y162403D01*
X372408Y162367D01*
X372317Y162327D01*
X372227Y162283D01*
X372139Y162236D01*
X372053Y162186D01*
X371969Y162132D01*
X371887Y162075D01*
X371808Y162015D01*
X371730Y161951D01*
X371656Y161885D01*
X371584Y161816D01*
X371515Y161744D01*
X371449Y161670D01*
X371385Y161592D01*
X371325Y161513D01*
X371268Y161431D01*
X371214Y161347D01*
X371164Y161261D01*
X371117Y161173D01*
X371073Y161083D01*
X371033Y160992D01*
X370997Y160899D01*
X370964Y160805D01*
X370935Y160709D01*
X370910Y160613D01*
X370889Y160516D01*
X370871Y160417D01*
X370858Y160319D01*
X370848Y160219D01*
X370842Y160120D01*
X370840Y160020D01*
X370840Y144780D02*
X370842Y144680D01*
X370848Y144581D01*
X370858Y144481D01*
X370871Y144383D01*
X370889Y144284D01*
X370910Y144187D01*
X370935Y144091D01*
X370964Y143995D01*
X370997Y143901D01*
X371033Y143808D01*
X371073Y143717D01*
X371117Y143627D01*
X371164Y143539D01*
X371214Y143453D01*
X371268Y143369D01*
X371325Y143287D01*
X371385Y143208D01*
X371449Y143130D01*
X371515Y143056D01*
X371584Y142984D01*
X371656Y142915D01*
X371730Y142849D01*
X371808Y142785D01*
X371887Y142725D01*
X371969Y142668D01*
X372053Y142614D01*
X372139Y142564D01*
X372227Y142517D01*
X372317Y142473D01*
X372408Y142433D01*
X372501Y142397D01*
X372595Y142364D01*
X372691Y142335D01*
X372787Y142310D01*
X372884Y142289D01*
X372983Y142271D01*
X373081Y142258D01*
X373181Y142248D01*
X373280Y142242D01*
X373380Y142240D01*
X414020Y142240D01*
X370840Y144780D02*
X370840Y160020D01*
X373380Y162560D02*
X414020Y162560D01*
D13*
X377190Y152400D03*
D14*
X419735Y152400D03*
X367665Y152400D03*
D12*
X371475Y165735D02*
X371475Y177165D01*
X374650Y177165D01*
X374761Y177163D01*
X374871Y177157D01*
X374982Y177148D01*
X375092Y177134D01*
X375201Y177117D01*
X375310Y177096D01*
X375418Y177071D01*
X375525Y177042D01*
X375631Y177010D01*
X375736Y176974D01*
X375839Y176934D01*
X375941Y176891D01*
X376042Y176844D01*
X376141Y176793D01*
X376238Y176740D01*
X376332Y176683D01*
X376425Y176622D01*
X376516Y176559D01*
X376605Y176492D01*
X376691Y176422D01*
X376774Y176349D01*
X376856Y176274D01*
X376934Y176196D01*
X377009Y176114D01*
X377082Y176031D01*
X377152Y175945D01*
X377219Y175856D01*
X377282Y175765D01*
X377343Y175672D01*
X377400Y175578D01*
X377453Y175481D01*
X377504Y175382D01*
X377551Y175281D01*
X377594Y175179D01*
X377634Y175076D01*
X377670Y174971D01*
X377702Y174865D01*
X377731Y174758D01*
X377756Y174650D01*
X377777Y174541D01*
X377794Y174432D01*
X377808Y174322D01*
X377817Y174211D01*
X377823Y174101D01*
X377825Y173990D01*
X377825Y168910D01*
X377823Y168799D01*
X377817Y168689D01*
X377808Y168578D01*
X377794Y168468D01*
X377777Y168359D01*
X377756Y168250D01*
X377731Y168142D01*
X377702Y168035D01*
X377670Y167929D01*
X377634Y167824D01*
X377594Y167721D01*
X377551Y167619D01*
X377504Y167518D01*
X377453Y167419D01*
X377400Y167322D01*
X377343Y167228D01*
X377282Y167135D01*
X377219Y167044D01*
X377152Y166955D01*
X377082Y166869D01*
X377009Y166786D01*
X376934Y166704D01*
X376856Y166626D01*
X376774Y166551D01*
X376691Y166478D01*
X376605Y166408D01*
X376516Y166341D01*
X376425Y166278D01*
X376332Y166217D01*
X376238Y166160D01*
X376141Y166107D01*
X376042Y166056D01*
X375941Y166009D01*
X375839Y165966D01*
X375736Y165926D01*
X375631Y165890D01*
X375525Y165858D01*
X375418Y165829D01*
X375310Y165804D01*
X375201Y165783D01*
X375092Y165766D01*
X374982Y165752D01*
X374871Y165743D01*
X374761Y165737D01*
X374650Y165735D01*
X371475Y165735D01*
X383286Y174625D02*
X386461Y177165D01*
X386461Y165735D01*
X383286Y165735D02*
X389636Y165735D01*
D11*
X539750Y152400D02*
X546100Y152400D01*
X556260Y158750D02*
X556260Y146050D01*
X546100Y152400D01*
X561340Y152400D01*
X556260Y158750D02*
X546100Y152400D01*
X546100Y158750D01*
X546100Y152400D02*
X546100Y146050D01*
X566420Y162560D02*
X566520Y162558D01*
X566619Y162552D01*
X566719Y162542D01*
X566817Y162529D01*
X566916Y162511D01*
X567013Y162490D01*
X567109Y162465D01*
X567205Y162436D01*
X567299Y162403D01*
X567392Y162367D01*
X567483Y162327D01*
X567573Y162283D01*
X567661Y162236D01*
X567747Y162186D01*
X567831Y162132D01*
X567913Y162075D01*
X567992Y162015D01*
X568070Y161951D01*
X568144Y161885D01*
X568216Y161816D01*
X568285Y161744D01*
X568351Y161670D01*
X568415Y161592D01*
X568475Y161513D01*
X568532Y161431D01*
X568586Y161347D01*
X568636Y161261D01*
X568683Y161173D01*
X568727Y161083D01*
X568767Y160992D01*
X568803Y160899D01*
X568836Y160805D01*
X568865Y160709D01*
X568890Y160613D01*
X568911Y160516D01*
X568929Y160417D01*
X568942Y160319D01*
X568952Y160219D01*
X568958Y160120D01*
X568960Y160020D01*
X568960Y144780D01*
X568958Y144680D01*
X568952Y144581D01*
X568942Y144481D01*
X568929Y144383D01*
X568911Y144284D01*
X568890Y144187D01*
X568865Y144091D01*
X568836Y143995D01*
X568803Y143901D01*
X568767Y143808D01*
X568727Y143717D01*
X568683Y143627D01*
X568636Y143539D01*
X568586Y143453D01*
X568532Y143369D01*
X568475Y143287D01*
X568415Y143208D01*
X568351Y143130D01*
X568285Y143056D01*
X568216Y142984D01*
X568144Y142915D01*
X568070Y142849D01*
X567992Y142785D01*
X567913Y142725D01*
X567831Y142668D01*
X567747Y142614D01*
X567661Y142564D01*
X567573Y142517D01*
X567483Y142473D01*
X567392Y142433D01*
X567299Y142397D01*
X567205Y142364D01*
X567109Y142335D01*
X567013Y142310D01*
X566916Y142289D01*
X566817Y142271D01*
X566719Y142258D01*
X566619Y142248D01*
X566520Y142242D01*
X566420Y142240D01*
X525780Y162560D02*
X525680Y162558D01*
X525581Y162552D01*
X525481Y162542D01*
X525383Y162529D01*
X525284Y162511D01*
X525187Y162490D01*
X525091Y162465D01*
X524995Y162436D01*
X524901Y162403D01*
X524808Y162367D01*
X524717Y162327D01*
X524627Y162283D01*
X524539Y162236D01*
X524453Y162186D01*
X524369Y162132D01*
X524287Y162075D01*
X524208Y162015D01*
X524130Y161951D01*
X524056Y161885D01*
X523984Y161816D01*
X523915Y161744D01*
X523849Y161670D01*
X523785Y161592D01*
X523725Y161513D01*
X523668Y161431D01*
X523614Y161347D01*
X523564Y161261D01*
X523517Y161173D01*
X523473Y161083D01*
X523433Y160992D01*
X523397Y160899D01*
X523364Y160805D01*
X523335Y160709D01*
X523310Y160613D01*
X523289Y160516D01*
X523271Y160417D01*
X523258Y160319D01*
X523248Y160219D01*
X523242Y160120D01*
X523240Y160020D01*
X523240Y144780D02*
X523242Y144680D01*
X523248Y144581D01*
X523258Y144481D01*
X523271Y144383D01*
X523289Y144284D01*
X523310Y144187D01*
X523335Y144091D01*
X523364Y143995D01*
X523397Y143901D01*
X523433Y143808D01*
X523473Y143717D01*
X523517Y143627D01*
X523564Y143539D01*
X523614Y143453D01*
X523668Y143369D01*
X523725Y143287D01*
X523785Y143208D01*
X523849Y143130D01*
X523915Y143056D01*
X523984Y142984D01*
X524056Y142915D01*
X524130Y142849D01*
X524208Y142785D01*
X524287Y142725D01*
X524369Y142668D01*
X524453Y142614D01*
X524539Y142564D01*
X524627Y142517D01*
X524717Y142473D01*
X524808Y142433D01*
X524901Y142397D01*
X524995Y142364D01*
X525091Y142335D01*
X525187Y142310D01*
X525284Y142289D01*
X525383Y142271D01*
X525481Y142258D01*
X525581Y142248D01*
X525680Y142242D01*
X525780Y142240D01*
X566420Y142240D01*
X523240Y144780D02*
X523240Y160020D01*
X525780Y162560D02*
X566420Y162560D01*
D13*
X529590Y152400D03*
D14*
X572135Y152400D03*
X520065Y152400D03*
D12*
X523875Y165735D02*
X523875Y177165D01*
X527050Y177165D01*
X527161Y177163D01*
X527271Y177157D01*
X527382Y177148D01*
X527492Y177134D01*
X527601Y177117D01*
X527710Y177096D01*
X527818Y177071D01*
X527925Y177042D01*
X528031Y177010D01*
X528136Y176974D01*
X528239Y176934D01*
X528341Y176891D01*
X528442Y176844D01*
X528541Y176793D01*
X528638Y176740D01*
X528732Y176683D01*
X528825Y176622D01*
X528916Y176559D01*
X529005Y176492D01*
X529091Y176422D01*
X529174Y176349D01*
X529256Y176274D01*
X529334Y176196D01*
X529409Y176114D01*
X529482Y176031D01*
X529552Y175945D01*
X529619Y175856D01*
X529682Y175765D01*
X529743Y175672D01*
X529800Y175578D01*
X529853Y175481D01*
X529904Y175382D01*
X529951Y175281D01*
X529994Y175179D01*
X530034Y175076D01*
X530070Y174971D01*
X530102Y174865D01*
X530131Y174758D01*
X530156Y174650D01*
X530177Y174541D01*
X530194Y174432D01*
X530208Y174322D01*
X530217Y174211D01*
X530223Y174101D01*
X530225Y173990D01*
X530225Y168910D01*
X530223Y168799D01*
X530217Y168689D01*
X530208Y168578D01*
X530194Y168468D01*
X530177Y168359D01*
X530156Y168250D01*
X530131Y168142D01*
X530102Y168035D01*
X530070Y167929D01*
X530034Y167824D01*
X529994Y167721D01*
X529951Y167619D01*
X529904Y167518D01*
X529853Y167419D01*
X529800Y167322D01*
X529743Y167228D01*
X529682Y167135D01*
X529619Y167044D01*
X529552Y166955D01*
X529482Y166869D01*
X529409Y166786D01*
X529334Y166704D01*
X529256Y166626D01*
X529174Y166551D01*
X529091Y166478D01*
X529005Y166408D01*
X528916Y166341D01*
X528825Y166278D01*
X528732Y166217D01*
X528638Y166160D01*
X528541Y166107D01*
X528442Y166056D01*
X528341Y166009D01*
X528239Y165966D01*
X528136Y165926D01*
X528031Y165890D01*
X527925Y165858D01*
X527818Y165829D01*
X527710Y165804D01*
X527601Y165783D01*
X527492Y165766D01*
X527382Y165752D01*
X527271Y165743D01*
X527161Y165737D01*
X527050Y165735D01*
X523875Y165735D01*
X539179Y177166D02*
X539283Y177164D01*
X539388Y177158D01*
X539492Y177149D01*
X539595Y177136D01*
X539698Y177118D01*
X539800Y177098D01*
X539902Y177073D01*
X540002Y177045D01*
X540102Y177013D01*
X540200Y176977D01*
X540297Y176938D01*
X540392Y176896D01*
X540486Y176850D01*
X540578Y176800D01*
X540668Y176748D01*
X540756Y176692D01*
X540842Y176632D01*
X540926Y176570D01*
X541007Y176505D01*
X541086Y176437D01*
X541163Y176365D01*
X541236Y176292D01*
X541308Y176215D01*
X541376Y176136D01*
X541441Y176055D01*
X541503Y175971D01*
X541563Y175885D01*
X541619Y175797D01*
X541671Y175707D01*
X541721Y175615D01*
X541767Y175521D01*
X541809Y175426D01*
X541848Y175329D01*
X541884Y175231D01*
X541916Y175131D01*
X541944Y175031D01*
X541969Y174929D01*
X541989Y174827D01*
X542007Y174724D01*
X542020Y174621D01*
X542029Y174517D01*
X542035Y174412D01*
X542037Y174308D01*
X539179Y177165D02*
X539061Y177163D01*
X538942Y177157D01*
X538824Y177148D01*
X538707Y177135D01*
X538590Y177117D01*
X538473Y177097D01*
X538357Y177072D01*
X538242Y177044D01*
X538129Y177011D01*
X538016Y176976D01*
X537904Y176936D01*
X537794Y176894D01*
X537685Y176847D01*
X537577Y176797D01*
X537472Y176744D01*
X537368Y176687D01*
X537266Y176627D01*
X537166Y176564D01*
X537068Y176497D01*
X536972Y176428D01*
X536879Y176355D01*
X536788Y176279D01*
X536699Y176201D01*
X536613Y176119D01*
X536530Y176035D01*
X536449Y175949D01*
X536372Y175859D01*
X536297Y175768D01*
X536225Y175674D01*
X536156Y175577D01*
X536091Y175479D01*
X536028Y175378D01*
X535969Y175275D01*
X535913Y175171D01*
X535861Y175065D01*
X535812Y174957D01*
X535767Y174848D01*
X535725Y174737D01*
X535687Y174625D01*
X541084Y172086D02*
X541160Y172161D01*
X541235Y172240D01*
X541306Y172321D01*
X541375Y172405D01*
X541440Y172491D01*
X541502Y172579D01*
X541562Y172669D01*
X541618Y172761D01*
X541671Y172856D01*
X541720Y172952D01*
X541766Y173050D01*
X541809Y173149D01*
X541848Y173250D01*
X541883Y173352D01*
X541915Y173455D01*
X541943Y173559D01*
X541968Y173664D01*
X541989Y173771D01*
X542006Y173877D01*
X542019Y173984D01*
X542028Y174092D01*
X542034Y174200D01*
X542036Y174308D01*
X541084Y172085D02*
X535686Y165735D01*
X542036Y165735D01*
X652780Y431800D02*
X660400Y439420D01*
X652780Y431800D02*
X617220Y431800D01*
X609600Y439420D01*
X609600Y452120D01*
X614680Y457200D01*
X609600Y462280D01*
X609600Y477520D01*
X614680Y482600D01*
X609600Y487680D01*
X609600Y500380D01*
X617220Y508000D01*
X652780Y508000D01*
X660400Y500380D01*
X660400Y487680D01*
X655320Y482600D01*
X660400Y477520D01*
X660400Y462280D01*
X655320Y457200D01*
X660400Y452120D01*
X660400Y439420D01*
D15*
X662488Y433959D02*
X659878Y431871D01*
X662488Y433959D02*
X662488Y424561D01*
X659878Y424561D02*
X665099Y424561D01*
D10*
X665988Y465385D02*
X677672Y465385D01*
X677672Y466683D02*
X677672Y464086D01*
X665988Y464086D02*
X665988Y466683D01*
X675076Y477393D02*
X675175Y477391D01*
X675275Y477385D01*
X675374Y477376D01*
X675472Y477363D01*
X675570Y477346D01*
X675668Y477325D01*
X675764Y477300D01*
X675859Y477272D01*
X675953Y477240D01*
X676046Y477205D01*
X676138Y477166D01*
X676228Y477123D01*
X676316Y477078D01*
X676403Y477028D01*
X676487Y476976D01*
X676570Y476920D01*
X676650Y476862D01*
X676728Y476800D01*
X676803Y476735D01*
X676876Y476667D01*
X676946Y476597D01*
X677014Y476524D01*
X677079Y476449D01*
X677141Y476371D01*
X677199Y476291D01*
X677255Y476208D01*
X677307Y476124D01*
X677357Y476037D01*
X677402Y475949D01*
X677445Y475859D01*
X677484Y475767D01*
X677519Y475674D01*
X677551Y475580D01*
X677579Y475485D01*
X677604Y475389D01*
X677625Y475291D01*
X677642Y475193D01*
X677655Y475095D01*
X677664Y474996D01*
X677670Y474896D01*
X677672Y474797D01*
X677670Y474653D01*
X677664Y474508D01*
X677655Y474364D01*
X677642Y474221D01*
X677625Y474077D01*
X677604Y473934D01*
X677579Y473792D01*
X677551Y473651D01*
X677519Y473510D01*
X677483Y473370D01*
X677444Y473231D01*
X677401Y473093D01*
X677354Y472957D01*
X677304Y472821D01*
X677250Y472687D01*
X677193Y472555D01*
X677132Y472424D01*
X677068Y472295D01*
X677000Y472167D01*
X676930Y472041D01*
X676855Y471917D01*
X676778Y471796D01*
X676697Y471676D01*
X676614Y471558D01*
X676527Y471443D01*
X676437Y471330D01*
X676344Y471219D01*
X676249Y471111D01*
X676150Y471005D01*
X676049Y470902D01*
X668584Y471227D02*
X668485Y471229D01*
X668385Y471235D01*
X668286Y471244D01*
X668188Y471257D01*
X668090Y471274D01*
X667992Y471295D01*
X667896Y471320D01*
X667801Y471348D01*
X667707Y471380D01*
X667614Y471415D01*
X667522Y471454D01*
X667432Y471497D01*
X667344Y471542D01*
X667257Y471592D01*
X667173Y471644D01*
X667090Y471700D01*
X667010Y471758D01*
X666932Y471820D01*
X666857Y471885D01*
X666784Y471953D01*
X666714Y472023D01*
X666646Y472096D01*
X666581Y472171D01*
X666519Y472249D01*
X666461Y472329D01*
X666405Y472412D01*
X666353Y472496D01*
X666303Y472583D01*
X666258Y472671D01*
X666215Y472761D01*
X666176Y472853D01*
X666141Y472946D01*
X666109Y473040D01*
X666081Y473135D01*
X666056Y473231D01*
X666035Y473329D01*
X666018Y473427D01*
X666005Y473525D01*
X665996Y473624D01*
X665990Y473724D01*
X665988Y473823D01*
X665990Y473959D01*
X665996Y474095D01*
X666005Y474231D01*
X666018Y474367D01*
X666036Y474502D01*
X666056Y474636D01*
X666081Y474770D01*
X666109Y474904D01*
X666142Y475036D01*
X666177Y475167D01*
X666217Y475298D01*
X666260Y475427D01*
X666306Y475555D01*
X666357Y475681D01*
X666410Y475807D01*
X666468Y475930D01*
X666528Y476052D01*
X666592Y476172D01*
X666660Y476291D01*
X666730Y476407D01*
X666804Y476521D01*
X666881Y476634D01*
X666962Y476744D01*
X670856Y472524D02*
X670803Y472438D01*
X670746Y472354D01*
X670687Y472272D01*
X670624Y472192D01*
X670558Y472115D01*
X670490Y472040D01*
X670418Y471968D01*
X670344Y471899D01*
X670267Y471833D01*
X670188Y471770D01*
X670106Y471710D01*
X670022Y471653D01*
X669936Y471599D01*
X669848Y471549D01*
X669758Y471502D01*
X669667Y471458D01*
X669573Y471419D01*
X669479Y471382D01*
X669383Y471350D01*
X669285Y471321D01*
X669187Y471296D01*
X669088Y471275D01*
X668988Y471257D01*
X668888Y471244D01*
X668787Y471234D01*
X668685Y471228D01*
X668584Y471226D01*
X672804Y476095D02*
X672857Y476181D01*
X672914Y476265D01*
X672973Y476347D01*
X673036Y476427D01*
X673102Y476504D01*
X673170Y476579D01*
X673242Y476651D01*
X673316Y476720D01*
X673393Y476786D01*
X673472Y476849D01*
X673554Y476909D01*
X673638Y476966D01*
X673724Y477020D01*
X673812Y477070D01*
X673902Y477117D01*
X673993Y477161D01*
X674087Y477200D01*
X674181Y477237D01*
X674277Y477269D01*
X674375Y477298D01*
X674473Y477323D01*
X674572Y477344D01*
X674672Y477362D01*
X674772Y477375D01*
X674873Y477385D01*
X674975Y477391D01*
X675076Y477393D01*
X672804Y476095D02*
X670856Y472525D01*
X665988Y482501D02*
X677672Y482501D01*
X665988Y482501D02*
X665988Y485747D01*
X665990Y485860D01*
X665996Y485973D01*
X666006Y486086D01*
X666020Y486199D01*
X666037Y486311D01*
X666059Y486422D01*
X666084Y486532D01*
X666114Y486642D01*
X666147Y486750D01*
X666184Y486857D01*
X666224Y486963D01*
X666269Y487067D01*
X666317Y487170D01*
X666368Y487271D01*
X666423Y487370D01*
X666481Y487467D01*
X666543Y487562D01*
X666608Y487655D01*
X666676Y487745D01*
X666747Y487833D01*
X666822Y487919D01*
X666899Y488002D01*
X666979Y488082D01*
X667062Y488159D01*
X667148Y488234D01*
X667236Y488305D01*
X667326Y488373D01*
X667419Y488438D01*
X667514Y488500D01*
X667611Y488558D01*
X667710Y488613D01*
X667811Y488664D01*
X667914Y488712D01*
X668018Y488757D01*
X668124Y488797D01*
X668231Y488834D01*
X668339Y488867D01*
X668449Y488897D01*
X668559Y488922D01*
X668670Y488944D01*
X668782Y488961D01*
X668895Y488975D01*
X669008Y488985D01*
X669121Y488991D01*
X669234Y488993D01*
X669347Y488991D01*
X669460Y488985D01*
X669573Y488975D01*
X669686Y488961D01*
X669798Y488944D01*
X669909Y488922D01*
X670019Y488897D01*
X670129Y488867D01*
X670237Y488834D01*
X670344Y488797D01*
X670450Y488757D01*
X670554Y488712D01*
X670657Y488664D01*
X670758Y488613D01*
X670857Y488558D01*
X670954Y488500D01*
X671049Y488438D01*
X671142Y488373D01*
X671232Y488305D01*
X671320Y488234D01*
X671406Y488159D01*
X671489Y488082D01*
X671569Y488002D01*
X671646Y487919D01*
X671721Y487833D01*
X671792Y487745D01*
X671860Y487655D01*
X671925Y487562D01*
X671987Y487467D01*
X672045Y487370D01*
X672100Y487271D01*
X672151Y487170D01*
X672199Y487067D01*
X672244Y486963D01*
X672284Y486857D01*
X672321Y486750D01*
X672354Y486642D01*
X672384Y486532D01*
X672409Y486422D01*
X672431Y486311D01*
X672448Y486199D01*
X672462Y486086D01*
X672472Y485973D01*
X672478Y485860D01*
X672480Y485747D01*
X672479Y485747D02*
X672479Y482501D01*
X668584Y493381D02*
X665988Y496626D01*
X677672Y496626D01*
X677672Y493381D02*
X677672Y499872D01*
D12*
X653900Y584800D02*
X635400Y584800D01*
X635400Y659800D02*
X653900Y659800D01*
D16*
X623400Y609300D02*
X623402Y609363D01*
X623408Y609425D01*
X623418Y609487D01*
X623431Y609549D01*
X623449Y609609D01*
X623470Y609668D01*
X623495Y609726D01*
X623524Y609782D01*
X623556Y609836D01*
X623591Y609888D01*
X623629Y609937D01*
X623671Y609985D01*
X623715Y610029D01*
X623763Y610071D01*
X623812Y610109D01*
X623864Y610144D01*
X623918Y610176D01*
X623974Y610205D01*
X624032Y610230D01*
X624091Y610251D01*
X624151Y610269D01*
X624213Y610282D01*
X624275Y610292D01*
X624337Y610298D01*
X624400Y610300D01*
X624463Y610298D01*
X624525Y610292D01*
X624587Y610282D01*
X624649Y610269D01*
X624709Y610251D01*
X624768Y610230D01*
X624826Y610205D01*
X624882Y610176D01*
X624936Y610144D01*
X624988Y610109D01*
X625037Y610071D01*
X625085Y610029D01*
X625129Y609985D01*
X625171Y609937D01*
X625209Y609888D01*
X625244Y609836D01*
X625276Y609782D01*
X625305Y609726D01*
X625330Y609668D01*
X625351Y609609D01*
X625369Y609549D01*
X625382Y609487D01*
X625392Y609425D01*
X625398Y609363D01*
X625400Y609300D01*
X625398Y609237D01*
X625392Y609175D01*
X625382Y609113D01*
X625369Y609051D01*
X625351Y608991D01*
X625330Y608932D01*
X625305Y608874D01*
X625276Y608818D01*
X625244Y608764D01*
X625209Y608712D01*
X625171Y608663D01*
X625129Y608615D01*
X625085Y608571D01*
X625037Y608529D01*
X624988Y608491D01*
X624936Y608456D01*
X624882Y608424D01*
X624826Y608395D01*
X624768Y608370D01*
X624709Y608349D01*
X624649Y608331D01*
X624587Y608318D01*
X624525Y608308D01*
X624463Y608302D01*
X624400Y608300D01*
X624337Y608302D01*
X624275Y608308D01*
X624213Y608318D01*
X624151Y608331D01*
X624091Y608349D01*
X624032Y608370D01*
X623974Y608395D01*
X623918Y608424D01*
X623864Y608456D01*
X623812Y608491D01*
X623763Y608529D01*
X623715Y608571D01*
X623671Y608615D01*
X623629Y608663D01*
X623591Y608712D01*
X623556Y608764D01*
X623524Y608818D01*
X623495Y608874D01*
X623470Y608932D01*
X623449Y608991D01*
X623431Y609051D01*
X623418Y609113D01*
X623408Y609175D01*
X623402Y609237D01*
X623400Y609300D01*
D12*
X674900Y659800D02*
X685400Y659800D01*
X685400Y584800D01*
X674900Y584800D01*
D10*
X620893Y583600D02*
X611805Y583600D01*
X620893Y583601D02*
X620992Y583599D01*
X621092Y583593D01*
X621191Y583584D01*
X621289Y583571D01*
X621387Y583553D01*
X621485Y583533D01*
X621581Y583508D01*
X621677Y583480D01*
X621771Y583448D01*
X621864Y583413D01*
X621955Y583374D01*
X622045Y583331D01*
X622134Y583285D01*
X622220Y583236D01*
X622305Y583184D01*
X622387Y583128D01*
X622467Y583069D01*
X622545Y583008D01*
X622621Y582943D01*
X622694Y582875D01*
X622764Y582805D01*
X622832Y582732D01*
X622897Y582656D01*
X622958Y582578D01*
X623017Y582498D01*
X623073Y582416D01*
X623125Y582331D01*
X623174Y582245D01*
X623220Y582156D01*
X623263Y582066D01*
X623302Y581975D01*
X623337Y581882D01*
X623369Y581788D01*
X623397Y581692D01*
X623422Y581596D01*
X623442Y581498D01*
X623460Y581400D01*
X623473Y581302D01*
X623482Y581203D01*
X623488Y581103D01*
X623490Y581004D01*
X623490Y579705D01*
X614402Y588874D02*
X611805Y592120D01*
X623490Y592120D01*
X623490Y588874D02*
X623490Y595366D01*
D11*
X635000Y400050D02*
X635000Y387350D01*
X635000Y400050D02*
X641350Y406400D01*
X654050Y406400D01*
X660400Y400050D01*
X654050Y381000D02*
X641350Y381000D01*
X635000Y387350D01*
X654050Y381000D02*
X660400Y387350D01*
X660400Y400050D01*
D12*
X626237Y384683D02*
X617347Y384683D01*
X626237Y384683D02*
X626337Y384681D01*
X626436Y384675D01*
X626536Y384665D01*
X626634Y384652D01*
X626733Y384634D01*
X626830Y384613D01*
X626926Y384588D01*
X627022Y384559D01*
X627116Y384526D01*
X627209Y384490D01*
X627300Y384450D01*
X627390Y384406D01*
X627478Y384359D01*
X627564Y384309D01*
X627648Y384255D01*
X627730Y384198D01*
X627809Y384138D01*
X627887Y384074D01*
X627961Y384008D01*
X628033Y383939D01*
X628102Y383867D01*
X628168Y383793D01*
X628232Y383715D01*
X628292Y383636D01*
X628349Y383554D01*
X628403Y383470D01*
X628453Y383384D01*
X628500Y383296D01*
X628544Y383206D01*
X628584Y383115D01*
X628620Y383022D01*
X628653Y382928D01*
X628682Y382832D01*
X628707Y382736D01*
X628728Y382639D01*
X628746Y382540D01*
X628759Y382442D01*
X628769Y382342D01*
X628775Y382243D01*
X628777Y382143D01*
X628777Y380873D01*
X628777Y390663D02*
X617347Y390663D01*
X617347Y393838D01*
X617349Y393949D01*
X617355Y394059D01*
X617364Y394170D01*
X617378Y394280D01*
X617395Y394389D01*
X617416Y394498D01*
X617441Y394606D01*
X617470Y394713D01*
X617502Y394819D01*
X617538Y394924D01*
X617578Y395027D01*
X617621Y395129D01*
X617668Y395230D01*
X617719Y395329D01*
X617772Y395426D01*
X617829Y395520D01*
X617890Y395613D01*
X617953Y395704D01*
X618020Y395793D01*
X618090Y395879D01*
X618163Y395962D01*
X618238Y396044D01*
X618316Y396122D01*
X618398Y396197D01*
X618481Y396270D01*
X618567Y396340D01*
X618656Y396407D01*
X618747Y396470D01*
X618840Y396531D01*
X618935Y396588D01*
X619031Y396641D01*
X619130Y396692D01*
X619231Y396739D01*
X619333Y396782D01*
X619436Y396822D01*
X619541Y396858D01*
X619647Y396890D01*
X619754Y396919D01*
X619862Y396944D01*
X619971Y396965D01*
X620080Y396982D01*
X620190Y396996D01*
X620301Y397005D01*
X620411Y397011D01*
X620522Y397013D01*
X620633Y397011D01*
X620743Y397005D01*
X620854Y396996D01*
X620964Y396982D01*
X621073Y396965D01*
X621182Y396944D01*
X621290Y396919D01*
X621397Y396890D01*
X621503Y396858D01*
X621608Y396822D01*
X621711Y396782D01*
X621813Y396739D01*
X621914Y396692D01*
X622013Y396641D01*
X622110Y396588D01*
X622204Y396531D01*
X622297Y396470D01*
X622388Y396407D01*
X622477Y396340D01*
X622563Y396270D01*
X622646Y396197D01*
X622728Y396122D01*
X622806Y396044D01*
X622881Y395962D01*
X622954Y395879D01*
X623024Y395793D01*
X623091Y395704D01*
X623154Y395613D01*
X623215Y395520D01*
X623272Y395426D01*
X623325Y395329D01*
X623376Y395230D01*
X623423Y395129D01*
X623466Y395027D01*
X623506Y394924D01*
X623542Y394819D01*
X623574Y394713D01*
X623603Y394606D01*
X623628Y394498D01*
X623649Y394389D01*
X623666Y394280D01*
X623680Y394170D01*
X623689Y394059D01*
X623695Y393949D01*
X623697Y393838D01*
X623697Y390663D01*
X628777Y401522D02*
X628777Y404697D01*
X628775Y404808D01*
X628769Y404918D01*
X628760Y405029D01*
X628746Y405139D01*
X628729Y405248D01*
X628708Y405357D01*
X628683Y405465D01*
X628654Y405572D01*
X628622Y405678D01*
X628586Y405783D01*
X628546Y405886D01*
X628503Y405988D01*
X628456Y406089D01*
X628405Y406188D01*
X628352Y406285D01*
X628295Y406379D01*
X628234Y406472D01*
X628171Y406563D01*
X628104Y406652D01*
X628034Y406738D01*
X627961Y406821D01*
X627886Y406903D01*
X627808Y406981D01*
X627726Y407056D01*
X627643Y407129D01*
X627557Y407199D01*
X627468Y407266D01*
X627377Y407329D01*
X627284Y407390D01*
X627190Y407447D01*
X627093Y407500D01*
X626994Y407551D01*
X626893Y407598D01*
X626791Y407641D01*
X626688Y407681D01*
X626583Y407717D01*
X626477Y407749D01*
X626370Y407778D01*
X626262Y407803D01*
X626153Y407824D01*
X626044Y407841D01*
X625934Y407855D01*
X625823Y407864D01*
X625713Y407870D01*
X625602Y407872D01*
X625491Y407870D01*
X625381Y407864D01*
X625270Y407855D01*
X625160Y407841D01*
X625051Y407824D01*
X624942Y407803D01*
X624834Y407778D01*
X624727Y407749D01*
X624621Y407717D01*
X624516Y407681D01*
X624413Y407641D01*
X624311Y407598D01*
X624210Y407551D01*
X624111Y407500D01*
X624015Y407447D01*
X623920Y407390D01*
X623827Y407329D01*
X623736Y407266D01*
X623647Y407199D01*
X623561Y407129D01*
X623478Y407056D01*
X623396Y406981D01*
X623318Y406903D01*
X623243Y406821D01*
X623170Y406738D01*
X623100Y406652D01*
X623033Y406563D01*
X622970Y406472D01*
X622909Y406379D01*
X622852Y406285D01*
X622799Y406188D01*
X622748Y406089D01*
X622701Y405988D01*
X622658Y405886D01*
X622618Y405783D01*
X622582Y405678D01*
X622550Y405572D01*
X622521Y405465D01*
X622496Y405357D01*
X622475Y405248D01*
X622458Y405139D01*
X622444Y405029D01*
X622435Y404918D01*
X622429Y404808D01*
X622427Y404697D01*
X617347Y405332D02*
X617347Y401522D01*
X617347Y405332D02*
X617349Y405432D01*
X617355Y405531D01*
X617365Y405631D01*
X617378Y405729D01*
X617396Y405828D01*
X617417Y405925D01*
X617442Y406021D01*
X617471Y406117D01*
X617504Y406211D01*
X617540Y406304D01*
X617580Y406395D01*
X617624Y406485D01*
X617671Y406573D01*
X617721Y406659D01*
X617775Y406743D01*
X617832Y406825D01*
X617892Y406904D01*
X617956Y406982D01*
X618022Y407056D01*
X618091Y407128D01*
X618163Y407197D01*
X618237Y407263D01*
X618315Y407327D01*
X618394Y407387D01*
X618476Y407444D01*
X618560Y407498D01*
X618646Y407548D01*
X618734Y407595D01*
X618824Y407639D01*
X618915Y407679D01*
X619008Y407715D01*
X619102Y407748D01*
X619198Y407777D01*
X619294Y407802D01*
X619391Y407823D01*
X619490Y407841D01*
X619588Y407854D01*
X619688Y407864D01*
X619787Y407870D01*
X619887Y407872D01*
X619987Y407870D01*
X620086Y407864D01*
X620186Y407854D01*
X620284Y407841D01*
X620383Y407823D01*
X620480Y407802D01*
X620576Y407777D01*
X620672Y407748D01*
X620766Y407715D01*
X620859Y407679D01*
X620950Y407639D01*
X621040Y407595D01*
X621128Y407548D01*
X621214Y407498D01*
X621298Y407444D01*
X621380Y407387D01*
X621459Y407327D01*
X621537Y407263D01*
X621611Y407197D01*
X621683Y407128D01*
X621752Y407056D01*
X621818Y406982D01*
X621882Y406904D01*
X621942Y406825D01*
X621999Y406743D01*
X622053Y406659D01*
X622103Y406573D01*
X622150Y406485D01*
X622194Y406395D01*
X622234Y406304D01*
X622270Y406211D01*
X622303Y406117D01*
X622332Y406021D01*
X622357Y405925D01*
X622378Y405828D01*
X622396Y405729D01*
X622409Y405631D01*
X622419Y405531D01*
X622425Y405432D01*
X622427Y405332D01*
X622427Y402792D01*
D11*
X635000Y336550D02*
X635000Y323850D01*
X635000Y336550D02*
X641350Y342900D01*
X654050Y342900D01*
X660400Y336550D01*
X654050Y317500D02*
X641350Y317500D01*
X635000Y323850D01*
X654050Y317500D02*
X660400Y323850D01*
X660400Y336550D01*
D12*
X626237Y321183D02*
X617347Y321183D01*
X626237Y321183D02*
X626337Y321181D01*
X626436Y321175D01*
X626536Y321165D01*
X626634Y321152D01*
X626733Y321134D01*
X626830Y321113D01*
X626926Y321088D01*
X627022Y321059D01*
X627116Y321026D01*
X627209Y320990D01*
X627300Y320950D01*
X627390Y320906D01*
X627478Y320859D01*
X627564Y320809D01*
X627648Y320755D01*
X627730Y320698D01*
X627809Y320638D01*
X627887Y320574D01*
X627961Y320508D01*
X628033Y320439D01*
X628102Y320367D01*
X628168Y320293D01*
X628232Y320215D01*
X628292Y320136D01*
X628349Y320054D01*
X628403Y319970D01*
X628453Y319884D01*
X628500Y319796D01*
X628544Y319706D01*
X628584Y319615D01*
X628620Y319522D01*
X628653Y319428D01*
X628682Y319332D01*
X628707Y319236D01*
X628728Y319139D01*
X628746Y319040D01*
X628759Y318942D01*
X628769Y318842D01*
X628775Y318743D01*
X628777Y318643D01*
X628777Y317373D01*
X628777Y327163D02*
X617347Y327163D01*
X617347Y330338D01*
X617349Y330449D01*
X617355Y330559D01*
X617364Y330670D01*
X617378Y330780D01*
X617395Y330889D01*
X617416Y330998D01*
X617441Y331106D01*
X617470Y331213D01*
X617502Y331319D01*
X617538Y331424D01*
X617578Y331527D01*
X617621Y331629D01*
X617668Y331730D01*
X617719Y331829D01*
X617772Y331926D01*
X617829Y332020D01*
X617890Y332113D01*
X617953Y332204D01*
X618020Y332293D01*
X618090Y332379D01*
X618163Y332462D01*
X618238Y332544D01*
X618316Y332622D01*
X618398Y332697D01*
X618481Y332770D01*
X618567Y332840D01*
X618656Y332907D01*
X618747Y332970D01*
X618840Y333031D01*
X618935Y333088D01*
X619031Y333141D01*
X619130Y333192D01*
X619231Y333239D01*
X619333Y333282D01*
X619436Y333322D01*
X619541Y333358D01*
X619647Y333390D01*
X619754Y333419D01*
X619862Y333444D01*
X619971Y333465D01*
X620080Y333482D01*
X620190Y333496D01*
X620301Y333505D01*
X620411Y333511D01*
X620522Y333513D01*
X620633Y333511D01*
X620743Y333505D01*
X620854Y333496D01*
X620964Y333482D01*
X621073Y333465D01*
X621182Y333444D01*
X621290Y333419D01*
X621397Y333390D01*
X621503Y333358D01*
X621608Y333322D01*
X621711Y333282D01*
X621813Y333239D01*
X621914Y333192D01*
X622013Y333141D01*
X622110Y333088D01*
X622204Y333031D01*
X622297Y332970D01*
X622388Y332907D01*
X622477Y332840D01*
X622563Y332770D01*
X622646Y332697D01*
X622728Y332622D01*
X622806Y332544D01*
X622881Y332462D01*
X622954Y332379D01*
X623024Y332293D01*
X623091Y332204D01*
X623154Y332113D01*
X623215Y332020D01*
X623272Y331926D01*
X623325Y331829D01*
X623376Y331730D01*
X623423Y331629D01*
X623466Y331527D01*
X623506Y331424D01*
X623542Y331319D01*
X623574Y331213D01*
X623603Y331106D01*
X623628Y330998D01*
X623649Y330889D01*
X623666Y330780D01*
X623680Y330670D01*
X623689Y330559D01*
X623695Y330449D01*
X623697Y330338D01*
X623697Y327163D01*
X626237Y338022D02*
X617347Y340562D01*
X626237Y338022D02*
X626237Y344372D01*
X623697Y342467D02*
X628777Y342467D01*
D15*
X567464Y698881D02*
X567464Y705146D01*
X564332Y702014D02*
X570597Y702014D01*
D17*
X544600Y705200D03*
X544600Y717200D03*
D18*
X544600Y711200D03*
D10*
X520201Y697992D02*
X520201Y686308D01*
X525393Y686308D01*
X530107Y686308D02*
X535299Y686308D01*
X530107Y686308D02*
X530107Y697992D01*
X535299Y697992D01*
X534001Y692799D02*
X530107Y692799D01*
X539990Y697992D02*
X539990Y686308D01*
X539990Y697992D02*
X543235Y697992D01*
X543348Y697990D01*
X543461Y697984D01*
X543574Y697974D01*
X543687Y697960D01*
X543799Y697943D01*
X543910Y697921D01*
X544020Y697896D01*
X544130Y697866D01*
X544238Y697833D01*
X544345Y697796D01*
X544451Y697756D01*
X544555Y697711D01*
X544658Y697663D01*
X544759Y697612D01*
X544858Y697557D01*
X544955Y697499D01*
X545050Y697437D01*
X545143Y697372D01*
X545233Y697304D01*
X545321Y697233D01*
X545407Y697158D01*
X545490Y697081D01*
X545570Y697001D01*
X545647Y696918D01*
X545722Y696832D01*
X545793Y696744D01*
X545861Y696654D01*
X545926Y696561D01*
X545988Y696466D01*
X546046Y696369D01*
X546101Y696270D01*
X546152Y696169D01*
X546200Y696066D01*
X546245Y695962D01*
X546285Y695856D01*
X546322Y695749D01*
X546355Y695641D01*
X546385Y695531D01*
X546410Y695421D01*
X546432Y695310D01*
X546449Y695198D01*
X546463Y695085D01*
X546473Y694972D01*
X546479Y694859D01*
X546481Y694746D01*
X546481Y689554D01*
X546482Y689554D02*
X546480Y689441D01*
X546474Y689328D01*
X546464Y689215D01*
X546450Y689102D01*
X546433Y688990D01*
X546411Y688879D01*
X546386Y688769D01*
X546356Y688659D01*
X546323Y688551D01*
X546286Y688444D01*
X546246Y688338D01*
X546201Y688234D01*
X546153Y688131D01*
X546102Y688030D01*
X546047Y687931D01*
X545989Y687834D01*
X545927Y687739D01*
X545862Y687646D01*
X545794Y687556D01*
X545723Y687468D01*
X545648Y687382D01*
X545571Y687299D01*
X545491Y687219D01*
X545408Y687142D01*
X545322Y687067D01*
X545234Y686996D01*
X545144Y686928D01*
X545051Y686863D01*
X544956Y686801D01*
X544859Y686743D01*
X544760Y686688D01*
X544659Y686637D01*
X544556Y686589D01*
X544452Y686544D01*
X544346Y686504D01*
X544239Y686467D01*
X544131Y686434D01*
X544021Y686404D01*
X543911Y686379D01*
X543800Y686357D01*
X543688Y686340D01*
X543575Y686326D01*
X543462Y686316D01*
X543349Y686310D01*
X543236Y686308D01*
X543235Y686308D02*
X539990Y686308D01*
X551801Y695396D02*
X555046Y697992D01*
X555046Y686308D01*
X551801Y686308D02*
X558292Y686308D01*
D19*
X320300Y1002300D02*
X290300Y1002300D01*
X192300Y1002300D01*
X162300Y1002300D01*
X162300Y923300D02*
X320300Y923300D01*
X286300Y1091300D02*
X196300Y1091300D01*
X290300Y1022300D02*
X290300Y1002300D01*
X290300Y1040300D02*
X290300Y1087300D01*
X192300Y1022300D02*
X192300Y1002300D01*
X192300Y1040300D02*
X192300Y1087300D01*
X320300Y1002300D02*
X320300Y923300D01*
X162300Y923300D02*
X162300Y1002300D01*
X212300Y1452300D02*
X270300Y1452300D01*
X270300Y1092300D01*
X212300Y1092300D02*
X212300Y1452300D01*
X286300Y1091300D02*
X290300Y1087300D01*
X196300Y1091300D02*
X192300Y1087300D01*
X290300Y1022300D02*
X298300Y1022300D01*
X290300Y1022300D02*
X192300Y1022300D01*
X184300Y1022300D01*
X177300Y1023300D01*
X174300Y1024300D01*
X174300Y1038300D01*
X177300Y1039300D01*
X184300Y1040300D01*
X192300Y1040300D01*
X290300Y1040300D01*
X298300Y1040300D01*
X305300Y1039300D01*
X308300Y1038300D01*
X308300Y1024300D01*
X305300Y1023300D01*
X298300Y1022300D01*
X211300Y1025300D02*
X207300Y1027300D01*
X211300Y1025300D02*
X219300Y1023300D01*
X227300Y1022300D01*
X271300Y1025300D02*
X275300Y1027300D01*
X271300Y1025300D02*
X263300Y1023300D01*
X255300Y1022300D01*
X263300Y1039300D02*
X271300Y1037300D01*
X263300Y1039300D02*
X255300Y1040300D01*
X211300Y1037300D02*
X207300Y1035300D01*
X211300Y1037300D02*
X219300Y1039300D01*
X227300Y1040300D01*
X275300Y1035300D02*
X279300Y1037300D01*
X287300Y1039300D01*
X295300Y1040300D01*
X279300Y1025300D02*
X275300Y1027300D01*
X279300Y1025300D02*
X287300Y1023300D01*
X295300Y1022300D01*
X207300Y1027300D02*
X203300Y1025300D01*
X195300Y1023300D01*
X187300Y1022300D01*
X203300Y1037300D02*
X207300Y1035300D01*
X203300Y1037300D02*
X195300Y1039300D01*
X187300Y1040300D01*
X275300Y1035300D02*
X275300Y1027300D01*
X207300Y1027300D02*
X207300Y1035300D01*
X271372Y1037300D02*
X275372Y1035300D01*
D10*
X325008Y979745D02*
X336692Y979745D01*
X325008Y979745D02*
X325008Y982990D01*
X325010Y983103D01*
X325016Y983216D01*
X325026Y983329D01*
X325040Y983442D01*
X325057Y983554D01*
X325079Y983665D01*
X325104Y983775D01*
X325134Y983885D01*
X325167Y983993D01*
X325204Y984100D01*
X325244Y984206D01*
X325289Y984310D01*
X325337Y984413D01*
X325388Y984514D01*
X325443Y984613D01*
X325501Y984710D01*
X325563Y984805D01*
X325628Y984898D01*
X325696Y984988D01*
X325767Y985076D01*
X325842Y985162D01*
X325919Y985245D01*
X325999Y985325D01*
X326082Y985402D01*
X326168Y985477D01*
X326256Y985548D01*
X326346Y985616D01*
X326439Y985681D01*
X326534Y985743D01*
X326631Y985801D01*
X326730Y985856D01*
X326831Y985907D01*
X326934Y985955D01*
X327038Y986000D01*
X327144Y986040D01*
X327251Y986077D01*
X327359Y986110D01*
X327469Y986140D01*
X327579Y986165D01*
X327690Y986187D01*
X327802Y986204D01*
X327915Y986218D01*
X328028Y986228D01*
X328141Y986234D01*
X328254Y986236D01*
X328367Y986234D01*
X328480Y986228D01*
X328593Y986218D01*
X328706Y986204D01*
X328818Y986187D01*
X328929Y986165D01*
X329039Y986140D01*
X329149Y986110D01*
X329257Y986077D01*
X329364Y986040D01*
X329470Y986000D01*
X329574Y985955D01*
X329677Y985907D01*
X329778Y985856D01*
X329877Y985801D01*
X329974Y985743D01*
X330069Y985681D01*
X330162Y985616D01*
X330252Y985548D01*
X330340Y985477D01*
X330426Y985402D01*
X330509Y985325D01*
X330589Y985245D01*
X330666Y985162D01*
X330741Y985076D01*
X330812Y984988D01*
X330880Y984898D01*
X330945Y984805D01*
X331007Y984710D01*
X331065Y984613D01*
X331120Y984514D01*
X331171Y984413D01*
X331219Y984310D01*
X331264Y984206D01*
X331304Y984100D01*
X331341Y983993D01*
X331374Y983885D01*
X331404Y983775D01*
X331429Y983665D01*
X331451Y983554D01*
X331468Y983442D01*
X331482Y983329D01*
X331492Y983216D01*
X331498Y983103D01*
X331500Y982990D01*
X331499Y982990D02*
X331499Y979745D01*
X331499Y983639D02*
X336692Y986236D01*
X327604Y991101D02*
X325008Y994346D01*
X336692Y994346D01*
X336692Y991101D02*
X336692Y997592D01*
X603758Y736092D02*
X603758Y724408D01*
X603758Y736092D02*
X607004Y736092D01*
X607117Y736090D01*
X607230Y736084D01*
X607343Y736074D01*
X607456Y736060D01*
X607568Y736043D01*
X607679Y736021D01*
X607789Y735996D01*
X607899Y735966D01*
X608007Y735933D01*
X608114Y735896D01*
X608220Y735856D01*
X608324Y735811D01*
X608427Y735763D01*
X608528Y735712D01*
X608627Y735657D01*
X608724Y735599D01*
X608819Y735537D01*
X608912Y735472D01*
X609002Y735404D01*
X609090Y735333D01*
X609176Y735258D01*
X609259Y735181D01*
X609339Y735101D01*
X609416Y735018D01*
X609491Y734932D01*
X609562Y734844D01*
X609630Y734754D01*
X609695Y734661D01*
X609757Y734566D01*
X609815Y734469D01*
X609870Y734370D01*
X609921Y734269D01*
X609969Y734166D01*
X610014Y734062D01*
X610054Y733956D01*
X610091Y733849D01*
X610124Y733741D01*
X610154Y733631D01*
X610179Y733521D01*
X610201Y733410D01*
X610218Y733298D01*
X610232Y733185D01*
X610242Y733072D01*
X610248Y732959D01*
X610250Y732846D01*
X610248Y732733D01*
X610242Y732620D01*
X610232Y732507D01*
X610218Y732394D01*
X610201Y732282D01*
X610179Y732171D01*
X610154Y732061D01*
X610124Y731951D01*
X610091Y731843D01*
X610054Y731736D01*
X610014Y731630D01*
X609969Y731526D01*
X609921Y731423D01*
X609870Y731322D01*
X609815Y731223D01*
X609757Y731126D01*
X609695Y731031D01*
X609630Y730938D01*
X609562Y730848D01*
X609491Y730760D01*
X609416Y730674D01*
X609339Y730591D01*
X609259Y730511D01*
X609176Y730434D01*
X609090Y730359D01*
X609002Y730288D01*
X608912Y730220D01*
X608819Y730155D01*
X608724Y730093D01*
X608627Y730035D01*
X608528Y729980D01*
X608427Y729929D01*
X608324Y729881D01*
X608220Y729836D01*
X608114Y729796D01*
X608007Y729759D01*
X607899Y729726D01*
X607789Y729696D01*
X607679Y729671D01*
X607568Y729649D01*
X607456Y729632D01*
X607343Y729618D01*
X607230Y729608D01*
X607117Y729602D01*
X607004Y729600D01*
X607004Y729601D02*
X603758Y729601D01*
X607653Y729601D02*
X610249Y724408D01*
X615114Y733496D02*
X618360Y736092D01*
X618360Y724408D01*
X621605Y724408D02*
X615114Y724408D01*
X626545Y730250D02*
X626548Y730480D01*
X626556Y730710D01*
X626570Y730939D01*
X626589Y731168D01*
X626614Y731397D01*
X626644Y731624D01*
X626679Y731852D01*
X626720Y732078D01*
X626766Y732303D01*
X626818Y732527D01*
X626875Y732749D01*
X626937Y732971D01*
X627005Y733190D01*
X627078Y733408D01*
X627156Y733625D01*
X627239Y733839D01*
X627327Y734051D01*
X627420Y734261D01*
X627519Y734469D01*
X627518Y734469D02*
X627551Y734559D01*
X627587Y734648D01*
X627627Y734736D01*
X627671Y734821D01*
X627718Y734905D01*
X627768Y734987D01*
X627822Y735067D01*
X627878Y735144D01*
X627938Y735220D01*
X628001Y735293D01*
X628066Y735363D01*
X628135Y735431D01*
X628206Y735495D01*
X628279Y735557D01*
X628355Y735616D01*
X628433Y735672D01*
X628514Y735725D01*
X628596Y735774D01*
X628680Y735820D01*
X628767Y735863D01*
X628854Y735902D01*
X628944Y735938D01*
X629034Y735970D01*
X629126Y735998D01*
X629219Y736023D01*
X629313Y736044D01*
X629407Y736061D01*
X629502Y736075D01*
X629598Y736084D01*
X629694Y736090D01*
X629790Y736092D01*
X629886Y736090D01*
X629982Y736084D01*
X630078Y736075D01*
X630173Y736061D01*
X630267Y736044D01*
X630361Y736023D01*
X630454Y735998D01*
X630546Y735970D01*
X630636Y735938D01*
X630726Y735902D01*
X630813Y735863D01*
X630900Y735820D01*
X630984Y735774D01*
X631066Y735725D01*
X631147Y735672D01*
X631225Y735616D01*
X631301Y735557D01*
X631374Y735495D01*
X631445Y735431D01*
X631514Y735363D01*
X631579Y735293D01*
X631642Y735220D01*
X631702Y735144D01*
X631758Y735067D01*
X631812Y734987D01*
X631862Y734905D01*
X631909Y734821D01*
X631953Y734736D01*
X631993Y734648D01*
X632029Y734559D01*
X632062Y734469D01*
X632161Y734262D01*
X632254Y734052D01*
X632342Y733839D01*
X632425Y733625D01*
X632503Y733409D01*
X632576Y733191D01*
X632644Y732971D01*
X632706Y732750D01*
X632763Y732527D01*
X632815Y732303D01*
X632861Y732078D01*
X632902Y731852D01*
X632937Y731625D01*
X632967Y731397D01*
X632992Y731168D01*
X633011Y730939D01*
X633025Y730710D01*
X633033Y730480D01*
X633036Y730250D01*
X626544Y730250D02*
X626547Y730020D01*
X626555Y729790D01*
X626569Y729561D01*
X626588Y729332D01*
X626613Y729103D01*
X626643Y728875D01*
X626678Y728648D01*
X626719Y728422D01*
X626765Y728197D01*
X626817Y727973D01*
X626874Y727750D01*
X626936Y727529D01*
X627004Y727309D01*
X627077Y727091D01*
X627155Y726875D01*
X627238Y726661D01*
X627326Y726449D01*
X627419Y726238D01*
X627518Y726031D01*
X627551Y725941D01*
X627587Y725852D01*
X627628Y725764D01*
X627671Y725679D01*
X627718Y725595D01*
X627768Y725513D01*
X627822Y725433D01*
X627878Y725356D01*
X627938Y725280D01*
X628001Y725207D01*
X628066Y725137D01*
X628135Y725069D01*
X628206Y725005D01*
X628279Y724943D01*
X628355Y724884D01*
X628433Y724828D01*
X628514Y724775D01*
X628596Y724726D01*
X628680Y724680D01*
X628767Y724637D01*
X628854Y724598D01*
X628944Y724562D01*
X629034Y724530D01*
X629126Y724502D01*
X629219Y724477D01*
X629313Y724456D01*
X629407Y724439D01*
X629502Y724425D01*
X629598Y724416D01*
X629694Y724410D01*
X629790Y724408D01*
X632062Y726031D02*
X632161Y726238D01*
X632254Y726449D01*
X632342Y726661D01*
X632425Y726875D01*
X632503Y727091D01*
X632576Y727309D01*
X632644Y727529D01*
X632706Y727750D01*
X632763Y727973D01*
X632815Y728197D01*
X632861Y728422D01*
X632902Y728648D01*
X632937Y728875D01*
X632967Y729103D01*
X632992Y729332D01*
X633011Y729561D01*
X633025Y729790D01*
X633033Y730020D01*
X633036Y730250D01*
X632062Y726031D02*
X632029Y725941D01*
X631993Y725852D01*
X631953Y725764D01*
X631909Y725679D01*
X631862Y725595D01*
X631812Y725513D01*
X631758Y725433D01*
X631702Y725356D01*
X631642Y725280D01*
X631579Y725207D01*
X631514Y725137D01*
X631445Y725069D01*
X631374Y725005D01*
X631301Y724943D01*
X631225Y724884D01*
X631147Y724828D01*
X631066Y724775D01*
X630984Y724726D01*
X630900Y724680D01*
X630813Y724637D01*
X630726Y724598D01*
X630636Y724562D01*
X630546Y724530D01*
X630454Y724502D01*
X630361Y724477D01*
X630267Y724456D01*
X630173Y724439D01*
X630078Y724425D01*
X629982Y724416D01*
X629886Y724410D01*
X629790Y724408D01*
X627193Y727004D02*
X632386Y733496D01*
X520192Y311658D02*
X508508Y311658D01*
X508508Y314904D01*
X508510Y315017D01*
X508516Y315130D01*
X508526Y315243D01*
X508540Y315356D01*
X508557Y315468D01*
X508579Y315579D01*
X508604Y315689D01*
X508634Y315799D01*
X508667Y315907D01*
X508704Y316014D01*
X508744Y316120D01*
X508789Y316224D01*
X508837Y316327D01*
X508888Y316428D01*
X508943Y316527D01*
X509001Y316624D01*
X509063Y316719D01*
X509128Y316812D01*
X509196Y316902D01*
X509267Y316990D01*
X509342Y317076D01*
X509419Y317159D01*
X509499Y317239D01*
X509582Y317316D01*
X509668Y317391D01*
X509756Y317462D01*
X509846Y317530D01*
X509939Y317595D01*
X510034Y317657D01*
X510131Y317715D01*
X510230Y317770D01*
X510331Y317821D01*
X510434Y317869D01*
X510538Y317914D01*
X510644Y317954D01*
X510751Y317991D01*
X510859Y318024D01*
X510969Y318054D01*
X511079Y318079D01*
X511190Y318101D01*
X511302Y318118D01*
X511415Y318132D01*
X511528Y318142D01*
X511641Y318148D01*
X511754Y318150D01*
X511867Y318148D01*
X511980Y318142D01*
X512093Y318132D01*
X512206Y318118D01*
X512318Y318101D01*
X512429Y318079D01*
X512539Y318054D01*
X512649Y318024D01*
X512757Y317991D01*
X512864Y317954D01*
X512970Y317914D01*
X513074Y317869D01*
X513177Y317821D01*
X513278Y317770D01*
X513377Y317715D01*
X513474Y317657D01*
X513569Y317595D01*
X513662Y317530D01*
X513752Y317462D01*
X513840Y317391D01*
X513926Y317316D01*
X514009Y317239D01*
X514089Y317159D01*
X514166Y317076D01*
X514241Y316990D01*
X514312Y316902D01*
X514380Y316812D01*
X514445Y316719D01*
X514507Y316624D01*
X514565Y316527D01*
X514620Y316428D01*
X514671Y316327D01*
X514719Y316224D01*
X514764Y316120D01*
X514804Y316014D01*
X514841Y315907D01*
X514874Y315799D01*
X514904Y315689D01*
X514929Y315579D01*
X514951Y315468D01*
X514968Y315356D01*
X514982Y315243D01*
X514992Y315130D01*
X514998Y315017D01*
X515000Y314904D01*
X514999Y314904D02*
X514999Y311658D01*
X514999Y315553D02*
X520192Y318149D01*
X511104Y323014D02*
X508508Y326260D01*
X520192Y326260D01*
X520192Y329505D02*
X520192Y323014D01*
X511104Y334444D02*
X508508Y337690D01*
X520192Y337690D01*
X520192Y340935D02*
X520192Y334444D01*
X520192Y248158D02*
X508508Y248158D01*
X508508Y251404D01*
X508510Y251517D01*
X508516Y251630D01*
X508526Y251743D01*
X508540Y251856D01*
X508557Y251968D01*
X508579Y252079D01*
X508604Y252189D01*
X508634Y252299D01*
X508667Y252407D01*
X508704Y252514D01*
X508744Y252620D01*
X508789Y252724D01*
X508837Y252827D01*
X508888Y252928D01*
X508943Y253027D01*
X509001Y253124D01*
X509063Y253219D01*
X509128Y253312D01*
X509196Y253402D01*
X509267Y253490D01*
X509342Y253576D01*
X509419Y253659D01*
X509499Y253739D01*
X509582Y253816D01*
X509668Y253891D01*
X509756Y253962D01*
X509846Y254030D01*
X509939Y254095D01*
X510034Y254157D01*
X510131Y254215D01*
X510230Y254270D01*
X510331Y254321D01*
X510434Y254369D01*
X510538Y254414D01*
X510644Y254454D01*
X510751Y254491D01*
X510859Y254524D01*
X510969Y254554D01*
X511079Y254579D01*
X511190Y254601D01*
X511302Y254618D01*
X511415Y254632D01*
X511528Y254642D01*
X511641Y254648D01*
X511754Y254650D01*
X511867Y254648D01*
X511980Y254642D01*
X512093Y254632D01*
X512206Y254618D01*
X512318Y254601D01*
X512429Y254579D01*
X512539Y254554D01*
X512649Y254524D01*
X512757Y254491D01*
X512864Y254454D01*
X512970Y254414D01*
X513074Y254369D01*
X513177Y254321D01*
X513278Y254270D01*
X513377Y254215D01*
X513474Y254157D01*
X513569Y254095D01*
X513662Y254030D01*
X513752Y253962D01*
X513840Y253891D01*
X513926Y253816D01*
X514009Y253739D01*
X514089Y253659D01*
X514166Y253576D01*
X514241Y253490D01*
X514312Y253402D01*
X514380Y253312D01*
X514445Y253219D01*
X514507Y253124D01*
X514565Y253027D01*
X514620Y252928D01*
X514671Y252827D01*
X514719Y252724D01*
X514764Y252620D01*
X514804Y252514D01*
X514841Y252407D01*
X514874Y252299D01*
X514904Y252189D01*
X514929Y252079D01*
X514951Y251968D01*
X514968Y251856D01*
X514982Y251743D01*
X514992Y251630D01*
X514998Y251517D01*
X515000Y251404D01*
X514999Y251404D02*
X514999Y248158D01*
X514999Y252053D02*
X520192Y254649D01*
X511104Y259514D02*
X508508Y262760D01*
X520192Y262760D01*
X520192Y266005D02*
X520192Y259514D01*
X508508Y274514D02*
X508510Y274621D01*
X508516Y274727D01*
X508526Y274833D01*
X508539Y274939D01*
X508557Y275045D01*
X508578Y275149D01*
X508603Y275253D01*
X508632Y275356D01*
X508664Y275457D01*
X508701Y275557D01*
X508741Y275656D01*
X508784Y275754D01*
X508831Y275850D01*
X508882Y275944D01*
X508936Y276036D01*
X508993Y276126D01*
X509053Y276214D01*
X509117Y276299D01*
X509184Y276382D01*
X509254Y276463D01*
X509326Y276541D01*
X509402Y276617D01*
X509480Y276689D01*
X509561Y276759D01*
X509644Y276826D01*
X509729Y276890D01*
X509817Y276950D01*
X509907Y277007D01*
X509999Y277061D01*
X510093Y277112D01*
X510189Y277159D01*
X510287Y277202D01*
X510386Y277242D01*
X510486Y277279D01*
X510587Y277311D01*
X510690Y277340D01*
X510794Y277365D01*
X510898Y277386D01*
X511004Y277404D01*
X511110Y277417D01*
X511216Y277427D01*
X511322Y277433D01*
X511429Y277435D01*
X508508Y274514D02*
X508510Y274393D01*
X508516Y274272D01*
X508526Y274152D01*
X508539Y274031D01*
X508557Y273912D01*
X508578Y273792D01*
X508603Y273674D01*
X508632Y273557D01*
X508665Y273440D01*
X508701Y273325D01*
X508742Y273211D01*
X508785Y273098D01*
X508833Y272986D01*
X508884Y272877D01*
X508939Y272769D01*
X508997Y272662D01*
X509058Y272558D01*
X509123Y272456D01*
X509191Y272356D01*
X509262Y272258D01*
X509336Y272162D01*
X509413Y272069D01*
X509494Y271979D01*
X509577Y271891D01*
X509663Y271806D01*
X509752Y271723D01*
X509843Y271644D01*
X509937Y271567D01*
X510033Y271494D01*
X510131Y271424D01*
X510232Y271357D01*
X510335Y271293D01*
X510440Y271233D01*
X510547Y271175D01*
X510655Y271122D01*
X510765Y271072D01*
X510877Y271026D01*
X510990Y270983D01*
X511105Y270944D01*
X513701Y276461D02*
X513623Y276540D01*
X513543Y276616D01*
X513460Y276689D01*
X513374Y276759D01*
X513287Y276826D01*
X513196Y276890D01*
X513104Y276950D01*
X513010Y277008D01*
X512913Y277062D01*
X512815Y277112D01*
X512715Y277159D01*
X512614Y277203D01*
X512511Y277243D01*
X512406Y277279D01*
X512301Y277311D01*
X512194Y277340D01*
X512087Y277365D01*
X511978Y277387D01*
X511869Y277404D01*
X511760Y277418D01*
X511650Y277427D01*
X511539Y277433D01*
X511429Y277435D01*
X513701Y276462D02*
X520192Y270944D01*
X520192Y277435D01*
X393192Y375158D02*
X381508Y375158D01*
X381508Y378404D01*
X381510Y378517D01*
X381516Y378630D01*
X381526Y378743D01*
X381540Y378856D01*
X381557Y378968D01*
X381579Y379079D01*
X381604Y379189D01*
X381634Y379299D01*
X381667Y379407D01*
X381704Y379514D01*
X381744Y379620D01*
X381789Y379724D01*
X381837Y379827D01*
X381888Y379928D01*
X381943Y380027D01*
X382001Y380124D01*
X382063Y380219D01*
X382128Y380312D01*
X382196Y380402D01*
X382267Y380490D01*
X382342Y380576D01*
X382419Y380659D01*
X382499Y380739D01*
X382582Y380816D01*
X382668Y380891D01*
X382756Y380962D01*
X382846Y381030D01*
X382939Y381095D01*
X383034Y381157D01*
X383131Y381215D01*
X383230Y381270D01*
X383331Y381321D01*
X383434Y381369D01*
X383538Y381414D01*
X383644Y381454D01*
X383751Y381491D01*
X383859Y381524D01*
X383969Y381554D01*
X384079Y381579D01*
X384190Y381601D01*
X384302Y381618D01*
X384415Y381632D01*
X384528Y381642D01*
X384641Y381648D01*
X384754Y381650D01*
X384867Y381648D01*
X384980Y381642D01*
X385093Y381632D01*
X385206Y381618D01*
X385318Y381601D01*
X385429Y381579D01*
X385539Y381554D01*
X385649Y381524D01*
X385757Y381491D01*
X385864Y381454D01*
X385970Y381414D01*
X386074Y381369D01*
X386177Y381321D01*
X386278Y381270D01*
X386377Y381215D01*
X386474Y381157D01*
X386569Y381095D01*
X386662Y381030D01*
X386752Y380962D01*
X386840Y380891D01*
X386926Y380816D01*
X387009Y380739D01*
X387089Y380659D01*
X387166Y380576D01*
X387241Y380490D01*
X387312Y380402D01*
X387380Y380312D01*
X387445Y380219D01*
X387507Y380124D01*
X387565Y380027D01*
X387620Y379928D01*
X387671Y379827D01*
X387719Y379724D01*
X387764Y379620D01*
X387804Y379514D01*
X387841Y379407D01*
X387874Y379299D01*
X387904Y379189D01*
X387929Y379079D01*
X387951Y378968D01*
X387968Y378856D01*
X387982Y378743D01*
X387992Y378630D01*
X387998Y378517D01*
X388000Y378404D01*
X387999Y378404D02*
X387999Y375158D01*
X387999Y379053D02*
X393192Y381649D01*
X384104Y386514D02*
X381508Y389760D01*
X393192Y389760D01*
X393192Y393005D02*
X393192Y386514D01*
X393192Y397944D02*
X393192Y401190D01*
X393190Y401303D01*
X393184Y401416D01*
X393174Y401529D01*
X393160Y401642D01*
X393143Y401754D01*
X393121Y401865D01*
X393096Y401975D01*
X393066Y402085D01*
X393033Y402193D01*
X392996Y402300D01*
X392956Y402406D01*
X392911Y402510D01*
X392863Y402613D01*
X392812Y402714D01*
X392757Y402813D01*
X392699Y402910D01*
X392637Y403005D01*
X392572Y403098D01*
X392504Y403188D01*
X392433Y403276D01*
X392358Y403362D01*
X392281Y403445D01*
X392201Y403525D01*
X392118Y403602D01*
X392032Y403677D01*
X391944Y403748D01*
X391854Y403816D01*
X391761Y403881D01*
X391666Y403943D01*
X391569Y404001D01*
X391470Y404056D01*
X391369Y404107D01*
X391266Y404155D01*
X391162Y404200D01*
X391056Y404240D01*
X390949Y404277D01*
X390841Y404310D01*
X390731Y404340D01*
X390621Y404365D01*
X390510Y404387D01*
X390398Y404404D01*
X390285Y404418D01*
X390172Y404428D01*
X390059Y404434D01*
X389946Y404436D01*
X389833Y404434D01*
X389720Y404428D01*
X389607Y404418D01*
X389494Y404404D01*
X389382Y404387D01*
X389271Y404365D01*
X389161Y404340D01*
X389051Y404310D01*
X388943Y404277D01*
X388836Y404240D01*
X388730Y404200D01*
X388626Y404155D01*
X388523Y404107D01*
X388422Y404056D01*
X388323Y404001D01*
X388226Y403943D01*
X388131Y403881D01*
X388038Y403816D01*
X387948Y403748D01*
X387860Y403677D01*
X387774Y403602D01*
X387691Y403525D01*
X387611Y403445D01*
X387534Y403362D01*
X387459Y403276D01*
X387388Y403188D01*
X387320Y403098D01*
X387255Y403005D01*
X387193Y402910D01*
X387135Y402813D01*
X387080Y402714D01*
X387029Y402613D01*
X386981Y402510D01*
X386936Y402406D01*
X386896Y402300D01*
X386859Y402193D01*
X386826Y402085D01*
X386796Y401975D01*
X386771Y401865D01*
X386749Y401754D01*
X386732Y401642D01*
X386718Y401529D01*
X386708Y401416D01*
X386702Y401303D01*
X386700Y401190D01*
X381508Y401839D02*
X381508Y397944D01*
X381508Y401839D02*
X381510Y401940D01*
X381516Y402040D01*
X381526Y402140D01*
X381539Y402240D01*
X381557Y402339D01*
X381578Y402438D01*
X381603Y402535D01*
X381632Y402632D01*
X381665Y402727D01*
X381701Y402821D01*
X381741Y402913D01*
X381784Y403004D01*
X381831Y403093D01*
X381881Y403180D01*
X381935Y403266D01*
X381992Y403349D01*
X382052Y403429D01*
X382115Y403508D01*
X382182Y403584D01*
X382251Y403657D01*
X382323Y403727D01*
X382397Y403795D01*
X382474Y403860D01*
X382554Y403921D01*
X382636Y403980D01*
X382720Y404035D01*
X382806Y404087D01*
X382894Y404136D01*
X382984Y404181D01*
X383076Y404223D01*
X383169Y404261D01*
X383264Y404295D01*
X383359Y404326D01*
X383456Y404353D01*
X383554Y404376D01*
X383653Y404396D01*
X383753Y404411D01*
X383853Y404423D01*
X383953Y404431D01*
X384054Y404435D01*
X384154Y404435D01*
X384255Y404431D01*
X384355Y404423D01*
X384455Y404411D01*
X384555Y404396D01*
X384654Y404376D01*
X384752Y404353D01*
X384849Y404326D01*
X384944Y404295D01*
X385039Y404261D01*
X385132Y404223D01*
X385224Y404181D01*
X385314Y404136D01*
X385402Y404087D01*
X385488Y404035D01*
X385572Y403980D01*
X385654Y403921D01*
X385734Y403860D01*
X385811Y403795D01*
X385885Y403727D01*
X385957Y403657D01*
X386026Y403584D01*
X386093Y403508D01*
X386156Y403429D01*
X386216Y403349D01*
X386273Y403266D01*
X386327Y403180D01*
X386377Y403093D01*
X386424Y403004D01*
X386467Y402913D01*
X386507Y402821D01*
X386543Y402727D01*
X386576Y402632D01*
X386605Y402535D01*
X386630Y402438D01*
X386651Y402339D01*
X386669Y402240D01*
X386682Y402140D01*
X386692Y402040D01*
X386698Y401940D01*
X386700Y401839D01*
X386701Y401839D02*
X386701Y399243D01*
X367792Y311658D02*
X356108Y311658D01*
X356108Y314904D01*
X356110Y315017D01*
X356116Y315130D01*
X356126Y315243D01*
X356140Y315356D01*
X356157Y315468D01*
X356179Y315579D01*
X356204Y315689D01*
X356234Y315799D01*
X356267Y315907D01*
X356304Y316014D01*
X356344Y316120D01*
X356389Y316224D01*
X356437Y316327D01*
X356488Y316428D01*
X356543Y316527D01*
X356601Y316624D01*
X356663Y316719D01*
X356728Y316812D01*
X356796Y316902D01*
X356867Y316990D01*
X356942Y317076D01*
X357019Y317159D01*
X357099Y317239D01*
X357182Y317316D01*
X357268Y317391D01*
X357356Y317462D01*
X357446Y317530D01*
X357539Y317595D01*
X357634Y317657D01*
X357731Y317715D01*
X357830Y317770D01*
X357931Y317821D01*
X358034Y317869D01*
X358138Y317914D01*
X358244Y317954D01*
X358351Y317991D01*
X358459Y318024D01*
X358569Y318054D01*
X358679Y318079D01*
X358790Y318101D01*
X358902Y318118D01*
X359015Y318132D01*
X359128Y318142D01*
X359241Y318148D01*
X359354Y318150D01*
X359467Y318148D01*
X359580Y318142D01*
X359693Y318132D01*
X359806Y318118D01*
X359918Y318101D01*
X360029Y318079D01*
X360139Y318054D01*
X360249Y318024D01*
X360357Y317991D01*
X360464Y317954D01*
X360570Y317914D01*
X360674Y317869D01*
X360777Y317821D01*
X360878Y317770D01*
X360977Y317715D01*
X361074Y317657D01*
X361169Y317595D01*
X361262Y317530D01*
X361352Y317462D01*
X361440Y317391D01*
X361526Y317316D01*
X361609Y317239D01*
X361689Y317159D01*
X361766Y317076D01*
X361841Y316990D01*
X361912Y316902D01*
X361980Y316812D01*
X362045Y316719D01*
X362107Y316624D01*
X362165Y316527D01*
X362220Y316428D01*
X362271Y316327D01*
X362319Y316224D01*
X362364Y316120D01*
X362404Y316014D01*
X362441Y315907D01*
X362474Y315799D01*
X362504Y315689D01*
X362529Y315579D01*
X362551Y315468D01*
X362568Y315356D01*
X362582Y315243D01*
X362592Y315130D01*
X362598Y315017D01*
X362600Y314904D01*
X362599Y314904D02*
X362599Y311658D01*
X362599Y315553D02*
X367792Y318149D01*
X358704Y323014D02*
X356108Y326260D01*
X367792Y326260D01*
X367792Y329505D02*
X367792Y323014D01*
X365196Y334444D02*
X356108Y337041D01*
X365196Y334444D02*
X365196Y340935D01*
X362599Y338988D02*
X367792Y338988D01*
X367792Y248158D02*
X356108Y248158D01*
X356108Y251404D01*
X356110Y251517D01*
X356116Y251630D01*
X356126Y251743D01*
X356140Y251856D01*
X356157Y251968D01*
X356179Y252079D01*
X356204Y252189D01*
X356234Y252299D01*
X356267Y252407D01*
X356304Y252514D01*
X356344Y252620D01*
X356389Y252724D01*
X356437Y252827D01*
X356488Y252928D01*
X356543Y253027D01*
X356601Y253124D01*
X356663Y253219D01*
X356728Y253312D01*
X356796Y253402D01*
X356867Y253490D01*
X356942Y253576D01*
X357019Y253659D01*
X357099Y253739D01*
X357182Y253816D01*
X357268Y253891D01*
X357356Y253962D01*
X357446Y254030D01*
X357539Y254095D01*
X357634Y254157D01*
X357731Y254215D01*
X357830Y254270D01*
X357931Y254321D01*
X358034Y254369D01*
X358138Y254414D01*
X358244Y254454D01*
X358351Y254491D01*
X358459Y254524D01*
X358569Y254554D01*
X358679Y254579D01*
X358790Y254601D01*
X358902Y254618D01*
X359015Y254632D01*
X359128Y254642D01*
X359241Y254648D01*
X359354Y254650D01*
X359467Y254648D01*
X359580Y254642D01*
X359693Y254632D01*
X359806Y254618D01*
X359918Y254601D01*
X360029Y254579D01*
X360139Y254554D01*
X360249Y254524D01*
X360357Y254491D01*
X360464Y254454D01*
X360570Y254414D01*
X360674Y254369D01*
X360777Y254321D01*
X360878Y254270D01*
X360977Y254215D01*
X361074Y254157D01*
X361169Y254095D01*
X361262Y254030D01*
X361352Y253962D01*
X361440Y253891D01*
X361526Y253816D01*
X361609Y253739D01*
X361689Y253659D01*
X361766Y253576D01*
X361841Y253490D01*
X361912Y253402D01*
X361980Y253312D01*
X362045Y253219D01*
X362107Y253124D01*
X362165Y253027D01*
X362220Y252928D01*
X362271Y252827D01*
X362319Y252724D01*
X362364Y252620D01*
X362404Y252514D01*
X362441Y252407D01*
X362474Y252299D01*
X362504Y252189D01*
X362529Y252079D01*
X362551Y251968D01*
X362568Y251856D01*
X362582Y251743D01*
X362592Y251630D01*
X362598Y251517D01*
X362600Y251404D01*
X362599Y251404D02*
X362599Y248158D01*
X362599Y252053D02*
X367792Y254649D01*
X358704Y259514D02*
X356108Y262760D01*
X367792Y262760D01*
X367792Y266005D02*
X367792Y259514D01*
X367792Y270944D02*
X367792Y274839D01*
X367790Y274938D01*
X367784Y275038D01*
X367775Y275137D01*
X367762Y275235D01*
X367745Y275333D01*
X367724Y275431D01*
X367699Y275527D01*
X367671Y275622D01*
X367639Y275716D01*
X367604Y275809D01*
X367565Y275901D01*
X367522Y275991D01*
X367477Y276079D01*
X367427Y276166D01*
X367375Y276250D01*
X367319Y276333D01*
X367261Y276413D01*
X367199Y276491D01*
X367134Y276566D01*
X367066Y276639D01*
X366996Y276709D01*
X366923Y276777D01*
X366848Y276842D01*
X366770Y276904D01*
X366690Y276962D01*
X366607Y277018D01*
X366523Y277070D01*
X366436Y277120D01*
X366348Y277165D01*
X366258Y277208D01*
X366166Y277247D01*
X366073Y277282D01*
X365979Y277314D01*
X365884Y277342D01*
X365788Y277367D01*
X365690Y277388D01*
X365592Y277405D01*
X365494Y277418D01*
X365395Y277427D01*
X365295Y277433D01*
X365196Y277435D01*
X363897Y277435D01*
X363798Y277433D01*
X363698Y277427D01*
X363599Y277418D01*
X363501Y277405D01*
X363403Y277388D01*
X363305Y277367D01*
X363209Y277342D01*
X363114Y277314D01*
X363020Y277282D01*
X362927Y277247D01*
X362835Y277208D01*
X362745Y277165D01*
X362657Y277120D01*
X362570Y277070D01*
X362486Y277018D01*
X362403Y276962D01*
X362323Y276904D01*
X362245Y276842D01*
X362170Y276777D01*
X362097Y276709D01*
X362027Y276639D01*
X361959Y276566D01*
X361894Y276491D01*
X361832Y276413D01*
X361774Y276333D01*
X361718Y276250D01*
X361666Y276166D01*
X361616Y276079D01*
X361571Y275991D01*
X361528Y275901D01*
X361489Y275809D01*
X361454Y275716D01*
X361422Y275622D01*
X361394Y275527D01*
X361369Y275431D01*
X361348Y275333D01*
X361331Y275235D01*
X361318Y275137D01*
X361309Y275038D01*
X361303Y274938D01*
X361301Y274839D01*
X361301Y270944D01*
X356108Y270944D01*
X356108Y277435D01*
D19*
X531600Y1002300D02*
X561600Y1002300D01*
X531600Y1002300D02*
X433600Y1002300D01*
X403600Y1002300D01*
X403600Y923300D02*
X561600Y923300D01*
X527600Y1091300D02*
X437600Y1091300D01*
X531600Y1022300D02*
X531600Y1002300D01*
X531600Y1040300D02*
X531600Y1087300D01*
X433600Y1022300D02*
X433600Y1002300D01*
X433600Y1040300D02*
X433600Y1087300D01*
X561600Y1002300D02*
X561600Y923300D01*
X403600Y923300D02*
X403600Y1002300D01*
X453600Y1452300D02*
X511600Y1452300D01*
X511600Y1092300D01*
X453600Y1092300D02*
X453600Y1452300D01*
X527600Y1091300D02*
X531600Y1087300D01*
X437600Y1091300D02*
X433600Y1087300D01*
X531600Y1022300D02*
X539600Y1022300D01*
X531600Y1022300D02*
X433600Y1022300D01*
X425600Y1022300D01*
X418600Y1023300D01*
X415600Y1024300D01*
X415600Y1038300D01*
X418600Y1039300D01*
X425600Y1040300D01*
X433600Y1040300D01*
X531600Y1040300D01*
X539600Y1040300D01*
X546600Y1039300D01*
X549600Y1038300D01*
X549600Y1024300D01*
X546600Y1023300D01*
X539600Y1022300D01*
X452600Y1025300D02*
X448600Y1027300D01*
X452600Y1025300D02*
X460600Y1023300D01*
X468600Y1022300D01*
X512600Y1025300D02*
X516600Y1027300D01*
X512600Y1025300D02*
X504600Y1023300D01*
X496600Y1022300D01*
X504600Y1039300D02*
X512600Y1037300D01*
X504600Y1039300D02*
X496600Y1040300D01*
X452600Y1037300D02*
X448600Y1035300D01*
X452600Y1037300D02*
X460600Y1039300D01*
X468600Y1040300D01*
X516600Y1035300D02*
X520600Y1037300D01*
X528600Y1039300D01*
X536600Y1040300D01*
X520600Y1025300D02*
X516600Y1027300D01*
X520600Y1025300D02*
X528600Y1023300D01*
X536600Y1022300D01*
X448600Y1027300D02*
X444600Y1025300D01*
X436600Y1023300D01*
X428600Y1022300D01*
X444600Y1037300D02*
X448600Y1035300D01*
X444600Y1037300D02*
X436600Y1039300D01*
X428600Y1040300D01*
X516600Y1035300D02*
X516600Y1027300D01*
X448600Y1027300D02*
X448600Y1035300D01*
X512672Y1037300D02*
X516672Y1035300D01*
D10*
X566308Y979745D02*
X577992Y979745D01*
X566308Y979745D02*
X566308Y982990D01*
X566310Y983103D01*
X566316Y983216D01*
X566326Y983329D01*
X566340Y983442D01*
X566357Y983554D01*
X566379Y983665D01*
X566404Y983775D01*
X566434Y983885D01*
X566467Y983993D01*
X566504Y984100D01*
X566544Y984206D01*
X566589Y984310D01*
X566637Y984413D01*
X566688Y984514D01*
X566743Y984613D01*
X566801Y984710D01*
X566863Y984805D01*
X566928Y984898D01*
X566996Y984988D01*
X567067Y985076D01*
X567142Y985162D01*
X567219Y985245D01*
X567299Y985325D01*
X567382Y985402D01*
X567468Y985477D01*
X567556Y985548D01*
X567646Y985616D01*
X567739Y985681D01*
X567834Y985743D01*
X567931Y985801D01*
X568030Y985856D01*
X568131Y985907D01*
X568234Y985955D01*
X568338Y986000D01*
X568444Y986040D01*
X568551Y986077D01*
X568659Y986110D01*
X568769Y986140D01*
X568879Y986165D01*
X568990Y986187D01*
X569102Y986204D01*
X569215Y986218D01*
X569328Y986228D01*
X569441Y986234D01*
X569554Y986236D01*
X569667Y986234D01*
X569780Y986228D01*
X569893Y986218D01*
X570006Y986204D01*
X570118Y986187D01*
X570229Y986165D01*
X570339Y986140D01*
X570449Y986110D01*
X570557Y986077D01*
X570664Y986040D01*
X570770Y986000D01*
X570874Y985955D01*
X570977Y985907D01*
X571078Y985856D01*
X571177Y985801D01*
X571274Y985743D01*
X571369Y985681D01*
X571462Y985616D01*
X571552Y985548D01*
X571640Y985477D01*
X571726Y985402D01*
X571809Y985325D01*
X571889Y985245D01*
X571966Y985162D01*
X572041Y985076D01*
X572112Y984988D01*
X572180Y984898D01*
X572245Y984805D01*
X572307Y984710D01*
X572365Y984613D01*
X572420Y984514D01*
X572471Y984413D01*
X572519Y984310D01*
X572564Y984206D01*
X572604Y984100D01*
X572641Y983993D01*
X572674Y983885D01*
X572704Y983775D01*
X572729Y983665D01*
X572751Y983554D01*
X572768Y983442D01*
X572782Y983329D01*
X572792Y983216D01*
X572798Y983103D01*
X572800Y982990D01*
X572799Y982990D02*
X572799Y979745D01*
X572799Y983639D02*
X577992Y986236D01*
X569229Y997592D02*
X569122Y997590D01*
X569016Y997584D01*
X568910Y997574D01*
X568804Y997561D01*
X568698Y997543D01*
X568594Y997522D01*
X568490Y997497D01*
X568387Y997468D01*
X568286Y997436D01*
X568186Y997399D01*
X568087Y997359D01*
X567989Y997316D01*
X567893Y997269D01*
X567799Y997218D01*
X567707Y997164D01*
X567617Y997107D01*
X567529Y997047D01*
X567444Y996983D01*
X567361Y996916D01*
X567280Y996846D01*
X567202Y996774D01*
X567126Y996698D01*
X567054Y996620D01*
X566984Y996539D01*
X566917Y996456D01*
X566853Y996371D01*
X566793Y996283D01*
X566736Y996193D01*
X566682Y996101D01*
X566631Y996007D01*
X566584Y995911D01*
X566541Y995813D01*
X566501Y995714D01*
X566464Y995614D01*
X566432Y995513D01*
X566403Y995410D01*
X566378Y995306D01*
X566357Y995202D01*
X566339Y995096D01*
X566326Y994990D01*
X566316Y994884D01*
X566310Y994778D01*
X566308Y994671D01*
X566310Y994550D01*
X566316Y994429D01*
X566326Y994309D01*
X566339Y994188D01*
X566357Y994069D01*
X566378Y993949D01*
X566403Y993831D01*
X566432Y993714D01*
X566465Y993597D01*
X566501Y993482D01*
X566542Y993368D01*
X566585Y993255D01*
X566633Y993143D01*
X566684Y993034D01*
X566739Y992926D01*
X566797Y992819D01*
X566858Y992715D01*
X566923Y992613D01*
X566991Y992513D01*
X567062Y992415D01*
X567136Y992319D01*
X567213Y992226D01*
X567294Y992136D01*
X567377Y992048D01*
X567463Y991963D01*
X567552Y991880D01*
X567643Y991801D01*
X567737Y991724D01*
X567833Y991651D01*
X567931Y991581D01*
X568032Y991514D01*
X568135Y991450D01*
X568240Y991390D01*
X568347Y991332D01*
X568455Y991279D01*
X568565Y991229D01*
X568677Y991183D01*
X568790Y991140D01*
X568905Y991101D01*
X571501Y996618D02*
X571423Y996697D01*
X571343Y996773D01*
X571260Y996846D01*
X571174Y996916D01*
X571087Y996983D01*
X570996Y997047D01*
X570904Y997107D01*
X570810Y997165D01*
X570713Y997219D01*
X570615Y997269D01*
X570515Y997316D01*
X570414Y997360D01*
X570311Y997400D01*
X570206Y997436D01*
X570101Y997468D01*
X569994Y997497D01*
X569887Y997522D01*
X569778Y997544D01*
X569669Y997561D01*
X569560Y997575D01*
X569450Y997584D01*
X569339Y997590D01*
X569229Y997592D01*
X571501Y996618D02*
X577992Y991101D01*
X577992Y997592D01*
X443992Y375158D02*
X432308Y375158D01*
X432308Y378404D01*
X432310Y378517D01*
X432316Y378630D01*
X432326Y378743D01*
X432340Y378856D01*
X432357Y378968D01*
X432379Y379079D01*
X432404Y379189D01*
X432434Y379299D01*
X432467Y379407D01*
X432504Y379514D01*
X432544Y379620D01*
X432589Y379724D01*
X432637Y379827D01*
X432688Y379928D01*
X432743Y380027D01*
X432801Y380124D01*
X432863Y380219D01*
X432928Y380312D01*
X432996Y380402D01*
X433067Y380490D01*
X433142Y380576D01*
X433219Y380659D01*
X433299Y380739D01*
X433382Y380816D01*
X433468Y380891D01*
X433556Y380962D01*
X433646Y381030D01*
X433739Y381095D01*
X433834Y381157D01*
X433931Y381215D01*
X434030Y381270D01*
X434131Y381321D01*
X434234Y381369D01*
X434338Y381414D01*
X434444Y381454D01*
X434551Y381491D01*
X434659Y381524D01*
X434769Y381554D01*
X434879Y381579D01*
X434990Y381601D01*
X435102Y381618D01*
X435215Y381632D01*
X435328Y381642D01*
X435441Y381648D01*
X435554Y381650D01*
X435667Y381648D01*
X435780Y381642D01*
X435893Y381632D01*
X436006Y381618D01*
X436118Y381601D01*
X436229Y381579D01*
X436339Y381554D01*
X436449Y381524D01*
X436557Y381491D01*
X436664Y381454D01*
X436770Y381414D01*
X436874Y381369D01*
X436977Y381321D01*
X437078Y381270D01*
X437177Y381215D01*
X437274Y381157D01*
X437369Y381095D01*
X437462Y381030D01*
X437552Y380962D01*
X437640Y380891D01*
X437726Y380816D01*
X437809Y380739D01*
X437889Y380659D01*
X437966Y380576D01*
X438041Y380490D01*
X438112Y380402D01*
X438180Y380312D01*
X438245Y380219D01*
X438307Y380124D01*
X438365Y380027D01*
X438420Y379928D01*
X438471Y379827D01*
X438519Y379724D01*
X438564Y379620D01*
X438604Y379514D01*
X438641Y379407D01*
X438674Y379299D01*
X438704Y379189D01*
X438729Y379079D01*
X438751Y378968D01*
X438768Y378856D01*
X438782Y378743D01*
X438792Y378630D01*
X438798Y378517D01*
X438800Y378404D01*
X438799Y378404D02*
X438799Y375158D01*
X438799Y379053D02*
X443992Y381649D01*
X443992Y386514D02*
X443992Y389760D01*
X443990Y389873D01*
X443984Y389986D01*
X443974Y390099D01*
X443960Y390212D01*
X443943Y390324D01*
X443921Y390435D01*
X443896Y390545D01*
X443866Y390655D01*
X443833Y390763D01*
X443796Y390870D01*
X443756Y390976D01*
X443711Y391080D01*
X443663Y391183D01*
X443612Y391284D01*
X443557Y391383D01*
X443499Y391480D01*
X443437Y391575D01*
X443372Y391668D01*
X443304Y391758D01*
X443233Y391846D01*
X443158Y391932D01*
X443081Y392015D01*
X443001Y392095D01*
X442918Y392172D01*
X442832Y392247D01*
X442744Y392318D01*
X442654Y392386D01*
X442561Y392451D01*
X442466Y392513D01*
X442369Y392571D01*
X442270Y392626D01*
X442169Y392677D01*
X442066Y392725D01*
X441962Y392770D01*
X441856Y392810D01*
X441749Y392847D01*
X441641Y392880D01*
X441531Y392910D01*
X441421Y392935D01*
X441310Y392957D01*
X441198Y392974D01*
X441085Y392988D01*
X440972Y392998D01*
X440859Y393004D01*
X440746Y393006D01*
X440633Y393004D01*
X440520Y392998D01*
X440407Y392988D01*
X440294Y392974D01*
X440182Y392957D01*
X440071Y392935D01*
X439961Y392910D01*
X439851Y392880D01*
X439743Y392847D01*
X439636Y392810D01*
X439530Y392770D01*
X439426Y392725D01*
X439323Y392677D01*
X439222Y392626D01*
X439123Y392571D01*
X439026Y392513D01*
X438931Y392451D01*
X438838Y392386D01*
X438748Y392318D01*
X438660Y392247D01*
X438574Y392172D01*
X438491Y392095D01*
X438411Y392015D01*
X438334Y391932D01*
X438259Y391846D01*
X438188Y391758D01*
X438120Y391668D01*
X438055Y391575D01*
X437993Y391480D01*
X437935Y391383D01*
X437880Y391284D01*
X437829Y391183D01*
X437781Y391080D01*
X437736Y390976D01*
X437696Y390870D01*
X437659Y390763D01*
X437626Y390655D01*
X437596Y390545D01*
X437571Y390435D01*
X437549Y390324D01*
X437532Y390212D01*
X437518Y390099D01*
X437508Y389986D01*
X437502Y389873D01*
X437500Y389760D01*
X432308Y390409D02*
X432308Y386514D01*
X432308Y390409D02*
X432310Y390510D01*
X432316Y390610D01*
X432326Y390710D01*
X432339Y390810D01*
X432357Y390909D01*
X432378Y391008D01*
X432403Y391105D01*
X432432Y391202D01*
X432465Y391297D01*
X432501Y391391D01*
X432541Y391483D01*
X432584Y391574D01*
X432631Y391663D01*
X432681Y391750D01*
X432735Y391836D01*
X432792Y391919D01*
X432852Y391999D01*
X432915Y392078D01*
X432982Y392154D01*
X433051Y392227D01*
X433123Y392297D01*
X433197Y392365D01*
X433274Y392430D01*
X433354Y392491D01*
X433436Y392550D01*
X433520Y392605D01*
X433606Y392657D01*
X433694Y392706D01*
X433784Y392751D01*
X433876Y392793D01*
X433969Y392831D01*
X434064Y392865D01*
X434159Y392896D01*
X434256Y392923D01*
X434354Y392946D01*
X434453Y392966D01*
X434553Y392981D01*
X434653Y392993D01*
X434753Y393001D01*
X434854Y393005D01*
X434954Y393005D01*
X435055Y393001D01*
X435155Y392993D01*
X435255Y392981D01*
X435355Y392966D01*
X435454Y392946D01*
X435552Y392923D01*
X435649Y392896D01*
X435744Y392865D01*
X435839Y392831D01*
X435932Y392793D01*
X436024Y392751D01*
X436114Y392706D01*
X436202Y392657D01*
X436288Y392605D01*
X436372Y392550D01*
X436454Y392491D01*
X436534Y392430D01*
X436611Y392365D01*
X436685Y392297D01*
X436757Y392227D01*
X436826Y392154D01*
X436893Y392078D01*
X436956Y391999D01*
X437016Y391919D01*
X437073Y391836D01*
X437127Y391750D01*
X437177Y391663D01*
X437224Y391574D01*
X437267Y391483D01*
X437307Y391391D01*
X437343Y391297D01*
X437376Y391202D01*
X437405Y391105D01*
X437430Y391008D01*
X437451Y390909D01*
X437469Y390810D01*
X437482Y390710D01*
X437492Y390610D01*
X437498Y390510D01*
X437500Y390409D01*
X437501Y390409D02*
X437501Y387813D01*
X432308Y311658D02*
X443992Y311658D01*
X432308Y311658D02*
X432308Y314904D01*
X432310Y315017D01*
X432316Y315130D01*
X432326Y315243D01*
X432340Y315356D01*
X432357Y315468D01*
X432379Y315579D01*
X432404Y315689D01*
X432434Y315799D01*
X432467Y315907D01*
X432504Y316014D01*
X432544Y316120D01*
X432589Y316224D01*
X432637Y316327D01*
X432688Y316428D01*
X432743Y316527D01*
X432801Y316624D01*
X432863Y316719D01*
X432928Y316812D01*
X432996Y316902D01*
X433067Y316990D01*
X433142Y317076D01*
X433219Y317159D01*
X433299Y317239D01*
X433382Y317316D01*
X433468Y317391D01*
X433556Y317462D01*
X433646Y317530D01*
X433739Y317595D01*
X433834Y317657D01*
X433931Y317715D01*
X434030Y317770D01*
X434131Y317821D01*
X434234Y317869D01*
X434338Y317914D01*
X434444Y317954D01*
X434551Y317991D01*
X434659Y318024D01*
X434769Y318054D01*
X434879Y318079D01*
X434990Y318101D01*
X435102Y318118D01*
X435215Y318132D01*
X435328Y318142D01*
X435441Y318148D01*
X435554Y318150D01*
X435667Y318148D01*
X435780Y318142D01*
X435893Y318132D01*
X436006Y318118D01*
X436118Y318101D01*
X436229Y318079D01*
X436339Y318054D01*
X436449Y318024D01*
X436557Y317991D01*
X436664Y317954D01*
X436770Y317914D01*
X436874Y317869D01*
X436977Y317821D01*
X437078Y317770D01*
X437177Y317715D01*
X437274Y317657D01*
X437369Y317595D01*
X437462Y317530D01*
X437552Y317462D01*
X437640Y317391D01*
X437726Y317316D01*
X437809Y317239D01*
X437889Y317159D01*
X437966Y317076D01*
X438041Y316990D01*
X438112Y316902D01*
X438180Y316812D01*
X438245Y316719D01*
X438307Y316624D01*
X438365Y316527D01*
X438420Y316428D01*
X438471Y316327D01*
X438519Y316224D01*
X438564Y316120D01*
X438604Y316014D01*
X438641Y315907D01*
X438674Y315799D01*
X438704Y315689D01*
X438729Y315579D01*
X438751Y315468D01*
X438768Y315356D01*
X438782Y315243D01*
X438792Y315130D01*
X438798Y315017D01*
X438800Y314904D01*
X438799Y314904D02*
X438799Y311658D01*
X438799Y315553D02*
X443992Y318149D01*
X441396Y323014D02*
X432308Y325611D01*
X441396Y323014D02*
X441396Y329505D01*
X438799Y327558D02*
X443992Y327558D01*
X443992Y248158D02*
X432308Y248158D01*
X432308Y251404D01*
X432310Y251517D01*
X432316Y251630D01*
X432326Y251743D01*
X432340Y251856D01*
X432357Y251968D01*
X432379Y252079D01*
X432404Y252189D01*
X432434Y252299D01*
X432467Y252407D01*
X432504Y252514D01*
X432544Y252620D01*
X432589Y252724D01*
X432637Y252827D01*
X432688Y252928D01*
X432743Y253027D01*
X432801Y253124D01*
X432863Y253219D01*
X432928Y253312D01*
X432996Y253402D01*
X433067Y253490D01*
X433142Y253576D01*
X433219Y253659D01*
X433299Y253739D01*
X433382Y253816D01*
X433468Y253891D01*
X433556Y253962D01*
X433646Y254030D01*
X433739Y254095D01*
X433834Y254157D01*
X433931Y254215D01*
X434030Y254270D01*
X434131Y254321D01*
X434234Y254369D01*
X434338Y254414D01*
X434444Y254454D01*
X434551Y254491D01*
X434659Y254524D01*
X434769Y254554D01*
X434879Y254579D01*
X434990Y254601D01*
X435102Y254618D01*
X435215Y254632D01*
X435328Y254642D01*
X435441Y254648D01*
X435554Y254650D01*
X435667Y254648D01*
X435780Y254642D01*
X435893Y254632D01*
X436006Y254618D01*
X436118Y254601D01*
X436229Y254579D01*
X436339Y254554D01*
X436449Y254524D01*
X436557Y254491D01*
X436664Y254454D01*
X436770Y254414D01*
X436874Y254369D01*
X436977Y254321D01*
X437078Y254270D01*
X437177Y254215D01*
X437274Y254157D01*
X437369Y254095D01*
X437462Y254030D01*
X437552Y253962D01*
X437640Y253891D01*
X437726Y253816D01*
X437809Y253739D01*
X437889Y253659D01*
X437966Y253576D01*
X438041Y253490D01*
X438112Y253402D01*
X438180Y253312D01*
X438245Y253219D01*
X438307Y253124D01*
X438365Y253027D01*
X438420Y252928D01*
X438471Y252827D01*
X438519Y252724D01*
X438564Y252620D01*
X438604Y252514D01*
X438641Y252407D01*
X438674Y252299D01*
X438704Y252189D01*
X438729Y252079D01*
X438751Y251968D01*
X438768Y251856D01*
X438782Y251743D01*
X438792Y251630D01*
X438798Y251517D01*
X438800Y251404D01*
X438799Y251404D02*
X438799Y248158D01*
X438799Y252053D02*
X443992Y254649D01*
X443992Y259514D02*
X443992Y263409D01*
X443990Y263508D01*
X443984Y263608D01*
X443975Y263707D01*
X443962Y263805D01*
X443945Y263903D01*
X443924Y264001D01*
X443899Y264097D01*
X443871Y264192D01*
X443839Y264286D01*
X443804Y264379D01*
X443765Y264471D01*
X443722Y264561D01*
X443677Y264649D01*
X443627Y264736D01*
X443575Y264820D01*
X443519Y264903D01*
X443461Y264983D01*
X443399Y265061D01*
X443334Y265136D01*
X443266Y265209D01*
X443196Y265279D01*
X443123Y265347D01*
X443048Y265412D01*
X442970Y265474D01*
X442890Y265532D01*
X442807Y265588D01*
X442723Y265640D01*
X442636Y265690D01*
X442548Y265735D01*
X442458Y265778D01*
X442366Y265817D01*
X442273Y265852D01*
X442179Y265884D01*
X442084Y265912D01*
X441988Y265937D01*
X441890Y265958D01*
X441792Y265975D01*
X441694Y265988D01*
X441595Y265997D01*
X441495Y266003D01*
X441396Y266005D01*
X440097Y266005D01*
X439998Y266003D01*
X439898Y265997D01*
X439799Y265988D01*
X439701Y265975D01*
X439603Y265958D01*
X439505Y265937D01*
X439409Y265912D01*
X439314Y265884D01*
X439220Y265852D01*
X439127Y265817D01*
X439035Y265778D01*
X438945Y265735D01*
X438857Y265690D01*
X438770Y265640D01*
X438686Y265588D01*
X438603Y265532D01*
X438523Y265474D01*
X438445Y265412D01*
X438370Y265347D01*
X438297Y265279D01*
X438227Y265209D01*
X438159Y265136D01*
X438094Y265061D01*
X438032Y264983D01*
X437974Y264903D01*
X437918Y264820D01*
X437866Y264736D01*
X437816Y264649D01*
X437771Y264561D01*
X437728Y264471D01*
X437689Y264379D01*
X437654Y264286D01*
X437622Y264192D01*
X437594Y264097D01*
X437569Y264001D01*
X437548Y263903D01*
X437531Y263805D01*
X437518Y263707D01*
X437509Y263608D01*
X437503Y263508D01*
X437501Y263409D01*
X437501Y259514D01*
X432308Y259514D01*
X432308Y266005D01*
X508508Y375158D02*
X520192Y375158D01*
X508508Y375158D02*
X508508Y378404D01*
X508510Y378517D01*
X508516Y378630D01*
X508526Y378743D01*
X508540Y378856D01*
X508557Y378968D01*
X508579Y379079D01*
X508604Y379189D01*
X508634Y379299D01*
X508667Y379407D01*
X508704Y379514D01*
X508744Y379620D01*
X508789Y379724D01*
X508837Y379827D01*
X508888Y379928D01*
X508943Y380027D01*
X509001Y380124D01*
X509063Y380219D01*
X509128Y380312D01*
X509196Y380402D01*
X509267Y380490D01*
X509342Y380576D01*
X509419Y380659D01*
X509499Y380739D01*
X509582Y380816D01*
X509668Y380891D01*
X509756Y380962D01*
X509846Y381030D01*
X509939Y381095D01*
X510034Y381157D01*
X510131Y381215D01*
X510230Y381270D01*
X510331Y381321D01*
X510434Y381369D01*
X510538Y381414D01*
X510644Y381454D01*
X510751Y381491D01*
X510859Y381524D01*
X510969Y381554D01*
X511079Y381579D01*
X511190Y381601D01*
X511302Y381618D01*
X511415Y381632D01*
X511528Y381642D01*
X511641Y381648D01*
X511754Y381650D01*
X511867Y381648D01*
X511980Y381642D01*
X512093Y381632D01*
X512206Y381618D01*
X512318Y381601D01*
X512429Y381579D01*
X512539Y381554D01*
X512649Y381524D01*
X512757Y381491D01*
X512864Y381454D01*
X512970Y381414D01*
X513074Y381369D01*
X513177Y381321D01*
X513278Y381270D01*
X513377Y381215D01*
X513474Y381157D01*
X513569Y381095D01*
X513662Y381030D01*
X513752Y380962D01*
X513840Y380891D01*
X513926Y380816D01*
X514009Y380739D01*
X514089Y380659D01*
X514166Y380576D01*
X514241Y380490D01*
X514312Y380402D01*
X514380Y380312D01*
X514445Y380219D01*
X514507Y380124D01*
X514565Y380027D01*
X514620Y379928D01*
X514671Y379827D01*
X514719Y379724D01*
X514764Y379620D01*
X514804Y379514D01*
X514841Y379407D01*
X514874Y379299D01*
X514904Y379189D01*
X514929Y379079D01*
X514951Y378968D01*
X514968Y378856D01*
X514982Y378743D01*
X514992Y378630D01*
X514998Y378517D01*
X515000Y378404D01*
X514999Y378404D02*
X514999Y375158D01*
X514999Y379053D02*
X520192Y381649D01*
X513701Y386514D02*
X513701Y390409D01*
X513703Y390508D01*
X513709Y390608D01*
X513718Y390707D01*
X513731Y390805D01*
X513748Y390903D01*
X513769Y391001D01*
X513794Y391097D01*
X513822Y391192D01*
X513854Y391286D01*
X513889Y391379D01*
X513928Y391471D01*
X513971Y391561D01*
X514016Y391649D01*
X514066Y391736D01*
X514118Y391820D01*
X514174Y391903D01*
X514232Y391983D01*
X514294Y392061D01*
X514359Y392136D01*
X514427Y392209D01*
X514497Y392279D01*
X514570Y392347D01*
X514645Y392412D01*
X514723Y392474D01*
X514803Y392532D01*
X514886Y392588D01*
X514970Y392640D01*
X515057Y392690D01*
X515145Y392735D01*
X515235Y392778D01*
X515327Y392817D01*
X515420Y392852D01*
X515514Y392884D01*
X515609Y392912D01*
X515705Y392937D01*
X515803Y392958D01*
X515901Y392975D01*
X515999Y392988D01*
X516098Y392997D01*
X516198Y393003D01*
X516297Y393005D01*
X516946Y393005D01*
X516946Y393006D02*
X517059Y393004D01*
X517172Y392998D01*
X517285Y392988D01*
X517398Y392974D01*
X517510Y392957D01*
X517621Y392935D01*
X517731Y392910D01*
X517841Y392880D01*
X517949Y392847D01*
X518056Y392810D01*
X518162Y392770D01*
X518266Y392725D01*
X518369Y392677D01*
X518470Y392626D01*
X518569Y392571D01*
X518666Y392513D01*
X518761Y392451D01*
X518854Y392386D01*
X518944Y392318D01*
X519032Y392247D01*
X519118Y392172D01*
X519201Y392095D01*
X519281Y392015D01*
X519358Y391932D01*
X519433Y391846D01*
X519504Y391758D01*
X519572Y391668D01*
X519637Y391575D01*
X519699Y391480D01*
X519757Y391383D01*
X519812Y391284D01*
X519863Y391183D01*
X519911Y391080D01*
X519956Y390976D01*
X519996Y390870D01*
X520033Y390763D01*
X520066Y390655D01*
X520096Y390545D01*
X520121Y390435D01*
X520143Y390324D01*
X520160Y390212D01*
X520174Y390099D01*
X520184Y389986D01*
X520190Y389873D01*
X520192Y389760D01*
X520190Y389647D01*
X520184Y389534D01*
X520174Y389421D01*
X520160Y389308D01*
X520143Y389196D01*
X520121Y389085D01*
X520096Y388975D01*
X520066Y388865D01*
X520033Y388757D01*
X519996Y388650D01*
X519956Y388544D01*
X519911Y388440D01*
X519863Y388337D01*
X519812Y388236D01*
X519757Y388137D01*
X519699Y388040D01*
X519637Y387945D01*
X519572Y387852D01*
X519504Y387762D01*
X519433Y387674D01*
X519358Y387588D01*
X519281Y387505D01*
X519201Y387425D01*
X519118Y387348D01*
X519032Y387273D01*
X518944Y387202D01*
X518854Y387134D01*
X518761Y387069D01*
X518666Y387007D01*
X518569Y386949D01*
X518470Y386894D01*
X518369Y386843D01*
X518266Y386795D01*
X518162Y386750D01*
X518056Y386710D01*
X517949Y386673D01*
X517841Y386640D01*
X517731Y386610D01*
X517621Y386585D01*
X517510Y386563D01*
X517398Y386546D01*
X517285Y386532D01*
X517172Y386522D01*
X517059Y386516D01*
X516946Y386514D01*
X513701Y386514D01*
X513558Y386516D01*
X513415Y386522D01*
X513272Y386532D01*
X513130Y386546D01*
X512988Y386563D01*
X512846Y386585D01*
X512705Y386610D01*
X512565Y386640D01*
X512426Y386673D01*
X512288Y386710D01*
X512151Y386751D01*
X512015Y386795D01*
X511880Y386844D01*
X511747Y386896D01*
X511615Y386951D01*
X511485Y387011D01*
X511356Y387074D01*
X511229Y387140D01*
X511105Y387210D01*
X510982Y387283D01*
X510861Y387360D01*
X510742Y387439D01*
X510626Y387523D01*
X510511Y387609D01*
X510400Y387698D01*
X510291Y387791D01*
X510184Y387886D01*
X510080Y387985D01*
X509979Y388086D01*
X509880Y388190D01*
X509785Y388296D01*
X509692Y388406D01*
X509603Y388517D01*
X509517Y388631D01*
X509434Y388748D01*
X509354Y388867D01*
X509277Y388988D01*
X509204Y389110D01*
X509134Y389235D01*
X509068Y389362D01*
X509005Y389491D01*
X508945Y389621D01*
X508890Y389753D01*
X508838Y389886D01*
X508789Y390021D01*
X508745Y390157D01*
X508704Y390294D01*
X508667Y390432D01*
X508634Y390571D01*
X508604Y390711D01*
X508579Y390852D01*
X508557Y390994D01*
X508540Y391136D01*
X508526Y391278D01*
X508516Y391421D01*
X508510Y391564D01*
X508508Y391707D01*
D20*
X327110Y675700D03*
D11*
X345500Y680200D02*
X345500Y683200D01*
X348500Y683200D01*
X413500Y683200D02*
X416500Y683200D01*
X416500Y680200D01*
X416500Y612200D02*
X413500Y612200D01*
X416500Y612200D02*
X416500Y615200D01*
X345500Y615200D02*
X345500Y612200D01*
X348500Y612200D01*
D15*
X325480Y706553D02*
X325480Y711896D01*
X325480Y706553D02*
X325482Y706463D01*
X325488Y706374D01*
X325498Y706285D01*
X325511Y706196D01*
X325529Y706108D01*
X325550Y706021D01*
X325575Y705935D01*
X325604Y705850D01*
X325636Y705767D01*
X325673Y705685D01*
X325712Y705604D01*
X325755Y705526D01*
X325802Y705449D01*
X325852Y705374D01*
X325905Y705302D01*
X325961Y705232D01*
X326020Y705165D01*
X326082Y705100D01*
X326147Y705038D01*
X326214Y704979D01*
X326284Y704923D01*
X326356Y704870D01*
X326431Y704820D01*
X326508Y704773D01*
X326586Y704730D01*
X326667Y704691D01*
X326749Y704654D01*
X326832Y704622D01*
X326917Y704593D01*
X327003Y704568D01*
X327090Y704547D01*
X327178Y704529D01*
X327267Y704516D01*
X327356Y704506D01*
X327445Y704500D01*
X327535Y704498D01*
X327625Y704500D01*
X327714Y704506D01*
X327803Y704516D01*
X327892Y704529D01*
X327980Y704547D01*
X328067Y704568D01*
X328153Y704593D01*
X328238Y704622D01*
X328321Y704654D01*
X328403Y704691D01*
X328484Y704730D01*
X328563Y704773D01*
X328639Y704820D01*
X328714Y704870D01*
X328786Y704923D01*
X328856Y704979D01*
X328923Y705038D01*
X328988Y705100D01*
X329050Y705165D01*
X329109Y705232D01*
X329165Y705302D01*
X329218Y705374D01*
X329268Y705449D01*
X329315Y705526D01*
X329358Y705604D01*
X329397Y705685D01*
X329434Y705767D01*
X329466Y705850D01*
X329495Y705935D01*
X329520Y706021D01*
X329541Y706108D01*
X329559Y706196D01*
X329572Y706285D01*
X329582Y706374D01*
X329588Y706463D01*
X329590Y706553D01*
X329589Y706553D02*
X329589Y711896D01*
X333068Y710252D02*
X335123Y711896D01*
X335123Y704498D01*
X333068Y704498D02*
X337178Y704498D01*
D11*
X333502Y504698D02*
X301498Y504698D01*
X320548Y536702D02*
X333502Y536702D01*
X320548Y536702D02*
X314452Y536702D01*
X301498Y536702D01*
X314452Y536702D02*
X314454Y536593D01*
X314460Y536485D01*
X314469Y536376D01*
X314483Y536268D01*
X314500Y536161D01*
X314522Y536054D01*
X314547Y535948D01*
X314575Y535843D01*
X314608Y535739D01*
X314644Y535637D01*
X314684Y535536D01*
X314727Y535436D01*
X314774Y535338D01*
X314825Y535241D01*
X314879Y535147D01*
X314936Y535054D01*
X314996Y534964D01*
X315060Y534875D01*
X315127Y534789D01*
X315196Y534706D01*
X315269Y534625D01*
X315345Y534547D01*
X315423Y534471D01*
X315504Y534398D01*
X315587Y534329D01*
X315673Y534262D01*
X315762Y534198D01*
X315852Y534138D01*
X315945Y534081D01*
X316039Y534027D01*
X316136Y533976D01*
X316234Y533929D01*
X316334Y533886D01*
X316435Y533846D01*
X316537Y533810D01*
X316641Y533777D01*
X316746Y533749D01*
X316852Y533724D01*
X316959Y533702D01*
X317066Y533685D01*
X317174Y533671D01*
X317283Y533662D01*
X317391Y533656D01*
X317500Y533654D01*
X317609Y533656D01*
X317717Y533662D01*
X317826Y533671D01*
X317934Y533685D01*
X318041Y533702D01*
X318148Y533724D01*
X318254Y533749D01*
X318359Y533777D01*
X318463Y533810D01*
X318565Y533846D01*
X318666Y533886D01*
X318766Y533929D01*
X318864Y533976D01*
X318961Y534027D01*
X319055Y534081D01*
X319148Y534138D01*
X319238Y534198D01*
X319327Y534262D01*
X319413Y534329D01*
X319496Y534398D01*
X319577Y534471D01*
X319655Y534547D01*
X319731Y534625D01*
X319804Y534706D01*
X319873Y534789D01*
X319940Y534875D01*
X320004Y534964D01*
X320064Y535054D01*
X320121Y535147D01*
X320175Y535241D01*
X320226Y535338D01*
X320273Y535436D01*
X320316Y535536D01*
X320356Y535637D01*
X320392Y535739D01*
X320425Y535843D01*
X320453Y535948D01*
X320478Y536054D01*
X320500Y536161D01*
X320517Y536268D01*
X320531Y536376D01*
X320540Y536485D01*
X320546Y536593D01*
X320548Y536702D01*
D19*
X283945Y552362D02*
X283945Y565948D01*
X283945Y552362D02*
X283947Y552219D01*
X283953Y552077D01*
X283963Y551934D01*
X283976Y551792D01*
X283994Y551650D01*
X284015Y551509D01*
X284040Y551369D01*
X284069Y551229D01*
X284102Y551090D01*
X284139Y550952D01*
X284179Y550815D01*
X284223Y550679D01*
X284271Y550545D01*
X284323Y550412D01*
X284378Y550280D01*
X284436Y550150D01*
X284499Y550021D01*
X284564Y549895D01*
X284633Y549770D01*
X284706Y549647D01*
X284782Y549526D01*
X284861Y549407D01*
X284943Y549290D01*
X285029Y549176D01*
X285117Y549064D01*
X285209Y548954D01*
X285303Y548847D01*
X285401Y548743D01*
X285501Y548642D01*
X285604Y548543D01*
X285710Y548447D01*
X285818Y548354D01*
X285929Y548263D01*
X286042Y548176D01*
X286157Y548093D01*
X286275Y548012D01*
X286395Y547934D01*
X286517Y547860D01*
X286641Y547789D01*
X286767Y547722D01*
X286894Y547658D01*
X287024Y547598D01*
X287155Y547541D01*
X287287Y547487D01*
X287421Y547438D01*
X287556Y547392D01*
X287692Y547350D01*
X287830Y547311D01*
X287968Y547276D01*
X288108Y547245D01*
X288248Y547218D01*
X288389Y547195D01*
X288530Y547175D01*
X288672Y547160D01*
X288814Y547148D01*
X288957Y547140D01*
X289100Y547136D01*
X289242Y547136D01*
X289385Y547140D01*
X289528Y547148D01*
X289670Y547160D01*
X289812Y547175D01*
X289953Y547195D01*
X290094Y547218D01*
X290234Y547245D01*
X290374Y547276D01*
X290512Y547311D01*
X290650Y547350D01*
X290786Y547392D01*
X290921Y547438D01*
X291055Y547487D01*
X291187Y547541D01*
X291318Y547598D01*
X291448Y547658D01*
X291575Y547722D01*
X291701Y547789D01*
X291825Y547860D01*
X291947Y547934D01*
X292067Y548012D01*
X292185Y548093D01*
X292300Y548176D01*
X292413Y548263D01*
X292524Y548354D01*
X292632Y548447D01*
X292738Y548543D01*
X292841Y548642D01*
X292941Y548743D01*
X293039Y548847D01*
X293133Y548954D01*
X293225Y549064D01*
X293313Y549176D01*
X293399Y549290D01*
X293481Y549407D01*
X293560Y549526D01*
X293636Y549647D01*
X293709Y549770D01*
X293778Y549895D01*
X293843Y550021D01*
X293906Y550150D01*
X293964Y550280D01*
X294019Y550412D01*
X294071Y550545D01*
X294119Y550679D01*
X294163Y550815D01*
X294203Y550952D01*
X294240Y551090D01*
X294273Y551229D01*
X294302Y551369D01*
X294327Y551509D01*
X294348Y551650D01*
X294366Y551792D01*
X294379Y551934D01*
X294389Y552077D01*
X294395Y552219D01*
X294397Y552362D01*
X294396Y552362D02*
X294396Y565948D01*
X302386Y547136D02*
X308657Y547136D01*
X308783Y547138D01*
X308909Y547144D01*
X309035Y547153D01*
X309161Y547166D01*
X309286Y547184D01*
X309411Y547204D01*
X309535Y547229D01*
X309658Y547257D01*
X309780Y547290D01*
X309901Y547325D01*
X310021Y547365D01*
X310140Y547408D01*
X310257Y547454D01*
X310373Y547504D01*
X310487Y547558D01*
X310600Y547615D01*
X310711Y547675D01*
X310820Y547739D01*
X310927Y547806D01*
X311032Y547876D01*
X311135Y547949D01*
X311236Y548026D01*
X311334Y548105D01*
X311430Y548187D01*
X311523Y548273D01*
X311613Y548361D01*
X311701Y548451D01*
X311787Y548544D01*
X311869Y548640D01*
X311948Y548739D01*
X312025Y548839D01*
X312098Y548942D01*
X312168Y549047D01*
X312235Y549154D01*
X312299Y549263D01*
X312359Y549374D01*
X312416Y549487D01*
X312470Y549601D01*
X312520Y549717D01*
X312566Y549834D01*
X312609Y549953D01*
X312649Y550073D01*
X312684Y550194D01*
X312717Y550316D01*
X312745Y550440D01*
X312770Y550563D01*
X312790Y550688D01*
X312808Y550813D01*
X312821Y550939D01*
X312830Y551065D01*
X312836Y551191D01*
X312838Y551317D01*
X312837Y551317D02*
X312837Y553407D01*
X312838Y553407D02*
X312836Y553533D01*
X312830Y553659D01*
X312821Y553785D01*
X312808Y553911D01*
X312790Y554036D01*
X312770Y554161D01*
X312745Y554285D01*
X312717Y554408D01*
X312684Y554530D01*
X312649Y554651D01*
X312609Y554771D01*
X312566Y554890D01*
X312520Y555007D01*
X312470Y555123D01*
X312416Y555237D01*
X312359Y555350D01*
X312299Y555461D01*
X312235Y555570D01*
X312168Y555677D01*
X312098Y555782D01*
X312025Y555885D01*
X311948Y555986D01*
X311869Y556084D01*
X311787Y556180D01*
X311701Y556273D01*
X311613Y556363D01*
X311523Y556451D01*
X311430Y556537D01*
X311334Y556619D01*
X311236Y556698D01*
X311135Y556775D01*
X311032Y556848D01*
X310927Y556918D01*
X310820Y556985D01*
X310711Y557049D01*
X310600Y557109D01*
X310487Y557166D01*
X310373Y557220D01*
X310257Y557270D01*
X310140Y557316D01*
X310021Y557359D01*
X309901Y557399D01*
X309780Y557434D01*
X309658Y557467D01*
X309535Y557495D01*
X309411Y557520D01*
X309286Y557540D01*
X309161Y557558D01*
X309035Y557571D01*
X308909Y557580D01*
X308783Y557586D01*
X308657Y557588D01*
X308657Y557587D02*
X302386Y557587D01*
X302386Y565948D01*
X312837Y565948D01*
D10*
X510032Y645169D02*
X510032Y647766D01*
X510032Y645169D02*
X510030Y645070D01*
X510024Y644970D01*
X510015Y644871D01*
X510002Y644773D01*
X509985Y644675D01*
X509964Y644577D01*
X509939Y644481D01*
X509911Y644386D01*
X509879Y644292D01*
X509844Y644199D01*
X509805Y644107D01*
X509762Y644017D01*
X509717Y643929D01*
X509667Y643842D01*
X509615Y643758D01*
X509559Y643675D01*
X509501Y643595D01*
X509439Y643517D01*
X509374Y643442D01*
X509306Y643369D01*
X509236Y643299D01*
X509163Y643231D01*
X509088Y643166D01*
X509010Y643104D01*
X508930Y643046D01*
X508847Y642990D01*
X508763Y642938D01*
X508676Y642888D01*
X508588Y642843D01*
X508498Y642800D01*
X508406Y642761D01*
X508313Y642726D01*
X508219Y642694D01*
X508124Y642666D01*
X508028Y642641D01*
X507930Y642620D01*
X507832Y642603D01*
X507734Y642590D01*
X507635Y642581D01*
X507535Y642575D01*
X507436Y642573D01*
X500944Y642573D01*
X500944Y642572D02*
X500845Y642574D01*
X500745Y642580D01*
X500646Y642589D01*
X500548Y642602D01*
X500450Y642620D01*
X500352Y642640D01*
X500256Y642665D01*
X500160Y642693D01*
X500066Y642725D01*
X499973Y642760D01*
X499882Y642799D01*
X499792Y642842D01*
X499703Y642887D01*
X499617Y642937D01*
X499532Y642989D01*
X499450Y643045D01*
X499370Y643104D01*
X499292Y643165D01*
X499216Y643230D01*
X499143Y643298D01*
X499073Y643368D01*
X499005Y643441D01*
X498940Y643517D01*
X498879Y643595D01*
X498820Y643675D01*
X498764Y643757D01*
X498712Y643842D01*
X498663Y643928D01*
X498617Y644017D01*
X498574Y644107D01*
X498535Y644198D01*
X498500Y644291D01*
X498468Y644385D01*
X498440Y644481D01*
X498415Y644577D01*
X498395Y644675D01*
X498377Y644773D01*
X498364Y644871D01*
X498355Y644970D01*
X498349Y645069D01*
X498347Y645169D01*
X498348Y645169D02*
X498348Y647766D01*
X510032Y652131D02*
X510032Y656026D01*
X510030Y656125D01*
X510024Y656225D01*
X510015Y656324D01*
X510002Y656422D01*
X509985Y656520D01*
X509964Y656618D01*
X509939Y656714D01*
X509911Y656809D01*
X509879Y656903D01*
X509844Y656996D01*
X509805Y657088D01*
X509762Y657178D01*
X509717Y657266D01*
X509667Y657353D01*
X509615Y657437D01*
X509559Y657520D01*
X509501Y657600D01*
X509439Y657678D01*
X509374Y657753D01*
X509306Y657826D01*
X509236Y657896D01*
X509163Y657964D01*
X509088Y658029D01*
X509010Y658091D01*
X508930Y658149D01*
X508847Y658205D01*
X508763Y658257D01*
X508676Y658307D01*
X508588Y658352D01*
X508498Y658395D01*
X508406Y658434D01*
X508313Y658469D01*
X508219Y658501D01*
X508124Y658529D01*
X508028Y658554D01*
X507930Y658575D01*
X507832Y658592D01*
X507734Y658605D01*
X507635Y658614D01*
X507535Y658620D01*
X507436Y658622D01*
X506137Y658622D01*
X506038Y658620D01*
X505938Y658614D01*
X505839Y658605D01*
X505741Y658592D01*
X505643Y658575D01*
X505545Y658554D01*
X505449Y658529D01*
X505354Y658501D01*
X505260Y658469D01*
X505167Y658434D01*
X505075Y658395D01*
X504985Y658352D01*
X504897Y658307D01*
X504810Y658257D01*
X504726Y658205D01*
X504643Y658149D01*
X504563Y658091D01*
X504485Y658029D01*
X504410Y657964D01*
X504337Y657896D01*
X504267Y657826D01*
X504199Y657753D01*
X504134Y657678D01*
X504072Y657600D01*
X504014Y657520D01*
X503958Y657437D01*
X503906Y657353D01*
X503856Y657266D01*
X503811Y657178D01*
X503768Y657088D01*
X503729Y656996D01*
X503694Y656903D01*
X503662Y656809D01*
X503634Y656714D01*
X503609Y656618D01*
X503588Y656520D01*
X503571Y656422D01*
X503558Y656324D01*
X503549Y656225D01*
X503543Y656125D01*
X503541Y656026D01*
X503541Y652131D01*
X498348Y652131D01*
X498348Y658622D01*
X330266Y834898D02*
X327669Y834898D01*
X327570Y834900D01*
X327470Y834906D01*
X327371Y834915D01*
X327273Y834928D01*
X327175Y834945D01*
X327077Y834966D01*
X326981Y834991D01*
X326886Y835019D01*
X326792Y835051D01*
X326699Y835086D01*
X326607Y835125D01*
X326517Y835168D01*
X326429Y835213D01*
X326342Y835263D01*
X326258Y835315D01*
X326175Y835371D01*
X326095Y835429D01*
X326017Y835491D01*
X325942Y835556D01*
X325869Y835624D01*
X325799Y835694D01*
X325731Y835767D01*
X325666Y835842D01*
X325604Y835920D01*
X325546Y836000D01*
X325490Y836083D01*
X325438Y836167D01*
X325388Y836254D01*
X325343Y836342D01*
X325300Y836432D01*
X325261Y836524D01*
X325226Y836617D01*
X325194Y836711D01*
X325166Y836806D01*
X325141Y836902D01*
X325120Y837000D01*
X325103Y837098D01*
X325090Y837196D01*
X325081Y837295D01*
X325075Y837395D01*
X325073Y837494D01*
X325073Y843986D01*
X325075Y844085D01*
X325081Y844185D01*
X325090Y844284D01*
X325103Y844382D01*
X325120Y844480D01*
X325141Y844578D01*
X325166Y844674D01*
X325194Y844769D01*
X325226Y844863D01*
X325261Y844956D01*
X325300Y845048D01*
X325343Y845138D01*
X325388Y845226D01*
X325438Y845313D01*
X325490Y845397D01*
X325546Y845480D01*
X325604Y845560D01*
X325666Y845638D01*
X325731Y845713D01*
X325799Y845786D01*
X325869Y845856D01*
X325942Y845924D01*
X326017Y845989D01*
X326095Y846051D01*
X326175Y846109D01*
X326258Y846165D01*
X326342Y846217D01*
X326429Y846267D01*
X326517Y846312D01*
X326607Y846355D01*
X326699Y846394D01*
X326791Y846429D01*
X326886Y846461D01*
X326981Y846489D01*
X327077Y846514D01*
X327175Y846535D01*
X327273Y846552D01*
X327371Y846565D01*
X327470Y846574D01*
X327570Y846580D01*
X327669Y846582D01*
X330266Y846582D01*
X334631Y841389D02*
X338526Y841389D01*
X338625Y841387D01*
X338725Y841381D01*
X338824Y841372D01*
X338922Y841359D01*
X339020Y841342D01*
X339118Y841321D01*
X339214Y841296D01*
X339309Y841268D01*
X339403Y841236D01*
X339496Y841201D01*
X339588Y841162D01*
X339678Y841119D01*
X339766Y841074D01*
X339853Y841024D01*
X339937Y840972D01*
X340020Y840916D01*
X340100Y840858D01*
X340178Y840796D01*
X340253Y840731D01*
X340326Y840663D01*
X340396Y840593D01*
X340464Y840520D01*
X340529Y840445D01*
X340591Y840367D01*
X340649Y840287D01*
X340705Y840204D01*
X340757Y840120D01*
X340807Y840033D01*
X340852Y839945D01*
X340895Y839855D01*
X340934Y839763D01*
X340969Y839670D01*
X341001Y839576D01*
X341029Y839481D01*
X341054Y839385D01*
X341075Y839287D01*
X341092Y839189D01*
X341105Y839091D01*
X341114Y838992D01*
X341120Y838892D01*
X341122Y838793D01*
X341122Y838144D01*
X341120Y838031D01*
X341114Y837918D01*
X341104Y837805D01*
X341090Y837692D01*
X341073Y837580D01*
X341051Y837469D01*
X341026Y837359D01*
X340996Y837249D01*
X340963Y837141D01*
X340926Y837034D01*
X340886Y836928D01*
X340841Y836824D01*
X340793Y836721D01*
X340742Y836620D01*
X340687Y836521D01*
X340629Y836424D01*
X340567Y836329D01*
X340502Y836236D01*
X340434Y836146D01*
X340363Y836058D01*
X340288Y835972D01*
X340211Y835889D01*
X340131Y835809D01*
X340048Y835732D01*
X339962Y835657D01*
X339874Y835586D01*
X339784Y835518D01*
X339691Y835453D01*
X339596Y835391D01*
X339499Y835333D01*
X339400Y835278D01*
X339299Y835227D01*
X339196Y835179D01*
X339092Y835134D01*
X338986Y835094D01*
X338879Y835057D01*
X338771Y835024D01*
X338661Y834994D01*
X338551Y834969D01*
X338440Y834947D01*
X338328Y834930D01*
X338215Y834916D01*
X338102Y834906D01*
X337989Y834900D01*
X337876Y834898D01*
X337763Y834900D01*
X337650Y834906D01*
X337537Y834916D01*
X337424Y834930D01*
X337312Y834947D01*
X337201Y834969D01*
X337091Y834994D01*
X336981Y835024D01*
X336873Y835057D01*
X336766Y835094D01*
X336660Y835134D01*
X336556Y835179D01*
X336453Y835227D01*
X336352Y835278D01*
X336253Y835333D01*
X336156Y835391D01*
X336061Y835453D01*
X335968Y835518D01*
X335878Y835586D01*
X335790Y835657D01*
X335704Y835732D01*
X335621Y835809D01*
X335541Y835889D01*
X335464Y835972D01*
X335389Y836058D01*
X335318Y836146D01*
X335250Y836236D01*
X335185Y836329D01*
X335123Y836424D01*
X335065Y836521D01*
X335010Y836620D01*
X334959Y836721D01*
X334911Y836824D01*
X334866Y836928D01*
X334826Y837034D01*
X334789Y837141D01*
X334756Y837249D01*
X334726Y837359D01*
X334701Y837469D01*
X334679Y837580D01*
X334662Y837692D01*
X334648Y837805D01*
X334638Y837918D01*
X334632Y838031D01*
X334630Y838144D01*
X334631Y838144D02*
X334631Y841389D01*
X334633Y841532D01*
X334639Y841675D01*
X334649Y841818D01*
X334663Y841960D01*
X334680Y842102D01*
X334702Y842244D01*
X334727Y842385D01*
X334757Y842525D01*
X334790Y842664D01*
X334827Y842802D01*
X334868Y842939D01*
X334912Y843075D01*
X334961Y843210D01*
X335013Y843343D01*
X335068Y843475D01*
X335128Y843605D01*
X335191Y843734D01*
X335257Y843861D01*
X335327Y843985D01*
X335400Y844108D01*
X335477Y844229D01*
X335557Y844348D01*
X335640Y844464D01*
X335726Y844579D01*
X335815Y844690D01*
X335908Y844800D01*
X336003Y844906D01*
X336102Y845010D01*
X336203Y845111D01*
X336307Y845210D01*
X336413Y845305D01*
X336523Y845398D01*
X336634Y845487D01*
X336749Y845573D01*
X336865Y845656D01*
X336984Y845736D01*
X337105Y845813D01*
X337227Y845886D01*
X337352Y845956D01*
X337479Y846022D01*
X337608Y846085D01*
X337738Y846145D01*
X337870Y846200D01*
X338003Y846252D01*
X338138Y846301D01*
X338274Y846345D01*
X338411Y846386D01*
X338549Y846423D01*
X338688Y846456D01*
X338828Y846486D01*
X338969Y846511D01*
X339111Y846533D01*
X339253Y846550D01*
X339395Y846564D01*
X339538Y846574D01*
X339681Y846580D01*
X339824Y846582D01*
X356108Y768858D02*
X367792Y768858D01*
X356108Y768858D02*
X356108Y772104D01*
X356110Y772217D01*
X356116Y772330D01*
X356126Y772443D01*
X356140Y772556D01*
X356157Y772668D01*
X356179Y772779D01*
X356204Y772889D01*
X356234Y772999D01*
X356267Y773107D01*
X356304Y773214D01*
X356344Y773320D01*
X356389Y773424D01*
X356437Y773527D01*
X356488Y773628D01*
X356543Y773727D01*
X356601Y773824D01*
X356663Y773919D01*
X356728Y774012D01*
X356796Y774102D01*
X356867Y774190D01*
X356942Y774276D01*
X357019Y774359D01*
X357099Y774439D01*
X357182Y774516D01*
X357268Y774591D01*
X357356Y774662D01*
X357446Y774730D01*
X357539Y774795D01*
X357634Y774857D01*
X357731Y774915D01*
X357830Y774970D01*
X357931Y775021D01*
X358034Y775069D01*
X358138Y775114D01*
X358244Y775154D01*
X358351Y775191D01*
X358459Y775224D01*
X358569Y775254D01*
X358679Y775279D01*
X358790Y775301D01*
X358902Y775318D01*
X359015Y775332D01*
X359128Y775342D01*
X359241Y775348D01*
X359354Y775350D01*
X359467Y775348D01*
X359580Y775342D01*
X359693Y775332D01*
X359806Y775318D01*
X359918Y775301D01*
X360029Y775279D01*
X360139Y775254D01*
X360249Y775224D01*
X360357Y775191D01*
X360464Y775154D01*
X360570Y775114D01*
X360674Y775069D01*
X360777Y775021D01*
X360878Y774970D01*
X360977Y774915D01*
X361074Y774857D01*
X361169Y774795D01*
X361262Y774730D01*
X361352Y774662D01*
X361440Y774591D01*
X361526Y774516D01*
X361609Y774439D01*
X361689Y774359D01*
X361766Y774276D01*
X361841Y774190D01*
X361912Y774102D01*
X361980Y774012D01*
X362045Y773919D01*
X362107Y773824D01*
X362165Y773727D01*
X362220Y773628D01*
X362271Y773527D01*
X362319Y773424D01*
X362364Y773320D01*
X362404Y773214D01*
X362441Y773107D01*
X362474Y772999D01*
X362504Y772889D01*
X362529Y772779D01*
X362551Y772668D01*
X362568Y772556D01*
X362582Y772443D01*
X362592Y772330D01*
X362598Y772217D01*
X362600Y772104D01*
X362599Y772104D02*
X362599Y768858D01*
X362599Y772753D02*
X367792Y775349D01*
X357406Y780214D02*
X356108Y780214D01*
X356108Y786705D01*
X367792Y783460D01*
D12*
X38100Y587121D02*
X23622Y587121D01*
X23622Y596900D01*
X83693Y631571D02*
X83693Y647065D01*
X83693Y647068D01*
X83693Y647065D02*
X63500Y647065D01*
D10*
X60396Y597549D02*
X60495Y597547D01*
X60595Y597541D01*
X60694Y597532D01*
X60792Y597519D01*
X60890Y597502D01*
X60988Y597481D01*
X61084Y597456D01*
X61179Y597428D01*
X61273Y597396D01*
X61366Y597361D01*
X61458Y597322D01*
X61548Y597279D01*
X61636Y597234D01*
X61723Y597184D01*
X61807Y597132D01*
X61890Y597076D01*
X61970Y597018D01*
X62048Y596956D01*
X62123Y596891D01*
X62196Y596823D01*
X62266Y596753D01*
X62334Y596680D01*
X62399Y596605D01*
X62461Y596527D01*
X62519Y596447D01*
X62575Y596364D01*
X62627Y596280D01*
X62677Y596193D01*
X62722Y596105D01*
X62765Y596015D01*
X62804Y595923D01*
X62839Y595830D01*
X62871Y595736D01*
X62899Y595641D01*
X62924Y595545D01*
X62945Y595447D01*
X62962Y595349D01*
X62975Y595251D01*
X62984Y595152D01*
X62990Y595052D01*
X62992Y594953D01*
X62990Y594809D01*
X62984Y594664D01*
X62975Y594520D01*
X62962Y594377D01*
X62945Y594233D01*
X62924Y594090D01*
X62899Y593948D01*
X62871Y593807D01*
X62839Y593666D01*
X62803Y593526D01*
X62764Y593387D01*
X62721Y593249D01*
X62674Y593113D01*
X62624Y592977D01*
X62570Y592843D01*
X62513Y592711D01*
X62452Y592580D01*
X62388Y592451D01*
X62320Y592323D01*
X62250Y592197D01*
X62175Y592073D01*
X62098Y591952D01*
X62017Y591832D01*
X61934Y591714D01*
X61847Y591599D01*
X61757Y591486D01*
X61664Y591375D01*
X61569Y591267D01*
X61470Y591161D01*
X61369Y591058D01*
X53904Y591383D02*
X53805Y591385D01*
X53705Y591391D01*
X53606Y591400D01*
X53508Y591413D01*
X53410Y591430D01*
X53312Y591451D01*
X53216Y591476D01*
X53121Y591504D01*
X53027Y591536D01*
X52934Y591571D01*
X52842Y591610D01*
X52752Y591653D01*
X52664Y591698D01*
X52577Y591748D01*
X52493Y591800D01*
X52410Y591856D01*
X52330Y591914D01*
X52252Y591976D01*
X52177Y592041D01*
X52104Y592109D01*
X52034Y592179D01*
X51966Y592252D01*
X51901Y592327D01*
X51839Y592405D01*
X51781Y592485D01*
X51725Y592568D01*
X51673Y592652D01*
X51623Y592739D01*
X51578Y592827D01*
X51535Y592917D01*
X51496Y593009D01*
X51461Y593102D01*
X51429Y593196D01*
X51401Y593291D01*
X51376Y593387D01*
X51355Y593485D01*
X51338Y593583D01*
X51325Y593681D01*
X51316Y593780D01*
X51310Y593880D01*
X51308Y593979D01*
X51310Y594115D01*
X51316Y594251D01*
X51325Y594387D01*
X51338Y594523D01*
X51356Y594658D01*
X51376Y594792D01*
X51401Y594926D01*
X51429Y595060D01*
X51462Y595192D01*
X51497Y595323D01*
X51537Y595454D01*
X51580Y595583D01*
X51626Y595711D01*
X51677Y595837D01*
X51730Y595963D01*
X51788Y596086D01*
X51848Y596208D01*
X51912Y596328D01*
X51980Y596447D01*
X52050Y596563D01*
X52124Y596677D01*
X52201Y596790D01*
X52282Y596900D01*
X56176Y592681D02*
X56123Y592595D01*
X56066Y592511D01*
X56007Y592429D01*
X55944Y592349D01*
X55878Y592272D01*
X55810Y592197D01*
X55738Y592125D01*
X55664Y592056D01*
X55587Y591990D01*
X55508Y591927D01*
X55426Y591867D01*
X55342Y591810D01*
X55256Y591756D01*
X55168Y591706D01*
X55078Y591659D01*
X54987Y591615D01*
X54893Y591576D01*
X54799Y591539D01*
X54703Y591507D01*
X54605Y591478D01*
X54507Y591453D01*
X54408Y591432D01*
X54308Y591414D01*
X54208Y591401D01*
X54107Y591391D01*
X54005Y591385D01*
X53904Y591383D01*
X58124Y596251D02*
X58177Y596337D01*
X58234Y596421D01*
X58293Y596503D01*
X58356Y596583D01*
X58422Y596660D01*
X58490Y596735D01*
X58562Y596807D01*
X58636Y596876D01*
X58713Y596942D01*
X58792Y597005D01*
X58874Y597065D01*
X58958Y597122D01*
X59044Y597176D01*
X59132Y597226D01*
X59222Y597273D01*
X59313Y597317D01*
X59407Y597356D01*
X59501Y597393D01*
X59597Y597425D01*
X59695Y597454D01*
X59793Y597479D01*
X59892Y597500D01*
X59992Y597518D01*
X60092Y597531D01*
X60193Y597541D01*
X60295Y597547D01*
X60396Y597549D01*
X58124Y596251D02*
X56176Y592681D01*
X51308Y601684D02*
X62992Y604280D01*
X55203Y606877D01*
X62992Y609473D01*
X51308Y612069D01*
X53904Y616585D02*
X51308Y619831D01*
X62992Y619831D01*
X62992Y623076D02*
X62992Y616585D01*
D12*
X38100Y866521D02*
X23622Y866521D01*
X23622Y876300D01*
X83693Y910971D02*
X83693Y926465D01*
X83693Y926468D01*
X83693Y926465D02*
X63500Y926465D01*
D10*
X60396Y876949D02*
X60495Y876947D01*
X60595Y876941D01*
X60694Y876932D01*
X60792Y876919D01*
X60890Y876902D01*
X60988Y876881D01*
X61084Y876856D01*
X61179Y876828D01*
X61273Y876796D01*
X61366Y876761D01*
X61458Y876722D01*
X61548Y876679D01*
X61636Y876634D01*
X61723Y876584D01*
X61807Y876532D01*
X61890Y876476D01*
X61970Y876418D01*
X62048Y876356D01*
X62123Y876291D01*
X62196Y876223D01*
X62266Y876153D01*
X62334Y876080D01*
X62399Y876005D01*
X62461Y875927D01*
X62519Y875847D01*
X62575Y875764D01*
X62627Y875680D01*
X62677Y875593D01*
X62722Y875505D01*
X62765Y875415D01*
X62804Y875323D01*
X62839Y875230D01*
X62871Y875136D01*
X62899Y875041D01*
X62924Y874945D01*
X62945Y874847D01*
X62962Y874749D01*
X62975Y874651D01*
X62984Y874552D01*
X62990Y874452D01*
X62992Y874353D01*
X62990Y874209D01*
X62984Y874064D01*
X62975Y873920D01*
X62962Y873777D01*
X62945Y873633D01*
X62924Y873490D01*
X62899Y873348D01*
X62871Y873207D01*
X62839Y873066D01*
X62803Y872926D01*
X62764Y872787D01*
X62721Y872649D01*
X62674Y872513D01*
X62624Y872377D01*
X62570Y872243D01*
X62513Y872111D01*
X62452Y871980D01*
X62388Y871851D01*
X62320Y871723D01*
X62250Y871597D01*
X62175Y871473D01*
X62098Y871352D01*
X62017Y871232D01*
X61934Y871114D01*
X61847Y870999D01*
X61757Y870886D01*
X61664Y870775D01*
X61569Y870667D01*
X61470Y870561D01*
X61369Y870458D01*
X53904Y870783D02*
X53805Y870785D01*
X53705Y870791D01*
X53606Y870800D01*
X53508Y870813D01*
X53410Y870830D01*
X53312Y870851D01*
X53216Y870876D01*
X53121Y870904D01*
X53027Y870936D01*
X52934Y870971D01*
X52842Y871010D01*
X52752Y871053D01*
X52664Y871098D01*
X52577Y871148D01*
X52493Y871200D01*
X52410Y871256D01*
X52330Y871314D01*
X52252Y871376D01*
X52177Y871441D01*
X52104Y871509D01*
X52034Y871579D01*
X51966Y871652D01*
X51901Y871727D01*
X51839Y871805D01*
X51781Y871885D01*
X51725Y871968D01*
X51673Y872052D01*
X51623Y872139D01*
X51578Y872227D01*
X51535Y872317D01*
X51496Y872409D01*
X51461Y872502D01*
X51429Y872596D01*
X51401Y872691D01*
X51376Y872787D01*
X51355Y872885D01*
X51338Y872983D01*
X51325Y873081D01*
X51316Y873180D01*
X51310Y873280D01*
X51308Y873379D01*
X51310Y873515D01*
X51316Y873651D01*
X51325Y873787D01*
X51338Y873923D01*
X51356Y874058D01*
X51376Y874192D01*
X51401Y874326D01*
X51429Y874460D01*
X51462Y874592D01*
X51497Y874723D01*
X51537Y874854D01*
X51580Y874983D01*
X51626Y875111D01*
X51677Y875237D01*
X51730Y875363D01*
X51788Y875486D01*
X51848Y875608D01*
X51912Y875728D01*
X51980Y875847D01*
X52050Y875963D01*
X52124Y876077D01*
X52201Y876190D01*
X52282Y876300D01*
X56176Y872081D02*
X56123Y871995D01*
X56066Y871911D01*
X56007Y871829D01*
X55944Y871749D01*
X55878Y871672D01*
X55810Y871597D01*
X55738Y871525D01*
X55664Y871456D01*
X55587Y871390D01*
X55508Y871327D01*
X55426Y871267D01*
X55342Y871210D01*
X55256Y871156D01*
X55168Y871106D01*
X55078Y871059D01*
X54987Y871015D01*
X54893Y870976D01*
X54799Y870939D01*
X54703Y870907D01*
X54605Y870878D01*
X54507Y870853D01*
X54408Y870832D01*
X54308Y870814D01*
X54208Y870801D01*
X54107Y870791D01*
X54005Y870785D01*
X53904Y870783D01*
X58124Y875651D02*
X58177Y875737D01*
X58234Y875821D01*
X58293Y875903D01*
X58356Y875983D01*
X58422Y876060D01*
X58490Y876135D01*
X58562Y876207D01*
X58636Y876276D01*
X58713Y876342D01*
X58792Y876405D01*
X58874Y876465D01*
X58958Y876522D01*
X59044Y876576D01*
X59132Y876626D01*
X59222Y876673D01*
X59313Y876717D01*
X59407Y876756D01*
X59501Y876793D01*
X59597Y876825D01*
X59695Y876854D01*
X59793Y876879D01*
X59892Y876900D01*
X59992Y876918D01*
X60092Y876931D01*
X60193Y876941D01*
X60295Y876947D01*
X60396Y876949D01*
X58124Y875651D02*
X56176Y872081D01*
X51308Y881084D02*
X62992Y883680D01*
X55203Y886277D01*
X62992Y888873D01*
X51308Y891469D01*
X51308Y899555D02*
X51310Y899662D01*
X51316Y899768D01*
X51326Y899874D01*
X51339Y899980D01*
X51357Y900086D01*
X51378Y900190D01*
X51403Y900294D01*
X51432Y900397D01*
X51464Y900498D01*
X51501Y900598D01*
X51541Y900697D01*
X51584Y900795D01*
X51631Y900891D01*
X51682Y900985D01*
X51736Y901077D01*
X51793Y901167D01*
X51853Y901255D01*
X51917Y901340D01*
X51984Y901423D01*
X52054Y901504D01*
X52126Y901582D01*
X52202Y901658D01*
X52280Y901730D01*
X52361Y901800D01*
X52444Y901867D01*
X52529Y901931D01*
X52617Y901991D01*
X52707Y902048D01*
X52799Y902102D01*
X52893Y902153D01*
X52989Y902200D01*
X53087Y902243D01*
X53186Y902283D01*
X53286Y902320D01*
X53387Y902352D01*
X53490Y902381D01*
X53594Y902406D01*
X53698Y902427D01*
X53804Y902445D01*
X53910Y902458D01*
X54016Y902468D01*
X54122Y902474D01*
X54229Y902476D01*
X51308Y899555D02*
X51310Y899434D01*
X51316Y899313D01*
X51326Y899193D01*
X51339Y899072D01*
X51357Y898953D01*
X51378Y898833D01*
X51403Y898715D01*
X51432Y898598D01*
X51465Y898481D01*
X51501Y898366D01*
X51542Y898252D01*
X51585Y898139D01*
X51633Y898027D01*
X51684Y897918D01*
X51739Y897810D01*
X51797Y897703D01*
X51858Y897599D01*
X51923Y897497D01*
X51991Y897397D01*
X52062Y897299D01*
X52136Y897203D01*
X52213Y897110D01*
X52294Y897020D01*
X52377Y896932D01*
X52463Y896847D01*
X52552Y896764D01*
X52643Y896685D01*
X52737Y896608D01*
X52833Y896535D01*
X52931Y896465D01*
X53032Y896398D01*
X53135Y896334D01*
X53240Y896274D01*
X53347Y896216D01*
X53455Y896163D01*
X53565Y896113D01*
X53677Y896067D01*
X53790Y896024D01*
X53905Y895985D01*
X56501Y901502D02*
X56423Y901581D01*
X56343Y901657D01*
X56260Y901730D01*
X56174Y901800D01*
X56087Y901867D01*
X55996Y901931D01*
X55904Y901991D01*
X55810Y902049D01*
X55713Y902103D01*
X55615Y902153D01*
X55515Y902200D01*
X55414Y902244D01*
X55311Y902284D01*
X55206Y902320D01*
X55101Y902352D01*
X54994Y902381D01*
X54887Y902406D01*
X54778Y902428D01*
X54669Y902445D01*
X54560Y902459D01*
X54450Y902468D01*
X54339Y902474D01*
X54229Y902476D01*
X56501Y901502D02*
X62992Y895985D01*
X62992Y902476D01*
D12*
X38100Y726821D02*
X23622Y726821D01*
X23622Y736600D01*
X83693Y771271D02*
X83693Y786765D01*
X83693Y786768D01*
X83693Y786765D02*
X63500Y786765D01*
D10*
X60396Y737249D02*
X60495Y737247D01*
X60595Y737241D01*
X60694Y737232D01*
X60792Y737219D01*
X60890Y737202D01*
X60988Y737181D01*
X61084Y737156D01*
X61179Y737128D01*
X61273Y737096D01*
X61366Y737061D01*
X61458Y737022D01*
X61548Y736979D01*
X61636Y736934D01*
X61723Y736884D01*
X61807Y736832D01*
X61890Y736776D01*
X61970Y736718D01*
X62048Y736656D01*
X62123Y736591D01*
X62196Y736523D01*
X62266Y736453D01*
X62334Y736380D01*
X62399Y736305D01*
X62461Y736227D01*
X62519Y736147D01*
X62575Y736064D01*
X62627Y735980D01*
X62677Y735893D01*
X62722Y735805D01*
X62765Y735715D01*
X62804Y735623D01*
X62839Y735530D01*
X62871Y735436D01*
X62899Y735341D01*
X62924Y735245D01*
X62945Y735147D01*
X62962Y735049D01*
X62975Y734951D01*
X62984Y734852D01*
X62990Y734752D01*
X62992Y734653D01*
X62990Y734509D01*
X62984Y734364D01*
X62975Y734220D01*
X62962Y734077D01*
X62945Y733933D01*
X62924Y733790D01*
X62899Y733648D01*
X62871Y733507D01*
X62839Y733366D01*
X62803Y733226D01*
X62764Y733087D01*
X62721Y732949D01*
X62674Y732813D01*
X62624Y732677D01*
X62570Y732543D01*
X62513Y732411D01*
X62452Y732280D01*
X62388Y732151D01*
X62320Y732023D01*
X62250Y731897D01*
X62175Y731773D01*
X62098Y731652D01*
X62017Y731532D01*
X61934Y731414D01*
X61847Y731299D01*
X61757Y731186D01*
X61664Y731075D01*
X61569Y730967D01*
X61470Y730861D01*
X61369Y730758D01*
X53904Y731083D02*
X53805Y731085D01*
X53705Y731091D01*
X53606Y731100D01*
X53508Y731113D01*
X53410Y731130D01*
X53312Y731151D01*
X53216Y731176D01*
X53121Y731204D01*
X53027Y731236D01*
X52934Y731271D01*
X52842Y731310D01*
X52752Y731353D01*
X52664Y731398D01*
X52577Y731448D01*
X52493Y731500D01*
X52410Y731556D01*
X52330Y731614D01*
X52252Y731676D01*
X52177Y731741D01*
X52104Y731809D01*
X52034Y731879D01*
X51966Y731952D01*
X51901Y732027D01*
X51839Y732105D01*
X51781Y732185D01*
X51725Y732268D01*
X51673Y732352D01*
X51623Y732439D01*
X51578Y732527D01*
X51535Y732617D01*
X51496Y732709D01*
X51461Y732802D01*
X51429Y732896D01*
X51401Y732991D01*
X51376Y733087D01*
X51355Y733185D01*
X51338Y733283D01*
X51325Y733381D01*
X51316Y733480D01*
X51310Y733580D01*
X51308Y733679D01*
X51310Y733815D01*
X51316Y733951D01*
X51325Y734087D01*
X51338Y734223D01*
X51356Y734358D01*
X51376Y734492D01*
X51401Y734626D01*
X51429Y734760D01*
X51462Y734892D01*
X51497Y735023D01*
X51537Y735154D01*
X51580Y735283D01*
X51626Y735411D01*
X51677Y735537D01*
X51730Y735663D01*
X51788Y735786D01*
X51848Y735908D01*
X51912Y736028D01*
X51980Y736147D01*
X52050Y736263D01*
X52124Y736377D01*
X52201Y736490D01*
X52282Y736600D01*
X56176Y732381D02*
X56123Y732295D01*
X56066Y732211D01*
X56007Y732129D01*
X55944Y732049D01*
X55878Y731972D01*
X55810Y731897D01*
X55738Y731825D01*
X55664Y731756D01*
X55587Y731690D01*
X55508Y731627D01*
X55426Y731567D01*
X55342Y731510D01*
X55256Y731456D01*
X55168Y731406D01*
X55078Y731359D01*
X54987Y731315D01*
X54893Y731276D01*
X54799Y731239D01*
X54703Y731207D01*
X54605Y731178D01*
X54507Y731153D01*
X54408Y731132D01*
X54308Y731114D01*
X54208Y731101D01*
X54107Y731091D01*
X54005Y731085D01*
X53904Y731083D01*
X58124Y735951D02*
X58177Y736037D01*
X58234Y736121D01*
X58293Y736203D01*
X58356Y736283D01*
X58422Y736360D01*
X58490Y736435D01*
X58562Y736507D01*
X58636Y736576D01*
X58713Y736642D01*
X58792Y736705D01*
X58874Y736765D01*
X58958Y736822D01*
X59044Y736876D01*
X59132Y736926D01*
X59222Y736973D01*
X59313Y737017D01*
X59407Y737056D01*
X59501Y737093D01*
X59597Y737125D01*
X59695Y737154D01*
X59793Y737179D01*
X59892Y737200D01*
X59992Y737218D01*
X60092Y737231D01*
X60193Y737241D01*
X60295Y737247D01*
X60396Y737249D01*
X58124Y735951D02*
X56176Y732381D01*
X51308Y741384D02*
X62992Y743980D01*
X55203Y746577D01*
X62992Y749173D01*
X51308Y751769D01*
X62992Y756285D02*
X62992Y759531D01*
X62990Y759644D01*
X62984Y759757D01*
X62974Y759870D01*
X62960Y759983D01*
X62943Y760095D01*
X62921Y760206D01*
X62896Y760316D01*
X62866Y760426D01*
X62833Y760534D01*
X62796Y760641D01*
X62756Y760747D01*
X62711Y760851D01*
X62663Y760954D01*
X62612Y761055D01*
X62557Y761154D01*
X62499Y761251D01*
X62437Y761346D01*
X62372Y761439D01*
X62304Y761529D01*
X62233Y761617D01*
X62158Y761703D01*
X62081Y761786D01*
X62001Y761866D01*
X61918Y761943D01*
X61832Y762018D01*
X61744Y762089D01*
X61654Y762157D01*
X61561Y762222D01*
X61466Y762284D01*
X61369Y762342D01*
X61270Y762397D01*
X61169Y762448D01*
X61066Y762496D01*
X60962Y762541D01*
X60856Y762581D01*
X60749Y762618D01*
X60641Y762651D01*
X60531Y762681D01*
X60421Y762706D01*
X60310Y762728D01*
X60198Y762745D01*
X60085Y762759D01*
X59972Y762769D01*
X59859Y762775D01*
X59746Y762777D01*
X59633Y762775D01*
X59520Y762769D01*
X59407Y762759D01*
X59294Y762745D01*
X59182Y762728D01*
X59071Y762706D01*
X58961Y762681D01*
X58851Y762651D01*
X58743Y762618D01*
X58636Y762581D01*
X58530Y762541D01*
X58426Y762496D01*
X58323Y762448D01*
X58222Y762397D01*
X58123Y762342D01*
X58026Y762284D01*
X57931Y762222D01*
X57838Y762157D01*
X57748Y762089D01*
X57660Y762018D01*
X57574Y761943D01*
X57491Y761866D01*
X57411Y761786D01*
X57334Y761703D01*
X57259Y761617D01*
X57188Y761529D01*
X57120Y761439D01*
X57055Y761346D01*
X56993Y761251D01*
X56935Y761154D01*
X56880Y761055D01*
X56829Y760954D01*
X56781Y760851D01*
X56736Y760747D01*
X56696Y760641D01*
X56659Y760534D01*
X56626Y760426D01*
X56596Y760316D01*
X56571Y760206D01*
X56549Y760095D01*
X56532Y759983D01*
X56518Y759870D01*
X56508Y759757D01*
X56502Y759644D01*
X56500Y759531D01*
X51308Y760180D02*
X51308Y756285D01*
X51308Y760180D02*
X51310Y760281D01*
X51316Y760381D01*
X51326Y760481D01*
X51339Y760581D01*
X51357Y760680D01*
X51378Y760779D01*
X51403Y760876D01*
X51432Y760973D01*
X51465Y761068D01*
X51501Y761162D01*
X51541Y761254D01*
X51584Y761345D01*
X51631Y761434D01*
X51681Y761521D01*
X51735Y761607D01*
X51792Y761690D01*
X51852Y761770D01*
X51915Y761849D01*
X51982Y761925D01*
X52051Y761998D01*
X52123Y762068D01*
X52197Y762136D01*
X52274Y762201D01*
X52354Y762262D01*
X52436Y762321D01*
X52520Y762376D01*
X52606Y762428D01*
X52694Y762477D01*
X52784Y762522D01*
X52876Y762564D01*
X52969Y762602D01*
X53064Y762636D01*
X53159Y762667D01*
X53256Y762694D01*
X53354Y762717D01*
X53453Y762737D01*
X53553Y762752D01*
X53653Y762764D01*
X53753Y762772D01*
X53854Y762776D01*
X53954Y762776D01*
X54055Y762772D01*
X54155Y762764D01*
X54255Y762752D01*
X54355Y762737D01*
X54454Y762717D01*
X54552Y762694D01*
X54649Y762667D01*
X54744Y762636D01*
X54839Y762602D01*
X54932Y762564D01*
X55024Y762522D01*
X55114Y762477D01*
X55202Y762428D01*
X55288Y762376D01*
X55372Y762321D01*
X55454Y762262D01*
X55534Y762201D01*
X55611Y762136D01*
X55685Y762068D01*
X55757Y761998D01*
X55826Y761925D01*
X55893Y761849D01*
X55956Y761770D01*
X56016Y761690D01*
X56073Y761607D01*
X56127Y761521D01*
X56177Y761434D01*
X56224Y761345D01*
X56267Y761254D01*
X56307Y761162D01*
X56343Y761068D01*
X56376Y760973D01*
X56405Y760876D01*
X56430Y760779D01*
X56451Y760680D01*
X56469Y760581D01*
X56482Y760481D01*
X56492Y760381D01*
X56498Y760281D01*
X56500Y760180D01*
X56501Y760180D02*
X56501Y757583D01*
D12*
X38100Y447421D02*
X23622Y447421D01*
X23622Y457200D01*
X83693Y491871D02*
X83693Y507365D01*
X83693Y507368D01*
X83693Y507365D02*
X63500Y507365D01*
D10*
X60396Y457849D02*
X60495Y457847D01*
X60595Y457841D01*
X60694Y457832D01*
X60792Y457819D01*
X60890Y457802D01*
X60988Y457781D01*
X61084Y457756D01*
X61179Y457728D01*
X61273Y457696D01*
X61366Y457661D01*
X61458Y457622D01*
X61548Y457579D01*
X61636Y457534D01*
X61723Y457484D01*
X61807Y457432D01*
X61890Y457376D01*
X61970Y457318D01*
X62048Y457256D01*
X62123Y457191D01*
X62196Y457123D01*
X62266Y457053D01*
X62334Y456980D01*
X62399Y456905D01*
X62461Y456827D01*
X62519Y456747D01*
X62575Y456664D01*
X62627Y456580D01*
X62677Y456493D01*
X62722Y456405D01*
X62765Y456315D01*
X62804Y456223D01*
X62839Y456130D01*
X62871Y456036D01*
X62899Y455941D01*
X62924Y455845D01*
X62945Y455747D01*
X62962Y455649D01*
X62975Y455551D01*
X62984Y455452D01*
X62990Y455352D01*
X62992Y455253D01*
X62990Y455109D01*
X62984Y454964D01*
X62975Y454820D01*
X62962Y454677D01*
X62945Y454533D01*
X62924Y454390D01*
X62899Y454248D01*
X62871Y454107D01*
X62839Y453966D01*
X62803Y453826D01*
X62764Y453687D01*
X62721Y453549D01*
X62674Y453413D01*
X62624Y453277D01*
X62570Y453143D01*
X62513Y453011D01*
X62452Y452880D01*
X62388Y452751D01*
X62320Y452623D01*
X62250Y452497D01*
X62175Y452373D01*
X62098Y452252D01*
X62017Y452132D01*
X61934Y452014D01*
X61847Y451899D01*
X61757Y451786D01*
X61664Y451675D01*
X61569Y451567D01*
X61470Y451461D01*
X61369Y451358D01*
X53904Y451683D02*
X53805Y451685D01*
X53705Y451691D01*
X53606Y451700D01*
X53508Y451713D01*
X53410Y451730D01*
X53312Y451751D01*
X53216Y451776D01*
X53121Y451804D01*
X53027Y451836D01*
X52934Y451871D01*
X52842Y451910D01*
X52752Y451953D01*
X52664Y451998D01*
X52577Y452048D01*
X52493Y452100D01*
X52410Y452156D01*
X52330Y452214D01*
X52252Y452276D01*
X52177Y452341D01*
X52104Y452409D01*
X52034Y452479D01*
X51966Y452552D01*
X51901Y452627D01*
X51839Y452705D01*
X51781Y452785D01*
X51725Y452868D01*
X51673Y452952D01*
X51623Y453039D01*
X51578Y453127D01*
X51535Y453217D01*
X51496Y453309D01*
X51461Y453402D01*
X51429Y453496D01*
X51401Y453591D01*
X51376Y453687D01*
X51355Y453785D01*
X51338Y453883D01*
X51325Y453981D01*
X51316Y454080D01*
X51310Y454180D01*
X51308Y454279D01*
X51310Y454415D01*
X51316Y454551D01*
X51325Y454687D01*
X51338Y454823D01*
X51356Y454958D01*
X51376Y455092D01*
X51401Y455226D01*
X51429Y455360D01*
X51462Y455492D01*
X51497Y455623D01*
X51537Y455754D01*
X51580Y455883D01*
X51626Y456011D01*
X51677Y456137D01*
X51730Y456263D01*
X51788Y456386D01*
X51848Y456508D01*
X51912Y456628D01*
X51980Y456747D01*
X52050Y456863D01*
X52124Y456977D01*
X52201Y457090D01*
X52282Y457200D01*
X56176Y452981D02*
X56123Y452895D01*
X56066Y452811D01*
X56007Y452729D01*
X55944Y452649D01*
X55878Y452572D01*
X55810Y452497D01*
X55738Y452425D01*
X55664Y452356D01*
X55587Y452290D01*
X55508Y452227D01*
X55426Y452167D01*
X55342Y452110D01*
X55256Y452056D01*
X55168Y452006D01*
X55078Y451959D01*
X54987Y451915D01*
X54893Y451876D01*
X54799Y451839D01*
X54703Y451807D01*
X54605Y451778D01*
X54507Y451753D01*
X54408Y451732D01*
X54308Y451714D01*
X54208Y451701D01*
X54107Y451691D01*
X54005Y451685D01*
X53904Y451683D01*
X58124Y456551D02*
X58177Y456637D01*
X58234Y456721D01*
X58293Y456803D01*
X58356Y456883D01*
X58422Y456960D01*
X58490Y457035D01*
X58562Y457107D01*
X58636Y457176D01*
X58713Y457242D01*
X58792Y457305D01*
X58874Y457365D01*
X58958Y457422D01*
X59044Y457476D01*
X59132Y457526D01*
X59222Y457573D01*
X59313Y457617D01*
X59407Y457656D01*
X59501Y457693D01*
X59597Y457725D01*
X59695Y457754D01*
X59793Y457779D01*
X59892Y457800D01*
X59992Y457818D01*
X60092Y457831D01*
X60193Y457841D01*
X60295Y457847D01*
X60396Y457849D01*
X58124Y456551D02*
X56176Y452981D01*
X51308Y461984D02*
X62992Y464580D01*
X55203Y467177D01*
X62992Y469773D01*
X51308Y472369D01*
X51308Y479481D02*
X60396Y476885D01*
X60396Y483376D01*
X57799Y481429D02*
X62992Y481429D01*
D12*
X442200Y536040D02*
X472200Y536040D01*
X472200Y505360D02*
X442200Y505360D01*
D16*
X422200Y533700D02*
X422202Y533763D01*
X422208Y533825D01*
X422218Y533887D01*
X422231Y533949D01*
X422249Y534009D01*
X422270Y534068D01*
X422295Y534126D01*
X422324Y534182D01*
X422356Y534236D01*
X422391Y534288D01*
X422429Y534337D01*
X422471Y534385D01*
X422515Y534429D01*
X422563Y534471D01*
X422612Y534509D01*
X422664Y534544D01*
X422718Y534576D01*
X422774Y534605D01*
X422832Y534630D01*
X422891Y534651D01*
X422951Y534669D01*
X423013Y534682D01*
X423075Y534692D01*
X423137Y534698D01*
X423200Y534700D01*
X423263Y534698D01*
X423325Y534692D01*
X423387Y534682D01*
X423449Y534669D01*
X423509Y534651D01*
X423568Y534630D01*
X423626Y534605D01*
X423682Y534576D01*
X423736Y534544D01*
X423788Y534509D01*
X423837Y534471D01*
X423885Y534429D01*
X423929Y534385D01*
X423971Y534337D01*
X424009Y534288D01*
X424044Y534236D01*
X424076Y534182D01*
X424105Y534126D01*
X424130Y534068D01*
X424151Y534009D01*
X424169Y533949D01*
X424182Y533887D01*
X424192Y533825D01*
X424198Y533763D01*
X424200Y533700D01*
X424198Y533637D01*
X424192Y533575D01*
X424182Y533513D01*
X424169Y533451D01*
X424151Y533391D01*
X424130Y533332D01*
X424105Y533274D01*
X424076Y533218D01*
X424044Y533164D01*
X424009Y533112D01*
X423971Y533063D01*
X423929Y533015D01*
X423885Y532971D01*
X423837Y532929D01*
X423788Y532891D01*
X423736Y532856D01*
X423682Y532824D01*
X423626Y532795D01*
X423568Y532770D01*
X423509Y532749D01*
X423449Y532731D01*
X423387Y532718D01*
X423325Y532708D01*
X423263Y532702D01*
X423200Y532700D01*
X423137Y532702D01*
X423075Y532708D01*
X423013Y532718D01*
X422951Y532731D01*
X422891Y532749D01*
X422832Y532770D01*
X422774Y532795D01*
X422718Y532824D01*
X422664Y532856D01*
X422612Y532891D01*
X422563Y532929D01*
X422515Y532971D01*
X422471Y533015D01*
X422429Y533063D01*
X422391Y533112D01*
X422356Y533164D01*
X422324Y533218D01*
X422295Y533274D01*
X422270Y533332D01*
X422249Y533391D01*
X422231Y533451D01*
X422218Y533513D01*
X422208Y533575D01*
X422202Y533637D01*
X422200Y533700D01*
D10*
X426708Y543854D02*
X426708Y552292D01*
X426708Y543854D02*
X426710Y543741D01*
X426716Y543628D01*
X426726Y543515D01*
X426740Y543402D01*
X426757Y543290D01*
X426779Y543179D01*
X426804Y543069D01*
X426834Y542959D01*
X426867Y542851D01*
X426904Y542744D01*
X426944Y542638D01*
X426989Y542534D01*
X427037Y542431D01*
X427088Y542330D01*
X427143Y542231D01*
X427201Y542134D01*
X427263Y542039D01*
X427328Y541946D01*
X427396Y541856D01*
X427467Y541768D01*
X427542Y541682D01*
X427619Y541599D01*
X427699Y541519D01*
X427782Y541442D01*
X427868Y541367D01*
X427956Y541296D01*
X428046Y541228D01*
X428139Y541163D01*
X428234Y541101D01*
X428331Y541043D01*
X428430Y540988D01*
X428531Y540937D01*
X428634Y540889D01*
X428738Y540844D01*
X428844Y540804D01*
X428951Y540767D01*
X429059Y540734D01*
X429169Y540704D01*
X429279Y540679D01*
X429390Y540657D01*
X429502Y540640D01*
X429615Y540626D01*
X429728Y540616D01*
X429841Y540610D01*
X429954Y540608D01*
X430067Y540610D01*
X430180Y540616D01*
X430293Y540626D01*
X430406Y540640D01*
X430518Y540657D01*
X430629Y540679D01*
X430739Y540704D01*
X430849Y540734D01*
X430957Y540767D01*
X431064Y540804D01*
X431170Y540844D01*
X431274Y540889D01*
X431377Y540937D01*
X431478Y540988D01*
X431577Y541043D01*
X431674Y541101D01*
X431769Y541163D01*
X431862Y541228D01*
X431952Y541296D01*
X432040Y541367D01*
X432126Y541442D01*
X432209Y541519D01*
X432289Y541599D01*
X432366Y541682D01*
X432441Y541768D01*
X432512Y541856D01*
X432580Y541946D01*
X432645Y542039D01*
X432707Y542134D01*
X432765Y542231D01*
X432820Y542330D01*
X432871Y542431D01*
X432919Y542534D01*
X432964Y542638D01*
X433004Y542744D01*
X433041Y542851D01*
X433074Y542959D01*
X433104Y543069D01*
X433129Y543179D01*
X433151Y543290D01*
X433168Y543402D01*
X433182Y543515D01*
X433192Y543628D01*
X433198Y543741D01*
X433200Y543854D01*
X433199Y543854D02*
X433199Y552292D01*
X441003Y552292D02*
X441003Y540608D01*
X441003Y546450D02*
X439380Y547424D01*
X439379Y547423D02*
X439306Y547470D01*
X439235Y547519D01*
X439165Y547572D01*
X439099Y547628D01*
X439035Y547687D01*
X438973Y547748D01*
X438915Y547812D01*
X438859Y547879D01*
X438807Y547948D01*
X438757Y548020D01*
X438711Y548094D01*
X438668Y548169D01*
X438629Y548247D01*
X438593Y548326D01*
X438561Y548407D01*
X438532Y548489D01*
X438507Y548572D01*
X438486Y548656D01*
X438469Y548741D01*
X438455Y548827D01*
X438446Y548913D01*
X438440Y549000D01*
X438438Y549087D01*
X438440Y549174D01*
X438446Y549261D01*
X438456Y549347D01*
X438469Y549433D01*
X438487Y549518D01*
X438508Y549602D01*
X438533Y549685D01*
X438562Y549768D01*
X438594Y549848D01*
X438630Y549927D01*
X438669Y550005D01*
X438712Y550080D01*
X438759Y550154D01*
X438808Y550225D01*
X438861Y550295D01*
X438916Y550361D01*
X438975Y550425D01*
X439036Y550487D01*
X439101Y550546D01*
X439167Y550601D01*
X439236Y550654D01*
X439308Y550704D01*
X439381Y550750D01*
X439457Y550793D01*
X439534Y550832D01*
X439613Y550868D01*
X439694Y550901D01*
X439776Y550929D01*
X439859Y550955D01*
X439943Y550976D01*
X440029Y550993D01*
X440029Y550994D02*
X440169Y551018D01*
X440311Y551038D01*
X440452Y551054D01*
X440594Y551065D01*
X440737Y551073D01*
X440879Y551077D01*
X441022Y551078D01*
X441165Y551074D01*
X441307Y551066D01*
X441449Y551054D01*
X441591Y551038D01*
X441732Y551019D01*
X441873Y550995D01*
X442013Y550968D01*
X442152Y550936D01*
X442290Y550901D01*
X442428Y550862D01*
X442564Y550819D01*
X442698Y550773D01*
X442832Y550722D01*
X442964Y550669D01*
X443094Y550611D01*
X443223Y550550D01*
X443350Y550485D01*
X443476Y550417D01*
X443599Y550345D01*
X441003Y546450D02*
X442625Y545476D01*
X442626Y545477D02*
X442699Y545430D01*
X442770Y545381D01*
X442840Y545328D01*
X442906Y545272D01*
X442970Y545213D01*
X443032Y545152D01*
X443090Y545088D01*
X443146Y545021D01*
X443198Y544952D01*
X443248Y544880D01*
X443294Y544806D01*
X443337Y544731D01*
X443376Y544653D01*
X443412Y544574D01*
X443444Y544493D01*
X443473Y544411D01*
X443498Y544328D01*
X443519Y544244D01*
X443536Y544159D01*
X443550Y544073D01*
X443559Y543987D01*
X443565Y543900D01*
X443567Y543813D01*
X443565Y543726D01*
X443559Y543639D01*
X443549Y543553D01*
X443536Y543467D01*
X443518Y543382D01*
X443497Y543298D01*
X443472Y543215D01*
X443443Y543132D01*
X443411Y543052D01*
X443375Y542973D01*
X443336Y542895D01*
X443293Y542820D01*
X443246Y542746D01*
X443197Y542675D01*
X443144Y542605D01*
X443089Y542539D01*
X443030Y542475D01*
X442969Y542413D01*
X442904Y542354D01*
X442838Y542299D01*
X442769Y542246D01*
X442697Y542196D01*
X442624Y542150D01*
X442548Y542107D01*
X442471Y542068D01*
X442392Y542032D01*
X442311Y541999D01*
X442229Y541971D01*
X442146Y541945D01*
X442062Y541924D01*
X441977Y541907D01*
X441976Y541906D02*
X441836Y541882D01*
X441694Y541862D01*
X441553Y541846D01*
X441411Y541835D01*
X441268Y541827D01*
X441126Y541823D01*
X440983Y541822D01*
X440840Y541826D01*
X440698Y541834D01*
X440556Y541846D01*
X440414Y541862D01*
X440273Y541881D01*
X440132Y541905D01*
X439992Y541932D01*
X439853Y541964D01*
X439715Y541999D01*
X439577Y542038D01*
X439441Y542081D01*
X439307Y542127D01*
X439173Y542178D01*
X439041Y542231D01*
X438911Y542289D01*
X438782Y542350D01*
X438655Y542415D01*
X438529Y542483D01*
X438406Y542555D01*
X448425Y540608D02*
X451671Y540608D01*
X451784Y540610D01*
X451897Y540616D01*
X452010Y540626D01*
X452123Y540640D01*
X452235Y540657D01*
X452346Y540679D01*
X452456Y540704D01*
X452566Y540734D01*
X452674Y540767D01*
X452781Y540804D01*
X452887Y540844D01*
X452991Y540889D01*
X453094Y540937D01*
X453195Y540988D01*
X453294Y541043D01*
X453391Y541101D01*
X453486Y541163D01*
X453579Y541228D01*
X453669Y541296D01*
X453757Y541367D01*
X453843Y541442D01*
X453926Y541519D01*
X454006Y541599D01*
X454083Y541682D01*
X454158Y541768D01*
X454229Y541856D01*
X454297Y541946D01*
X454362Y542039D01*
X454424Y542134D01*
X454482Y542231D01*
X454537Y542330D01*
X454588Y542431D01*
X454636Y542534D01*
X454681Y542638D01*
X454721Y542744D01*
X454758Y542851D01*
X454791Y542959D01*
X454821Y543069D01*
X454846Y543179D01*
X454868Y543290D01*
X454885Y543402D01*
X454899Y543515D01*
X454909Y543628D01*
X454915Y543741D01*
X454917Y543854D01*
X454915Y543967D01*
X454909Y544080D01*
X454899Y544193D01*
X454885Y544306D01*
X454868Y544418D01*
X454846Y544529D01*
X454821Y544639D01*
X454791Y544749D01*
X454758Y544857D01*
X454721Y544964D01*
X454681Y545070D01*
X454636Y545174D01*
X454588Y545277D01*
X454537Y545378D01*
X454482Y545477D01*
X454424Y545574D01*
X454362Y545669D01*
X454297Y545762D01*
X454229Y545852D01*
X454158Y545940D01*
X454083Y546026D01*
X454006Y546109D01*
X453926Y546189D01*
X453843Y546266D01*
X453757Y546341D01*
X453669Y546412D01*
X453579Y546480D01*
X453486Y546545D01*
X453391Y546607D01*
X453294Y546665D01*
X453195Y546720D01*
X453094Y546771D01*
X452991Y546819D01*
X452887Y546864D01*
X452781Y546904D01*
X452674Y546941D01*
X452566Y546974D01*
X452456Y547004D01*
X452346Y547029D01*
X452235Y547051D01*
X452123Y547068D01*
X452010Y547082D01*
X451897Y547092D01*
X451784Y547098D01*
X451671Y547100D01*
X452320Y552292D02*
X448425Y552292D01*
X452320Y552292D02*
X452421Y552290D01*
X452521Y552284D01*
X452621Y552274D01*
X452721Y552261D01*
X452820Y552243D01*
X452919Y552222D01*
X453016Y552197D01*
X453113Y552168D01*
X453208Y552135D01*
X453302Y552099D01*
X453394Y552059D01*
X453485Y552016D01*
X453574Y551969D01*
X453661Y551919D01*
X453747Y551865D01*
X453830Y551808D01*
X453910Y551748D01*
X453989Y551685D01*
X454065Y551618D01*
X454138Y551549D01*
X454208Y551477D01*
X454276Y551403D01*
X454341Y551326D01*
X454402Y551246D01*
X454461Y551164D01*
X454516Y551080D01*
X454568Y550994D01*
X454617Y550906D01*
X454662Y550816D01*
X454704Y550724D01*
X454742Y550631D01*
X454776Y550536D01*
X454807Y550441D01*
X454834Y550344D01*
X454857Y550246D01*
X454877Y550147D01*
X454892Y550047D01*
X454904Y549947D01*
X454912Y549847D01*
X454916Y549746D01*
X454916Y549646D01*
X454912Y549545D01*
X454904Y549445D01*
X454892Y549345D01*
X454877Y549245D01*
X454857Y549146D01*
X454834Y549048D01*
X454807Y548951D01*
X454776Y548856D01*
X454742Y548761D01*
X454704Y548668D01*
X454662Y548576D01*
X454617Y548486D01*
X454568Y548398D01*
X454516Y548312D01*
X454461Y548228D01*
X454402Y548146D01*
X454341Y548066D01*
X454276Y547989D01*
X454208Y547915D01*
X454138Y547843D01*
X454065Y547774D01*
X453989Y547707D01*
X453910Y547644D01*
X453830Y547584D01*
X453747Y547527D01*
X453661Y547473D01*
X453574Y547423D01*
X453485Y547376D01*
X453394Y547333D01*
X453302Y547293D01*
X453208Y547257D01*
X453113Y547224D01*
X453016Y547195D01*
X452919Y547170D01*
X452820Y547149D01*
X452721Y547131D01*
X452621Y547118D01*
X452521Y547108D01*
X452421Y547102D01*
X452320Y547100D01*
X452320Y547099D02*
X449723Y547099D01*
M02*
