G04 EAGLE Gerber RS-274X export*
G75*
%MOMM*%
%FSLAX34Y34*%
%LPD*%
%INSoldermask Top*%
%IPPOS*%
%AMOC8*
5,1,8,0,0,1.08239X$1,22.5*%
G01*
%ADD10R,1.601600X1.401600*%
%ADD11P,1.842011X8X22.500000*%
%ADD12C,1.701800*%
%ADD13C,1.422400*%
%ADD14C,1.727200*%
%ADD15C,1.551600*%
%ADD16R,1.451600X0.501600*%
%ADD17R,2.001600X1.601600*%
%ADD18R,2.001600X1.301600*%
%ADD19C,1.209600*%
%ADD20P,2.199416X8X112.500000*%
%ADD21R,1.301600X1.301600*%
%ADD22C,1.901600*%
%ADD23R,1.401600X1.601600*%
%ADD24R,1.609600X1.609600*%
%ADD25C,1.609600*%
%ADD26C,2.101600*%
%ADD27R,1.701600X0.651600*%
%ADD28R,0.651600X1.701600*%
%ADD29R,1.600200X0.533400*%
%ADD30R,1.498600X2.209800*%
%ADD31C,0.327659*%
%ADD32C,0.322197*%

G36*
X662192Y967420D02*
X662192Y967420D01*
X662235Y967432D01*
X662301Y967439D01*
X663984Y967890D01*
X664025Y967909D01*
X664088Y967928D01*
X665668Y968665D01*
X665705Y968691D01*
X665764Y968720D01*
X667192Y969720D01*
X667223Y969752D01*
X667276Y969791D01*
X668509Y971024D01*
X668534Y971060D01*
X668580Y971108D01*
X669580Y972536D01*
X669598Y972577D01*
X669635Y972632D01*
X670372Y974212D01*
X670383Y974255D01*
X670410Y974316D01*
X670861Y975999D01*
X670863Y976031D01*
X670870Y976052D01*
X670870Y976067D01*
X670880Y976108D01*
X671032Y977845D01*
X671028Y977889D01*
X671032Y977955D01*
X670880Y979692D01*
X670868Y979735D01*
X670861Y979801D01*
X670410Y981484D01*
X670391Y981525D01*
X670372Y981588D01*
X669635Y983168D01*
X669609Y983205D01*
X669580Y983264D01*
X668580Y984692D01*
X668548Y984723D01*
X668509Y984776D01*
X667276Y986009D01*
X667240Y986034D01*
X667192Y986080D01*
X665764Y987080D01*
X665723Y987098D01*
X665668Y987135D01*
X664088Y987872D01*
X664045Y987883D01*
X663984Y987910D01*
X662301Y988361D01*
X662256Y988364D01*
X662192Y988380D01*
X660455Y988532D01*
X660411Y988528D01*
X660345Y988532D01*
X658608Y988380D01*
X658565Y988368D01*
X658499Y988361D01*
X656816Y987910D01*
X656775Y987891D01*
X656712Y987872D01*
X655132Y987135D01*
X655095Y987109D01*
X655036Y987080D01*
X653608Y986080D01*
X653577Y986048D01*
X653524Y986009D01*
X652291Y984776D01*
X652266Y984740D01*
X652220Y984692D01*
X651220Y983264D01*
X651202Y983223D01*
X651165Y983168D01*
X650428Y981588D01*
X650417Y981545D01*
X650390Y981484D01*
X649939Y979801D01*
X649936Y979756D01*
X649920Y979692D01*
X649768Y977955D01*
X649772Y977911D01*
X649768Y977845D01*
X649920Y976108D01*
X649932Y976065D01*
X649936Y976031D01*
X649936Y976015D01*
X649938Y976010D01*
X649939Y975999D01*
X650390Y974316D01*
X650409Y974275D01*
X650428Y974212D01*
X651165Y972632D01*
X651191Y972595D01*
X651220Y972536D01*
X652220Y971108D01*
X652252Y971077D01*
X652291Y971024D01*
X653524Y969791D01*
X653560Y969766D01*
X653608Y969720D01*
X655036Y968720D01*
X655077Y968702D01*
X655132Y968665D01*
X656712Y967928D01*
X656755Y967917D01*
X656816Y967890D01*
X658499Y967439D01*
X658544Y967436D01*
X658608Y967420D01*
X660345Y967268D01*
X660389Y967272D01*
X660455Y967268D01*
X662192Y967420D01*
G37*
G36*
X27192Y967420D02*
X27192Y967420D01*
X27235Y967432D01*
X27301Y967439D01*
X28984Y967890D01*
X29025Y967909D01*
X29088Y967928D01*
X30668Y968665D01*
X30705Y968691D01*
X30764Y968720D01*
X32192Y969720D01*
X32223Y969752D01*
X32276Y969791D01*
X33509Y971024D01*
X33534Y971060D01*
X33580Y971108D01*
X34580Y972536D01*
X34598Y972577D01*
X34635Y972632D01*
X35372Y974212D01*
X35383Y974255D01*
X35410Y974316D01*
X35861Y975999D01*
X35863Y976031D01*
X35870Y976052D01*
X35870Y976067D01*
X35880Y976108D01*
X36032Y977845D01*
X36028Y977889D01*
X36032Y977955D01*
X35880Y979692D01*
X35868Y979735D01*
X35861Y979801D01*
X35410Y981484D01*
X35391Y981525D01*
X35372Y981588D01*
X34635Y983168D01*
X34609Y983205D01*
X34580Y983264D01*
X33580Y984692D01*
X33548Y984723D01*
X33509Y984776D01*
X32276Y986009D01*
X32240Y986034D01*
X32192Y986080D01*
X30764Y987080D01*
X30723Y987098D01*
X30668Y987135D01*
X29088Y987872D01*
X29045Y987883D01*
X28984Y987910D01*
X27301Y988361D01*
X27256Y988364D01*
X27192Y988380D01*
X25455Y988532D01*
X25411Y988528D01*
X25345Y988532D01*
X23608Y988380D01*
X23565Y988368D01*
X23499Y988361D01*
X21816Y987910D01*
X21775Y987891D01*
X21712Y987872D01*
X20132Y987135D01*
X20095Y987109D01*
X20036Y987080D01*
X18608Y986080D01*
X18577Y986048D01*
X18524Y986009D01*
X17291Y984776D01*
X17266Y984740D01*
X17220Y984692D01*
X16220Y983264D01*
X16202Y983223D01*
X16165Y983168D01*
X15428Y981588D01*
X15417Y981545D01*
X15390Y981484D01*
X14939Y979801D01*
X14936Y979756D01*
X14920Y979692D01*
X14768Y977955D01*
X14772Y977911D01*
X14768Y977845D01*
X14920Y976108D01*
X14932Y976065D01*
X14936Y976031D01*
X14936Y976015D01*
X14938Y976010D01*
X14939Y975999D01*
X15390Y974316D01*
X15409Y974275D01*
X15428Y974212D01*
X16165Y972632D01*
X16191Y972595D01*
X16220Y972536D01*
X17220Y971108D01*
X17252Y971077D01*
X17291Y971024D01*
X18524Y969791D01*
X18560Y969766D01*
X18608Y969720D01*
X20036Y968720D01*
X20077Y968702D01*
X20132Y968665D01*
X21712Y967928D01*
X21755Y967917D01*
X21816Y967890D01*
X23499Y967439D01*
X23544Y967436D01*
X23608Y967420D01*
X25345Y967268D01*
X25389Y967272D01*
X25455Y967268D01*
X27192Y967420D01*
G37*
G36*
X662192Y103820D02*
X662192Y103820D01*
X662235Y103832D01*
X662301Y103839D01*
X663984Y104290D01*
X664025Y104309D01*
X664088Y104328D01*
X665668Y105065D01*
X665705Y105091D01*
X665764Y105120D01*
X667192Y106120D01*
X667223Y106152D01*
X667276Y106191D01*
X668509Y107424D01*
X668534Y107460D01*
X668580Y107508D01*
X669580Y108936D01*
X669598Y108977D01*
X669635Y109032D01*
X670372Y110612D01*
X670383Y110655D01*
X670410Y110716D01*
X670861Y112399D01*
X670863Y112431D01*
X670870Y112452D01*
X670870Y112467D01*
X670880Y112508D01*
X671032Y114245D01*
X671028Y114289D01*
X671032Y114355D01*
X670880Y116092D01*
X670868Y116135D01*
X670861Y116201D01*
X670410Y117884D01*
X670391Y117925D01*
X670372Y117988D01*
X669635Y119568D01*
X669609Y119605D01*
X669580Y119664D01*
X668580Y121092D01*
X668548Y121123D01*
X668509Y121176D01*
X667276Y122409D01*
X667240Y122434D01*
X667192Y122480D01*
X665764Y123480D01*
X665723Y123498D01*
X665668Y123535D01*
X664088Y124272D01*
X664045Y124283D01*
X663984Y124310D01*
X662301Y124761D01*
X662256Y124764D01*
X662192Y124780D01*
X660455Y124932D01*
X660411Y124928D01*
X660345Y124932D01*
X658608Y124780D01*
X658565Y124768D01*
X658499Y124761D01*
X656816Y124310D01*
X656775Y124291D01*
X656712Y124272D01*
X655132Y123535D01*
X655095Y123509D01*
X655036Y123480D01*
X653608Y122480D01*
X653577Y122448D01*
X653524Y122409D01*
X652291Y121176D01*
X652266Y121140D01*
X652220Y121092D01*
X651220Y119664D01*
X651202Y119623D01*
X651165Y119568D01*
X650428Y117988D01*
X650417Y117945D01*
X650390Y117884D01*
X649939Y116201D01*
X649936Y116156D01*
X649920Y116092D01*
X649768Y114355D01*
X649772Y114311D01*
X649768Y114245D01*
X649920Y112508D01*
X649932Y112465D01*
X649936Y112431D01*
X649936Y112415D01*
X649938Y112410D01*
X649939Y112399D01*
X650390Y110716D01*
X650409Y110675D01*
X650428Y110612D01*
X651165Y109032D01*
X651191Y108995D01*
X651220Y108936D01*
X652220Y107508D01*
X652252Y107477D01*
X652291Y107424D01*
X653524Y106191D01*
X653560Y106166D01*
X653608Y106120D01*
X655036Y105120D01*
X655077Y105102D01*
X655132Y105065D01*
X656712Y104328D01*
X656755Y104317D01*
X656816Y104290D01*
X658499Y103839D01*
X658544Y103836D01*
X658608Y103820D01*
X660345Y103668D01*
X660389Y103672D01*
X660455Y103668D01*
X662192Y103820D01*
G37*
G36*
X27192Y103820D02*
X27192Y103820D01*
X27235Y103832D01*
X27301Y103839D01*
X28984Y104290D01*
X29025Y104309D01*
X29088Y104328D01*
X30668Y105065D01*
X30705Y105091D01*
X30764Y105120D01*
X32192Y106120D01*
X32223Y106152D01*
X32276Y106191D01*
X33509Y107424D01*
X33534Y107460D01*
X33580Y107508D01*
X34580Y108936D01*
X34598Y108977D01*
X34635Y109032D01*
X35372Y110612D01*
X35383Y110655D01*
X35410Y110716D01*
X35861Y112399D01*
X35863Y112431D01*
X35870Y112452D01*
X35870Y112467D01*
X35880Y112508D01*
X36032Y114245D01*
X36028Y114289D01*
X36032Y114355D01*
X35880Y116092D01*
X35868Y116135D01*
X35861Y116201D01*
X35410Y117884D01*
X35391Y117925D01*
X35372Y117988D01*
X34635Y119568D01*
X34609Y119605D01*
X34580Y119664D01*
X33580Y121092D01*
X33548Y121123D01*
X33509Y121176D01*
X32276Y122409D01*
X32240Y122434D01*
X32192Y122480D01*
X30764Y123480D01*
X30723Y123498D01*
X30668Y123535D01*
X29088Y124272D01*
X29045Y124283D01*
X28984Y124310D01*
X27301Y124761D01*
X27256Y124764D01*
X27192Y124780D01*
X25455Y124932D01*
X25411Y124928D01*
X25345Y124932D01*
X23608Y124780D01*
X23565Y124768D01*
X23499Y124761D01*
X21816Y124310D01*
X21775Y124291D01*
X21712Y124272D01*
X20132Y123535D01*
X20095Y123509D01*
X20036Y123480D01*
X18608Y122480D01*
X18577Y122448D01*
X18524Y122409D01*
X17291Y121176D01*
X17266Y121140D01*
X17220Y121092D01*
X16220Y119664D01*
X16202Y119623D01*
X16165Y119568D01*
X15428Y117988D01*
X15417Y117945D01*
X15390Y117884D01*
X14939Y116201D01*
X14936Y116156D01*
X14920Y116092D01*
X14768Y114355D01*
X14772Y114311D01*
X14768Y114245D01*
X14920Y112508D01*
X14932Y112465D01*
X14936Y112431D01*
X14936Y112415D01*
X14938Y112410D01*
X14939Y112399D01*
X15390Y110716D01*
X15409Y110675D01*
X15428Y110612D01*
X16165Y109032D01*
X16191Y108995D01*
X16220Y108936D01*
X17220Y107508D01*
X17252Y107477D01*
X17291Y107424D01*
X18524Y106191D01*
X18560Y106166D01*
X18608Y106120D01*
X20036Y105120D01*
X20077Y105102D01*
X20132Y105065D01*
X21712Y104328D01*
X21755Y104317D01*
X21816Y104290D01*
X23499Y103839D01*
X23544Y103836D01*
X23608Y103820D01*
X25345Y103668D01*
X25389Y103672D01*
X25455Y103668D01*
X27192Y103820D01*
G37*
D10*
X114300Y771500D03*
X114300Y752500D03*
X584200Y581000D03*
X584200Y562000D03*
D11*
X660400Y203200D03*
D12*
X635000Y203200D03*
D11*
X660400Y279400D03*
D12*
X635000Y279400D03*
D10*
X381000Y479400D03*
X381000Y460400D03*
X114300Y631800D03*
X114300Y612800D03*
X114300Y492100D03*
X114300Y473100D03*
X114300Y911200D03*
X114300Y892200D03*
D13*
X348996Y152400D02*
X362204Y152400D01*
X425196Y152400D02*
X438404Y152400D01*
X501396Y152400D02*
X514604Y152400D01*
X577596Y152400D02*
X590804Y152400D01*
D14*
X647700Y469900D03*
X622300Y469900D03*
X622300Y444500D03*
X647700Y444500D03*
X647700Y495300D03*
X622300Y495300D03*
D15*
X636900Y597300D03*
X636900Y647300D03*
D16*
X636900Y609300D03*
X636900Y615800D03*
X636900Y622300D03*
X636900Y628800D03*
X636900Y635300D03*
D17*
X663900Y612300D03*
X663900Y632300D03*
D18*
X663900Y593300D03*
X663900Y651300D03*
D19*
X669440Y587300D02*
X658360Y587300D01*
X658360Y657300D02*
X669440Y657300D01*
D20*
X647700Y393700D03*
X647700Y330200D03*
D21*
X535600Y711200D03*
X556600Y711200D03*
D22*
X291300Y929300D02*
X291300Y947300D01*
X241300Y947300D02*
X241300Y929300D01*
X191300Y929300D02*
X191300Y947300D01*
D23*
X600100Y711200D03*
X619100Y711200D03*
D10*
X533400Y308000D03*
X533400Y327000D03*
X533400Y244500D03*
X533400Y263500D03*
X406400Y371500D03*
X406400Y390500D03*
X381000Y308000D03*
X381000Y327000D03*
X381000Y244500D03*
X381000Y263500D03*
D22*
X532600Y929300D02*
X532600Y947300D01*
X482600Y947300D02*
X482600Y929300D01*
X432600Y929300D02*
X432600Y947300D01*
D10*
X457200Y371500D03*
X457200Y390500D03*
X457200Y308000D03*
X457200Y327000D03*
X457200Y244500D03*
X457200Y263500D03*
X533400Y371500D03*
X533400Y390500D03*
D24*
X266700Y228600D03*
D25*
X266700Y254000D03*
X266700Y279400D03*
X266700Y304800D03*
D26*
X255270Y162560D03*
X255270Y370840D03*
X24130Y370840D03*
X24130Y162560D03*
D27*
X339200Y675700D03*
X339200Y667700D03*
X339200Y659700D03*
X339200Y651700D03*
X339200Y643700D03*
X339200Y635700D03*
X339200Y627700D03*
X339200Y619700D03*
D28*
X353000Y605900D03*
X361000Y605900D03*
X369000Y605900D03*
X377000Y605900D03*
X385000Y605900D03*
X393000Y605900D03*
X401000Y605900D03*
X409000Y605900D03*
D27*
X422800Y619700D03*
X422800Y627700D03*
X422800Y635700D03*
X422800Y643700D03*
X422800Y651700D03*
X422800Y659700D03*
X422800Y667700D03*
X422800Y675700D03*
D28*
X409000Y689500D03*
X401000Y689500D03*
X393000Y689500D03*
X385000Y689500D03*
X377000Y689500D03*
X369000Y689500D03*
X361000Y689500D03*
X353000Y689500D03*
D29*
X295656Y530352D03*
X295656Y524002D03*
X295656Y517398D03*
X295656Y511048D03*
X339344Y511048D03*
X339344Y517398D03*
X339344Y524002D03*
X339344Y530352D03*
D10*
X485140Y655930D03*
X485140Y636930D03*
D23*
X338430Y859790D03*
X319430Y859790D03*
D10*
X381000Y765200D03*
X381000Y784200D03*
D30*
X76200Y571500D03*
X76200Y662686D03*
X31242Y571500D03*
X31242Y662686D03*
X76200Y850900D03*
X76200Y942086D03*
X31242Y850900D03*
X31242Y942086D03*
X76200Y711200D03*
X76200Y802386D03*
X31242Y711200D03*
X31242Y802386D03*
X76200Y431800D03*
X76200Y522986D03*
X31242Y431800D03*
X31242Y522986D03*
D31*
X429780Y529358D02*
X442520Y529358D01*
X429780Y529358D02*
X429780Y531542D01*
X442520Y531542D01*
X442520Y529358D01*
D32*
X442547Y522831D02*
X429753Y522831D01*
X429753Y525069D01*
X442547Y525069D01*
X442547Y522831D01*
X442547Y516331D02*
X429753Y516331D01*
X429753Y518569D01*
X442547Y518569D01*
X442547Y516331D01*
X442547Y509831D02*
X429753Y509831D01*
X429753Y512069D01*
X442547Y512069D01*
X442547Y509831D01*
X471853Y512069D02*
X484647Y512069D01*
X484647Y509831D01*
X471853Y509831D01*
X471853Y512069D01*
X471853Y518569D02*
X484647Y518569D01*
X484647Y516331D01*
X471853Y516331D01*
X471853Y518569D01*
X471853Y525069D02*
X484647Y525069D01*
X484647Y522831D01*
X471853Y522831D01*
X471853Y525069D01*
X471853Y531569D02*
X484647Y531569D01*
X484647Y529331D01*
X471853Y529331D01*
X471853Y531569D01*
M02*
